<?xml version="1.0" encoding="UTF-8"?>
<svg id="_レイヤー_2" data-name="レイヤー 2" xmlns="http://www.w3.org/2000/svg" viewBox="0 0 46.76 13.57">
  <defs>
    <style>
      .cls-1 {
        fill: #333;
      }
    </style>
  </defs>
  <g id="_編集箇所" data-name="編集箇所">
    <g>
      <path class="cls-1" d="M3.29,9.04c-.62-.57-1.16-.64-1.6-.29-.7.55-.59,1.44.27,2.52.87,1.09,1.7,1.4,2.4.85.51-.4.54-.97.12-1.71l1.23-.52c.55,1.17.27,2.24-.74,3.05-1.34,1.07-2.88.78-4.1-.76-1.22-1.54-1.15-3.15.17-4.19,1.02-.81,2.14-.81,3.11,0l-.86,1.08Z"/>
      <path class="cls-1" d="M7.57,5.19c.15-.82.59-1.53,1.28-1.85.91-.42,1.84-.13,2.32.92l1.82,3.96-1.29.59-1.65-3.6c-.29-.64-.69-.8-1.18-.57-.44.2-.77.8-.85,1.53l1.64,3.58-1.26.58-3.63-7.9,1.26-.58,1.53,3.34Z"/>
      <path class="cls-1" d="M14.28,3.11c.1-1.13.87-1.85,2.15-2.09,1.54-.28,2.42.22,2.67,1.54l.44,2.36c.13.69.27,1.25.42,1.73l-1.26.23c-.09-.25-.14-.42-.24-.76-.31.68-.94,1.13-1.7,1.27-1.09.2-1.95-.34-2.15-1.43-.19-1.04.33-1.83,1.57-2.32.49-.19,1.06-.35,1.67-.49l-.06-.34c-.14-.75-.51-.99-1.22-.86-.56.1-.95.54-.94,1.25l-1.34-.11ZM18,4.01c-.57.12-.98.27-1.33.42-.61.27-.89.66-.79,1.19.1.56.5.84,1.12.72.52-.1.98-.52,1.2-1.23l-.2-1.1Z"/>
      <path class="cls-1" d="M23.85,1.46c.45-.63,1.09-.96,1.75-.92,1.32.08,2.23,1.18,2.11,3.25-.12,2.07-1.26,3.13-2.55,3.06-.73-.04-1.21-.43-1.52-1.08l-.18,2.97-1.37-.08.49-8.15,1.33.08-.05.89ZM23.71,4.67c.24.65.65,1.05,1.16,1.08.73.04,1.35-.56,1.43-2.02.09-1.45-.42-2.1-1.11-2.14-.51-.03-1.01.26-1.36.94l-.13,2.13Z"/>
      <path class="cls-1" d="M32.79,1.96l1.3.36-.27.98-1.3-.36-.88,3.19c-.16.58,0,.9.49,1.04.22.06.44.11.7.12l-.32.94c-.39-.05-.71-.13-1.06-.22-1.1-.3-1.49-.93-1.19-2l.95-3.44-.87-.24.27-.98.87.24.44-1.6,1.4.07-.52,1.9Z"/>
      <path class="cls-1" d="M36.37,6.81c-.51,1.02-.41,1.93.48,2.39.56.29,1.11.18,1.66-.43l.95.9c-.86.86-1.87,1.01-3.06.39-1.6-.83-2.01-2.34-1.11-4.1.9-1.75,2.45-2.33,3.9-1.58,1.37.7,1.88,2.23.95,4.05l-.13.25-3.63-1.87ZM39.21,7.25c.4-.93.28-1.64-.45-2.01-.74-.38-1.46-.06-1.96.77l2.41,1.24Z"/>
      <path class="cls-1" d="M45.87,10.51c-.56-.46-1.33-.47-2.3.11l-2.11,2.6-1.06-.86,3.8-4.69,1.01.82-.94,1.15c1.08-.65,1.84-.59,2.47-.08l-.89.95Z"/>
    </g>
  </g>
</svg>