<?xml version="1.0" encoding="UTF-8"?>
<svg id="_レイヤー_2" data-name="レイヤー 2" xmlns="http://www.w3.org/2000/svg" viewBox="0 0 51.48 29.11">
  <defs>
    <style>
      .cls-1 {
        fill: #fff;
      }
    </style>
  </defs>
  <g id="_編集箇所" data-name="編集箇所">
    <g>
      <g>
        <path class="cls-1" d="M8.58,17.45c-.05.23-.16.43-.32.59-.07.07-.13.15-.18.23-.05.08-.1.14-.18.18-.07.07-.13.14-.16.19-.04.05-.07.13-.11.22-.09.18-.24.2-.46.05-.11-.07-.18-.14-.22-.22l-.32-.03s-.06,0-.08-.03c-.09-.04-.15-.09-.19-.18-.04-.08-.1-.15-.19-.2-.27-.13-.54-.22-.81-.27-.27-.05-.55-.04-.84.05-.18.23-.3.4-.35.5-.05.1-.12.27-.19.53,0,.13.02.25.07.36.04.12.09.25.12.39.09.14.21.24.35.3.07,0,.14,0,.22.01.07,0,.14.02.22.04.07.05.14.1.19.15.05.05.11.09.16.12.13.07.25.17.36.28.12.12.24.2.36.26.14.07.28.14.41.19.13.05.25.12.38.19.11.02.2.06.28.14.08.07.16.15.23.24.05.11.12.22.2.32.08.11.16.23.23.35.05.2.1.4.15.61.04.21.07.43.07.66,0,.16,0,.32.03.47.02.15.04.31.05.47.02.09.03.19.04.3,0,.11,0,.23-.01.35-.05.11-.11.23-.16.35-.05.13-.1.26-.14.41-.07.27-.17.52-.3.76-.07.09-.15.18-.24.27-.09.09-.18.18-.27.27-.05.04-.1.08-.14.14-.04.05-.07.1-.11.14-.18.11-.32.23-.43.38-.11.14-.21.3-.3.46-.13.02-.25.04-.38.07-.13.03-.26.06-.41.09-.11.02-.22.05-.32.09-.11.04-.21.09-.3.12h-.65c-.2-.09-.39-.13-.57-.11-.18.02-.37.05-.57.11-.18.04-.31.02-.38-.05-.13-.09-.26-.16-.39-.2-.14-.05-.27-.08-.39-.09-.18-.18-.37-.35-.57-.51-.2-.16-.38-.34-.54-.54,0-.05,0-.11-.01-.18,0-.06-.01-.12-.01-.18,0-.14,0-.27.01-.39,0-.12.01-.24.01-.36.05-.25.15-.49.28-.73.14-.23.27-.47.39-.7.11.02.21.04.3.05.09.02.19.05.3.08.09.07.2.14.32.19.13.05.25.11.38.16.16.09.29.13.38.11.07,0,.14,0,.19.03.05.02.12.04.19.05.22.09.42.06.62-.08.09-.05.18-.11.26-.18.08-.06.15-.15.2-.26v-.36c0-.14,0-.27.03-.39,0-.05,0-.11-.03-.16-.02-.05-.04-.11-.05-.18-.02-.06-.04-.12-.05-.18l-.38-.3c-.07-.09-.13-.18-.16-.28-.04-.1-.1-.18-.19-.23l-.65-.19c-.11-.05-.2-.12-.27-.19-.07-.07-.14-.13-.22-.19-.04-.04-.07-.06-.11-.08-.04-.02-.07-.04-.11-.05-.07-.02-.14-.04-.22-.05-.07-.02-.15-.04-.24-.08-.11-.09-.25-.17-.43-.24-.11-.13-.18-.25-.22-.38-.04-.13-.1-.24-.19-.35-.07-.09-.14-.19-.22-.3-.07-.11-.15-.22-.24-.32-.05-.2-.1-.4-.15-.61-.05-.21-.09-.41-.15-.61-.09-.27-.1-.53-.03-.78.04-.16.08-.33.12-.51.04-.18.1-.36.18-.54.11-.22.24-.51.41-.89.18-.29.42-.55.72-.8.3-.24.59-.49.88-.74.07-.04.15-.07.24-.09.09-.03.17-.05.24-.07.22-.07.38-.13.49-.18.11-.04.23-.08.36-.09.14-.02.34-.03.61-.03h.05c.25-.09.5-.12.74-.08.24.04.48.09.72.16.05,0,.11,0,.18.01.06,0,.1.01.12.01.16.09.3.2.42.32.12.13.25.24.39.35.09.05.19.1.3.15.11.05.21.09.3.15.18.14.34.31.47.49.14.18.27.35.39.51.04.13.06.25.08.38.02.13.04.26.08.4Z"/>
        <path class="cls-1" d="M21,26.57c-.2.31-.45.51-.76.62-.2.07-.39.16-.57.27-.18.11-.36.23-.54.35-.04.07-.11.12-.22.14-.05-.02-.12-.04-.19-.05-.07-.02-.15-.04-.24-.05l-.46-.08c-.13-.09-.23-.18-.32-.28-.09-.1-.18-.2-.27-.31-.18-.22-.31-.35-.38-.41-.07-.05-.23-.14-.49-.27-.09-.2-.17-.4-.24-.61-.07-.21-.1-.32-.08-.34.07-.04.08-.11.01-.23-.06-.12-.11-.18-.15-.2-.11-.07-.17-.11-.19-.11-.11-.02-.23-.03-.35-.03h-.38c-.07-.05-.14-.1-.22-.14-.07-.04-.15-.07-.24-.11-.13.02-.22.08-.27.18-.05.1-.1.19-.14.28-.02.05-.03.14-.03.24,0,.13,0,.26.01.41,0,.14,0,.29-.04.43-.04.13-.06.25-.07.38,0,.13-.01.26-.01.41-.02.07-.04.15-.05.24-.02.09-.05.18-.08.27-.07.13-.12.26-.15.41-.03.14-.09.27-.18.38-.43.11-.71.17-.82.19-.12.02-.31.02-.58,0-.04.02-.07.04-.11.05-.04.02-.08.04-.13.05-.13-.05-.26-.12-.41-.2-.14-.08-.29-.16-.43-.23-.13-.07-.19-.17-.19-.3-.02-.31-.06-.61-.12-.9-.06-.3-.09-.6-.07-.9-.05-.22-.08-.44-.07-.68,0-.23,0-.47-.04-.7-.02-.07-.03-.14-.03-.2v-.2c.04-.14.06-.31.08-.49-.02-.04-.04-.09-.07-.15-.03-.06-.06-.11-.09-.15-.05-.18-.07-.34-.05-.49.02-.14.03-.28.04-.42,0-.14,0-.28-.04-.45,0-.09,0-.17.01-.23,0-.06.02-.13.04-.2.09-.22.08-.44-.03-.68-.04-.14-.08-.29-.14-.43-.05-.14-.11-.29-.16-.43v-.24c0-.09,0-.18.03-.27,0-.2,0-.39.01-.58,0-.19,0-.37-.01-.55v-.16c.04-.13.06-.26.07-.39,0-.14.02-.27.04-.39.05-.14.09-.3.09-.46,0-.16.02-.31.04-.43,0-.31.03-.59.08-.86.04-.07.05-.14.05-.2v-.18c0-.09-.01-.17-.04-.24-.03-.07-.04-.14-.04-.22,0-.09.01-.18.04-.26.03-.08.04-.16.04-.23v-.92c.02-.18.03-.36.03-.54s0-.37.03-.57c-.02-.02-.04-.04-.05-.08-.02-.04-.05-.08-.08-.13-.04-.11,0-.16.08-.16.36-.14.71-.31,1.05-.49.04,0,.06,0,.08-.01.02,0,.04-.01.05-.01.16-.04.32-.07.47-.09.15-.03.29-.09.42-.18.04-.05.12-.08.24-.08.2,0,.37-.04.51-.11.13-.04.23-.04.32-.01.09.03.18.06.27.09v.22c0,.09,0,.14.03.16,0,.04.02.05.05.05.27.22.41.52.41.92,0,.07,0,.14.01.22,0,.07.02.15.04.24v.22c-.02.16-.05.32-.08.46-.04.14-.06.29-.08.43.04.18.07.36.09.55.03.19,0,.37-.07.55v.24c.04.13.04.25.03.38-.02.13-.03.26-.03.41v.3c.05.18.07.36.04.54-.03.18-.06.35-.09.51.02.09.03.18.04.26,0,.08.02.17.04.26-.02.09-.04.18-.05.28-.02.1-.04.19-.05.28,0,.13,0,.25.01.36,0,.12.02.25.04.39-.02.09-.04.19-.05.31-.02.12-.05.23-.08.34,0,.05.04.1.11.14.02,0,.04,0,.05-.03.07,0,.12-.03.14-.08.14-.16.31-.31.51-.46.09-.05.17-.12.24-.19.07-.07.16-.14.27-.19.05-.02.14-.08.24-.19.14-.11.29-.22.43-.32.14-.11.3-.19.46-.24.16-.2.28-.37.35-.51.09-.04.17-.08.24-.12.07-.04.13-.08.16-.09.05-.05.1-.11.14-.16.04-.11.07-.22.11-.32.04-.11.08-.22.14-.32.13-.11.25-.22.36-.32.12-.11.24-.22.36-.35.11-.02.21,0,.3.04.09.05.19.09.3.12.18.29.39.55.63.78.24.23.49.46.74.67.09.02.16.11.22.27s.05.3,0,.41c-.05.02-.11.05-.18.11-.06.05-.14.1-.23.14-.13.25-.27.5-.42.76-.15.25-.3.51-.45.78-.05.11-.11.21-.16.31-.05.1-.13.18-.22.26-.07.04-.12.08-.14.14-.02.05-.05.12-.08.19-.07.18-.15.33-.24.46-.09.13-.2.25-.32.38-.05.04-.11.09-.16.16-.05.07-.1.14-.14.19-.02.02-.03.05-.03.08.02.18.08.32.19.42.11.1.17.22.19.36.09.04.18.08.26.14.08.05.16.1.23.14.16.22.34.43.54.63.2.21.39.41.57.61.18.18.34.37.49.58.14.21.26.43.35.66.04.07.06.14.07.22,0,.07,0,.14-.04.22Z"/>
        <path class="cls-1" d="M27.5,13.96c.05.13.07.26.05.39-.02.14-.05.27-.08.39-.02.11-.05.21-.11.31-.05.1-.1.19-.14.28-.07.11-.15.21-.23.3-.08.09-.16.18-.23.27-.05.02-.1.05-.14.09-.04.05-.08.09-.14.12-.13.09-.32.18-.59.26-.27.08-.49.12-.65.12-.09,0-.16-.02-.22-.05-.11,0-.22,0-.32-.01-.11,0-.21-.01-.3-.01-.05-.04-.11-.07-.18-.11-.06-.04-.11-.07-.15-.11-.09-.04-.18-.05-.28-.05h-.28c-.07-.05-.16-.1-.26-.15-.1-.04-.19-.09-.28-.12l-.16-.49c.02-.14.04-.3.05-.47.02-.17,0-.35-.05-.53-.05-.04-.05-.08,0-.14.05-.13.05-.25,0-.38-.05-.13-.05-.25,0-.38.02-.04.03-.09.03-.16-.05-.11-.05-.21,0-.31.05-.1.1-.18.14-.26-.02-.05-.03-.11-.03-.18v-.15s.03-.04.04-.07c0-.03.03-.05.07-.07.14-.04.27-.1.36-.2.1-.1.21-.18.34-.23.13-.11.27-.2.42-.27.15-.07.3-.14.45-.22h.38c.11,0,.22.02.32.05.05.02.12.03.19.03h.22c.25-.04.45.06.59.3.04.09.1.14.19.16.09.02.17.05.24.08.18.16.3.37.35.62.04.11.08.22.12.32.04.11.08.22.09.32.04.11.07.22.09.34.03.12.05.23.07.34ZM27.34,20.17c-.04.11-.05.23-.05.36v.42c.02.13.02.26,0,.39-.02.13-.03.27-.03.39l-.19.27c.09.09.14.19.16.3.02.11.03.23.03.35v.39c0,.14,0,.27-.03.42-.02.13-.05.26-.11.4-.05.14-.1.3-.14.46,0,.18,0,.39-.01.63,0,.24,0,.48.01.72.02.34,0,.69-.05,1.04-.05.35-.16.68-.32.99,0,.14.02.28.05.42.04.14.07.27.11.42,0,.02,0,.04-.03.07-.02.03-.03.06-.03.09-.09.13-.2.23-.32.32-.02,0-.04,0-.05.03h-.11c-.2,0-.4.01-.61.04-.21.03-.44.01-.69-.04-.07-.04-.15-.08-.23-.14-.08-.05-.17-.1-.26-.14-.07,0-.16,0-.26-.01-.1,0-.19-.02-.28-.04-.14-.16-.29-.33-.43-.51-.05-.04-.12-.06-.19-.08-.07-.02-.14-.04-.22-.08-.13-.09-.17-.23-.14-.43.04-.2.08-.37.14-.51.05-.23.04-.46-.03-.67l-.11-.38c0-.14,0-.28-.03-.41-.02-.13-.02-.25,0-.38.02-.18.02-.35.01-.51,0-.16-.01-.33-.01-.51.02-.25.03-.5.03-.74v-.72c0-.09,0-.14.03-.16.09-.14.14-.28.14-.42v-.42c-.02-.14-.01-.29.01-.45.03-.15.02-.29-.01-.42v-.47c0-.15,0-.31.03-.47.02-.09.03-.18.04-.28,0-.1,0-.21-.04-.34.16-.07.3-.13.42-.16.12-.04.23-.05.34-.05h.23c.08,0,.16,0,.23-.03.18-.04.33-.07.46-.11.09.02.17.05.23.09.06.05.13.09.2.12.13,0,.25-.03.38-.08.13-.02.24,0,.34.03.1.04.18.13.23.27.02.02.03.04.04.05,0,.02.02.04.04.05l.19.11c.13.02.23,0,.32-.07.09-.06.18-.1.27-.12.11,0,.17.05.19.14.05.13.09.32.11.57Z"/>
        <path class="cls-1" d="M36.5,26.2c0,.16-.07.3-.22.41-.14.14-.18.32-.11.51.04.13.05.26.05.41v.43s-.04.08-.07.12c-.03.05-.06.09-.09.12-.07.04-.12.05-.14.05-.14.02-.29.03-.43.04-.14,0-.29.01-.43.01h-.14c-.25-.07-.5-.11-.74-.12-.24,0-.48-.03-.72-.07-.14-.04-.28-.05-.41-.05s-.25.02-.38.05c-.18-.09-.36-.18-.53-.28-.17-.1-.36-.19-.55-.28-.13-.2-.28-.36-.47-.5-.19-.14-.36-.3-.5-.5-.04-.09-.08-.18-.12-.27-.05-.09-.09-.17-.15-.24-.18-.27-.3-.57-.35-.89,0-.13-.05-.23-.14-.32-.14-.27-.18-.52-.11-.76.02-.04.02-.08.01-.12,0-.04,0-.08.01-.09-.07-.09-.13-.16-.16-.22-.04-.05-.07-.11-.11-.16,0-.13,0-.22.03-.27l-.22-.27c.04-.2.07-.4.09-.61.03-.21.06-.4.09-.58l-.19-.27c0-.07.03-.13.08-.18.05-.04.1-.1.14-.18.07-.2.12-.39.14-.57.05-.22.08-.42.08-.62-.04-.4-.04-.78,0-1.16.04-.38.04-.76.03-1.16.09-.4.13-.79.11-1.19-.02-.4,0-.78.08-1.16v-.14c-.05-.22-.05-.42,0-.62.05-.2.12-.38.19-.54-.02-.04-.03-.08-.03-.14s-.02-.1-.05-.14c.04-.13.09-.23.16-.31.07-.08.14-.16.19-.23.04-.07.07-.15.09-.23.03-.08.05-.16.07-.23l.19-.19c.16-.04.33-.04.51-.03.05.02.11.05.18.08.06.04.13.07.2.11.13.07.25.13.36.18.12.05.25.06.39.04.2.07.39.12.58.14.19.02.37.02.55,0h.11s.04.03.05.03c.09.02.17.06.24.14.07.07.09.15.05.24-.04.27-.06.54-.07.81,0,.27-.03.54-.07.81-.04.25-.07.51-.11.77-.04.26-.08.52-.14.77-.02.4-.05.79-.09,1.17-.05.39-.07.77-.07,1.15,0,.05,0,.1.01.14,0,.04.01.07.01.11-.09.18-.16.36-.2.54-.05.18-.09.37-.15.57-.04.14-.04.3,0,.46.05.22.08.43.07.65,0,.22-.03.44-.07.68v.16c.04.07.08.15.12.24.04.09.09.18.12.27-.02.05-.04.11-.05.18-.02.06-.04.12-.05.18.04.09.06.19.07.3,0,.11.02.21.04.3.07.09.14.18.22.26.07.08.12.18.14.28,0,.04.02.08.05.14.04.05.06.1.08.14.04.09.09.16.18.22.08.05.16.1.23.14.13.02.24.05.35.08.11.04.22.07.35.11.07,0,.13,0,.18-.01.04,0,.09-.01.15-.01.04.02.09.04.15.05.06.02.12.04.18.05.02.02.04.04.05.07.02.03.04.05.05.07.04.14.14.3.3.46.09.07.18.15.26.23.08.08.14.18.18.28Z"/>
        <path class="cls-1" d="M45.49,26.2c0,.16-.07.3-.22.41-.14.14-.18.32-.11.51.04.13.05.26.05.41v.43s-.04.08-.07.12c-.03.05-.06.09-.09.12-.07.04-.12.05-.14.05-.14.02-.29.03-.43.04-.14,0-.29.01-.43.01h-.14c-.25-.07-.5-.11-.74-.12-.24,0-.48-.03-.72-.07-.14-.04-.28-.05-.4-.05s-.25.02-.38.05c-.18-.09-.36-.18-.53-.28-.17-.1-.36-.19-.55-.28-.13-.2-.28-.36-.47-.5-.19-.14-.36-.3-.5-.5-.04-.09-.08-.18-.12-.27-.04-.09-.09-.17-.15-.24-.18-.27-.3-.57-.35-.89,0-.13-.05-.23-.14-.32-.14-.27-.18-.52-.11-.76.02-.04.02-.08.01-.12,0-.04,0-.08.01-.09-.07-.09-.13-.16-.16-.22-.04-.05-.07-.11-.11-.16,0-.13,0-.22.03-.27l-.22-.27c.04-.2.07-.4.09-.61.03-.21.06-.4.09-.58l-.19-.27c0-.07.03-.13.08-.18.05-.04.1-.1.14-.18.07-.2.12-.39.14-.57.05-.22.08-.42.08-.62-.04-.4-.04-.78,0-1.16.04-.38.04-.76.03-1.16.09-.4.13-.79.11-1.19-.02-.4,0-.78.08-1.16v-.14c-.05-.22-.05-.42,0-.62.05-.2.12-.38.19-.54-.02-.04-.03-.08-.03-.14s-.02-.1-.05-.14c.04-.13.09-.23.16-.31.07-.08.14-.16.19-.23.04-.07.07-.15.09-.23.03-.08.05-.16.07-.23l.19-.19c.16-.04.33-.04.51-.03.05.02.11.05.17.08.06.04.13.07.2.11.12.07.25.13.36.18.12.05.25.06.39.04.2.07.39.12.58.14.19.02.37.02.55,0h.11s.04.03.05.03c.09.02.17.06.24.14.07.07.09.15.05.24-.04.27-.06.54-.07.81,0,.27-.03.54-.07.81-.04.25-.07.51-.11.77-.04.26-.08.52-.13.77-.02.4-.05.79-.09,1.17-.04.39-.07.77-.07,1.15,0,.05,0,.1.01.14,0,.04.01.07.01.11-.09.18-.16.36-.2.54-.04.18-.09.37-.15.57-.04.14-.04.3,0,.46.05.22.08.43.07.65,0,.22-.03.44-.07.68v.16c.04.07.08.15.12.24.04.09.08.18.12.27-.02.05-.04.11-.05.18-.02.06-.04.12-.05.18.04.09.06.19.07.3,0,.11.02.21.04.3.07.09.14.18.22.26s.12.18.14.28c0,.04.02.08.05.14.04.05.06.1.08.14.04.09.09.16.17.22.08.05.16.1.23.14.13.02.24.05.35.08.11.04.22.07.35.11.07,0,.13,0,.18-.01.04,0,.09-.01.15-.01.04.02.08.04.15.05.06.02.12.04.18.05.02.02.04.04.05.07.02.03.04.05.05.07.04.14.14.3.3.46.09.07.17.15.26.23.08.08.14.18.18.28Z"/>
      </g>
      <g>
        <path class="cls-1" d="M5.25,3.06c-.04.07-.08.14-.12.21-.03.07-.05.16-.05.25-.07.04-.13.1-.19.17s-.11.14-.15.22c-.03.06-.07.12-.1.18s-.07.11-.11.18c0,.02-.02.02-.05,0s-.04-.04-.05-.07c0-.03-.02-.05-.05-.05-.03,0-.05.01-.06.04-.02,0-.03.02-.05.05-.02.02-.03.04-.05.06,0,0-.02.02-.05.02-.02,0-.04.01-.06.02-.03-.03-.07-.07-.12-.1-.04-.03-.09-.06-.13-.1-.05-.02-.1-.03-.16-.05-.05-.02-.1-.03-.14-.04-.03-.02-.05-.03-.04-.03-.03-.02-.05-.04-.07-.06-.02-.03-.05-.03-.09-.01-.03.03-.04.05-.03.07,0,.02,0,.05,0,.08-.06,0-.1,0-.13.01-.02,0-.03.02-.05.03-.02,0-.04.02-.06.03-.03,0-.06-.02-.09-.02s-.07-.01-.12-.02c-.08,0-.15.03-.23.07s-.15.08-.21.11c-.05,0-.09.04-.12.1-.03.09-.09.17-.16.25-.07.08-.13.16-.18.25,0,.02-.02.04-.04.07s-.03.06-.05.08c0,.03-.02.05-.02.07,0,.02,0,.05,0,.07.02.05.03.09.05.1-.02.03-.03.05-.05.08-.02.03-.03.05-.05.08,0,.03.01.05.01.08s0,.05.01.06c.03.09.06.16.1.21.03.03.05.07.07.11.02.04.04.08.06.14.03.03.07.05.1.08.03.03.07.06.1.09.03.03.07.07.1.1.03.03.06.06.08.1.03,0,.07-.01.1-.01s.07,0,.11-.01c.02,0,.04.02.06.02.02,0,.04.01.06.02.06,0,.12.02.18.03s.11,0,.16-.03c.07-.02.14-.04.22-.06.08-.02.15-.04.21-.05.06,0,.12.02.18.04.06.02.11.03.18.05.06-.04.12-.08.19-.11.06-.03.14-.05.21-.06.08.03.13.07.17.14.03.04.06.09.08.14.02.05.05.1.07.16.02.06.04.12.07.17.03.05.06.1.1.16.03.03.05.07.08.12.03.04.05.08.07.12.03.14.02.26-.03.36-.06.04-.12.09-.18.14-.06.05-.12.1-.18.16-.02.03-.03.07-.05.1s-.03.06-.05.1c-.03,0-.07.02-.1.03s-.07.03-.1.06c-.03,0-.05.02-.08.02s-.06.02-.1.03c-.05.03-.12.07-.2.12-.06-.03-.13-.06-.21-.06-.06.04-.13.06-.21.06s-.15,0-.22.03c-.08,0-.15,0-.21-.03-.07-.03-.13-.05-.2-.07l-.18.09-.27-.09s-.07.01-.11.01-.08,0-.12.01c-.03-.02-.07-.03-.12-.05-.04-.02-.09-.03-.13-.04h-.08s-.06,0-.1.01c-.05-.03-.09-.07-.12-.09-.03-.03-.07-.05-.1-.08-.03-.03-.07-.05-.12-.06-.15-.08-.27-.18-.38-.3-.06-.07-.12-.14-.19-.2s-.14-.13-.23-.19c-.04-.04-.09-.1-.14-.18-.02-.11-.06-.22-.12-.32s-.12-.2-.18-.29c0-.06,0-.11-.03-.16-.03-.04-.05-.09-.06-.14.02-.07.02-.15.02-.23,0-.08,0-.17,0-.25,0-.04-.02-.1-.08-.16,0-.03.01-.06.03-.07.02-.01.04-.03.05-.06.04-.03.06-.07.06-.13-.02-.02-.03-.04-.05-.07-.01-.03-.03-.05-.05-.07.02-.03.03-.07.05-.12.02-.04.03-.08.03-.12v-.23c.03-.05.07-.09.1-.12,0-.07-.02-.11-.07-.12-.05,0-.08-.03-.11-.06.06-.2.1-.32.12-.37.02-.05.07-.13.15-.24,0-.1.01-.19.01-.29s.03-.2.1-.3c.02,0,.04-.03.06-.05.03-.03.05-.05.08-.08.02-.04.03-.08.05-.12.01-.04.02-.08.03-.11.05-.04.1-.08.16-.12s.11-.08.17-.12c.02-.02.04-.03.06-.04.02,0,.05-.02.08-.03.04,0,.08-.03.12-.05.03-.03.07-.05.1-.08.02,0,.04.01.06.01s.05,0,.08.01c.07-.02.13-.05.18-.09.05-.04.11-.09.17-.14.1-.03.21-.05.32-.07.11-.02.21-.05.31-.1.06,0,.12.01.18.04.06.03.11.02.18-.01.02-.02.04-.02.06,0,.09,0,.18,0,.27.01.09,0,.18.02.27.03.13.02.23-.01.31-.09l.03-.03s.02-.02.03-.03c.02,0,.04.02.06.03.02,0,.04.02.05.03.22.19.46.3.74.32.04,0,.09,0,.13.03.04.02.08.03.12.05l.27.27c.09.07.12.16.09.26,0,.02,0,.03,0,.05,0,.02,0,.03,0,.05Z"/>
        <path class="cls-1" d="M11.48,6.29c-.03.11-.05.22-.03.33.01.11.01.22,0,.33,0,.06,0,.12,0,.18,0,.06,0,.13-.01.2,0,.05-.01.11,0,.16,0,.06,0,.11,0,.16,0,.03-.01.08-.01.13-.02.06-.03.12-.03.18,0,.06-.02.12-.03.19,0,0,0,.02,0,.03,0,.01,0,.03,0,.05,0,.06-.03.09-.1.09,0,0-.03-.01-.06-.01-.06-.03-.11-.03-.16-.01-.04.02-.09.03-.13.05-.03.03-.05.05-.08.08-.03.03-.05.06-.08.09-.1.05-.18.07-.27.05-.08-.02-.17-.06-.25-.11-.05,0-.09,0-.12.01h-.04s-.02-.01-.04-.01c-.03-.03-.07-.05-.1-.08-.03-.03-.06-.05-.1-.08-.07-.07-.1-.14-.08-.21,0-.03.02-.07.03-.1.01-.03.02-.06,0-.1,0-.04-.02-.09-.03-.13-.01-.04-.02-.09-.02-.13s0-.09.02-.13c.01-.04.02-.09.03-.13-.02-.07-.04-.14-.08-.21-.03-.07-.06-.14-.08-.22,0-.07-.02-.14-.03-.21-.01-.07-.02-.15-.02-.21,0-.08-.02-.15-.02-.23,0-.07,0-.15,0-.24-.02-.1-.06-.19-.13-.25-.06-.07-.11-.13-.16-.2-.04-.06-.08-.13-.12-.21-.04-.03-.1-.06-.17-.09,0-.02-.02-.03-.03-.05,0-.02-.02-.03-.04-.04,0,0-.01-.02-.01-.03s0-.02-.01-.03l-.08-.08s-.07-.02-.1,0c-.03.02-.07.03-.09.03-.03,0-.06.01-.09.01s-.06,0-.1.01c-.03.02-.06.04-.08.06s-.05.04-.1.06c-.03.03-.06.05-.09.06-.03.01-.07.03-.1.05-.03.08-.04.15-.01.22.02.09.03.18.03.27,0,.1.01.19.03.29,0,.09,0,.19-.03.3,0,.03,0,.05-.01.08,0,.03-.01.06-.01.1,0,.14,0,.28-.03.41-.03.13-.06.27-.1.41,0,.09.02.17.03.25,0,.08.02.17.03.25v.27c0,.11-.06.18-.18.19h-.27c-.09,0-.17.02-.25.03s-.16.03-.23.08c-.03,0-.07.02-.1.04-.03.02-.07.03-.11.05l-.09.09s-.04,0-.06,0c-.02,0-.04,0-.06,0-.09-.04-.17-.08-.25-.1-.09-.11-.14-.23-.16-.36-.02-.13-.05-.25-.09-.36,0-.05.02-.1.03-.15.01-.05.01-.09,0-.14,0-.03-.01-.07-.01-.14,0-.03,0-.05,0-.07,0-.02,0-.04,0-.06-.03-.16-.02-.31.03-.43.02-.08.01-.16-.01-.25-.03-.16-.05-.32-.04-.48.03-.14.02-.28-.01-.42-.03-.03-.03-.06,0-.1,0-.04,0-.09,0-.14,0-.05.01-.09.02-.12,0-.03.03-.06.05-.08.03-.02.05-.04.06-.06l.04-.23s0-.07-.04-.13c0-.02-.02-.02-.04,0-.02.01-.03.02-.05.03h-.01c0-.11,0-.2,0-.28,0-.08,0-.17,0-.25,0-.03,0-.06,0-.09,0-.03.01-.06.01-.09,0-.03,0-.06-.01-.09s-.01-.07-.01-.1v-.07s0-.05.01-.08c0-.04.02-.09.03-.13,0-.04.02-.09.04-.14-.03-.07-.05-.14-.05-.22,0-.08,0-.16-.02-.25,0-.03,0-.06,0-.09.01-.03.02-.07.03-.12-.03-.08-.05-.17-.04-.27,0-.1,0-.2,0-.29.02-.05.02-.1.01-.15,0-.05-.01-.1-.01-.15,0-.09,0-.17,0-.25,0-.08,0-.16.01-.23,0-.03.01-.05,0-.06,0-.02,0-.03,0-.05-.02-.16-.01-.32.01-.46,0-.03.01-.06.01-.1v-.12s-.02-.06-.02-.09c0-.03,0-.06,0-.09.03-.05.04-.11.03-.16,0-.06.01-.11.05-.16,0-.02.01-.03.01-.04h.03s.01-.03.04-.03c.04-.02.08-.03.12-.05.04-.01.08-.02.12-.03.03.02.05.03.08.05.03.02.06.03.09.05h.21s.03-.03.05-.04.03-.02.04-.03l.13-.09s.07-.03.11-.03c.04,0,.07,0,.1.03.08.05.15.1.23.13.07.03.15.06.23.07.04.07.08.13.1.19.02.06.05.13.07.2.03.09.06.19.12.3,0,.04-.02.08-.05.1-.03.03-.05.06-.06.12,0,.02,0,.04,0,.08,0,.03.01.07.02.12,0,.03,0,.07-.01.1s0,.07,0,.12c.02.14.02.28.01.42,0,.14-.02.27-.04.4v.18c0,.09.02.17.06.26.03.03.07.07.1.11.03.04.06.08.08.12.05.05.11.08.17.08.12,0,.24.01.37.03.13.02.25.02.37,0,.03,0,.05-.01.06,0s.04,0,.06,0c.03.02.06.03.1.04.04,0,.08.02.11.03.1.02.13.07.12.17.02,0,.03.02.04.03.02,0,.03-.01.05-.01s.03,0,.04-.01c.11-.04.21-.03.3.03.05.04.11.08.18.1.07.02.13.07.2.14.06.1.14.2.23.29s.19.19.29.29c.02.03.04.05.06.07.03.02.05.04.06.06.08.08.12.16.13.23.03.12.06.22.09.29.03.1.06.2.12.32v.13s.02.07.03.11.01.08.01.12c0,.1.02.21.03.31,0,.1.02.21.03.31,0,0,0,.02,0,.03,0,.01,0,.03,0,.05Z"/>
        <path class="cls-1" d="M18.58,7.78c.03.06.03.12.03.17s-.03.1-.05.16c0,0-.03.02-.05.03-.03.01-.05.03-.06.05-.03,0-.06.01-.09.01s-.06,0-.09.03c-.13.03-.21.1-.23.21,0,.02-.03.04-.05.06-.06,0-.1.02-.13.03-.03.01-.08.04-.16.08-.06,0-.12,0-.18.03-.06.02-.12.05-.17.1-.02,0-.03,0-.04,0,0,0-.02,0-.04,0-.03.02-.07.01-.12-.02s-.06-.07-.06-.11v-.08s-.08-.02-.12,0-.08,0-.11-.05v-.19s-.05-.03-.07-.05c-.02-.01-.05-.02-.07-.03-.03-.07-.07-.14-.12-.22-.04-.08-.09-.15-.13-.21-.03-.03-.06-.03-.09-.03-.03,0-.05.02-.07.04-.02.02-.03.04-.04.06,0,.02-.02.04-.04.06-.02.02-.03.04-.04.07,0,.03-.02.05-.04.06-.11.05-.23.1-.34.14-.11.04-.22.07-.32.1-.06.04-.12.08-.18.12-.06.03-.12.07-.17.1-.05,0-.1.02-.16.04s-.1.03-.14.04c-.05-.03-.1-.03-.15-.02-.05.01-.11.03-.18.05-.08-.02-.16-.04-.25-.06-.09-.02-.18-.04-.27-.06-.03,0-.05.01-.08.01s-.05,0-.07.01c-.03-.02-.06-.03-.08-.05-.02-.02-.05-.03-.08-.04-.04-.02-.08-.02-.12,0-.03.02-.07.03-.12.05-.04-.02-.09-.03-.14-.03-.05,0-.1-.01-.16-.02-.04-.04-.08-.08-.11-.12s-.05-.08-.06-.13c-.02-.02-.03-.03-.05-.05-.02-.01-.03-.02-.04-.03-.03-.12-.07-.23-.12-.31-.12-.26-.2-.55-.25-.86-.02-.02-.03-.04-.05-.06-.02-.02-.04-.05-.06-.07,0-.08-.02-.15-.03-.23,0-.07-.02-.15-.04-.24.02-.05.03-.1.03-.14-.02-.09-.03-.16-.05-.23.03-.1.07-.21.11-.31s.05-.21.03-.32c.02-.03.04-.07.06-.1.03-.03.05-.06.06-.08.08-.09.13-.19.17-.3.03-.1.07-.18.14-.25.06-.07.14-.13.21-.17.1-.04.19-.09.28-.14s.18-.09.27-.12c.02,0,.04,0,.07,0,.03,0,.05,0,.07,0,.16-.03.29-.03.4-.03.05,0,.1,0,.16,0,.05,0,.1-.01.14-.01l.27-.05c.05,0,.1.02.16.04s.1.01.16-.01c.02,0,.03,0,.05,0,.01,0,.02,0,.03,0,.04.02.08.04.12.06.03.02.07.03.12.03.1.02.16,0,.18-.05,0-.15-.02-.24-.03-.29-.01-.04-.04-.11-.08-.21-.03-.05-.04-.11-.05-.16,0-.06-.02-.11-.03-.16,0-.03-.02-.07-.02-.1,0-.03-.02-.06-.06-.1-.11-.03-.25-.06-.42-.08h-.08c-.08.03-.16.05-.25.05s-.18,0-.27.03c-.06,0-.12.03-.19.05-.06.03-.13.05-.2.06-.07.03-.14.02-.21-.05-.03-.08-.04-.16-.03-.24,0-.08.01-.17.02-.25-.02-.06-.04-.13-.06-.21-.03-.08-.04-.18-.04-.29v-.09s-.01-.03-.03-.05c-.02-.02-.04-.03-.06-.04-.03-.03-.03-.05-.01-.08,0-.03.01-.04.04-.04.07-.02.13-.03.2-.04.06,0,.12-.02.18-.03l.16-.16s.04-.01.06-.01c.2.03.34.05.44.04.09,0,.23-.04.42-.1.1,0,.19.02.28.04.09.02.18.02.28.01.03.03.05.05.08.07.03.02.06.05.1.07.04-.02.09-.03.13-.05s.08-.02.12-.03c.05.03.11.07.17.1.04,0,.08,0,.11-.03.03-.03.06-.04.1-.04.08,0,.14.05.19.11.05.07.1.12.16.16.05.03.1.08.15.13.05.05.1.1.15.14.02.03.03.05.05.08.02.03.03.05.04.08.04.03.08.06.12.08.03.02.06.05.09.08.04.03.09.06.14.08.05.02.08.05.11.09.02.04.03.09.05.14.02.05.05.09.09.12.03.09.05.18.08.27.03.09.03.18.01.28,0,.04,0,.08-.01.12.02.04.03.09.04.14,0,.05.02.1.04.14v.06s0,.05,0,.08c0,.03,0,.05,0,.07.02.05.04.09.07.12,0,.05-.02.1-.07.14-.02,0-.04.02-.06.03-.03,0-.05.02-.06.04-.1.06-.12.14-.04.23,0,0,.02.02.05.05.02.02.04.05.05.07,0,.03.01.07.01.11s0,.08.01.12c-.03.16-.1.32-.19.47.03.12.07.24.12.35.06.11.11.23.15.35.04.03.08.05.1.08.03.03.06.05.09.06,0,.03.01.04.02.05,0,0,0,.02,0,.04,0,.09.01.17.03.26.02.09.05.17.08.25.03.08.07.15.1.22s.08.14.13.21c.04.03.08.08.1.14.03.06.05.11.06.16ZM12.97,8.16s-.01,0-.01.03c.02-.02.02-.03.01-.03ZM15.73,6.03c-.05-.13-.12-.22-.2-.26-.1-.04-.16-.1-.18-.17,0-.03-.03-.06-.05-.06-.03,0-.05-.02-.08-.03-.03,0-.08,0-.12,0s-.09.01-.14.02c-.05,0-.1,0-.15-.03-.05-.02-.09-.03-.14-.04-.08,0-.15.02-.22.07-.03.03-.06.05-.09.07-.03.02-.05.05-.08.08l-.17.31c.02.05.04.1.06.14.03.04.03.09,0,.16.02.08.04.16.06.24.02.08.05.16.1.24.02.02.03.03.04.03.1.02.19.03.29.03s.19,0,.27-.01c.03,0,.06,0,.08-.01.1-.05.21-.1.35-.14.05,0,.1-.05.14-.12.03-.08.07-.16.1-.25.03-.09.07-.18.12-.27Z"/>
        <path class="cls-1" d="M25.13,5.52s-.01.02,0,.04c0,.02,0,.03,0,.04-.03.06-.05.12-.07.18-.02.06-.05.11-.07.18-.04.12-.1.23-.18.31-.06.09-.12.17-.18.25-.06.08-.11.16-.16.24-.09.07-.18.13-.27.19-.09.06-.19.11-.29.15-.05.02-.09.04-.12.07-.04.05-.1.09-.16.1-.04.02-.09.04-.13.06-.04.02-.09.05-.13.1-.09.03-.17.07-.25.12-.08.04-.17.07-.27.08-.03,0-.05,0-.07,0-.02,0-.05.01-.08.02-.03-.02-.07-.03-.12-.05-.04-.01-.09-.03-.13-.06-.08,0-.16.02-.23.03-.08.01-.16.03-.25.05-.03-.02-.07-.03-.1-.05-.03-.02-.06-.03-.1-.04-.03-.02-.06-.03-.09-.05-.03-.01-.06-.01-.1,0-.03.03-.06.07-.09.12-.03.04-.05.09-.08.14,0,.03-.01.07-.01.1v.09l.05.22c0,.06,0,.11-.03.14-.03.1-.04.19-.01.3.03.11.05.23.05.35,0,.12,0,.24,0,.36-.03.09-.05.18-.05.27s0,.19-.03.29c0,.03,0,.05-.01.06-.07.1-.16.14-.26.14h-.29c-.1,0-.2-.02-.29-.06-.03,0-.06-.01-.09-.01h-.1c-.08,0-.16.01-.23,0-.08,0-.16-.02-.23-.06-.03-.02-.08-.03-.12-.03h-.14s-.02-.03-.03-.03c0,0-.01-.01-.01-.02-.03-.07-.05-.14-.07-.21-.02-.07-.03-.13-.04-.2,0-.04,0-.09-.03-.13s-.03-.09-.04-.13c0-.07.01-.14.04-.2.03-.07.04-.13.05-.19,0-.06-.02-.12-.02-.18,0-.06,0-.11,0-.16,0-.05,0-.1-.02-.16s-.03-.11-.05-.17c.02-.03.04-.06.06-.1.02-.04.04-.08.05-.12.02-.06.01-.12-.01-.17-.03-.05-.03-.12-.03-.21.02-.03.03-.07.05-.11.01-.04.03-.08.05-.12-.02-.1-.03-.27-.04-.5,0-.23-.02-.45-.02-.67s0-.36,0-.43c-.02-.12-.02-.24,0-.34.02-.11.04-.22.08-.33,0-.04.02-.08.03-.11.01-.03.03-.06.05-.1.02-.06.04-.15.06-.25.02-.11.04-.17.05-.18.03-.14.06-.24.06-.29,0-.06.03-.11.06-.16.03-.05.09-.13.18-.24.09-.11.16-.25.23-.42.03-.05.04-.1.05-.14.02-.02.03-.03.04-.04,0,0,.02-.02.03-.03l.09-.18c.08-.16.2-.28.38-.35.05-.02.11-.05.16-.08.06-.04.12-.08.2-.12.11-.03.23-.06.35-.1.12-.04.25-.08.39-.12.05-.02.11-.03.17-.03s.12,0,.18-.01c.04,0,.09.02.13.02.04,0,.09,0,.14,0,.08,0,.15.02.23.03.07,0,.15.03.21.08.03,0,.07.02.11.02s.08.01.11.02h.19c.07,0,.13,0,.2.03.03.02.08.05.18.09s.14.06.15.06c.03.02.06.03.06.05.02.02.03.04.05.06.02.03.04.05.07.06.12.09.23.18.32.29.09.11.18.22.27.34.04.08.09.13.14.17.03.03.05.05.07.08.02.03.05.06.07.1v.16c0,.06,0,.11.01.16,0,.03,0,.07.02.12.01.04.02.09.03.13,0,.03-.01.1-.01.21s0,.2.01.24c.04.12.04.23,0,.32-.02.05,0,.1.03.16,0,.03.01.1,0,.2,0,.1,0,.16,0,.19ZM23.44,5.03c0-.15-.04-.28-.08-.4-.05-.12-.12-.23-.21-.33-.08-.09-.15-.16-.23-.21-.07-.06-.16-.11-.25-.16-.16-.03-.29-.02-.42.01-.03.03-.1.06-.19.06-.09,0-.15.03-.18.07-.03.07-.08.15-.15.23s-.11.13-.12.14c-.05.11-.08.24-.1.38-.01.14,0,.26.02.36.02.09.03.17.05.25.02.08.03.15.05.22,0,.03,0,.05.03.06.02,0,.03.04.04.1,0,.06.03.1.05.12.02.05.05.08.09.1.04.01.1.04.16.08.03,0,.05,0,.08,0,.03,0,.06,0,.09,0,.07,0,.13,0,.19,0,.06,0,.12.02.18.03.09.04.19.04.31-.01.02-.02.05-.03.08-.05s.07-.03.08-.06c.05,0,.08-.04.08-.08,0-.05.02-.08.03-.1.11-.14.19-.28.23-.42.04-.14.06-.28.07-.41Z"/>
        <path class="cls-1" d="M30.17,7.48c-.04.09-.08.17-.12.26-.03.09-.07.17-.12.26l-.27.26c-.16.18-.36.29-.58.32-.11.02-.23.02-.34.02-.12,0-.24-.02-.36-.06-.07-.02-.14-.04-.21-.07-.07-.03-.15-.06-.21-.1-.05-.03-.11-.05-.17-.06-.06-.01-.13-.02-.2-.03-.03-.02-.06-.04-.09-.06-.03-.02-.07-.05-.12-.07-.06-.1-.13-.2-.21-.29-.08-.09-.15-.19-.19-.32,0-.1,0-.18-.01-.21,0-.04-.03-.12-.08-.24v-.86c0-.07,0-.14,0-.2s-.02-.13-.03-.19c0-.06-.01-.11,0-.16,0-.04.01-.1.02-.16.03-.1.03-.21,0-.33.03-.1.06-.21.09-.31,0-.05-.01-.13-.04-.22-.03-.1-.06-.19-.09-.27-.04,0-.09,0-.13-.01-.04,0-.09-.02-.14-.03-.05.02-.11.03-.16.05-.06.02-.12.03-.19.05-.03.02-.06.03-.12.03,0,0-.02-.01-.05-.03-.02-.02-.03-.04-.03-.05,0-.03-.01-.05-.01-.08v-.08c0-.07-.01-.14-.01-.22v-.22c0-.07,0-.14-.01-.2,0-.07-.02-.13-.04-.19,0-.04.02-.08.03-.12,0-.04.02-.08.03-.11v-.25c0-.07.01-.13.03-.18.02-.05.07-.1.14-.14.05-.02.11-.03.18-.03h.21c.07,0,.14,0,.21,0,.07-.01.14-.05.2-.11.02-.02.04-.03.07-.03h.07c.17,0,.32-.06.46-.21,0-.05.03-.13.08-.22-.03-.06-.05-.13-.06-.2-.02-.07-.04-.15-.06-.21.02-.03.03-.05.05-.08.02-.03.03-.06.04-.09.02-.04.02-.08,0-.12-.02-.04-.02-.07-.01-.1-.02-.04-.03-.07-.03-.09s0-.05-.03-.09c0-.02.02-.04.03-.06,0-.02.02-.04.03-.06,0-.03.02-.06.03-.08,0-.02.02-.05.03-.08h.14s.09.02.14.02c.05,0,.09,0,.14,0,.02,0,.04,0,.06,0,.03,0,.05,0,.08,0,.15.02.29.04.44.06.14.03.28.04.42.04.02,0,.04,0,.06.01.02,0,.04.02.05.03.03.02.06.04.09.06,0,.03-.02.07-.04.1-.02.03-.03.06-.04.08,0,.03-.02.07-.02.12,0,.04-.01.09-.02.13,0,.06-.02.12-.03.18,0,.06-.02.13-.04.21,0,0,.01.03.01.06s0,.06.01.09c0,.06-.02.12-.03.17s-.02.11-.03.18c.11.09.24.16.37.22.13.06.3.12.49.17.1.06.15.16.17.3,0,.2-.01.4-.04.6,0,.08-.02.16-.03.23,0,.08,0,.16,0,.23-.11.07-.25.1-.4.1-.03,0-.05,0-.08.01-.03,0-.05.01-.06.01-.14,0-.25.02-.32.04-.07.02-.19.06-.34.13-.03.03-.04.08-.04.14,0,.05-.02.1-.02.16s0,.11,0,.17c0,0,0,.02-.03.03-.05.1-.09.18-.12.23-.03.05-.04.1-.05.16,0,.05,0,.14,0,.26v.62s0,.07.01.08c0,.08.05.14.12.19.03,0,.07.02.1.03.03,0,.05.03.07.06.08.1.17.16.27.16.1,0,.21-.01.32-.05.03-.02.07-.03.1-.05.03-.02.07-.03.1-.04.07.02.11.06.13.12.02.06.05.11.09.16.04.04.08.09.11.14.03.05.06.1.1.16.02.05.04.11.07.18.03.07.05.14.06.21Z"/>
        <path class="cls-1" d="M36.65,3.83c0,.09-.02.18-.02.27,0,.09-.02.18-.03.27,0,.09-.01.18-.01.28s-.02.2-.05.31c-.02.03-.04.05-.07.08-.03.03-.05.07-.08.11,0,.03,0,.06,0,.09,0,.03.01.06.02.09-.02.04-.04.08-.08.11-.03.03-.07.05-.1.07-.09.03-.17.05-.24.08-.07.03-.15.05-.23.06-.12.02-.25.02-.38,0-.13-.01-.26-.02-.39,0-.11,0-.23,0-.36,0-.13,0-.25,0-.38,0h-.73s-.07.03-.11.03c-.04,0-.08,0-.11.01-.03-.02-.07-.02-.12,0-.04.01-.09.01-.13,0-.03,0-.07.02-.1.02-.03,0-.07.01-.11.02-.03,0-.06-.02-.09-.03-.03-.01-.06,0-.09.02.02.03.04.05.06.08.02.03.04.07.05.11.03.03.05.07.06.1s.03.07.05.12c.02.03.03.07.04.11,0,.04.02.08.03.11.04.04.09.09.14.13.05.04.1.09.16.13.04,0,.09.02.14.03.05,0,.09.02.14.03.05,0,.1.02.16.03.05,0,.11,0,.17,0,.06-.02.12-.02.17,0,.05.02.11.04.17.05.08,0,.16-.02.24-.03.08,0,.16-.02.24-.03.03-.03.07-.05.11-.07.04-.02.08-.05.11-.07.11-.03.23-.02.34.01.03.04.06.09.1.13.04.04.08.09.11.14.05.08.1.15.16.23.05.07.09.16.1.25.02.04.04.09.08.13.03.04.06.08.08.12,0,.04,0,.08,0,.12s-.02.07-.03.12c-.03.03-.08.06-.13.09,0,0-.02,0-.03.03,0,.02-.02.03-.04.04l-.16.1c-.05.03-.1.07-.14.1-.12.1-.25.16-.38.16-.05,0-.09,0-.12.01-.04,0-.09.03-.13.05-.04.03-.09.05-.14.06-.04,0-.09,0-.13.02s-.09.02-.13.03c-.03,0-.06,0-.09,0-.03,0-.07,0-.1,0-.08,0-.16,0-.23-.01-.08-.02-.16-.03-.23-.03-.03,0-.05-.02-.08-.03-.03,0-.05-.01-.08-.01-.15,0-.29-.02-.42-.07-.13-.06-.26-.11-.39-.18-.1-.03-.18-.07-.22-.14-.06-.07-.13-.13-.2-.18-.07-.05-.15-.09-.24-.12-.05-.02-.1-.04-.16-.07-.05-.03-.11-.06-.17-.1,0-.03-.02-.07-.04-.1-.02-.03-.03-.07-.05-.1-.02-.03-.04-.05-.07-.08-.03-.03-.06-.05-.08-.08s-.05-.06-.06-.09c-.04-.15-.09-.29-.13-.44-.04-.14-.1-.28-.17-.42,0-.06.02-.12.02-.19s0-.14-.02-.21c0-.02-.01-.04-.01-.06v-.06s0-.08,0-.11c0-.03,0-.06,0-.08,0-.07-.02-.14-.03-.21,0-.07,0-.13.01-.19.02-.07.03-.14.05-.21.02-.07.04-.14.06-.22,0-.02-.01-.04-.01-.08s0-.07-.01-.1c.02-.1.03-.19.05-.29.02-.1.04-.19.06-.27.03-.05.05-.1.08-.15.03-.05.06-.1.1-.15.06-.1.11-.2.14-.3.1-.05.17-.08.19-.1.02-.01.04-.03.06-.06.02-.03.07-.08.17-.16,0-.03.01-.06.06-.12s.07-.1.05-.13c.08-.15.19-.26.34-.35.05-.03.1-.07.15-.11s.09-.08.12-.11c.04-.03.08-.04.12-.03.04,0,.08,0,.11,0,.03,0,.05-.02.08-.02s.06-.01.1-.02c.02,0,.04-.02.06-.03.03,0,.05-.02.06-.04.02,0,.03-.02.05-.03.02,0,.03-.01.05-.01.08,0,.15-.03.22-.06.07-.03.13-.07.19-.1.13.05.26.07.4.05.09,0,.17,0,.25.01.08.02.16.04.23.06l.18-.05c.07,0,.13.03.19.06.06.03.12.07.18.1h.12s.02.02.03.02c0,0,.02.01.03.02.1.09.19.17.27.24.09.07.18.15.27.23.13.09.21.19.25.31.03.05.06.09.09.12.1.09.2.2.27.35,0,.02,0,.04,0,.07,0,.03,0,.06,0,.08,0,.04,0,.09.03.13.03.04.04.09.05.14ZM35,4.26v-.32s0-.07-.01-.08c0-.03-.02-.05-.03-.08-.01-.03-.02-.04-.03-.05v-.22l-.04-.04s-.08,0-.13-.03c-.02-.08-.04-.14-.07-.18-.03-.03-.06-.06-.1-.06-.04,0-.09-.02-.14-.04-.11.03-.23.07-.36.09-.13.03-.26.06-.38.1-.06,0-.12.01-.17.01s-.1,0-.16.01c-.09.03-.16.09-.23.16-.06.07-.13.15-.19.21-.03.04-.06.09-.09.14-.03.05-.06.1-.09.14,0,0-.01.03-.01.08.03.07.06.11.12.13.05,0,.1.02.16.04s.11.03.17.05c.03,0,.05-.01.07-.01s.05,0,.07-.01c.1-.04.19-.05.26-.01.07,0,.13,0,.19,0,.06,0,.11-.02.18-.03.05.03.11.04.16.05s.11.02.16.04c.11.03.22.05.32.05s.21-.01.31-.04c.04-.04.06-.08.06-.12Z"/>
        <path class="cls-1" d="M42.09,2.93c.02.14,0,.24-.06.3-.04.05-.07.11-.08.17-.01.06-.02.13-.03.2-.02.03-.03.05-.05.08-.01.03-.03.05-.05.08-.03.03-.07.07-.1.12-.03.04-.06.09-.08.13-.02.03-.03.07-.04.12,0,.04-.02.09-.04.13,0,0-.02.02-.02.03,0,.01-.01.02-.02.03,0,0-.02.01-.03.01s-.02,0-.03.01h-.07c-.19-.08-.38-.08-.56-.01-.04,0-.07.01-.09.01h-.09s-.05.01-.07.01-.04,0-.06.01c-.1.04-.2.1-.27.17-.08.07-.15.14-.22.22-.03.1-.07.21-.11.32-.04.11-.06.23-.06.36,0,0,0,.02-.01.05,0,.02-.02.04-.03.06,0,.03-.02.06-.03.08-.01.02-.03.05-.05.08-.02.05-.04.1-.06.16s-.05.1-.06.16c.02.06.02.12,0,.17-.02.05-.03.1-.03.16.02.08.02.15,0,.21-.01.06-.03.13-.05.2-.03.08-.04.16-.03.24,0,.08,0,.16,0,.24,0,.1-.01.2,0,.3,0,.1,0,.2,0,.3,0,.06,0,.13-.01.19,0,.07-.01.14-.01.21-.03.05-.05.09-.06.1-.06.1-.13.16-.22.2-.09.04-.18.05-.29.05-.07,0-.14-.02-.21-.03s-.15-.02-.21-.03c-.04,0-.08-.02-.13-.03-.05-.01-.1-.03-.14-.05-.04,0-.06.02-.08.02-.02,0-.05.01-.07.02-.11-.03-.22-.1-.31-.19,0-.06.01-.12.01-.18s0-.12.01-.18c0-.03-.02-.06-.02-.1s-.02-.08-.03-.11c0-.05-.02-.1-.04-.16-.02-.05-.02-.11-.01-.17,0-.13-.03-.28-.08-.45.02-.02.03-.04.05-.07.01-.03.02-.06.03-.08,0-.03.02-.05.02-.07,0-.02,0-.05,0-.07,0-.02,0-.03.01-.05,0-.01,0-.03-.01-.05,0-.03-.02-.05-.02-.08,0-.03-.01-.06-.02-.08,0-.09,0-.17,0-.26,0-.03.01-.07.02-.1,0-.03.01-.06.02-.1.02-.04.02-.09.02-.14,0-.05-.03-.1-.07-.13,0,0-.02-.02-.02-.03s-.02-.02-.03-.03c0-.04-.02-.09-.02-.14,0-.05-.02-.1-.03-.14,0-.06-.02-.12-.03-.17-.01-.05-.02-.11-.02-.17.02-.1.02-.21.01-.31s0-.2.03-.31c0-.02,0-.04,0-.06,0-.03,0-.05,0-.06,0-.1-.02-.19-.02-.29,0-.1.01-.19.05-.29.02-.03.03-.07.03-.12v-.13c0-.08,0-.15,0-.23,0-.07.02-.15.06-.21,0-.03-.01-.07-.04-.13.02-.04.03-.09.05-.14.01-.05.02-.09.03-.14.02-.04.03-.08.04-.12,0-.04.02-.08.03-.11.05-.05.1-.07.14-.07.09.03.18.03.27,0,.09-.02.18-.03.27-.02.03,0,.05,0,.08-.02s.05-.02.08-.03c.15-.04.27-.04.36.01.06.1.1.18.1.23,0,.05.02.18.03.38.03.1.07.19.14.27.02.02.05.03.08.03.04,0,.07,0,.08-.02.03-.03.06-.05.09-.07.03-.02.05-.05.08-.08.05-.04.1-.09.15-.14.05-.05.09-.09.12-.12.1-.04.19-.09.28-.13.09-.04.19-.09.31-.13h.33s.02-.02.02-.02.01,0,.02,0h.04c.1.04.19.05.27.03.14-.04.27-.03.4.05.08.03.15.07.22.1.07.03.14.07.22.12.03.03.06.07.09.1.03.03.06.07.09.1Z"/>
        <path class="cls-1" d="M44.76,7.63c0,.06-.02.12-.03.19,0,.06-.02.13-.04.19,0,.1-.03.19-.06.28-.03.09-.08.17-.15.24-.02.03-.03.05-.05.07-.02.02-.03.04-.05.06-.03.03-.07.06-.12.08s-.1.04-.17.06c-.06,0-.13,0-.19,0-.07,0-.15,0-.23,0-.15,0-.27-.06-.36-.17-.03-.04-.07-.09-.11-.14-.04-.05-.08-.1-.12-.16,0-.05-.02-.1-.04-.16-.02-.05-.03-.1-.04-.16-.02-.1-.02-.2-.01-.3s.04-.19.1-.27c0,0,.02-.02.03-.03,0,0,.02-.02.03-.03.07-.07.15-.13.23-.19.08-.06.18-.1.28-.12.03,0,.06-.01.1-.02s.08-.01.12-.02c.04,0,.09,0,.13,0,.04,0,.09-.01.14-.02.15.08.27.16.38.25s.19.2.24.35Z"/>
        <path class="cls-1" d="M51.48,6.12c-.08.24-.09.49-.04.73-.07.2-.13.35-.17.44-.04.1-.09.18-.14.27-.05.08-.13.2-.25.36-.04.03-.09.06-.14.1-.05.04-.1.08-.15.12-.03.06-.1.13-.18.22-.08.06-.16.12-.25.18-.09.06-.18.11-.27.18-.06.02-.13.04-.21.06-.08.03-.15.07-.22.13-.09.06-.17.1-.26.1-.04,0-.09.01-.14,0-.05,0-.1,0-.15,0,0,0-.02.02-.05.04-.02.02-.05.03-.07.05-.11,0-.23.01-.35,0-.12,0-.24-.02-.36-.06-.02,0-.06-.01-.12-.01-.1,0-.21-.02-.31-.05s-.2-.07-.29-.1c-.08-.03-.15-.06-.21-.09-.06-.03-.13-.06-.19-.08-.05-.03-.1-.05-.14-.08-.04-.03-.08-.06-.12-.1-.03-.04-.08-.08-.12-.1-.05-.02-.09-.05-.12-.07-.03-.03-.05-.07-.07-.1s-.04-.07-.06-.09c-.03-.03-.07-.04-.1-.05-.03,0-.06-.01-.08-.02-.06,0-.11-.02-.14-.05-.03-.03-.07-.06-.1-.1-.04-.06-.09-.12-.13-.19-.04-.07-.08-.13-.12-.2-.02,0-.03-.02-.03-.04.07-.1.13-.19.19-.28s.13-.18.19-.25c.04-.04.08-.09.12-.14.04-.05.08-.09.11-.14.07-.1.15-.16.23-.19.04-.03.09-.03.14,0,.05.02.09.02.14,0,.03.04.07.08.11.12s.08.06.14.08c.11.04.23.08.34.12.12.04.23.06.34.07.02,0,.04,0,.06.02.02.01.04.02.05.03.11-.02.23-.02.34-.02.11,0,.23,0,.34,0,.04,0,.08,0,.12.01.03,0,.08.02.13.04.03-.02.08-.03.12-.03.05,0,.09-.01.12-.02.05-.03.1-.05.14-.08.04-.03.09-.06.13-.1.02-.03.03-.06.03-.06.04-.28.06-.55.04-.81-.05-.07-.1-.14-.14-.2s-.1-.12-.17-.16c-.09-.04-.17-.07-.26-.07-.09,0-.17-.01-.25-.02-.1-.04-.2-.08-.29-.1-.09-.02-.18-.05-.28-.08-.13-.04-.26-.05-.39-.01h-.06s-.07-.05-.08-.1c0-.05-.02-.1-.04-.13l-.14-.23.14-.13-.05-.31v-.27c0-.06.03-.11.08-.14.03,0,.06-.02.1-.03.04-.01.08-.02.11-.03.12-.03.22-.07.3-.13.14-.1.31-.17.51-.2.02,0,.03,0,.04,0,0,0,.02-.01.04-.02.07-.04.13-.1.19-.18.04-.08.09-.15.14-.22.05-.07.08-.15.1-.23l-.09-.44s-.03-.03-.05-.05c-.03-.03-.05-.04-.06-.05-.07-.04-.15-.08-.23-.11s-.17-.05-.25-.05c-.03,0-.07,0-.1-.01-.03,0-.07-.01-.11-.01-.14.05-.28.12-.41.2-.13.08-.27.15-.42.21-.07-.02-.13-.05-.17-.11-.04-.06-.1-.08-.18-.06-.16-.15-.3-.31-.41-.49-.11-.18-.2-.37-.28-.57.02-.05.03-.11.05-.17.01-.06.02-.12.03-.17.03-.13.1-.2.21-.21.02,0,.03,0,.05-.01.03-.02.06-.04.09-.07.03-.03.07-.06.1-.08.03-.03.05-.04.08-.04.1-.03.21-.07.32-.13.07-.05.14-.1.22-.14.08-.04.15-.08.22-.12.07,0,.14-.02.21-.02s.13,0,.2,0c.08,0,.15,0,.23,0,.07,0,.15.02.21.03.12.04.24.05.35.03.04-.02.08-.03.12-.03h.12l.13-.08c.12.03.24.06.34.1.11.04.22.05.34.05.04,0,.08.02.12.04s.08.03.11.05c.21.06.4.17.57.34.03.03.06.07.09.1s.07.06.1.08c.03,0,.05.01.08.01s.05,0,.07.03c.04.03.08.08.12.13s.07.1.1.14c.03.08.06.16.08.24s.04.16.05.24c0,.09.02.17.05.24.02.07.04.15.06.23.07.21.07.42,0,.64-.02.1-.05.19-.1.28-.05.09-.09.18-.12.27,0,.02-.02.03-.03.05-.01.02-.02.03-.03.05-.04.03-.09.07-.14.1-.05.03-.08.08-.11.13s-.06.09-.11.11c-.05.02-.09.05-.14.1-.1.1-.19.16-.27.18-.02.03-.02.06-.02.08s.01.03.02.05c.02,0,.03.02.04.03,0,.01.02.02.03.03.06.04.12.09.17.14.05.05.09.11.12.17.02,0,.03.02.05.04s.03.03.04.03c.14.06.25.15.33.25.08.11.14.23.19.37.02.05.03.11.05.16.02.06.03.12.05.19,0,.02,0,.04,0,.06,0,.02,0,.05,0,.08.02.06.03.12.05.18.02.06.03.13.05.21Z"/>
      </g>
    </g>
  </g>
</svg>