<?xml version="1.0" encoding="UTF-8"?>
<svg id="_レイヤー_2" data-name="レイヤー 2" xmlns="http://www.w3.org/2000/svg" viewBox="0 0 57.6 18.23">
  <defs>
    <style>
      .cls-1 {
        fill: #333;
      }
    </style>
  </defs>
  <g id="_編集箇所" data-name="編集箇所">
    <g>
      <path class="cls-1" d="M5.88,16.22c.18-.16.31-.33.39-.52.08-.19.09-.4.03-.63-.05-.23-.18-.48-.39-.75l1.3-1.11c.38.46.62.94.7,1.46.08.51.04,1-.14,1.47-.18.47-.47.88-.88,1.23-.42.36-.85.61-1.28.74-.43.13-.86.15-1.29.07s-.85-.27-1.27-.56c-.42-.29-.84-.67-1.25-1.15l-.5-.59c-.41-.48-.72-.95-.94-1.42-.22-.46-.34-.91-.36-1.35-.02-.44.07-.86.27-1.26.2-.41.51-.79.93-1.15.45-.39.92-.62,1.42-.72.49-.09.99-.04,1.48.16.49.2.97.56,1.42,1.08l-1.3,1.11c-.25-.27-.49-.46-.72-.59-.23-.13-.46-.18-.68-.15-.22.02-.43.12-.64.3-.23.19-.37.39-.45.6-.07.21-.08.43-.02.66.06.23.18.47.34.73.17.26.38.53.63.83l.5.59c.25.3.49.55.72.76s.45.36.66.45c.21.09.43.12.64.08.22-.04.44-.16.67-.35Z"/>
      <path class="cls-1" d="M7.28,2.53l5.31,10.76-1.63.8L5.65,3.33l1.63-.8ZM10.29,9.37l-.52.26c-.27-.53-.45-1.04-.55-1.54-.1-.5-.12-.97-.07-1.41.06-.44.2-.83.42-1.16.22-.33.52-.59.9-.78.31-.15.62-.24.93-.26.3-.02.6.04.9.17s.58.36.86.67c.28.32.54.73.8,1.25l2.4,4.86-1.63.81-2.41-4.88c-.18-.36-.36-.63-.54-.8-.18-.18-.37-.27-.57-.29-.2-.02-.41.03-.63.14-.22.11-.39.27-.51.47-.12.21-.18.44-.2.71-.02.27,0,.55.08.86s.19.61.34.92Z"/>
      <path class="cls-1" d="M22.43,8.08l-.85-4.12c-.06-.29-.15-.51-.26-.67-.11-.15-.25-.25-.42-.3-.17-.05-.36-.04-.59,0-.23.05-.42.14-.56.26-.14.13-.24.28-.28.47-.05.18-.05.38,0,.6l-1.78.37c-.07-.33-.07-.66,0-.99.07-.34.21-.65.42-.94.21-.29.48-.55.8-.76.33-.21.72-.36,1.17-.46.53-.11,1.02-.12,1.47-.03.45.09.83.31,1.16.65.32.34.55.83.68,1.46l.8,3.86c.08.38.17.72.28,1.01.11.29.23.53.37.73l.03.12-1.82.38c-.12-.19-.23-.43-.34-.74-.11-.3-.19-.6-.25-.9ZM21.97,4.67l.25,1.16-.86.18c-.26.05-.48.13-.67.24-.19.11-.34.24-.45.39-.11.15-.19.33-.23.52-.04.19-.03.4.01.61.05.26.13.46.24.61.11.15.24.25.41.3.16.05.35.05.56,0,.28-.06.51-.17.7-.34.19-.17.32-.35.39-.56s.09-.37.04-.52l.56.66c0,.2-.03.42-.09.66-.06.24-.16.47-.3.7-.14.23-.31.43-.53.6-.22.17-.49.29-.81.36-.46.1-.89.08-1.3-.04-.41-.12-.75-.34-1.03-.66-.28-.32-.47-.73-.58-1.25-.08-.41-.09-.8-.03-1.16.06-.37.21-.7.43-1,.22-.3.52-.56.9-.77.38-.22.85-.38,1.4-.5l.99-.2Z"/>
      <path class="cls-1" d="M29.47,2.43l-.48,10.07-1.81-.09.56-11.69,1.66.08.07,1.63ZM33.9,4.91l-.03.66c-.03.67-.12,1.25-.26,1.74-.14.5-.34.91-.59,1.24-.25.33-.55.57-.9.73-.35.16-.75.22-1.2.2-.43-.02-.8-.13-1.1-.33-.3-.2-.55-.48-.75-.83-.2-.35-.35-.76-.45-1.23-.11-.47-.17-.98-.2-1.54l.05-1.03c.07-.59.18-1.12.33-1.59.15-.48.34-.88.57-1.22.24-.34.51-.59.84-.76s.7-.25,1.13-.23c.45.02.85.12,1.18.3.34.18.61.44.83.78s.37.77.46,1.28c.09.52.12,1.12.09,1.82ZM32.05,5.49l.03-.66c.02-.44.01-.81-.03-1.13-.04-.32-.12-.58-.23-.79-.11-.21-.26-.37-.44-.47-.18-.11-.41-.16-.67-.18-.24-.01-.45.03-.64.12-.19.09-.35.22-.48.39-.13.17-.24.37-.33.6-.08.23-.15.48-.18.76l-.09,1.91c.03.34.1.64.19.92.1.28.25.51.45.69.2.18.48.27.82.29.27.01.49-.03.68-.12s.35-.24.48-.44c.13-.2.23-.46.3-.77.07-.31.11-.69.14-1.11Z"/>
      <path class="cls-1" d="M39.32,0l1.76.48-2.13,7.88c-.07.25-.09.44-.07.59.02.15.07.26.16.33s.2.13.33.16c.1.03.2.05.3.06.1.01.18.02.23.01l-.39,1.41c-.14.01-.3.02-.48,0-.18,0-.39-.05-.63-.11-.36-.1-.66-.26-.9-.48-.24-.22-.39-.53-.46-.91-.07-.38-.03-.86.12-1.42l2.17-8ZM41.69,2.79l-.37,1.36-4-1.08.37-1.36,4,1.08Z"/>
      <path class="cls-1" d="M44.59,13.35c-.49-.25-.88-.55-1.18-.89s-.51-.72-.63-1.15c-.12-.42-.13-.88-.05-1.38.08-.5.27-1.03.56-1.59l.37-.72c.33-.63.68-1.14,1.07-1.52.39-.39.78-.66,1.2-.82.41-.16.83-.22,1.26-.18.43.04.85.17,1.26.38.48.25.85.54,1.12.87.27.33.43.71.5,1.13s.04.88-.08,1.38-.33,1.05-.64,1.64l-.42.82-4.87-2.52.64-1.23,3.28,1.69.09-.17c.17-.35.28-.66.33-.95.05-.29.03-.54-.06-.75-.09-.22-.29-.4-.58-.55-.21-.11-.41-.16-.62-.17-.2,0-.4.05-.6.18-.2.12-.4.32-.6.58-.21.27-.42.61-.64,1.04l-.37.72c-.19.37-.32.71-.39,1-.07.29-.08.56-.03.79.05.23.15.44.3.61.15.18.36.33.61.46.37.19.73.29,1.07.29s.68-.06.99-.19l.21,1.37c-.23.11-.51.19-.82.25-.31.06-.66.06-1.04,0-.38-.06-.79-.2-1.22-.42Z"/>
      <path class="cls-1" d="M54.95,11.96l-4.35,5.25-1.4-1.16,5.4-6.51,1.34,1.11-.98,1.31ZM57.6,11.96l-1.16,1.38c-.06-.09-.14-.17-.22-.25s-.17-.16-.26-.23c-.19-.16-.39-.26-.59-.31-.2-.05-.4-.05-.6,0-.2.05-.4.14-.61.28-.2.14-.41.31-.61.53l-.31-.24c.34-.41.69-.77,1.04-1.07.35-.3.7-.52,1.05-.68.35-.15.68-.22,1-.21.32.01.61.13.87.35.07.06.15.14.23.23.08.09.13.16.16.21Z"/>
    </g>
  </g>
</svg>