<?xml version="1.0" encoding="UTF-8"?>
<svg id="_レイヤー_2" data-name="レイヤー 2" xmlns="http://www.w3.org/2000/svg" viewBox="0 0 74.76 23.65">
  <defs>
    <style>
      .cls-1 {
        fill: #53696d;
      }
    </style>
  </defs>
  <g id="_編集箇所" data-name="編集箇所">
    <g>
      <path class="cls-1" d="M7.63,21.04c.24-.2.4-.43.5-.68s.11-.52.04-.82-.24-.62-.51-.97l1.68-1.43c.5.6.8,1.23.91,1.89.11.67.05,1.3-.18,1.91-.23.61-.61,1.14-1.14,1.59-.55.47-1.1.79-1.66.96s-1.12.2-1.67.09c-.55-.11-1.11-.36-1.65-.73-.55-.37-1.09-.87-1.62-1.49l-.65-.76c-.53-.62-.94-1.23-1.22-1.84S.03,17.58,0,17.02s.09-1.11.35-1.64c.26-.53.66-1.02,1.2-1.49.59-.5,1.2-.81,1.84-.93s1.28-.05,1.92.21,1.25.72,1.84,1.4l-1.68,1.43c-.32-.35-.64-.6-.94-.76-.3-.16-.6-.23-.88-.2s-.56.16-.83.39c-.29.25-.49.51-.58.78-.09.27-.1.55-.02.85.08.3.23.61.45.94.22.33.49.69.81,1.07l.65.76c.33.39.64.71.94.98.3.27.58.47.86.59.28.12.55.15.83.1s.57-.21.87-.46Z"/>
      <path class="cls-1" d="M9.49,3.26l6.87,13.97-2.11,1.04L7.38,4.29l2.11-1.04ZM13.4,12.13l-.67.33c-.34-.68-.58-1.35-.71-2-.13-.65-.16-1.26-.09-1.83.07-.57.25-1.07.54-1.5s.68-.77,1.17-1.01c.41-.2.81-.31,1.2-.34s.78.05,1.17.22c.39.17.76.46,1.11.88.36.41.7.95,1.03,1.63l3.11,6.31-2.12,1.04-3.11-6.33c-.23-.47-.46-.81-.69-1.04-.23-.23-.48-.35-.73-.38-.26-.02-.53.04-.82.18-.29.14-.51.35-.66.61-.15.27-.24.57-.26.92s.01.72.11,1.11c.1.39.24.79.44,1.2Z"/>
      <path class="cls-1" d="M29.15,10.47l-1.1-5.35c-.08-.38-.19-.67-.34-.87-.15-.2-.33-.33-.55-.39-.22-.06-.47-.06-.76,0-.3.06-.55.18-.73.34-.18.17-.31.37-.37.6s-.06.49,0,.77l-2.31.48c-.09-.42-.08-.85,0-1.29s.27-.84.54-1.22.62-.71,1.04-.98c.43-.27.93-.47,1.51-.59.69-.14,1.32-.15,1.91-.04.58.12,1.08.4,1.5.84s.71,1.07.88,1.89l1.03,5.01c.1.5.22.93.36,1.31.14.38.3.69.47.95l.03.16-2.36.49c-.15-.24-.3-.56-.44-.95s-.25-.78-.33-1.16ZM28.56,6.05l.32,1.51-1.11.23c-.34.07-.63.17-.87.31-.24.14-.44.31-.59.51-.15.2-.25.43-.3.68-.05.25-.04.52.01.79.07.33.17.59.31.79.14.2.32.32.53.39.21.06.45.07.73,0,.36-.08.67-.22.91-.44.24-.22.41-.46.51-.72.1-.26.11-.49.05-.67l.72.85c0,.26-.04.55-.12.85-.08.31-.21.61-.39.91-.18.3-.41.56-.69.78-.29.22-.64.37-1.05.46-.6.12-1.16.11-1.68-.05-.53-.16-.97-.44-1.33-.85-.36-.41-.61-.95-.75-1.62-.11-.53-.12-1.03-.04-1.51.08-.48.27-.91.56-1.29.29-.39.68-.72,1.17-1,.5-.28,1.1-.5,1.82-.64l1.28-.26Z"/>
      <path class="cls-1" d="M38.28,3.14l-.63,13.06-2.35-.11.73-15.16,2.16.1.09,2.11ZM44.03,6.37l-.04.86c-.04.86-.15,1.62-.34,2.26s-.44,1.18-.76,1.61-.71.74-1.16.94c-.45.2-.97.29-1.55.26-.56-.03-1.04-.17-1.43-.43-.39-.26-.72-.62-.97-1.07-.26-.45-.45-.98-.59-1.6-.14-.61-.22-1.28-.25-2l.06-1.34c.1-.76.24-1.45.43-2.06.19-.62.44-1.14.74-1.58.31-.44.67-.76,1.09-.99.42-.22.91-.32,1.46-.29.59.03,1.1.16,1.53.39.44.23.79.57,1.08,1.01.28.44.48.99.6,1.66.12.67.15,1.46.11,2.36ZM41.63,7.12l.04-.86c.03-.57.02-1.06-.04-1.47-.05-.41-.15-.75-.3-1.03-.15-.27-.34-.48-.57-.62-.24-.14-.53-.21-.87-.23-.31-.02-.59.04-.83.15-.24.12-.45.29-.62.51-.17.22-.31.48-.42.78-.11.3-.19.63-.24.98l-.12,2.48c.04.43.12.83.25,1.2s.32.66.59.89.62.35,1.06.38c.34.02.64-.04.89-.16.25-.12.45-.31.62-.57.17-.26.3-.59.39-1s.15-.89.18-1.44Z"/>
      <path class="cls-1" d="M51.05,0l2.28.62-2.77,10.22c-.09.32-.12.58-.09.77.02.19.09.33.2.43s.25.16.43.21c.13.04.26.06.39.08.13.02.23.02.29.02l-.51,1.83c-.19.02-.39.02-.62,0s-.5-.06-.82-.15c-.47-.13-.86-.34-1.16-.63-.31-.29-.51-.68-.6-1.18-.09-.5-.04-1.11.16-1.84l2.81-10.38ZM54.12,3.62l-.48,1.76-5.19-1.41.48-1.76,5.19,1.41Z"/>
      <path class="cls-1" d="M57.89,17.34c-.63-.33-1.14-.71-1.54-1.16s-.67-.94-.81-1.49c-.15-.55-.17-1.15-.07-1.79.11-.65.35-1.33.72-2.06l.48-.94c.42-.82.88-1.47,1.38-1.98.5-.5,1.02-.86,1.55-1.07.53-.21,1.08-.29,1.64-.24.56.05,1.1.22,1.63.49.62.32,1.1.7,1.45,1.13.35.43.56.92.65,1.47s.05,1.14-.11,1.79-.44,1.36-.83,2.12l-.55,1.06-6.32-3.27.82-1.59,4.25,2.2.12-.22c.22-.45.36-.86.43-1.23s.04-.7-.08-.98c-.12-.28-.37-.52-.75-.71-.27-.14-.54-.21-.8-.22s-.52.07-.77.23c-.25.16-.51.41-.78.75s-.55.79-.84,1.35l-.48.94c-.25.49-.42.92-.51,1.3-.09.38-.1.72-.03,1.03.06.3.19.57.39.8.2.23.46.43.79.6.48.25.94.37,1.39.37.45,0,.88-.08,1.29-.24l.27,1.77c-.3.14-.66.25-1.06.32s-.86.08-1.35,0c-.49-.07-1.02-.25-1.58-.55Z"/>
      <path class="cls-1" d="M71.32,15.54l-5.65,6.81-1.82-1.51,7-8.44,1.73,1.44-1.27,1.7ZM74.76,15.54l-1.5,1.79c-.08-.11-.18-.22-.29-.33-.11-.1-.22-.2-.34-.3-.25-.21-.5-.34-.76-.41s-.52-.06-.78,0c-.26.06-.52.19-.79.36s-.53.41-.79.69l-.4-.31c.44-.54.89-1,1.35-1.38.46-.39.91-.68,1.37-.88.45-.2.89-.29,1.3-.27.41.02.79.17,1.13.45.09.08.19.18.29.3.1.12.17.21.21.28Z"/>
    </g>
  </g>
</svg>