<?xml version="1.0" encoding="UTF-8"?>
<svg id="_レイヤー_2" data-name="レイヤー 2" xmlns="http://www.w3.org/2000/svg" viewBox="0 0 87.23 29.85">
  <defs>
    <style>
      .cls-1 {
        fill: #fff;
      }
    </style>
  </defs>
  <g id="_編集箇所" data-name="編集箇所">
    <g>
      <g>
        <path class="cls-1" d="M10.95,15.27c-.09.14-.17.29-.24.45-.07.15-.11.33-.11.53-.14.09-.27.21-.39.35-.12.14-.22.3-.31.46-.07.13-.14.25-.2.36-.06.12-.14.24-.23.36-.02.04-.05.04-.09,0-.05-.04-.08-.08-.09-.14,0-.07-.04-.11-.11-.11-.05,0-.1.03-.14.08-.04.02-.07.05-.11.09-.04.05-.07.09-.11.12-.02.02-.05.03-.09.04-.05,0-.09.02-.12.04-.07-.07-.15-.14-.24-.2-.09-.06-.18-.13-.27-.2-.11-.04-.22-.07-.32-.11-.11-.04-.21-.06-.3-.08-.07-.04-.1-.05-.08-.05-.05-.04-.1-.08-.14-.14-.04-.05-.1-.06-.19-.03-.05.05-.08.1-.07.15,0,.05,0,.1-.01.18-.13,0-.22,0-.27.03-.04.02-.07.04-.11.05-.04.02-.08.04-.14.05-.05-.02-.12-.03-.19-.04-.07,0-.15-.02-.24-.04-.16.02-.32.07-.47.15-.15.08-.3.16-.45.23-.11.02-.19.09-.24.22-.07.18-.18.35-.32.51-.14.16-.27.33-.38.51-.02.04-.05.09-.08.15-.04.06-.07.12-.11.18-.02.05-.03.1-.04.15,0,.05-.01.09-.01.15.04.11.07.18.11.22-.04.05-.07.11-.11.16-.04.05-.07.11-.11.16.02.05.03.11.03.16s0,.1.03.14c.05.18.13.32.22.43.05.07.1.15.14.23.04.08.08.18.14.28.07.05.14.11.22.16.07.05.14.12.22.19.07.07.14.14.2.2.06.06.12.13.18.2.07-.02.14-.03.2-.03s.14,0,.23-.03c.04.02.08.03.12.04.04,0,.09.02.12.04.13.02.25.04.36.05.12.02.23,0,.34-.05.14-.04.3-.08.46-.12.16-.04.31-.08.43-.09.13.02.25.05.36.08.12.04.24.07.36.11.13-.09.26-.17.39-.23.14-.06.28-.1.45-.12.16.05.28.15.35.3.07.09.13.19.18.3.04.11.09.22.15.32.04.13.09.24.15.35.06.11.13.22.2.32.05.07.11.15.18.24.06.09.11.17.15.24.05.29.04.54-.05.76-.13.09-.25.19-.38.3-.13.11-.25.22-.38.32-.04.07-.07.14-.11.2-.04.06-.07.13-.11.2-.07.02-.14.04-.22.07-.07.03-.14.07-.22.12-.05.02-.11.03-.18.04-.06,0-.13.03-.2.07-.11.07-.24.15-.41.24-.13-.07-.27-.12-.43-.14-.13.09-.27.14-.43.14s-.31.02-.46.05c-.16.02-.31,0-.45-.07-.14-.06-.27-.11-.42-.15l-.38.19-.57-.19c-.07.02-.15.03-.23.03s-.17,0-.26.03c-.07-.04-.15-.07-.24-.11-.09-.04-.18-.06-.27-.08h-.18c-.06,0-.13,0-.2.03-.11-.07-.19-.14-.24-.19-.07-.05-.14-.11-.22-.18-.07-.06-.15-.1-.24-.12-.31-.16-.57-.37-.78-.62-.13-.14-.26-.28-.39-.42s-.29-.27-.47-.39c-.09-.09-.19-.22-.3-.38-.04-.23-.12-.45-.24-.66-.13-.21-.25-.41-.38-.61.02-.13,0-.23-.05-.32-.05-.09-.1-.19-.14-.3.04-.14.05-.3.04-.47,0-.17,0-.35.01-.53.02-.09-.04-.2-.16-.32,0-.07.02-.12.07-.15.04-.03.08-.07.09-.12.09-.05.14-.14.14-.27-.04-.04-.07-.09-.09-.15-.03-.06-.06-.11-.09-.15.04-.07.07-.15.11-.24.04-.09.05-.17.05-.24v-.49c.07-.11.14-.19.22-.24,0-.14-.05-.22-.15-.24-.1-.02-.18-.06-.23-.14.13-.41.21-.67.26-.77.04-.1.15-.27.31-.5.02-.2.03-.4.03-.59s.07-.41.22-.62c.04-.02.08-.05.14-.11.05-.05.11-.11.16-.16.04-.09.07-.18.09-.26s.05-.16.07-.23c.11-.09.22-.18.32-.26.11-.08.22-.17.35-.26.04-.04.08-.06.12-.08.04-.02.1-.04.18-.05.09-.02.17-.05.24-.11.07-.05.14-.11.22-.16.04.02.08.03.14.03s.11,0,.16.03c.14-.04.27-.1.38-.19.11-.09.22-.19.35-.3.22-.05.44-.1.66-.15.22-.04.44-.11.63-.2.13,0,.25.03.36.08.12.05.24.05.36-.03.04-.04.08-.04.14,0,.18,0,.36,0,.55.03.19.02.37.04.55.05.27.04.49-.03.65-.19.02-.02.04-.04.05-.05.02-.02.04-.04.05-.05.04.02.08.04.12.05.04.02.08.04.09.05.45.4.96.62,1.54.68.09,0,.18.02.27.05.09.04.17.07.24.11l.57.57c.18.14.24.32.19.54,0,.04,0,.07.01.11,0,.04.01.07.01.11Z"/>
        <path class="cls-1" d="M24.59,19.02c.05.22.04.41-.03.59-.04.09-.06.18-.08.27-.02.09-.02.18,0,.27.02.02.02.04.01.07,0,.03-.01.06-.01.09-.07.14-.1.3-.09.46,0,.16.02.31.04.46l-.27.38v.35s-.08.08-.14.12c-.05.05-.13.1-.22.18-.04.13-.09.26-.15.41-.06.14-.11.28-.15.41v.27c-.07.07-.16.14-.27.19s-.2.14-.27.24c-.07.05-.14.1-.22.14-.07.04-.15.08-.24.14-.04.02-.08.02-.12.01-.05,0-.09,0-.12.01-.27,0-.41.13-.41.38-.2.13-.39.26-.58.41-.19.14-.38.29-.58.43-.31.23-.7.4-1.19.49-.16.02-.32.06-.46.12-.14.06-.3.11-.46.15-.04,0-.08,0-.14-.03-.05-.02-.1-.02-.14,0-.22.02-.44,0-.68-.05-.07-.02-.14-.02-.22,0-.07.02-.14.04-.19.05-.13-.02-.25-.04-.38-.05-.13-.02-.26-.04-.41-.05-.16-.07-.31-.15-.45-.24-.14-.09-.27-.17-.42-.24-.11-.04-.21-.1-.3-.19-.09-.09-.16-.18-.22-.27-.02-.04-.04-.07-.07-.09-.03-.03-.06-.06-.09-.09-.05-.04-.11-.07-.16-.09-.05-.03-.11-.07-.16-.12-.29-.2-.54-.41-.77-.65-.23-.23-.39-.52-.5-.86-.09-.23-.2-.44-.32-.62-.04-.07-.08-.14-.12-.2-.05-.06-.09-.13-.12-.2.02-.04.04-.11.08-.22-.04-.05-.07-.11-.11-.16-.04-.05-.05-.12-.05-.19,0-.05,0-.11-.01-.18,0-.06,0-.13.01-.2.04-.13.04-.25.03-.38-.02-.13-.02-.25,0-.38.02-.11.01-.22-.01-.35-.03-.13-.01-.24.04-.35.04-.13.06-.24.08-.35.02-.11.04-.22.08-.32.04-.11.07-.21.11-.31.04-.1.07-.19.11-.28.04-.11.07-.22.11-.32.04-.11.09-.22.16-.35v-.14c0-.05,0-.09.03-.11.07-.14.13-.28.16-.41.04-.13.04-.25.03-.38.07-.09.14-.16.19-.22s.1-.12.14-.19c.04-.09.08-.18.12-.26.04-.08.09-.16.15-.23.05-.14.14-.27.24-.38.07-.09.14-.17.19-.23.05-.06.1-.11.14-.15.05-.11.07-.2.05-.28-.02-.08-.03-.15-.03-.2.04-.09.06-.14.08-.16.05-.02.1-.04.15-.08.04-.04.09-.06.15-.08.14-.09.3-.18.46-.27.16-.09.32-.16.49-.22.16-.11.33-.18.5-.23.17-.04.35-.09.53-.15h.43c.14,0,.28,0,.4.03h.24c.2.07.4.11.61.11s.41,0,.61-.03c.09,0,.18,0,.28-.01.1,0,.19-.01.28-.01.09.07.17.13.23.18.06.05.13.1.2.18.05.02.11.05.16.08.05.04.12.06.19.08.25.02.48.1.69.24.21.14.4.29.58.43v.15c0,.06,0,.12.03.18,0,.09.05.17.16.24.05.02.12.03.19.03s.14.02.22.05c.04.07.09.15.15.24.06.09.12.18.18.27.07.07.14.14.22.22.07.07.13.15.16.24.04.04.07.08.09.14.03.05.05.1.07.13.05.05.11.11.16.16.05.05.09.13.11.22.04.13.09.25.16.38.07.13.13.26.16.41.02.05.05.11.09.16.04.05.09.12.15.19.04.16.07.33.09.51.03.18.08.35.15.51ZM20.81,19.99c.02-.13,0-.24-.05-.34-.05-.1-.07-.2-.05-.31,0-.04-.03-.08-.08-.14-.02-.04-.03-.11-.03-.22.02-.04.03-.09.03-.15v-.12c-.13-.2-.24-.38-.35-.55-.11-.17-.23-.34-.35-.5,0-.04-.02-.06-.05-.07-.04,0-.07-.04-.11-.09-.31,0-.64-.08-1-.24-.22-.11-.48-.12-.78-.03-.02,0-.04,0-.07.03-.03.02-.06.05-.09.08h-.14c-.29-.05-.48.05-.57.32-.04.07-.08.15-.12.23-.05.08-.08.17-.09.26-.02.07-.05.15-.11.23-.05.08-.1.16-.14.23-.07.09-.13.19-.19.3-.05.11-.12.21-.19.3-.02.18-.06.36-.12.54-.06.18-.1.35-.12.51.05.09.11.18.16.28.05.1.1.19.14.28.11.23.15.46.14.68,0,.04,0,.07.03.11.02.04.04.07.05.11.16.04.32.07.47.11.15.04.3.08.45.14.13.04.25.06.38.08.13.02.25,0,.38-.05h.08c.14.04.28.04.42.01.14-.03.28-.06.45-.09.13-.09.26-.19.39-.3s.27-.2.42-.27c.13-.25.28-.48.46-.68.18-.2.31-.42.38-.68Z"/>
        <path class="cls-1" d="M37.09,22.42c0,.14,0,.29.01.45,0,.15,0,.3-.04.45-.04.09-.05.17-.03.24.04.09.04.18.01.28-.03.1-.03.19-.01.28.04.13.04.27.03.42-.02.15-.02.3,0,.45-.07.13-.19.19-.35.19-.18,0-.37,0-.58.03-.21.02-.41.06-.61.14-.11.04-.23.05-.35.05h-.38c-.11-.07-.19-.14-.24-.19-.22.07-.4,0-.54-.24-.07-.11-.13-.22-.18-.35-.05-.13-.07-.26-.07-.41.02-.14.02-.29,0-.43-.02-.14-.02-.3,0-.46.04-.27,0-.53-.11-.78-.02-.05-.04-.11-.05-.16-.02-.05-.03-.11-.03-.16,0-.2,0-.4-.03-.61-.02-.21-.05-.4-.11-.58-.02-.09-.03-.18-.04-.26,0-.08-.01-.16-.01-.23-.05-.22-.17-.39-.35-.51-.02-.14-.04-.27-.05-.39-.02-.12-.05-.25-.08-.39-.04-.04-.11-.09-.22-.16-.07-.05-.16-.1-.26-.14-.1-.04-.19-.08-.28-.14-.04-.04-.08-.09-.12-.15-.05-.06-.09-.12-.15-.18h-.16c-.07.02-.14.03-.19.04-.05,0-.13,0-.22-.01-.04-.02-.08-.02-.14-.01-.05,0-.1.01-.14.01-.09.13-.18.26-.27.41-.07.05-.14.1-.2.15-.06.05-.11.09-.15.12-.05.05-.08.11-.08.16l-.19.57c.04.11.04.21,0,.31-.04.1-.03.2.03.31.02.05.02.11,0,.16-.02.05-.04.1-.05.14-.05.07-.06.13-.03.16.04.04.06.08.08.14.02.02.04.05.05.11v.62c0,.2-.04.4-.11.59.02.07.03.14.04.2,0,.06.02.14.04.23-.02.11-.04.23-.07.36-.03.14-.03.27-.01.42.02.09.02.19.01.3,0,.11-.03.22-.07.32-.02.05-.02.11,0,.16.05.22.05.41,0,.57-.05.16-.15.33-.3.51-.02.02-.05.04-.11.05-.05.02-.1.04-.14.05-.04.04-.07.06-.11.07-.04,0-.07.02-.11.04-.07,0-.14,0-.22-.01-.07,0-.14-.01-.19-.01-.07.02-.13.04-.18.07-.05.03-.11.07-.2.12-.23-.04-.47-.08-.72-.14-.24-.05-.48-.04-.72.05-.11-.02-.2-.06-.27-.14-.07-.07-.14-.15-.19-.24-.07-.11-.12-.23-.14-.36-.02-.14-.05-.27-.08-.39.04-.31.05-.52.05-.63s-.03-.38-.08-.8c.05-.29.09-.58.11-.88.02-.3.03-.59.03-.88v-1.16c0-.4,0-.79.03-1.19,0-.11,0-.22.03-.32.02-.11.04-.21.05-.3.04-.2.07-.39.11-.57.04-.18.08-.35.14-.51.04-.13.1-.23.19-.32.09-.09.15-.2.19-.32.04-.25.11-.47.23-.66.12-.19.24-.37.36-.55.09-.25.25-.35.49-.3.04,0,.05,0,.05-.03.05-.05.07-.13.04-.22-.03-.09,0-.17.07-.24.16-.14.35-.26.57-.34.22-.08.41-.16.59-.23.16,0,.27.02.32.05.23.07.46.07.68,0,.16-.04.31,0,.43.13.18.04.35.07.51.11.16.04.33.07.51.11.07-.02.14-.03.22-.04.07,0,.14-.02.22-.04.18.07.33.18.45.31.12.14.24.27.36.42.09.07.19.1.3.08.11-.02.22,0,.35.03.09.09.18.19.28.3.1.11.2.21.31.3.02.07.04.14.07.2.03.06.05.13.07.2.09.02.15.06.19.14.04.07.06.14.08.19.18.07.36.13.54.16.09.09.17.19.24.31.07.12.19.18.35.18.04.18.07.34.11.49.04.14.07.29.11.43.04.27.1.5.19.7.07.14.14.29.19.45.05.15.08.32.08.5.02.11.06.21.12.3.06.09.11.19.15.3-.02.07-.03.14-.04.22,0,.07-.01.15-.01.24,0,.07,0,.14.01.19,0,.05.02.13.04.22,0,.04,0,.09.01.15,0,.06,0,.11-.01.15-.04.13-.05.25-.03.38.02.13.03.24.03.35Z"/>
        <path class="cls-1" d="M49.75,15.27c-.09.14-.17.29-.24.45-.07.15-.11.33-.11.53-.14.09-.27.21-.39.35-.12.14-.22.3-.31.46-.07.13-.14.25-.2.36-.06.12-.14.24-.23.36-.02.04-.05.04-.09,0-.05-.04-.08-.08-.09-.14,0-.07-.04-.11-.11-.11-.05,0-.1.03-.13.08-.04.02-.07.05-.11.09-.04.05-.07.09-.11.12-.02.02-.05.03-.09.04-.05,0-.09.02-.12.04-.07-.07-.15-.14-.24-.2-.09-.06-.18-.13-.27-.2-.11-.04-.22-.07-.32-.11-.11-.04-.21-.06-.3-.08-.07-.04-.1-.05-.08-.05-.05-.04-.1-.08-.14-.14s-.1-.06-.19-.03c-.05.05-.08.1-.07.15,0,.05,0,.1-.01.18-.13,0-.22,0-.27.03-.04.02-.07.04-.11.05-.04.02-.08.04-.13.05-.05-.02-.12-.03-.19-.04-.07,0-.15-.02-.24-.04-.16.02-.32.07-.47.15-.15.08-.3.16-.45.23-.11.02-.19.09-.24.22-.07.18-.18.35-.32.51-.14.16-.27.33-.38.51-.02.04-.04.09-.08.15-.04.06-.07.12-.11.18-.02.05-.03.1-.04.15,0,.05-.01.09-.01.15.04.11.07.18.11.22-.04.05-.07.11-.11.16-.04.05-.07.11-.11.16.02.05.03.11.03.16s0,.1.03.14c.05.18.13.32.22.43.05.07.1.15.13.23.04.08.08.18.13.28.07.05.14.11.22.16.07.05.14.12.22.19.07.07.14.14.2.2.06.06.12.13.18.2.07-.02.14-.03.2-.03s.14,0,.23-.03c.04.02.08.03.12.04.04,0,.08.02.12.04.13.02.25.04.36.05.12.02.23,0,.34-.05.14-.04.3-.08.46-.12.16-.04.31-.08.43-.09.13.02.25.05.36.08.12.04.24.07.36.11.13-.09.26-.17.39-.23.14-.06.28-.1.45-.12.16.05.28.15.35.3.07.09.13.19.18.3.04.11.09.22.15.32.04.13.08.24.15.35.06.11.13.22.2.32.05.07.11.15.18.24.06.09.11.17.15.24.05.29.04.54-.05.76-.13.09-.25.19-.38.3-.13.11-.25.22-.38.32-.04.07-.07.14-.11.2-.04.06-.07.13-.11.2-.07.02-.14.04-.22.07-.07.03-.14.07-.22.12-.05.02-.11.03-.18.04-.06,0-.13.03-.2.07-.11.07-.24.15-.4.24-.13-.07-.27-.12-.43-.14-.13.09-.27.14-.43.14s-.31.02-.46.05c-.16.02-.31,0-.45-.07-.14-.06-.27-.11-.42-.15l-.38.19-.57-.19c-.07.02-.15.03-.23.03s-.17,0-.26.03c-.07-.04-.15-.07-.24-.11-.09-.04-.18-.06-.27-.08h-.18c-.06,0-.13,0-.2.03-.11-.07-.19-.14-.24-.19-.07-.05-.14-.11-.22-.18-.07-.06-.15-.1-.24-.12-.31-.16-.57-.37-.78-.62-.13-.14-.26-.28-.39-.42-.13-.14-.29-.27-.47-.39-.09-.09-.19-.22-.3-.38-.04-.23-.12-.45-.24-.66-.13-.21-.25-.41-.38-.61.02-.13,0-.23-.05-.32-.05-.09-.1-.19-.14-.3.04-.14.05-.3.04-.47,0-.17,0-.35.01-.53.02-.09-.04-.2-.16-.32,0-.07.02-.12.07-.15s.08-.07.09-.12c.09-.05.13-.14.13-.27-.04-.04-.07-.09-.09-.15-.03-.06-.06-.11-.09-.15.04-.07.07-.15.11-.24.04-.09.05-.17.05-.24v-.49c.07-.11.14-.19.22-.24,0-.14-.05-.22-.15-.24-.1-.02-.18-.06-.23-.14.13-.41.21-.67.26-.77.04-.1.15-.27.31-.5.02-.2.03-.4.03-.59s.07-.41.22-.62c.04-.02.08-.05.14-.11.05-.05.11-.11.16-.16.04-.09.07-.18.09-.26s.05-.16.07-.23c.11-.09.22-.18.32-.26.11-.08.22-.17.35-.26.04-.04.08-.06.12-.08.04-.02.1-.04.18-.05.09-.02.17-.05.24-.11.07-.05.14-.11.22-.16.04.02.08.03.13.03s.11,0,.16.03c.14-.04.27-.1.38-.19.11-.09.23-.19.35-.3.22-.05.44-.1.66-.15.22-.04.44-.11.63-.2.13,0,.25.03.36.08.12.05.24.05.36-.03.04-.04.08-.04.14,0,.18,0,.36,0,.55.03.19.02.37.04.55.05.27.04.49-.03.65-.19.02-.02.04-.04.05-.05.02-.02.04-.04.05-.05.04.02.08.04.12.05.04.02.08.04.09.05.45.4.96.62,1.54.68.09,0,.18.02.27.05.09.04.17.07.24.11l.57.57c.18.14.24.32.19.54,0,.04,0,.07.01.11,0,.04.01.07.01.11Z"/>
        <path class="cls-1" d="M63.14,16.86c-.02.18-.03.36-.04.55,0,.19-.03.37-.07.55-.02.18-.03.37-.03.58s-.04.42-.11.63c-.04.05-.08.11-.14.18-.05.06-.11.14-.16.23,0,.07,0,.14.01.19,0,.05.02.12.04.19-.04.09-.09.17-.16.23-.07.06-.14.11-.22.15-.18.05-.35.11-.5.16s-.31.1-.47.14c-.25.04-.51.04-.78.01s-.54-.03-.81-.01c-.23,0-.48,0-.74.01-.26,0-.53.01-.8.01h-1.51c-.07.05-.15.07-.23.05-.08-.02-.16,0-.23.03-.07-.04-.15-.04-.24-.01-.09.03-.18.02-.27-.01-.07.02-.14.03-.2.04-.06,0-.14.02-.23.04-.07-.02-.13-.04-.19-.07-.05-.03-.12-.01-.19.04.04.05.08.11.12.18.04.06.08.14.09.23.05.07.1.14.14.22.04.07.07.15.11.24.04.07.06.15.08.23.02.08.04.16.05.23.09.09.19.18.3.27s.22.18.32.27c.09.02.18.04.28.05.1.02.19.04.28.05.11.02.22.04.32.05.11.02.23.02.35,0,.13-.04.24-.03.35.01.11.05.22.08.35.09.16-.02.33-.04.5-.05.17-.02.34-.04.5-.05.07-.05.15-.1.23-.15.08-.04.16-.09.23-.15.23-.05.47-.04.7.03.05.09.12.18.2.27.08.09.16.19.23.3.11.16.22.32.32.47.11.15.18.33.22.53.04.09.09.18.16.27.07.09.13.17.16.24.02.09.01.17-.01.24-.03.07-.05.15-.07.24-.07.07-.16.14-.27.19-.02,0-.04.02-.05.05-.02.04-.04.06-.08.08-.11.07-.22.14-.32.22-.11.07-.21.14-.3.22-.25.22-.51.32-.78.32-.11,0-.19,0-.24.03-.09.02-.18.05-.27.11-.09.05-.19.1-.3.14-.09,0-.18.01-.27.04-.09.03-.18.05-.27.07-.05,0-.12,0-.19-.01-.07,0-.14-.01-.22-.01-.16.02-.32,0-.49-.03-.16-.04-.32-.05-.49-.05-.05-.02-.11-.04-.16-.05-.05-.02-.11-.03-.16-.03-.31.02-.59-.03-.86-.15-.27-.12-.54-.24-.81-.36-.22-.05-.37-.15-.46-.3-.13-.14-.27-.27-.42-.36-.15-.1-.32-.18-.5-.26-.11-.04-.22-.09-.32-.15-.11-.06-.23-.13-.35-.2-.02-.07-.05-.14-.08-.22-.04-.07-.07-.14-.11-.22-.04-.05-.09-.11-.15-.16s-.12-.11-.18-.16c-.05-.05-.1-.12-.14-.19-.09-.31-.18-.61-.27-.9-.09-.3-.21-.59-.35-.88.02-.13.03-.26.04-.39,0-.14,0-.28-.04-.45-.02-.04-.03-.08-.03-.14v-.14c0-.09,0-.17.01-.23,0-.06,0-.12-.01-.18-.02-.14-.04-.29-.05-.43-.02-.14,0-.28.03-.41.04-.14.07-.29.11-.43.04-.14.08-.3.14-.46-.02-.04-.03-.09-.03-.16s0-.14-.03-.22c.04-.2.07-.4.11-.59.04-.2.08-.39.14-.57.05-.11.11-.21.18-.31.06-.1.13-.2.2-.31.13-.22.22-.42.3-.62.22-.11.35-.18.39-.2.04-.03.08-.07.12-.12.04-.05.15-.16.35-.32-.02-.05.03-.14.13-.24.11-.11.14-.2.11-.27.16-.31.4-.55.7-.73.11-.07.21-.15.31-.23.1-.08.18-.16.26-.23.09-.05.18-.08.26-.07.08,0,.16.01.23.01.05-.02.11-.03.18-.04.06,0,.13-.02.2-.04.04-.02.08-.04.13-.05.05-.02.1-.04.14-.08l.11-.05s.07-.03.11-.03c.16-.02.31-.06.46-.14.14-.07.28-.14.4-.22.27.11.55.14.84.11.18-.02.35,0,.53.03.17.04.33.08.47.14l.38-.11c.14.02.28.06.4.14.13.07.25.14.38.22h.24s.04.03.05.04c.02,0,.04.02.05.04.2.18.39.35.57.5.18.15.37.31.57.47.27.18.44.4.51.65.07.11.14.19.19.24.22.18.41.42.57.73,0,.04,0,.09.01.15,0,.06.01.12.01.18-.02.09,0,.18.05.27.05.09.09.19.11.3ZM59.71,17.75v-.67c0-.09,0-.14-.03-.16-.02-.05-.04-.11-.07-.16-.03-.05-.05-.09-.07-.11v-.46l-.08-.08c-.07,0-.16-.02-.27-.05-.04-.16-.08-.29-.13-.38-.05-.07-.13-.12-.22-.14-.09-.02-.19-.04-.3-.08-.23.07-.49.14-.76.19s-.53.13-.78.22c-.13.02-.24.03-.35.03s-.22,0-.32.03c-.18.07-.34.18-.47.34-.13.15-.27.3-.39.45-.07.09-.14.19-.19.3-.05.11-.12.21-.19.3-.02.02-.03.07-.03.16.05.14.14.23.24.27.11.02.22.05.32.08.11.04.23.07.35.11.05-.02.1-.03.15-.03s.09,0,.15-.03c.22-.09.4-.1.54-.03.14.02.27.02.39,0,.12-.02.24-.04.36-.05.11.05.22.09.34.11.12.02.23.05.34.08.23.07.46.11.67.11s.43-.03.65-.08c.09-.09.13-.17.13-.24Z"/>
        <path class="cls-1" d="M76.75,20.37s-.02.05-.01.08c0,.04,0,.06-.01.08-.05.13-.1.25-.15.36-.04.12-.09.24-.15.36-.09.25-.22.47-.38.65-.13.18-.25.36-.36.53-.12.17-.23.34-.34.5-.18.14-.36.27-.55.39-.19.12-.39.22-.61.31-.11.04-.19.08-.24.14-.09.11-.2.18-.32.22-.09.04-.18.08-.27.12-.09.05-.18.11-.27.2-.18.07-.36.15-.53.24-.17.09-.36.14-.55.16-.05,0-.1,0-.15.01-.04,0-.1.02-.18.04-.07-.04-.15-.07-.24-.09-.09-.03-.18-.07-.27-.12-.16.02-.32.04-.49.07s-.33.06-.51.09c-.07-.04-.14-.07-.2-.11-.06-.04-.13-.06-.2-.08-.07-.04-.14-.07-.19-.09s-.13-.02-.22.01c-.07.07-.13.15-.19.24-.05.09-.11.19-.16.3-.02.07-.03.14-.03.22v.19l.11.46c0,.13-.02.23-.05.3-.07.2-.08.41-.03.62.07.23.1.48.09.73,0,.25-.01.5-.01.76-.07.18-.11.37-.11.57s-.02.4-.05.59c0,.05,0,.1-.03.14-.14.2-.32.3-.54.3h-.61c-.21,0-.41-.05-.61-.14-.05-.02-.12-.03-.19-.03h-.22c-.16.02-.32.02-.49.01-.16,0-.32-.05-.49-.12-.07-.04-.16-.05-.26-.05h-.28s-.04-.06-.05-.07c-.02,0-.03-.02-.03-.04-.05-.14-.1-.29-.13-.43-.04-.14-.06-.28-.08-.41,0-.09-.02-.18-.05-.27-.04-.09-.06-.18-.08-.27,0-.14.03-.28.08-.42.05-.14.09-.27.11-.39-.02-.13-.03-.25-.04-.36,0-.12,0-.23.01-.34,0-.11-.01-.22-.04-.32-.03-.11-.06-.22-.09-.35.04-.05.08-.13.12-.22.04-.09.08-.17.09-.24.04-.13.03-.24-.03-.35-.05-.11-.07-.25-.05-.43.04-.07.07-.15.09-.23.03-.08.06-.17.09-.26-.04-.22-.06-.56-.08-1.04-.02-.48-.03-.94-.04-1.39,0-.45,0-.75.01-.89-.04-.25-.04-.49,0-.72.04-.23.09-.45.16-.69.02-.09.04-.17.07-.23.03-.06.06-.13.09-.2.04-.13.08-.3.12-.53.04-.22.08-.35.09-.36.07-.29.12-.49.13-.61.02-.12.06-.22.12-.32.06-.1.18-.27.36-.5.18-.23.34-.52.49-.86.05-.11.09-.21.11-.3.04-.04.06-.06.08-.08.02-.02.04-.04.05-.05l.19-.38c.16-.34.42-.58.78-.73.11-.04.22-.09.34-.18.12-.08.26-.17.42-.26.23-.05.48-.13.73-.22.25-.09.52-.17.81-.24.11-.04.23-.05.35-.05s.25,0,.38-.03c.09.02.18.03.27.04.09,0,.19.01.3.01.16.02.32.04.47.05.15.02.3.07.45.16.07.02.15.03.23.04.08,0,.16.02.23.04h.4c.14,0,.28.02.41.05.05.04.18.1.36.19.19.09.29.14.31.14.07.04.12.07.14.11.04.04.07.08.11.14.04.05.08.1.13.14.25.18.47.38.66.61.19.23.37.46.55.72.09.16.19.28.3.35.05.05.1.11.15.18.04.06.09.13.15.2v.34c0,.12,0,.23.03.34,0,.07.01.15.04.24.03.09.05.18.07.27-.02.05-.03.2-.03.45s0,.41.03.5c.09.25.09.48,0,.68-.04.11-.02.22.05.32.02.07.02.21.01.41,0,.2,0,.33.01.41ZM73.24,19.35c-.02-.31-.08-.58-.18-.82-.1-.24-.25-.47-.45-.69-.16-.18-.32-.33-.47-.45-.15-.12-.33-.23-.53-.34-.32-.05-.61-.04-.86.03-.07.07-.2.12-.39.13-.19.02-.31.06-.36.14-.07.14-.18.3-.31.47-.13.17-.22.27-.26.28-.11.23-.18.5-.2.78-.03.29-.01.54.04.76.04.18.07.35.11.51.04.16.07.32.11.46,0,.05.02.1.05.14.04.02.06.09.08.22.02.13.05.21.11.24.04.11.1.18.19.2.09.03.2.09.32.18.05,0,.11,0,.16.01.05,0,.12.01.19.01.14,0,.28,0,.4.01.13,0,.25.03.38.07.18.09.4.08.65-.03.04-.04.09-.07.18-.09s.14-.07.18-.12c.11-.02.17-.08.18-.18,0-.1.03-.17.07-.2.23-.29.39-.58.47-.88.08-.3.13-.58.15-.85Z"/>
        <path class="cls-1" d="M87.23,24.45c-.09.18-.17.36-.24.54-.07.18-.15.36-.24.54l-.57.54c-.34.38-.75.6-1.21.67-.23.04-.47.05-.72.04-.24,0-.49-.05-.74-.12-.14-.04-.29-.09-.45-.15-.15-.06-.3-.13-.45-.2-.11-.05-.23-.09-.35-.12-.13-.03-.26-.05-.4-.07-.05-.04-.12-.08-.19-.12-.07-.04-.15-.09-.24-.15-.13-.22-.27-.41-.45-.59-.17-.18-.3-.41-.39-.68,0-.22,0-.36-.03-.45-.02-.08-.07-.25-.16-.5v-1.78c0-.14,0-.28-.01-.42,0-.14-.03-.27-.07-.39-.02-.13-.02-.23-.01-.32,0-.09.02-.2.04-.32.05-.22.05-.44,0-.67.05-.22.12-.43.19-.65,0-.11-.03-.26-.08-.46-.05-.2-.12-.39-.19-.57-.09,0-.18,0-.27-.03-.09-.02-.19-.04-.3-.05-.11.04-.22.07-.34.11-.12.04-.25.07-.39.11-.05.04-.14.05-.24.05-.02,0-.05-.02-.09-.07-.05-.04-.07-.08-.07-.09-.02-.05-.03-.11-.03-.16v-.16c-.02-.14-.03-.3-.03-.46v-.46c0-.14,0-.28-.03-.42-.02-.14-.05-.27-.08-.39.02-.09.04-.18.05-.26s.04-.16.05-.23v-.51c0-.14.02-.27.07-.38.04-.11.14-.21.28-.3.11-.04.23-.05.36-.05h.45c.14.02.29.01.45-.01.15-.03.29-.1.42-.23.04-.04.09-.05.15-.05h.15c.36.02.68-.13.95-.43.02-.11.07-.26.16-.46-.05-.13-.1-.27-.14-.42-.04-.15-.08-.3-.13-.45.04-.05.07-.11.11-.16.04-.05.06-.12.08-.19.04-.09.04-.18,0-.26-.04-.08-.05-.15-.03-.2-.04-.09-.05-.15-.05-.19s-.02-.1-.05-.19c.02-.04.04-.08.05-.12.02-.04.04-.09.05-.12.02-.07.04-.13.05-.18.02-.04.04-.1.05-.18h.3c.09.02.18.03.28.04.1,0,.19,0,.28-.01.04,0,.08,0,.13.01.05,0,.11.01.16.01.31.04.61.08.9.14.3.05.59.08.88.08.04,0,.08,0,.12.03.04.02.08.04.09.05.07.04.14.08.19.14-.02.07-.04.14-.08.2-.04.06-.06.12-.08.18-.02.07-.03.15-.04.24,0,.09-.02.18-.04.27-.02.13-.04.25-.05.38-.02.13-.04.27-.08.43.02.02.03.06.03.14s0,.14.03.19c-.02.13-.04.24-.07.35-.03.11-.05.23-.07.38.23.18.49.33.77.46.28.13.62.24,1.01.35.2.13.31.33.35.62,0,.41-.03.83-.08,1.24-.02.16-.04.32-.05.49-.02.16-.02.32,0,.49-.23.14-.51.22-.84.22-.05,0-.11,0-.16.03-.05.02-.1.03-.13.03-.29.02-.51.05-.66.08-.15.04-.39.13-.72.27-.05.07-.08.17-.08.3-.02.11-.03.22-.04.32,0,.11,0,.23.01.35,0,.02-.02.04-.05.05-.11.22-.19.38-.24.49-.05.11-.09.22-.09.32,0,.11-.01.29-.01.54v1.3c0,.09,0,.14.03.16.02.16.1.3.24.41.07.02.14.04.2.05.06.02.11.06.15.14.16.22.35.33.55.34.21,0,.43-.02.66-.09.07-.04.14-.07.22-.11.07-.04.14-.06.22-.08.14.04.23.12.27.24.04.13.1.23.19.32.09.09.17.19.23.3.06.11.13.22.2.32.04.11.08.23.13.36s.1.28.14.45Z"/>
      </g>
      <g>
        <path class="cls-1" d="M5.25,3.06c-.04.07-.08.14-.12.21-.03.07-.05.16-.05.25-.07.04-.13.1-.19.17-.06.07-.11.14-.15.22-.03.06-.07.12-.1.18-.03.06-.07.11-.11.18,0,.02-.02.02-.05,0-.02-.02-.04-.04-.05-.07,0-.03-.02-.05-.05-.05-.03,0-.05.01-.06.04-.02,0-.03.02-.05.05-.02.02-.03.04-.05.06,0,0-.02.02-.05.02-.02,0-.04.01-.06.02-.03-.03-.07-.07-.12-.1-.04-.03-.09-.06-.13-.1-.05-.02-.1-.03-.16-.05-.05-.02-.1-.03-.14-.04-.03-.02-.05-.03-.04-.03-.03-.02-.05-.04-.07-.06s-.05-.03-.09-.01c-.03.03-.04.05-.03.07,0,.02,0,.05,0,.08-.06,0-.1,0-.13.01-.02,0-.03.02-.05.03-.02,0-.04.02-.06.03-.03,0-.06-.02-.09-.02-.03,0-.07-.01-.12-.02-.08,0-.15.03-.23.07-.07.04-.15.08-.21.11-.05,0-.09.04-.12.1-.03.09-.09.17-.16.25-.07.08-.13.16-.18.25,0,.02-.02.04-.04.07-.02.03-.03.06-.05.08,0,.03-.02.05-.02.07,0,.02,0,.05,0,.07.02.05.03.09.05.1-.02.03-.03.05-.05.08-.02.03-.03.05-.05.08,0,.03.01.05.01.08s0,.05.01.07c.03.09.06.16.1.21.03.03.05.07.07.11.02.04.04.08.06.14.03.03.07.05.1.08.03.03.07.06.1.09.03.03.07.07.1.1.03.03.06.06.08.1.03,0,.07-.01.1-.01s.07,0,.11-.01c.02,0,.04.02.06.02.02,0,.04.01.06.02.06,0,.12.02.18.03.06,0,.11,0,.16-.03.07-.02.14-.04.22-.06.08-.02.15-.04.21-.05.06,0,.12.02.18.04.06.02.11.03.18.05.06-.04.12-.08.19-.11.06-.03.14-.05.21-.06.08.03.13.07.17.14.03.04.06.09.08.14.02.05.05.1.07.16.02.06.04.12.07.17.03.05.06.1.1.16.03.03.05.07.08.12.03.04.05.08.07.12.03.14.02.26-.03.36-.06.04-.12.09-.18.14-.06.05-.12.1-.18.16-.02.03-.03.07-.05.1-.02.03-.03.06-.05.1-.03,0-.07.02-.1.03-.03.01-.07.03-.1.06-.03,0-.05.02-.08.02-.03,0-.06.02-.1.03-.05.03-.12.07-.2.12-.06-.03-.13-.06-.21-.07-.06.04-.13.07-.21.07s-.15,0-.22.03c-.08,0-.15,0-.21-.03-.07-.03-.13-.05-.2-.07l-.18.09-.27-.09s-.07.01-.11.01-.08,0-.12.01c-.03-.02-.07-.03-.12-.05-.04-.02-.09-.03-.13-.04h-.08s-.06,0-.1.01c-.05-.03-.09-.07-.12-.09-.03-.03-.07-.05-.1-.08-.03-.03-.07-.05-.12-.06-.15-.08-.27-.18-.38-.3-.06-.07-.12-.14-.19-.2-.06-.07-.14-.13-.23-.19-.04-.04-.09-.1-.14-.18-.02-.11-.06-.22-.12-.32-.06-.1-.12-.2-.18-.29,0-.06,0-.11-.03-.16-.03-.04-.05-.09-.06-.14.02-.07.02-.15.02-.23,0-.08,0-.17,0-.25,0-.04-.02-.1-.08-.16,0-.03.01-.06.03-.07.02-.01.04-.03.05-.06.04-.03.06-.07.06-.13-.02-.02-.03-.04-.05-.07-.01-.03-.03-.05-.05-.07.02-.03.03-.07.05-.12.02-.04.03-.08.03-.12v-.23c.03-.05.07-.09.1-.12,0-.07-.02-.11-.07-.12-.05,0-.08-.03-.11-.06.06-.2.1-.32.12-.37.02-.05.07-.13.15-.24,0-.1.01-.19.01-.29s.03-.2.1-.3c.02,0,.04-.03.06-.05.03-.03.05-.05.08-.08.02-.04.03-.08.05-.12.01-.04.02-.08.03-.11.05-.04.1-.08.16-.12.05-.04.11-.08.17-.12.02-.02.04-.03.06-.04.02,0,.05-.02.08-.03.04,0,.08-.03.12-.05.03-.03.07-.05.1-.08.02,0,.04.01.06.01s.05,0,.08.01c.07-.02.13-.05.18-.09.05-.04.11-.09.17-.14.1-.03.21-.05.32-.07.11-.02.21-.05.31-.1.06,0,.12.01.18.04s.11.02.18-.01c.02-.02.04-.02.06,0,.09,0,.18,0,.27.01.09,0,.18.02.27.03.13.02.23-.01.31-.09,0,0,.02-.02.03-.03s.02-.02.03-.03c.02,0,.04.02.06.03.02,0,.04.02.05.03.22.19.46.3.74.32.04,0,.09,0,.13.03.04.02.08.03.12.05l.27.27c.09.07.12.16.09.26,0,.02,0,.03,0,.05,0,.02,0,.03,0,.05Z"/>
        <path class="cls-1" d="M11.48,6.29c-.03.11-.05.22-.03.33.01.11.01.22,0,.33,0,.06,0,.12,0,.18,0,.06,0,.13-.01.19,0,.05-.01.11,0,.16,0,.06,0,.11,0,.16,0,.03-.01.08-.01.13-.02.06-.03.12-.03.18,0,.06-.02.12-.03.19,0,0,0,.02,0,.03,0,.01,0,.03,0,.05,0,.06-.03.09-.1.09,0,0-.03-.01-.06-.01-.06-.03-.11-.03-.16-.01-.04.02-.09.03-.13.05-.03.03-.05.05-.08.08-.03.03-.05.06-.08.09-.1.05-.18.07-.27.05-.08-.02-.17-.06-.25-.11-.05,0-.09,0-.12.01h-.04s-.02-.01-.04-.01c-.03-.03-.07-.05-.1-.08-.03-.03-.06-.05-.1-.08-.07-.07-.1-.14-.08-.21,0-.03.02-.07.03-.1.01-.03.02-.06,0-.1,0-.04-.02-.09-.03-.13-.01-.04-.02-.09-.02-.13s0-.09.02-.13c.01-.04.02-.09.03-.13-.02-.07-.04-.14-.08-.21-.03-.07-.06-.14-.08-.22,0-.07-.02-.14-.03-.21-.01-.07-.02-.15-.02-.21,0-.08-.02-.15-.02-.23,0-.07,0-.15,0-.24-.02-.1-.06-.19-.13-.25-.06-.07-.11-.13-.16-.2-.04-.06-.08-.13-.12-.21-.04-.03-.1-.06-.17-.09,0-.02-.02-.03-.03-.05,0-.02-.02-.03-.04-.04,0,0-.01-.02-.01-.03s0-.02-.01-.03l-.08-.08s-.07-.02-.1,0-.07.03-.09.03c-.03,0-.06.01-.09.01s-.06,0-.1.01c-.03.02-.06.04-.08.06s-.05.04-.1.06c-.03.03-.06.05-.09.06-.03.01-.07.03-.1.05-.03.08-.04.15-.01.22.02.09.03.18.03.27,0,.1.01.19.03.29,0,.09,0,.19-.03.3,0,.03,0,.05-.01.08,0,.03-.01.06-.01.1,0,.14,0,.28-.03.41-.03.13-.06.27-.1.41,0,.09.02.17.03.25,0,.08.02.17.03.25v.27c0,.11-.06.18-.18.19h-.27c-.09,0-.17.02-.25.03s-.16.03-.23.08c-.03,0-.07.02-.1.04-.03.02-.07.03-.11.05l-.09.09s-.04,0-.06,0c-.02,0-.04,0-.06,0-.09-.04-.17-.08-.25-.1-.09-.11-.14-.23-.16-.36-.02-.13-.05-.25-.09-.36,0-.05.02-.1.03-.15.01-.05.01-.09,0-.14,0-.03-.01-.07-.01-.14,0-.03,0-.05,0-.07,0-.02,0-.04,0-.06-.03-.16-.02-.31.03-.43.02-.08.01-.16-.01-.25-.03-.16-.05-.32-.04-.48.03-.14.02-.28-.01-.42-.03-.03-.03-.06,0-.1,0-.04,0-.09,0-.14,0-.05.01-.09.02-.12,0-.03.03-.06.05-.08.03-.02.05-.04.06-.06l.04-.23s0-.07-.04-.13c0-.02-.02-.02-.04,0-.02.01-.03.02-.05.03h-.01c0-.11,0-.2,0-.28,0-.08,0-.17,0-.25,0-.03,0-.06,0-.09s.01-.06.01-.09c0-.03,0-.06-.01-.09,0-.03-.01-.07-.01-.1v-.07s0-.05.01-.08c0-.04.02-.09.03-.13,0-.04.02-.09.04-.14-.03-.07-.05-.14-.05-.22s0-.16-.02-.25c0-.03,0-.06,0-.09.01-.03.02-.07.03-.12-.03-.08-.05-.17-.04-.27,0-.1,0-.2,0-.29.02-.05.02-.1.01-.15,0-.05-.01-.1-.01-.15,0-.09,0-.17,0-.25s0-.16.01-.23c0-.03.01-.05,0-.06,0-.02,0-.03,0-.05-.02-.16-.01-.32.01-.46,0-.03.01-.06.01-.1v-.12s-.02-.07-.02-.09,0-.06,0-.09c.03-.05.04-.11.03-.16,0-.06.01-.11.05-.16,0-.02.01-.03.01-.04h.03s.01-.03.04-.03c.04-.02.08-.03.12-.05.04-.01.08-.02.12-.03.03.02.05.03.08.05.03.02.06.03.09.05h.21s.03-.03.05-.04c.02,0,.03-.02.04-.03l.13-.09s.07-.03.11-.03c.04,0,.07,0,.1.03.08.05.15.1.23.13.07.03.15.06.23.07.04.07.08.13.1.19.02.06.05.13.07.19.03.09.06.19.12.3,0,.04-.02.08-.05.1-.03.03-.05.06-.06.12,0,.02,0,.04,0,.08,0,.03.01.07.02.12,0,.03,0,.07-.01.1,0,.03,0,.07,0,.12.02.14.02.28.01.42,0,.14-.02.27-.04.4v.18c0,.09.02.17.06.26.03.03.07.07.1.11.03.04.06.08.08.12.05.05.11.08.17.08.12,0,.24.01.37.03.13.02.25.02.37,0,.03,0,.05-.01.06,0,.02,0,.04,0,.06,0,.03.02.06.03.1.04.04,0,.08.02.11.03.1.02.13.07.12.17.02,0,.03.02.04.03.02,0,.03-.01.05-.01s.03,0,.04-.01c.11-.04.21-.03.3.03.05.04.11.08.18.1.07.02.13.07.2.14.06.1.14.2.23.29.1.09.19.19.29.29.02.03.04.05.06.07.03.02.05.04.06.06.08.08.12.16.13.23.03.12.06.22.09.29.03.1.06.2.12.32v.13s.02.07.03.11c0,.04.01.08.01.12,0,.1.02.21.03.31,0,.1.02.21.03.31,0,0,0,.02,0,.03,0,.01,0,.03,0,.05Z"/>
        <path class="cls-1" d="M18.58,7.78c.03.06.03.12.03.17s-.03.1-.05.16c0,0-.03.02-.05.03-.03.01-.05.03-.06.05-.03,0-.06.01-.09.01s-.06,0-.09.03c-.13.03-.21.1-.23.21,0,.02-.03.04-.05.07-.06,0-.1.02-.13.03s-.08.04-.16.08c-.06,0-.12,0-.18.03-.06.02-.12.05-.17.1-.02,0-.03,0-.04,0,0,0-.02,0-.04,0-.03.02-.07.01-.12-.02-.04-.03-.06-.07-.06-.11v-.08s-.08-.02-.12,0c-.05.02-.08,0-.11-.05v-.19s-.05-.03-.07-.05c-.02-.01-.05-.02-.07-.03-.03-.07-.07-.14-.12-.22-.04-.08-.09-.15-.13-.21-.03-.03-.06-.03-.09-.03-.03,0-.05.02-.07.04-.02.02-.03.04-.04.06,0,.02-.02.04-.04.06-.02.02-.03.04-.04.07,0,.03-.02.05-.04.06-.11.05-.23.1-.34.14-.11.04-.22.07-.32.1-.06.04-.12.08-.18.12-.06.03-.12.07-.17.1-.05,0-.1.02-.16.04-.05.02-.1.03-.14.04-.05-.03-.1-.03-.15-.02-.05.01-.11.03-.18.05-.08-.02-.16-.04-.25-.06-.09-.02-.18-.04-.27-.06-.03,0-.05.01-.08.01s-.05,0-.07.01c-.03-.02-.06-.03-.08-.05-.02-.02-.05-.03-.08-.04-.04-.02-.08-.02-.12,0s-.07.03-.12.05c-.04-.02-.09-.03-.14-.03-.05,0-.1-.01-.16-.02-.04-.04-.08-.08-.11-.12-.03-.03-.05-.08-.06-.13-.02-.02-.03-.03-.05-.05-.02-.01-.03-.02-.04-.03-.03-.12-.07-.23-.12-.31-.12-.26-.2-.55-.25-.86-.02-.02-.03-.04-.05-.06-.02-.02-.04-.05-.06-.07,0-.08-.02-.15-.03-.23,0-.07-.02-.15-.04-.24.02-.05.03-.1.03-.14-.02-.09-.03-.16-.05-.23.03-.1.07-.21.11-.31s.05-.21.03-.32c.02-.03.04-.07.06-.1.03-.03.05-.06.06-.08.08-.09.13-.19.17-.3.03-.1.07-.18.14-.25.06-.07.14-.13.21-.17.1-.04.19-.09.28-.14.09-.05.18-.09.27-.12.02,0,.04,0,.07,0,.03,0,.05,0,.07,0,.16-.03.29-.03.4-.03.05,0,.1,0,.16,0,.05,0,.1-.01.14-.01l.27-.05c.05,0,.1.02.16.04.05.02.1.01.16-.01.02,0,.03,0,.05,0,.01,0,.02,0,.03,0,.04.02.08.04.12.06.03.02.07.03.12.03.1.02.16,0,.18-.05,0-.15-.02-.24-.03-.29-.01-.04-.04-.11-.08-.21-.03-.05-.04-.11-.05-.16,0-.06-.02-.11-.03-.16,0-.03-.02-.07-.02-.1,0-.03-.02-.06-.06-.1-.11-.03-.25-.06-.42-.08h-.08c-.08.03-.16.05-.25.05s-.18,0-.27.03c-.06,0-.12.03-.19.05s-.13.05-.2.06c-.07.03-.14.02-.21-.05-.03-.08-.04-.16-.03-.24,0-.08.01-.17.02-.25-.02-.06-.04-.13-.06-.21-.03-.08-.04-.18-.04-.29v-.09s-.01-.03-.03-.05c-.02-.02-.04-.03-.06-.04-.03-.03-.03-.05-.01-.08,0-.03.01-.04.04-.04.07-.02.13-.03.2-.04.06,0,.12-.02.18-.03l.16-.16s.04-.01.06-.01c.2.03.34.05.44.04.09,0,.23-.04.42-.1.1,0,.19.02.28.04.09.02.18.02.28.01.03.03.05.05.08.07.03.02.06.05.1.07.04-.02.09-.03.13-.05.04-.01.08-.02.12-.03.05.03.11.07.17.1.04,0,.08,0,.11-.03s.06-.04.1-.04c.08,0,.14.05.19.11.05.07.1.12.16.16.05.03.1.08.15.13.05.05.1.1.15.14l.05.08s.03.05.04.08c.04.03.08.06.12.08.03.02.06.05.09.08.04.03.09.06.14.08.05.02.08.05.11.09.02.04.03.09.05.14.02.05.05.09.09.12.03.09.05.18.08.27.03.09.03.18.01.28,0,.04,0,.08-.01.12.02.04.03.09.04.14,0,.05.02.1.04.14v.06s0,.05,0,.08c0,.03,0,.05,0,.07.02.05.04.09.07.12,0,.05-.02.1-.07.14-.02,0-.04.02-.06.03-.03,0-.05.02-.06.04-.1.06-.12.14-.04.23,0,0,.02.02.05.05.02.02.04.05.05.07,0,.03.01.07.01.11s0,.08.01.12c-.03.16-.1.32-.19.47.03.12.07.24.12.35.06.11.11.23.15.35.04.03.08.05.1.08.03.03.06.05.09.06,0,.03.01.04.02.05,0,0,0,.02,0,.04,0,.09.01.17.03.26.02.09.05.17.08.25s.07.15.1.22c.03.07.08.14.13.21.04.03.08.08.1.14.03.06.05.11.06.16ZM12.97,8.16s-.01,0-.01.03c.02-.02.02-.03.01-.03ZM15.73,6.03c-.05-.13-.12-.22-.2-.26-.1-.04-.16-.1-.18-.17,0-.03-.03-.06-.05-.06-.03,0-.05-.02-.08-.03-.03,0-.08,0-.12,0-.05,0-.09.01-.14.02-.05,0-.1,0-.15-.03-.05-.02-.09-.03-.14-.04-.08,0-.15.02-.22.07-.03.03-.06.05-.09.07-.03.02-.05.05-.08.08l-.17.31c.02.05.04.1.06.14.03.04.03.09,0,.16.02.08.04.16.06.24.02.08.05.16.1.24.02.02.03.03.04.03.1.02.19.03.29.03s.19,0,.27-.01c.03,0,.06,0,.08-.01.1-.05.21-.1.35-.14.05,0,.1-.05.14-.12.03-.08.07-.16.1-.25.03-.09.07-.18.12-.27Z"/>
        <path class="cls-1" d="M25.13,5.52s-.01.02,0,.04c0,.02,0,.03,0,.04-.03.06-.05.12-.07.18-.02.06-.05.11-.07.18-.04.12-.1.23-.18.31-.06.09-.12.17-.18.25-.06.08-.11.16-.16.24-.09.07-.18.13-.27.19-.09.06-.19.11-.29.15-.05.02-.09.04-.12.07-.04.05-.1.09-.16.1-.04.02-.09.04-.13.06-.04.02-.09.05-.13.1-.09.03-.17.07-.25.12-.08.04-.17.07-.27.08-.03,0-.05,0-.07,0-.02,0-.05.01-.08.02-.03-.02-.07-.03-.12-.05-.04-.01-.09-.03-.13-.06-.08,0-.16.02-.23.03-.08.01-.16.03-.25.05-.03-.02-.07-.03-.1-.05-.03-.02-.06-.03-.1-.04l-.09-.05s-.06-.01-.1,0c-.03.03-.06.07-.09.12-.03.04-.05.09-.08.14,0,.03-.01.07-.01.1v.09l.05.22c0,.06,0,.11-.03.14-.03.1-.04.19-.01.3.03.11.05.23.05.35,0,.12,0,.24,0,.36-.03.09-.05.18-.05.27s0,.19-.03.29c0,.03,0,.05-.01.06-.07.1-.16.14-.26.14h-.29c-.1,0-.2-.02-.29-.06-.03,0-.06-.01-.09-.01h-.1c-.08,0-.16.01-.23,0-.08,0-.16-.02-.23-.06-.03-.02-.08-.03-.12-.03h-.14s-.02-.03-.03-.03-.01-.01-.01-.02c-.03-.07-.05-.14-.07-.21-.02-.07-.03-.13-.04-.2,0-.04,0-.09-.03-.13-.02-.04-.03-.09-.04-.13,0-.07.01-.14.04-.2.03-.07.04-.13.05-.19,0-.06-.02-.12-.02-.18,0-.06,0-.11,0-.16,0-.05,0-.1-.02-.16s-.03-.11-.05-.17c.02-.03.04-.06.06-.1.02-.04.04-.08.05-.12.02-.06.01-.12-.01-.17-.03-.05-.03-.12-.03-.21.02-.03.03-.07.05-.11.01-.04.03-.08.05-.12-.02-.1-.03-.27-.04-.5,0-.23-.02-.45-.02-.67,0-.22,0-.36,0-.43-.02-.12-.02-.24,0-.34.02-.11.04-.22.08-.33,0-.04.02-.08.03-.11.01-.03.03-.06.05-.1.02-.06.04-.15.06-.25.02-.11.04-.17.05-.18.03-.14.06-.24.06-.29,0-.06.03-.11.06-.16.03-.05.09-.13.18-.24.09-.11.16-.25.23-.42.03-.05.04-.1.05-.14.02-.02.03-.03.04-.04,0,0,.02-.02.03-.03l.09-.18c.08-.16.2-.28.38-.35.05-.02.11-.05.16-.08.06-.04.12-.08.2-.12.11-.03.23-.06.35-.1.12-.04.25-.08.39-.12.05-.02.11-.03.17-.03s.12,0,.18-.01c.04,0,.09.02.13.02.04,0,.09,0,.14,0,.08,0,.15.02.23.03.07,0,.15.03.21.08.03,0,.07.02.11.02.04,0,.08.01.11.02h.19c.07,0,.13,0,.2.03.03.02.08.05.18.09.09.04.14.06.15.06.03.02.06.03.06.05.02.02.03.04.05.07s.04.05.07.06c.12.09.23.18.32.29.09.11.18.22.27.34.04.08.09.13.14.17.03.03.05.05.07.08.02.03.05.06.07.1v.16c0,.06,0,.11.01.16,0,.03,0,.07.02.12.01.04.02.09.03.13,0,.03-.01.1-.01.21s0,.2.01.24c.04.12.04.23,0,.33-.02.05,0,.1.03.16,0,.03.01.1,0,.19,0,.1,0,.16,0,.19ZM23.44,5.03c0-.15-.04-.28-.08-.4-.05-.12-.12-.23-.21-.33-.08-.09-.15-.16-.23-.21-.07-.06-.16-.11-.25-.16-.16-.03-.29-.02-.42.01-.03.03-.1.06-.19.06-.09,0-.15.03-.18.07-.03.07-.08.15-.15.23-.06.08-.11.13-.12.14-.05.11-.08.24-.1.38-.01.14,0,.26.02.36.02.09.03.17.05.25.02.08.03.15.05.22,0,.03,0,.05.03.06.02,0,.03.04.04.1,0,.06.03.1.05.12.02.05.05.08.09.1.04.01.1.04.16.08.03,0,.05,0,.08,0,.03,0,.06,0,.09,0,.07,0,.13,0,.19,0,.06,0,.12.02.18.03.09.04.19.04.31-.01.02-.02.05-.03.08-.05.04-.01.07-.03.08-.06.05,0,.08-.04.08-.08,0-.05.02-.08.03-.1.11-.14.19-.28.23-.42.04-.14.06-.28.07-.41Z"/>
        <path class="cls-1" d="M30.17,7.48c-.04.09-.08.17-.12.26-.03.09-.07.17-.12.26l-.27.26c-.16.18-.36.29-.58.32-.11.02-.23.02-.34.02-.12,0-.24-.02-.36-.06-.07-.02-.14-.04-.21-.07-.07-.03-.15-.06-.21-.1-.05-.03-.11-.05-.17-.06-.06-.01-.13-.02-.2-.03-.03-.02-.06-.04-.09-.06-.03-.02-.07-.05-.12-.07-.06-.1-.13-.2-.21-.29-.08-.09-.15-.19-.19-.32,0-.1,0-.18-.01-.21,0-.04-.03-.12-.08-.24v-.86c0-.07,0-.14,0-.2s-.02-.13-.03-.19c0-.06-.01-.11,0-.16,0-.04.01-.1.02-.16.03-.1.03-.21,0-.33.03-.1.06-.21.09-.31,0-.05-.01-.13-.04-.22-.03-.1-.06-.19-.09-.27-.04,0-.09,0-.13-.01-.04,0-.09-.02-.14-.03-.05.02-.11.03-.16.05-.06.02-.12.03-.19.05-.03.02-.06.03-.12.03,0,0-.02-.01-.05-.03-.02-.02-.03-.04-.03-.05,0-.03-.01-.05-.01-.08v-.08c0-.07-.01-.14-.01-.22v-.22c0-.07,0-.14-.01-.2,0-.07-.02-.13-.04-.19,0-.04.02-.08.03-.12,0-.04.02-.08.03-.11v-.25c0-.07.01-.13.03-.18.02-.05.07-.1.14-.14.05-.02.11-.03.18-.03h.21c.07,0,.14,0,.21,0,.07-.01.14-.05.2-.11.02-.02.04-.03.07-.03h.07c.17,0,.32-.06.46-.21,0-.05.03-.13.08-.22-.03-.06-.05-.13-.06-.2-.02-.07-.04-.15-.06-.21.02-.03.03-.05.05-.08.02-.03.03-.06.04-.09.02-.04.02-.08,0-.12-.02-.04-.02-.07-.01-.1-.02-.04-.03-.07-.03-.09s0-.05-.03-.09c0-.02.02-.04.03-.06,0-.02.02-.04.03-.06,0-.03.02-.06.03-.08,0-.02.02-.05.03-.08h.14s.09.02.14.02c.05,0,.09,0,.14,0,.02,0,.04,0,.06,0,.03,0,.05,0,.08,0,.15.02.29.04.44.07.14.03.28.04.42.04.02,0,.04,0,.06.01.02,0,.04.02.05.03.03.02.06.04.09.06,0,.03-.02.07-.04.1-.02.03-.03.06-.04.08,0,.03-.02.07-.02.12,0,.04-.01.09-.02.13,0,.06-.02.12-.03.18,0,.06-.02.13-.04.21,0,0,.01.03.01.06s0,.06.01.09c0,.06-.02.12-.03.17s-.02.11-.03.18c.11.09.24.16.37.22.13.06.3.12.49.17.1.06.15.16.17.3,0,.2-.01.4-.04.6,0,.08-.02.16-.03.23,0,.08,0,.16,0,.23-.11.07-.25.1-.4.1-.03,0-.05,0-.08.01-.03,0-.05.01-.06.01-.14,0-.25.02-.32.04-.07.02-.19.06-.34.13-.03.03-.04.08-.04.14,0,.05-.02.1-.02.16s0,.11,0,.17c0,0,0,.02-.03.03-.05.1-.09.18-.12.23-.03.05-.04.1-.05.16,0,.05,0,.14,0,.26v.62s0,.07.01.08c0,.08.05.14.12.19.03,0,.07.02.1.03.03,0,.05.03.07.07.08.1.17.16.27.16.1,0,.21-.01.32-.05.03-.02.07-.03.1-.05.03-.02.07-.03.1-.04.07.02.11.06.13.12.02.06.05.11.09.16.04.04.08.09.11.14.03.05.06.1.1.16.02.05.04.11.07.18.03.07.05.14.06.21Z"/>
        <path class="cls-1" d="M36.65,3.83c0,.09-.02.18-.02.27,0,.09-.02.18-.03.27,0,.09-.01.18-.01.28s-.02.2-.05.31c-.02.03-.04.05-.07.08-.03.03-.05.07-.08.11,0,.03,0,.06,0,.09s.01.06.02.09c-.02.04-.04.08-.08.11-.03.03-.07.05-.1.07-.09.03-.17.05-.24.08-.07.03-.15.05-.23.06-.12.02-.25.02-.38,0-.13-.01-.26-.02-.39,0-.11,0-.23,0-.36,0-.13,0-.25,0-.38,0h-.73s-.07.03-.11.03c-.04,0-.08,0-.11.01-.03-.02-.07-.02-.12,0-.04.01-.09.01-.13,0-.03,0-.07.02-.1.02-.03,0-.07.01-.11.02-.03,0-.06-.02-.09-.03-.03-.01-.06,0-.09.02.02.03.04.05.06.08.02.03.04.07.05.11.03.03.05.07.06.1.02.03.03.07.05.12.02.03.03.07.04.11,0,.04.02.08.03.11.04.04.09.09.14.13.05.04.1.09.16.13.04,0,.09.02.14.03.05,0,.09.02.14.03.05,0,.1.02.16.03.05,0,.11,0,.17,0,.06-.02.12-.02.17,0,.05.02.11.04.17.05.08,0,.16-.02.24-.03.08,0,.16-.02.24-.03.03-.03.07-.05.11-.07.04-.02.08-.05.11-.07.11-.03.23-.02.34.01.03.04.06.09.1.13.04.04.08.09.11.14.05.08.1.15.16.23.05.07.09.16.1.25.02.04.04.09.08.13.03.04.06.08.08.12,0,.04,0,.08,0,.12-.01.03-.02.07-.03.12-.03.03-.08.07-.13.09,0,0-.02,0-.03.03,0,.02-.02.03-.04.04-.05.03-.1.07-.16.1-.05.03-.1.07-.14.1-.12.1-.25.16-.38.16-.05,0-.09,0-.12.01-.04,0-.09.03-.13.05-.04.03-.09.05-.14.06-.04,0-.09,0-.13.02-.04.01-.09.02-.13.03-.03,0-.06,0-.09,0-.03,0-.07,0-.1,0-.08,0-.16,0-.23-.01-.08-.02-.16-.03-.23-.03-.03,0-.05-.02-.08-.03-.03,0-.05-.01-.08-.01-.15,0-.29-.02-.42-.07-.13-.06-.26-.11-.39-.18-.1-.03-.18-.07-.22-.14-.06-.07-.13-.13-.2-.18-.07-.05-.15-.09-.24-.12-.05-.02-.1-.04-.16-.07-.05-.03-.11-.06-.17-.1,0-.03-.02-.07-.04-.1-.02-.03-.03-.07-.05-.1-.02-.03-.04-.05-.07-.08s-.06-.05-.08-.08c-.03-.03-.05-.06-.06-.09-.04-.15-.09-.29-.13-.44-.04-.14-.1-.28-.17-.42,0-.06.02-.12.02-.19,0-.06,0-.14-.02-.21,0-.02-.01-.04-.01-.06v-.07s0-.08,0-.11c0-.03,0-.06,0-.08,0-.07-.02-.14-.03-.21,0-.07,0-.13.01-.19.02-.07.03-.14.05-.21.02-.07.04-.14.06-.22,0-.02-.01-.04-.01-.08s0-.07-.01-.1c.02-.1.03-.19.05-.29.02-.1.04-.19.06-.27.03-.05.05-.1.08-.15.03-.05.06-.1.1-.15.06-.1.11-.2.14-.3.1-.05.17-.08.19-.1.02-.01.04-.03.06-.06.02-.03.07-.08.17-.16,0-.03.01-.06.06-.12s.07-.1.05-.13c.08-.15.19-.26.34-.35.05-.03.1-.07.15-.11.05-.04.09-.08.12-.11.04-.03.08-.04.12-.03.04,0,.08,0,.11,0,.03,0,.05-.02.08-.02.03,0,.06-.01.1-.02.02,0,.04-.02.06-.03.03,0,.05-.02.06-.04.02,0,.03-.02.05-.03.02,0,.03-.01.05-.01.08,0,.15-.03.22-.06s.13-.07.19-.1c.13.05.26.07.4.05.09,0,.17,0,.25.01.08.02.16.04.23.07l.18-.05c.07,0,.13.03.19.06.06.03.12.07.18.1h.12s.02.02.03.02c0,0,.02.01.03.02.1.09.19.17.27.24.09.07.18.15.27.23.13.09.21.19.25.31.03.05.06.09.09.12.1.09.2.2.27.35,0,.02,0,.04,0,.07,0,.03,0,.06,0,.08,0,.04,0,.09.03.13.03.04.04.09.05.14ZM35,4.26v-.32s0-.07-.01-.08c0-.03-.02-.05-.03-.08s-.02-.04-.03-.05v-.22l-.04-.04s-.08,0-.13-.03c-.02-.08-.04-.14-.07-.18-.03-.03-.06-.06-.1-.06-.04,0-.09-.02-.14-.04-.11.03-.23.07-.36.09-.13.03-.26.06-.38.1-.06,0-.12.01-.17.01s-.1,0-.16.01c-.09.03-.16.09-.23.16-.06.07-.13.15-.19.21-.03.04-.06.09-.09.14-.03.05-.06.1-.09.14,0,0-.01.03-.01.08.03.07.06.11.12.13.05,0,.1.02.16.04.05.02.11.03.17.05.03,0,.05-.01.07-.01s.05,0,.07-.01c.1-.04.19-.05.26-.01.07,0,.13,0,.19,0,.06,0,.11-.02.18-.03.05.03.11.04.16.05.06,0,.11.02.16.04.11.03.22.05.32.05s.21-.01.31-.04c.04-.04.06-.08.06-.12Z"/>
        <path class="cls-1" d="M42.09,2.93c.02.14,0,.24-.06.3-.04.05-.07.11-.08.17-.01.06-.02.13-.03.19-.02.03-.03.05-.05.08-.01.03-.03.05-.05.08-.03.03-.07.07-.1.12-.03.04-.06.09-.08.13-.02.03-.03.07-.04.12,0,.04-.02.09-.04.13,0,0-.02.02-.02.03,0,.01-.01.02-.02.03,0,0-.02.01-.03.01s-.02,0-.03.01h-.07c-.19-.08-.38-.08-.56-.01-.04,0-.07.01-.09.01h-.09s-.05.01-.07.01-.04,0-.06.01c-.1.04-.2.1-.27.17-.08.07-.15.14-.22.22-.03.1-.07.21-.11.32-.04.11-.06.23-.06.36,0,0,0,.02-.01.05,0,.02-.02.04-.03.06,0,.03-.02.06-.03.08-.01.02-.03.05-.05.08-.02.05-.04.1-.06.16s-.05.1-.06.16c.02.06.02.12,0,.17-.02.05-.03.1-.03.16.02.08.02.15,0,.21-.01.06-.03.13-.05.2-.03.08-.04.16-.03.24,0,.08,0,.16,0,.24,0,.1-.01.19,0,.3,0,.1,0,.2,0,.3,0,.06,0,.13-.01.19,0,.07-.01.14-.01.21-.03.05-.05.09-.06.1-.06.1-.13.16-.22.2-.09.04-.18.05-.29.05-.07,0-.14-.02-.21-.03-.07,0-.15-.02-.21-.03-.04,0-.08-.02-.13-.03s-.1-.03-.14-.05c-.04,0-.06.02-.08.02-.02,0-.05.01-.07.02-.11-.03-.22-.1-.31-.19,0-.06.01-.12.01-.18s0-.12.01-.18c0-.03-.02-.06-.02-.1,0-.04-.02-.08-.03-.11,0-.05-.02-.1-.04-.16-.02-.05-.02-.11-.01-.17,0-.13-.03-.28-.08-.45.02-.02.03-.04.05-.07.01-.03.02-.06.03-.08s.02-.05.02-.07c0-.02,0-.05,0-.07,0-.02,0-.03.01-.05,0-.01,0-.03-.01-.05,0-.03-.02-.05-.02-.08,0-.03-.01-.06-.02-.08,0-.09,0-.17,0-.26,0-.03.01-.07.02-.1,0-.03.01-.06.02-.1.02-.04.02-.09.02-.14,0-.05-.03-.1-.07-.13,0,0-.02-.02-.02-.03,0-.01-.02-.02-.03-.03,0-.04-.02-.09-.02-.14,0-.05-.02-.1-.03-.14,0-.06-.02-.12-.03-.17-.01-.05-.02-.11-.02-.17.02-.1.02-.21.01-.31,0-.1,0-.2.03-.31,0-.02,0-.04,0-.06s0-.05,0-.07c0-.1-.02-.19-.02-.29,0-.1.01-.19.05-.29.02-.03.03-.07.03-.12v-.13c0-.08,0-.15,0-.23,0-.07.02-.15.06-.21,0-.03-.01-.07-.04-.13.02-.04.03-.09.05-.14.01-.05.02-.09.03-.14.02-.04.03-.08.04-.12,0-.04.02-.08.03-.11.05-.05.1-.07.14-.07.09.03.18.03.27,0,.09-.02.18-.03.27-.02.03,0,.05,0,.08-.02.03-.01.05-.02.08-.03.15-.04.27-.04.36.01.06.1.1.18.1.23,0,.05.02.18.03.38.03.1.07.19.14.27.02.02.05.03.08.03.04,0,.07,0,.08-.02.03-.03.06-.05.09-.07.03-.02.05-.05.08-.08.05-.04.1-.09.15-.14.05-.05.09-.09.12-.12.1-.04.19-.09.28-.13.09-.04.19-.09.31-.13h.33s.02-.02.02-.02c0,0,.01,0,.02,0h.04c.1.04.19.05.27.03.14-.04.27-.03.4.05.08.03.15.07.22.1.07.03.14.07.22.12.03.03.06.07.09.1.03.03.06.07.09.1Z"/>
        <path class="cls-1" d="M44.76,7.63c0,.06-.02.12-.03.19,0,.06-.02.13-.04.19,0,.1-.03.19-.06.28-.03.09-.08.17-.15.24-.02.03-.03.05-.05.07-.02.02-.03.04-.05.06-.03.03-.07.06-.12.08-.04.02-.1.04-.17.06-.06,0-.13,0-.19,0-.07,0-.15,0-.23,0-.15,0-.27-.06-.36-.17-.03-.04-.07-.09-.11-.14-.04-.05-.08-.1-.12-.16,0-.05-.02-.1-.04-.16-.02-.05-.03-.1-.04-.16-.02-.1-.02-.2-.01-.3,0-.1.04-.19.1-.27,0,0,.02-.02.03-.03,0,0,.02-.02.03-.03.07-.07.15-.13.23-.19.08-.06.18-.1.28-.12.03,0,.06-.02.1-.02.04,0,.08-.01.12-.02.04,0,.09,0,.13,0,.04,0,.09-.01.14-.02.15.08.27.16.38.25.11.09.19.2.24.35Z"/>
        <path class="cls-1" d="M50.71,7.18c0,.06-.02.13-.03.2-.01.07-.02.15-.03.21,0,.09-.02.17-.03.25,0,.08,0,.17,0,.27.02.03.02.05,0,.08,0,.05-.02.09-.05.12s-.04.06-.06.09v.05s0,.05-.01.07c-.04.03-.08.07-.12.1-.05.03-.09.06-.14.1-.08,0-.12.02-.13.03,0,.01-.05.01-.12,0-.03,0-.04,0-.05.01,0,0,0,.02-.03.02-.02,0-.03,0-.04,0,0,0-.02,0-.03,0,0,0-.02,0-.04,0-.03,0-.05,0-.08.01-.03,0-.05.02-.06.03-.04,0-.08.02-.1.03-.02,0-.05.02-.1.03-.04,0-.09,0-.14,0-.05,0-.1,0-.15,0-.04,0-.09,0-.14,0-.05-.01-.09-.02-.14-.03-.02,0-.03,0-.05-.01s-.04-.01-.06-.01c-.02,0-.04,0-.07.01-.03,0-.05.01-.07.01-.03,0-.05-.02-.07-.03-.02,0-.05-.02-.08-.03-.02,0-.04-.02-.06-.02-.03,0-.06-.01-.09-.02-.11.02-.21.04-.31.06-.09.02-.18.04-.28.06-.09-.02-.16-.05-.21-.1-.05-.05-.1-.1-.14-.16-.06-.02-.12-.02-.17,0-.05.02-.1.04-.16.06-.04,0-.09.02-.14.03-.05,0-.09.02-.14.03-.05,0-.1,0-.16,0-.05,0-.1,0-.16-.02,0-.02-.02-.03-.03-.04,0,0-.01-.02-.01-.04-.03-.17-.09-.31-.18-.42,0-.02-.02-.03-.02-.05,0-.01-.02-.02-.03-.03,0-.05,0-.1.03-.16.03-.05.04-.1.02-.16l-.05-.31.13-.27s0-.06-.01-.1c0-.04-.01-.08-.01-.12.02-.02.03-.04.04-.07s.02-.05.03-.06c.1,0,.17-.01.23-.04.04,0,.08-.02.12-.03.04,0,.08-.02.12-.03.05.02.1.03.14.03.14-.02.25-.06.33-.14v-.12s0-.08.01-.12c0-.03.01-.05.02-.08,0-.03.01-.06.02-.1.06-.18.09-.38.09-.6,0-.11.01-.23.04-.34.03-.08.04-.15.04-.23v-.2c0-.12-.01-.24,0-.34,0-.11.01-.22.02-.33,0-.04,0-.09,0-.13,0-.04.01-.08.02-.12.02-.04.02-.09.01-.13,0-.04-.01-.09-.01-.14.02-.03.03-.05.05-.08.02-.03.03-.06.04-.09,0-.02,0-.04,0-.08,0-.03,0-.07,0-.1.02-.05.03-.11.05-.16.02-.06.03-.11.05-.18,0-.08-.03-.13-.06-.17-.03-.03-.08-.06-.14-.06-.06,0-.12,0-.19-.03-.06-.02-.13-.03-.19-.04-.25.03-.51.1-.78.2h-.06c-.09-.08-.13-.17-.13-.29,0-.05,0-.1,0-.16.01-.05,0-.1-.02-.16.03-.03.05-.07.06-.1.02-.03.03-.05.04-.07.02-.03.02-.06.01-.09s0-.05,0-.08c0-.02,0-.03.02-.05.01-.02.02-.04.03-.06,0-.02-.02-.04-.03-.07-.01-.03-.03-.06-.05-.1,0-.03.02-.07.03-.11,0-.04.02-.08.03-.12-.02-.04-.04-.08-.05-.11-.02-.03-.03-.06-.05-.1.02-.04.02-.09.01-.14,0-.05,0-.1,0-.15.02,0,.03-.02.05-.03.01,0,.03-.02.05-.03.15-.08.3-.15.46-.2.16-.06.32-.11.49-.18.03,0,.05-.02.08-.03.03,0,.06-.01.09-.01.1,0,.19-.01.29-.03.1-.02.2-.05.29-.07s.2-.04.3-.04c.06,0,.12,0,.18,0,.06,0,.11,0,.18,0h.11s.06,0,.08.01c.08.02.15.03.22.05.07.01.14.02.22.02.03,0,.07,0,.1,0,.03,0,.06,0,.1,0,.1,0,.19.02.28.05.09.02.18.04.28.06.04.03.06.06.06.12,0,.23,0,.47.01.7,0,.23-.01.46-.06.7.02.13,0,.25-.04.36-.04.11-.09.22-.13.33,0,.06,0,.12-.01.19,0,.06-.01.13-.01.2.02.09.02.18,0,.27-.02.1-.04.19-.07.27,0,.03.02.07.02.09s0,.06,0,.1c0,.03,0,.06-.01.08-.04.06-.07.13-.08.21s-.02.16-.03.23c0,.03-.01.05,0,.08,0,.03,0,.05,0,.07-.02.05-.02.1,0,.15.02.05.03.09.02.14,0,.04-.02.09-.04.14-.02.05-.03.09-.04.14v.12c0,.05.01.1.01.16s0,.1.01.16v.17c0,.05,0,.11-.01.17,0,.1,0,.18,0,.22,0,.04.04.13.1.25,0,.03-.02.07-.03.1,0,.03-.02.07-.04.12.02.07.04.13.06.18.04.03.09.04.13.01s.09-.03.13-.01c.05.03.11.05.16.08.06.03.11.05.18.05.05.03.1.05.16.08.05.03.1.07.14.11,0,.03,0,.05,0,.06,0,.02,0,.04,0,.07Z"/>
      </g>
    </g>
  </g>
</svg>