<?xml version="1.0" encoding="UTF-8"?>
<svg xmlns="http://www.w3.org/2000/svg" viewBox="0 0 159.45 151.68">
  <defs>
    <style>
      .cls-1 {
        fill: #4d4d4d;
      }

      .cls-2 {
        isolation: isolate;
      }

      .cls-3 {
        fill: #9eb3bc;
        mix-blend-mode: multiply;
      }
    </style>
  </defs>
  <g class="cls-2">
    <g id="_レイヤー_2" data-name="レイヤー 2">
      <g id="_編集箇所" data-name="編集箇所">
        <g>
          <g>
            <path class="cls-1" d="M16.74,46.05c-1.2.4-2.35.16-3.46-.73-.91-.71-1.54-1.61-1.9-2.68-.39-1.17-.6-2.32-.61-3.46-.01-1.14.13-2.25.43-3.34.69-2.34,2.03-3.84,4.02-4.51.69-.23,1.34-.16,1.94.22.6.38.95.87,1.05,1.47.15.97-.03,1.54-.53,1.71-.22.07-.37,0-.44-.22-.04-.13-.04-.27.01-.43l-.05.02c.07-.2.07-.43-.02-.68-.12-.35-.37-.6-.76-.77-.39-.17-.76-.19-1.11-.08-1.39.47-2.29,1.77-2.69,3.91-.36,1.84-.26,3.62.31,5.32.29.85.76,1.52,1.41,2,.72.57,1.49.71,2.31.44,1.39-.47,2.54-1.4,3.44-2.79.08-.17.22-.28.41-.35.32-.11.54.03.67.41.08.25.06.51-.06.76-.73,1.79-2.19,3.06-4.37,3.79Z"/>
            <path class="cls-1" d="M26.22,43.19c-1.01.34-2,.23-2.96-.32-.88-.51-1.47-1.23-1.77-2.15-.57-1.71-.41-3.78.49-6.23.36-1.03.79-1.99,1.31-2.86.51-.88,1.08-1.7,1.7-2.47.13-.15.33-.27.62-.36.92-.31,1.45-.24,1.6.2.04.13,0,.3-.14.52l.02.05c.7.5,1.4,1.04,2.12,1.61.72.57,1.24,1.34,1.57,2.32.28.82.34,1.73.2,2.73-.14,1-.44,1.98-.9,2.97-.46.98-1.03,1.83-1.7,2.55-.67.72-1.39,1.2-2.15,1.46ZM25.77,41.7c.78-.3,1.51-.9,2.18-1.81.68-.91,1.19-1.92,1.54-3.02.35-1.1.41-2.05.18-2.85-.35-1.25-1.45-2.43-3.3-3.53-1.03,1.44-1.84,2.99-2.44,4.67-.69,2.02-.82,3.68-.38,4.98.47,1.39,1.2,1.91,2.22,1.57Z"/>
            <path class="cls-1" d="M38.54,39.05c-1.01.34-2,.23-2.96-.32-.88-.51-1.47-1.23-1.77-2.15-.57-1.71-.41-3.78.49-6.23.36-1.03.79-1.99,1.31-2.86.51-.88,1.08-1.7,1.7-2.47.13-.15.33-.27.62-.36.92-.31,1.45-.24,1.6.2.04.13,0,.3-.14.52l.02.05c.7.5,1.4,1.04,2.12,1.61.72.57,1.24,1.34,1.57,2.32.28.82.34,1.73.2,2.73-.14,1-.44,1.98-.9,2.96-.46.98-1.03,1.83-1.7,2.55-.67.72-1.39,1.2-2.15,1.46ZM38.09,37.56c.78-.3,1.51-.9,2.18-1.81.68-.91,1.19-1.92,1.54-3.02.35-1.1.41-2.05.18-2.85-.35-1.25-1.45-2.43-3.3-3.53-1.03,1.44-1.84,2.99-2.44,4.67-.69,2.02-.82,3.68-.38,4.98.47,1.39,1.2,1.91,2.22,1.57Z"/>
            <path class="cls-1" d="M51.46,37.5c-1.06.39-2.17-.1-3.31-1.47-1.15-1.37-2.25-3.64-3.31-6.8-.6-1.8-1.13-3.86-1.58-6.19-.45-2.33-.82-4.93-1.12-7.82-.85-7.66-.19-11.85,1.99-12.58.85-.29,1.73.28,2.63,1.7.68,1.07,1.13,2.1,1.35,3.08.71,3.17.31,7.98-1.21,14.43-.14.33-.29.75-.45,1.26-.16.51-.35,1.12-.57,1.83.18.75.36,1.48.55,2.19.19.71.39,1.38.6,2.01.38,1.14.87,2.27,1.46,3.41.97,1.75,1.81,2.5,2.5,2.27.66-.22,1.18-.87,1.56-1.95l.63-2.69c.07-.31.24-.5.49-.59.32-.11.53,0,.63.31.02.06.03.13.04.2,0,.07,0,.14,0,.21-.08.91-.17,1.68-.25,2.32-.08.64-.18,1.16-.3,1.55-.47,1.84-1.24,2.95-2.32,3.31ZM44.87,5.03c-1.86,1.68-1.74,7.44.37,17.27.06-.13.14-.36.24-.71,1.83-6.17,2.25-10.74,1.25-13.7-.07-.22-.17-.46-.29-.72-.12-.26-.27-.55-.45-.88-.48-.79-.85-1.21-1.11-1.26Z"/>
            <path class="cls-1" d="M56.89,23.08c-.63.21-1.08-.08-1.35-.87-.03-.09-.07-.21-.11-.33-.04-.13-.07-.27-.1-.44-.09-.46-.14-.88-.15-1.24-.02-.36-.03-.61-.04-.75,0-.95.13-1.67.41-2.17.27-.5.6-.92.99-1.28.39-.36.72-.81.99-1.36.46-.61.85-1.22,1.16-1.81.31-.6.57-1.16.78-1.68.22-.71.37-1.35.46-1.92.09-.57.05-1.11-.12-1.62-.69-2.05-1.65-3.51-2.89-4.38-1.24-.87-2.62-1.04-4.13-.54-.6.2-1.14,1.16-1.62,2.86-.01.18-.03.5-.05.96-.02.46-.1,1.05-.25,1.77-.13.25-.28.41-.47.48-.32.11-.63.01-.94-.29-.31-.3-.48-.64-.5-1.02-.08-1.59.09-2.88.5-3.86.77-1.8,1.64-2.87,2.62-3.2.35-.12.79-.23,1.33-.34.54-.11,1.38-.04,2.52.21,2.46.51,4.37,2.82,5.75,6.92.35,1.36.14,3.1-.62,5.22-.17.44-.45,1.01-.85,1.71-.4.7-.9,1.5-1.51,2.41-.18.2-.4.49-.66.85-.26.37-.56.85-.88,1.46-.09.24-.15.45-.16.61-.02.16-.02.3-.02.4.01.14.18.78.49,1.94.13.69-.06,1.13-.57,1.3ZM59.21,32.79c-.92.31-1.63-.37-2.15-2.02l.02.05c-.18-.64-.22-1.28-.11-1.91.1-.63.33-1.01.68-1.12.92-.31,1.59.34,2.03,1.96.46,1.78.31,2.8-.45,3.05Z"/>
          </g>
          <path class="cls-1" d="M.6,42.66s-.03,0-.03,0c0,0-.03-.18-.03-.18,0,0,0,0,0,0,0,0,0,0,0,0h.01s.01,0,.01,0h0s0,0,0,0c0,0,.03.18.03.18,0,0-.03,0-.03,0,0,0,.07-.06.07-.06-.64,2.72.25,5.62.93,8.23,1.55,5.37,7.44,8.23,12.61,8.75,2.81.25,5.63.55,8.32.3,4.02-.53,8.17-2.11,11.8-4.04,1.23-.7,2.31-1.68,3.58-2.32,2.57-1.35,5.31-2.1,8.03-2.99,2.06-.58,4.42-.85,6.49-.1,1.43.48,3.06.93,3.82,2.43.87,2.34,3.02,6.35-.62,7.41-2.84.68-3.09-2.92-2.8-4.83.18-7.58,9.25-9.16,14.71-11.64,3.99-1.56,7.03-4.1,8.84-7.94,2.35-3.6,3.86-7.34,4.7-11.59.5-1.98.85-4.16,0-6.07-.31-.61-.73-1.19-1.2-1.7-.08-.07.04-.2.12-.13,2.43,1.89,2.56,5.29,1.95,8.07-.46,2.8-1.02,5.67-2.24,8.34-1.4,2.67-2.49,5.1-4.22,7.59-4.7,5.91-12.84,6.17-18.61,10.28-1.58,1.17-2.39,3.04-2.47,4.95-.06.96-.34,2.67.35,3.24.16.14.87.03,1.2-.26.75-.71.24-2.29-.08-3.28-.24-.67-.39-1.44-.62-1.98-.5-1.16-1.97-1.63-3.12-2.08-1.97-.8-4.03-.65-6.07-.14-2.69.79-5.47,1.56-7.91,2.91-1.26.67-2.27,1.67-3.48,2.43-3.72,2.25-7.62,4.06-11.99,4.88-5.83.46-11.96.15-16.88-3.19C1.79,55.89.24,51.18.06,46.82c-.09-1.42-.18-3.07.51-4.34,0,0,.03,0,.03,0,0,0,.03.18.03.18,0,0,0,0,0,0,0,0,0,0,0,0,0,0-.01,0-.01,0h-.01s0,0,0,0c0,0,0,0,0,0,0,0-.03-.18-.03-.18.12-.04.18.14.06.17h0Z"/>
          <path class="cls-3" d="M99.26,44.43l10.71,1.99s6.09,10.74,5.99,15.43c-.1,4.69.26,7.55.26,7.55,0,0,4.47-6.4,5.19-8.25.72-1.85,7.76-9.64,7.76-9.64l3.9-.13s9.26,4.12,8.03,6.25c-1.23,2.13.21,2.6.21,2.6,0,0,13.19,8.68,12.73,18.34-.46,9.66-.42,32.32,1.36,39.82,1.78,7.5,4.02,19.93,4.05,20.97.03,1.04-.79,7.58-.79,7.58l-13.97,3.07.06-13.81-3.5-11.09-2.06-15.04-1.09-16.93s-2.27,17.82-2.97,28.01c-.7,10.19-1.33,30.53-1.33,30.53,0,0-30.37-4.46-32.75-5.42-2.38-.96-14.49-4.73-18.98-6.66-4.49-1.93-12.03-1.42-12.03-1.42,0,0,7.25-9.1,7.04-15.35s2.94-21.2,2.94-21.2l5.49-15.04,1.89-12.57s-17.41,39.41-20.59,45.5c-3.18,6.1-11.96,16.29-11.96,16.29l-10.43-7.73s4.52-5.1,5.58-12.43c1.06-7.33,7.65-12.76,9.04-18.02s3.46-13.4,7.96-19.03c4.5-5.62,10.78-12.61,12.73-16.84s8.45-12.27,10.01-12.32c1.56-.05,9.67-.32,9.67-.32l-.16-4.69Z"/>
          <g>
            <path d="M97.6,42.21c.7,5.42,1.9,10.8,3.31,16.08.4,1.49.79,2.99,1.24,4.47.04.15.12.35.3.28,3.07-1.09,6.15-2.15,9.22-3.24l-.23-.07c1.76,2.25,2.6,5.22,2.03,8.05-.06.3-.1.74.11.99.2.24.39-.05.44-.26.65-3.19.66-6.45.25-9.67-.16-1.26-.38-2.5-.6-3.75-.12-.67-.24-1.34-.46-1.99-.31-.93-.72-1.83-1.13-2.72s-.85-1.87-1.27-2.81c-.45-1.01-.93-2.01-1.48-2.97-.46-.8-.97-1.63-1.7-2.21-.44-.34-.92-.39-1.46-.48-.94-.16-1.88-.32-2.83-.45-1.87-.26-3.8-.48-5.68-.21-.47.07-.47,1.51,0,1.51,1.62-.02,3.23.03,4.84.22.81.09,1.61.21,2.41.33.4.06.8.12,1.2.18.27.04.63.06.86.14.71.23,1.22,1.02,1.61,1.61.56.85,1.01,1.77,1.44,2.69.36.77.69,1.56,1.05,2.33.48,1.05.99,2.09,1.41,3.17.06.15.11.3.17.45.06.17-.01-.05.04.12.03.09.05.17.08.26.08.28.15.56.2.84,0,.03.01.06.02.09.03.15-.02-.12,0-.01.01.07.03.15.04.22.04.2.07.41.1.61.1.58.21,1.17.3,1.75.54,3.33.72,6.72.04,10.04l.55.73c.69-3.45-.07-7.17-2.27-9.95-.07-.09-.13-.1-.23-.07-3.07,1.12-6.13,2.26-9.2,3.37l.3.28c-.79-2.58-1.55-5.15-2.2-7.77s-1.25-5.25-1.76-7.89c-.29-1.48-.57-2.97-.85-4.45-.05-.28-.21.04-.19.18h0Z"/>
            <path d="M113.93,68.37c2.32-2.36,3.95-5.28,5.71-8.07.86-1.36,1.76-2.7,2.79-3.95s2.18-2.31,3.46-3.28c1.08-.82,2.19-1.59,3.33-2.32.32-.21.64-.41.96-.61.05-.03.1-.08.15-.1-.12.03,0,.02.04.03.06.02.13.02.19.04.67.15,1.31.43,1.94.7.93.41,1.84.92,2.71,1.44.97.58,1.93,1.22,2.74,2.01.34.33.66.7.9,1.1-.02-.04.08.15.1.2.02.04.11.3.07.16.02.06.06.33.04.13,0,.04,0,.09.02.13-.03-.22,0-.04,0,.02l.23-.7c-2.55,1.04-5.07,2.4-7.09,4.29-2.2,2.05-4.82,3.5-7.27,5.21-1.41.98-2.74,2.08-3.92,3.33l.49.45c-.29-2.03-1.32-3.9-2.99-5.12-.06-.04-.13-.04-.19,0-1.79.91-3.34,2.42-4.61,3.96-.2.24-.2.68-.14.96.02.11.18.65.4.45.72-.67,1.39-1.4,2.12-2.06s1.54-1.25,2.42-1.71h-.19c1.3.91,2.29,2.34,2.54,3.92.03.21.19.78.49.45,2-2.22,4.55-3.73,7.02-5.37,1.25-.83,2.47-1.7,3.59-2.69.53-.47,1.03-.96,1.59-1.39s1.14-.82,1.74-1.18c1.33-.81,2.73-1.52,4.18-2.11.21-.08.23-.53.23-.7.05-2.01-1.8-3.45-3.31-4.45-.89-.59-1.83-1.15-2.82-1.56-.8-.33-1.58-.71-2.41-.98-.26-.08-.53-.19-.8-.21-.2-.02-.32.1-.49.2-.99.62-1.96,1.27-2.91,1.94-1.29.92-2.55,1.89-3.66,3.03-1.16,1.19-2.17,2.53-3.09,3.92-2.18,3.27-3.94,6.81-6.45,9.85-.11.14-.06.8.15.59h0Z"/>
            <path d="M98.28,46.35c-3.9-.66-8.09-1.36-11.85.3-1.77.79-3.28,2.05-4.6,3.45-1.41,1.49-2.65,3.14-3.85,4.81-2.59,3.58-4.9,7.36-7.21,11.12-1.07,1.75-2.1,3.53-3.28,5.21-1.06,1.51-2.21,2.97-3.34,4.44s-2.33,3.04-3.39,4.64-1.86,3.16-2.56,4.87c-1.68,4.14-2.95,8.43-4.77,12.51-.89,2-1.89,3.95-2.97,5.85s-2.19,3.56-3.05,5.48-1.5,3.76-2.16,5.67-1.34,3.75-2.05,5.61c-.33.87-.68,1.76-1.18,2.55-.25.4-.55.75-.86,1.1-.42.47-.5,1.18-.31,1.77.15.49.57.83.94,1.17s.72.63,1.1.91c.76.57,1.58,1.06,2.43,1.5,1.72.89,3.53,1.55,5.35,2.19.49.17.98.4,1.48.15.45-.22.82-.7,1.18-1.05.81-.79,1.65-1.56,2.43-2.38.39-.42.72-.9,1.03-1.38.25-.39.31-1.22-.09-1.54-.44-.36-.91-.7-1.4-.99-.35-.21-.71-.31-1.1-.43-.51-.16-1.01-.37-1.49-.6-1.96-.94-3.68-2.31-5.61-3.3-.46-.23-.92-.45-1.39-.65-.27-.12-.53-.18-.82-.23-.23-.04-.52-.04-.74-.11-.39-.13-.46,1.02-.14,1.13.45.15.84.53,1.26.75s.89.4,1.33.61c.95.46,1.84,1.02,2.73,1.59s1.83,1.17,2.79,1.67c.48.25.97.47,1.47.65.41.15.85.23,1.24.42.59.3,1.14.71,1.66,1.13l-.09-1.54c-.92,1.44-2.2,2.55-3.41,3.74-.19.19-.38.38-.58.57-.17.17-.37.37-.61.42-.44.1-.99-.21-1.4-.35-.9-.31-1.79-.63-2.67-.99-1.74-.7-3.44-1.54-4.92-2.69-.37-.29-.73-.59-1.07-.92-.07-.07-.14-.14-.21-.21-.18-.2-.15-.33-.15.16,0,.45-.04.38.12.2.09-.1.18-.19.26-.29.61-.72,1.06-1.56,1.44-2.42s.68-1.76,1.02-2.64.68-1.82,1-2.74c.65-1.88,1.28-3.78,2.02-5.63.37-.91.76-1.81,1.2-2.69s.98-1.73,1.49-2.59c1.11-1.86,2.15-3.75,3.09-5.7,1.91-3.94,3.24-8.09,4.76-12.19.67-1.81,1.35-3.63,2.31-5.31.91-1.57,1.97-3.05,3.06-4.5s2.29-2.97,3.41-4.46,2.07-2.94,3.02-4.48c2.28-3.72,4.52-7.46,6.96-11.08,1.2-1.78,2.45-3.52,3.78-5.2,1.18-1.48,2.44-2.92,3.96-4.06s3.3-1.92,5.21-2.23,3.95-.32,5.93-.19c.96.06,1.92.15,2.87.25.23.02.26-.76,0-.8h0Z"/>
            <path d="M55.47,127.79c1.36-1.34,2.42-3,3.37-4.65s1.85-3.44,2.74-5.18c.94-1.84,1.98-3.62,3.01-5.41.52-.91,1.02-1.82,1.45-2.77s.83-1.99,1.21-2.99c.76-1.96,1.48-3.93,2.3-5.86.42-.98.88-1.96,1.37-2.91s1.07-1.89,1.62-2.82c2.21-3.73,4.02-7.68,5.89-11.59.91-1.89,1.79-3.8,2.87-5.6s2.26-3.35,3.58-4.88c.16-.19.36-.37.51-.58.17-.24.3-.53.44-.79.09-.16.12-1.17-.25-.98-.19.1-.4.18-.56.34-.18.18-.34.39-.51.58-.33.39-.66.79-.97,1.2-.62.81-1.2,1.65-1.75,2.51-1.13,1.77-2.08,3.63-2.98,5.53-1.88,3.96-3.65,7.98-5.71,11.85-1.03,1.94-2.18,3.8-3.1,5.8s-1.64,3.89-2.39,5.86-1.48,4.04-2.46,5.94-2.1,3.65-3.06,5.52c-1.81,3.5-3.44,7.13-5.82,10.3-.3.4-.61.79-.91,1.18-.07.09-.04.54.1.39h0Z"/>
            <path d="M85.49,71.29c-.2,2.04-.51,4.05-1.03,6.03s-1.21,3.99-1.96,5.93c-1.52,3.93-3.34,7.73-4.76,11.7-.7,1.96-1.33,3.94-1.77,5.98-.51,2.35-.78,4.74-1.08,7.13-.56,4.53-1.43,9-2.66,13.41s-2.79,8.66-4.68,12.79c-.24.52-.49,1.05-.74,1.56-.11.22-.11.54-.06.77.03.13.1.44.28.43,2.19-.02,4.38.25,6.51.8s4.12,1.44,6.09,2.4,3.8,1.93,5.83,2.56c1.82.56,3.72.77,5.62.92,1.11.09,2.23.14,3.34.22.52.03,1.04.07,1.56.11.26.02.51.06.77.04s.55-.09.8-.06c.3.04.35-1.03,0-1.08-.21-.03-.45-.14-.65-.2-.23-.07-.44-.11-.67-.13-.48-.04-.96-.08-1.44-.11-.97-.06-1.94-.11-2.91-.18-1.92-.13-3.86-.29-5.72-.77-2.02-.52-3.91-1.5-5.77-2.41s-3.91-1.87-5.99-2.49c-2.38-.71-4.86-1.05-7.35-1.03l.22,1.21c2.01-4.16,3.68-8.49,5.03-12.91s2.32-8.94,2.94-13.51c.33-2.38.55-4.77.94-7.14.36-2.12.91-4.2,1.6-6.24,1.35-4.05,3.13-7.95,4.68-11.93s2.89-7.96,3.23-12.16c.04-.52.05-1.03.05-1.55,0-.22-.19-.37-.22-.07h0Z"/>
            <path d="M137.15,57.33c1.31.66,2.56,1.43,3.76,2.27s2.29,1.79,3.29,2.84c2.14,2.23,3.77,4.9,5.05,7.7.68,1.47,1.24,3.01,1.52,4.61s.35,3.3.38,4.96c.07,3.43.13,6.86.19,10.29.12,6.84.18,13.68.48,20.51s.87,13.7,2.19,20.45c.32,1.63.71,3.24,1,4.87.07.4.14.8.19,1.21,0,.06.07.29.04.34,0-.01,0-.12,0-.13.04-.28.14-.26-.02-.15-.07.05-.16.09-.24.12-.73.33-1.49.61-2.25.88-3.05,1.09-6.21,1.79-9.43,2.12-.79.08-1.58.14-2.37.19-.28.02-.39.49-.41.7-.15,1.58-.08,3.16.23,4.71.14.72.35,1.42.6,2.11.22.6.51,1.23,1.25,1.17.7-.06,1.39-.21,2.09-.3.56-.07,1.13-.14,1.7-.2,1.03-.11,2.07-.21,3.1-.33,1.27-.14,2.56-.29,3.81-.54.95-.19,2.02-.55,2.34-1.55.18-.56.25-1.15.32-1.73.11-.87.18-1.75.23-2.63s.08-1.75.04-2.63c-.03-.7-.04-1.6-.46-2.2-.24-.35-.5.11-.56.33-.1.39-.1.93.15,1.28.07.1-.07-.14-.03-.06-.14-.32,0-.02.02.05-.09-.28-.04-.15-.03-.1,0,.04.02.08.03.12.04.15-.03-.23,0-.03.01.12.03.24.04.36,0,.04.02.28,0,.09s0,.08,0,.13c.03.71.02,1.43-.02,2.14,0,.09,0,.18-.01.27,0,.03-.02.33,0,.18,0-.14,0,0,0,.04,0,.06,0,.11-.01.17,0,.1-.01.2-.02.3-.03.37-.06.73-.1,1.1-.03.32-.07.65-.12.97-.02.14-.04.27-.06.41-.02.15.05-.23,0-.02-.01.06-.02.11-.04.17-.02.09-.05.17-.07.26-.02.11.09-.21.03-.08-.06.12.04-.06.04-.06-.03,0-.36.3-.42.34-.23.14-.49.25-.76.33-.56.17-1.16.23-1.73.32s-1.18.17-1.78.24c-1.97.25-3.96.4-5.93.67-.35.05-.7.1-1.04.15-.29.04-.74.19-1.03.1-.25-.08-.3-.43-.38-.65-.1-.29-.19-.59-.27-.9-.18-.68-.29-1.36-.35-2.07-.05-.58-.03-1.33.02-1.94l-.41.7c3.32-.18,6.62-.77,9.81-1.72.79-.24,1.59-.47,2.37-.74.38-.13.76-.27,1.14-.42s.77-.26,1.11-.46c.83-.48.75-1.65.63-2.46-.13-.92-.31-1.84-.5-2.75-.34-1.66-.73-3.31-1.04-4.97s-.58-3.39-.8-5.1c-.45-3.41-.77-6.86-.97-10.29-.4-6.97-.47-13.96-.63-20.94-.08-3.56-.16-7.12-.24-10.69s-.08-7.01-1.24-10.35c-1.04-2.98-2.65-5.82-4.64-8.26-.95-1.16-2.01-2.22-3.16-3.17s-2.31-1.77-3.61-2.37c-.65-.3-1.31-.56-1.98-.79-.17-.06-.19.42-.06.48h0Z"/>
            <path d="M140.95,141.48c.2-.6.25-1.13.28-1.76.03-.81.04-1.63.02-2.44-.04-1.65-.13-3.33-.45-4.95-.19-.94-.54-1.85-.83-2.77-.37-1.17-.72-2.34-1.05-3.52s-.62-2.39-.87-3.6c-.15-.74-.25-1.21-.32-1.97-.03-.3-.05-.61-.07-.91-.01-.16-.02-.31-.03-.47.01.2,0-.05,0-.11,0-.11-.01-.22-.02-.34-.04-.8-.06-1.59-.08-2.39-.04-1.67-.07-3.34-.08-5-.03-3.58-.06-7.16-.28-10.74-.3-4.77-1.02-9.53-1.9-14.23-.11-.59-.35-1.17-.5-1.76-.04-.16-.15-.39-.34-.25s-.18.53-.16.72c.1.73.12,1.47.26,2.18.11.58.22,1.16.32,1.75.21,1.2.43,2.4.61,3.6.34,2.26.62,4.53.82,6.81.32,3.6.38,7.22.41,10.88.02,3.22.06,6.44.27,9.65.1,1.58.39,3.09.76,4.63.56,2.39,1.28,4.74,2.06,7.07.14.41.3.82.41,1.24.03.12.06.25.08.38s0,.01,0-.01c0,.04.01.08.02.12.02.09.03.18.04.27.12.78.2,1.56.26,2.34.12,1.5.14,3.19.18,4.68,0,.27.03.48.03.75,0,.07.1.34.16.15h0Z"/>
            <path d="M134.31,84.89c.48,2.44.57,5,.15,7.46-.14.79-.35,1.76-.54,2.64-.22,1.02-.45,2.03-.67,3.04-.43,1.97-.85,3.93-.97,5.94-.17,2.89.03,5.79-.02,8.69-.11,5.76-.68,11.51-1.26,17.24-.15,1.47-.23,2.93-.24,4.41s0,2.82-.07,4.23c-.07,1.27-.29,2.5-.52,3.75-.27,1.46-.53,2.92-.75,4.39-.1.64-.18,1.29-.24,1.94-.05.55-.11,1.15.03,1.69.05.18.12.45.3.55l.19-1.59c-3.63-1.55-7.56-2.02-11.46-2.39s-7.63-.74-11.37-1.66c-1-.25-1.99-.52-2.98-.83-.51-.16-1.02-.32-1.52-.49-.25-.08-.5-.19-.75-.24-.29-.06-.6-.06-.89-.1-.39-.04-.33,1.1-.07,1.25.22.13.43.25.65.38.24.14.49.22.75.31.46.15.91.3,1.37.44.87.27,1.75.53,2.63.76,1.75.46,3.52.83,5.31,1.1,3.91.6,7.87.72,11.77,1.35,2.17.35,4.32.86,6.35,1.72.52.22.63-1.38.19-1.59.05.02.11.16.14.27-.04-.14.03.18.01.1,0-.03,0-.07-.01-.11.01.05,0,.23,0,.07,0-.04,0-.09,0-.13,0-.05,0-.09,0-.14,0-.03,0-.05,0-.08,0-.15.02,0,0,.06.08-.24.05-.57.08-.82.04-.33.09-.65.13-.98.22-1.48.48-2.95.75-4.41.2-1.11.43-2.21.53-3.34.25-2.79.02-5.61.28-8.4s.62-5.74.85-8.61.4-5.84.49-8.77c.04-1.42.06-2.85.04-4.27s-.08-2.87-.06-4.3c.01-1.11.08-2.21.26-3.31.14-.84.3-1.63.49-2.55.42-2.01.89-4.01,1.25-6.03.41-2.33.5-4.7.08-7.04-.12-.64-.3-1.27-.49-1.89-.03-.1-.09-.21-.2-.12s-.07.33-.05.44h0Z"/>
            <path d="M113.69,67.8c-2.19,3.89-2.96,8.42-3.62,12.79-.33,2.2-.62,4.4-.99,6.6-.42,2.49-1.01,4.95-1.64,7.4-1.34,5.14-2.76,10.25-3.86,15.45s-1.99,10.47-2.71,15.76-1.42,10.65-2.34,15.95c-.05.3-.11.61-.16.91-.06.36-.04.74-.05,1.11,0,.17.17.68.34.32.11-.26.24-.51.31-.78.08-.34.13-.68.19-1.02.12-.66.25-1.33.36-1.99.23-1.31.43-2.63.63-3.95.4-2.63.74-5.28,1.12-7.91.74-5.24,1.51-10.47,2.54-15.66s2.32-10.32,3.68-15.43c.68-2.54,1.33-5.08,1.84-7.66.44-2.23.75-4.49,1.06-6.74.6-4.43,1.22-8.92,2.92-13.09.2-.5.41-1,.65-1.49.09-.19-.03-.92-.24-.55h0Z"/>
            <path d="M112.99,81.09s-.03-.03-.04-.05l.02.04s-.03-.05-.05-.07c0,0-.01,0-.01-.01,0,0-.02-.01-.03-.02-.02-.01-.04-.02-.06-.03-.05-.02-.1-.04-.15-.05-.08-.02-.17-.03-.25-.02-.05,0-.11.02-.16.04-.04.01-.08.03-.12.05-.09.05-.17.12-.23.19-.07.08-.13.18-.17.28-.03.07-.05.14-.07.21-.02.12-.04.22-.04.34,0,.17.02.35.05.52.03.14.08.27.14.4.12.24.29.46.5.63.04.03.09.07.14.09.07.03.13.06.21.08.1.03.21.03.31,0,.13-.03.23-.1.32-.18.1-.09.19-.19.26-.3.08-.12.16-.26.21-.4.07-.19.13-.38.14-.59,0-.08.01-.15.01-.23,0-.08,0-.17-.01-.25,0-.1-.03-.21-.06-.31-.05-.17-.12-.34-.24-.48-.08-.09-.18-.18-.29-.24-.06-.03-.13-.05-.2-.07-.02,0-.04,0-.06-.01s-.05,0-.07.01c-.05.01-.09.03-.14.04-.03.02-.06.05-.08.08s-.05.08-.06.11c0,.02-.01.03-.02.05l-.04.12c-.02.07-.03.15-.03.22,0,.12,0,.26.03.38l.04.12.05.09s.05.06.1.07c.03.02.07.01.1-.01l.05-.03h-.11l.16.12s.11,0,.14-.04c.04-.06.06-.13.07-.2.02-.09.02-.18,0-.27l-.02-.1c-.01-.05-.03-.1-.07-.15l-.15-.25.08.17v-.02c0,.08.02.17.03.25v-.05c-.13.17-.26.34-.39.51,0,.01.02.03.03.04.04.05.09.09.16.09,0,0,.01,0,.02,0,.03,0,.06,0,.09,0s.06,0,.09,0,.06.01.09.02l-.08-.02c.09.03.18.08.25.15l-.07-.07c.05.05.1.11.14.18l-.06-.1s.03.06.04.09l-.04-.13s.02.07.03.1l-.03-.15s0,.04,0,.06v-.16s0,.07,0,.11v-.16s0,.08,0,.13l.03-.14c-.01.06-.03.12-.05.18l.04-.12c-.03.1-.08.19-.13.28l.05-.09c-.07.12-.15.23-.25.33l.06-.06c-.09.08-.19.15-.31.18l.06-.02c-.12.04-.25.03-.37,0l.06.02c-.14-.04-.26-.12-.36-.21l.05.05c-.09-.09-.17-.19-.23-.29l.04.07c-.04-.07-.07-.14-.1-.22l.03.09c-.02-.05-.03-.11-.04-.17l.02.1s-.01-.09-.02-.14v.11s0-.08,0-.12v.1s0-.08,0-.12l-.02.09s.02-.09.03-.13l-.03.07s.03-.08.05-.11l-.03.06c.04-.07.09-.13.14-.18l-.04.04c.09-.08.19-.15.31-.19h-.04s.08-.02.12-.03h-.04c.12-.02.25-.03.37,0h-.03s.02,0,.04,0c0,0,.01,0,.02,0,.01,0,.02.01.04.01.01,0,.02,0,.04-.01h-.03s.03.01.04.02h.03s.03-.03.04-.05c.02-.04.03-.08.04-.12,0-.09,0-.19-.05-.27h0Z"/>
            <path d="M110.32,95.46c-.26,0-.53.06-.77.17-.26.12-.47.32-.6.57-.04.08-.07.17-.1.26-.03.09-.05.19-.06.28s-.02.2-.02.3,0,.2.02.3c.02.13.05.24.09.36.03.08.07.16.12.24.07.11.16.21.26.29.18.15.42.24.65.27.11.01.22.01.33,0,.12-.02.25-.07.35-.14.11-.07.21-.17.29-.27.09-.11.16-.24.21-.37.07-.18.12-.36.13-.55.02-.2.02-.41-.01-.62s-.08-.39-.17-.57c-.04-.08-.09-.16-.14-.24-.05-.07-.11-.13-.18-.19-.09-.08-.18-.15-.29-.2-.07-.04-.15-.06-.23-.08-.03,0-.05-.01-.08-.01s-.06,0-.09,0-.06,0-.09,0c-.05,0-.09.02-.14.03l.06-.02c-.05,0-.11.02-.15.04-.07.02-.13.04-.2.07-.03.02-.05.05-.07.08-.02.04-.04.08-.05.12-.02.09-.03.19-.02.28,0,.08.02.18.05.25.03.06.07.13.14.13.1,0,.19.02.28.05l-.06-.02s.05.02.08.02l-.06-.02s.08.03.11.04.07.03.1.05.07.04.1.05.07.03.1.05c.13.06.26.14.37.24l-.06-.06s.08.08.12.12l-.06-.06c.06.06.12.14.16.22l-.05-.09c.03.05.05.11.07.16l-.04-.11s.03.09.04.14l-.02-.13s.01.08.02.12v-.14s0,.09,0,.13v-.14s0,.1,0,.15l.02-.13c-.01.06-.03.12-.05.17l.04-.11c-.02.07-.06.14-.09.2l.05-.08c-.05.09-.12.17-.19.25l.06-.05c-.07.06-.14.12-.22.16-.04.02-.08.04-.12.05s-.08.04-.13.05l.06-.02c-.19.06-.39.05-.58-.01l.05.02c-.14-.04-.26-.11-.36-.21l.05.04c-.06-.06-.11-.12-.15-.2l.04.07c-.03-.05-.05-.1-.07-.16l.03.09s-.03-.09-.04-.14l.02.1s-.01-.09-.02-.13v.11s0-.09,0-.13v.11c0-.05,0-.1.01-.15l-.02.1c.01-.06.03-.12.04-.17l-.03.09c.03-.1.08-.2.13-.3l-.04.06c.08-.14.18-.26.3-.37l-.04.03c.22-.21.5-.37.79-.46h-.03s.02,0,.03,0c.04-.01.05-.03.07-.06.02-.04.03-.1.03-.15s0-.11-.03-.15c-.01-.03-.03-.06-.07-.06h0Z"/>
            <path d="M103.94,124.4c-.08.06-.16.13-.23.21-.03.03-.06.07-.09.11-.03.05-.07.11-.1.17-.11.21-.18.45-.22.68s-.04.51,0,.76c.02.14.06.28.1.41.04.12.11.24.21.32s.23.09.35.05.24-.09.36-.14c.21-.09.42-.2.6-.35.19-.16.35-.36.44-.59.12-.33.14-.72.01-1.05-.08-.21-.24-.38-.42-.5-.08-.05-.16-.1-.25-.14-.06-.02-.12-.04-.18-.05-.05-.01-.09-.02-.14-.03s-.09-.01-.14-.02-.08.06-.1.09c-.02.06-.03.12-.04.18,0,.06,0,.13.02.2.01.05.03.12.08.14.08.04.15.07.22.11s.14.08.22.11c.14.06.27.14.39.25l-.04-.04c.06.05.1.11.14.18l-.03-.06s.05.1.07.15l-.02-.07s.02.06.02.09l-.02-.08s.01.16,0,0c0,.02,0,.03,0,.05,0,0,0,.01,0,.02,0,.05,0-.1,0-.05,0,.01,0,.03,0,.04,0,.04.02-.09,0-.05,0,0,0,.02,0,.03,0,.03-.02.06-.03.09l.02-.07c-.02.06-.05.13-.08.19l.03-.05c-.06.1-.13.19-.22.28l.03-.03c-.14.13-.3.24-.47.33-.09.05-.17.09-.26.13s-.18.09-.28.12h.04c-.07,0-.14.02-.21,0h.04s-.08-.02-.11-.05l.03.03s-.06-.07-.08-.1l.03.05s-.03-.05-.04-.07c0-.01,0-.02-.01-.03,0,0,0-.02,0-.02-.01-.03.02.07,0,.03-.02-.05-.03-.1-.04-.15,0-.01,0-.03,0-.04,0,0,0-.01,0-.02,0-.04.01.07,0,.04,0-.03,0-.06-.01-.09,0-.02,0-.05,0-.07,0-.01,0-.03,0-.04,0,0,0,.09,0,.05,0,0,0-.02,0-.03,0-.05,0-.11,0-.16,0-.03,0,.09,0,.05,0,0,0-.01,0-.02,0-.01,0-.03,0-.04,0-.03,0-.06.01-.08,0-.01,0-.03,0-.04,0,0,0-.01,0-.02,0-.04,0,.05,0,.04,0-.03.01-.06.02-.09.01-.05.03-.11.05-.16,0-.03-.01.04-.01.03,0,0,0-.02,0-.02,0-.02.01-.03.02-.05.01-.03.02-.06.04-.09.03-.06.05-.11.08-.17l-.02.04s.06-.1.08-.15l-.02.04c.07-.12.14-.22.23-.33.03-.03.04-.09.04-.13,0-.05,0-.09,0-.14,0-.04-.05-.17-.11-.12h0Z"/>
            <path d="M51.53,127.65c-.12-.05-.23-.12-.32-.2l.06.06c-.07-.07-.14-.15-.19-.24l.05.09c-.03-.06-.06-.13-.09-.19l.04.12s-.03-.09-.04-.14l.03.14s-.01-.09-.02-.14v.15s0-.09,0-.13v.15c0-.05,0-.1,0-.15l-.03.14c.01-.06.03-.12.05-.17l-.04.12c.03-.08.06-.16.1-.23l-.05.09c.06-.11.14-.21.23-.29l-.06.06c.13-.13.29-.22.46-.28l-.07.02c.17-.05.36-.05.53,0l-.07-.02c.12.04.23.1.32.19l-.06-.06c.05.05.1.11.14.18l-.05-.09c.09.16.17.34.23.51l-.04-.12c.03.08.05.15.06.23l-.03-.14c0,.05.02.1.02.16v-.15s0,.08,0,.12v-.15s0,.09,0,.13l.03-.14s-.02.08-.03.12l.04-.12s-.04.1-.06.14l.05-.09c-.03.06-.07.11-.12.16l.06-.06c-.08.08-.18.13-.29.16l.07-.02c-.17.05-.34.06-.51.07-.2.02-.39.04-.57.12-.04.03-.07.06-.09.1-.03.05-.05.1-.07.16-.02.07-.03.14-.03.22,0,.08,0,.15,0,.23l.03.14c.02.08.05.14.09.21l.06.06s.09.03.14,0c.03-.01.06-.03.1-.04l-.07.02c.22-.06.45-.06.67-.09.13-.02.26-.04.38-.09s.23-.14.32-.24c.12-.14.19-.31.24-.48.03-.09.05-.19.06-.29.01-.1.02-.21.02-.31,0-.22-.03-.45-.1-.66-.05-.17-.11-.33-.18-.49-.03-.06-.06-.12-.09-.18-.04-.08-.09-.17-.15-.24-.09-.1-.19-.19-.31-.25-.22-.11-.47-.14-.71-.07-.13.04-.26.09-.37.16s-.23.18-.32.29c-.1.11-.18.25-.24.38-.09.19-.14.39-.17.59-.02.11-.02.22-.03.32s0,.22.02.33c.02.19.07.38.15.56.06.13.13.25.22.36.09.1.19.19.3.26.05.03.09.05.14.07.03.02.07.03.1.01.04,0,.07-.03.09-.07.03-.05.06-.1.07-.15.02-.06.04-.13.05-.2.02-.15.02-.3-.03-.45l-.04-.12c-.02-.06-.06-.11-.11-.15h0Z"/>
            <path d="M106.65,110.89c-.05-.04-.1-.09-.15-.14l.06.06c-.18-.17-.34-.35-.46-.57l.05.09c-.05-.08-.09-.17-.12-.26l.04.12c-.02-.06-.04-.12-.05-.18l.03.14s-.01-.09-.02-.14v.15s0-.09,0-.13v.15s0-.08,0-.12l-.03.14s.02-.09.04-.14l-.04.12c.02-.06.05-.13.08-.19l-.05.09c.05-.1.12-.18.2-.26l-.06.06c.12-.12.27-.21.43-.26l-.07.02c.19-.06.4-.05.59,0l-.07-.02c.17.05.33.14.45.27l-.06-.06c.07.07.14.15.19.24l-.05-.09c.03.05.06.11.08.17l-.04-.12c.02.06.03.11.04.17l-.03-.14c.01.07.02.13.02.2v-.15c0,.1,0,.19-.01.29v-.15c0,.09,0,.18-.02.26l.03-.14c-.01.08-.03.15-.06.23l.04-.12c-.02.07-.05.14-.09.2l.05-.09c-.04.08-.1.15-.16.21l.06-.06c-.09.08-.19.14-.3.17l.07-.02c-.13.04-.27.05-.4,0l.07.02c-.08-.02-.14-.06-.2-.12l.06.06s-.02-.02-.03-.03c-.02-.04-.05-.06-.09-.07-.03-.02-.07-.01-.1.01-.04.03-.07.06-.09.1-.03.05-.05.1-.07.16-.03.14-.05.3-.03.45l.03.14c.02.08.05.14.09.21.05.06.11.12.18.16.06.04.14.06.21.08.1.03.21.03.32,0,.13-.03.25-.07.36-.15.07-.05.13-.11.18-.17.04-.05.08-.1.11-.15.05-.08.1-.17.13-.26.04-.1.07-.2.1-.3.05-.22.07-.44.09-.66.01-.19,0-.39-.02-.59-.03-.21-.08-.43-.18-.62-.04-.08-.09-.16-.14-.23-.05-.07-.11-.13-.17-.18-.08-.08-.18-.15-.28-.2-.12-.06-.26-.1-.39-.12-.12-.02-.23-.02-.35,0-.13.03-.27.08-.39.15s-.23.17-.32.27-.18.24-.24.37c-.04.09-.07.18-.1.28-.03.1-.05.2-.06.3-.03.27-.01.53.05.8.02.1.06.2.09.29.02.06.05.12.08.18.08.15.16.29.27.41s.21.24.33.35c.05.04.09.09.14.13.03.02.07.03.1.01.04,0,.07-.03.09-.07.03-.05.06-.1.07-.15.02-.06.04-.13.05-.2.02-.15.02-.3-.03-.45l-.04-.12c-.02-.06-.06-.11-.11-.15h0Z"/>
            <path d="M143.44,145.01c-.07-.09-.13-.18-.19-.28l.05.09c-.05-.08-.09-.17-.12-.27l.04.12c-.02-.05-.03-.11-.04-.17l.03.14s-.01-.08-.01-.12v.15s0-.07,0-.11v.15s0-.08,0-.12l-.03.14s.02-.09.03-.13l-.04.12s.04-.09.06-.14l-.05.09c.03-.06.07-.11.12-.15l-.06.06c.08-.07.17-.12.27-.15l-.07.02c.18-.05.37-.04.55,0l-.07-.02c.18.06.34.15.47.28l-.06-.06c.08.08.16.17.22.28l-.05-.09c.04.06.07.13.09.2l-.04-.12s.02.06.03.1l-.03-.14s0,.04,0,.06v-.15s0,.03,0,.04v-.15s0,.03,0,.04l.03-.14s0,.03-.01.05l.04-.12s-.02.05-.04.08l.05-.09c-.04.07-.1.14-.16.2l.06-.06c-.14.13-.3.22-.48.28l.07-.02c-.23.07-.48.08-.71,0l.07.02c-.05-.02-.1-.04-.15-.06-.03-.02-.07-.03-.1-.01-.04,0-.07.03-.09.07-.03.05-.06.1-.07.15-.02.06-.04.13-.05.2-.02.15-.02.3.03.45l.04.12c.02.06.06.11.11.15.18.08.38.13.57.13.09,0,.18-.01.26-.03.11-.02.21-.06.31-.1.18-.08.34-.21.47-.37.05-.06.09-.13.13-.21.01-.02.02-.05.03-.07.02-.04.04-.1.05-.15.01-.06.03-.12.03-.18.02-.2,0-.39-.04-.59-.02-.09-.05-.18-.09-.26-.05-.12-.11-.23-.19-.33-.07-.1-.15-.18-.24-.26-.16-.14-.35-.23-.56-.28s-.43-.03-.63.05c-.11.05-.2.12-.29.21-.03.03-.06.07-.09.11-.04.07-.08.13-.11.21-.07.16-.11.34-.13.52,0,.07-.01.14-.01.22,0,.05,0,.1,0,.15s0,.09.01.14c0,.07.02.14.04.21s.04.14.06.21.05.14.08.2c.06.13.13.25.21.36.03.04.06.09.09.13.02.04.05.06.09.07.03.02.07.01.1-.01.04-.03.07-.06.09-.1.03-.05.05-.1.07-.16.03-.14.05-.3.03-.45-.02-.12-.04-.25-.12-.35h0Z"/>
          </g>
        </g>
      </g>
    </g>
  </g>
</svg>