<?xml version="1.0" encoding="UTF-8"?>
<svg id="_レイヤー_2" data-name="レイヤー 2" xmlns="http://www.w3.org/2000/svg" viewBox="0 0 690.06 221.54">
  <defs>
    <style>
      .cls-1 {
        fill: #fff;
      }
    </style>
  </defs>
  <g id="_編集箇所" data-name="編集箇所">
    <g>
      <g>
        <path class="cls-1" d="M47.07.27c.09.09.82.27,1.65.46.73.09,1.56.27,2.01.37.37.18,1.01.37,1.46.46,1.83.64,2.93,1.56,2.93,2.56s-.82,2.47-1.92,3.75c-.27.27-.46.55-.46.64s-.37.55-.73,1.1c-.37.46-.64.92-.64,1.1,0,.09-.18.37-.46.73-.27.27-.73,1.01-1.01,1.65-.27.55-.82,1.37-1.1,1.83-.37.37-.92,1.1-1.1,1.56l-.82,1.28c-.18.18-.27.55-.37,1.19-.09.55-.27.92-.46,1.19-.18.27-.37.46-.37.55l-.46.64c-.46.46-.55.46-1.56.55-.82.09-1.28,0-1.74-.09-.46-.18-.55-.18-.55-.73,0-.37-.18-.64-.18-.73-.27-.18-.73-1.83-.73-2.2s.55-2.38,1.01-3.2c.46-1.1,1.1-2.75,1.19-3.3,0-.37.18-.92.37-1.19.27-.64.27-.73.09-1.01-.27-.37-.55-.46-3.11-.55-1.46-.09-1.92-.09-2.84.18-1.1.27-2.84,1.1-3.02,1.46-.09,0-.37.18-.73.37-.27.09-.82.55-1.1.82-.27.37-.64.64-.92.73-.18.18-.64.46-1.01.64-.37.27-.73.46-.82.46-.18,0-1.65,1.46-2.01,2.01-.18.27-.73.82-1.19,1.28-.46.46-.92.92-1.01,1.19-.09.09-.73.92-1.37,1.56-1.28,1.28-2.2,2.38-3.3,3.84-.37.55-1.01,1.28-1.28,1.65-.37.37-.92,1.19-1.19,1.74-.37.64-.73,1.28-.82,1.37s-.37.64-.64,1.19c-.27.46-.55,1.01-.64,1.1-.18.27-1.19,1.92-1.65,2.93-.27.46-.37.82-.37,1.01s-.18.46-.37.73c-.46.46-.73,1.1-1.19,2.29l-.46,1.28c-.27.27-1.19,2.56-1.37,3.75-.27,1.1-.55,2.56-.92,3.39-.46,1.56-.64,5.95-.27,6.77.09.27.18.82.18,1.19,0,1.65.82,3.66,1.92,4.39.27.27.55.46.64.55.27.46,1.01.82,1.56.92.37,0,.92.18,1.19.27.37.09,1.46.27,2.38.37,1.65.18,2.65.09,3.48-.37.18,0,.46-.09.73,0,.46,0,.73,0,1.56-.37.46-.27,1.01-.46,1.1-.46.18,0,.37,0,2.75-1.19.73-.37,1.46-.64,1.46-.64.37,0,3.2-1.46,3.57-1.92.37-.18.55-.37.64-.37l1.19-.64c.55-.37,1.37-.82,1.83-1.1.37-.18.82-.46.82-.55.18-.18.46-.46,1.65-1.19.37-.18.92-.64,1.19-.82.27-.27.64-.55.73-.55s.27-.09.37-.18c.37-.27,1.01-.73,2.01-1.28.37-.18.82-.55.92-.73.18-.37.37-.55.92-.64.82-.37,2.01-1.37,2.56-2.2.18-.27.46-.55.73-.55.27-.09.92-.55,1.37-.92,2.2-2.2,3.02-2.84,3.11-2.84.27.09.46.64.46,1.56s-1.01,2.84-2.2,4.12c-2.56,2.75-4.58,4.76-4.94,4.94-.27.09-.92.73-1.46,1.28-.55.64-1.28,1.19-1.37,1.28l-.92.64c-1.1,1.1-1.65,1.46-2.38,1.92-.46.27-1.01.73-1.19,1.01-.27.37-.73.92-1.19,1.1-.46.27-1.01.73-1.19.82-.18.27-.64.64-1.01.82-1.19.64-4.49,2.2-5.22,2.47-.37.18-1.28.46-1.92.73-.55.37-1.28.64-1.65.64-.27.18-.92.27-1.28.46-.82.18-2.75.46-3.02.37,0-.09-.92-.09-1.92-.09-1.01-.09-1.92-.18-2.2-.27-.18,0-.92-.18-1.74-.37-.82-.18-1.74-.37-2.01-.55-.55-.27-.92-.46-2.2-.92-.37-.09-.82-.27-1.01-.46-.09-.09-.37-.27-.64-.37-1.46-.55-6.96-3.84-7.6-5.13-.09-.37-.27-.73-.46-.73l-.18-.73c-.09-.37-.09-.64-.18-.64-.37,0-.73-.92-.73-1.65,0-.37-.09-1.01-.18-1.46-.18-.46-.18-1.1-.18-1.46,0-.46-.18-1.01-.18-1.37-.27-.92-.27-4.21,0-5.49.09-.64.27-1.83.46-2.75.09-.92.37-2.2.46-2.84.18-1.19,1.28-4.58,1.65-5.03,0-.09.27-.64.55-1.19.18-.64.64-1.37.82-1.65.27-.37.46-.82.55-1.19.09-.27.37-.73.55-1.01.37-.55,1.74-2.93,2.65-4.49.27-.55.73-1.19.92-1.56.27-.27.73-.92,1.01-1.37.92-1.28,1.65-2.38,2.11-2.84.27-.27.55-.73.73-1.01.09-.18.55-.73.92-1.19.46-.37,1.28-1.37,1.92-2.11.55-.92,1.37-1.65,1.65-1.92l1.37-1.19c.37-.46.92-.73,1.01-.73.18,0,.37-.18.55-.46.46-.46,2.47-1.83,3.2-2.11.37-.09,1.01-.55,1.46-.92.46-.37,1.19-.73,1.56-.92.37-.09.82-.37,1.01-.55.27-.09.55-.18.73-.18.27,0,.92-.18,1.46-.37,2.38-.82,7.87-.82,9.89.09.55.27,1.37.55,1.83.73.37.09.82.37,1.01.55.27.37,1.65,1.28,2.01,1.28.27,0,1.01-1.92,1.19-3.02.09-.46.27-1.01.27-1.28.18-.27.18-.82.18-1.1s.09-.55.27-.73c.37-.37.46-.37.92,0Z"/>
        <path class="cls-1" d="M62.9,25.36c2.38.09,4.21.37,4.58.73.18.09.55.27.82.37.27,0,.73.27,1.01.46.18.18.64.55,1.1.73.37.18.92.46,1.19.64.55.46,1.1.46,1.65.27.27-.18.46-.09.92.09.64.27.92.37,2.29.82.37.18.92.55,1.37.92.64.64.73.73.73,1.37,0,1.65.73,2.93,2.01,3.48.37.09,1.01.37,1.37.55.55.27,1.46.46,2.56.64,1.83.27,1.92.27,4.03.09,1.65-.18,2.2-.37,3.02-.64.55-.27,1.1-.46,1.19-.46s.55-.18,1.01-.37c.37-.27,1.19-.64,1.65-.82,1.37-.64,2.65-1.56,3.66-2.65,1.28-1.28,1.46-1.28,1.37.18-.09.82-.18,1.1-.55,1.83-.27.55-.64,1.1-.82,1.37-.73.92-2.11,2.11-2.65,2.38-.37.18-.64.37-.64.46-.09.27-1.74,1.28-2.01,1.28-.18,0-1.01.37-2.38.92-.46.18-1.1.37-1.37.37s-.82.09-1.19.18c-.55.18-1.19.18-2.38.18-2.65-.09-4.39-.46-5.22-1.01-.09-.09-.46-.18-.64-.18-.27,0-.55-.09-.73-.18-.18-.18-.55-.27-.82-.27-.55-.18-.64-.09-.92.37-.18.18-.37.73-.46,1.01-.09.82-.27,1.65-.55,2.2-.27,1.1-.82,2.2-.92,2.38-.18.09-.27.46-.27.73-.09.27-.27.82-.55,1.01l-.64,1.1c-.18.27-.46.82-.82,1.1-.27.37-.64.82-.73,1.1-.18.27-.37.55-.55.73s-.64.82-1.1,1.37c-.55.55-1.1,1.19-1.37,1.37-.27.18-.73.64-1.01.92-.27.37-.82.82-1.1,1.01-.27.18-.92.82-1.28,1.28-.73.82-1.1,1.1-2.2,1.83-.37.09-.73.37-.82.46-.64.37-2.75,1.46-3.02,1.56l-1.74.82c-1.56.92-3.11,1.46-3.66,1.37-.27,0-1.01,0-1.65.18-1.37.37-1.92.27-4.3-.92-1.83-.92-3.75-2.84-4.03-4.03l-.46-1.28c-.55-1.65-.73-2.29-.82-3.75-.18-1.65-.09-2.29.27-3.02.18-.27.46-1.1.64-1.83.18-.82.46-1.46.46-1.56.09,0,.18-.27.18-.37,0-.18.18-.73.46-1.28s.46-1.1.46-1.19c0-.18.92-1.65,1.83-3.2l.55-.92c0-.09.18-.37.37-.55.27-.27.73-1.01,1.19-1.56.37-.64.82-1.19.92-1.37.18-.09.64-.82,1.01-1.46.82-1.1,2.01-2.56,2.93-3.48.82-.64,1.19-1.1,2.01-2.01,2.11-2.38,3.39-3.57,3.84-3.75.27-.09.73-.18,1.74-.09ZM69.31,32.77c-.18.09-.46.18-.55.18-.27,0-.55.09-1.37.64-.27.18-.55.27-.73.27-.27,0-.37.18-.55.55-.27.64-.55.92-1.37,1.37-.37.09-.82.46-.92.64-.18.27-.82,1.01-1.46,1.74-.73.73-1.37,1.46-1.46,1.74-.09.18-.55.82-1.01,1.37-.46.55-1.01,1.1-1.1,1.37-.73,1.37-1.28,2.29-1.74,2.65-.18.18-.37.46-.37.64s-.37.64-.82,1.1c-.55.64-.82,1.1-1.1,1.83-.27.55-.55,1.28-.64,1.56-.18.37-.37.92-.37,1.28-.09.27-.18.64-.27.82-.09.27-.27.92-.37,1.46-.18,1.28-.09,2.2.27,2.84.18.37.92.82,1.46.82.46,0,2.65-1.1,3.39-1.65.37-.27.73-.55,1.01-.64.18,0,.64-.27.92-.55.27-.18.82-.64,1.28-.92.82-.64,1.28-1.01,1.28-1.1.09-.09.46-.46.92-.73s1.1-.82,1.37-1.28c.46-.37,1.01-1.1,1.46-1.56.73-.82,1.46-1.83,1.46-1.92s.27-.46.64-.92c.37-.37.73-.92.92-1.19.18-.09.46-.82.82-1.46.37-.73.64-1.37.73-1.46.09-.09.46-.82.73-1.56.27-.73.55-1.28.55-1.37.09,0,.27-.55.55-1.1.18-.64.46-1.37.64-1.74.46-1.01.37-2.11-.18-3.11l-.82-1.01c-.55-.46-2.38-.27-3.2.37Z"/>
        <path class="cls-1" d="M122.77,39.73c-.18.82-.46,1.56-.55,1.83-.18.18-.18.46-.18.55,0,.27-.27.73-.46,1.1-.27.37-.55.92-.64,1.19-.09.37-.27.73-.37.82-.18.18-.27.37-.27.46l-.55.82c-.27.46-.64,1.1-.82,1.37-.18.37-.55.82-.82,1.1l-.73,1.01c-.46,1.1-.64,1.37-1.46,2.29-.55.46-1.1,1.1-1.28,1.37l-.37.55c-.09.09-.27.27-.46.55-.09.27-.64.92-1.19,1.37l-1.01,1.01c0,.09-.37.55-.73.92-.37.37-1.01.92-1.28,1.28-.37.37-.92.82-1.28.92l-.82.55c-1.01.46-3.3,1.56-3.57,1.56l-.37.09c-.18.27-1.56.55-2.11.55-.27,0-.64.09-.82.18-.55.37-3.02.18-4.67-.46-.82-.37-2.47-1.46-3.02-1.92-.09-.18-.55-.55-1.01-.82-.46-.27-.92-.73-1.19-1.1-.18-.37-.55-.92-.82-1.37-.37-.37-.55-.64-.55-.73s-.18-.46-.37-.92c-.27-.55-.46-1.01-.46-1.1,0-.18-.09-.37-.18-.55-.09-.27-.37-2.84-.27-3.66.09-1.37.37-3.94.46-4.49,0-.37.18-1.01.27-1.46.09-.64.46-1.65.92-2.47.18-.37.64-1.01.82-1.46.09-.27.37-.64.46-.73.18-.18.27-.55.46-.82,0-.27.27-.73.55-.92.09-.27.46-.73.55-.92.64-.92,1.37-1.83,1.92-2.29.37-.27.73-.73.82-.92.27-.73,2.84-3.2,4.67-4.67.37-.27,1.37-.82,2.2-1.37.73-.46,1.56-1.01,1.83-1.1.37-.27.64-.46,1.74-.46,1.74-.18,1.83-.18,3.3,0,.64.18,1.56.18,1.92.18.73.09,1.19.18,3.3.82,2.29.82,3.66,1.37,4.21,1.74.27.27.73.55,1.01.64.27.09.64.37.82.46.37.18.64.27,1.65.18.37.18,1.65.64,1.74.73.09.09.18.37.27.64.09.64.55,1.37,1.46,2.47.55.55.82.82,1.56,1.1,1.1.46,2.2.55,4.12.46.82-.27,1.65-.55,2.11-.82l2.75-1.83c.18-.09,1.92-1.74,2.38-1.92l1.92-2.01c.27-.09.92-1.65,1.01-1.83.18-.18.18-1.37.92-2.01.64-.64.46-1.1.46-1.28,0-.09.09-.27.27-.55.18-.18.37-.55.46-.64.09-.27.37-.55.46-.82l.64-.82c.18-.18.37-.46.37-.64,0-.27-.37-1.37-.64-2.11-.18-.27-.18-.73-.18-1.01s-.09-.82-.18-1.37c-.18-.92-.18-1.1.09-1.74.18-.64.27-.82.09-1.28-.27-.55-.09-.92.37-1.37.64-.37,1.01-.37,2.11.18,1.74.82,3.84,1.19,4.3,2.11.37.73.37,1.01.37,2.01,0,1.1-1.56,2.2-2.01,3.66-.27.55-.27.73-.09,1.37.37,1.37,1.19,2.29,3.02,3.57l.09-.09c0,.09.09.18.09.27.73.55,1.46,1.19,2.11,1.74,1.46,1.46,2.75,3.2,3.2,4.3.18.46.46,1.01.64,1.19.18.18.37.46.37.55s.18.46.37.73c.37.55.73,1.65.46,2.38-.09.27-.18.73-.18,1.01s-.27.82-.64,1.19c-.27.37-.64.82-.64.92,0,.73-1.56,2.75-1.83,2.84-.18.09-.46.27-.55.46-.09.27-.73.82-1.37,1.37-1.56,1.37-2.65,2.29-2.65,2.65,0,.09-.18.37-.37.37-.27.18-1.01,1.28-1.65,2.47-.27.46-.55.82-.82,1.1-.18.18-.46.73-.73,1.1l-.82,1.01c-.37.27-1.28,2.01-1.28,2.47,0,.27,0,.64-.18.92-.18.27-.18.92-.18,1.46q0,.92.27,1.01c.64.18,3.2-.27,3.57-.64.09,0,.92-.46,1.83-1.01.92-.37,2.2-1.1,2.75-1.56l1.19-.73c.18,0,1.01-.55,1.74-1.1l.82-.55c.18,0,.73-.46,1.1-.73.46-.37,1.37-1.1,2.11-1.56.82-.46,1.74-1.19,2.2-1.46.37-.37,1.01-.82,1.37-1.1l1.37-1.28c.46-.46.82-.73.82-.73.18,0,1.01-.92,2.11-1.92,1.1-1.01,2.2-2.11,2.47-2.29.27-.27,1.28-1.83,1.37-2.11l.64-1.1c.64-.64.92-.46.92.92,0,.55-.55,2.29-.55,2.47,0,.46.18.73,0,1.28-.37,1.19-1.65,3.48-2.65,4.85-.27.37-.46.64-.46.73s-.46.64-1.01,1.19c-.55.55-1.19,1.46-1.56,1.92-.37.46-.73,1.01-.82,1.01s-.27.27-.46.64c-.09.37-.37.55-.55.64-.18,0-.37.18-.46.46s-.73.82-1.46,1.56l-1.83,1.74c-.27.27-.73.64-1.01.73-.27.27-.82.46-1.01.73-.18.27-.73.64-1.19.82-.46.18-1.1.64-1.65,1.1-.37.46-1.01.92-1.37,1.1-.27.09-.92.55-1.37.92-.46.46-.92.73-1.01.73s-.55.18-.82.27c-.46.18-.73.18-2.47.09s-1.92-.18-2.93-.55c-.55-.18-1.19-.55-1.37-.64s-.64-.37-.92-.46c-.73-.27-3.3-1.92-3.57-2.29-.09-.27-.37-.46-.55-.55s-.46-.27-.55-.55c-.09-.18-.46-.55-.82-.92-.55-.55-.73-.73-.73-1.1,0-.18-.09-.55-.18-.73-.73-1.1-1.19-3.39-.73-4.21.18-.37.27-.92.27-1.28,0-.46.09-1.01.18-1.37.09-.27.18-.73.18-.82,0-.18.09-.46.18-.55.18-.18.55-.55.64-1.01.18-.82,2.29-4.58,2.75-5.13.27-.37,1.83-2.84,2.11-3.75.18-.55.64-1.28,1.01-1.65.37-.46.73-.92.73-1.01,0-.18,1.28-2.11,1.74-2.47.18-.09.46-.55.64-.82.18-.27.37-.55.46-.55s.18-.09.27-.37l.55-.82c.55-.82.27-1.37-.55-2.65l.09-.09c-.73-.92-2.01-2.2-2.11-2.11-.18,0-.27.27-.37.55-.09.27-.46,1.1-.92,1.92-.73,1.46,0,1.01-1.19,2.38-.27.18,0,.64-.27.82-.37.27-.73.82-.82.92,0,.09-1.92,1.74-2.11,1.83-.18.09-1.65,1.46-1.92,1.74-.37.27-1.19,1.1-2.01,1.83l-.55.55c-.46.55-.73.82-1.01.82-.18,0-.55.09-.82.27-.27.18-.64.27-.92.46-.18,0-.55.09-.82.18-1.1.37-1.92.55-2.47.55-.92,0-2.65-.46-3.66-1.01-.55-.27-1.1-.46-1.37-.55-.18,0-.55-.18-.73-.46l-.92-.55c-.55-.27-.64-.27-.92-.09-.27.27-.64,1.65-.64,2.29v-.46ZM112.15,31.95c-.92.09-1.01.09-1.46.55-1.1,1.1-2.56,2.29-2.93,2.47l-.27.27c0,.09-.27.46-.55.82-.27.27-.55.64-.55.73l-.73.92c-.46.46-.73.82-.82,1.01,0,0-.37.37-.73.64-.46.37-.82.82-.82,1.1-.18.18-.27.46-.37.55s-.37.46-.46.82l-.46.92c-.09.18-.27.46-.37.64-.18.55-1.01,1.65-1.65,2.01-.46.37-.55.46-.55,1.01s-.18.92-.55,1.37c-.27.37-.55.92-.64,1.19-.09.27-.37.82-.64,1.28-.37.37-.55.82-.55.92.18.37-.27,2.93-.64,3.66-.46,1.19-.46,1.92.27,2.29.27.09,1.28-.09,2.01-.55.18,0,.55-.18.82-.18.46-.09,1.65-.73,4.21-2.2.37-.18.92-.55,1.28-.92l2.47-2.29c1.28-1.01,4.03-3.94,4.76-4.76.37-.37.73-.82.73-.82.27-.09,1.74-2.01,2.11-2.56.55-1.1.92-2.01.92-2.38.09-.27.18-.82.37-1.19l.27-1.92c.09-1.01,0-1.28-.37-2.2-.27-1.01-.37-1.19-1.19-1.83-.46-.37-1.01-.82-1.28-.92-.37-.09-.55-.27-.64-.27,0-.09-.55-.18-1.01-.18Z"/>
        <path class="cls-1" d="M219.88,2.47c.82.09,1.01.18,2.2.82.64.46,1.37,1.01,1.65,1.1.09.27.37.46.46.46s.27.09.46.27c.18.09.46.27.55.27.37,0,1.28.82,1.83,1.74.37.55.55,1.01.64,1.56,0,.37.18,1.01.27,1.28.27.64.46,1.01-.27,1.65-.37.27-.46.73-.82,1.01-.27.27-.64.92-1.46,1.56-.73.64-1.01.92-1.1,1.19-.27.27-.37.92-.55,1.01-.55.37-1.46,1.19-1.46,1.37,0,.09-.27.46-.64.73-.37.27-.73.55-.73.64,0,0-.27.37-.64.73l-.73.73c0,.18-.73,1.1-1.83,2.47-.37.46-.73.92-.82,1.1-.37.46-1.56,1.92-2.47,2.93-.27.37-.82,1.01-1.01,1.37-.18.37-.64.82-.92,1.1-.27.27-.64.73-.82,1.1-.18.37-.37.73-.55.82l-.82.92c-.27.46-.55.92-.73,1.01-.18.09-.46.55-.64.92-.18.46-.64,1.1-1.1,1.56-.37.37-.82,1.01-.92,1.37-.18.27-.37.73-.55.92-.27.27-.37.46-1.19,2.2-.37.73-.64,1.46-.73,1.74,0,.37-.27.73-.46,1.01-.37.55-.46.82-.92,1.83l-.73,1.74c-.27.55-.55,1.37-.64,1.83,0,.37-.18.82-.37.92-.18.27-.18.55-.18,1.46,0,.64-.18,1.19-.18,1.28-.18.27-.55,1.01-.73,2.2,0,.46-.27,1.01-.46,1.28-.37.82,0,2.01-.09,2.65.09.27.09,1.01.18,1.56.09.46,0,.73.18.73,0,0,.18.46.27.55.27.27,1.19.92,1.46.92.18,0,.55.18.92.27,1.01.27,1.28.27,2.65,0,1.19-.27,2.2-.55,4.3-1.28q1.74-.64,2.47-1.19l.82-.64c.37-.18,1.28-.82,1.46-1.01,0-.09.37-.27.82-.55.46-.18,1.01-.55,1.28-.82l1.19-.92c.46-.27,1.1-.82,1.37-1.28.27-.37.73-.92,1.1-1.19.37-.27.73-.73.82-1.01.18-.18.55-.55.82-.73.27-.18.92-.82,1.46-1.46.55-.55,1.1-1.19,1.28-1.28.27-.09.55-.46.64-.73l.55-.73c.27-.18,1.28-1.37,1.28-1.65,0-.09,1.01-1.37,1.19-1.46l2.38-3.02c.18-.27.27-.64.27-.73,0-.18.09-.37.18-.55.37-.27.46-.09.55.82.09.92.09,1.1-.18,1.65-.27.37-.37.64-.27,1.01.09.55-.18,1.01-.92,2.2-.27.55-.73,1.19-.92,1.56-.46,1.19-1.1,2.38-1.19,2.47,0,.09-.09.18-.09.37,0,.09-.18.37-.37.55-.27.18-.64.64-1.01,1.1-.37.46-.64.82-.73.82,0,0-.18.27-.27.55-.27.55-.73,1.1-1.83,2.2l-1.1,1.19c-.37.55-1.74,1.92-2.29,2.2-1.01.55-1.92,1.28-2.2,1.65-.18.27-.82.73-1.37,1.1-.73.37-1.37.82-1.74,1.1-1.1,1.01-2.56,1.92-3.75,2.56-1.28.64-1.56.64-3.48.92-1.1.09-2.11.27-2.2.18l-1.1-.18c-1.01,0-3.57-.82-4.03-1.1-.18-.18-.46-.27-.73-.27s-.55-.18-.92-.55c-.37-.18-.92-.73-1.46-1.1-.37-.37-1.01-.92-1.28-1.28l-.82-1.1c-.46-.55-1.37-2.47-1.37-2.84,0-.27-.09-.73-.18-1.1-.27-1.01-.55-3.57-.37-4.03.09-.27.09-.64.09-1.01,0-.27.09-.92.27-1.28.09-.46.55-2.56.55-2.75h-.18c-.18,0-3.02,2.75-3.2,3.11-.09.18-.37.37-.55.55-.18.09-.46.46-.64.64-.18.27-.55.55-.64.64-.18.09-.55.37-.82.64l-.55.55c-.18,0-.73.37-1.28.73l-1.65,1.1c-.27.09-.64.46-.92.73-.18.27-.55.64-.82.82-.37.18-.64.46-.73.55,0,.09-.27.27-.46.37-.18.09-.46.37-.64.55-.09.27-.37.64-.64.73s-.82.55-1.37.92c-2.2,1.56-4.85,2.29-6.5,1.83-1.19-.37-1.46-.46-2.29-1.19-1.28-1.01-2.11-2.01-2.47-2.65-.18-.37-.37-.73-.55-.92-.46-.64-.82-1.46-1.01-2.56-.27-1.28-.27-3.02,0-3.57.09-.27.37-1.37.55-2.38.46-2.29.64-3.02,1.1-4.03.18-.46.37-.92.37-1.19,0-.09.18-.64.46-1.1.27-.55.82-1.46,1.19-2.11,1.19-2.38,2.29-3.94,5.03-6.77.55-.64,1.28-1.37,1.46-1.74.37-.55,1.37-1.46,3.75-3.48,1.65-1.28,3.66-2.65,5.03-3.39.64-.37,1.56-1.19,1.56-1.46,0-.09.92-.37,1.19-.27.18,0,.37.18.55.27.18.18.37.27.46.27.64,0,2.75.82,3.66,1.56.55.37.82.46,1.37.46.73,0,1.1.18,2.01.92l.82.64c.82.46,2.93,2.38,3.2,2.75.09.18.46.64.73.92l.55.09c.18-.18,1.01-1.46,1.1-1.83.18-.27.37-.73.46-.92.37-.37,1.1-1.56,1.1-1.83,0-.09.09-.37.18-.55.18-.09.46-.55.55-.82l2.2-4.21c.18-.27.46-.82.73-1.1.37-.46.82-1.1,1.19-1.74.82-1.37,1.74-2.65,1.83-2.65s.37-.37.64-.82c.55-.92,1.56-2.29,2.2-3.02.18-.27.37-.64.37-.73s.37-.73.92-1.37c.46-.55,1.01-1.37,1.19-1.74.18-.37.55-.82.73-1.01.27-.27.55-.64.73-1.01.18-.27.46-.92.73-1.28.46-.64.46-.82.46-1.37-.09-.27,0-.55,0-.64.09-.09.55-.09,1.1-.09ZM195.17,34.14c-.55.18-1.19.37-1.37.37-.27,0-.73.09-.92.27-.27.18-.92.37-1.46.55s-1.1.37-1.28.55c-.18.27-.64.55-1.01.64-.46.18-.82.46-1.01.55-.27.27-1.92,1.01-2.2,1.01-.09,0-.37.27-.64.55-.37.37-.55.55-.92.55-.46,0-1.01.46-1.01.82s-2.2,2.56-2.75,2.84c-.18,0-.46.46-.73.92-.27.64-.64,1.01-1.28,1.56-.46.37-1.01.82-1.19,1.1-.27.46-.64,1.01-1.74,2.2-.64.82-1.37,1.92-1.46,2.47-.09.27-.27.73-.46,1.01s-.37.55-.37.64-.27.64-.64,1.28c-.73,1.46-1.1,3.3-.55,3.84.18.18.55.18,1.83,0,1.1-.18,2.65-.73,3.57-1.28.27-.27.55-.37.64-.37s.27-.18.46-.37c.09-.18.46-.37.64-.46.55-.27,1.92-1.37,3.75-3.02l1.37-1.28c.46-.46,1.19-.92,1.46-1.19,1.19-.73,8.97-8.51,9.79-9.89.27-.37.55-.82.82-1.01.18-.18.64-.64,1.01-1.1.37-.46.82-1.46,1.1-1.74.64-.64.73-1.01.73-1.28s-.92-.73-1.65-.92c-.82-.18-1.37-.18-2.56.18Z"/>
        <path class="cls-1" d="M257.32,45.86c-.09.18-.37.55-.55.92-.09.27-.37.73-.64,1.01-.27.37-.55.73-.55.82s-.55.73-1.19,1.37c-.73.73-1.28,1.37-1.28,1.56-.09.09-.27.37-.55.46s-.82.46-1.28.92c-.37.46-.92.92-1.28,1.1-.27.09-1.01.73-1.65,1.37-.64.55-1.28,1.19-1.65,1.37s-.73.64-1.01.92c-.37.46-1.01.82-2.47,1.56-1.1.64-2.11,1.19-2.29,1.37-.09.18-.46.37-.64.37-.18.09-.55.27-.82.55-.27.18-.82.55-1.28.73-.46.27-.92.55-1.01.55-.09.09-.27.27-.46.27-.09,0-.27.09-.55.18-.64.37-1.74.92-2.01.92-.09,0-.55.09-1.01.37-.55.37-.82.46-1.37.37-.27-.09-.64-.18-.82-.27s-.64-.18-1.1-.18c-.55,0-.92-.09-1.37-.37-.27-.18-.73-.37-1.01-.46-.55-.09-1.56-.73-2.29-1.46-.37-.27-.82-.73-1.1-.82-.46-.27-.64-.46-1.01-1.28-.27-.55-.64-1.56-.82-2.2-.37-1.19-.37-1.56-.27-2.75.09-.73.18-1.56.18-1.92.09-.27.27-1.01.37-1.65.09-.55.37-1.28.46-1.65.18-.37.27-.82.27-1.01,0-.46.18-.92.55-1.28.46-.46,1.83-3.2,1.83-3.48,0-.18.27-.73.64-1.19.46-.55.92-1.37,1.1-1.83.27-.55.64-1.1.82-1.28.18-.27.82-1.1,1.28-1.83.46-.82.92-1.56,1.01-1.65s.27-.27.46-.55c.09-.09,1.1-1.28,1.28-1.56.73-.73,1.65-1.83,1.65-2.01,0-.09.37-.64.92-1.19,1.01-1.01,1.74-2.47,2.11-2.93.27-.37.55-.73.64-.92.18-.27.37-.55.46-.82.09-.37.09-.55.64-.64l.73-.18c.18,0,1.37.46,2.01.82,1.28.73,2.65,1.83,2.93,2.47,0,.27.37.64.55.82.46.37.46.46.55,1.74l.09,1.28-.46.82c-.27.46-.64,1.1-.92,1.37-.55.73-1.19,2.11-1.74,2.93-.27.55-.73,1.19-1.01,1.46-.27.27-.55.55-.55.64s-.27.46-.64.82c-.27.37-.82,1.1-1.1,1.56-.18.55-.46,1.01-.55,1.01-.09.09-.27.46-.46.82l-.55.82c-.09.09-.37.37-.55.82l-.55.73c-.27.09-.73.92-1.1,1.83-.09.37-.37.73-.46.82s-.27.46-.37.73c-.09.27-.27.73-.46,1.1-1.74,3.48-2.01,4.03-2.11,4.67,0,.27-.27,1.01-.55,1.46-.27.73-.46,1.01-.27,1.19,0,.09.27.37.37.64.37.46.46.55.92.46.92-.09,1.56-.37,2.29-.73.37-.27,1.65-1.01,2.84-1.65,1.92-1.01,2.75-1.56,4.3-2.56.27-.18.64-.46.92-.55.18-.09.46-.37.64-.46.09-.18.64-.55,1.19-1.01.55-.27,1.1-.64,1.19-.82l.82-.55c.73-.55,2.29-1.74,3.39-2.75.37-.37,1.19-1.01,1.83-1.46,1.92-1.37,4.76-4.12,4.94-4.67.18-.37.55-.46.55-.09l.18,1.28c.27,1.37.18,2.11-.18,2.47ZM243.59,18.86c-.64-.92-.82-2.01-.27-2.75.18-.27.37-.73.46-1.01.09-.64.55-1.28,1.19-2.01.64-.64,1.46-1.74,1.65-2.29,0-.27.18-.55.46-.82.09-.18.27-.55.27-.64s0-.27.09-.46c0-.09.27-.18.55-.18.46,0,.64.18,1.46.92.46.55,1.01,1.19,1.19,1.46.09.27.37.55.64.64.18.18.46.46.55.73.09.27.27.64.46.92.27.27.27.73.37,1.65l.09,1.28-.92.82c-.55.55-1.01.92-1.1.92s-2.01,2.29-2.01,2.47c0,.09-.18.27-.37.37s-.46.46-.64.73c-.18.46-.27.55-.82.64s-.73,0-1.19-.27c-.46-.37-1.65-2.01-1.65-2.29,0-.09-.18-.37-.46-.82Z"/>
        <path class="cls-1" d="M266.47,23.89c.73.09,2.11.64,2.75,1.01.27.27.82.55,1.37.82,1.01.55,1.65,1.28,1.92,1.92.18.27.27.55.46.64.18.18.64,1.28.92,2.11.27,1.19.27,1.65,0,2.38-.18.37-.27.82-.27.92,0,.55-.64,2.11-1.1,2.84-.27.37-.55.82-.64,1.01,0,.18-.37.64-.73,1.01-.37.37-.82.92-.92,1.19-.18.46-.92,1.28-1.1,1.28-.27,0-3.84,4.67-3.84,5.03,0,.27,2.29-1.19,3.11-2.01.27-.27,1.01-.82,1.65-1.28.64-.37,1.37-.92,1.65-1.19.55-.46,1.01-.82,1.83-1.19.27-.09.64-.37.92-.64.27-.18.82-.55,1.19-.73s1.01-.64,1.37-1.01l1.28-1.01c.27-.09.73-.37.82-.55.46-.37,2.38-1.65,2.56-1.65.09,0,.46-.27.92-.55l.82-.55c.18,0,.92-.46,2.01-1.19.37-.27.82-.46,1.1-.55.27-.09.55-.27.73-.37.37-.46,1.74-1.19,2.2-1.28.27,0,.55-.18.64-.27.18-.18,1.74-.37,2.93-.27.64,0,2.84.55,3.39.92.82.55,1.65,1.65,2.2,3.48l.27.82-.37,1.01c-.18.55-.46,1.19-.64,1.46-.18.37-.55.92-1.28,2.47-.27.46-.64.82-1.56,1.65-.27.27-.37.55-.37.73s-.27.64-.55,1.01c-.37.46-.55.82-.55.82,0,.27-1.01,1.37-2.29,2.56l-1.19,1.28c-.37.55-1.46,1.65-2.2,2.47-.82.82-1.46,1.56-1.46,1.65l-.73.92c-.27.46-.64,1.01-.82,1.19-.09.27-.27.55-.37.82-.37.64-.82,2.2-.82,2.56,0,.46,0,.55.27.55.37.18,1.19,0,1.46-.27.18-.09.46-.09.73-.09.18,0,.82-.27,1.28-.55.46-.27,1.65-.92,2.56-1.37.92-.46,1.74-.92,1.83-1.01.27-.27.46-.37,1.83-1.1,1.1-.55,1.65-.92,3.11-2.2.46-.37,1.01-.82,1.28-.92.27-.09.73-.27.82-.46l1.56-1.28c.64-.64,1.46-1.28,1.74-1.56l1.01-.82c.27-.09.82-.55,1.28-1.1.46-.46.92-.92,1.1-1.01.09-.18.46-.55.73-.92.92-1.19,1.37-1.56,1.56-1.46.09.09.09.73-.18,1.01-.09.18-.09.55-.09.73s-.27.64-.46.92l-.92,1.65c-.27.55-.64,1.19-.82,1.37-.27.18-.73.82-1.1,1.28-1.01,1.19-2.38,2.56-3.3,3.3-.37.27-.82.64-.82.82-.18.27-.55.55-.82.73s-.64.46-.73.64-.27.46-.55.55c-1.19.82-1.92,1.37-2.29,1.74-.18.37-.82.82-1.28,1.19-.55.37-.92.64-.92.73s-.27.27-.46.37c-.27.09-.92.64-1.56,1.19-.55.64-1.19,1.1-1.46,1.1-.18.09-.82.37-1.37.73-.82.46-1.28.64-2.2.73-.64.09-1.37.18-1.65.18-1.56.27-1.92.27-2.93-.18-1.46-.64-2.65-1.19-2.84-1.46-.09-.09-.37-.27-.64-.37s-.46-.37-.55-.55c0-.18-.27-.46-.46-.64-.27-.09-.55-.55-.73-1.1-.18-.37-.37-.92-.46-1.01-.09-.18-.27-.92-.55-1.74-.27-1.37-.27-1.46-.18-2.11.18-.37.18-.82.18-1.01s.09-.73.27-1.19c.09-.46.37-1.19.46-1.56.18-.82.73-2.01,1.19-2.47l.82-1.37c.37-.64.92-1.46,1.56-2.11.46-.46,1.28-1.37,1.74-1.92.37-.55,1.1-1.46,1.56-1.92l.92-.92c0-.09.09-.18.18-.27.37-.09,2.56-2.47,2.65-2.93.18-.27.09-.27-.18-.27-.18,0-.37,0-.46.18l-2.11,1.37c-.37.09-.92.55-1.19.82-.46.37-.92.64-1.19.82-.37.09-.73.46-1.19.92-.37.46-.92.92-1.19,1.01-.73.37-1.46.92-1.74,1.19-.09.18-.64.55-1.01.82-1.56,1.1-1.92,1.37-3.48,2.75-.82.82-1.65,1.56-1.92,1.56-.27.09-.64.46-.82.82-.18.27-.46.55-.55.55-.09.09-.92.82-1.74,1.65-.92.82-1.83,1.56-2.01,1.65s-.92.82-1.56,1.56c-.73.73-1.74,1.83-2.38,2.38-.55.55-1.19,1.19-1.37,1.46-.18.27-.55.55-.73.64-.73.37-1.74,1.1-2.38,1.92-.18.37-.73.64-1.56,1.1-1.1.55-1.28.55-2.56.55l-1.28.09-1.19-.73c-2.38-1.56-3.48-3.66-3.02-5.49.09-.37.27-1.01.27-1.56.09-1.1.37-1.83,1.28-4.03.27-.64.64-1.37.64-1.46,0-.27.27-.64.55-.92.27-.37.55-.73.64-1.01.18-.27.27-.55.46-.64l.73-1.01c.37-.55.82-1.19,1.01-1.46l.82-1.1c.18-.37.46-.73.73-1.01.09-.18.46-.64.64-.92.18-.37.55-.82.82-1.19.37-.37,1.1-1.37,1.65-2.2,1.37-2.01,2.01-3.02,2.56-3.57.18-.27.73-1.1,1.01-1.83.46-.73.82-1.37.82-1.46.27-.09,2.29-3.2,2.47-3.66.18-.55.18-1.1-.18-1.28-.46-.27-.27-.82.37-1.1.27-.18.55-.27.92-.18Z"/>
        <path class="cls-1" d="M327.98,23.98c.27.37.92.64,1.37.64.27,0,.64.18.92.27.09.18.82.55,1.37.73.64.27,1.46.64,1.74.92.46.18.82.46,1.01.46.46.18,2.11,1.19,2.38,1.56.18.18.73.64,2.29,1.65.37.18.92.64,1.19,1.01.46.37.73.55.92.55.46,0,1.19.55,1.28,1.28.18.37.37.64.82.92,1.92,1.28,3.39,3.02,3.39,3.94,0,.64-.46,1.28-2.2,2.84l-.73.73c-.27.27-.82.92-1.37,1.28-.46.46-1.01,1.01-1.1,1.37-.18.37-.46.73-.55.73-.27.09-1.92,2.65-2.56,3.94-.18.46-.46.82-.64,1.1-.27.18-.55.73-.73,1.28-.27.82-.55,1.37-.92,2.2-.09.27-.37,1.1-.55,1.83-.09.73-.27,1.74-.37,2.2-.18,1.01-.18,1.19.73,1.37.46.09.73.09,1.65-.18.55-.18,1.19-.37,1.28-.46.18-.09.64-.27,1.1-.37.46-.18,1.1-.55,1.46-.92.64-.55.92-.73,2.11-1.56,1.65-1.1,2.38-1.65,4.03-2.93.92-.82,2.29-2.01,2.93-2.65.64-.73,1.37-1.37,1.56-1.46.27-.18.46-.37.46-.37,0-.09.37-.46.73-.82.37-.46.92-1.1,1.1-1.37.18-.27.46-.55.46-.55.09,0,.27-.27.37-.55.18-.27.46-.82.82-1.19.27-.37.73-1.19,1.1-1.74.46-1.01,1.01-1.46,1.19-1.37,0,.09.09.55.09,1.01.09.64,0,.92-.18,1.37-.18.27-.46.92-.55,1.37l-.55,1.28c-.18.27-.27.73-.27.92,0,.55-1.19,2.84-1.92,3.84-.37.55-.73,1.01-.73,1.1,0,0,0,.18-.18.27-.09.09-.55.73-1.19,1.46-.55.64-1.37,1.56-1.92,2.01-.55.46-1.01,1.01-1.19,1.19-.09.27-.27.46-.37.55l-3.84,3.57c-.37.37-1.19.92-2.29,1.46-.92.46-1.83.92-1.83,1.01-.09.09-.55.09-.92.18-.46,0-1.01.09-1.37.18-1.83.37-4.12-.18-5.4-1.28-.18-.18-.55-.37-.82-.55l-1.46-.92c-.46-.27-.92-.64-.92-.64,0-.09-.18-.37-.46-.73-.82-.92-1.46-3.2-1.46-5.22,0-.64-.09-1.19-.09-1.28-.09-.09-.37.18-.82.46-.37.37-.82.73-1.1.82-.18.09-.92.82-1.74,1.56-1.56,1.65-2.47,2.47-3.11,2.75-.18.09-.46.37-.55.55-.09.09-.46.27-.82.46-.92.37-1.46.64-2.56,1.56-.46.46-1.1.92-1.37,1.01-.18.09-.64.27-1.01.55-.92.55-1.28.64-2.2.82-.64,0-1.01,0-1.46-.18-.27-.09-.64-.09-.73-.09-.18,0-.55-.27-.92-.55-.37-.27-.82-.46-.92-.46s-.46-.27-.82-.46c-.46-.27-.73-.46-.82-.46s-.64-.46-1.28-1.01l-1.28-1.28c-1.01-.92-1.74-2.56-2.01-4.12-.37-3.48-.27-5.22.37-7.14.18-.46.37-1.01.37-1.28.09-.27.37-.82.64-1.19.27-.37.46-.92.55-1.19,0-.27.27-.64.55-.92s.55-.73.73-1.1c.09-.37.27-.73.37-.82l.46-.73c.09-.18.37-.46.55-.55.18-.09.46-.37.55-.64.09-.27.37-.55.55-.73.18-.09.37-.55.55-.82.18-.27.64-.82,1.1-1.28.37-.46.92-1.1,1.1-1.37.18-.37.82-1.01,1.46-1.56.73-.55,1.56-1.37,2.01-1.83.46-.37,1.01-.92,1.37-1.19.73-.55,1.74-1.28,2.29-1.83.27-.18.73-.46,1.01-.55l.92-.37c.18-.18.55-.27.73-.37.18-.09.64-.37,1.1-.55.37-.27.92-.46,1.1-.55.37-.09,1.56-.64,2.38-1.01l.92-.27c.27,0,.64-.18.82-.37.37-.46.55-.46.82-.18ZM333.11,33.59c-.27,0-.92.09-1.46.27-1.56.09-2.47.37-3.2.92-.27.18-.64.46-.73.46s-.73.27-1.46.64c-.64.37-1.37.73-1.46.73-.18,0-.55,0-.73.09-.46.18-1.46,1.01-1.65,1.37-.09.18-.46.55-.92.82-.37.46-1.01.92-1.28,1.19-1.01.92-2.38,1.92-2.75,2.11-.27.18-.46.37-.46.46s-.37.37-.64.82c-1.37,1.37-1.74,1.74-1.83,1.92-.18.37-1.46,2.29-1.56,2.38-.18.09-1.1,1.92-1.1,2.11s-.18.37-.37.64c-.46.46-1.37,2.65-1.56,3.94-.46,2.75-.37,2.84.92,2.75.46,0,.92-.18,1.01-.27.27-.18,1.92-1.01,2.2-1.01.09,0,.27-.09.37-.27.18-.18.73-.55,1.19-.73s1.01-.55,1.19-.73c.27-.18.82-.55,1.37-.82,1.46-.82,3.11-2.01,4.39-3.2,1.46-1.28,2.2-1.83,3.3-2.56.37-.27,1.1-.82,1.46-1.19l1.56-1.46c.55-.37,1.37-1.19,2.01-1.92,1.01-1.01,1.19-1.19,1.83-2.65.27-.82.73-1.74.92-2.11.18-.27.37-.73.46-1.1.09-.27.37-.82.64-1.19,1.19-1.83,1.28-1.92.64-2.2-.46-.27-1.74-.37-2.29-.18Z"/>
        <path class="cls-1" d="M400.2,41.28c-.27.46-.46,1.01-.46,1.19,0,.09-.09.18-.09.27-.18,0-.37.27-.55.64-.18.27-.46.64-.64.73-.09.09-.37.37-.46.64-.09.18-.55.73-1.01,1.28-.82,1.01-2.01,2.29-2.29,2.56l-4.12,4.3c-.27.27-.73.55-1.1.73-.27.18-.64.37-.73.46,0,.18-.09.27-.27.27-.18.09-.46.37-.64.73-.27.27-.73.64-1.19.92-.37.18-.92.64-1.19.92-.18.27-.73.73-1.19,1.01-.46.27-.92.64-1.1.82-.18.09-.82.55-1.65.92-.73.37-1.46.82-1.65,1.01-.18.09-.64.37-1.01.46-.46.18-1.19.55-1.74.82-.46.27-1.1.55-1.37.55-.27.09-.73.27-.82.37-.46.27-1.37.55-2.11.55-.37,0-.92.18-1.37.27-.82.37-2.2.46-3.66.27-.46,0-1.56-.09-2.47-.18-1.65-.18-2.38-.46-3.48-1.28-.27-.18-.64-.27-1.01-.46-.37-.09-.73-.37-1.01-.64-.18-.18-.55-.46-.82-.46-.18,0-.46-.27-.64-.46-.18-.18-.55-.73-.82-1.01-.27-.37-.64-.82-.64-1.01-.09-.09-.27-.37-.37-.37-.18-.18-.37-.46-.55-.82-.09-.27-.27-.73-.37-.82l-.82-1.92c-.27-.73-.37-1.1-.27-2.93,0-2.47.18-3.94.92-6.04.09-.46.27-1.1.27-1.37,0-.37,0-.64.27-.92.18-.18.37-.55.37-.73,0-.27,1.01-2.47,1.65-3.39.18-.27.46-.82.55-1.1,0-.27.27-.73.46-.92.18-.27.37-.55.37-.64l1.28-2.47c-.18.46.18,0,.18-.64-.09-.18-.27-.27-.46-.27-.27,0-.73-.09-1.19-.27-.64-.18-1.01-.27-1.74-.18l-1.01.09-.64-.73c-.37-.37-.82-.92-.92-1.19-.18-.27-.27-.64-.46-.73-.37-.46-.55-1.65-.55-3.02.09-1.56.27-1.83,1.01-1.37.27.09.46.09.73,0,.37-.09.82-.09,2.29.09,1.1.18,2.84.27,3.94.37,1.1,0,2.11.09,2.2.09.18.09.73.09,1.19.09.18,0,.37,0,.55-.09l2.29-3.66.73-1.19c.46-.73,1.01-1.46,1.28-1.74.18-.18.55-.73.82-1.19.18-.37.64-1.1,1.1-1.65.37-.55.09-.09.18-.46.18-.37.46-.73.55-.82.18-.09,2.47-3.11,2.47-3.3,0-.09.27-.37.55-.73l.55-.73c0-.18.18-.37.37-.46.18-.18.46-.37.55-.37.55,0,3.2,1.1,4.03,1.56l1.28.73c.27.09.64.46.92.73.73.73.18.27,1.46,1.28,1.01.92,1.56,2.01,1.56,3.02,0,.73-.64,2.11-1.19,2.56-.27.18-.73.73-.92,1.19-.27.55-.64,1.1-1.1,1.46l-3.02,3.66c-.18.18.09.27.92.18.46,0,1.19,0,1.56.09.55.09.73.09,1.1-.09.18-.09.64-.27,1.1-.27,1.92,0,2.2-.27,3.75-.09.92.09.92-.55,1.37.18.18.18.55.37.73.46.27.46.64,1.56.92,2.75l-.18,1.37c-.37.27-.55.46-.64.82-.18.46-.18.55-1.01.82-.82.27-1.19.27-7.41.09-5.22-.27-6.04-.18-7.14.09-.18,0-.37.09-.55.09l-.64.82c-1.46,1.37-1.83,1.83-2.01,2.29l-.37.46-1.37,1.46c-.09.27-.46.64-.64.73-.37.27-1.65,2.2-2.01,3.02-.09.27-.27.55-.37.55s-.27.27-.37.55c-.09.27-.27.55-.55.82-.18.18-.82,1.01-1.37,1.92-.55.92-1.28,1.92-1.56,2.2-.27.27-.37.55-.37.73,0,.09-.18.27-.27.46-1.28,2.84-2.01,4.3-2.01,6.77,0,.09.46,1.65.73,2.11.18.37.55.82.82.92,1.19,1.01,1.56,1.28,2.47,1.56.18.09.55.18.73.18,1.19.09,2.75.18,5.03-.55.82-.37,1.65-.64,1.83-.64.09,0,.37-.09,1.1-.46.18-.09.82-.37,1.46-.73.55-.37,1.37-.73,1.56-1.01.27-.18.55-.37.64-.37.18,0,.55-.18.82-.37.46-.18.82-.37.92-.37s.46-.27.92-.55c.37-.37,1.1-.82,1.65-1.1.46-.37,1.19-.92,1.74-1.28,1.83-1.28,2.56-1.83,2.93-2.01.27-.09.92-.55,1.46-1.01,1.19-1.1,3.75-3.48,3.75-3.66,0,0,.27-.46.64-.92.46-.46.82-.92,1.01-1.01.09-.18.27-.37.37-.46.27-.27,1.56-1.28,1.83-1.74.55-.82,1.56-1.56,2.56-2.84l1.46-1.65c.37-.64.64-.73.73-.27.09.27.18.64.37,1.1.37.92.18,1.83-.18,2.93ZM381.53,24.17c-.09.09-.09.18-.18.27l1.28-1.46-1.1,1.19Z"/>
        <path class="cls-1" d="M425,45.86c-.09.18-.37.55-.55.92-.09.27-.37.73-.64,1.01-.27.37-.55.73-.55.82s-.55.73-1.19,1.37c-.73.73-1.28,1.37-1.28,1.56-.09.09-.27.37-.55.46s-.82.46-1.28.92c-.37.46-.92.92-1.28,1.1-.27.09-1.01.73-1.65,1.37-.64.55-1.28,1.19-1.65,1.37s-.73.64-1.01.92c-.37.46-1.01.82-2.47,1.56-1.1.64-2.11,1.19-2.29,1.37-.09.18-.46.37-.64.37-.18.09-.55.27-.82.55-.27.18-.82.55-1.28.73-.46.27-.92.55-1.01.55-.09.09-.27.27-.46.27-.09,0-.27.09-.55.18-.64.37-1.74.92-2.01.92-.09,0-.55.09-1.01.37-.55.37-.82.46-1.37.37-.27-.09-.64-.18-.82-.27s-.64-.18-1.1-.18c-.55,0-.92-.09-1.37-.37-.27-.18-.73-.37-1.01-.46-.55-.09-1.56-.73-2.29-1.46-.37-.27-.82-.73-1.1-.82-.46-.27-.64-.46-1.01-1.28-.27-.55-.64-1.56-.82-2.2-.37-1.19-.37-1.56-.27-2.75.09-.73.18-1.56.18-1.92.09-.27.27-1.01.37-1.65.09-.55.37-1.28.46-1.65.18-.37.27-.82.27-1.01,0-.46.18-.92.55-1.28.46-.46,1.83-3.2,1.83-3.48,0-.18.27-.73.64-1.19.46-.55.92-1.37,1.1-1.83.27-.55.64-1.1.82-1.28.18-.27.82-1.1,1.28-1.83.46-.82.92-1.56,1.01-1.65s.27-.27.46-.55c.09-.09,1.1-1.28,1.28-1.56.73-.73,1.65-1.83,1.65-2.01,0-.09.37-.64.92-1.19,1.01-1.01,1.74-2.47,2.11-2.93.27-.37.55-.73.64-.92.18-.27.37-.55.46-.82.09-.37.09-.55.64-.64l.73-.18c.18,0,1.37.46,2.01.82,1.28.73,2.65,1.83,2.93,2.47,0,.27.37.64.55.82.46.37.46.46.55,1.74l.09,1.28-.46.82c-.27.46-.64,1.1-.92,1.37-.55.73-1.19,2.11-1.74,2.93-.27.55-.73,1.19-1.01,1.46-.27.27-.55.55-.55.64s-.27.46-.64.82c-.27.37-.82,1.1-1.1,1.56-.18.55-.46,1.01-.55,1.01-.09.09-.27.46-.46.82l-.55.82c-.09.09-.37.37-.55.82l-.55.73c-.27.09-.73.92-1.1,1.83-.09.37-.37.73-.46.82s-.27.46-.37.73c-.09.27-.27.73-.46,1.1-1.74,3.48-2.01,4.03-2.11,4.67,0,.27-.27,1.01-.55,1.46-.27.73-.46,1.01-.27,1.19,0,.09.27.37.37.64.37.46.46.55.92.46.92-.09,1.56-.37,2.29-.73.37-.27,1.65-1.01,2.84-1.65,1.92-1.01,2.75-1.56,4.3-2.56.27-.18.64-.46.92-.55.18-.09.46-.37.64-.46.09-.18.64-.55,1.19-1.01.55-.27,1.1-.64,1.19-.82l.82-.55c.73-.55,2.29-1.74,3.39-2.75.37-.37,1.19-1.01,1.83-1.46,1.92-1.37,4.76-4.12,4.94-4.67.18-.37.55-.46.55-.09l.18,1.28c.27,1.37.18,2.11-.18,2.47ZM411.27,18.86c-.64-.92-.82-2.01-.27-2.75.18-.27.37-.73.46-1.01.09-.64.55-1.28,1.19-2.01.64-.64,1.46-1.74,1.65-2.29,0-.27.18-.55.46-.82.09-.18.27-.55.27-.64s0-.27.09-.46c0-.09.27-.18.55-.18.46,0,.64.18,1.46.92.46.55,1.01,1.19,1.19,1.46.09.27.37.55.64.64.18.18.46.46.55.73.09.27.27.64.46.92.27.27.27.73.37,1.65l.09,1.28-.92.82c-.55.55-1.01.92-1.1.92s-2.01,2.29-2.01,2.47c0,.09-.18.27-.37.37s-.46.46-.64.73c-.18.46-.27.55-.82.64s-.73,0-1.19-.27c-.46-.37-1.65-2.01-1.65-2.29,0-.09-.18-.37-.46-.82Z"/>
        <path class="cls-1" d="M434.16,23.89c.73.09,2.11.64,2.75,1.01.27.27.82.55,1.37.82,1.01.55,1.65,1.28,1.92,1.92.18.27.27.55.46.64.18.18.64,1.28.92,2.11.27,1.19.27,1.65,0,2.38-.18.37-.27.82-.27.92,0,.55-.64,2.11-1.1,2.84-.27.37-.55.82-.64,1.01,0,.18-.37.64-.73,1.01-.37.37-.82.92-.92,1.19-.18.46-.92,1.28-1.1,1.28-.27,0-3.84,4.67-3.84,5.03,0,.27,2.29-1.19,3.11-2.01.27-.27,1.01-.82,1.65-1.28.64-.37,1.37-.92,1.65-1.19.55-.46,1.01-.82,1.83-1.19.27-.09.64-.37.92-.64.27-.18.82-.55,1.19-.73s1.01-.64,1.37-1.01l1.28-1.01c.27-.09.73-.37.82-.55.46-.37,2.38-1.65,2.56-1.65.09,0,.46-.27.92-.55l.82-.55c.18,0,.92-.46,2.01-1.19.37-.27.82-.46,1.1-.55.27-.09.55-.27.73-.37.37-.46,1.74-1.19,2.2-1.28.27,0,.55-.18.64-.27.18-.18,1.74-.37,2.93-.27.64,0,2.84.55,3.39.92.82.55,1.65,1.65,2.2,3.48l.27.82-.37,1.01c-.18.55-.46,1.19-.64,1.46-.18.37-.55.92-1.28,2.47-.27.46-.64.82-1.56,1.65-.27.27-.37.55-.37.73s-.27.64-.55,1.01c-.37.46-.55.82-.55.82,0,.27-1.01,1.37-2.29,2.56l-1.19,1.28c-.37.55-1.46,1.65-2.2,2.47-.82.82-1.46,1.56-1.46,1.65l-.73.92c-.27.46-.64,1.01-.82,1.19-.09.27-.27.55-.37.82-.37.64-.82,2.2-.82,2.56,0,.46,0,.55.27.55.37.18,1.19,0,1.46-.27.18-.09.46-.09.73-.09.18,0,.82-.27,1.28-.55.46-.27,1.65-.92,2.56-1.37s1.74-.92,1.83-1.01c.27-.27.46-.37,1.83-1.1,1.1-.55,1.65-.92,3.11-2.2.46-.37,1.01-.82,1.28-.92.27-.09.73-.27.82-.46l1.56-1.28c.64-.64,1.46-1.28,1.74-1.56l1.01-.82c.27-.09.82-.55,1.28-1.1.46-.46.92-.92,1.1-1.01.09-.18.46-.55.73-.92.92-1.19,1.37-1.56,1.56-1.46.09.09.09.73-.18,1.01-.09.18-.09.55-.09.73s-.27.64-.46.92l-.92,1.65c-.27.55-.64,1.19-.82,1.37-.27.18-.73.82-1.1,1.28-1.01,1.19-2.38,2.56-3.3,3.3-.37.27-.82.64-.82.82-.18.27-.55.55-.82.73s-.64.46-.73.64-.27.46-.55.55c-1.19.82-1.92,1.37-2.29,1.74-.18.37-.82.82-1.28,1.19-.55.37-.92.64-.92.73s-.27.27-.46.37c-.27.09-.92.64-1.56,1.19-.55.64-1.19,1.1-1.46,1.1-.18.09-.82.37-1.37.73-.82.46-1.28.64-2.2.73-.64.09-1.37.18-1.65.18-1.56.27-1.92.27-2.93-.18-1.46-.64-2.65-1.19-2.84-1.46-.09-.09-.37-.27-.64-.37s-.46-.37-.55-.55c0-.18-.27-.46-.46-.64-.27-.09-.55-.55-.73-1.1-.18-.37-.37-.92-.46-1.01-.09-.18-.27-.92-.55-1.74-.27-1.37-.27-1.46-.18-2.11.18-.37.18-.82.18-1.01s.09-.73.27-1.19c.09-.46.37-1.19.46-1.56.18-.82.73-2.01,1.19-2.47l.82-1.37c.37-.64.92-1.46,1.56-2.11.46-.46,1.28-1.37,1.74-1.92.37-.55,1.1-1.46,1.56-1.92l.92-.92c0-.09.09-.18.18-.27.37-.09,2.56-2.47,2.65-2.93.18-.27.09-.27-.18-.27-.18,0-.37,0-.46.18l-2.11,1.37c-.37.09-.92.55-1.19.82-.46.37-.92.64-1.19.82-.37.09-.73.46-1.19.92-.37.46-.92.92-1.19,1.01-.73.37-1.46.92-1.74,1.19-.09.18-.64.55-1.01.82-1.56,1.1-1.92,1.37-3.48,2.75-.82.82-1.65,1.56-1.92,1.56-.27.09-.64.46-.82.82-.18.27-.46.55-.55.55-.09.09-.92.82-1.74,1.65-.92.82-1.83,1.56-2.01,1.65s-.92.82-1.56,1.56c-.73.73-1.74,1.83-2.38,2.38-.55.55-1.19,1.19-1.37,1.46-.18.27-.55.55-.73.64-.73.37-1.74,1.1-2.38,1.92-.18.37-.73.64-1.56,1.1-1.1.55-1.28.55-2.56.55l-1.28.09-1.19-.73c-2.38-1.56-3.48-3.66-3.02-5.49.09-.37.27-1.01.27-1.56.09-1.1.37-1.83,1.28-4.03.27-.64.64-1.37.64-1.46,0-.27.27-.64.55-.92.27-.37.55-.73.64-1.01.18-.27.27-.55.46-.64l.73-1.01c.37-.55.82-1.19,1.01-1.46l.82-1.1c.18-.37.46-.73.73-1.01.09-.18.46-.64.64-.92.18-.37.55-.82.82-1.19.37-.37,1.1-1.37,1.65-2.2,1.37-2.01,2.01-3.02,2.56-3.57.18-.27.73-1.1,1.01-1.83.46-.73.82-1.37.82-1.46.27-.09,2.29-3.2,2.47-3.66.18-.55.18-1.1-.18-1.28-.46-.27-.27-.82.37-1.1.27-.18.55-.27.92-.18Z"/>
        <path class="cls-1" d="M496.86,24.07l1.28.55c.46.09,1.01.37,1.19.55.27.09.82.37,1.37.55.55.18,1.1.46,1.37.73,1.65,1.65,2.01,1.92,2.56,2.11.46.27.73.55,1.19,1.28.64,1.01.73,1.1,1.46,1.46.37.18.92.55,1.28.92.27.37.82.92,1.1,1.19.27.18.64.73.92,1.1.27.37.55.82.64.82.46.27,1.28,1.28,1.28,1.56,0,.09.18.46.27.73l.27.46-.37.82c-.18.37-.55.92-.73,1.19-.09.27-.46.82-.64,1.19-.18.37-.46.82-.55.92s-.37.46-.55.82c-.18.27-.55.82-.82,1.1s-.73.82-.92,1.1c-.18.37-.73,1.01-1.19,1.46-.37.46-.64.92-.64,1.01s-.37.46-.73.82c-.92,1.19-1.74,2.2-2.01,2.75-.09.18-.27.46-.46.55-.09,0-1.46,1.56-1.74,2.01-.27.55-.73,1.1-1.19,1.56-.27.27-.46.64-.46.73s-.27.46-.55.73c-.55.64-1.65,2.38-1.65,2.47,0,.18-.64,1.01-1.37,1.83-.64.82-.92,1.37-.73,1.65.18.27.82.37,1.56.27.37,0,1.19.09,2.01.18.73.09,1.65.27,2.11.37.37.09.92.18,1.1.27.27,0,.82.18,1.19.27.55.09,1.28.27,1.65.37l1.56.46c.27.09.82.18,1.01.27s.73.37,1.19.46c.46.18.92.27.92.37.18.09.55.27,1.01.37l1.74.82c.92.46,1.28.73,2.01,1.65.46.55.92,1.19.92,1.37.27.82-.46,1.92-1.1,1.92-.55,0-1.83-.55-2.2-.92-.37-.46-1.37-.82-3.3-1.28l-1.56-.55c-.37-.27-1.19-.55-1.74-.73-.55-.18-1.19-.46-1.37-.55-.55-.18-1.83-.37-3.75-.37l-2.11-.27c-.92-.09-1.46-.09-2.75,0l-2.11.18c-.27,0-.82.09-1.28.27-.55.09-1.01.27-1.19.27s-.73.46-1.37,1.37l-1.28,1.65c-.55.55-1.19,1.37-1.46,1.74-.27.46-.82,1.01-1.1,1.37-.27.27-.82.92-1.1,1.37-1.01,1.19-2.11,2.2-3.02,2.65l-1.1.64c-.37.37-.73.55-1.56.73-.37.09-.82.27-1.1.37-1.65.73-2.01.82-3.39,1.01-.82.09-1.65.09-1.83.18-.09.09-.55-.09-1.01-.27-.37-.18-.82-.37-.92-.37s-.46-.09-.92-.27c-1.01-.46-2.11-1.56-2.75-2.65l-.82-1.28c-.27-.27-.55-.64-.55-.82s-.27-.73-.46-1.19l-.46-.82.18-1.01c.27-.92.27-1.01,1.19-1.74.46-.37,1.19-1.01,1.56-1.46.55-.73,1.37-1.28,2.93-2.01.55-.27,1.19-.64,1.46-.73.82-.55,5.22-1.74,6.87-1.92.46-.09,1.46-.27,2.29-.55.82-.18,1.74-.37,2.01-.37s.92-.09,1.46-.27c1.1-.27,1.56-.55,2.11-1.65.18-.46.55-1.01.64-1.28.82-1.1,1.56-2.29,2.11-3.39l.92-1.28c.18-.09.27-.27.27-.37.18-.46,1.01-1.74,1.83-2.75.37-.46.64-1.01.73-1.1,0-.18.18-.46.37-.64.27-.37,1.19-2.29,1.19-2.65,0-.27-.64-.09-1.28.37-.18.27-.73.55-1.19.82l-2.01,1.56c-.64.55-1.46,1.19-1.74,1.28-.64.27-2.38,1.46-2.65,1.74-.18.27-3.39,2.47-3.57,2.47-.09,0-.37.18-.73.37-.27.27-.92.55-1.28.64-1.74.46-2.65.64-3.39.64-.64,0-.82,0-1.74-.55-.55-.37-1.19-.92-1.37-1.28l-1.1-1.1c-.73-.64-1.65-2.47-1.83-3.57-.55-2.47-.18-5.22.92-8.06l.46-1.28c.09-.27.55-.92,1.01-1.65.37-.64.82-1.19.82-1.28s.27-.64.64-1.19c.46-.46,1.19-1.46,1.74-2.2.92-1.19,1.74-2.2,2.29-2.65.09-.18.37-.37.37-.46.18-.09.82-.82,1.56-1.56.64-.64,1.37-1.46,1.56-1.74.18-.27.73-.73,1.19-1.01.46-.27,1.01-.73,1.28-1.01.27-.18.92-.64,1.46-.92.46-.27,1.1-.64,1.28-.82.27-.18.55-.37.64-.37s.27-.18.55-.37c.09-.18.55-.37,1.01-.46.46-.09.92-.27,1.19-.46.18-.09.46-.27.64-.27s.55-.09.82-.27c.82-.37,3.39-.27,4.12.18ZM480.29,69.48c-.64.18-1.37.46-1.83.46-.92.27-1.92.64-2.47.92-.27.18-.64.27-.82.37-1.1.18-2.56,2.29-2.56,3.48,0,.73.09.82.82.82.55,0,2.75-.73,3.84-1.19.64-.27,1.65-1.1,2.47-2.11l1.1-1.1c.64-.64,1.19-1.56,1.1-1.74-.09-.18-.55-.18-1.65.09ZM499.78,31.31c-.37-.09-.73-.09-.73,0-.09,0-.73.18-1.46.27-1.19.09-1.56.18-2.11.55-.37.27-.82.46-.82.46-.09,0-.27.18-.46.37s-.64.46-.92.55c-.27.09-.82.37-1.1.64-.37.18-.92.64-1.19.82-.37.18-.73.46-.92.64-.18.18-.46.46-.73.55-.55.37-2.47,2.29-2.47,2.56,0,.18-2.75,2.75-2.93,2.75s-1.92,2.2-2.11,2.65c-.09.27-.46.64-.64.92-.27.18-.64.73-.92,1.1-.27.37-.55.73-.73.82-.18,0-.46.27-.64.55-.46.73-.82,1.28-1.37,1.83-.37.55-.55,1.1-.73,3.39-.09,1.37.09,1.65,1.1,1.46,1.83-.18,4.85-1.74,6.13-2.93.18-.27.64-.55.92-.73.92-.64,1.56-1.1,2.01-1.56.18-.27.55-.46.73-.46.09,0,.64-.37,1.1-.82.37-.46,1.1-1.01,1.56-1.28,2.2-1.46,3.11-2.2,3.3-2.56l1.01-.82c.46-.18.82-.55,1.01-.73l.55-.55c.37-.18,1.1-.82,3.94-3.48.55-.46,1.1-1.1,1.19-1.19.27-.46,1.01-1.19,2.38-2.47,1.28-1.28,1.28-1.46.46-1.83l-.55-.37c-.27-.27-2.2-.92-2.75-1.01-.27,0-.73-.09-1.1-.09Z"/>
        <path class="cls-1" d="M539.78,84.21c-.18-.27-2.01-.73-3.11-.92-.27,0-.73-.18-1.01-.37-2.84-2.01-3.66-2.65-4.12-3.66-.18-.55-.55-1.01-1.74-1.92-.55-.46-.82-.82-1.28-1.56-.27-.55-.64-1.37-1.01-1.83-.27-.55-.55-1.1-.64-1.37,0-.18-.27-.82-.55-1.37-.55-1.1-.64-1.65-.09-1.74.18-.09.37-.09,1.19.37,1.56.82,3.2,2.2,3.66,3.02.18.46.46.73.92,1.01.37.18.92.64,1.1.82.27.27.55.46.64.46s.55.18,1.01.46c.64.55.82.55,2.2.64,1.19,0,1.56,0,2.01-.18.27-.18.64-.18.73-.18.27.09,2.01-.27,2.84-.64.46-.18.82-.46,1.1-.64.18-.09.55-.46,1.01-.64,1.37-1.01,1.92-1.37,2.75-2.01.37-.37,1.1-1.01,1.46-1.28.46-.37,1.01-.82,1.1-1.01.27-.27.46-.37.55-.37s.27-.18.46-.46l1.28-1.1c.55-.37,1.01-.73,1.01-.82s.37-.55.82-.92l1.37-1.65c.46-.46,1.1-1.28,1.56-1.74l.82-1.01c0-.09.18-.46.55-.82.27-.27.64-.82.82-1.1.09-.37.27-.55.37-.55l.55-.92c.18-.46.73-1.19,1.19-1.65.37-.37.73-.92.73-1.01,0-.18.18-.55.46-1.01.27-.37.55-.92.64-1.19l.55-.82c.18-.27.46-.55.46-.82.09-.18.27-.64.55-.82.27-.27.55-.55.55-.64s.09-.37.27-.64l.92-1.65c-.27.27.64-1.65.46-1.46-.09,0,1.37-3.02,1.19-2.84-.64.46-2.56,2.56-2.84,3.02-.27.27-.55.64-.82.82-.27.18-.82.73-1.37,1.28-.46.37-1.1.92-1.28,1.01-.27.09-.64.46-1.01.73-1.28,1.37-2.11,2.01-2.47,2.2-.18.18-.55.46-.73.73-.18.18-.55.55-.92.82l-.82.64c-.09.18-.37.37-.64.46-.55.27-1.37.82-2.56,1.74-.55.46-1.28.82-1.56,1.01-.27.09-.73.55-1.19,1.1-.55.73-.92,1.1-1.37,1.19-.27.09-.73.27-.82.46-.18.18-.73.55-1.28.82-.46.27-1.1.64-1.46.92-1.19.82-3.84.92-5.22.18l-1.28-.73c-.37-.09-1.1-.73-1.65-1.28-1.1-1.1-1.74-2.11-1.92-3.2,0-.37-.18-1.1-.27-1.74-.55-2.65,0-6.22,1.1-7.87.18-.27.27-.55.27-.73,0-.37.37-.92.73-1.28.09-.18.27-.37.27-.46,0-.18.37-.73.73-1.37.46-.73.73-1.37.73-1.46s.82-1.19,1.1-1.56c.27-.27.55-.73.64-.92.09-.37,1.28-2.2,2.01-3.02l.82-1.19c.27-.27.64-.82.82-1.1.27-.27.55-.73.73-1.01s.64-.82,1.1-1.37c.46-.46.73-.92.73-1.01s.27-.46.55-.73c1.28-1.28,1.56-1.65,1.56-1.83,0,0,.37-.46.73-.82.37-.46.92-1.19,1.19-1.74l.37-.82h.92c.73,0,1.01,0,1.46.37.37.18.64.46.73.46.18,0,1.56.92,1.65,1.1.09,0,.37.18.73.37.27.18.55.27.55.37s.27.37.55.73q1.46,1.56,1.37,2.11c0,.27-.27.73-.37,1.1-.27.27-.46.64-.55.82l-.27.92c-.09.46-.37,1.01-.55,1.37-.27.27-.55.73-.73.92-.82,1.28-1.28,2.01-2.2,3.2-.64.82-1.92,2.38-2.2,2.65-.27.37-.73,1.1-1.1,1.56-.37.55-.82,1.1-.92,1.28-.27.27-1.1,1.46-1.37,2.01,0,.18-.37.64-.64.92-.18.27-.46.55-.46.64s-.18.27-.37.46c-.18.18-.46.46-.55.73-.18.55-.92,1.65-1.19,1.83-.18.09-1.1,1.56-1.1,1.83,0,.09-.09.46-.27.73-.27.27-.37.55-.37.64,0,.18-.18.73-.46,1.37-.55,1.65-.37,1.83,1.01,1.01.09-.09.46-.27.82-.46.37-.18.92-.55,1.19-.82.37-.27.92-.64,1.28-.73.55-.18.92-.37,1.28-.73.37-.37.92-.73,1.28-1.01.37-.09,1.01-.64,1.37-1.1.46-.37.92-.64,1.01-.64s.37-.27.64-.55c.27-.18.73-.55.92-.64.82-.46,2.93-2.2,3.75-3.11.73-.73,1.01-.92,1.37-1.01.46-.09.64-.18.92-.55.37-.46.92-1.01,1.65-1.46.37-.27.82-.64,1.19-1.01.55-.73,1.19-1.56,2.2-2.38,1.1-.92,2.29-1.83,3.57-3.02.27-.27,1.28-1.01,2.29-1.65.46-.46,1.56-1.56,1.65-1.56,0,0,.18-.18.27-.46,0-.18.46-.82,1.01-1.28.37-.46.82-1.01.92-1.19s.73-1.1,1.46-2.01c.73-.82,1.56-1.74,1.83-2.2.27-.27.73-.92,1.1-1.19.37-.37.73-.82.73-1.01.09-.46.37-.55.64-.27,0,.18.46.27.92.27,1.37.18,1.56.09,1.83.37.18.18.55.46.82.55.37.18.73.46.92.64.18.18.18.46.64.55.92.37,2.29,2.29,2.29,2.84,0,.27-.18.73-.09,1.1.73,1.1.46,2.65-.64,4.85-.46.82-1.01,1.65-1.46,2.01-.37.46-.92,1.1-1.1,1.56-.18.46-.64.92-.92,1.19-.82.64-2.11,2.65-2.47,3.39-.55,1.1-1.28,2.2-2.84,4.03-1.37,1.56-1.46,1.83-2.11,2.84-.27.46-.92,1.37-1.1,1.46-.09,0-.09.64-.27,1.01-.37.46-.64.82-.82,1.28-.09.18-.27.46-.46.64l-.46.64c-.09.27-.37.55-.46.64s-.46.46-.73,1.01c-.37.55-.64,1.01-.82,1.01-.09.09-.27.27-.37.55s-.55.92-1.01,1.46c-.46.55-.92,1.19-1.1,1.46-.09.18-.37.64-.64.92-.27.27-.73.64-.92,1.01-.18.27-.55.64-.73.82-.27.18-.55.64-.82,1.01-.18.46-.46.82-.46.82-.09,0-.64.46-1.19,1.28-.27.37-.73.82-.82,1.01-.27.09-.73.64-1.1,1.1-.46.46-1.1,1.19-1.56,1.56-.37.46-.82,1.01-.92,1.19-.09.27-.27.46-.27.46-.18,0-.55.37-1.83,1.37-.09.18-.37.37-.55.55-.55.64-1.46,1.46-1.74,1.56-.18.09-.64.55-1.1,1.1-.92,1.01-1.83,1.65-2.65,1.92-.18.09-.64.37-1.1.82s-.82.64-1.19.73c-.55.09-2.56,1.01-3.2,1.46-.27.09-.82.37-1.37.46-.46.18-1.1.37-1.37.46-.27.18-.55.27-.82.18-.09,0-.73,0-1.19.09-.82.18-1.1.18-1.28,0Z"/>
        <path class="cls-1" d="M604.04,25.36c2.38.09,4.21.37,4.58.73.18.09.55.27.82.37.27,0,.73.27,1.01.46.18.18.64.55,1.1.73.37.18.92.46,1.19.64.55.46,1.1.46,1.65.27.27-.18.46-.09.92.09.64.27.92.37,2.29.82.37.18.92.55,1.37.92.64.64.73.73.73,1.37,0,1.65.73,2.93,2.01,3.48.37.09,1.01.37,1.37.55.55.27,1.46.46,2.56.64,1.83.27,1.92.27,4.03.09,1.65-.18,2.2-.37,3.02-.64.55-.27,1.1-.46,1.19-.46s.55-.18,1.01-.37c.37-.27,1.19-.64,1.65-.82,1.37-.64,2.65-1.56,3.66-2.65,1.28-1.28,1.46-1.28,1.37.18-.09.82-.18,1.1-.55,1.83-.27.55-.64,1.1-.82,1.37-.73.92-2.11,2.11-2.65,2.38-.37.18-.64.37-.64.46-.09.27-1.74,1.28-2.01,1.28-.18,0-1.01.37-2.38.92-.46.18-1.1.37-1.37.37s-.82.09-1.19.18c-.55.18-1.19.18-2.38.18-2.65-.09-4.39-.46-5.22-1.01-.09-.09-.46-.18-.64-.18-.27,0-.55-.09-.73-.18-.18-.18-.55-.27-.82-.27-.55-.18-.64-.09-.92.37-.18.18-.37.73-.46,1.01-.09.82-.27,1.65-.55,2.2-.27,1.1-.82,2.2-.92,2.38-.18.09-.27.46-.27.73-.09.27-.27.82-.55,1.01l-.64,1.1c-.18.27-.46.82-.82,1.1-.27.37-.64.82-.73,1.1-.18.27-.37.55-.55.73s-.64.82-1.1,1.37c-.55.55-1.1,1.19-1.37,1.37-.27.18-.73.64-1.01.92-.27.37-.82.82-1.1,1.01-.27.18-.92.82-1.28,1.28-.73.82-1.1,1.1-2.2,1.83-.37.09-.73.37-.82.46-.64.37-2.75,1.46-3.02,1.56l-1.74.82c-1.56.92-3.11,1.46-3.66,1.37-.27,0-1.01,0-1.65.18-1.37.37-1.92.27-4.3-.92-1.83-.92-3.75-2.84-4.03-4.03l-.46-1.28c-.55-1.65-.73-2.29-.82-3.75-.18-1.65-.09-2.29.27-3.02.18-.27.46-1.1.64-1.83.18-.82.46-1.46.46-1.56.09,0,.18-.27.18-.37,0-.18.18-.73.46-1.28s.46-1.1.46-1.19c0-.18.92-1.65,1.83-3.2l.55-.92c0-.09.18-.37.37-.55.27-.27.73-1.01,1.19-1.56.37-.64.82-1.19.92-1.37.18-.09.64-.82,1.01-1.46.82-1.1,2.01-2.56,2.93-3.48.82-.64,1.19-1.1,2.01-2.01,2.11-2.38,3.39-3.57,3.84-3.75.27-.09.73-.18,1.74-.09ZM610.44,32.77c-.18.09-.46.18-.55.18-.27,0-.55.09-1.37.64-.27.18-.55.27-.73.27-.27,0-.37.18-.55.55-.27.64-.55.92-1.37,1.37-.37.09-.82.46-.92.64-.18.27-.82,1.01-1.46,1.74-.73.73-1.37,1.46-1.46,1.74-.09.18-.55.82-1.01,1.37-.46.55-1.01,1.1-1.1,1.37-.73,1.37-1.28,2.29-1.74,2.65-.18.18-.37.46-.37.64s-.37.64-.82,1.1c-.55.64-.82,1.1-1.1,1.83-.27.55-.55,1.28-.64,1.56-.18.37-.37.92-.37,1.28-.09.27-.18.64-.27.82-.09.27-.27.92-.37,1.46-.18,1.28-.09,2.2.27,2.84.18.37.92.82,1.46.82.46,0,2.65-1.1,3.39-1.65.37-.27.73-.55,1.01-.64.18,0,.64-.27.92-.55.27-.18.82-.64,1.28-.92.82-.64,1.28-1.01,1.28-1.1.09-.09.46-.46.92-.73s1.1-.82,1.37-1.28c.46-.37,1.01-1.1,1.46-1.56.73-.82,1.46-1.83,1.46-1.92s.27-.46.64-.92c.37-.37.73-.92.92-1.19.18-.09.46-.82.82-1.46.37-.73.64-1.37.73-1.46.09-.09.46-.82.73-1.56.27-.73.55-1.28.55-1.37.09,0,.27-.55.55-1.1.18-.64.46-1.37.64-1.74.46-1.01.37-2.11-.18-3.11l-.82-1.01c-.55-.46-2.38-.27-3.2.37Z"/>
        <path class="cls-1" d="M642.76,24.35c.64,0,1.74.27,2.11.55l.92.55c.37.27,1.1.73,1.46,1.01.55.37.92.64,1.01.64s.37.18.64.37.82.55,1.28.73c.92.55,1.28.82,1.74,1.83.27.55.46.92.46,1.46,0,.92-.27,1.37-1.01,2.29-.27.37-.55.73-.64,1.01l-1.28,1.37c-.64.64-1.1,1.19-1.1,1.28l-.73.92c-.46.46-1.01,1.28-1.28,1.74-.37.46-.73,1.01-1.01,1.19-.37.27-1.1,1.37-1.28,1.74-.09.18-.18.27-.46.37-.18.09-.46.46-.73.82l-.55.73c-.27,0-1.56,1.46-2.01,2.11-.09.27-.46.64-.55.92-1.1,1.28-1.83,2.38-2.47,3.75l-.82,1.56c-.09.09-.27.37-.55.73-.46.64-.55.82-.64,1.83-.09.92-.09,1.01.18,1.01.09,0,.37-.09.55-.18s.55-.18.73-.18c.09,0,.46-.18.64-.37.27-.18.55-.37.73-.37.27,0,.55-.09.82-.37.18-.09.73-.46,1.28-.64.46-.18,1.28-.55,1.83-.92l1.83-1.19c.27-.09.64-.46.92-.73.27-.27.82-.73,1.28-1.01.37-.27.92-.73,1.19-1.01.27-.18.82-.64,1.28-.92.37-.27,1.19-1.01,1.74-1.56.55-.55,1.01-1.01,1.1-1.01s.55-.37,1.1-.73c.46-.46,1.19-1.01,1.46-1.1.37-.18.73-.46.92-.73.09-.09.82-.73,1.65-1.37.73-.55,1.65-1.37,2.11-1.74,1.19-1.1,2.01-1.83,2.29-1.92.09,0,.37-.27.55-.64.09-.27.55-.73.82-1.01.92-.73,3.11-3.02,3.11-3.2,0-.09.18-.37.46-.64l1.46-2.38c.18-.27.46-.64.55-.82.27-.27.55-.64.73-.92.18-.18.55-.55.73-.82.27-.18.64-.64.73-1.01.82-1.46,1.37-1.83,2.93-1.74,1.37.09,1.83.46,3.66,2.29,1.1,1.01,1.56,1.65,1.83,2.11,1.1,2.56,1.19,3.02.55,3.66-.27.27-.64.64-.92.82-.18.09-.55.46-.64.55-.09.27-.73.92-1.46,1.46-1.37,1.19-1.56,1.37-2.65,2.65-.37.55-1.1,1.28-1.46,1.65-.37.46-.73.82-.73.82,0,.27-.73,1.28-1.1,1.37-.18.09-.46.46-.64.64-.18.27-.55.92-.92,1.37-.92,1.1-1.46,2.01-1.74,2.65-.09.27-.46.82-.64,1.19-.55.82-1.92,3.39-1.92,3.66,0,.09-.18.27-.27.55-.73,1.37-1.37,2.84-1.56,3.39-.09.73-.18,2.65-.09,2.84.18.18,1.65.27,2.2.09.27,0,.73-.18,1.1-.18.37-.09.92-.37,1.37-.55.27-.27.73-.46.92-.46.37,0,1.28-.46,2.01-1.01.37-.27.73-.46.92-.46.09,0,.37-.18.64-.37.27-.18.73-.37.82-.46.37-.09,2.2-1.37,2.47-1.65l.27-.18c.09,0,.46-.18.73-.37l1.92-1.19c.55-.27,1.74-1.28,2.75-2.29.27-.37,1.01-.92,1.46-1.19.46-.37,1.1-.82,1.37-1.1.27-.27.82-.82,1.28-1.19.46-.37,1.1-.92,1.37-1.28.37-.27.92-.73,1.19-1.01,1.01-.92,1.65-1.56,1.92-2.29l.55-.55c.27-.18.27-.09.46.09.09.18.09.46,0,.73-.09.27-.18.55-.18.82,0,.18-.09.64-.37,1.01-.18.46-.27.92-.27,1.1,0,.09-.18.37-.27.55-.09.09-.27.55-.37.92-.09.46-.37.82-.64,1.1-.18.27-.46.64-.55.92l-.55.64c-.18,0-.55.37-.64.64-.46.46-2.38,2.2-2.65,2.2-.09,0-.46.27-.92.73-.46.37-1.01.82-1.28.92-.27.18-.64.55-.92.73-.18.27-.73.64-1.1.92-.27.27-.82.64-1.1.82-.27.27-.82.64-1.1.82-.37.27-1.01.64-1.37,1.01-.27.27-.82.55-1.1.64-.27.18-.73.46-1.01.73-.27.27-.55.46-.64.46s-.37.18-.55.37c-.64.55-1.65,1.1-2.84,1.46-.46.18-1.1.55-1.28.73-.37.37-.46.37-1.37.37h-2.11c-.92.18-1.19.09-2.29-.27-2.75-.92-4.94-2.38-5.58-3.66-.09-.27-.37-.73-.46-.82-.37-.46-.55-1.1-.55-2.2-.09-1.1-.09-1.37.18-2.93l.37-2.2c.09-1.19.37-1.92,1.28-3.66.64-1.28.55-1.37-.46-.82-.37.18-.73.46-.82.55,0,.09-.55.55-1.1.92-1.83,1.37-3.48,2.93-3.48,3.2,0,.09-.27.27-.55.46-.55.18-1.74,1.1-2.75,2.01-.37.37-.82.64-1.1.82-.18.09-.37.27-.46.46s-.27.37-.55.46c-.18.18-.64.46-1.01.82-.27.27-.73.64-1.01.73-.27.09-.55.37-.64.55-.09.09-.55.37-1.01.64-.92.46-1.56.92-1.83,1.56-.09.18-.27.37-.37.37s-.55.18-.92.46c-.46.27-.92.46-1.01.46s-.37.18-.64.37c-.27.18-.82.37-1.37.46-.73.18-.82.18-1.65-.09-.46-.18-1.01-.27-1.1-.27-.46,0-3.11-1.46-3.66-2.01-.18-.27-.46-.46-.55-.46-.27,0-.92-.92-1.46-1.92-.55-1.1-.73-2.38-.73-4.58,0-1.01.09-1.56.27-2.01.09-.27.18-.64.18-.82s.27-.82.55-1.46c.37-.73.73-1.46.82-1.83.18-.55,1.1-2.47,1.92-4.21.27-.46.73-1.28,1.1-1.74l.73-1.37c.09-.27.37-.64.55-.92l.37-.55c0-.09.27-.55.73-1.1.37-.46.82-1.1.92-1.37.18-.37.46-.82.73-1.1.55-.55.92-1.19,1.46-2.2.18-.37.55-.82.73-1.01.27-.18.55-.55.73-.92l.92-1.28c.37-.37.64-.73.64-.82s.37-.64.82-1.28c.64-1.01.73-1.19.64-1.65q-.09-.46.37-.46Z"/>
        <path class="cls-1" d="M170.32,101.73c.37.18.92.37,1.19.46.37.18,1.28.92,1.92,2.01.27.37.82.82,1.1.92.55.37.73.55,1.1,1.74.09.64.09,1.28-.09,1.46-.09,0-.18.37-.27.82-.27.37-.55,1.01-.82,1.37-.18.27-.73.82-.92,1.19-.18.46-.46.92-.82,1.1-.46.73-1.28,1.92-1.46,2.47-.09.27-.27.55-.46.73-.18.09-.55.37-.73.64-.09.27-.46.82-.82,1.19-.82.73-1.19,1.28-1.92,2.29-.46.82-1.65,2.2-2.38,3.02-1.37,1.1-2.29,1.92-2.75,2.47-.55.82-2.93,3.02-5.58,5.49-1.56,1.37-2.38,2.2-2.84,2.38-.55.18-.92.37-.92.55-.09.18-.64.73-2.56,1.92l-1.01.82c-.27.37-1.1.73-1.56,1.01-.82.46-2.47,1.83-2.47,2.2,0,.09-1.56,1.1-2.11,1.37-.18.09-.55.46-.92.73-1.19.92-2.47,1.65-3.3,1.83-.37.09-.92.18-1.37.37-1.56.55-2.93.73-4.67.73-1.1,0-1.37-.09-2.11-.37-.92-.46-3.11-2.11-3.84-3.02-.46-.46-.55-.64-.37-1.01,0-.27-.18-.55-.27-.64-.27-.27-.55-1.74-.64-2.75.18-.37,0-.82,0-.92-.18-.18-.64.09-1.37.82l-.82.46c-.18,0-.46.27-.82.64-.27.27-1.01.82-1.46,1.19-.37.37-.92.82-1.37,1.01-.46.09-1.1.46-1.19.64-.18.27-.46.55-.82.64-.37.18-.64.37-.73.46-.18.18-.46.27-.64.27-.09,0-.73.27-1.46.55q-1.28.55-1.83.37c-.37-.09-.82-.09-1.19-.09-.55.09-.82,0-1.28-.09l-.64-.18c-.18,0-.37-.09-.55-.27-.27-.18-.73-.64-1.37-.92-.92-.55-1.1-.82-1.28-1.46-.18-.46-.55-1.01-.73-1.37-.18-.55-.37-1.28-.55-3.11-.18-.37,0-.73.18-1.1.09-.27.18-.82.37-1.28,0-.37.09-.92.18-1.1,0-.18.37-.73.37-1.19.09-.37.18-.92.46-1.19.09-.18.27-.46.27-.55,0-.18.09-.55.27-.82.27-.27.46-.92.55-1.28.09-.46.46-1.01.64-1.28l.37-.64c0-.09.46-.82.92-1.65.55-.82,1.01-1.65,1.1-2.01.09-.27.46-.73.64-.92.09-.18.37-.92.92-1.46.27-.64.64-1.28.73-1.37.37-.09.55-.55.64-.82.18-.37.46-.82.64-.92.37-.18.46-.27.46-.37s.37-.64.73-1.28c.64-.73,1.37-1.74,2.01-2.38.37-.64,1.01-1.37,1.1-1.46.37-.46,1.19-1.74,1.28-2.2.18-.55.55-.92.92-.92.18,0,.73.18,1.19.46.55.27,1.1.55,1.19.55.27,0,1.37.55,1.37.64s.27.27.73.46c2.38,1.28,2.2,1.19,2.84,2.11.37.55.55.92.73,1.01.37.27.64.92.37,1.65-.09.46-.18.73-.73,1.28-1.37,1.19-1.92,1.83-2.29,2.29-.09.18-.55,1.1-1.28,1.83-.55.82-1.19,1.65-1.28,1.92,0,.46-.27.82-1.46,2.11-.18.27-.46.73-.82,1.1-.18.37-.46.92-.64,1.37-.37.27-.64.92-.64,1.28-.09.46-.55,1.01-.73,1.28-.27.37-.37.73-.37.82,0,.27-.92,1.28-1.28,1.65-.18.27-.46.55-.46.73,0,.27-.27.92-.73,1.56-.27.64-.46,1.28-.46,1.37s-.27.46-.46.73c-.09.37-.27,1.01-.55,1.37-.09.73-.09.82.18.82.18,0,.46-.18.73-.37.18-.27.73-.55,1.01-.73,1.1-.55,5.58-3.66,6.68-4.94.18-.09,1.1-.82,2.01-1.65,3.2-2.47,3.75-3.11,4.39-4.39.09-.37.37-.82.64-1.1.09-.18.46-.92.82-1.46.55-.64.92-1.37,1.1-1.56.64-.55,1.19-1.46,1.83-2.38.27-.64.64-1.01,1.92-2.56.37-.37,1.1-1.19,1.37-1.74.27-.55.92-1.19,1.1-1.37.27-.18.55-.46.64-.64.09-.27,1.01-1.28,2.2-2.38.09-.18.46-.55.64-.92s.82-.73.92-.92c.37-.09.46-.27.27-.64-.09-.73,0-.73,1.1-.73.55.09,1.01.18,1.19.37.18.18.73.37,1.1.55s.92.46,1.01.73c.18.27.55.64.82.73.92.55,2.11,2.01,2.11,2.56,0,.09-.09.46.09.82l.27.73-.55.64c-.27.73-.82,1.37-2.11,2.56l-1.01.92c-.46.55-1.74,1.83-2.84,2.84-1.37,1.37-2.65,2.75-2.93,3.48-.18.27-.64.92-.92,1.19-.37.64-1.28,2.11-2.11,3.66-.27.64-.92,1.46-1.1,1.83-.18.46-.55.92-.55,1.01l-.18.55c-1.01,1.74-1.1,2.01-1.1,2.29,0,.18-.37.73-.55,1.28-.27.46-.64,1.1-.64,1.37,0,.37-.09.82-.09,1.01-.18.18-.37.64-.27,1.01,0,1.01.27,1.01,1.74.27.46-.37.92-.55,1.01-.55s.37-.27.64-.55c.27-.27.46-.46.55-.46.18,0,.27-.09.46-.27.18-.18.55-.37.82-.55.18-.09,1.01-.64,1.37-1.01.46-.55.82-.92,1.01-.92.09,0,.73-.37,1.19-.73.46-.46,1.19-1.1,1.74-1.37,1.46-1.1,6.87-5.86,6.87-6.13,0-.18,2.01-2.11,3.3-3.11.55-.55,1.37-1.19,1.65-1.56.64-.82,2.11-2.47,3.2-3.48.46-.46.92-1.1,1.28-1.56.18-.37.46-.82.73-1.1.18-.27.64-.64.82-.92.18-.64,1.01-1.56,1.28-1.83.18-.09.92-1.28,1.28-2.38.09-.37.46-.73.55-1.01l.37-.55c.18-.27.92-1.83.92-2.47.18-.18.18-.55.27-.82.18-.18.27-.64.46-1.01,0-.27.09-.82.18-1.19.46-.82.37-1.37-.09-2.2,0-.37-.09-.73-.09-.73.18-.27,1.46-.18,2.11.18Z"/>
        <path class="cls-1" d="M186.06,106.59s.27.27.64.55c.27.27,1.19.92,2.01,1.46,1.19.64,1.56,1.01,1.74,1.46.09.27.37.55.37.55.09,0,.55.27,1.01.82.82.73.82.82.92,1.56.09.37.18.82.27.92,0,.09.09.55.09,1.01-.09,1.19-.46,1.92-2.11,3.75-.18.18-.37.55-.46.73-.09.27-.55,1.01-.92,1.65-.46.64-.82,1.37-1.01,1.65-.09.55-.46.92-.73.92-.18,0-.55.46-1.1,1.37-.92,1.28-2.38,2.93-3.57,3.94-.64.55-1.46,1.74-1.46,2.29,0,.09-.09.37-.37.55l-1.01,1.46c-.37.55-.73,1.01-.82,1.01-.18,0-.92,1.1-.92,1.46s-.73,1.92-1.1,2.47c-.18.37-.55,1.46-.55,1.92,0,.18.09.37.27.46.37.27.46.18,1.46-.09.55-.18,1.19-.46,1.37-.55s.55-.27,1.01-.37c.37-.09.92-.37,1.37-.64.46-.27.92-.46,1.1-.46.09-.09.55-.37,1.01-.64l1.46-.92c.37-.18.64-.46.64-.46,0-.09.37-.37.82-.55.46-.27.92-.64,1.19-.82.18-.18.64-.55,1.01-.73.92-.46,3.3-2.11,3.39-2.29.09-.09.46-.37.92-.64l.82-.55c0-.09.27-.27.55-.46.27-.18.82-.64,1.19-1.1l1.19-1.1c.27-.09.92-.55,1.37-.92.55-.46,1.19-.82,1.46-1.01.64-.27,1.65-1.1,2.01-1.46.18-.27.46-.55.55-.55.18,0,1.01-.64,1.74-1.28,1.19-1.1,1.46-1.28,1.83-1.19.55,0,.73.46.73,1.37-.18.64-.46,1.37-1.28,2.38l-.82,1.19c-.09.27-.37.64-.46.82-.18.09-.37.37-.46.64-.09.18-.46.55-.82.82-.37.37-.92.92-1.19,1.28-.46.73-1.19,1.37-1.74,1.65-.18.09-.64.55-.92,1.1-.46.46-1.01,1.1-1.37,1.37-.46.27-1.1.82-1.56,1.19l-1.37,1.1c-.37.18-1.1.73-1.46,1.1-.37.37-1.01.82-1.37,1.01-.73.27-.92.55-1.92,1.46-.18.27-.92.82-1.65,1.28-.92.64-1.46.92-1.92.92-.46.09-.73.18-1.01.55-.18.18-.55.37-.64.37-.18,0-.73.18-1.28.46-1.28.46-2.65.82-3.39.82-.37,0-.92.09-1.28.18-.37.09-.92.18-1.1.18-.55,0-1.83-.46-3.02-1.01-.64-.27-3.57-2.65-3.57-2.84,0-.09-.18-.37-.46-.64-.55-.64-1.19-1.83-1.19-2.56-.09-.27-.37-.82-.46-1.19-.18-.64-.18-.73,0-1.1.09-.27.37-1.01.37-1.65.09-.64.27-1.37.37-1.74.09-.27.18-.64.18-.82s.09-.55.27-.82c.09-.18.27-.55.37-.82,0-.37.18-.64.27-.73s.18-.27.18-.46.09-.46.18-.55l.27-.64c.09-.18.27-.46.46-.73l.73-1.37c.27-.55.73-1.37,1.1-1.83.27-.55.73-1.19.92-1.65.27-.37.55-.82.73-.92.09-.18.27-.27.27-.46,0-.09.27-.55.55-.92.27-.46.55-.82.55-.92s1.83-2.56,2.75-3.48c.27-.46.92-1.28,1.37-1.83,1.65-2.2,2.2-2.75,2.47-3.02.27-.18.37-.37.37-.46s.27-.46.55-.92c.27-.46.46-1.01.46-1.19s.09-.55.18-.73c.18-.27.27-.46.37-.46ZM199.42,91.02c.64.46,1.37.82,2.01,1.1.27,0,.46.09.46.27,0,0,.18.09.37.27.27.09.46.37.55.73.37,1.19-.18,2.29-1.83,3.75-.64.55-1.19,1.01-1.19,1.1l-.73,1.01c-.46.46-.92,1.1-1.1,1.37l-.92.82-.64.37-.55-.27c-.37-.27-.92-.55-1.1-.82-.18-.27-.64-.82-1.01-1.1-.82-.82-1.01-1.37-.82-2.75.18-1.19.55-1.92,1.1-2.56.27-.27.37-.55.37-.64s.27-.37.46-.64c.37-.27.64-.82.73-1.1.18-.55.18-.64-.09-.92-.37-.37-.37-.55,0-.73.64-.27,3.3.18,3.94.73Z"/>
        <path class="cls-1" d="M238.97,112.17c-.82.92-1.74,1.46-2.29,1.46-.27,0-.64.09-.82.09-.46.27-2.29.27-3.39.18h-1.46c-5.13,0-6.32.09-7.14.27-.55.09-1.28.27-1.56.37-.73.09-1.01.27-1.74,1.56-.18.46-.82,1.19-1.28,1.65-.46.46-.73.82-.73.92s-.64.82-1.37,1.65c-.73.92-1.65,2.01-1.92,2.47-.46.55-.92,1.1-1.19,1.37-.64.55-1.37,1.65-1.74,2.38-.09.27-.37.64-.64.92-.18.27-.27.55-.27.73,0,.09-.37.64-.55,1.01-.37.46-.46.92-.46,1.01,0,.18-.46.82-.92,1.56-.73,1.1-1.74,3.3-1.74,3.75,0,.09-.27.37-.37.64-1.01,1.65-1.01,3.57.09,3.75.18.09.46.18.64.18.18.18.46.18.64.18.18-.09.46,0,.64.09.27.18.55.18,1.83.18,1.74-.09,1.65-.09,3.75-.46.92-.09,1.83-.37,2.2-.55.37-.18.82-.37,1.01-.37s.64-.09.92-.27c.37-.09.73-.27.73-.27.09,0,.37-.18.73-.37.27-.18.82-.46,1.19-.55s.82-.37,1.1-.46c.27-.18,1.1-.64,1.83-1.01.64-.37,1.65-.82,2.11-1.19l1.1-.55c.09,0,.27-.18.55-.27.27-.27.92-.64,1.46-1.01.55-.27,1.46-.82,1.83-1.1.46-.37,1.1-.82,1.37-.92.55-.37,2.75-2.2,3.94-3.39.92-.82,1.28-.92,1.01-.27,0,.27-.18.82-.27,1.28-.18.92-.64,1.83-1.28,3.02-.27.55-.82,1.01-1.56,1.65-1.65,1.37-1.65,1.28-2.2,2.11-.82.73-1.37,1.19-2.11,1.65-.55.27-1.56.82-2.65,1.65-.27.18-.73.55-1.01.82-.37.27-.92.55-1.46.82-.37.18-1.01.46-1.19.64-.46.46-1.37.82-2.93,1.46-.73.27-1.74.73-2.29,1.19-.82.37-1.28.64-1.65.64-.37.09-.92.27-1.37.46-.73.37-2.65.73-3.94.82-.27,0-1.1.09-1.65.09-1.1.18-1.92,0-3.02-.46-.37-.18-.73-.27-.92-.27s-.46-.09-.73-.27c-.18-.18-.46-.27-.64-.27-.09,0-.37-.09-.46-.27s-.37-.37-.55-.37c-.46-.09-3.02-2.93-3.3-3.66-.09-.46-.55-1.28-.82-1.92-.37-.55-.64-1.28-.64-1.37.09-.18,0-.55-.18-.92,0-.37-.09-1.19,0-1.83,0-1.46.55-4.76.73-5.22l.46-1.28c.18-1.19,1.74-4.03,2.29-4.49.18-.18.55-.73.82-1.1.46-.82.73-1.19,2.01-3.02.46-.64,1.19-1.56,1.56-2.2.37-.55.82-1.19,1.01-1.37.27-.27.37-.55.37-.73q0-.37-.73-.46c-1.19-.09-1.65-.73-2.01-3.2,0-.55-.18-1.19-.18-1.37-.09-.27-.09-1.1-.09-2.01.09-.92.09-1.74,0-1.92,0-.37.37-.55.55-.37.18.09.46.37.82.55.64.55,2.01,1.01,2.93,1.01.37,0,.92.09,1.28.27.37.09,1.1.18,1.74.18,1.28,0,1.56-.09,2.65-1.83q.09-.09.09-.18c.46-.37.64-.55,1.28-1.19.27-.27.82-.92,1.19-1.37.37-.55.82-1.01.92-1.1.18,0,.55-.46.92-.92,1.1-1.37,2.11-2.65,2.93-3.48l.37-.37s.09-.27.18-.46c.18-.27.46-.64.46-.92.09-.27.37-.73.64-1.01.27-.37.46-.46.92-.46.37,0,.92.09,1.28.18.37.18.82.18,1.01.18.27,0,1.37.82,1.83,1.28,2.01,2.47,2.75,3.48,2.75,3.94,0,.09-.09.55.09.82.18.37.18.55,0,.82-.18.18-.18.46-.18.55,0,.18-.27.55-.55.82-.18.27-.64.82-.82,1.19-.27.55-.55.82-.92,1.1-.09.09-.18.18-.37.27l-.09.09c-.82.92-1.1,1.1-1.1,1.56l-.18.55,1.28.09c1.1.09.27.27,1.74.18h2.2c.73,0,1.19.46,1.74.09.55-.37,1.56.18,2.47.18.82,0,.37-.55.82-.27.64.27,1.28.46,1.28,1.19.09.18.09.64.18,1.01.09.82,0,1.19-.82,2.11ZM215.53,105.49c0,.09-.09.09-.18.18-.46.55,1.46-1.92.18-.18ZM229.45,105.4c.18,0-1.19,1.65-.82,1.1.27-.46.55-.82.82-1.1Z"/>
        <path class="cls-1" d="M265.24,83.06c2.01.73,4.58,2.38,5.13,3.2.46.82.73,2.11.73,3.11l-.09.92-1.28,1.46c-.64.82-1.28,1.37-1.37,1.37-.18,0-1.37,1.28-1.56,1.74-.09.18-.37.46-.55.55-.18.18-.46.27-.46.37,0,.27-1.92,2.93-3.48,4.76-.18.27-.55.73-.73.92-.18.27-.46.55-.55.55-.27.09-1.56,2.11-1.56,2.47,0,.09-.27.46-.55.82-1.1,1.1-2.38,2.93-2.93,4.03-.18.37-.82,1.37-1.65,2.75-.37.55-.64,1.01-.64,1.1s-.18.37-.27.55c-.46.37-1.01,1.19-1.37,1.92-.18.27-.55.64-.82.82-.37.27-.73.64-.92,1.1-.18.46-.46.92-.64,1.01-.09.09-.18.27-.18.46s-.18.55-.46.82c-.27.27-.64.82-.82,1.19-.27.37-.73.92-1.01,1.37-.37.37-.73.92-.82,1.19-.09.18-.27.55-.46.64-.18.18-.27.37-.27.46s-.18.37-.46.64c-.73.92-1.28,1.65-1.56,2.11q-.27.55,0,.55c.18,0,.82-.46,2.2-1.65.55-.46,1.19-1.01,1.46-1.1l.82-.82c.18-.27.46-.55.64-.73.27-.09.64-.37,1.01-.64s.73-.55.92-.73c.27,0,.64-.37.92-.64,1.01-1.01,2.01-1.74,2.47-1.92.18-.18.92-.73,1.56-1.19,1.46-1.28,2.75-2.29,3.2-2.47.37-.18,1.1-.73,2.01-1.65l.64-.55c.18-.09,1.01-.64,1.65-1.28.73-.55,1.37-1.1,1.56-1.1.18-.09.27-.18.27-.27s1.46-1.01,2.01-1.28c.27-.09.92-.46,1.37-.82.55-.37,1.01-.64,1.1-.64s.27-.18.46-.27c.37-.46,3.48-2.01,3.84-2.01.18,0,.55-.18.92-.37.46-.18.73-.27,1.65-.27,1.28,0,2.2.37,3.84,1.28.55.37,1.28.73,1.56.92.64.27,3.11,2.84,3.57,3.57.27.64.37.73.27,1.83-.09,1.01-.18,1.37-.55,2.11-.37.64-.46,1.01-.46,1.28.18.64-.55,2.2-1.19,2.93l-1.28,1.65c-.55.55-.92,1.1-.92,1.37-.09.09-.55.82-1.1,1.37-.64.55-1.1,1.1-1.1,1.19s-.18.46-.46.73c-.18.37-.64.82-.92,1.19-.27.37-.82,1.1-1.37,1.74s-.92,1.19-.92,1.19c0,.09-.37.55-.64,1.01-.64.82-1.28,1.83-1.65,2.56-.09.09-.27.27-.46.27-.37.09-1.83,1.74-2.2,2.65-.18.18-.64.92-1.01,1.28-.37.37-.82,1.19-1.01,1.37-.37.46-.27,1.28.18,2.38.37.64.55.92,1.1,1.19.55.37.64.46,2.01.37,1.1,0,1.65-.09,2.2-.27.37-.18,1.1-.46,1.65-.64,1.37-.55,4.3-2.01,4.76-2.29.18-.18.64-.46,1.01-.55.37-.18.92-.46,1.28-.73.46-.46,1.46-1.01,1.74-1.01.46,0,2.2-1.28,3.48-2.29.82-.73,1.74-1.46,2.47-1.92,1.56-.92,6.96-6.04,7.32-6.87.09-.27.55-.92,1.01-1.28l1.01-1.28c.18-.18.64-.73.92-1.19.46-.37.82-1.01,1.1-1.46.27-.37.55-.82.82-1.1.37-.46.92-1.46,1.37-2.29.18-.46.46-1.01.73-1.19.27-.27.46-.64.55-.82.09-.55,1.1-2.38,1.28-2.38.09,0,.18.27.37.64.27.46.27.64.18,1.74-.09.92-.27,1.46-.64,2.2-.27.64-.46,1.19-.46,1.28s-.18.46-.46.73c-.27.37-.55.82-.73,1.01-1.01,1.46-1.65,2.38-1.65,2.56l-.73,1.01q-.82,1.01-1.01,1.19c-.09.09-.46.46-.73.92l-.64.92c-.18.09-.46.46-.55.73-.18.55-.92,1.65-1.37,2.11-.27.37-1.28,1.83-1.56,2.38-.09.27-.55.73-.82,1.1-.27.37-.82.92-1.1,1.28-1.19,1.65-1.74,2.29-1.92,2.29,0,0-.09.18-.27.37-.09.27-.37.64-.55.82-.27.27-1.1,1.19-2.01,2.11-.82.92-1.83,1.83-2.11,2.01-.27.27-.73.64-1.1.82-.37.27-1.19,1.01-1.74,1.56-1.01,1.01-1.56,1.28-2.65,1.56-.09,0-.37.27-.64.55-.27.46-.55.73-1.65,1.19q-1.28.64-2.93.73c-.92,0-1.83.18-2.11.27-.37.18-.92.18-2.29,0-1.83-.18-2.11-.27-4.39-.82-1.37-.27-3.11-1.1-3.57-1.46,0-.18-.55-.55-1.01-.82-1.28-.92-3.2-2.84-3.2-3.39,0-.18-.18-.73-.55-1.28-.92-1.83-1.28-3.75-.92-5.31l.27-1.46c.18-1.19.46-2.2,1.01-3.11.27-.46.46-.92.55-1.1,0-.18.37-.55.64-1.01.27-.27.64-.73.73-.92,0-.27.37-.73.64-1.1.27-.27.92-1.1,1.28-1.65.82-1.01,3.2-3.75,5.31-6.04.64-.73,1.37-1.56,1.56-1.92.27-.37.55-.64.64-.64s.27-.27.46-.64c.46-.55.64-.82,1.65-1.92.37-.37.64-.64.64-.73s.37-.46.73-.92c.64-.82,1.46-2.29,1.28-2.47s-1.37.18-2.11.73c-.37.27-.73.46-.82.46s-.37.18-.55.37c-.27.27-.73.55-1.19.73l-1.28.46c-.37.37-1.92,1.65-2.47,2.11-.27.27-.64.55-.92.64-.37.18-.82.46-1.1.73-1.1.92-1.65,1.37-2.38,1.74-.46.27-1.19.82-1.65,1.28-.46.37-1.19,1.01-1.65,1.28-.37.27-.92.73-1.37,1.01-.37.37-.64.64-.82.64-.09,0-.55.37-1.1.82-.55.46-1.19.92-1.37,1.01-.55.27-4.12,3.2-6.13,5.03l-2.75,2.47c-1.01.82-1.92,1.74-2.2,2.01-.37.27-1.01.92-1.37,1.37-.46.55-1.1,1.1-1.46,1.28-.37.18-.55.46-.55.55s-.55.64-1.28,1.37c-1.19,1.19-2.38,2.01-3.02,2.01-.18,0-.73-.09-1.1-.27-.46-.18-1.1-.46-1.37-.46-.27-.09-.73-.27-1.01-.46-.82-.55-2.2-2.01-2.65-2.75-.27-.46-.37-.73-.27-1.46.09-.92.55-2.2,1.01-2.47.09-.09.27-.46.37-.73.09-.27.37-.73.64-1.19.37-.27.55-.64.55-.73s.27-.46.55-.92c.37-.37.73-1.01.82-1.37l.55-.82c.18-.09.27-.27.27-.37,0-.18.37-.64.82-1.19.37-.64.73-1.1.73-1.19s.09-.27.27-.37c.18-.18.37-.55.55-.92.18-.37.37-.64.46-.73.09,0,.37-.37.55-.73l.73-1.28c.18-.37.55-.92.64-1.19.27-.27.55-.82.82-1.19.73-1.28,1.01-1.65,1.37-2.11.18-.27.37-.55.37-.64,0-.27.82-1.83,1.19-2.2.09-.18.37-.55.46-.82.18-.27.64-1.01,1.1-1.56,1.01-1.37,2.01-2.93,2.84-4.58.09-.46.64-1.1,1.01-1.56.37-.46.73-.92.73-1.1s.27-.46.46-.64c.09-.18.37-.46.37-.73.18-.18.46-.73.82-1.28.55-.82,1.01-1.46,1.37-2.29l.55-.64c.18-.18.37-.37.37-.46,0-.18.18-.46.46-.82.73-.92,1.92-2.84,2.29-3.39.09-.27.37-.64.55-.73.18-.18.46-.73.64-1.1.27-.46.64-1.1.92-1.37s.73-1.01,1.01-1.56c.37-.55.73-1.28.92-1.46.27-.27.55-.73.82-1.01.82-1.1,1.28-1.92,1.28-2.38,0-.37.09-.64.09-.73.18-.37,1.56-.27,2.65.09Z"/>
        <path class="cls-1" d="M371.51,86.17c.64.37,2.2,1.56,2.84,2.11.27.27.92.64,1.28.92.82.46,1.28,1.01,1.46,1.65s-.27,2.2-.82,3.02l-.46.82c0,.27-1.28,1.65-1.56,1.65-.09.09-.37.37-.46.73-.18.27-.46.64-.64.82-.18.18-.46.55-.64.82-.09.37-.55.92-.92,1.37-.46.37-.82.92-.92,1.19-.09.18-.27.46-.37.46-.27.09-1.74,1.37-2.2,1.92-.73.82-1.28,1.19-1.65,1.37-.27.09-.55.37-.64.55,0,.09-.46.64-.82,1.01-.27.37-.64.82-.64.92s-.46.64-.92,1.19c-.55.55-1.01,1.01-1.01,1.1s-.46.73-1.28,1.65c-.09.09-.27.46-.46.73-.18.27-.55.64-.82.82-.27.27-.64.64-.73,1.01-.18.37-.55.92-.92,1.28-1.19,1.46-1.65,2.29-2.29,3.57-.27.73-.73,1.37-.82,1.46-.18.09-.37.46-.55.73-.18.37-.46.73-.55,1.01-.18.18-.37.55-.37.73s-.18.64-.73,1.1c-.73.73-1.37,2.01-1.56,2.93,0,.27-.18.73-.37,1.01-.55.82-1.01,1.92-1.01,2.2,0,.09-.27.73-.55,1.37-.37.55-.55,1.19-.55,1.28l-.27,1.01c-.46,1.28-.82,4.85-.55,5.86.27.92.82,1.19,2.38,1.19.92.09,1.28,0,2.2-.27,1.19-.46,2.47-1.01,2.84-1.28.09-.09.46-.27.82-.37.73-.18,2.93-1.37,3.48-1.83.09-.18.64-.46,1.1-.64,1.19-.73,2.56-1.74,3.57-2.75.37-.37.92-.82,1.28-1.1.37-.18,1.28-1.01,2.01-1.65.82-.73,1.46-1.28,1.56-1.28s.64-.64,1.46-1.28c.64-.73,1.56-1.46,1.83-1.74.37-.27.64-.64.73-.92.46-.82,2.56-3.3,2.75-3.2,0,.09.09.64.09,1.28v1.19l-1.01,1.92c-.55,1.19-1.19,2.2-1.56,2.65-.37.27-.55.64-.55.73s-.82,1.01-1.83,2.01c-1.01.92-2.11,2.11-2.56,2.56l-1.1,1.01c-.27.18-.92.73-1.37,1.19-.55.46-1.19,1.01-1.56,1.1-.55.27-1.1.73-2.01,1.56-.18.27-.92.73-1.65,1.1s-1.46.64-1.56.82c-.09,0-.46.27-.82.37-.37.27-.92.55-1.1.82l-2.2,1.28c-1.65.82-1.74.82-3.02.92-1.83.18-2.65,0-4.49-.92-2.93-1.46-3.3-1.74-4.3-3.48-.18-.46-.55-.92-.73-1.1-.27-.46-.92-2.56-.92-3.11.09-.27,0-1.19-.09-2.01,0-1.01,0-1.65.09-2.2.18-1.01.37-2.56.18-2.56-.09,0-.37.27-.73.64-.37.37-.92.92-1.19,1.28-.37.46-.82,1.01-1.1,1.28-.18.27-.92,1.19-1.74,1.92-.73.73-1.56,1.74-1.92,2.2-.82.92-1.92,1.92-2.47,2.2-.27.09-.64.46-.82.64-.82.82-2.47,2.01-2.84,2.01-.27,0-2.01,1.01-2.29,1.37-.18.18-.37.27-.55.27-.09,0-.27.18-.46.37-.37.37-1.19.55-2.93.64-1.28.18-1.56.09-2.2-.09-1.28-.55-1.83-.82-2.11-1.28-.18-.27-.55-.55-.82-.55-.27-.09-.55-.37-.82-.73-.09-.37-.55-.92-.92-1.37-.82-1.01-1.65-3.66-1.74-5.13-.09-1.37.18-3.75.46-4.67.55-1.92,1.28-4.03,1.65-4.85.18-.18.55-1.1.82-1.92.46-1.1.82-1.74,1.37-2.29.46-.46,1.01-1.19,1.28-1.65.27-.46,1.01-1.28,1.56-1.83s1.28-1.46,1.65-2.01c1.37-2.2,3.02-4.12,4.49-5.22.55-.46,1.19-1.01,1.65-1.28.27-.27.82-.64,1.1-.92.46-.37,1.92-1.19,3.48-1.92.92-.46,1.19-.55,2.65-.64,1.37-.09,1.65-.09,1.92.09.27.09.55.27.73.27.64.27,3.3,1.65,4.12,2.2.46.27.92.64,1.1.64,0,.09.55.46.92.82.46.37,1.28.82,1.74,1.1.46.27,1.19.82,1.65,1.19.92.92,1.1.92,1.65-.18.18-.46.46-.92.64-1.01.09-.09.18-.27.18-.37,0-.18,1.56-2.75,1.74-2.93.09,0,.18-.18.18-.37s.18-.46.37-.73c.82-1.19,1.19-1.74,1.46-2.29.18-.46.64-1.1,1.01-1.56,1.56-2.29,2.2-3.2,2.29-3.2l.46-.64c.18-.37.55-.92.82-1.19l.82-.92c.09-.18.55-.73,1.01-1.28.73-.82,1.28-1.56,2.38-3.11.27-.37.73-.82.82-1.01.27-.18.73-.73,1.1-1.28.37-.55.73-1.1.92-1.19.27-.18.46-.55,1.01-2.01.46-1.01.64-1.19,1.19-1.28.73-.18,2.11,0,2.75.37ZM346.42,114.46c0,.09-.55.18-1.1.18-1.1.09-1.19.09-2.93.92-.46.27-1.28.64-1.83.82-1.01.27-2.29,1.01-3.02,1.74-1.28,1.28-1.65,1.65-1.83,1.65-.09,0-.37.18-.55.46-.64.82-3.11,2.93-3.66,3.2-.27.09-.82.37-1.01.64-.27.27-.92.92-1.46,1.28-.46.37-.92.82-.92.92,0,.18-.27.55-.64,1.01-.92,1.19-1.28,1.74-1.74,2.56-.27.37-.64.92-.82,1.28-.27.27-.46.64-.46.82,0,.09-.27.64-.55,1.1-.55,1.01-1.28,3.02-1.28,3.66,0,.18-.18.82-.46,1.28-.37.64-.46.82-.18.92.27.18,1.01,0,1.92-.37.46-.27.82-.46,1.01-.46l.55-.37c.27-.18.64-.46.92-.55.27-.18.82-.46,1.28-.82.46-.37,1.01-.73,1.19-.82.55-.27,2.01-1.46,2.47-1.92.18-.18.55-.55.82-.73l1.92-1.74c.82-.73,1.65-1.46,1.83-1.56l1.46-1.46c.73-.73,1.83-1.65,2.38-2.29,1.65-1.46,3.66-3.39,3.84-3.75.09-.27,1.74-2.2,2.84-3.3,1.28-1.37,1.46-1.56,1.83-2.2.55-1.1.46-1.28-.55-1.65-.82-.46-1.1-.55-1.28-.46Z"/>
        <path class="cls-1" d="M372.69,144.48c-.18-.18-.64-.37-.73-.37-.27,0-.64-.09-1.01-.27-.27-.27-1.1-.27-1.37-.37-.37-.27-2.75-2.29-3.75-3.48-.55-.55-.64-2.01-.64-2.47,0,0-.09-.55-.27-.92-.37-1.28-.55-3.84-.37-4.85.09-.46.27-1.1.27-1.46,0-.46.18-1.28.37-1.83.27-.55.46-1.1.46-1.19,0-.27,1.37-3.2,1.65-3.57.27-.27.37-.55.37-.73,0-.09.09-.37.27-.73.18-.27.27-.64.27-.73s.18-.27.27-.27c.27-.18.46-.37.55-.73.18-.37.46-.82.82-1.19.37-.46.82-.92,1.01-1.1.46-.73,1.19-1.65,2.01-2.47.37-.46.73-.82.73-.82,0-.18,1.65-1.65,3.3-2.93,2.01-1.65,3.11-2.47,3.84-2.84.37-.18.82-.37.92-.46.18-.27,1.83-1.37,2.01-1.37.09,0,.46-.09.73-.27.46-.09.92-.27,1.37-.27.55,0,.92,0,1.37-.27.46-.18.82-.37,1.01-.37.64,0,1.37.27,2.11.82.37.37.92.73,1.1.92.18.09.73.55,1.19.82.55.46,1.1.82,1.28.92.18.09.55.37.73.55.18.18.55.55.92.73,1.46,1.1,3.11,4.21,3.2,6.13,0,.73,0,.92-.37,1.37-.27.27-.46.64-.46.64,0,.09-.27.55-.55.92l-.82,1.28c-.09.18-.37.55-.55.64-.27.09-.82.55-1.37,1.01-.37.37-.92.82-1.19.92-.18,0-.73.27-1.19.55-.46.37-1.19.73-1.56.82-.46.09-.92.27-1.01.37-.37.27-2.84,1.56-3.3,1.65-.18.09-.55.18-.73.46-.18.18-.46.27-.55.27-2.38.18-2.29.18-2.65.46-.37.37-1.1.46-1.56.46-.27,0-1.1-.18-2.01-.09s-1.65.18-1.74.09-.46-.09-1.01-.09c-.82-.09-.92-.09-1.28.27-.27.18-.37.46-.37.64,0,.27-.46,1.01-.82,1.83-.27.46-.46,1.01-.46,1.19s-.09.55-.27.82l-.37.92c0,.27-.18.37-.18.46-.27.09-.18,1.01.09,1.65.09.37.27.73.37,1.01.27,1.1,1.28,1.92,3.2,2.75.82.37,1.19.46,2.47.55,1.28,0,1.74,0,2.84-.27.64-.09,1.65-.46,2.2-.73.55-.18,1.19-.55,1.46-.64.37-.09.92-.37,1.28-.55,1.01-.64,1.83-1.01,2.56-1.19.37-.09.82-.27,1.1-.46.27-.09,1.1-.46,1.83-.64.64-.27,1.74-.82,2.38-1.19l1.19-.64c.09,0,1.74-.92,2.01-1.19.09,0,.37-.18.55-.18.18-.09.55-.27.73-.46.27-.18.82-.55,1.37-.82.46-.27.92-.55.92-.64.09,0,.55-.27,1.01-.55l.46-.18-.18-.27.18-.18c.46-.37.82-.64.92-.64,0,0,.73-.55,1.37-1.19,2.11-2.01,2.29-2.2,2.47-2.2.27-.18.46-.37.55-.46l.09-.09c.27-.18.73-.64,1.28-1.01.18-.27.55-.64.92-.92l.46-.46c.18-.27.37-.55.82-.82l.18-.18.46-.27.27-.27c.18-.09,0-.09.18-.18.27-.27.37-.55.55-.92,0,0,.09-.09.18-.09.18-.09.37-.27.55-.27.09,0,.64-.82,1.46-1.74.82-.82,1.83-1.65,2.01-1.83.18-.09.46-.46,1.01-1.01.55-.46,1.1-1.01,1.1-1.01.64-.73,1.65-2.11,1.83-2.38s-.37.37.46-.55c.18-.18.55-.55.64-.82l1.01-1.19c1.65-1.65,4.3-3.39,4.49-3.75.09-.27.92-.82,2.2-1.46.64-.27.92-.27,1.37-.27.64.09,2.11.92,2.38,1.37.09.09.27.37.46.46.73.46,2.47,2.38,2.65,2.84.27.64.37,1.92.09,2.56-.09.37-.37.55-.64.73-.27.09-.64.37-.82.55-.18.18-.55.55-.92.64-.64.27-2.2,1.83-3.2,3.02-.27.27.46-.64,0-.18-.55.46-1.01,1.1-1.1,1.37-.18.18-.27.46-.46.46,0,0-.37.46-.64,1.01s-.73,1.1-.82,1.19c-.27.27-.27.37-.27,2.01,0,1.74.09,2.38.64,3.48.18.37.46,1.74.46,2.38,0,.18.18.82.37,1.37.64,1.65,1.28,6.13.27,8.06-.09.37-.37,1.01-.64,1.56-.37.82-1.01,1.65-2.47,2.84l-.82.82c-.82.82-3.39,2.47-4.03,2.47-.27,0-1.1.18-1.74.46-1.65.55-2.47.64-3.57.18l-1.74-.64c-.55-.27-1.19-.46-1.37-.46s-.46-.18-.92-.64c-.37-.37-.64-.55-1.1-.64-.73-.09-2.75-1.28-2.93-1.74-.27-.64-.92-1.74-1.28-2.11-.18-.27-.46-.55-.46-.82l-.37-.64c-.64-.92-.46-1.74.64-2.29.27-.09.73-.37,1.01-.55.55-.37.64-.37,1.74.18,1.01.55,2.65.73,3.39.55.18-.18.73-.18,1.65,0,.64.09,1.37.27,1.46.27,2.01-.09,2.29-.09,2.75-.37.18-.09.55-.27.82-.37,1.19-.27,1.46-.46,2.56-1.92.55-.64,1.19-1.65,1.28-2.01.37-.92.55-3.48.27-4.03-.37-.64-.82-2.01-.82-2.47,0-.27-.27-1.01-.64-1.74-.37-.73-.64-1.46-.64-1.65,0-.27,0-.73-.09-1.01-.09-.37-.18-.92-.18-1.37,0-.55-.09-.64-.37-.64-.27-.09-.55.18-1.92,1.46-.27.18-.55.46-.82.55l-2.11,1.74c-.55.55-1.01,1.01-1.46,1.37l-.18.27-4.12,4.39c-.82.92-2.2,1.92-2.47,2.2-.27.09-1.1,1.01-1.92,1.74-.82.82-1.56,1.56-1.65,1.56s-.46.27-.92.64c-.46.27-.82.55-1.01.55-.09,0-.37.27-.73.55-.37.27-.92.73-1.19.82-1.1.55-1.74,1.01-2.56,1.65-.46.46-1.1.82-1.65,1.1-.55.18-1.1.46-1.19.55-.37.27-.55.73-1.1.82-.82.18-1.65.55-2.2,1.01-.27.18-.73.46-1.1.55-.27.09-.73.27-.92.46-.27.18-.82.37-1.92.64-.92.18-1.65.37-1.83.55-.09.09-.46.27-.82.27-.27.09-.82.27-1.37.37-1.1.46-1.92.64-3.02.55-.46,0-1.19,0-1.65.09-3.94.09-5.86-.09-6.5-.55ZM391.55,114c-.27.09-.92.27-1.65.37-.92.09-1.19.27-1.74.64-.46.37-.82.55-.92.55s-.37.18-.46.27c-.18.18-.27.27-.46.27-.09,0-.64.46-1.19.92-.55.46-1.1,1.01-1.37,1.1-.27.09-.92.64-1.46,1.19-.64.55-1.19,1.19-1.37,1.37-.73.73-1.46,1.46-1.46,1.65,0,0-.37.37-.73.82-.18.18-.55.46-.64.64-.18.27-.37.64-.55.82q-.18.27,0,.37c.27.09,2.93-.09,4.03-.46.37-.18,1.01-.37,1.37-.46s.82-.27.92-.37c.18-.09.55-.27.92-.37.73-.18,2.84-1.19,3.57-1.83.18-.18.46-.27.55-.27s.37-.18.64-.37c.27-.18.64-.46.92-.55.18-.09.73-.55,1.1-.92.27-.37.82-.92,1.19-1.28.64-.64,1.28-1.65,1.56-2.47.18-.55,0-1.46-.27-1.65-.37-.18-2.01-.18-2.47,0Z"/>
        <path class="cls-1" d="M457.63,108.14c1.01.18,1.46.27,2.11.92.18.18.46.27.55.27s.37.18.55.37l1.01.73c.73.37,1.74,1.37,2.38,2.38.37.46.37.64.37,1.65,0,1.19-.27,2.2-.73,2.65-.27.18-.55.64-.73,1.01-.18.37-.37.92-.55,1.19l-1.19,1.37c-.37.64-1.46,1.74-2.11,2.47-.82.73-1.65,1.74-1.83,2.11-.37.37-.64.82-.82.82-.09.09-.55.73-.82,1.37-.46.92-1.01,1.56-1.46,2.11-1.65,1.74-2.2,2.38-2.47,2.84-.09.27-.46.82-.73,1.1-1.1,1.19-2.56,3.66-2.56,4.39,0,.46.27,1.46.46,2.01.55.82,1.92,1.37,3.39,1.28,1.01-.18,3.39-.92,4.12-1.37.09-.09.46-.27.82-.46.55-.27,1.46-.73,3.39-2.11l1.28-.92c.55-.37,1.01-.82,2.38-1.83.27-.37.64-.64.73-.64s.37-.18.55-.27l.82-.82c.37-.18,1.28-.82,1.92-1.65.73-.73,1.65-1.56,2.01-1.83,1.1-.82,1.83-1.56,2.84-2.65.55-.73,1.28-1.56,1.65-1.74q.46-.55.64-.27c.27.27.27.73.09,1.28-.09.27-.37,1.01-.55,1.74s-.46,1.37-.55,1.65c-.18.18-.46.55-.55.82-.18.18-.46.64-.55.73-.18.18-.46.55-.64,1.01-.27.27-.82,1.01-1.19,1.46-.46.37-.92,1.01-1.1,1.19-.18.27-.46.55-.73.73-.09.09-.55.27-.82.55-.27.27-.64.73-.82.82-.64.73-1.65,1.46-1.92,1.65-.46.18-1.28.82-1.37,1.1-.09.27-.37.55-2.01,1.37-.55.37-1.28.82-1.37,1.01-.37.27-.55.37-2.47,1.37-.92.46-1.65.73-1.92.73-.18,0-.64.18-1.01.27-2.2.82-5.4,1.1-7.05.73-2.01-.55-4.39-2.29-5.4-4.03-.27-.37-.55-.82-.55-.92s-.09-.27-.27-.55c-.18-.18-.37-.46-.46-.73-.09-.27-.18-.55-.37-.64-.18-.37-.73-2.11-.82-2.93-.18-1.28-.09-3.11.09-3.75.46-1.1.73-2.11.92-2.65.46-1.28,2.38-5.13,3.2-6.22.18-.37.73-1.19,1.19-1.83.37-.73.82-1.28.82-1.37.37-.37,1.1-1.37,1.1-1.46,0-.18.09-.37.37-.55.09-.18.46-.55.64-.92.27-.27.46-.64.55-.64l.64-.82c.27-.37.55-.73.64-.73s.64-.64,1.1-1.28c.46-.73,1.19-1.56,1.56-1.83.64-.82,1.56-1.83,1.65-2.11.09-.18.27-.46.55-.55.37-.18.82-.18,1.46-.18ZM469.9,91.48c1.46.37,3.94,1.56,4.76,2.2.27.37.55.55.64.55,0,0,.27.37.37.64.37.82.27,2.11-.27,2.65-.09.18-.37.64-.46,1.01-.18.37-.55.92-.82,1.19-.37.37-.55.64-.55.73s-.27.27-.46.64c-.27.37-.55.73-.64.92,0,.09-.27.37-.55.46-.27.18-.64.64-.92,1.19-.46.55-.82.92-1.56,1.56-1.37.82-1.65.92-2.75.46-.92-.46-1.01-.64-2.11-2.2-1.28-1.92-1.37-1.92-1.37-2.75s.37-2.2.64-2.47c.09-.18.27-.37.27-.46s.09-.37.37-.64c.09-.09.46-.55.64-.92.27-.37.73-.82,1.1-1.19.73-.92,1.1-1.46,1.1-2.29,0-.64.18-.82,1.1-1.19l1.46-.09Z"/>
        <path class="cls-1" d="M491.68,107.5l1.56.18c.64,0,1.37.09,1.56.18l.64.09c.18,0,.82.09,1.19.18.37.18,1.01.37,1.28.46.37.09.82.18,1.01.18.64,0,2.47.92,3.66,1.92.27.18.73.46.82.64.27.09.73.55,1.1,1.01.64.82.92,1.01,2.01,2.2.27.27.55.73.64,1.01.18.37.37.73.55.73.09.09.46.64.82,1.28.27.55.73,1.19.92,1.37.18.18.37.64.55.92.09.27.46.73.82,1.19.73.73.18,1.28-.09,1.92-.09.27-.18.82-.27,1.28-.18.64-.27.92-.64,1.28-.27.27-.64.64-.64.92-.18.37-.46.73-.64.92-.18.27-.37.55-.46.82s-.46.82-.82,1.28c-.37.37-.55.82-.55.92,0,.27-2.75,3.2-3.2,4.03-.18.27-.55.82-.73,1.19-.55.73-.73.82-1.74,2.47-.18.46-.55.82-.73,1.01-.18.09-.46.55-.73.92-1.28,2.2-2.29,3.75-2.56,4.12-.27.37-.64.82-.73,1.28-.27.27-.64.92-1.01,1.37-.27.46-.92,1.37-1.19,2.01-.46.64-.82,1.28-1.01,1.46s-.46.64-.55.92c-.09.27-.27.55-.46.64-.09,0-.64.64-1.01,1.28-.55.64-1.19,1.65-1.65,2.01-.27.46-.82,1.1-.92,1.37-.27.55-2.2,2.75-2.56,3.3l-.92.82c-.27.18-.82.64-1.19.92-.27.37-1.19,1.01-1.92,1.46-.64.55-1.56,1.1-1.83,1.37-.18.27-.82.55-1.37.73l-1.28.46c-.37.18-.92.18-2.47,0-1.46-.18-4.3-1.1-5.22-1.65-.27-.27-.64-.46-.92-.55-.18,0-.55-.27-.82-.46-.27-.18-.55-.37-.64-.37-.27,0-1.74-1.37-2.11-1.92-.18-.27-.46-.55-.73-.73-.18-.09-.55-.64-.82-1.01-.18-.37-.55-.82-.73-.92-.55-.37-2.11-3.48-2.47-4.58-.27-1.1-.46-2.2-.27-2.65.18-.55.92.18,1.83,1.74,1.37,2.2,2.38,3.48,3.84,4.76,1.83,1.74,2.29,1.92,3.94,1.74.64,0,1.65-.09,2.2-.27.55-.18,1.19-.37,1.46-.37.27-.18.92-.46,1.46-.82.55-.46,1.1-.73,1.19-.73s.27-.27.55-.55c.27-.27,1.01-.92,1.56-1.56,1.28-1.28,2.11-2.11,2.47-2.75.18-.27.46-.55.55-.55.09-.09.18-.37.37-.55.09-.27.37-.73.55-1.01.27-.27,1.1-.92,1.37-1.56.37-.55,1.1-1.46,1.37-1.74.73-.82,2.47-3.66,2.47-3.94,0-.09,1.01-1.83,1.28-2.2.27-.27.64-.82.64-1.19l.64-1.1c.55-.73,1.19-1.56,1.37-2.11.09-.27.27-.55.46-.73.46-.37.92-1.65.64-1.65-.09,0-.55.18-.92.46s-1.19.64-1.56.92c-.46.18-1.1.55-1.19.73-.27.27-.92.64-1.56,1.1-.46.37-3.02,2.56-3.11,2.84-.18.09-.73.55-1.37.82-.55.27-1.37.82-1.83,1.1-.46.37-1.01.64-1.37.82-.27,0-.64.09-.82.27-.55.09-1.28.09-2.29-.18-1.37-.37-2.01-.82-3.02-1.83-.46-.55-1.01-1.1-1.28-1.19-.18-.09-.37-.46-.46-.82-.09-.27-.46-.73-.55-.92-.64-1.01-1.28-4.85-1.01-6.68.27-1.74.73-3.75,1.28-5.31.09-.09.18-.37.27-.55,0-.09.18-.55.46-1.01.37-.37.73-1.01.92-1.37.18-.37.37-.64.55-.73,0,0,.37-.55.64-1.1l1.01-1.83c.37-.46.64-1.1.92-1.46.27-.37.64-1.01,1.01-1.37l.64-.82c0-.09.37-.46.82-.73.27-.37.92-.92,1.28-1.19.27-.27.73-.73,1.1-1.01.37-.18.92-.55,1.1-.82,1.28-1.19,3.2-2.47,4.76-3.02.37-.09,1.01-.37,1.46-.55.37-.09.73-.27.92-.27s.55-.09.92-.27c.55-.27,1.19-.37,1.56-.09ZM495.89,115.65c-.27.09-.73.18-1.01.09-.37,0-.73.18-1.28.55-.46.27-1.1.55-1.37.55-1.28.27-4.12,2.01-4.12,2.56,0,.18-.27.37-.46.55-.27.18-.73.55-1.01.82s-.64.73-1.01,1.01c-.37.27-.92,1.01-1.28,1.65-.37.55-1.01,1.65-1.56,2.2-.55.64-1.1,1.37-1.19,1.65-.27.27-.37.55-.46.55,0,0-.18.37-.46.73-.09.37-.27.92-.55,1.19-.92,1.46-1.19,2.29-1.37,2.84-.09.27-.18,1.01-.37,1.56-.09.55-.27,1.19-.18,1.65-.09.55-.09.64.18.64.09,0,.37-.09.55-.27.09,0,.46-.18.82-.27.27-.09.64-.27.73-.46.18-.18.37-.27.55-.27.09,0,.27-.09.37-.18s.46-.37.82-.55.92-.55,1.19-.73c.37-.27.82-.55,1.1-.64.18-.18.55-.27.73-.46.09-.18.55-.37.92-.64.46-.18.64-.46.73-.46.09-.27,2.47-2.01,2.93-2.29.27-.09.46-.27.64-.46.55-.55,1.37-1.19,1.83-1.46.27-.09.55-.27.55-.46.09-.09.46-.55.92-.82.46-.37,1.01-.82,1.1-1.1l1.01-.82c1.74-1.19,2.11-1.46,2.38-1.92.09-.27.37-.46.46-.46s.73-.46,1.19-1.01c.82-.73,1.19-1.28,1.46-1.83.18-.46.46-.92.55-1.01.27-.18.55-.92.55-1.19s-.18-.37-.55-.37c-.27-.18-.73-.27-1.1-.37l-1.83-.27c-1.46-.09-2.65-.09-3.11,0Z"/>
        <path class="cls-1" d="M529.03,105.76c.73.09,2.11.64,2.75,1.01.27.27.82.55,1.37.82,1.01.55,1.65,1.28,1.92,1.92.18.27.27.55.46.64.18.18.64,1.28.92,2.11.27,1.19.27,1.65,0,2.38-.18.37-.27.82-.27.92,0,.55-.64,2.11-1.1,2.84-.27.37-.55.82-.64,1.01,0,.18-.37.64-.73,1.01-.37.37-.82.92-.92,1.19-.18.46-.92,1.28-1.1,1.28-.27,0-3.84,4.67-3.84,5.03,0,.27,2.29-1.19,3.11-2.01.27-.27,1.01-.82,1.65-1.28.64-.37,1.37-.92,1.65-1.19.55-.46,1.01-.82,1.83-1.19.27-.09.64-.37.92-.64.27-.18.82-.55,1.19-.73s1.01-.64,1.37-1.01l1.28-1.01c.27-.09.73-.37.82-.55.46-.37,2.38-1.65,2.56-1.65.09,0,.46-.27.92-.55l.82-.55c.18,0,.92-.46,2.01-1.19.37-.27.82-.46,1.1-.55.27-.09.55-.27.73-.37.37-.46,1.74-1.19,2.2-1.28.27,0,.55-.18.64-.27.18-.18,1.74-.37,2.93-.27.64,0,2.84.55,3.39.92.82.55,1.65,1.65,2.2,3.48l.27.82-.37,1.01c-.18.55-.46,1.19-.64,1.46-.18.37-.55.92-1.28,2.47-.27.46-.64.82-1.56,1.65-.27.27-.37.55-.37.73s-.27.64-.55,1.01c-.37.46-.55.82-.55.82,0,.27-1.01,1.37-2.29,2.56l-1.19,1.28c-.37.55-1.46,1.65-2.2,2.47-.82.82-1.46,1.56-1.46,1.65l-.73.92c-.27.46-.64,1.01-.82,1.19-.09.27-.27.55-.37.82-.37.64-.82,2.2-.82,2.56,0,.46,0,.55.27.55.37.18,1.19,0,1.46-.27.18-.09.46-.09.73-.09.18,0,.82-.27,1.28-.55.46-.27,1.65-.92,2.56-1.37s1.74-.92,1.83-1.01c.27-.27.46-.37,1.83-1.1,1.1-.55,1.65-.92,3.11-2.2.46-.37,1.01-.82,1.28-.92.27-.09.73-.27.82-.46l1.56-1.28c.64-.64,1.46-1.28,1.74-1.56l1.01-.82c.27-.09.82-.55,1.28-1.1.46-.46.92-.92,1.1-1.01.09-.18.46-.55.73-.92.92-1.19,1.37-1.56,1.56-1.46.09.09.09.73-.18,1.01-.09.18-.09.55-.09.73s-.27.64-.46.92l-.92,1.65c-.27.55-.64,1.19-.82,1.37-.27.18-.73.82-1.1,1.28-1.01,1.19-2.38,2.56-3.3,3.3-.37.27-.82.64-.82.82-.18.27-.55.55-.82.73s-.64.46-.73.64-.27.46-.55.55c-1.19.82-1.92,1.37-2.29,1.74-.18.37-.82.82-1.28,1.19-.55.37-.92.64-.92.73s-.27.27-.46.37c-.27.09-.92.64-1.56,1.19-.55.64-1.19,1.1-1.46,1.1-.18.09-.82.37-1.37.73-.82.46-1.28.64-2.2.73-.64.09-1.37.18-1.65.18-1.56.27-1.92.27-2.93-.18-1.46-.64-2.65-1.19-2.84-1.46-.09-.09-.37-.27-.64-.37s-.46-.37-.55-.55c0-.18-.27-.46-.46-.64-.27-.09-.55-.55-.73-1.1-.18-.37-.37-.92-.46-1.01-.09-.18-.27-.92-.55-1.74-.27-1.37-.27-1.46-.18-2.11.18-.37.18-.82.18-1.01s.09-.73.27-1.19c.09-.46.37-1.19.46-1.56.18-.82.73-2.01,1.19-2.47l.82-1.37c.37-.64.92-1.46,1.56-2.11.46-.46,1.28-1.37,1.74-1.92.37-.55,1.1-1.46,1.56-1.92l.92-.92c0-.09.09-.18.18-.27.37-.09,2.56-2.47,2.65-2.93.18-.27.09-.27-.18-.27-.18,0-.37,0-.46.18l-2.11,1.37c-.37.09-.92.55-1.19.82-.46.37-.92.64-1.19.82-.37.09-.73.46-1.19.92-.37.46-.92.92-1.19,1.01-.73.37-1.46.92-1.74,1.19-.09.18-.64.55-1.01.82-1.56,1.1-1.92,1.37-3.48,2.75-.82.82-1.65,1.56-1.92,1.56-.27.09-.64.46-.82.82-.18.27-.46.55-.55.55-.09.09-.92.82-1.74,1.65-.92.82-1.83,1.56-2.01,1.65s-.92.82-1.56,1.56c-.73.73-1.74,1.83-2.38,2.38-.55.55-1.19,1.19-1.37,1.46-.18.27-.55.55-.73.64-.73.37-1.74,1.1-2.38,1.92-.18.37-.73.64-1.56,1.1-1.1.55-1.28.55-2.56.55l-1.28.09-1.19-.73c-2.38-1.56-3.48-3.66-3.02-5.49.09-.37.27-1.01.27-1.56.09-1.1.37-1.83,1.28-4.03.27-.64.64-1.37.64-1.46,0-.27.27-.64.55-.92.27-.37.55-.73.64-1.01.18-.27.27-.55.46-.64l.73-1.01c.37-.55.82-1.19,1.01-1.46l.82-1.1c.18-.37.46-.73.73-1.01.09-.18.46-.64.64-.92.18-.37.55-.82.82-1.19.37-.37,1.1-1.37,1.65-2.2,1.37-2.01,2.01-3.02,2.56-3.57.18-.27.73-1.1,1.01-1.83.46-.73.82-1.37.82-1.46.27-.09,2.29-3.2,2.47-3.66.18-.55.18-1.1-.18-1.28-.46-.27-.27-.82.37-1.1.27-.18.55-.27.92-.18Z"/>
        <path class="cls-1" d="M576.9,132.22c.18,0,.64,0,1.1.18.37.18,1.1.27,1.56.27,1.19,0,1.56.18,2.01.82.18.37.55.92.92,1.1,1.01.55,1.19,1.01,1.28,2.11,0,.64-.09.92-.27,1.37-.18.27-.27.64-.27.64,0,.09-.27.27-.37.55-.09.37-.46.82-.64,1.01-.27.64-.92,1.92-2.65,3.66-.46.46-.92,1.1-.92,1.28,0,.27-.27.64-.64,1.01l-.73.64-.82-.18c-.92-.18-1.65-.82-2.2-1.56-.09-.27-.55-.82-.82-1.1-.37-.37-.82-1.01-1.1-1.46-.46-.73-.55-.92-.46-1.92,0-1.19.18-1.37.64-2.47.27-.64,1.01-1.65,1.37-2.11.82-1.01,1.1-1.28,1.1-1.83,0-.27.18-.55.82-1.19.46-.46.92-.82,1.1-.82Z"/>
      </g>
      <g>
        <path class="cls-1" d="M122.6,208.04c-.17,3.25-.58,5.19-1.71,7.39-1.16,2.26-3.25,4.38-5.1,5.48-.32.2-.61.35-.87.35-.2,0-.41-.09-.61-.29-.58-.58-1.57-1.16-2.58-1.54,2.84-1.54,4.55-2.96,5.77-5.16,1.07-1.91,1.36-3.48,1.48-6.23h-5.51c-1.45,0-2.87.09-4.35.17-.26.03-.35-.17-.38-.55-.15-.81-.23-1.91-.23-2.78,1.62.14,3.25.14,4.93.14h13.02c2.26,0,3.94-.06,5.65-.17.29,0,.32.17.32.58.03.38.03,1.86,0,2.23,0,.38-.17.49-.43.49-1.51-.06-3.51-.12-5.51-.12h-3.89ZM116.86,201.32c-1.33,0-2.49.06-4.12.12-.38,0-.46-.14-.49-.49-.09-.7-.12-1.74-.2-2.78,2.03.12,3.51.14,4.81.14h5.33c1.62,0,3.45-.03,4.9-.12.29,0,.35.17.35.55.06.7.06,1.42,0,2.12,0,.41-.06.55-.38.55-1.57-.06-3.28-.09-4.87-.09h-5.33ZM129.33,196.27c.15-.09.26-.06.41.09.84.78,1.77,2.06,2.46,3.36.09.17.09.32-.14.46l-1.3.78c-.2.12-.35.06-.46-.14-.75-1.42-1.57-2.61-2.61-3.62l1.65-.93ZM132.08,194.65c.17-.12.26-.06.41.09.99.93,1.91,2.17,2.46,3.25.09.17.12.35-.15.52l-1.22.78c-.26.15-.41.03-.49-.15-.67-1.3-1.48-2.49-2.58-3.59l1.57-.9Z"/>
        <path class="cls-1" d="M158.17,203.75c1.42,0,3.04-.03,4.38-.09.35-.03.38.15.41.46.06.72.06,1.57,0,2.29-.03.38-.09.49-.49.46-.99,0-2.75-.03-4.17-.03h-1.19c-.17,4.15-.81,6.58-2.23,8.93-1.45,2.41-3.8,4.15-6.84,5.39-.41.17-.64.26-.81.26s-.32-.09-.55-.32c-.87-.9-1.42-1.3-2.41-1.74,4.12-1.28,6.35-2.75,7.83-5.13,1.13-1.86,1.59-3.86,1.71-7.39h-6.18v1.04c0,1.71,0,3.28.09,4.81.03.32-.17.38-.49.41-.75.06-1.71.06-2.49,0-.38-.03-.55-.09-.52-.41.09-1.51.15-2.93.15-4.75v-1.1h-.87c-1.57,0-3.88.09-4.78.14-.23,0-.32-.17-.35-.55-.12-.61-.15-1.62-.2-2.81,1.22.09,3.1.14,5.33.14h.87v-2.12c0-1.86-.06-2.58-.35-4.26,1.51.15,2.93.29,3.54.46.32.06.43.2.43.41,0,.17-.09.38-.17.61-.2.52-.2.81-.2,2.78v2.12h6.23l.03-2.84c.03-1.62-.06-2.96-.26-3.97,1.1.12,2.7.29,3.39.49.41.09.52.23.52.46,0,.12-.03.29-.12.52-.2.55-.23,1.3-.23,2.55v2.75h1.01ZM159.62,196.74c.15-.06.26-.06.41.12.78.84,1.62,2.15,2.23,3.51.09.2.06.32-.17.43l-1.19.61c-.23.12-.38.06-.49-.17-.64-1.45-1.36-2.67-2.35-3.77l1.57-.72ZM162.35,195.49c.17-.09.26-.06.41.12.93.99,1.77,2.29,2.23,3.39.09.17.09.38-.17.49l-1.16.58c-.26.12-.38.03-.46-.14-.58-1.36-1.33-2.61-2.35-3.77l1.51-.67Z"/>
        <path class="cls-1" d="M184.26,214.33c0,2,.03,3.71.09,6.03.03.38-.12.49-.44.49-.93.06-1.97.06-2.9,0-.32,0-.44-.12-.41-.46.03-2.09.12-3.97.12-5.94v-6.76c-2.55,2.15-5.65,4.35-7.97,5.57-.15.09-.29.12-.44.12-.23,0-.41-.09-.61-.29-.67-.67-1.62-1.25-2.49-1.71,4-2.06,6.47-3.74,9.13-5.94,2.29-1.88,4.38-3.91,6.18-6.06.99-1.16,1.36-1.74,1.83-2.99,1.3.72,2.58,1.51,3.22,2.03.17.12.23.29.23.43,0,.23-.17.49-.41.64-.49.32-.96.75-1.74,1.59-1.13,1.36-2.2,2.49-3.39,3.65v9.6Z"/>
        <path class="cls-1" d="M202.53,199.43c.12-.15.26-.23.41-.23.12,0,.23.06.38.14,1.48.78,3.89,2.55,5.54,4.12.17.17.26.29.26.41s-.06.23-.17.38c-.43.58-1.39,1.74-1.8,2.17-.15.14-.23.23-.35.23s-.23-.09-.38-.23c-1.74-1.8-3.83-3.45-5.91-4.73.64-.78,1.48-1.68,2.03-2.26ZM205.05,214.71c3.54-1.83,5.42-3.04,8.35-5.39,3.54-2.87,5.48-4.73,7.94-7.89.17,1.45.43,2.44.81,3.39.09.2.14.38.14.55,0,.26-.14.49-.46.87-1.54,1.8-4.03,4.12-6.67,6.15-2.41,1.88-4.84,3.51-8.76,5.68-1.3.78-1.68,1.07-1.94,1.33-.17.17-.35.29-.52.29-.15,0-.32-.12-.49-.32-.72-.81-1.62-2-2.32-3.22,1.48-.41,2.38-.67,3.91-1.45Z"/>
        <path class="cls-1" d="M243.03,202.36c-3.54.67-6.64,1.28-9.74,1.91-1.1.26-1.39.32-1.83.46-.2.09-.41.23-.64.23-.2,0-.43-.17-.55-.43-.38-.78-.7-1.8-1.07-3.13,1.48-.06,2.35-.17,4.61-.49,3.57-.52,9.94-1.48,17.42-2.46.43-.06.58.12.61.32.14.67.29,1.74.32,2.55,0,.35-.17.43-.55.43-1.36.09-2.29.23-3.54.64-4.93,1.68-7.39,5.07-7.39,8.55,0,3.74,2.67,5.77,7.71,6.09.46,0,.64.12.64.43,0,.75-.12,1.77-.32,2.49-.09.43-.2.61-.55.61-5.1,0-10.7-2.93-10.7-8.96,0-4.12,2.06-6.9,5.57-9.19v-.06ZM248.77,205.49c.15-.12.26-.09.43.06.9.7,1.94,1.86,2.75,3.1.12.17.12.32-.09.46l-1.22.9c-.2.14-.35.12-.49-.09-.87-1.33-1.8-2.44-2.93-3.36l1.54-1.07ZM251.35,203.61c.17-.12.26-.09.43.06,1.07.81,2.12,1.97,2.75,2.99.12.17.15.35-.09.52l-1.16.9c-.23.17-.38.09-.49-.09-.78-1.25-1.71-2.35-2.9-3.33l1.45-1.04Z"/>
        <path class="cls-1" d="M270.57,196.85c.35.12.52.29.52.52,0,.2-.03.32-.15.46-.26.32-.35.72-.41,1.04-.09.52-.14.96-.23,1.45,2.67-.26,4.73-.58,7.54-1.22.35-.09.43.03.49.29.15.61.29,1.33.29,1.97,0,.38-.29.52-.61.58-3.83.78-5.6.99-8.23,1.22-.12,1.22-.17,1.91-.2,2.93,1.13-.38,3.02-.61,4.44-.64.17-.46.46-1.3.49-2.12,1.04.32,2.17.78,2.58,1.07.35.23.52.46.52.64,0,.12-.06.23-.17.35-.15.15-.23.32-.38.58,3.74.99,5.94,3.45,5.94,7.07,0,4.2-3.45,6.93-8.06,8.18-.64.17-.96.09-1.28-.55-.2-.41-.78-1.01-1.71-1.8,2.09-.43,4.32-1.36,5.39-2.12,1.39-1.01,2.32-2.26,2.32-4.35,0-2.32-1.65-3.71-3.59-4.2-1.68,3.19-3.39,5.48-5.48,7.6.15.52.32.84.52,1.3.17.38.06.52-.23.72-.67.49-1.33.84-1.74,1.01-.29.15-.41.15-.58-.14-.2-.35-.35-.7-.49-1.13-2.06,1.42-3.57,2.09-5.04,2.09-1.97,0-3.22-1.33-3.22-3.59,0-3.71,3.22-7.25,6.78-9.02.03-1.25.09-2.52.15-3.62-1.71.06-2.49.03-2.99.03-.84,0-1.3,0-1.65-.06-.32-.03-.49-.17-.52-.67-.09-.64-.09-1.39-.15-2.2,1.86.2,3.45.15,5.62.12.12-1.04.23-2.35.23-3.16,0-.43-.03-.84-.12-1.3,1.68.2,2.67.41,3.39.67ZM262.86,215.46c0,.7.43,1.1.96,1.1.81,0,1.88-.52,3.36-1.68-.29-1.74-.52-3.31-.58-4.99-2.23,1.59-3.74,3.68-3.74,5.57ZM273.15,207.93c-1.04.03-2.38.23-3.71.67.03,1.51.12,2.87.35,4.35,1.19-1.36,2.55-3.39,3.36-5.02Z"/>
        <path class="cls-1" d="M302.98,200.53c.26-.09.38-.09.43.23.15.72.23,1.59.26,2.35,0,.26-.12.32-.35.35-1.57.32-2.99.52-4.78.78-1.86,4.9-3.57,8.9-5.65,12.44-.12.2-.2.29-.32.29-.09,0-.2-.06-.35-.14-.67-.41-1.51-1.01-2-1.48-.15-.12-.2-.2-.2-.32,0-.09.03-.2.15-.35,2.17-3.59,3.71-6.64,5.02-10.12-1.1.06-2,.06-2.9.06-.64,0-.87,0-1.59-.03-.29,0-.35-.09-.41-.46-.14-.55-.23-1.51-.29-2.46,1.19.09,1.86.12,2.7.12,1.13,0,2-.03,3.33-.14.35-1.22.55-2.2.75-3.25.17-1.01.17-1.45.17-2.35,1.25.17,2.49.35,3.39.61.29.06.46.23.46.43,0,.23-.09.38-.26.55-.17.23-.29.49-.46,1.07-.2.7-.43,1.59-.7,2.46,1.13-.12,2.46-.38,3.59-.64ZM303.79,208.3c-.03-.78-.06-1.25-.23-2.06,1.42.15,2.17.26,3.16.55.26.06.41.2.41.46,0,.06-.06.26-.17.61-.12.35-.14.7-.12,1.19,0,1.71.09,2.96.32,4.93,2.09.84,3.51,1.48,5.22,2.7.29.2.32.32.17.61-.43.9-.84,1.62-1.33,2.35-.09.14-.17.2-.26.2s-.17-.06-.29-.17c-1.28-1.1-2.35-1.74-3.54-2.44,0,2.9-2.09,4.23-5.39,4.23s-5.33-1.62-5.33-4.12,2.09-4.23,5.36-4.23c.55,0,1.36.03,2.29.17-.17-1.86-.23-3.62-.26-4.99ZM301.73,215.61c-1.45,0-2.58.58-2.58,1.68,0,.93.81,1.39,2.46,1.39,1.57,0,2.52-.84,2.52-2.06,0-.26,0-.41-.03-.58-.7-.23-1.48-.43-2.38-.43ZM307.12,201.66c.17-.29.32-.32.61-.2,1.71.46,4,1.62,5.68,2.73.17.12.26.2.26.32,0,.09-.03.2-.12.35-.29.64-.81,1.54-1.22,2.15-.09.14-.17.2-.26.2s-.14-.03-.26-.12c-1.71-1.16-3.8-2.44-6-3.16.49-.87.93-1.74,1.3-2.26Z"/>
        <path class="cls-1" d="M334.06,200.65c.32-.09.43.06.46.29.09.64.17,1.48.2,2.09.03.38-.06.46-.43.55-1.8.49-3.28.81-5.04,1.1-1.97,6.44-3.45,10.87-5.31,15.68-.15.41-.32.38-.64.29-.29-.12-1.71-.72-2.32-1.07-.23-.15-.32-.38-.23-.58,2.2-5.07,3.6-8.9,5.02-13.74-1.68.17-3.71.32-5.07.32-.43,0-.55-.09-.61-.46-.12-.61-.26-1.59-.41-2.64.61.09.96.09,2.15.09,1.45,0,3.02-.09,4.7-.29.29-1.16.52-2.44.72-3.62.12-.87.17-1.74.17-2.67,1.54.23,2.73.43,3.65.81.23.09.32.29.32.46,0,.12,0,.26-.15.46-.23.41-.46.7-.61,1.16-.29,1.04-.49,2.03-.7,2.75,1.13-.2,2.7-.58,4.12-.99ZM332.92,214.51c.29,0,.41.12.43.41.23,2.12,1.65,2.73,4.44,2.73,1.62,0,3.71-.26,4.87-.41.23-.03.32.03.35.26.12.75.23,1.74.23,2.52.03.35,0,.43-.46.46-.99.15-2.87.32-3.94.32-3.8,0-5.77-.52-7.07-1.88-.93-.93-1.25-2.29-1.3-3.97.9-.23,2.09-.43,2.46-.43ZM332.61,206.82c0-.41.09-.49.52-.58,1.83-.38,3.97-.67,5.65-.67,1.13,0,2.38.12,3.39.29.41.06.49.09.49.43.06.72.06,1.54.03,2.32,0,.49-.15.61-.55.52-1.01-.2-2.35-.35-3.59-.35-1.74,0-3.94.29-5.83.67-.06-1.01-.12-2.06-.12-2.64Z"/>
        <path class="cls-1" d="M364.99,215.58c0,.32-.17.46-.55.52-.38.06-1.25.15-2.06.15-.26,0-.38-.17-.38-.46,0-1.04,0-2.49.03-3.54-2.58,1.33-3.51,2.46-3.51,3.86,0,1.22.99,2,4.03,2,2.67,0,4.99-.26,7.22-.58.26-.03.38.06.41.32.15.67.26,1.68.26,2.38.03.35-.09.55-.32.55-2.49.32-4.38.38-7.19.38-4.75,0-7.28-1.42-7.28-4.78,0-2.78,1.74-4.81,6.12-7.07-.09-1.48-.44-2.06-1.74-2-1.36.06-2.67.93-4,2.09-1.25,1.22-1.97,2.06-2.9,3.16-.15.17-.23.26-.35.26-.09,0-.2-.09-.32-.2-.41-.41-1.28-1.3-1.65-1.91-.09-.12-.12-.2-.12-.26,0-.12.06-.2.2-.32,2.23-2,4.38-4.29,6.06-7.19-1.36.06-2.93.09-4.64.09-.26,0-.35-.15-.41-.46-.09-.46-.2-1.54-.29-2.41,2.2.12,4.46.09,6.67-.03.32-.78.58-1.48.87-2.49.12-.49.2-.99.2-1.77,1.28.2,2.55.52,3.3.81.23.09.35.29.35.49,0,.14-.06.32-.2.43-.17.14-.35.41-.49.7-.17.41-.32.78-.67,1.57,1.77-.2,3.54-.49,5.28-.9.32-.06.41.03.46.29.15.58.26,1.25.29,2.09.03.29-.09.41-.49.46-2.17.32-4.67.64-6.78.87-.67,1.07-1.3,2.15-2.17,3.22l.03.06c.93-.61,2.12-.9,2.9-.9,1.91,0,3.25.87,3.54,3.13,1.13-.52,2.78-1.28,4.26-2.03.55-.29,1.48-.81,2.2-1.57.96,1.01,1.71,2.03,2.03,2.55.17.26.23.46.23.64,0,.23-.14.35-.43.41-.61.09-1.19.23-1.77.43-1.88.67-3.77,1.3-6.23,2.32v4.67Z"/>
        <path class="cls-1" d="M397.66,203.98h-10.12c-1.97,0-3.33.06-4.35.17-.32,0-.43-.15-.43-.49-.09-.78-.15-2.15-.15-3.1,1.74.17,2.75.2,4.84.2h8.61c1.51,0,3.04-.06,4.58-.12.46,0,.61.12.58.49,0,1.54-.06,3.04-.06,4.58v6.93c0,2.12.09,4.44.12,5.25,0,.29-.12.38-.52.41-.81.06-1.74.06-2.55,0-.46-.03-.55-.06-.55-.49v-1.16h-9.97c-1.83,0-3.36.09-4.75.12-.26,0-.38-.12-.41-.43-.09-.75-.15-1.8-.15-3.02,1.36.09,3.04.15,5.33.15h9.94v-9.48Z"/>
        <path class="cls-1" d="M416.07,210.8c-2.87,0-3.97.35-4.26.35-.35,0-.58-.17-.67-.61-.15-.67-.32-2.03-.43-3.51,1.88.29,3.33.35,6.26.35h9.34c2.2,0,4.44-.06,6.67-.09.43-.03.52.06.52.41.06.87.06,1.86,0,2.73,0,.35-.12.46-.52.43-2.17-.03-4.32-.06-6.47-.06h-10.44Z"/>
        <path class="cls-1" d="M454.25,208.04c-.17,3.25-.58,5.19-1.71,7.39-1.16,2.26-3.25,4.38-5.1,5.48-.32.2-.61.35-.87.35-.2,0-.41-.09-.61-.29-.58-.58-1.57-1.16-2.58-1.54,2.84-1.54,4.55-2.96,5.77-5.16,1.07-1.91,1.36-3.48,1.48-6.23h-5.51c-1.45,0-2.87.09-4.35.17-.26.03-.35-.17-.38-.55-.15-.81-.23-1.91-.23-2.78,1.62.14,3.25.14,4.93.14h13.02c2.26,0,3.94-.06,5.65-.17.29,0,.32.17.32.58.03.38.03,1.86,0,2.23,0,.38-.17.49-.44.49-1.51-.06-3.51-.12-5.51-.12h-3.89ZM448.51,201.32c-1.33,0-2.49.06-4.12.12-.38,0-.46-.14-.49-.49-.09-.7-.12-1.74-.2-2.78,2.03.12,3.51.14,4.81.14h5.33c1.62,0,3.45-.03,4.9-.12.29,0,.35.17.35.55.06.7.06,1.42,0,2.12,0,.41-.06.55-.38.55-1.57-.06-3.28-.09-4.87-.09h-5.33ZM460.98,196.27c.15-.09.26-.06.41.09.84.78,1.77,2.06,2.46,3.36.09.17.09.32-.15.46l-1.3.78c-.2.12-.35.06-.46-.14-.75-1.42-1.57-2.61-2.61-3.62l1.65-.93ZM463.73,194.65c.17-.12.26-.06.41.09.99.93,1.91,2.17,2.46,3.25.09.17.12.35-.15.52l-1.22.78c-.26.15-.41.03-.49-.15-.67-1.3-1.48-2.49-2.58-3.59l1.57-.9Z"/>
        <path class="cls-1" d="M485.04,215.96c0,1.39.06,3.25.09,4.73.03.35-.15.49-.49.52-.75.06-1.59.06-2.35,0-.32-.03-.49-.17-.46-.52.03-1.65.09-3.1.09-4.64v-4.96c-1.97,1.65-4.52,3.42-6,4.17-.12.09-.26.12-.38.12-.2,0-.44-.12-.58-.29-.52-.61-1.3-1.19-2.09-1.45,4.55-2.38,8.49-5.42,12.03-9.42.67-.78,1.16-1.51,1.54-2.49.99.58,2.2,1.33,2.67,1.74.2.17.32.38.32.52,0,.2-.15.41-.43.55-.38.2-1.04.9-1.3,1.19-.75.87-1.62,1.83-2.64,2.81v7.42Z"/>
        <path class="cls-1" d="M514.29,215.9c0,2.58.09,4.49.09,5.22,0,.26-.2.38-.55.38-.78.06-1.71.06-2.49,0-.35,0-.55-.12-.55-.41,0-.81.15-2.75.15-5.16v-3.74c-2.58,1.88-4.75,3.25-7.97,4.84-.17.09-.35.15-.49.15-.17,0-.38-.09-.58-.32-.7-.72-1.3-1.33-2.32-1.77,4-1.83,6.7-3.36,9.34-5.22,2.41-1.71,4.12-3.16,5.62-4.7l-6.7.15c-1.57.06-2.64.12-3.83.2-.32,0-.43-.17-.49-.55-.15-.67-.23-1.74-.32-2.84,1.25.14,2.46.26,4.03.23l8.41-.09c1.07,0,1.62-.12,2.06-.32.17-.09.32-.12.44-.12.17,0,.32.06.49.23.46.38,1.13,1.28,1.45,1.71.12.17.17.35.17.49,0,.23-.15.41-.43.52-.32.14-.61.35-.93.67-1.48,1.51-3.02,2.96-4.58,4.29v6.15ZM509.59,196.1c.17-.26.32-.35.61-.26,2.09.61,4.75,1.8,6.15,2.52.2.12.32.2.32.32,0,.09-.03.17-.12.29-.32.64-.7,1.36-1.19,2.15-.12.2-.23.29-.38.29-.09,0-.2-.03-.32-.12-1.45-.9-3.97-2.12-6.47-2.87.58-.93,1.1-1.88,1.39-2.32ZM517.42,209.2c.2-.26.29-.23.58-.12,2,.81,4.29,2.06,6.32,3.54.17.12.26.2.26.35,0,.09-.03.2-.12.35-.46.75-.84,1.39-1.42,2.09-.12.15-.23.23-.35.23s-.23-.09-.41-.2c-1.83-1.48-3.68-2.61-6.52-4,.64-.93,1.28-1.8,1.65-2.23Z"/>
        <path class="cls-1" d="M536.67,210.8c-2.87,0-3.97.35-4.26.35-.35,0-.58-.17-.67-.61-.15-.67-.32-2.03-.43-3.51,1.88.29,3.33.35,6.26.35h9.34c2.2,0,4.44-.06,6.67-.09.43-.03.52.06.52.41.06.87.06,1.86,0,2.73,0,.35-.12.46-.52.43-2.17-.03-4.32-.06-6.47-.06h-10.44Z"/>
        <path class="cls-1" d="M571.95,204.85c3.54,1.1,6.35,2.23,9.22,3.94.32.17.46.38.32.75-.38.96-.84,1.86-1.25,2.52-.12.2-.23.32-.38.32-.09,0-.2-.03-.32-.15-2.67-1.71-5.28-2.99-7.62-3.71v6.41c0,1.88.06,3.59.12,5.68.03.35-.12.43-.52.43-.84.06-1.74.06-2.58,0-.41,0-.55-.09-.55-.43.09-2.15.12-3.86.12-5.71v-14.26c0-2.17-.09-3.13-.29-4.29,1.33.09,2.78.23,3.62.46.41.09.55.26.55.49,0,.17-.09.41-.23.67-.2.38-.2,1.1-.2,2.73v4.15Z"/>
      </g>
    </g>
  </g>
</svg>