<?xml version="1.0" encoding="UTF-8"?>
<svg xmlns="http://www.w3.org/2000/svg" viewBox="0 0 73.89 70.53">
  <defs>
    <style>
      .cls-1 {
        fill: #4d4d4d;
      }

      .cls-2 {
        isolation: isolate;
      }

      .cls-3 {
        fill: #fbb03b;
        mix-blend-mode: multiply;
      }
    </style>
  </defs>
  <g class="cls-2">
    <g id="_レイヤー_2" data-name="レイヤー 2">
      <g id="_編集箇所" data-name="編集箇所">
        <g>
          <g>
            <path class="cls-1" d="M33.47,10.55c-.62-.13-1.06-.52-1.32-1.19-.21-.54-.26-1.08-.15-1.64.12-.6.33-1.15.61-1.65.28-.5.62-.94,1.03-1.33.89-.84,1.85-1.15,2.88-.94.36.07.62.27.79.58.17.31.19.61.08.9-.18.46-.4.66-.66.6-.11-.02-.16-.09-.14-.21.01-.06.05-.13.11-.18h-.02c.08-.07.14-.17.16-.3.04-.18,0-.35-.14-.52-.13-.17-.28-.27-.46-.31-.72-.15-1.44.19-2.16,1.01-.62.71-1.03,1.5-1.21,2.38-.09.44-.05.85.11,1.22.17.43.46.68.89.77.72.15,1.45.04,2.2-.34.08-.05.17-.07.27-.05.16.03.23.15.19.34-.03.13-.1.23-.22.31-.77.59-1.72.77-2.85.54Z"/>
            <path class="cls-1" d="M41.88,12.04c-.36-.06-.6-.33-.71-.81-.02-.09-.03-.24-.04-.44,0-.21-.02-.47-.04-.8.02-.42-.05-.61-.22-.56-.35.35-.82.73-1.41,1.11-.75.49-1.28.71-1.59.64-.34-.07-.59-.39-.72-.97-.13-.45-.16-.87-.08-1.24.26-1.26.65-2.33,1.17-3.21.12-.18.26-.25.43-.22.15.03.27.13.37.31s.13.35.1.53c-.02.1-.12.28-.32.55-.44.54-.73,1.19-.88,1.94-.17.82-.1,1.26.22,1.32.15.03.56-.13,1.23-.49,1.19-.66,2.15-1.63,2.88-2.93.12-.18.27-.25.45-.21.29.06.42.21.37.46-.03.16-.09.34-.17.53-.08.19-.19.4-.32.62-.12.23-.21.44-.28.63-.07.19-.13.37-.16.53-.02.12-.04.25-.06.41-.02.16-.03.33-.03.52-.02.51.01.81.09.91.38-.11.69-.19.94-.25.24-.06.54-.15.89-.26.16.03.23.12.21.25-.03.13-.2.29-.52.48-.32.19-.66.35-1.01.48-.35.13-.61.19-.78.17Z"/>
            <path class="cls-1" d="M45.44,14.31c-.41-.08-.57-.37-.46-.86.5-2.43,1.2-4.98,2.11-7.66-.16-.07-.32-.13-.49-.19s-.33-.12-.49-.19c-.45-.16-.65-.34-.61-.53.04-.2.16-.3.37-.31h-.03c-.15-.04-.12-.04.08-.03.2.02.46.04.78.07.32.03.57.07.75.1.22-.55.55-1.19,1.01-1.91.26-.44.48-.82.66-1.15.18-.33.32-.59.43-.79.15-.31.4-.43.74-.36.15.03.19.12.13.26-.23.43-.51.99-.86,1.67-.35.69-.74,1.5-1.17,2.45.15.03.33.07.55.11.22.04.48.11.77.18.29.08.55.14.77.2.22.05.39.09.53.12.15.03.21.1.19.22-.02.1-.1.19-.25.28-.15.09-.29.12-.44.09-.2-.04-.5-.07-.9-.1-.41-.02-.92-.04-1.55-.05-.66,1.96-1.34,4.66-2.05,8.1-.05.25-.24.33-.57.27Z"/>
            <path class="cls-1" d="M52.13,14.68c-.72-.15-1.26-.49-1.62-1.02-.36-.53-.46-1.18-.31-1.93.03-.16.08-.32.14-.48.06-.16.12-.31.19-.47.33-.66.98-1.31,1.96-1.94,1.1-.68,1.98-.95,2.65-.81.56.11.76.48.6,1.09-.18.8-.79,1.49-1.81,2.08-.44.23-.89.44-1.34.62-.46.18-.9.22-1.35.13h-.02c-.17,1.07.27,1.71,1.32,1.93.34.07.75.07,1.21,0,.04,0,.09,0,.15,0,.21.04.3.17.25.38-.03.15-.13.25-.29.3-.52.22-1.1.26-1.72.13ZM52.1,10.93c.53-.01,1.01-.13,1.43-.37.75-.41,1.17-.86,1.28-1.35v-.05c.03-.11.01-.21-.06-.3-.07-.08-.12-.11-.16-.08-.51-.1-1.12.15-1.85.77-.11.1-.23.23-.39.39-.15.16-.32.36-.51.6-.02.03-.04.06-.04.09-.03.15.07.24.3.29Z"/>
            <path class="cls-1" d="M56.93,15.85c-.47-.1-.62-.57-.43-1.41v.02c.08-.32.22-.61.43-.86.21-.25.4-.35.58-.31.47.1.6.55.39,1.36-.25.88-.57,1.29-.97,1.21ZM58.38,11.07c-.33-.07-.45-.31-.37-.71,0-.05.02-.11.04-.17.01-.06.04-.14.07-.21.08-.22.16-.41.25-.58.08-.16.14-.27.17-.33.24-.41.48-.69.72-.83.24-.15.5-.25.75-.31.26-.06.52-.17.77-.34.36-.15.67-.31.96-.49.29-.18.54-.36.76-.53.27-.25.5-.49.68-.71.18-.23.3-.47.36-.73.22-1.06.17-1.94-.15-2.62-.32-.69-.87-1.11-1.66-1.27-.31-.06-.79.21-1.43.83-.05.07-.14.21-.26.41-.13.2-.31.43-.55.7-.12.08-.23.11-.33.09-.16-.03-.28-.15-.33-.36-.06-.21-.05-.4.04-.57.37-.71.76-1.22,1.19-1.54.79-.59,1.43-.83,1.94-.72.18.04.4.1.67.19.26.09.61.33,1.04.72.94.84,1.19,2.32.75,4.44-.19.68-.72,1.38-1.58,2.1-.18.15-.45.32-.8.52-.35.2-.77.42-1.26.66-.13.04-.29.11-.5.2-.21.09-.46.23-.75.41-.1.08-.18.15-.23.22-.05.07-.08.12-.11.17-.03.06-.12.38-.27.96-.12.33-.31.47-.57.42Z"/>
          </g>
          <path class="cls-1" d="M23.84.09c-.99.84-2.01,1.67-2.82,2.65-.72.98-1.02,2.32-1.1,3.53-.03,7.76,8.74,13.65,16.06,12.31.1-.02.19.04.22.14.45,1.65,1.5,3.11,2.83,4.2,1.96,1.5,4.51,2.88,7.01,2.86,1.5-.29,3.43-.92,4.49-2.02.32-.42.88-1.2,1.03-1.69,0-.12.16-.36.3-.39.18-.06.2-.03.25-.04.2.01.47.01.58.22.28.54,1.19.78,1.7,1.03.66.29,1.39.44,2.12.56,2.19.35,4.45.02,6.55-.66,1.16-.44,3.13-.9,4.09-1.65,1.04-.91,2.29-2.07,3.35-3.02.56-.5.89-1.03,1.16-1.73.87-2.06,1.66-4.24,1.65-6.49,0-.7-.34-1.38-.6-2.12-.23-.74-.45-1.44-.94-2.01-.45-.48-1.15-1.1-1.67-1.44,0,0-.07-.03-.07-.03-.01,0-.02-.02-.01-.03.15-.07.26.04.34.08,0,0,.24.16.24.16,0,0,.46.35.46.35,1.01.6,1.71,1.68,2.06,2.76.77,1.35.91,3.06.61,4.59-.08,1.56-.81,3.01-1.28,4.47-.46,1.55-1.86,2.62-2.99,3.68-1.05,1.06-2.4,2.26-3.91,2.66,0,0-2.18.75-2.18.75-2.99.99-6.36,1.16-9.32-.05-.7-.34-1.7-.67-2.08-1.42,0,0,.31.19.31.19l-.16-.02s-.16.01.03-.03c.04,0,.19-.13.19-.18.03-.08.02-.06.03-.08l-.02.09c-.19.6-.84,1.43-1.26,1.96-.64.75-1.62,1.09-2.4,1.37-.82.3-1.68.61-2.61.67-4.1-.3-9.01-3.42-10.25-7.49,0,0,.22.13.22.13-5.2,1.21-11.01-1.01-14.25-5.24-2.48-3.03-3.68-7.9-1.1-11.24.94-.96,1.99-1.73,3.08-2.46.05-.04.1.04.06.08h0Z"/>
          <path class="cls-1" d="M28.79,14.87c-2.56.81-5.84,3.64-2.97,6.07,2.5,1.69,6.06.51,7.34-2.08.08-.34.15-.91.12-1.25-.07-.94-.72-1.7-1.45-2.2-.39-.3-1-.42-1.4-.67,1.03-.16,2.28.4,2.97,1.17.93.85.98,2.15.72,3.35-.32.66-.64.93-.97,1.38-2.19,2.57-6.72,2-8.68-.54-1.13-1.49-.23-3.57,1.28-4.4.92-.58,1.98-.89,3.03-.91.05,0,.07.08.02.1h0Z"/>
          <path class="cls-1" d="M25.68,26.55c-.72.62-1.66,1.01-1.65,2.04-.01.36.07,1.06.39,1.27.42.14,1.06-.04,1.51-.13.85-.25,1.74-.53,1.59-1.52-.05-.37-.16-.81-.5-1.05-.41-.4-1.02-.41-1.4-.66.69-.33,1.59-.22,2.21.24,1.65,1.65.37,3.84-1.86,3.52-.61-.08-1.06,0-1.68-.11-.34-.14-.5-.42-.68-.64-.65-.75-.52-2.09.39-2.59.53-.31,1.07-.45,1.64-.47.05,0,.07.06.03.09h0Z"/>
          <g>
            <g>
              <path class="cls-3" d="M0,42.29s6.53-1.07,9.94-.38c3.41.69,6.08,1.73,7.56,1.71,1.48-.02,4.44.75,4.44,1.43s.31,1.88.31,1.88c0,0,4.47,5.75,6.12,6.84s4.77,4.1,6.41,3.72,3.01-1.06,3.01-1.06c0,0,3.28.6,4.61,1.06s2.49,1.3,2.5,2.09l.02.79-3.74.05-.07-1.81s-1.53-.32-3.29,1.45c-1.76,1.77-2.57,1.67-2.59,3.61-.02,1.94.91,4.17.91,4.17l-4.43.05s-.39-5.16.92-6.86,1.3-2.49,1.3-2.49c0,0-7.67-3.06-13.24-10.67l-7.23.28-.1,4.91-2.05-.69.41-4.39-3.36-.36s-1.25,5.53-1.05,7.44c.2,1.91.7,2.85.7,2.85l-2.52-.78s.38-8.08.88-9.86c0,0-2.49-1.3-3.83-1.87-1.35-.57-2.23-1.11-2.23-1.11l-.33-1.99Z"/>
              <path class="cls-3" d="M.93,56.09s8.62,2.67,10.37,3.37c1.75.69,5.21,1.84,5.21,1.84l2.03.89-2.98,4.25-14.09-1.12-.54-9.24Z"/>
              <path class="cls-3" d="M10.37,35.42c.53-.25,4.49-1.07,8.62-.27,4.14.79,7.25,1.67,8.18,1.68s3.41.17,3.6,1.29-.06,1.65-.06,1.65c0,0,5.35,6.15,7.87,7.54,2.52,1.39,5,2.53,5.46,2.37s2.82-1.12,2.82-1.12c0,0,3.68,1.36,4.19,1.44s2.23,1.11,1.98,3.11l-2.81-.68-.64-1.61s-4.03,1.56-4.86,2.52c-.82.95-1.48,1.96-1.35,2.76s.09,1.88.09,1.88l-2.97-1.49s-.16-1.45.14-2.64c.29-1.19,1.59-2.74,1.59-2.74,0,0-2.43-.88-4.38-2.28s-7.07-6.69-8.24-8.3l-6.62.52-.22,4.62-.83-.6-.72-4.38-3.16-.3-.56,3.25-2.07-.34.63-3.63s-2.76-.87-3.37-1.09-2.81-1.66-2.81-1.66l.49-1.47Z"/>
              <path class="cls-3" d="M15.88,47.89l-.1,1.95-2.19-.61-.08,3.65s9.07,3.94,10.23,4.81,1.53.65,1.53.65l1.78-3.07-2.01-2.88-3.53-.95-4.2-1.19.06-2.6-1.5.25Z"/>
              <path class="cls-3" d="M11.62,49.15c.02-.2-1.16-.23-1.16-.23l.12,3.72.73-.28.3-3.21Z"/>
            </g>
            <g>
              <path d="M25.56,53.09c-1.44-.64-2.93-1.2-4.43-1.68s-3.02-.91-4.55-1.3c-.9-.23-1.79-.45-2.69-.66-.04,0-.07.06-.08.08-.02.05-.04.13-.03.19,0,.09.01.24.12.26,1.56.37,3.12.76,4.67,1.19s3.01.89,4.48,1.43c.83.31,1.66.64,2.47,1,.1.04.14-.12.14-.18s0-.14-.01-.2c-.01-.04-.03-.1-.07-.12h0Z"/>
              <path d="M41.59,60.42c-.44-.05-.87-.1-1.31-.16s-.87-.11-1.31-.17c-.25-.03-.49-.06-.74-.1-.04,0-.07.05-.08.08-.02.05-.04.13-.03.19s0,.13.03.19c.02.04.04.07.08.08.44.06.87.12,1.31.17s.87.11,1.31.16c.25.03.49.06.74.09.04,0,.07-.05.08-.08.02-.05.04-.13.03-.19s0-.13-.03-.19c-.02-.04-.04-.07-.08-.08h0Z"/>
              <path d="M46.34,53.27c1.82.26,3.65.32,5.47.54.91.11,1.82.27,2.71.5.46.12.91.27,1.35.44.2.08.39.17.58.25s.36.17.53.27c.32.2.61.48.79.82.04.08.08.16.11.24s.06.17.08.27c0,.02,0,.03,0,.05,0-.05,0,.03,0,.03,0,.05.01.1.02.14,0,.08,0-.05,0,.03,0,.02,0,.05,0,.07s0,.05,0,.07c0,.02,0,.03,0,.05,0-.03,0-.03,0,0,0,.04,0,.09-.01.13,0,.02,0,.05-.01.07-.01.08.01-.04,0,.03-.02.1-.05.19-.08.29-.04.15-.13.32-.24.47-.25.34-.59.59-.93.83-.68.47-1.44.83-2.23,1.08-.39.13-.79.23-1.19.32s-.81.14-1.21.22c-.49.09-.98.16-1.48.21s-.98.06-1.47.09c-1,.05-1.99.01-2.99-.01-.24,0-.48-.01-.72-.02-.1,0-.12.2-.12.26s.01.26.12.26c1.02.02,2.03.07,3.05.05s2.02-.07,3.02-.22c.46-.07.91-.14,1.37-.23.42-.08.83-.17,1.24-.28.82-.23,1.61-.55,2.33-.99.37-.23.75-.48,1.06-.79.15-.15.29-.31.4-.49s.18-.38.24-.59c.25-.81.1-1.8-.48-2.44-.14-.16-.29-.31-.47-.44-.16-.11-.34-.21-.52-.29-.41-.19-.82-.37-1.24-.51-.9-.31-1.84-.51-2.78-.66-1.86-.29-3.74-.34-5.6-.56-.23-.03-.45-.06-.68-.09-.04,0-.07.05-.08.08-.02.05-.04.13-.03.19,0,.08.01.25.12.26h0Z"/>
              <path d="M22.26,46.14c1.36.36,2.71.72,4.04,1.18s2.51,1.03,3.7,1.66,2.34,1.35,3.56,1.93,2.48.99,3.77,1.3c1.52.36,3.07.58,4.62.72.15.01.17-.51,0-.53-2.73-.25-5.48-.72-8-1.85-1.23-.55-2.39-1.26-3.57-1.91s-2.4-1.24-3.66-1.71c-1.46-.54-2.97-.93-4.47-1.33-.13-.03-.18.48,0,.53h0Z"/>
              <path d="M13.73,45.82c.12-.04.24-.07.36-.11h-.03c.23-.06.46-.13.69-.19s.46-.12.69-.17c.13-.03.26-.05.4-.08.02,0,.03,0,.04-.02.02-.01.03-.03.04-.05.01-.03.02-.06.02-.08,0-.03.01-.07,0-.1,0-.06,0-.13-.03-.19l-.02-.04s-.03-.03-.06-.04c-.28.05-.57.11-.84.18s-.55.15-.83.23c-.16.05-.33.1-.49.15-.02.01-.03.03-.04.05-.01.02-.02.05-.03.07,0,.03-.01.06-.01.1,0,.03,0,.07,0,.1v.06s.03.07.05.09l.03.03s.04.01.06,0h0Z"/>
              <path d="M12.09,48.91c-.12-.05-.23-.1-.34-.16s-.21-.13-.31-.2c-.05-.04-.11-.09-.16-.14l.03.03c-.09-.09-.18-.19-.25-.29-.02-.03-.04-.06-.06-.09l.02.04c-.05-.09-.09-.18-.12-.28l.02.05c-.03-.07-.05-.15-.06-.23,0-.03-.02-.05-.03-.07,0-.02-.02-.04-.04-.05-.02-.01-.03-.01-.05,0-.02,0-.03.01-.04.03l-.02.04s-.03.08-.03.12v.07s0,.09.01.13c.01.07.03.14.05.21.03.08.05.16.09.24.06.13.14.26.23.37s.19.21.29.3c.1.08.2.15.31.22s.23.12.35.17c.01,0,.03.01.04.02.02.01.03.01.05,0,.02,0,.03-.01.04-.03.02-.02.03-.04.03-.07.01-.03.02-.06.02-.09,0-.07,0-.14-.01-.2l-.02-.05s-.03-.05-.05-.07h0Z"/>
              <path d="M25.26,58.73c.23-.18.37-.44.44-.72.08-.3.1-.61.11-.92,0-.27,0-.53,0-.8.01-.4.02-.8.02-1.2s-.03-.83-.07-1.25c0-.05,0-.1-.02-.15s-.02-.12-.05-.16c-.02-.03-.06-.05-.09-.03-.04.03-.06.08-.07.12-.02.07-.02.13-.01.2.02.18.03.36.05.53,0,.02,0,.04,0,.06h0s0,.03,0-.02c0,0,0,.02,0,.03,0,.04,0,.09,0,.13,0,.09,0,.18.01.27.01.35.01.7,0,1.05,0,.28-.02.56-.02.84,0,.12,0,.23,0,.35,0,.06,0,.12,0,.18,0,.01,0,.03,0,.04,0,0,0,.02,0,.02,0-.09,0-.07,0-.05,0,.03,0,.06,0,.1,0,.07-.01.13-.02.2,0,.02,0,.03,0,.05h0s0,.02,0-.03c0,0,0,.02,0,.02,0,.03-.01.06-.02.1,0,.03-.02.06-.03.09,0,0,0,.01,0,.02-.01.04.02-.05,0-.02,0,.01,0,.03-.02.04-.02.06-.05.12-.08.17l.02-.04c-.05.08-.1.15-.17.22l.03-.03s-.05.05-.08.07c-.04.03-.06.08-.07.12-.02.06-.02.14-.01.2,0,.05.02.12.05.16.02.02.06.05.09.03h0Z"/>
              <path d="M10.78,48.25c.03.62.07,1.24.12,1.85s.11,1.19.19,1.79c.04.33.08.66.13,1,0,.05.02.12.05.16.02.03.06.05.09.03.04-.03.06-.08.07-.12.02-.07.02-.14.01-.2-.08-.59-.16-1.18-.22-1.77s-.12-1.18-.16-1.78c0-.08-.01-.17-.02-.25,0-.04,0-.08,0-.12,0-.02,0-.05,0-.07h0s0-.01,0,.04c0-.01,0-.02,0-.03,0-.17-.02-.34-.03-.51,0-.06,0-.13-.03-.19-.01-.03-.04-.08-.08-.08-.04,0-.07.04-.08.08-.02.06-.04.12-.03.19h0Z"/>
              <path d="M25.54,58.32s0-.05,0-.08v.07s0-.06,0-.09v.06s0-.07.02-.1l-.02.05c.02-.06.05-.12.08-.17l-.02.04c.09-.17.22-.31.34-.46.14-.18.29-.35.44-.52.29-.33.57-.66.86-1,.16-.19.32-.38.47-.58.03-.04.05-.11.05-.16,0-.06,0-.14-.01-.2l-.02-.05s-.03-.05-.05-.07h-.03s-.04,0-.06.03c-.16.2-.32.41-.49.6s-.33.39-.5.58-.35.4-.52.6c-.09.1-.17.2-.25.3-.07.09-.14.17-.21.26-.07.1-.14.2-.2.31-.03.06-.05.13-.07.19-.03.09-.04.19-.04.28,0,.03,0,.05,0,.08,0,.06,0,.13.03.19.01.03.04.08.08.08.04,0,.07-.04.08-.08.02-.06.04-.12.03-.19h0Z"/>
              <path d="M40.76,56.93c.02-.55.09-1.2.22-1.76s.33-1.14.63-1.66c.6-1.05,1.57-1.8,2.55-2.47s2.1-1.33,3.35-1.3c1.32.04,2.55.6,3.72,1.16.52.25,1.07.49,1.51.88.2.18.37.4.49.64.06.13.09.22.12.35,0,0,.01.07,0,.04,0-.03,0,.02,0,.03,0,.03,0,.07.01.1,0,.04,0-.04,0,0,0,.02,0,.03,0,.05s0,.03,0,.05c0,.02,0,.05,0,.02-.01.13-.03.2-.09.34-.05.11-.05.26,0,.37.04.09.12.1.16,0,.28-.62.16-1.35-.17-1.92-.31-.53-.83-.88-1.37-1.15-.58-.3-1.18-.58-1.79-.83s-1.29-.48-1.97-.59c-.33-.05-.66-.08-.99-.05s-.63.09-.93.18c-.61.19-1.17.5-1.71.84-1.05.67-2.1,1.43-2.82,2.46s-1.05,2.41-1.15,3.7c-.01.17-.02.34-.03.52,0,.07.02.26.12.26s.11-.2.12-.26h0Z"/>
              <path d="M41.07,60.43s0,0,0-.01l.02.05c-.02-.05-.04-.11-.05-.16-.03-.1-.06-.21-.08-.31-.02-.08-.03-.15-.05-.23v.06c-.02-.15-.04-.3-.05-.45,0-.05,0-.09-.01-.14v.07c0-.14,0-.27,0-.41,0-.03,0-.07,0-.1,0-.03-.01-.06-.02-.08,0-.02-.02-.04-.04-.05-.01-.01-.03-.02-.04-.02h-.03s-.04.05-.05.08l-.02.05s-.02.09-.02.13c-.01.19,0,.37.01.56.01.15.03.31.06.46s.06.3.09.44c.02.09.05.18.07.27.02.06.03.11.05.17,0,0,0,0,0,0,0,.02.02.04.04.05.01.01.03.02.04.02.02,0,.03,0,.04-.02.02-.01.03-.03.04-.05.02-.06.04-.12.03-.19v-.07s-.02-.08-.03-.12h0Z"/>
              <path d="M52.32,50.93c-.59-.54-1.44-.46-2.15-.29-.44.1-.85.3-1.25.5-.44.21-.88.44-1.29.71-.81.53-1.63,1.05-2.42,1.61-.1.07-.19.14-.28.22-.08.07-.16.15-.23.23-.13.15-.25.32-.36.5-.22.37-.37.78-.46,1.2-.11.5-.14,1.01-.09,1.53s.16,1,.29,1.48c.03.11.06.23.1.34.01.04.03.1.07.12.03.02.07,0,.09-.03.07-.09.07-.25.04-.36-.07-.23-.13-.45-.19-.68-.03-.12-.06-.23-.08-.35,0-.03-.01-.06-.02-.09,0-.02,0-.03,0-.05,0,0,0,.05,0,0-.01-.06-.02-.12-.03-.18-.02-.12-.03-.24-.04-.36,0-.03,0-.07,0-.1,0,0,0-.04,0-.04,0,0,0,.06,0,.01,0-.06,0-.13,0-.19,0-.06,0-.11,0-.17,0-.03,0-.05,0-.08,0-.07,0,.04,0,0,0-.02,0-.04,0-.06,0-.11.02-.22.04-.33,0-.02,0-.1,0-.03,0-.02,0-.04.01-.06.01-.05.02-.1.03-.15.02-.1.05-.19.08-.29,0-.02.02-.05.02-.07,0-.01,0-.03,0,0,0,0,0-.02.01-.03.02-.05.04-.1.06-.15.04-.09.08-.18.12-.27.02-.04.04-.08.06-.12,0,0,.01-.02.02-.03-.02.03,0,0,0,0,.01-.02.03-.05.04-.07.05-.08.11-.17.17-.24.12-.16.25-.31.4-.43.09-.07.19-.14.29-.2s.2-.14.3-.21c.19-.13.39-.26.58-.39.4-.26.8-.52,1.19-.78.21-.13.41-.27.63-.39s.42-.23.63-.34c.41-.21.82-.4,1.25-.56.16-.06.34-.09.51-.12.18-.03.36-.06.55-.07.36-.02.72.04,1.03.22.08.05.16.11.23.17.03.03.07,0,.09-.03.03-.04.05-.11.05-.16.01-.11,0-.24-.08-.32h0Z"/>
              <path d="M49.71,51.56s.05.07.08.11c.03.04.06.08.09.11l-.02-.02c.12.11.23.22.34.34.1.1.2.2.28.31.05.06.09.12.12.19l-.02-.03c.04.07.08.15.11.23v-.04c0,.07.03.14.04.21v-.05s0,.1.02.15v-.05c0,.08.01.16.02.24v-.05s0,.07,0,.11c0,.04,0,.09.02.13l.02.03s.02.02.03.02c0,0,.01,0,.02,0,.01,0,.02,0,.03-.02.02-.03.03-.07.04-.11,0-.1.01-.2,0-.31,0-.06,0-.11-.01-.17,0-.04-.01-.07-.02-.1,0-.02,0-.04-.01-.05-.02-.08-.04-.16-.07-.24-.03-.07-.06-.14-.1-.2-.06-.11-.14-.21-.23-.31-.05-.06-.11-.11-.16-.16-.05-.05-.11-.09-.16-.14-.06-.05-.12-.09-.18-.14-.02-.01-.03-.02-.05-.04,0,0-.01-.01-.02-.02s-.02-.01-.03-.02c-.03-.02-.07-.04-.1-.06-.02,0-.03-.02-.05-.02-.03-.01-.05.03-.05.06,0,.04,0,.09.02.12h0Z"/>
              <path d="M18.32,40.25c.68.2,1.36.37,2.06.46s1.43.14,2.14.15,1.44,0,2.15.02c.36,0,.72.02,1.07.04.31.02.61.06.92.07,1.05.04,2.09-.18,3.13-.25.52-.04,1.01-.23,1.45-.51.1-.06.21-.12.29-.2.1-.09.09-.23.08-.35-.01-.36-.04-.72-.1-1.07-.03-.2-.08-.4-.16-.58-.06-.15-.16-.25-.28-.35-.29-.23-.65-.37-1-.48-.52-.17-1.05-.28-1.58-.38-.68-.13-1.37-.22-2.06-.29s-1.4-.12-2.09-.23-1.36-.31-2.02-.55-1.28-.49-1.94-.69c-2.59-.8-5.35-.99-8.02-.55-.17.03-.33.06-.5.09s-.32.09-.48.15c-.1.04-.1.43.03.42.21-.02.41-.04.61-.08s.41-.07.62-.1c.41-.06.83-.11,1.24-.14.82-.06,1.65-.07,2.47-.02,1.66.11,3.3.45,4.86,1.02.79.29,1.57.62,2.39.82s1.68.28,2.53.35,1.68.18,2.52.34c.6.12,1.21.24,1.78.48.2.08.39.18.56.31.07.05.13.1.17.16.03.04.07.15.08.2.06.22.09.41.12.66.01.11.02.22.03.33,0,.02,0,.05,0,.07,0,.02,0-.04,0,0,0,.04,0,.07,0,.11,0,.03,0,.06,0,.09l.08-.25c-.44.37-1.03.65-1.6.71-.77.08-1.54.19-2.31.26-.36.03-.73.06-1.1.03-.52-.04-1.03-.07-1.55-.07-1.04-.01-2.09.03-3.13,0-.59-.02-1.18-.06-1.77-.16s-1.14-.24-1.7-.4c-.08-.02-.11.31,0,.34h0Z"/>
              <path d="M11.4,34.82c-.13.02-.26.05-.37.12-.08.05-.15.13-.19.22-.08.2-.06.42-.05.63,0,0,0,0,0,.01,0,.02,0,.01,0,0,0,0,0,.02,0,.03,0,.03,0,.05,0,.08,0,.02,0,.05,0,.07,0,0,0,0,0,.01,0,.03,0-.05,0,0,0,.03,0,.05,0,.08,0,.14,0,.29,0,.43.01.24.05.49.16.71.1.2.25.37.43.52.26.21.6.3.91.41.72.26,1.44.51,2.16.76.36.13.72.25,1.08.38.18.07.36.13.54.2.16.06.32.11.46.19.06.03.13.06.19.09s.09-.07.09-.12c0-.04,0-.09,0-.13,0-.02-.02-.07-.04-.08-.13-.05-.25-.12-.38-.17-.18-.06-.35-.12-.53-.18-.35-.12-.7-.24-1.06-.37-.7-.25-1.4-.49-2.1-.74-.18-.06-.35-.12-.53-.18-.15-.05-.31-.1-.45-.17s-.27-.14-.38-.24c-.07-.06-.14-.14-.2-.22-.03-.04-.06-.08-.08-.12,0,0-.01-.02,0,0,0,0,0,0,0-.01,0,0-.01-.02-.02-.03-.01-.02-.02-.04-.03-.07s-.02-.05-.03-.07c0,0,0-.03,0,0,0,0,0,0,0-.02,0-.01,0-.03-.01-.04,0-.02-.01-.05-.02-.07,0-.01,0-.03,0-.04,0,0,0-.02,0-.02,0,.02,0,.02,0,0h0c0-.07-.02-.12-.02-.18,0-.02,0-.03,0-.05,0,0,0-.02,0,0,0,0,0-.01,0-.02,0-.03,0-.07,0-.1,0-.14,0-.28.01-.42,0-.1,0-.2-.01-.3,0,0,0-.02,0-.03,0-.04,0,.03,0,0,0-.02,0-.05,0-.07,0-.02,0-.04,0-.06,0,0,0,0,0-.01,0-.02,0,.01,0,.02,0-.01,0-.03,0-.04,0,0,0-.02,0-.03,0-.03,0,.03,0,0,0,0,0-.02,0-.02,0,0,0-.01,0-.02,0-.02,0,.01,0,0,0-.02.02-.04.02-.06,0,0,0-.01,0,0,0,0,0,0,0-.01,0-.01.01-.02.02-.03.03-.04.05-.06.09-.09.04-.03.09-.06.14-.09.06-.03.13-.05.2-.07.04-.01.05-.07.05-.11,0-.02,0-.11-.05-.11h0Z"/>
              <path d="M11.01,35.36c.32.51.84.79,1.4.97.63.2,1.28.28,1.92.44,1.48.36,2.92.84,4.38,1.29,1.34.41,2.68.79,4.06,1.06,1.26.24,2.53.42,3.82.4.69-.01,1.39-.08,2.07-.24.33-.08.66-.18.98-.31s.65-.27.91-.52c.07-.07.11-.45-.05-.4-.29.09-.54.24-.82.36s-.55.21-.84.28c-.59.16-1.21.24-1.82.27-1.26.07-2.52-.08-3.75-.29-1.35-.23-2.68-.53-3.99-.91-1.42-.41-2.83-.88-4.26-1.23-.76-.19-1.53-.32-2.29-.47-.63-.12-1.27-.34-1.64-.89-.03-.04-.06.01-.06.04-.01.05,0,.11.02.15h0Z"/>
              <path d="M13.27,36.44c1.94-.03,3.89.15,5.81.42,2.03.28,4.05.67,6.06,1.11,1.03.23,2.06.48,3.09.74.08.02.1-.28,0-.3-1.89-.49-3.8-.92-5.72-1.28s-4.04-.69-6.08-.83c-1.05-.07-2.1-.1-3.15-.04-.06,0-.06.19,0,.19h0Z"/>
              <path d="M21.14,37.09s0,.03.01.04c0,0,0,.01,0,.02,0-.03,0-.02,0-.01,0,0,0,0,0,0,0,0,0,0,0,.01,0,0,0,.02,0,.03,0,.03.02.06.03.09.01.03.02.06.03.09v-.02c.01.06.03.12.05.19.02.07.05.14.07.22.05.17.1.34.14.51.02.1.05.2.07.31v-.03s0,.08.02.12c0,.02,0,.06.03.08.01.01.03.02.04.01.02-.01.03-.04.03-.06,0-.03.01-.07,0-.1-.04-.23-.09-.46-.15-.69-.05-.19-.11-.38-.18-.57-.01-.04-.03-.08-.04-.12,0-.02-.01-.03-.02-.05,0-.02-.02-.04-.03-.06v.02s0-.04-.02-.05-.02-.04-.03-.05h0s-.01-.01-.02-.03c0,0-.01-.03-.03-.02-.01,0-.02,0-.02.02,0,.01-.01.03-.01.04,0,.02,0,.04,0,.06h0Z"/>
              <path d="M22.85,37.45c.03.15.06.3.09.45.02.09.04.19.06.28.02.07.03.15.05.22.02.09.04.17.06.26.03.14.06.28.09.42,0,.02,0,.05.01.07,0,.02.01.04.03.05.01,0,.03,0,.04-.01.03-.04.03-.11.02-.15-.03-.15-.06-.3-.09-.45-.02-.09-.04-.18-.06-.28-.02-.07-.03-.14-.05-.21-.02-.09-.04-.17-.06-.26-.03-.14-.06-.28-.09-.41,0-.02,0-.04-.01-.07,0-.01-.01-.04-.02-.04-.01,0-.02,0-.03,0-.03.04-.02.09-.01.13h0Z"/>
              <path d="M21.74,40.62c-.02.55-.04,1.11-.05,1.66s-.02,1.1-.03,1.65c0,.31-.02.62-.03.93,0,.06,0,.13.03.19.01.03.04.08.08.08.04,0,.07-.04.08-.08.02-.06.03-.12.03-.19.02-.55.04-1.11.04-1.66s.02-1.1.03-1.65c0-.31.02-.62.03-.93,0-.06,0-.13-.03-.19-.01-.03-.04-.08-.08-.08-.04,0-.07.04-.08.08-.02.06-.03.12-.03.19h0Z"/>
              <path d="M23.37,40.71c-.02.23-.04.46-.05.69-.03.41-.05.81-.08,1.22-.03.46-.05.92-.07,1.38-.02.41-.04.83-.05,1.24,0,.26-.02.53.01.79,0,.01,0,.03,0,.04,0,.03.02.12.07.09.04-.02.05-.12.04-.16,0-.03,0-.07-.01-.1,0-.01,0-.04,0,.01,0,0,0,0,0-.01,0-.01,0-.03,0-.04,0-.03,0-.06,0-.08,0-.14,0-.28,0-.42,0-.4.02-.79.04-1.19.02-.46.04-.92.07-1.38.01-.22.02-.44.04-.65,0-.05,0-.11,0-.16,0-.03,0,.02,0,0,0-.01,0-.03,0-.04,0-.03,0-.05,0-.08,0-.09.01-.19.02-.28.02-.25.03-.51.05-.76,0-.02,0-.03,0-.05,0-.04,0-.11-.03-.13s-.06.05-.06.07h0Z"/>
              <path d="M31.49,39.89c.36.4.74.78,1.1,1.18.38.42.76.84,1.14,1.26.79.89,1.57,1.78,2.38,2.66s1.63,1.73,2.51,2.52c.83.74,1.7,1.44,2.67,2,.45.26.92.49,1.4.69.23.09.47.18.71.25s.48.14.73.17c.12.01.24.02.36.03.09,0,.09-.26,0-.28-.25-.06-.49-.13-.74-.19s-.47-.13-.7-.21c-.49-.17-.96-.39-1.41-.64-.96-.54-1.84-1.2-2.68-1.92-.89-.77-1.72-1.6-2.53-2.45s-1.59-1.74-2.38-2.62c-.73-.82-1.47-1.63-2.26-2.4-.09-.09-.18-.17-.27-.25-.03-.03-.06.05-.06.07,0,.04,0,.11.02.14h0Z"/>
              <path d="M29.87,40.59c.22.24.43.49.65.74.2.23.4.47.6.7.37.45.71.91,1.06,1.37.69.91,1.39,1.81,2.21,2.61.44.43.92.82,1.4,1.2s.92.75,1.39,1.13c.93.74,1.88,1.48,2.88,2.11.86.54,1.8,1.02,2.81,1.2.11.02.22.04.33.05.14.02.16-.47,0-.49-.99-.13-1.9-.58-2.76-1.07-1.02-.57-1.96-1.27-2.88-1.99-.47-.37-.94-.74-1.4-1.11s-.95-.74-1.4-1.15c-.85-.76-1.57-1.65-2.27-2.54s-1.42-1.84-2.25-2.65c-.11-.1-.22-.2-.34-.3-.04-.04-.06.14-.03.17h0Z"/>
              <path d="M46.12,62.19c1,.07,2,.19,3,.26.95.07,1.9.1,2.85.01.8-.08,1.6-.24,2.34-.55s1.45-.78,2-1.39c.58-.65,1-1.41,1.46-2.14.06-.09.11-.18.17-.27.07-.1.07-.25.04-.36-.02-.06-.09-.2-.16-.09-.47.71-.87,1.48-1.41,2.15s-1.16,1.14-1.9,1.48-1.5.52-2.28.61c-.92.11-1.85.1-2.77.04-.99-.06-1.98-.18-2.97-.26-.12,0-.25-.02-.37-.03-.1,0-.12.2-.12.26,0,.07.01.26.12.26h0Z"/>
              <path d="M44.79,51.88s-.03-.03-.04-.04c.01.01,0,0,0,0,0,0,0,0-.01-.01,0,0-.02-.02-.02-.02-.03-.03-.05-.06-.07-.09-.01-.02-.02-.03-.03-.05,0,0,0,0,0,0,.01.02,0,0,0,0,0,0-.01-.02-.02-.03,0-.02-.02-.04-.02-.05,0,0,0,0,0-.01,0-.02,0,.03,0,0,0,0,0-.02,0-.03s0-.02,0-.03c0-.01,0-.05,0,0,0-.02,0-.05,0-.07,0,0,0,0,0-.01,0-.02,0,.04,0,.02,0-.01,0-.02,0-.03s0-.02,0-.03c0,0,0-.01,0-.02,0-.02,0,.04,0,0,0-.02,0-.05,0-.07,0-.01,0-.03,0-.04,0,.05,0,0,0-.02s0-.02,0-.03c0-.01.02-.05,0,0,0-.02.02-.04.03-.06,0-.01.01-.02.02-.04,0,0,0-.01,0-.02,0-.02-.01.02,0,0,.01-.02.03-.04.04-.06.03-.04.07-.08.11-.12l-.02.02c.13-.12.29-.21.46-.26h-.02c.14-.04.29-.06.43-.07s.3-.01.44,0c.08.01.17.03.25.05h-.02c.19.05.36.16.51.28s.28.26.43.38c.04.04.08.07.13.1.04.03.08.06.12.1l-.02-.02s.05.05.07.08l-.02-.03s.02.04.02.04c0,0-.01-.04,0-.01,0,0,0,.01,0,.02,0-.03,0-.04,0-.02h0s0-.03,0-.01c0,0,0,.01,0,.02,0,.03,0-.05,0-.02,0,0,0,.01,0,.02,0,.03,0-.04,0-.02,0,0-.01.04-.01.04,0,0,.01-.04,0-.01,0,0,0,.01,0,.02,0,.01-.01.03-.02.04l.02-.03s-.06.09-.1.12l.02-.02s-.1.09-.16.12c-.06.04-.12.08-.18.12-.12.08-.24.15-.36.21-.07.03-.14.06-.22.09h.02c-.09.02-.18.04-.28.04-.05,0-.1,0-.14,0-.05,0-.11-.02-.16-.04h.02c-.11-.03-.21-.07-.32-.1-.1-.03-.19-.06-.29-.1-.06-.02-.12-.05-.19-.07h.02c-.07-.01-.15-.04-.22-.07-.02,0-.03-.02-.05-.02-.02,0-.04,0-.07,0-.02,0-.03,0-.05,0-.02,0-.04,0-.06,0h.02,0s-.03,0-.04,0c-.01.02-.02.04-.02.06,0,.04,0,.1.03.13h0s-.01-.01-.02-.02c.01.03.03.05.05.08.01.02.03.04.05.06.02.02.04.05.06.07.02.01.04.02.06.03.04.02.07.04.11.06.05.02.09.05.14.06h-.02c.18.05.37.09.55.15h-.02c.13.03.27.07.41.08.12.01.24,0,.36-.04.25-.07.47-.2.68-.34.11-.07.21-.14.31-.23.11-.1.17-.24.18-.39,0-.1,0-.21-.04-.31-.03-.07-.07-.12-.13-.17-.04-.04-.09-.07-.13-.1-.05-.04-.09-.07-.14-.11-.18-.15-.34-.32-.54-.46-.1-.07-.2-.12-.32-.16-.12-.04-.25-.07-.39-.08s-.26,0-.39,0-.25.03-.37.06-.25.08-.35.15c-.1.06-.18.14-.25.24-.16.21-.23.48-.21.74,0,.12.03.24.08.35.04.09.1.16.17.23.03.03.06.05.1.08.01,0,.03,0,.04-.01.01-.02.02-.04.02-.06,0-.04,0-.1-.03-.13Z"/>
              <path d="M17.5,39.34s-.09-.04-.14-.06h.02s-.07-.02-.09-.04h.01s-.02-.01-.03-.02v.02s0-.04-.01-.06v.03s-.01-.07-.02-.11v.04s-.01-.1-.02-.14v.04c0-.05,0-.11-.01-.16v.04s0-.1,0-.14v.04s0-.09.01-.14v.04s.01-.09.03-.13v.03c0-.05.03-.1.05-.15l-.02.03c.03-.06.08-.12.13-.16l-.02.02c.08-.08.18-.13.28-.16h-.02c.11-.03.22-.03.33-.02.03,0,.06.01.09.02h-.02c.11.03.21.09.3.17l-.02-.02c.06.06.12.13.16.21l-.02-.03c.03.06.06.12.08.18v-.03s.02.09.03.14v-.04s0,.08,0,.13v-.05s0,.07,0,.11v-.05s0,.06,0,.1v-.04s0,.06-.02.09v-.03s-.01.06-.03.09l.02-.03s-.05.07-.08.1l.02-.02c-.05.05-.11.08-.18.1h.02c-.09.02-.18.03-.27.02s-.18-.02-.27-.03c-.05,0-.1-.02-.15-.03h.02s-.04,0-.06-.02c-.02,0-.04,0-.06-.02h.02s-.04,0-.06-.02c0,0-.02-.01-.03-.02s-.02-.01-.03-.02h.01s-.02-.01-.03-.03-.03-.02-.04-.01c-.02.01-.03.04-.03.06,0,.03-.01.07,0,.1,0,.03.01.05.03.08h0s0-.01-.01-.02c0,.02.02.03.02.04,0,0,0,.02.02.02v-.02s.05.09.09.12c.01.01.03.02.04.04s.03.02.05.03c.07.03.15.05.23.06.15.02.3.04.45.02.08-.01.15-.04.22-.08.08-.05.14-.13.18-.21.02-.05.04-.1.05-.15s.02-.11.03-.16c0-.11,0-.22-.01-.33-.02-.1-.04-.2-.08-.3-.03-.08-.08-.16-.13-.23s-.11-.13-.17-.18c-.06-.05-.12-.09-.19-.12-.14-.06-.3-.08-.46-.04-.08.02-.16.05-.23.09s-.13.1-.19.16-.1.14-.13.21c-.04.09-.06.19-.08.28-.02.09-.02.18-.02.27,0,.1.01.2.03.3,0,.05.02.1.04.14v-.03c.01.07.03.14.08.2.02.03.05.05.08.06s.06.01.09.02.06,0,.09.01h-.01s.02,0,.02,0c.04.02.06-.05.06-.08,0-.03,0-.06,0-.09,0-.02-.01-.04-.03-.05h0Z"/>
              <path d="M15.66,47.78c0,.32.01.64.02.95.01.34.03.67.06,1.01.01.18.03.36.04.54,0,.03,0,.06.02.09,0,.02.02.05.03.07.02.03.06.05.09.03l.03-.03s.03-.06.04-.09c.02-.07.02-.13.01-.2-.02-.23-.04-.46-.06-.69,0-.07,0-.13-.01-.2v.07c-.02-.4-.03-.8-.04-1.2,0-.11,0-.23,0-.34,0-.06,0-.13-.03-.19,0-.02-.02-.04-.04-.05-.01-.01-.03-.02-.04-.02-.04,0-.07.04-.08.08-.02.06-.03.12-.03.19h0Z"/>
              <path d="M15.72,45.12c0,.2-.02.4-.02.61,0,.06,0,.11,0,.17,0,.03,0,.07,0,.1,0,.03.01.06.02.08,0,.02.02.04.04.05.01.01.03.02.04.02h.03s.04-.05.05-.08c.02-.06.03-.12.03-.19,0-.2.01-.4.02-.61,0-.06,0-.11,0-.17,0-.03,0-.07,0-.1,0-.03-.01-.06-.02-.08,0-.02-.02-.04-.04-.05-.01-.01-.03-.02-.04-.02h-.03s-.04.05-.05.08l-.02.05s-.02.09-.02.13h0Z"/>
              <path d="M17.16,38.18c-.3.58-.48,1.21-.6,1.84-.02.1-.04.19-.06.29,0,.04-.01.07-.02.11,0,.02,0,.05-.01.07,0,0,0,.02,0,.02,0,.02,0,.02,0-.03,0,0,0,.02,0,.02-.03.17-.07.33-.11.49-.09.35-.18.69-.24,1.05-.07.39-.12.79-.17,1.18,0,.06,0,.14.01.2,0,.03.03.1.07.12.1.05.13-.12.14-.18.05-.35.09-.7.15-1.04,0-.04.01-.08.02-.12,0-.04-.01.05,0,.02,0,0,0-.02,0-.03,0-.02,0-.05.01-.07.02-.08.04-.17.06-.25.04-.16.08-.33.12-.49s.08-.33.12-.49c.02-.1.04-.2.06-.29,0-.04.01-.08.02-.12,0-.02,0-.04.01-.06,0-.04,0,.03,0,.03,0-.01,0-.03,0-.04.06-.31.13-.61.21-.91.01-.04.02-.08.04-.12,0-.02.01-.04.02-.06,0-.02.03-.09,0-.02.03-.08.06-.16.09-.24.07-.17.14-.33.22-.49.03-.05.03-.13.03-.19s0-.13-.03-.19c-.01-.03-.04-.08-.08-.08s-.06.04-.08.08h0Z"/>
              <path d="M17.39,48.1c.01.26.04.51.09.76s.1.49.15.74c.03.13.05.26.08.39v-.06c.03.21.06.43.07.65v-.07c0,.06,0,.11,0,.17,0,.06,0,.13.03.19,0,.02.02.04.04.05.01.01.03.02.04.02.04,0,.07-.04.08-.08.02-.06.03-.12.03-.19,0-.27-.03-.54-.08-.8s-.1-.53-.16-.79c-.03-.14-.06-.28-.08-.41v.06c-.03-.22-.06-.44-.07-.66v.07s0-.03,0-.05c0-.06,0-.13-.03-.19,0-.02-.02-.04-.04-.05-.01-.01-.03-.02-.04-.02-.04,0-.07.04-.08.08-.02.06-.04.12-.03.19h0Z"/>
              <path d="M17.52,45.2c-.02.26-.04.53-.06.79,0,.07-.01.15-.02.22,0,.03,0,.07,0,.1,0,.03,0,.07.01.1,0,.03.02.05.03.07,0,.02.02.04.04.05h.03s.04,0,.06-.03l.02-.04s.03-.08.03-.12c.02-.26.04-.53.06-.79,0-.07.01-.15.02-.22,0-.03,0-.07,0-.1,0-.03,0-.07-.01-.1,0-.03-.02-.05-.03-.07,0-.02-.02-.04-.04-.05h-.03s-.04,0-.06.03l-.02.04s-.03.08-.03.12h0Z"/>
              <path d="M18.52,38.95s0,.07-.01.1c0,.02,0,.04,0,.05s0,.04,0-.03c0,.01,0,.02,0,.03-.01.07-.03.13-.05.2s-.04.13-.05.19c0,.03-.02.06-.03.09,0,.01,0,.03-.01.04.03-.08,0-.01,0,0-.1.28-.2.55-.29.83-.05.16-.07.33-.1.5-.03.15-.05.31-.07.46-.04.3-.08.6-.11.91-.03.34-.07.69-.1,1.03,0,.07,0,.14.01.2,0,.03.03.1.07.12.1.05.14-.12.14-.18.07-.61.11-1.22.19-1.83.02-.15.04-.3.07-.45,0-.04.01-.07.02-.11,0-.02,0-.04.01-.06,0,0,0-.01,0-.02,0,.04-.01.06,0,.03,0,0,0-.01,0-.02.01-.08.03-.15.05-.23.02-.07.04-.14.06-.21,0-.02.01-.03.02-.05-.02.07,0,.01,0,0,.01-.03.02-.07.04-.1.05-.13.09-.26.14-.38.11-.32.21-.64.25-.98,0-.06,0-.14-.01-.2,0-.03-.03-.1-.07-.12-.1-.05-.13.12-.14.18h0Z"/>
              <path d="M37.81,61.06c2.26.17,4.53.37,6.75.84,1.05.22,2.07.52,3.08.87.74.25,1.62.59,2.02,1.3.09.15.12.26.16.42.03.13.04.25.04.39,0,.13-.02.29-.05.43-.04.16-.09.3-.17.46-.16.3-.4.48-.71.61-.46.19-.9.43-1.34.68s-.88.5-1.35.69c-.51.21-1.05.33-1.58.44-1.13.23-2.28.35-3.43.39-2.36.09-4.7-.1-7.05-.25-1.14-.08-2.29-.11-3.44-.2s-2.21-.24-3.26-.59c-1.98-.67-3.61-2.03-5.25-3.27s-3.46-2.34-5.34-3.24-3.83-1.62-5.81-2.25-4.02-1.17-6.05-1.67c-.49-.12-.99-.24-1.48-.36-.21-.05-.28.78,0,.84,2.07.49,4.14,1,6.18,1.6s4.05,1.29,6,2.15,3.84,1.86,5.58,3.07,3.32,2.59,5.23,3.46c2.09.94,4.37.96,6.62,1.08,2.4.13,4.8.38,7.2.37,1.19,0,2.38-.09,3.55-.28.57-.09,1.15-.21,1.71-.37.5-.14.97-.34,1.43-.58s.88-.49,1.33-.72c.38-.19.82-.31,1.13-.61.57-.56.7-1.46.64-2.22-.03-.38-.12-.76-.31-1.09-.22-.38-.55-.68-.92-.9s-.77-.37-1.17-.51c-.48-.17-.97-.33-1.46-.47-2.22-.64-4.52-.94-6.82-1.13-.56-.05-1.12-.08-1.69-.12-.22-.01-.24.73,0,.74h0Z"/>
              <path d="M7.78,52.45c.91.07,1.79.29,2.67.51s1.71.42,2.56.65c1.69.45,3.37.95,4.99,1.61s3.15,1.53,4.69,2.37,3.09,1.54,4.75,2.04c1.88.56,3.82.87,5.77,1.07.21.02.24-.71,0-.74-1.73-.17-3.46-.42-5.15-.85-.86-.22-1.7-.48-2.52-.81s-1.56-.69-2.31-1.09c-1.55-.81-3.06-1.69-4.67-2.36s-3.25-1.18-4.92-1.62c-.94-.25-1.89-.48-2.84-.71s-1.99-.49-3.02-.57c-.14-.01-.16.48,0,.49h0Z"/>
              <path d="M3.56,57.07c-.42-.1-.84-.2-1.23-.37-.2-.09-.4-.19-.58-.31s-.32-.26-.49-.39c-.15-.12-.32-.22-.46-.35l.02.02s-.07-.08-.11-.12c0,0-.01-.02-.02-.03,0,0,0-.01-.01-.02-.02-.02.02.04,0,.01s-.02-.05-.03-.07c0-.01-.01-.04,0,.02,0,0,0-.01,0-.02,0-.01,0-.02,0-.03,0,0,0-.01,0-.02v.04s0,0,0-.01c0-.02,0-.03,0-.05,0-.02,0-.05,0,.04,0,0,0-.02,0-.02,0-.02,0-.03,0-.05,0-.06,0,.07,0,0,0-.02,0-.04,0-.07,0-.02,0-.03,0-.05,0-.04-.01.06,0,.02,0,0,0-.02,0-.03,0-.04.02-.07.03-.1,0-.03.02-.06.03-.09-.02.07,0,0,0,0s.01-.03.02-.05c.03-.06.05-.12.09-.18,0-.01.01-.02.02-.04-.03.05,0,0,0-.01.02-.03.04-.06.06-.09.09-.12.18-.24.29-.34l-.03.03c.27-.26.59-.45.92-.61s.71-.29,1.07-.41c.29-.09.58-.19.87-.27h-.03c.47-.13.95-.27,1.43-.37.14-.03.28-.06.41-.08.09-.02.11-.17.11-.24,0-.06,0-.12-.03-.17-.01-.03-.04-.08-.08-.07-.44.08-.87.18-1.29.3s-.86.25-1.29.39c-.32.1-.63.2-.94.33-.29.12-.56.26-.82.43s-.49.38-.67.63c-.21.28-.33.61-.38.95-.03.19-.03.4.03.59.03.08.06.15.1.22.04.05.08.1.13.15.09.09.2.16.3.22.13.09.26.17.38.27.26.21.58.35.89.44.33.1.67.19,1.02.25.08.01.16.03.23.04.02,0,.03-.02.03-.03.01-.02.01-.05.01-.08,0-.04,0-.1-.05-.11h0Z"/>
              <path d="M.65,55.7c-.01.69.05,1.38.11,2.06.08.86.18,1.71.27,2.56s.19,1.69.27,2.53c.03.35.06.71.09,1.07,0,.02,0,.09,0,0,0,.02,0,.04,0,.06,0,.03,0,.06,0,.09,0,.08,0,.15,0,.23,0,.24,0,.53.14.74.08.11.19.15.33.17.15.02.31.04.46.06.32.04.64.08.96.12.62.08,1.25.16,1.87.24,1.26.16,2.52.33,3.78.49s2.5.32,3.74.49c.62.08,1.25.17,1.87.25.45.06.97.12,1.33-.23.31-.31.37-.82.41-1.24.04-.39.05-.79.05-1.18.01-.81,0-1.63-.05-2.44,0-.09-.02-.18-.04-.26-.01-.07-.02-.16-.07-.22l.05.16s0-.02,0-.03c0-.07-.05-.23-.14-.18s-.09.25-.08.32c0,0,0,.02,0,.03l.03-.26c-.04.11-.04.21-.04.32,0,.03,0,.07,0,.1,0,.05,0,.18,0,.05,0,.02,0,.04,0,.06,0,.17.02.34.02.51.01.4.02.8.03,1.2s0,.8-.02,1.2c0,.04,0,.09,0,.13,0,.03-.01.17,0,.06,0,.08-.01.16-.02.24,0,.07-.01.14-.02.21,0,.03,0,.06-.01.09,0,.01,0,.03,0,.04-.01.07,0-.02,0,.04-.04.21-.09.39-.29.52-.18.12-.4.14-.61.14-.26,0-.51-.05-.77-.08-.31-.04-.61-.07-.92-.11-1.22-.16-2.45-.32-3.67-.47-2.45-.32-4.89-.63-7.34-.95-.15-.02-.31-.04-.46-.06-.06,0-.13,0-.18-.04-.03-.02-.03-.02-.04-.04.02.02,0,.01,0,0,0,.06,0-.03,0-.04,0,.07,0,0,0-.02,0-.03,0-.06,0-.1,0-.07,0-.14,0-.21-.02-.34-.05-.68-.08-1.02-.08-.79-.17-1.59-.27-2.38-.19-1.55-.39-3.1-.55-4.65-.01-.13-.03-.26-.03-.4,0-.02-.02-.08-.05-.08s-.04.08-.04.1h0Z"/>
              <path d="M15.94,66.26s0-.01,0-.02c0-.02,0,.02,0,.01,0,0,0,0,0,0,0,0,0,0,0,0v-.02s-.01.05,0,.04c0-.01.01-.03.02-.04,0,0-.01.02,0,0,0,0,.01-.01,0,0-.02.02.01-.01.01-.02,0,0,0,0,0-.01,0,0,0,0,0,0,0,0,0,0,0-.01,0-.02-.01.02,0,0,0,0,.02-.04,0-.02-.01.02,0,0,0,0,0,0,.01-.02.02-.02.01-.02.03-.04.05-.06l-.02.02s.03-.03.04-.05c-.02.04-.02.03,0,.02,0,0,0,0,.01-.01,0,0,.02-.02.02-.03.02-.02.03-.04.05-.06.03-.05.07-.1.1-.15.04-.05.08-.11.12-.16.05-.06.09-.12.13-.18.21-.27.42-.53.64-.79.23-.27.47-.54.69-.82.2-.25.4-.51.6-.76.13-.16.26-.33.37-.51.01-.02.03-.05.04-.07l-.02.03s0,0,0,0c.02-.04.04-.08.04-.13,0-.05,0-.12,0-.17,0-.03-.02-.08-.06-.1-.03-.01-.06,0-.07.02-.04.06-.09.12-.13.18-.07.08-.14.17-.21.25-.2.22-.4.44-.6.66-.12.13-.24.25-.35.39-.12.14-.23.29-.35.43-.22.28-.44.56-.65.84-.09.13-.18.25-.26.39-.08.12-.15.25-.21.38-.02.05-.04.1-.05.15l.02-.08s-.03.08-.04.12c0,.01,0,.03-.01.04,0,0,0,.01,0,.02,0,0,.02-.05,0,0,0,.02,0,.03-.01.05,0,0,0-.04,0-.02,0,0,0,.01,0,.02,0,0,0,0,0,0,0,0,0,0,0,0,0,0,.02-.04,0,0,0,.02-.01.04-.01.06,0,.05,0,0,0-.01,0,0,0,0,0,0,0,0,0,.01,0,.02,0,.03,0,.06,0,.09,0,.02,0-.03,0,0,0,0,0,0,0,.01,0,.02,0,.03,0,.05,0,.02,0,.09.04.09s.04-.05.05-.07h0Z"/>
              <path d="M33.34,68.51c-.77-.05-1.2-.86-1.31-1.54-.07-.39-.08-.8-.08-1.2s0-.76.02-1.14c0-.05,0-.16.02-.24,0-.1.02-.2.03-.3.02-.19.04-.39.07-.58.06-.36.14-.73.25-1.09.21-.71.54-1.38,1-1.95.49-.61,1.1-1.11,1.73-1.56.32-.23.65-.44.98-.66.35-.23.7-.46,1.08-.63,1.56-.73,3.29-.27,4.79.37.39.17.77.35,1.15.53.35.17.7.34,1.03.55s.61.45.81.77c.09.13.16.29.21.44.03.09.05.17.05.23,0,.04.01.08.01.13,0,.02,0,.03,0,.05,0-.05,0,.04,0,.05,0,.17,0,.3-.07.46-.03.07-.03.16,0,.23.03.06.07.06.1,0,.08-.16.16-.35.18-.53.03-.22,0-.45-.04-.67-.08-.38-.27-.74-.53-1.03-.55-.62-1.36-.96-2.09-1.3-1.52-.72-3.3-1.44-5-.96-.84.23-1.56.75-2.27,1.23s-1.35.94-1.92,1.54-.98,1.29-1.26,2.04-.44,1.57-.51,2.39-.07,1.7.01,2.54c.07.75.31,1.66,1.07,1.99.15.07.32.1.48.09.07,0,.07-.21,0-.21h0Z"/>
              <path d="M44.04,58.68c-.33-.31-.76-.46-1.21-.5-.23-.02-.46.02-.69.06-.23.04-.47.11-.69.18-.47.15-.94.34-1.38.57-.47.25-.92.55-1.37.85s-.9.6-1.37.87-.88.54-1.22.94c-.64.75-.94,1.75-.99,2.73-.02.55.05,1.09.18,1.62s.31,1.09.4,1.64c-.01-.07,0,0,0,.01,0,.03.01.06.02.09,0,.03.01.06.02.1.01.06.03.12.05.18.01.04.05.14.11.1s.07-.15.07-.21c0-.59-.18-1.17-.33-1.74-.07-.27-.14-.53-.19-.8-.01-.07,0,.06,0-.01,0-.01,0-.03,0-.04,0-.03-.01-.07-.02-.1,0-.06-.02-.13-.03-.19,0-.05-.01-.11-.02-.16,0-.01,0-.03,0-.04,0-.05,0,.02,0,.02,0-.03,0-.07,0-.1,0-.11,0-.23,0-.34,0-.02.01-.11,0-.02,0-.03,0-.06,0-.09,0-.06.01-.12.02-.17s.01-.11.02-.16c0-.03,0-.05.01-.08,0-.02,0-.03,0-.05,0-.05-.01.06,0,0,.02-.11.05-.22.08-.33.01-.05.03-.11.05-.16,0-.03.02-.06.03-.08,0,0-.02.05,0,0,0-.02.01-.03.02-.05.04-.11.08-.22.13-.32.02-.05.04-.09.07-.14.01-.03.03-.05.04-.08,0,0,.01-.02.02-.03.01-.02.01-.02,0,0,0,0,0-.01.01-.02.06-.1.12-.19.18-.28s.14-.18.21-.26c.07-.08.14-.16.21-.22.2-.18.42-.33.64-.48s.46-.28.68-.42.45-.3.67-.46c.43-.31.86-.62,1.32-.9s.88-.49,1.35-.68c.43-.18.88-.33,1.35-.39.42-.05.87-.05,1.25.16.1.05.18.12.27.19.03.03.05-.05.05-.07,0-.04,0-.09-.03-.12h0Z"/>
              <path d="M40.93,58.85s.05.07.08.11c.03.03.05.07.08.1.02.03.05.06.08.08s.05.05.07.08c.09.1.17.21.25.32.04.06.08.11.11.18l-.02-.03c.06.1.11.21.14.32v-.04c.02.09.04.18.06.27v-.05c0,.06.01.12.02.18,0,.03,0,.07,0,.1s0,.07.01.1c0,.04,0,.08,0,.12v-.05c0,.06,0,.13,0,.19,0,.04,0,.09.02.13.01.02.02.04.05.05,0,0,.01,0,.02,0,.01,0,.02,0,.03-.02.02-.03.03-.07.04-.11.01-.16.02-.32,0-.48,0-.14-.03-.28-.06-.42-.02-.07-.04-.14-.06-.21v.04c-.02-.09-.05-.19-.1-.27s-.09-.17-.15-.25c-.11-.16-.24-.29-.38-.42-.02-.02-.04-.04-.06-.06-.01,0-.02-.02-.03-.03s-.02-.02-.04-.02c-.02-.01-.05-.03-.07-.04-.02-.02-.05-.03-.08-.04-.03-.02-.05.03-.05.06,0,.04,0,.09.02.12h0Z"/>
              <path d="M8.47,47.32c.71.21,1.43.38,2.16.49s1.49.14,2.24.16,1.5,0,2.25.02c.38,0,.75.02,1.13.04.32.02.64.06.96.08,1.1.04,2.18-.19,3.27-.27.54-.04,1.06-.24,1.52-.53.1-.06.22-.13.3-.21.1-.09.09-.23.08-.35-.01-.37-.04-.75-.11-1.12-.04-.21-.08-.41-.16-.61-.07-.15-.16-.26-.3-.36-.31-.24-.68-.39-1.05-.51-.54-.18-1.1-.29-1.66-.4-.72-.13-1.43-.23-2.16-.3s-1.46-.13-2.19-.25-1.42-.33-2.11-.58-1.34-.52-2.03-.73c-2.71-.83-5.6-1.04-8.4-.57-.18.03-.35.06-.52.1s-.34.1-.5.16c-.1.04-.1.43.03.42.22-.02.43-.04.64-.08s.43-.08.65-.11c.43-.06.86-.11,1.3-.15.86-.07,1.72-.07,2.58-.02,1.74.11,3.46.47,5.09,1.07.83.3,1.64.65,2.5.86s1.76.29,2.64.37,1.76.19,2.64.36c.63.12,1.27.26,1.86.51.21.09.41.19.59.32.16.12.23.21.27.38.07.23.09.44.12.69.01.12.02.23.03.35,0,.03,0,.05,0,.08,0,.02,0-.04,0,.01,0,.04,0,.08,0,.11,0,.03,0,.06,0,.1l.08-.25c-.46.38-1.08.68-1.68.74-.81.08-1.61.2-2.42.27-.38.03-.77.06-1.15.03-.54-.04-1.08-.07-1.63-.08-1.09-.01-2.18.03-3.28,0-.62-.02-1.24-.07-1.85-.17s-1.2-.25-1.78-.42c-.08-.02-.11.31,0,.34h0Z"/>
              <path d="M1.23,41.64c-.13.02-.27.06-.39.13-.09.05-.15.14-.2.23-.09.2-.06.43-.05.65,0,.01,0,.06,0,0,0,0,0,.02,0,.03,0,.03,0,.05,0,.08,0,.02,0,.05,0,.07,0,0,0,.01,0,.02,0,.03,0-.05,0,.01,0,.03,0,.06,0,.08,0,.15-.01.3,0,.46.01.25.05.51.17.74.11.21.26.39.45.54.27.22.63.32.95.43.75.27,1.51.53,2.26.8.38.13.76.26,1.13.4.19.07.38.14.57.21.16.06.33.11.49.2.07.04.13.07.2.09.06.02.09-.07.09-.12,0-.04,0-.09,0-.13,0-.02-.02-.07-.04-.08-.14-.05-.26-.13-.4-.18-.18-.06-.37-.13-.55-.19-.37-.13-.74-.25-1.1-.38-.73-.26-1.46-.52-2.19-.77-.18-.06-.37-.13-.55-.19-.16-.06-.32-.11-.47-.18-.25-.11-.45-.27-.61-.48-.03-.04-.06-.08-.09-.13,0,0-.01-.02,0,0,0,0,0,0,0-.01,0-.01-.01-.02-.02-.03-.01-.02-.02-.05-.03-.07s-.02-.05-.03-.07c0,0,0-.03,0,0,0,0,0-.01,0-.02,0-.01,0-.03-.01-.04,0-.02-.01-.05-.02-.07,0-.01,0-.03,0-.04,0,0,0-.01,0-.02,0,.03,0,0,0,0-.01-.06-.02-.12-.02-.18,0-.02,0-.03,0-.05,0-.02,0,0,0,0,0,0,0-.02,0-.02,0-.04,0-.07,0-.11,0-.15,0-.29.01-.44,0-.11,0-.21-.02-.32,0,0,0-.02,0-.03,0-.04,0,.03,0,0,0-.02,0-.05,0-.07,0-.02,0-.04,0-.06,0,0,0,0,0-.01,0-.02,0,.01,0,.01,0-.01,0-.03,0-.04,0,0,0-.02,0-.03,0-.03,0,.02,0,0,0,0,0-.02,0-.03,0,0,0-.01,0-.02,0-.02,0,.01,0,0,0-.02.02-.04.03-.06,0,0,0-.01,0,0,0,0,0,0,0-.01,0-.01.01-.02.02-.03.03-.04.05-.06.1-.09.05-.04.1-.06.15-.09.07-.03.14-.06.21-.07.04-.01.05-.07.05-.11,0-.02,0-.11-.05-.11h0Z"/>
              <path d="M.82,42.21c.33.53.88.83,1.46,1.01.66.2,1.34.29,2.01.46,1.55.37,3.06.88,4.58,1.35,1.4.43,2.81.83,4.25,1.1,1.31.25,2.65.44,4,.42.73-.01,1.45-.08,2.16-.25.35-.08.69-.19,1.02-.32s.68-.29.95-.54c.07-.07.11-.45-.05-.4-.3.1-.57.26-.86.38s-.58.22-.88.3c-.62.17-1.26.25-1.91.29-1.32.07-2.63-.08-3.93-.3-1.41-.24-2.81-.55-4.18-.95-1.49-.43-2.96-.92-4.46-1.29-.8-.2-1.6-.33-2.4-.49-.66-.13-1.33-.36-1.72-.94-.03-.04-.06.01-.06.04-.01.05,0,.11.02.15h0Z"/>
              <path d="M3.18,43.33c2.03-.03,4.07.16,6.08.44,2.13.29,4.24.7,6.34,1.17,1.08.24,2.16.5,3.23.78.08.02.1-.28,0-.3-1.98-.51-3.97-.96-5.98-1.34s-4.23-.72-6.37-.87c-1.1-.08-2.2-.11-3.3-.05-.06,0-.06.19,0,.19h0Z"/>
              <path d="M11.43,44.03s0-.02,0-.01c0,0,0,0,0,0,0,.01,0,.02.01.04,0,0,0,0,0,0v.02s0-.02,0-.02c0,0,0,0,0,0,0,0,0,0,0,.01,0,.01,0,.02,0,.03,0,.03.02.06.03.1.01.03.02.07.03.1v-.02c.01.06.04.13.06.19.02.08.05.15.07.23.05.17.1.35.15.53.03.11.05.21.07.32v-.03s0,.09.02.13c0,.02,0,.06.03.08.01.01.03.02.04.01.02-.01.03-.04.03-.06,0-.03.01-.07,0-.1-.03-.17-.06-.33-.1-.5-.04-.15-.08-.29-.12-.44-.04-.13-.08-.26-.13-.39-.03-.08-.06-.17-.1-.25-.02-.03-.03-.07-.05-.1,0,0,0,0,0,0,0,0-.01-.02-.03-.02s-.02.01-.03.02c-.02.04-.01.08,0,.12h0Z"/>
              <path d="M13.22,44.39c.03.16.06.31.09.47.02.1.04.19.06.29.02.08.03.15.05.23.02.09.04.18.06.27.03.15.06.29.09.44,0,.02,0,.05.01.07,0,.02.01.04.03.05.01,0,.03,0,.04-.01.03-.04.03-.11.02-.15-.03-.16-.06-.31-.09-.47-.02-.1-.04-.19-.06-.29-.02-.07-.04-.15-.05-.22-.02-.09-.04-.18-.06-.27-.03-.14-.06-.29-.09-.43,0-.02,0-.05-.01-.07,0-.01-.01-.04-.02-.04-.01,0-.02,0-.03,0-.03.04-.02.09-.01.13h0Z"/>
              <path d="M12.13,47.72s0,.09,0,.13c0,.12,0,.24,0,.36,0,.18,0,.36,0,.54,0,.22,0,.44-.01.67,0,.25-.01.49-.02.74s-.01.51-.02.76-.01.49-.02.73c0,.22-.02.43-.03.65,0,.09,0,.18-.01.28,0,0,0,0,0,.01,0,.02,0-.03,0-.01,0,.01,0,.02,0,.03,0,.02,0,.04,0,.06,0,.04,0,.07,0,.11,0,.11-.02.22-.03.32,0,.03,0-.03,0,0,0,0,0,.01,0,.02-.01.05-.02.13.02.17s.07-.01.08-.04c.02-.1.03-.2.04-.3.01-.17.02-.33.03-.5.01-.21.02-.41.03-.62,0-.24.02-.48.02-.72,0-.25.01-.51.02-.76s0-.5.01-.75c0-.23,0-.46.01-.69,0-.19,0-.39,0-.58,0-.14,0-.28,0-.41,0-.06,0-.13,0-.2,0,0,0,0,0,0,0-.03,0-.1-.04-.1s-.04.08-.04.1h0Z"/>
              <path d="M13.76,47.81c-.02.24-.04.48-.05.72-.03.42-.05.85-.08,1.28-.03.48-.05.96-.08,1.44-.02.43-.04.87-.05,1.3,0,.27-.02.55.01.82,0,.02,0,.03,0,.05,0,.03.02.12.07.09.04-.02.05-.12.04-.16,0-.04,0-.07-.01-.11,0-.01,0-.04,0,.01,0,0,0-.01,0-.02,0-.01,0-.03,0-.04,0-.03,0-.06,0-.09,0-.15,0-.3,0-.44,0-.42.02-.83.04-1.25.02-.48.04-.96.07-1.44.01-.23.02-.46.04-.68,0-.06,0-.11,0-.17,0,.04,0,0,0-.01,0-.01,0-.03,0-.04,0-.03,0-.05,0-.08,0-.1.01-.19.02-.29.02-.27.03-.53.05-.79,0-.02,0-.03,0-.05,0-.04,0-.11-.03-.13s-.06.05-.06.07h0Z"/>
              <path d="M22.26,46.94c.37.42.77.82,1.15,1.24.4.44.8.88,1.19,1.32.83.93,1.64,1.87,2.49,2.78s1.7,1.81,2.63,2.64c.87.78,1.78,1.51,2.79,2.09.47.27.96.52,1.47.72.24.1.49.19.75.26s.51.15.77.18c.13.01.25.02.38.03.09,0,.09-.26,0-.28-.26-.06-.51-.13-.77-.2s-.5-.14-.74-.22c-.51-.18-1-.41-1.48-.67-1-.56-1.93-1.26-2.8-2.01-.93-.8-1.8-1.68-2.65-2.57s-1.67-1.82-2.49-2.74c-.77-.86-1.54-1.71-2.36-2.51-.09-.09-.18-.18-.28-.26-.03-.03-.06.05-.06.07,0,.04,0,.11.02.14h0Z"/>
              <path d="M20.57,47.67c.23.25.45.51.68.77.21.24.42.49.63.74.38.47.75.95,1.11,1.43.72.95,1.45,1.9,2.31,2.73.46.45.96.85,1.46,1.26s.97.79,1.45,1.18c.97.78,1.96,1.55,3.02,2.21.9.57,1.88,1.07,2.94,1.26.12.02.23.04.35.05.14.02.16-.47,0-.49-1.03-.14-1.99-.61-2.89-1.12-1.06-.6-2.05-1.33-3.02-2.08-.49-.38-.98-.78-1.47-1.17s-.99-.78-1.46-1.2c-.89-.8-1.65-1.72-2.38-2.67s-1.48-1.92-2.35-2.78c-.11-.11-.23-.21-.35-.31-.04-.04-.06.14-.03.17h0Z"/>
              <path d="M26.02,67.33c0,.79.44,1.44,1.1,1.83s1.5.5,2.25.62c1.98.29,3.97.32,5.97.39.98.04,1.96.1,2.93.17s1.94.16,2.91.19,1.91.01,2.86-.11c.89-.11,1.81-.3,2.63-.68.38-.18.73-.4,1.03-.69.21-.2.41-.43.6-.65.22-.25.43-.5.63-.77.23-.3.42-.63.62-.96.13-.22.26-.43.39-.65.06-.1.07-.24.04-.36-.02-.06-.09-.2-.16-.09-.42.65-.8,1.32-1.28,1.92-.4.5-.82,1.05-1.36,1.41-.71.49-1.59.72-2.43.87-.9.17-1.82.23-2.73.24-1.9,0-3.78-.24-5.67-.33s-3.83-.09-5.74-.26c-.54-.05-1.08-.1-1.61-.18-.42-.06-.85-.12-1.26-.25-.8-.24-1.58-.75-1.63-1.67,0-.12-.1-.13-.09,0h0Z"/>
              <path d="M36.31,59.63s-.07-.05-.11-.08c0,0,0,0,0,0,0,0,0,0,0,0,0,0,0,0-.01-.01,0,0-.02-.02-.02-.02-.01-.02-.03-.03-.04-.05s-.03-.04-.04-.05c0,0-.01-.02-.02-.03,0,0,.01.02,0,0,0,0,0,0,0,0,0,0,0-.01,0-.02-.02-.04-.04-.08-.05-.12,0,0,0,.03,0,.01,0,0,0,0,0,0,0,0,0-.01,0-.02,0-.01,0-.02,0-.03,0-.02-.01-.04-.02-.07,0-.02,0,.02,0,.02,0,0,0,0,0-.01,0,0,0-.01,0-.02,0-.01,0-.02,0-.03,0-.01,0-.02,0-.03,0-.01,0-.06,0,0,0-.02,0-.05,0-.07,0-.01,0-.02,0-.03,0,0,0-.01,0-.02,0-.02,0,.04,0,.03,0,0,0,0,0-.01,0-.02,0-.05,0-.07,0-.01,0-.02,0-.03,0,0,0-.01,0-.02,0,0,0,.04,0,.02,0,0,0,0,0,0,0-.03.01-.05.02-.07,0-.01,0-.02.01-.04,0-.02-.01.03,0,0,0,0,0-.01,0-.02.02-.05.04-.09.06-.14v.02c.03-.07.08-.14.14-.19l-.02.02c.06-.06.13-.1.2-.14.09-.05.18-.08.27-.11h-.02c.28-.08.58-.09.86-.04.08.01.15.03.23.05h-.02c.2.05.37.16.53.29.08.06.16.13.24.2.06.05.13.1.19.14.08.06.16.11.23.18l-.02-.02s.09.09.12.15l-.02-.03s.02.03.03.05c0,0,0,0,0,.01,0,.02-.01-.04,0-.02,0,0,0,.02,0,.03,0,0,0,0,0,.01,0,.03,0-.02,0-.02,0,0,0,.02,0,.03,0,0,0,0,0,.01,0,.02,0-.06,0-.03,0,0,0,.02,0,.02,0,.02,0-.05,0-.03,0,0,0,0,0,.01,0,0,0,.02,0,.02,0,.02.01-.05,0-.02,0,0,0,0,0,.01,0,0,0,.02,0,.02,0,.01-.01.03,0-.02,0,0,0,0,0,.01,0,0,0,.01,0,.02,0,.02-.01.03-.02.05l.02-.03c-.04.06-.08.12-.13.17l.02-.02c-.15.14-.33.24-.52.34-.08.04-.17.08-.26.11h.02c-.24.07-.5.08-.75.03-.07-.01-.14-.03-.21-.05h.02c-.05-.01-.11-.02-.16-.04h.02c-.13-.03-.25-.08-.37-.12-.07-.02-.14-.04-.2-.06-.06-.02-.13-.04-.19-.05h.02s0,0,0,0c-.01,0-.02,0-.03,0-.01,0-.02,0-.03.02-.02.03-.03.08-.04.11,0,.05,0,.1,0,.15v.04s.03.04.05.05c.04.01.09.03.13.05s.08.03.13.05c.02,0,.04.02.06.02.03.01.06.02.09.03.04.01.09.02.13.04.17.05.34.09.51.11.08.01.17.02.25.02s.17,0,.26,0c.18-.02.37-.06.53-.14.1-.05.21-.1.3-.16.11-.07.21-.14.31-.23s.17-.21.2-.33c.05-.18.02-.39-.08-.55-.07-.12-.19-.21-.3-.29-.05-.04-.11-.08-.16-.11-.06-.04-.11-.09-.17-.14-.13-.1-.25-.21-.4-.29s-.29-.14-.45-.17c-.3-.06-.61-.06-.9.02-.26.07-.53.2-.67.45s-.19.53-.17.81c.02.24.11.49.3.65.04.03.08.06.13.08.04.02.06-.05.06-.07,0-.03,0-.06,0-.08,0-.02-.01-.04-.03-.05h0Z"/>
              <path d="M7.61,46.38s-.1-.04-.15-.06h.02s-.07-.02-.09-.04h.01s-.02-.01-.03-.03v.02s0-.04-.01-.06v.03s-.01-.07-.02-.11-.02-.07-.02-.11v.04c0-.06-.01-.11-.01-.17v.04c0-.05,0-.1,0-.15v.04s0-.1.01-.14v.04s.01-.1.03-.14v.03c0-.05.03-.11.06-.16l-.02.03c.04-.06.08-.12.13-.17l-.02.02c.08-.08.18-.14.29-.17h-.02c.11-.03.23-.04.35-.02.03,0,.07.01.1.02h-.02c.12.03.22.1.31.18l-.02-.02c.07.06.12.14.17.22l-.02-.03c.03.06.06.12.08.19v-.03s.02.1.03.15v-.04s0,.09,0,.13v-.05s0,.07,0,.11v-.05s0,.07,0,.1v-.04s0,.06-.02.09v-.03s-.01.07-.03.1l.02-.03s-.05.07-.08.1l.02-.02c-.05.05-.12.09-.19.11h.02c-.09.02-.19.03-.28.02s-.19-.02-.28-.03c-.05,0-.1-.02-.15-.03h.02s-.04,0-.06-.01c-.02,0-.05-.01-.07-.02h.02s-.05-.01-.07-.02c-.01,0-.02-.01-.03-.02s-.02-.02-.03-.02h.01s-.03-.01-.03-.03-.03-.02-.04-.01c-.02.01-.03.04-.03.06,0,.03-.01.07,0,.1,0,.03.01.05.03.08h0s0-.01-.01-.02c0,.02.02.03.02.04,0,0,.01.02.02.02v-.02s.05.09.09.12c.01.01.03.03.05.04s.03.02.05.03c.08.03.16.05.24.06.15.02.32.05.47.02.08-.01.16-.04.23-.09.04-.03.07-.06.1-.09.03-.04.06-.08.08-.13.02-.05.04-.1.05-.15.01-.05.02-.11.03-.16.01-.11,0-.23-.01-.34-.02-.11-.04-.21-.09-.31-.03-.08-.08-.16-.13-.24s-.11-.13-.18-.19c-.06-.05-.13-.09-.2-.12-.15-.06-.32-.08-.48-.04-.08.02-.16.05-.23.09s-.14.1-.19.17-.1.14-.13.22c-.04.09-.07.19-.08.29-.02.09-.02.19-.02.28,0,.11.01.21.03.32,0,.05.02.1.04.14v-.03c.01.07.04.15.08.21.02.03.05.05.08.06.03.01.06.02.1.02s.06,0,.1.01h-.01s.02,0,.03,0c.04.02.06-.05.06-.08,0-.03,0-.06,0-.09,0-.02-.01-.04-.03-.05h0Z"/>
              <path d="M7.31,45.28c-.27.51-.48,1.04-.59,1.61-.1.52-.18,1.05-.32,1.57-.05.18-.11.35-.15.54-.03.16-.06.32-.08.48-.07.43-.12.86-.18,1.29-.09.63-.17,1.26-.22,1.9-.03.47-.07.95-.07,1.43,0,.17,0,.34.02.5.02.13.03.25.04.38,0,0,0,.02,0,.03,0-.04,0,0,0,.01,0,.02,0,.04,0,.06,0,.05,0,.11,0,.16,0,.11,0,.23.01.34,0,.25.01.49.02.74,0,.43.01.86.05,1.28,0,.04,0,.08.02.12,0,.01,0,.03,0,.04,0,0,.01.05,0,.01,0,.03.02.11.07.09.04-.02.05-.12.04-.16,0,.05,0-.02,0-.04,0,0,0-.01,0-.02,0-.03,0,.03,0,0,0-.04,0-.09,0-.13,0-.04,0-.07,0-.11,0-.01,0-.02,0-.03,0,.03,0,0,0,0,0-.03,0-.06,0-.08-.01-.21-.02-.43-.02-.64-.01-.48-.01-.95-.03-1.43,0-.18-.01-.37-.03-.55,0-.05-.01-.1-.02-.15,0-.03,0-.06,0-.09,0,.04,0,0,0-.01s0-.04,0-.06c-.01-.43.01-.87.04-1.3.02-.37.05-.78.09-1.16.03-.25.07-.5.1-.75.06-.43.11-.86.17-1.29.03-.18.05-.37.08-.55.01-.07.02-.14.03-.2,0-.02,0,0,0,0,0,0,0-.02,0-.02,0-.01,0-.02,0-.03,0-.02,0-.04.01-.06.08-.29.17-.58.23-.87.05-.26.1-.52.14-.78.04-.22.08-.45.13-.67.07-.27.16-.53.26-.78.07-.16.14-.32.22-.48.02-.04.02-.1,0-.14-.02-.04-.04-.03-.06,0h0Z"/>
              <path d="M8.76,46.02c-.04.44-.28.82-.4,1.24-.08.26-.14.52-.19.79-.14.75-.23,1.5-.31,2.25-.09.82-.16,1.65-.21,2.47-.04.68-.08,1.35-.1,2.03,0,.4,0,.8.02,1.19.02.32.08.64.15.96.07.3.15.59.19.89.02.15.04.29.05.44,0,.04.03.14.08.12s.06-.12.07-.17c.02-.64-.21-1.24-.31-1.86-.08-.47-.08-.94-.07-1.41,0-.27.01-.54.03-.81,0-.17.02-.34.03-.51,0-.02,0-.04,0-.06,0-.01,0-.04,0,0,0-.01,0-.02,0-.03,0-.05,0-.09,0-.14,0-.09.01-.19.02-.28.05-.82.11-1.63.19-2.45.07-.77.16-1.54.28-2.3.02-.15.05-.31.08-.46,0-.03,0,0,0,0,0,0,0-.02,0-.03,0-.02,0-.03,0-.05,0-.04.01-.07.02-.11.01-.06.03-.13.04-.19.03-.11.05-.22.09-.32,0-.03,0,0,0-.01,0-.02.02-.05.02-.07.03-.07.05-.14.08-.21.05-.15.11-.3.15-.45.04-.14.05-.29.06-.44,0-.02,0-.08-.03-.08s-.04.04-.04.06h0Z"/>
            </g>
          </g>
        </g>
      </g>
    </g>
  </g>
</svg>