<?xml version="1.0" encoding="UTF-8"?>
<svg xmlns="http://www.w3.org/2000/svg" viewBox="0 0 186.68 186.84">
  <defs>
    <style>
      .cls-1 {
        fill: #4d4d4d;
      }

      .cls-2 {
        isolation: isolate;
      }

      .cls-3 {
        fill: #fbb03b;
        mix-blend-mode: multiply;
      }
    </style>
  </defs>
  <g class="cls-2">
    <g id="_レイヤー_2" data-name="レイヤー 2">
      <g id="_編集箇所" data-name="編集箇所">
        <g>
          <g>
            <path class="cls-1" d="M23.26,47.77c-1.21.42-2.38.18-3.5-.71-.92-.71-1.57-1.61-1.94-2.68-.4-1.17-.61-2.33-.63-3.48-.02-1.14.12-2.26.42-3.36.68-2.36,2.03-3.89,4.03-4.58.7-.24,1.35-.17,1.96.2s.96.86,1.07,1.47c.16.97-.02,1.55-.53,1.72-.22.08-.37,0-.45-.22-.04-.13-.04-.27.01-.43l-.05.02c.07-.2.07-.43-.02-.68-.12-.35-.38-.61-.77-.77-.4-.16-.77-.19-1.12-.07-1.4.48-2.3,1.8-2.7,3.96-.36,1.86-.24,3.64.35,5.36.29.86.77,1.52,1.44,2,.73.57,1.5.71,2.33.42,1.4-.48,2.55-1.43,3.46-2.84.08-.17.22-.29.41-.35.32-.11.54.03.67.41.09.25.07.51-.06.76-.73,1.81-2.19,3.09-4.39,3.85Z"/>
            <path class="cls-1" d="M39.34,41.77c-.69.27-1.37.05-2.05-.68-.12-.14-.29-.38-.52-.73-.23-.35-.52-.79-.89-1.34-.4-.75-.72-.99-.95-.74-.24.97-.67,2.09-1.3,3.37-.8,1.62-1.5,2.53-2.1,2.74-.67.23-1.42-.08-2.24-.93-.69-.65-1.15-1.34-1.41-2.07-.84-2.44-1.26-4.69-1.25-6.75.03-.44.2-.71.52-.82.29-.1.61-.05.96.15.35.2.59.47.71.82.07.19.07.61.01,1.27-.2,1.38-.05,2.8.45,4.26.54,1.58,1.12,2.27,1.72,2.06.29-.1.83-.8,1.63-2.1,1.4-2.36,2.06-5.03,1.99-8.02.03-.44.22-.71.57-.83.57-.2.94-.06,1.1.42.11.32.19.68.24,1.09s.08.88.08,1.41c.04.52.09.98.15,1.38.07.4.16.76.26,1.08.08.22.18.48.32.77.13.29.29.6.48.93.49.9.85,1.39,1.1,1.48.55-.58,1-1.04,1.36-1.4.36-.35.78-.81,1.27-1.36.32-.11.52-.04.61.22.09.25-.05.71-.41,1.36-.36.66-.78,1.28-1.25,1.87-.47.59-.86.95-1.17,1.09Z"/>
            <path class="cls-1" d="M47.81,42.04c-.8.27-1.36-.07-1.68-1.02-1.62-4.72-3.02-9.86-4.18-15.41-.34.05-.69.1-1.04.17-.35.07-.7.12-1.04.17-.94.18-1.47.08-1.6-.3s-.02-.68.33-.91l-.05.02c-.29.1-.25.06.12-.12.37-.18.84-.4,1.42-.68.58-.27,1.05-.47,1.4-.59-.19-1.17-.26-2.62-.21-4.34,0-1.03-.01-1.92-.04-2.67-.03-.75-.05-1.36-.06-1.81-.06-.69.25-1.15.91-1.38.29-.1.45,0,.48.31.05.98.13,2.23.23,3.77.1,1.54.26,3.36.48,5.44.29-.1.64-.22,1.07-.37.43-.15.94-.3,1.52-.47.58-.17,1.09-.31,1.53-.45.44-.13.78-.24,1.03-.33.29-.1.47-.04.54.19.07.19.02.44-.15.74-.16.3-.39.51-.67.6-.38.13-.94.38-1.66.76-.73.37-1.64.87-2.74,1.5.86,4.06,2.44,9.44,4.74,16.12.16.48-.07.82-.71,1.04Z"/>
            <path class="cls-1" d="M59.78,35.85c-1.4.48-2.69.44-3.85-.11s-2-1.56-2.51-3.02c-.11-.32-.19-.64-.26-.98-.06-.33-.12-.67-.16-1.01-.12-1.48.35-3.27,1.41-5.38,1.2-2.29,2.46-3.66,3.76-4.11,1.08-.37,1.8.06,2.15,1.28.5,1.56.17,3.38-1.01,5.45-.52.85-1.09,1.67-1.69,2.44-.61.78-1.34,1.31-2.2,1.61l-.05.02c.8,2.03,2.22,2.69,4.26,1.99.67-.23,1.36-.65,2.08-1.25.05-.05.14-.1.27-.15.41-.14.69,0,.83.4.1.29.03.56-.2.81-.68.91-1.63,1.57-2.84,1.99ZM55.89,29.37c.91-.56,1.61-1.26,2.1-2.11.88-1.47,1.16-2.68.83-3.64l-.03-.09c-.08-.22-.22-.37-.42-.44-.2-.07-.33-.07-.37.02-.99.34-1.79,1.41-2.42,3.22-.08.28-.17.64-.27,1.08-.1.44-.19.96-.27,1.55-.01.07,0,.14.02.21.1.29.37.35.81.2Z"/>
            <path class="cls-1" d="M66.9,23.2c-.64.22-1.09-.07-1.36-.86-.03-.09-.07-.21-.11-.33-.04-.13-.08-.27-.1-.44-.09-.47-.14-.88-.16-1.25-.02-.37-.03-.62-.05-.75,0-.95.12-1.68.4-2.18.27-.5.6-.93.99-1.3.39-.36.72-.82.99-1.38.46-.62.85-1.23,1.16-1.83.31-.6.57-1.17.78-1.7.22-.71.37-1.36.46-1.94.09-.58.04-1.12-.13-1.63-.71-2.06-1.69-3.52-2.95-4.38-1.26-.86-2.65-1.03-4.18-.5-.61.21-1.15,1.17-1.62,2.9,0,.18-.02.5-.04.97-.02.47-.1,1.06-.24,1.78-.13.26-.28.42-.48.48-.32.11-.64.01-.95-.28-.32-.3-.49-.64-.51-1.02-.09-1.6.07-2.9.48-3.89.76-1.82,1.64-2.9,2.62-3.24.35-.12.8-.24,1.35-.36.55-.12,1.4-.05,2.55.19,2.48.49,4.43,2.8,5.85,6.92.36,1.36.16,3.12-.6,5.25-.17.45-.45,1.02-.85,1.73-.4.7-.9,1.52-1.51,2.43-.18.2-.4.49-.66.87-.26.37-.56.87-.88,1.47-.09.25-.15.45-.16.61-.02.16-.02.3-.02.41.01.14.18.79.51,1.95.13.7-.06,1.14-.56,1.31ZM69.29,32.95c-.92.32-1.65-.35-2.19-2.01l.02.05c-.19-.64-.23-1.29-.13-1.92.1-.64.33-1.02.68-1.14.92-.32,1.61.33,2.06,1.95.47,1.79.33,2.81-.44,3.07Z"/>
          </g>
          <path class="cls-1" d="M2.69,39.36c-.8,2.4-1.79,4.8-1.95,7.3.12,1.9.65,3.82,1.55,5.5,6.73,11.7,25.43,12.77,35.15,4.25.13-.12.33-.12.46,0,5.01,4.82,12.9,4.78,19.21,2.86,2.17-.66,3.55-2.46,4.88-4.26.95-1.26,1.78-2.37,1.99-3.75.16-.93.13-2.05.15-3.04.01-.29-.13-.4-.16-.69-.04-.12.08-.51.17-.57.22-.24.27-.22.35-.28.32-.17.72-.4,1.07-.19.9.56,2.49.12,3.48.05,1.26-.16,2.49-.57,3.69-1.03,3.61-1.42,6.72-3.93,9.28-6.83,1.34-1.7,3.89-4.15,4.69-6.13.47-1.11.76-2.55,1.18-3.74.72-2.47,1.95-4.82,1.41-7.43-.51-2.58-.58-5.26-1.69-7.68-.49-1.25-.94-2.49-1.61-3.56-.63-1.05-1.74-1.78-2.79-2.66-1.47-1.47-3.07-2.42-5.13-2.62-.5-.1-1.39-.3-1.87-.26-.06.02-.21.06-.16-.06.12-.17.22-.11.31-.14.26-.02.52,0,.77.03,0,0,1,.11,1,.11,2.06,0,4.08,1,5.57,2.33,1.03.78,2.27,1.49,3.12,2.72.81,1.17,1.34,2.44,1.89,3.65,1.26,2.37,1.47,5.3,2.05,7.88.68,2.78-.47,5.59-1.22,8.2-.45,1.34-.64,2.56-1.19,3.93-.93,2.37-3.39,4.71-4.96,6.63-3.64,4.13-8.56,7.42-14.09,8.22-1.36.13-3.14.5-4.39-.29,0,0,.63.02.63.02-.06.04-.29.11-.35.15,0,0-.04.05.11-.11.11-.11.17-.48.1-.58.18.4.18.85.15,1.27-.04,1.76-.15,3.77-1.21,5.29-1.45,1.95-2.78,3.76-4.78,5.21-1.31.94-2.93,1.22-4.48,1.52-6.01,1.04-12.91.65-17.63-3.69,0,0,.46,0,.46,0-6.76,6.47-17.5,8.26-26.14,4.79C5.29,59.3-.81,53.06.09,45.73c.56-2.28,1.46-4.37,2.44-6.44.04-.1.2-.03.16.07h0Z"/>
          <path class="cls-1" d="M23.31,57.22c-1.96,2.57-4.06,5.83-2.84,9.07.6,1.45,2.12,2.64,3.76,2.72,5.39.25,9.54-4.54,9.2-9.71-.21-.55-.59-1.48-.92-1.95-.69-1.08-1.81-1.48-2.94-1.85-1.23-.32-2.54-.18-3.82.11-.05.01-.09-.02-.1-.06.66-.61,1.72-.87,2.64-1.09.92-.2,1.99-.03,2.88.21,2.17.45,3.39,2.37,4.06,4.4.14,1.06-.14,1.98-.24,2.95-.9,5.07-6.02,7.63-10.79,7.55-1.48.04-2.88-.5-4.03-1.43-3.63-3.33-.49-9.01,3.01-11.04.08-.05.17.06.11.13h0Z"/>
          <path class="cls-1" d="M29.02,77.58c-.54,1.57-1.6,3-.67,4.53.3.56,1.05,1.53,1.72,1.57.74-.17,1.57-1,2.16-1.54,1.06-1.14,2.15-2.34,1.04-3.71-.29-.38-.7-.77-1.16-1.01-1.01-.36-2.09-.1-3.11.17-.08.03-.15-.08-.09-.14.87-1.02,2.16-1.68,3.52-1.52,1.44.31,2.79,1.48,3.01,3.03.32,1.8-1.3,3.35-2.68,3.94-.99.41-1.59.95-2.63,1.33-.64.1-1.13-.19-1.59-.36-1.66-.54-2.65-2.68-1.72-4.24.52-.94,1.21-1.63,2.06-2.16.07-.05.16.03.13.11h0Z"/>
          <g>
            <g>
              <path class="cls-3" d="M26.49,109.13s17.97-2.96,27.35-1.06c9.38,1.9,16.73,4.75,20.79,4.71,4.06-.04,12.22,2.06,12.22,3.93,0,1.88.86,5.18.86,5.18,0,0,12.29,15.81,16.85,18.81,4.56,3,13.12,11.29,17.63,10.23,4.52-1.06,8.28-2.93,8.28-2.93,0,0,9.03,1.64,12.68,2.92,3.65,1.28,6.84,3.57,6.89,5.75l.05,2.18-10.3.13-.19-4.97s-4.21-.87-9.04,3.99-7.06,4.6-7.12,9.93c-.06,5.33,2.51,11.47,2.51,11.47l-12.18.13s-1.09-14.21,2.53-18.87c3.61-4.66,3.57-6.84,3.57-6.84,0,0-21.09-8.42-36.42-29.35l-19.89.77-.28,13.5-5.63-1.89,1.14-12.07-9.23-.98s-3.44,15.2-2.89,20.46c.55,5.26,1.92,7.85,1.92,7.85l-6.92-2.15s1.04-22.22,2.42-27.14c0,0-6.84-3.57-10.54-5.15-3.7-1.58-6.13-3.06-6.13-3.06l-.9-5.48Z"/>
              <path class="cls-3" d="M29.06,147.09s23.71,7.36,28.53,9.27c4.81,1.91,14.34,5.07,14.34,5.07l5.58,2.46-8.2,11.7-38.76-3.07-1.48-25.42Z"/>
              <path class="cls-3" d="M55.03,90.22c1.46-.69,12.34-2.93,23.73-.75,11.38,2.18,19.94,4.6,22.5,4.62,2.57.03,9.39.48,9.9,3.55.5,3.07-.16,4.53-.16,4.53,0,0,14.71,16.93,21.64,20.74,6.93,3.81,13.75,6.96,15.03,6.53,1.28-.44,7.75-3.08,7.75-3.08,0,0,10.13,3.74,11.52,3.96,1.39.22,6.13,3.04,5.46,8.55l-7.73-1.88-1.75-4.44s-11.1,4.3-13.37,6.92c-2.27,2.62-4.06,5.39-3.7,7.58.36,2.19.24,5.17.24,5.17l-8.16-4.09s-.43-3.98.38-7.26c.81-3.28,4.38-7.55,4.38-7.55,0,0-6.7-2.42-12.06-6.26-5.36-3.84-19.45-18.4-22.66-22.83l-18.22,1.42-.61,12.7-2.28-1.65-1.99-12.04-8.69-.82-1.54,8.93-5.69-.92,1.73-10s-7.59-2.38-9.27-3.01c-1.68-.62-7.73-4.58-7.73-4.58l1.36-4.05Z"/>
              <path class="cls-3" d="M70.18,124.54l-.29,5.38-6.04-1.67-.21,10.03s24.95,10.84,28.15,13.24c3.2,2.4,4.22,1.78,4.22,1.78l4.91-8.45-5.52-7.93-9.71-2.61-11.56-3.27.17-7.16-4.12.68Z"/>
              <path class="cls-3" d="M58.47,128.01c.05-.54-3.18-.63-3.18-.63l.33,10.22,2.01-.76.84-8.83Z"/>
            </g>
            <g>
              <path d="M96.81,138.86c-3.99-1.78-8.08-3.3-12.23-4.64s-8.31-2.5-12.52-3.58c-2.45-.63-4.91-1.23-7.38-1.82-.37-.09-.48,1.33,0,1.45,4.27,1.02,8.53,2.08,12.76,3.26s8.34,2.46,12.41,3.97c2.29.85,4.55,1.76,6.78,2.76.44.2.57-1.22.17-1.4h0Z"/>
              <path d="M140.91,159c-2.4-.27-4.8-.57-7.19-.89-.68-.09-1.36-.18-2.05-.27-.1-.01-.19.14-.23.21-.07.15-.1.35-.09.51s.02.36.09.51c.05.1.11.2.23.21,2.39.32,4.79.63,7.19.92.68.08,1.37.16,2.05.24.11.01.19-.14.23-.21.07-.15.1-.35.09-.51s-.02-.36-.09-.51c-.05-.1-.11-.2-.23-.21h0Z"/>
              <path d="M153.99,139.36c4.97.72,10,.87,14.98,1.47,2.52.31,5.03.73,7.48,1.39,1.28.34,2.54.75,3.78,1.23,1.02.4,2.07.86,3.01,1.44,1.68,1.04,2.95,2.91,2.79,4.93-.08.99-.43,1.97-1.04,2.76-.71.91-1.65,1.6-2.6,2.25-1.87,1.28-3.95,2.23-6.1,2.92s-4.43,1.06-6.68,1.46c-5.33.96-10.74.91-16.13.76-.68-.02-1.36-.04-2.04-.05-.44,0-.46,1.44,0,1.45,2.81.05,5.62.19,8.43.14s5.58-.2,8.34-.62c4.72-.71,9.49-1.63,13.61-4.18,1.01-.63,2.02-1.33,2.86-2.17.39-.39.76-.82,1.04-1.3.3-.5.48-1.03.65-1.59.67-2.18.3-4.8-1.18-6.58-.75-.9-1.63-1.55-2.67-2.07-1.1-.54-2.23-1.02-3.38-1.42-2.48-.86-5.05-1.44-7.64-1.85-5.16-.82-10.39-.95-15.58-1.57-.64-.08-1.27-.16-1.91-.25-.4-.06-.48,1.38,0,1.45h0Z"/>
              <path d="M87.72,119.73c3.74.98,7.49,1.98,11.15,3.25s6.86,2.82,10.13,4.55,6.45,3.73,9.81,5.32,6.82,2.73,10.38,3.58c4.18,1,8.44,1.59,12.72,1.98.42.04.47-1.4,0-1.45-7.5-.69-15.05-1.99-21.97-5.07-3.4-1.51-6.57-3.48-9.83-5.26s-6.59-3.41-10.07-4.7c-4.01-1.49-8.18-2.58-12.31-3.66-.36-.09-.48,1.32,0,1.45h0Z"/>
              <path d="M64.26,118.86c.33-.1.65-.21.98-.31l-.08.03c1.25-.38,2.52-.74,3.8-1.01.36-.08.72-.15,1.09-.21.12-.02.18-.11.23-.21.07-.15.1-.35.09-.51s-.02-.36-.09-.51c-.04-.08-.12-.23-.23-.21-1.56.27-3.1.68-4.62,1.14-.45.13-.89.27-1.34.41-.1.03-.17.26-.19.33-.05.17-.06.38-.03.56.02.14.05.32.15.43l.08.07c.06.03.11.03.17,0h0Z"/>
              <path d="M59.76,127.35c-.63-.26-1.24-.59-1.78-1.01-.15-.12-.3-.25-.44-.38l.08.07c-.33-.32-.62-.67-.84-1.07l.06.11c-.14-.24-.25-.5-.34-.77l.05.15c-.07-.2-.12-.41-.16-.62-.01-.07-.04-.14-.08-.2-.02-.05-.06-.1-.11-.13-.09-.05-.19,0-.25.07-.09.12-.13.28-.15.43v.19c-.01.12,0,.25.03.37.15.81.5,1.59,1.02,2.23.46.57,1.04,1.05,1.66,1.42.35.2.71.38,1.08.53.04.03.08.03.13.01.05,0,.09-.04.12-.09.04-.06.07-.12.09-.19.03-.08.05-.16.06-.25.02-.18.02-.38-.03-.56l-.05-.15c-.03-.08-.08-.14-.14-.19h0Z"/>
              <path d="M95.98,154.38c1.33-1.02,1.48-2.92,1.51-4.46.01-.74,0-1.47.02-2.21.04-1.1.06-2.21.04-3.32-.02-1.3-.09-2.59-.22-3.88-.02-.16-.13-.65-.39-.51s-.25.65-.22.89c.06.53.1,1.06.13,1.59.01.21,0-.15,0,.06,0,.06,0,.13.01.19,0,.13.01.25.02.38.01.28.02.55.03.83.03,1.06.02,2.13-.02,3.19-.02.75-.03,1.51-.03,2.26,0,.37-.02.73-.03,1.1,0-.25,0,.06-.01.11,0,.09-.02.17-.03.26s-.02.17-.03.26c0,.04-.01.09-.02.13,0,.03,0,.06-.01.08.02-.1.02-.12,0-.05-.04.19-.09.38-.14.57-.04.14.05-.12,0,0-.02.05-.04.1-.06.15-.04.09-.07.17-.12.25,0,.02-.08.13-.01.03-.03.05-.05.09-.08.13-.05.08-.1.15-.16.22s-.12.14-.18.2c.06-.06-.04.03-.04.03-.04.03-.08.07-.12.1-.24.19-.26.61-.22.89.02.12.15.69.39.51h0Z"/>
              <path d="M56.15,125.52c.15,3.33.45,6.66.85,9.98.11.92.23,1.85.36,2.77.02.16.13.65.39.51s.25-.66.22-.89c-.45-3.23-.81-6.47-1.04-9.73-.02-.23-.03-.45-.05-.68,0-.11-.01-.23-.02-.34,0-.04,0-.08,0-.12,0-.04,0-.08,0-.12,0,.08,0,.09,0,.04-.03-.47-.05-.93-.07-1.4,0-.17-.02-.35-.09-.51-.04-.08-.11-.21-.23-.21-.27,0-.33.56-.32.72h0Z"/>
              <path d="M96.75,153.22s0-.07,0-.11c0-.06.02-.19,0,.05,0-.03,0-.06,0-.09,0-.02,0-.04,0-.06.01-.09-.02.08-.02.08-.02-.03.04-.17.05-.21.03-.1-.05.13-.01.03.02-.04.03-.08.05-.11.03-.07.06-.13.09-.19.01-.03.03-.05.04-.08,0,0-.06.1-.02.03.01-.02.02-.04.03-.05.08-.13.16-.25.25-.37.39-.52.82-1.02,1.24-1.51.91-1.07,1.84-2.13,2.75-3.2.51-.6,1-1.21,1.49-1.83.09-.11.13-.29.15-.43.02-.17.02-.39-.03-.56-.03-.11-.08-.28-.19-.33-.1-.05-.18-.01-.25.07-.88,1.12-1.8,2.21-2.73,3.28-.48.56-.96,1.11-1.44,1.67-.44.51-.88,1.02-1.29,1.56-.51.68-.87,1.49-.82,2.36,0,.17.02.35.09.51.03.07.12.22.23.21.27-.03.33-.53.32-.72h0Z"/>
              <path d="M138.63,149.41c.13-3.23.7-6.57,2.32-9.41s4.3-4.94,6.99-6.77,5.73-3.64,9.14-3.59c3.59.06,6.96,1.58,10.14,3.09,1.61.76,3.35,1.49,4.62,2.78,1.05,1.07,1.9,2.7,1.24,4.17-.13.3-.14.72,0,1.02.12.26.33.26.45,0,.73-1.63.49-3.58-.37-5.11s-2.24-2.5-3.73-3.27c-1.61-.84-3.27-1.61-4.95-2.31s-3.53-1.34-5.38-1.64-3.58-.23-5.34.31-3.26,1.37-4.75,2.32c-2.9,1.86-5.84,3.96-7.81,6.84-2.31,3.38-3.05,7.54-3.2,11.55,0,.19.04.71.32.72s.31-.56.32-.72h0Z"/>
              <path d="M139.48,159.05s0-.03-.01-.04l.05.15c-.15-.43-.26-.87-.36-1.31-.05-.21-.09-.42-.13-.63l.03.17c-.1-.53-.17-1.07-.2-1.62v.19c-.01-.37-.01-.75,0-1.12,0-.16-.03-.37-.09-.51-.03-.07-.12-.22-.23-.21-.11.01-.18.12-.23.21-.07.16-.08.34-.09.51-.05.93.03,1.88.19,2.8.12.66.26,1.32.46,1.97.05.15.1.31.15.46.03.08.12.21.23.21s.19-.13.23-.21c.14-.32.12-.7,0-1.02h0Z"/>
              <path d="M170.42,132.9c-1.63-1.47-3.95-1.26-5.93-.79-1.19.28-2.32.82-3.42,1.35-1.22.59-2.44,1.22-3.58,1.96-2.27,1.49-4.57,2.95-6.79,4.52-1.92,1.36-3.04,3.63-3.52,5.89-.66,3.09-.03,6.15.85,9.13.06.2.23.5.44.26.2-.23.19-.72.11-.99-.7-2.37-1.35-4.87-.91-7.35.18-1,.5-1.98.96-2.89s1.18-1.9,2.06-2.52c2.09-1.48,4.25-2.87,6.4-4.27s4.41-2.62,6.8-3.47c.51-.18,1.07-.28,1.6-.37s1.1-.16,1.66-.15c1.15,0,2.23.32,3.1,1.1.23.21.38-.39.39-.51.04-.3.01-.68-.22-.89h0Z"/>
              <path d="M163.24,134.65c.08.12.16.23.25.34.08.09.15.19.24.28.16.15.32.31.48.46.28.28.57.55.84.84.24.26.47.54.65.85,0,.02.02.03.03.05.03.05-.05-.08-.02-.04,0,.01.01.02.02.03.02.04.04.08.06.11.04.08.08.17.11.25.02.04.03.08.05.12,0,.02.01.04.02.06,0,0,0,.02,0,.03.02.07-.04-.12-.02-.06.03.09.06.19.08.28.01.05.02.1.04.16,0,.03.01.05.02.08-.04-.19-.02-.13-.02-.08,0,.02,0,.03,0,.05.02.1.03.2.05.3,0,.01-.03-.16-.02-.09,0,.02,0,.03,0,.05,0,.03,0,.06.01.08.02.12.03.25.04.37,0,.03,0,.06,0,.09,0,.07,0-.09,0-.08,0,.02,0,.04,0,.06,0,.07,0,.15,0,.22,0,.11.01.25.06.35.03.06.06.12.12.14.16.05.23-.25.24-.35.02-.28.03-.56.02-.84,0-.16-.02-.31-.03-.47-.02-.14-.05-.29-.08-.43-.1-.43-.26-.83-.48-1.21-.38-.66-.94-1.19-1.53-1.66-.18-.15-.37-.29-.55-.44-.05-.04-.1-.08-.15-.12-.05-.03-.1-.05-.14-.08-.11-.06-.21-.12-.33-.17-.09-.04-.13.09-.14.15-.02.11-.02.24.05.33h0Z"/>
              <path d="M76.9,103.53c1.88.56,3.78,1.01,5.72,1.28s3.86.37,5.8.4,3.97.01,5.96.05c.97.02,1.94.05,2.91.11.84.05,1.68.17,2.52.21,2.88.13,5.74-.49,8.6-.69,1.45-.1,2.81-.62,4.04-1.39.28-.17.56-.35.81-.57.27-.23.25-.62.24-.95-.04-.97-.11-1.95-.27-2.91-.1-.56-.21-1.14-.44-1.67-.18-.41-.44-.69-.79-.96-.8-.62-1.77-1.01-2.73-1.32-1.44-.47-2.93-.79-4.42-1.07-1.87-.35-3.74-.61-5.63-.79s-3.9-.34-5.82-.67-3.72-.87-5.52-1.53-3.54-1.36-5.36-1.91c-7.1-2.17-14.69-2.7-22.02-1.47-.46.08-.91.16-1.36.25s-.88.27-1.31.44c-.28.11-.28,1.19.07,1.17.26-.01.53-.02.79-.04.31-.02.61-.09.91-.15.55-.1,1.1-.19,1.65-.27,1.14-.17,2.29-.3,3.43-.39,2.26-.17,4.52-.19,6.78-.04,4.56.29,9.06,1.23,13.35,2.79,2.19.8,4.34,1.71,6.6,2.27s4.68.77,7.04.98,4.6.49,6.89.93c1.66.32,3.35.68,4.91,1.34.53.23,1.06.5,1.52.85.19.14.34.26.46.42.02.02.03.05.05.07-.01-.02-.04-.08,0,0,.03.05.05.1.07.16.02.06.05.12.07.17-.03-.09.03.09.04.13.04.14.08.28.11.42.05.22.05.21.08.42.05.32.1.65.13.98.03.31.06.61.08.92,0,.06,0,.12.01.18,0-.14,0-.05,0,.03,0,.1,0,.19.01.29,0,.08,0,.17,0,.25l.23-.68c-1.22,1.01-2.84,1.79-4.42,1.95-2.13.21-4.25.53-6.39.72-.99.09-1.99.16-2.99.08-1.41-.11-2.81-.19-4.22-.2-2.9-.03-5.79.09-8.69,0-1.61-.05-3.22-.17-4.82-.43s-3.16-.65-4.7-1.1c-.22-.07-.31.85,0,.94h0Z"/>
              <path d="M57.85,88.58c-.62.1-1.25.31-1.52.93-.23.51-.19,1.1-.15,1.65.01.21.02.48,0,.75-.02.42-.04.84-.02,1.25.03.66.13,1.34.41,1.95.25.55.64,1,1.09,1.4.7.63,1.63.89,2.5,1.2,2,.71,4.01,1.42,6.01,2.12,1.12.39,2.24.78,3.35,1.19.56.2,1.12.4,1.67.61.45.16.86.42,1.31.58.3.11.37-.8.11-.89-.35-.12-.66-.32-1.01-.45-.48-.17-.96-.33-1.44-.49-.94-.32-1.88-.64-2.82-.97-1.9-.67-3.81-1.34-5.71-2.01-.9-.31-1.81-.59-2.69-.95-.67-.28-1.26-.69-1.72-1.26-.81-.99-.74-2.22-.7-3.43,0-.29-.02-.58-.04-.87-.01-.21-.03-.46,0-.67,0,0,.02-.09.04-.14,0,0,.04-.09.05-.12.06-.1.13-.19.22-.27.29-.27.67-.42,1.05-.52.18-.05.17-.62,0-.59h0Z"/>
              <path d="M56.79,90.08c.87,1.38,2.29,2.17,3.81,2.65,1.73.54,3.54.78,5.3,1.21,4.06.98,8.02,2.31,12,3.54,3.71,1.14,7.44,2.19,11.25,2.93,3.45.67,6.98,1.17,10.5,1.12,3.33-.05,6.82-.58,9.8-2.16.39-.21.72-.48,1.04-.79.19-.18.31-1.22-.13-1.09-.77.24-1.45.62-2.19.93s-1.53.59-2.32.8c-1.64.44-3.32.67-5.01.76-3.48.19-6.97-.18-10.39-.77-3.67-.63-7.31-1.43-10.89-2.47-3.94-1.14-7.84-2.43-11.83-3.42-1.9-.47-3.81-.86-5.74-1.18-1.51-.25-3.09-.64-4.28-1.66-.3-.26-.56-.56-.79-.89-.08-.11-.16.04-.18.11-.04.12-.02.29.05.4h0Z"/>
              <path d="M62.99,93.03c5.32-.09,10.66.42,15.92,1.14,5.61.77,11.17,1.83,16.7,3.07,2.85.64,5.69,1.32,8.52,2.05.21.05.28-.76,0-.84-5.18-1.34-10.41-2.52-15.67-3.52-5.54-1.05-11.14-1.9-16.77-2.3-2.9-.21-5.8-.28-8.71-.12-.16,0-.16.52,0,.52h0Z"/>
              <path d="M84.64,94.82c.03.08.05.17.08.25.03.12.07.23.11.35,0,.03.02.05.03.08,0,.01.01.03.02.04,0,0,0,.01,0,.02.01.04,0-.01,0-.02.02.06.04.13.06.19.23.69.45,1.37.62,2.07.06.23.11.46.16.69.02.11.05.23.07.35,0,.04-.01-.07,0-.03,0,.02,0,.03,0,.05,0,.03.01.06.02.09.01.06.02.12.03.18.01.07.03.15.07.21.03.03.07.06.12.04.05-.03.08-.1.09-.16.02-.09.03-.18.02-.27-.14-.84-.34-1.66-.59-2.47-.11-.34-.22-.68-.34-1.02-.08-.22-.16-.44-.27-.66-.04-.09-.09-.18-.13-.27-.03-.07-.09-.09-.13-.02-.05.08-.06.21-.03.3h0Z"/>
              <path d="M89.36,95.81c.13.67.25,1.34.4,2.01.1.44.2.87.29,1.31s.19.89.28,1.34c.02.08.11.22.19.11.09-.12.08-.29.05-.43-.13-.66-.26-1.33-.41-1.99-.1-.43-.21-.86-.31-1.29s-.19-.88-.28-1.33c-.01-.07-.09-.19-.16-.09-.07.1-.06.24-.04.36h0Z"/>
              <path d="M86.29,104.55c-.13,3.04-.13,6.09-.2,9.13-.02.85-.05,1.71-.08,2.56,0,.16.03.37.09.51.04.08.11.21.23.21.28,0,.31-.55.32-.72.13-3.04.13-6.09.2-9.13.02-.85.05-1.71.08-2.56,0-.16-.03-.37-.09-.51-.04-.08-.11-.21-.23-.21-.28,0-.31.55-.32.72h0Z"/>
              <path d="M90.78,104.8c-.16,1.74-.25,3.5-.35,5.25-.14,2.4-.28,4.8-.33,7.21,0,.46-.02.93,0,1.39,0,.3,0,.61.05.91.01.09.06.3.19.24.12-.05.12-.33.11-.43s-.02-.2-.03-.29c0-.03,0,.1,0,0,0-.03,0-.07,0-.1,0-.08,0-.15,0-.23,0-.39,0-.77,0-1.16.02-1.09.06-2.18.1-3.27.1-2.38.23-4.77.37-7.11.05-.74.09-1.49.15-2.23,0-.09.02-.31-.09-.36s-.15.13-.16.21h0Z"/>
              <path d="M113.13,102.52c.98,1.11,2.03,2.16,3.02,3.26,1.05,1.16,2.09,2.31,3.13,3.48,2.17,2.44,4.32,4.9,6.53,7.31s4.48,4.76,6.91,6.94c2.28,2.04,4.7,3.97,7.36,5.51,1.24.72,2.53,1.36,3.85,1.89,1.24.5,2.61,1.02,3.95,1.14.33.03.67.06,1,.07.24.01.23-.72,0-.77-.67-.15-1.33-.35-2-.51s-1.33-.36-1.98-.59c-1.34-.47-2.64-1.07-3.88-1.77-2.64-1.49-5.08-3.32-7.37-5.3-2.43-2.11-4.72-4.38-6.93-6.72s-4.39-4.8-6.56-7.22c-2.02-2.25-4.05-4.49-6.21-6.61-.24-.23-.48-.46-.73-.67-.15-.12-.2.46-.11.57h0Z"/>
              <path d="M108.68,104.45c1.17,1.3,2.33,2.63,3.44,3.99,1.01,1.24,1.97,2.52,2.94,3.79,1.9,2.49,3.82,4.98,6.07,7.17,1.2,1.17,2.5,2.22,3.8,3.28s2.55,2.08,3.84,3.11c2.55,2.04,5.14,4.04,7.9,5.8s5.53,3.14,8.67,3.47c.39.04.43-1.28,0-1.35-2.71-.38-5.28-1.63-7.64-2.97-2.79-1.59-5.39-3.5-7.93-5.48-1.29-1-2.56-2.02-3.83-3.04s-2.59-2.03-3.81-3.13c-2.34-2.11-4.35-4.55-6.28-7.04-2.2-2.82-4.37-5.73-7.08-8.07-.12-.1-.17.39-.09.48h0Z"/>
              <path d="M153.38,163.88c5.37.36,10.76,1.28,16.16.75,4.4-.43,8.79-1.91,11.82-5.26,1.82-2.01,3.05-4.45,4.54-6.7.18-.28.2-.68.11-.99-.04-.17-.25-.54-.44-.26-1.3,1.97-2.41,4.08-3.89,5.94s-3.2,3.13-5.25,4.08c-4.3,1.99-9.22,2.08-13.86,1.78-3.07-.2-6.13-.58-9.2-.79-.43-.03-.47,1.42,0,1.45h0Z"/>
              <path d="M149.71,135.53c-.19-.16-.38-.39-.49-.58-.03-.05-.06-.11-.08-.17-.01-.03-.03-.07-.04-.1,0,0-.02-.04,0-.02.01.03-.01-.04-.01-.04,0-.03-.02-.06-.02-.09,0-.02,0-.04-.01-.06-.01-.05,0,.05,0,0,0-.03-.01-.07-.01-.1,0-.03,0-.13,0-.05,0-.08,0-.16,0-.24,0-.06,0,.06,0,0,0-.02,0-.03,0-.05,0-.05.01-.1.02-.15.02-.1.06-.27.11-.38.11-.25.29-.5.51-.7.54-.48,1.22-.72,1.94-.81.75-.09,1.56-.1,2.29.13.68.22,1.24.67,1.77,1.15.26.24.52.48.79.71.25.21.55.39.74.63.04.05.02.02,0,0,.01.02.02.04.03.06,0,0,.02.06,0,.01-.02-.06.01.07,0-.01s0,.07,0-.02c0-.07,0-.01,0,0,0-.12,0-.05,0-.03-.01.08.02-.05,0,0,0,.02-.04.12-.01.05-.02.04-.03.08-.05.12,0,0-.03.05-.01.02.02-.03-.02.03-.02.03-.03.04-.06.09-.1.13-.23.27-.55.46-.84.65-.61.41-1.26.82-1.98.97-.36.08-.75.09-1.12,0s-.7-.24-1.05-.36c-.32-.11-.64-.22-.96-.34-.17-.07-.32-.11-.49-.17-.16-.06-.31-.13-.47-.19-.13-.05-.3-.02-.44-.04-.09-.01-.12.16-.12.22-.01.11,0,.24.06.33.12.18.24.41.43.52.16.1.32.19.49.27.35.17.72.26,1.09.36.75.2,1.54.49,2.33.39s1.54-.52,2.21-.96c.34-.22.68-.44.97-.72.34-.34.52-.81.51-1.28,0-.28-.06-.56-.21-.8-.1-.16-.25-.29-.4-.41-.3-.23-.59-.47-.87-.72-.55-.5-1.1-1.03-1.78-1.35-.77-.35-1.64-.4-2.47-.33-.78.06-1.63.25-2.23.78-.29.26-.53.55-.7.9-.19.39-.27.82-.3,1.25-.04.67.13,1.38.62,1.86.1.1.21.19.32.27.1.07.15-.15.16-.21.01-.12,0-.28-.09-.36Z"/>
              <path d="M74.63,101.02c-.11-.09-.26-.11-.39-.15h.04c-.09-.02-.18-.05-.25-.12l.04.04s-.04-.04-.05-.06c0,0-.01-.02-.02-.03-.03-.04.01.01.01.02,0-.02-.03-.05-.03-.07,0-.01-.01-.03-.02-.04-.02-.06.02.08,0,.02-.03-.09-.05-.18-.07-.28-.01-.04-.02-.08-.03-.12,0-.02-.01-.05-.02-.07,0,0,0-.02,0-.03,0,0,0-.01,0-.02,0-.03,0,0,.01.07-.02-.09-.03-.18-.04-.28,0-.05,0-.09-.01-.14,0-.05,0,.14,0,.07,0-.01,0-.02,0-.03,0-.03,0-.05,0-.08,0-.05,0-.09,0-.14,0-.02,0-.04,0-.07,0-.01,0-.02,0-.04v.09s0-.02,0-.03c0-.09.02-.18.03-.27,0-.01,0-.02,0-.04h0s0-.03-.01.06c0-.02,0-.04.01-.06.01-.05.02-.09.03-.14s.03-.09.04-.14c.02-.06-.03.09-.02.05,0-.01,0-.03.01-.04,0-.02.02-.05.03-.07.04-.09.08-.18.13-.27l-.04.07c.1-.17.21-.32.35-.45l-.05.05c.22-.21.48-.36.76-.44l-.06.02c.38-.11.79-.12,1.17,0l-.06-.02c.31.1.58.27.82.49l-.05-.05c.18.17.32.36.44.58l-.04-.07c.07.13.13.26.18.39,0,.02.01.03.02.05,0,0,0,.01,0,.02.01.04-.03-.1-.02-.05.01.03.02.07.03.1.02.07.04.14.05.22,0,.02.02.09,0,0s0-.02,0,0c0,.04.01.08.02.11,0,.04,0,.07.01.11,0,.02,0,.1,0,0s0-.02,0,0c0,.04,0,.07,0,.11,0,.02,0,.04,0,.06,0,0,0,.02,0,.02,0,.07,0-.12,0-.07,0,.04,0,.07-.01.11,0,.02,0,.03,0,.05,0,.02-.02.11,0,.01s0,0,0,.01,0,.04-.01.06-.01.04-.02.06c0,.01,0,.02,0,.03-.01.04.03-.09.02-.05-.03.08-.06.16-.1.23l.04-.07c-.06.1-.13.19-.21.28l.05-.05c-.14.13-.31.23-.5.29l.06-.02c-.48.14-1,.07-1.49,0-.14-.02-.28-.05-.41-.09l.06.02s-.1-.03-.15-.05c-.06-.02-.12-.03-.18-.05l.05.02c-.12-.04-.23-.1-.33-.18l.04.04s-.06-.07-.09-.1-.08-.06-.12-.04-.06.08-.08.13c-.02.07-.03.14-.03.21,0,.08,0,.17.05.25.13.25.31.45.54.61.1.07.24.1.36.13.11.03.22.05.33.07.45.07.93.14,1.39.03.23-.06.45-.15.63-.32.1-.1.19-.2.27-.32.09-.15.16-.31.21-.48.09-.3.12-.63.11-.95s-.06-.62-.15-.92-.2-.55-.36-.81c-.13-.22-.29-.41-.48-.58-.35-.33-.8-.53-1.28-.57s-.97.09-1.35.37c-.43.31-.71.78-.87,1.28-.17.54-.2,1.14-.13,1.7.02.15.05.3.08.45.01.05.02.11.04.16.01.05.06.18.01.04.01.04.03.08.04.12,0,.03.02.05.03.08.05.13.1.27.19.37.1.11.22.16.36.18.11.01.22,0,.33.04h-.04s.04,0,.07.01c.12.06.16-.14.17-.22.01-.12.01-.31-.1-.39h0Z"/>
              <path d="M69.59,124.23c.02,1.8.09,3.6.22,5.39.04.5.08.99.12,1.48.01.13.06.32.15.43.06.07.15.13.25.07.11-.07.16-.21.19-.33.04-.18.05-.37.03-.56-.04-.43-.08-.86-.11-1.29-.02-.22-.03-.44-.05-.66,0-.1-.01-.2-.02-.3,0-.06,0-.11-.01-.17.02.27,0,.04,0-.02-.05-.87-.08-1.73-.11-2.6-.01-.49-.02-.97-.03-1.46,0-.17-.02-.36-.09-.51-.03-.07-.12-.22-.23-.21-.11.01-.18.12-.23.21-.07.16-.09.34-.09.51h0Z"/>
              <path d="M69.73,116.92c-.02.56-.04,1.11-.06,1.67,0,.16,0,.31-.01.47,0,.09,0,.19.03.28.01.08.03.16.07.23.02.06.05.11.1.15.03.04.07.06.12.06l.08-.03c.06-.05.11-.11.14-.19.07-.16.09-.34.09-.51.02-.56.04-1.11.06-1.67,0-.16.01-.31.02-.47,0-.09,0-.19-.03-.28-.01-.08-.03-.16-.07-.23-.02-.06-.05-.11-.1-.15-.03-.04-.07-.06-.12-.06l-.08.03c-.06.05-.11.11-.14.19l-.05.15c-.03.12-.04.24-.04.37h0Z"/>
              <path d="M73.71,97.82c-.82,1.59-1.32,3.32-1.66,5.07-.05.25-.1.5-.14.74-.02.1-.04.2-.05.3-.01.06-.02.12-.03.18,0,.02-.04.2-.01.08-.09.47-.2.93-.31,1.39-.24.96-.49,1.91-.67,2.88-.2,1.07-.33,2.16-.47,3.24-.03.25-.03.75.22.89s.37-.36.39-.51c.13-.95.26-1.91.41-2.86.02-.11.04-.21.05-.32.04-.21-.03.13.02-.08.01-.05.02-.11.03-.16.05-.23.1-.46.15-.7.11-.45.22-.9.33-1.35s.22-.88.31-1.32c.06-.27.11-.54.16-.81.02-.1.04-.2.05-.31,0-.04.01-.08.02-.12.01-.08.01-.08,0,0,0-.04.02-.08.02-.12.16-.83.34-1.66.58-2.48.03-.11.07-.23.1-.34.01-.05.03-.09.05-.14,0-.03.06-.18.05-.15-.03.07.04-.11.03-.1.02-.07.05-.13.07-.2.04-.11.08-.22.13-.34.18-.46.39-.92.62-1.36.15-.29.13-.73,0-1.02-.04-.09-.11-.21-.23-.21s-.18.13-.23.21h0Z"/>
              <path d="M74.33,125.11c.05,1.04.23,2.06.44,3.08.1.46.2.91.3,1.37.05.22.09.45.13.67.02.13-.03-.17,0-.04,0,.02,0,.04.01.06.01.06.02.12.03.18.02.12.04.23.06.35.04.26.07.51.09.77,0,.06.01.13.02.19,0,.03,0,.05,0,.08,0,.02,0,.04,0,.06,0-.13,0-.17,0-.11,0,.14.01.27.01.41,0,.17.02.36.09.51.03.07.12.22.23.21.11-.01.18-.12.23-.21.07-.16.1-.34.09-.51-.01-1.04-.17-2.06-.38-3.07-.09-.46-.2-.91-.29-1.37-.05-.22-.1-.45-.14-.67-.02-.11-.04-.22-.07-.34v-.02c-.02-.07-.01-.04.01.08,0-.03,0-.05-.01-.08-.01-.06-.02-.13-.03-.19-.04-.26-.08-.52-.11-.78-.02-.13-.03-.26-.04-.39,0-.07-.01-.13-.02-.2,0-.03,0-.05,0-.08,0,.14,0,.17,0,.09,0-.02,0-.04,0-.07,0-.17-.02-.35-.09-.51-.03-.07-.12-.22-.23-.21-.11.01-.18.12-.23.21-.07.16-.1.34-.09.51h0Z"/>
              <path d="M74.69,117.14c-.05.72-.11,1.45-.17,2.17-.02.2-.03.41-.05.61-.01.19-.02.37.03.56.01.07.04.14.08.2.02.05.06.1.11.13l.08.03c.07,0,.12-.04.16-.1l.06-.11c.04-.1.07-.21.08-.32.05-.72.11-1.45.17-2.17.02-.2.03-.41.04-.61.01-.19.02-.37-.03-.56-.01-.07-.04-.14-.08-.2-.02-.05-.06-.1-.11-.13l-.08-.03c-.07,0-.12.04-.16.1l-.06.11c-.04.1-.07.21-.08.32h0Z"/>
              <path d="M77.44,99.95c-.01.1-.03.2-.04.3,0,.04-.01.09-.02.13.03-.15,0-.03,0,.01-.04.19-.08.38-.13.56-.05.17-.1.35-.15.52-.03.08-.05.16-.08.24-.04.11,0,.02,0,0-.02.07-.04.13-.07.2-.26.75-.55,1.48-.78,2.24-.13.43-.2.89-.28,1.34s-.14.86-.2,1.29c-.11.82-.2,1.65-.29,2.47-.09.94-.18,1.89-.28,2.83-.02.18-.02.38.03.56.03.1.09.27.19.33.26.15.38-.36.39-.51.18-1.67.31-3.35.53-5.01.05-.41.11-.82.18-1.23.02-.11.04-.22.06-.32,0-.05.02-.1.03-.15.03-.19-.02.08,0-.03.04-.22.08-.45.14-.67.05-.18.11-.37.17-.55.01-.04.02-.07.04-.11-.04.12.02-.05.02-.06.04-.1.07-.21.11-.31.12-.35.25-.69.38-1.04.31-.87.56-1.74.68-2.66.02-.18.01-.38-.03-.56-.03-.1-.09-.27-.19-.33-.26-.15-.37.36-.39.51h0Z"/>
              <path d="M130.5,160.79c6.23.47,12.49,1.02,18.61,2.33,2.88.61,5.7,1.43,8.49,2.39,1.1.38,2.2.8,3.21,1.39.5.3.99.64,1.41,1.04.17.17.33.35.48.53.09.12.18.23.26.36.03.05.07.1.1.15.03.04.05.09.08.13-.04-.07-.04-.08-.02-.03.1.19.19.38.26.58.02.05.04.11.06.16.05.13-.06-.21,0,0,.03.11.07.22.09.34.02.06.09.43.04.17.02.12.04.24.05.36,0,.05.01.1.02.14,0,.02.03.26,0,.08s0,.07,0,.09c0,.07,0,.15,0,.22,0,.13,0,.25,0,.38,0,.2,0-.03,0-.05.01.05-.01.13-.02.19-.01.11-.02.22-.04.34-.01.07-.02.15-.04.22.03-.16,0-.05-.01.05-.05.22-.11.43-.17.64.06-.18-.06.15-.08.2-.05.13-.11.27-.18.39-.02.04-.13.25-.08.15-.06.1-.12.2-.19.3-.13.19-.27.37-.43.53-.26.27-.66.54-1.04.7-1.29.55-2.52,1.18-3.74,1.86s-2.37,1.34-3.62,1.88c-1.39.6-2.85.96-4.33,1.27-3.09.65-6.25.99-9.4,1.13s-6.51.1-9.76-.04-6.51-.41-9.76-.63-6.32-.3-9.48-.54-6.1-.63-9-1.59c-5.44-1.8-9.92-5.51-14.42-8.92-2.31-1.74-4.71-3.31-7.14-4.87s-5-2.88-7.59-4.12c-5.2-2.49-10.61-4.52-16.1-6.26s-11.09-3.22-16.69-4.6c-1.36-.33-2.72-.66-4.08-.99-.16-.04-.32.25-.37.35-.11.24-.16.57-.15.84,0,.39.06,1.07.52,1.18,5.7,1.36,11.4,2.77,17.03,4.42s11.07,3.53,16.4,5.86c2.68,1.17,5.31,2.45,7.88,3.86s5.1,2.91,7.51,4.6c4.67,3.26,9.05,7.05,14.26,9.46,2.78,1.28,5.75,2.02,8.77,2.41s6.3.48,9.45.65c6.59.36,13.17,1.04,19.78,1.03,3.22,0,6.46-.22,9.64-.71,1.6-.25,3.2-.57,4.77-.98,1.39-.36,2.71-.9,3.98-1.56s2.47-1.37,3.72-2.02c.63-.32,1.26-.63,1.92-.9.45-.18.86-.39,1.22-.72,1.68-1.52,2.11-4.05,1.95-6.21-.08-1.1-.33-2.19-.89-3.15-.59-1.02-1.51-1.84-2.51-2.44s-2.15-1.05-3.28-1.43c-1.33-.46-2.68-.9-4.03-1.29-6.09-1.76-12.4-2.56-18.7-3.07-1.54-.12-3.07-.23-4.61-.34-.39-.03-.46.8-.46,1.05,0,.29.05,1.01.46,1.05h0Z"/>
              <path d="M47.88,137.09c2.5.2,4.94.81,7.37,1.42s4.66,1.16,6.98,1.77c4.67,1.24,9.31,2.63,13.78,4.45s8.62,4.2,12.85,6.49c2.1,1.14,4.23,2.24,6.42,3.19s4.47,1.78,6.78,2.46c4.58,1.37,9.3,2.18,14.04,2.73.58.07,1.15.13,1.73.19.39.04.46-.8.46-1.03,0-.29-.05-.99-.46-1.03-4.72-.47-9.43-1.14-14.04-2.29-2.34-.59-4.65-1.3-6.89-2.18s-4.38-1.93-6.5-3.04c-4.24-2.22-8.38-4.63-12.8-6.48s-9.01-3.26-13.63-4.49c-2.32-.62-4.65-1.19-6.98-1.74s-4.85-1.22-7.32-1.56c-.6-.08-1.21-.15-1.82-.19-.4-.03-.43,1.31,0,1.35h0Z"/>
              <path d="M36.29,149.79c-1.8-.42-3.65-.92-5.16-2.03-.36-.27-.68-.58-1.04-.86-.31-.24-.63-.47-.94-.7-.27-.2-.46-.36-.65-.63-.02-.03-.04-.06-.06-.09-.07-.1.03.08-.01-.03-.02-.04-.09-.25-.05-.11-.01-.04-.02-.07-.03-.11-.04-.13.01.14,0,0,0,0-.01-.13-.01-.13,0,.1,0,.12,0,.04,0-.03,0-.06,0-.09,0-.04-.01-.19,0-.02,0-.05,0-.11.02-.16,0-.05.02-.11.02-.16.03-.18-.03.11.01-.05.02-.1.04-.19.07-.29.01-.05.03-.09.04-.14,0-.03.02-.06.03-.09q-.02.06,0,0c.07-.18.14-.35.22-.52.1-.21.13-.27.26-.46.42-.64.96-1.16,1.58-1.61,1.33-.97,2.9-1.58,4.45-2.08,2.5-.81,5.01-1.62,7.6-2.07.26-.05.3-.47.3-.67,0-.13-.05-.72-.3-.67-2.43.42-4.79,1.16-7.14,1.91-1.69.54-3.4,1.12-4.87,2.13-.69.47-1.33,1.05-1.81,1.73-.55.77-.88,1.66-1.01,2.6s0,1.87.67,2.53c.57.55,1.29.9,1.9,1.4.73.6,1.59.97,2.49,1.25s1.85.51,2.79.69c.22.04.44.08.65.12.17.03.19-.56,0-.61h0Z"/>
              <path d="M28.29,146.02c-.04,1.89.13,3.77.3,5.65.21,2.38.49,4.75.76,7.13s.52,4.63.74,6.95c.09.96.17,1.93.23,2.89,0,.05.02.27,0,.02,0,.04,0,.08,0,.12,0,.1.01.2.02.3.01.21.02.41.03.62.02.66-.01,1.4.36,1.98.19.3.48.42.82.48.44.08.89.12,1.33.18.86.11,1.73.22,2.59.34,1.73.22,3.46.45,5.19.67,3.44.45,6.88.89,10.32,1.34s6.88.89,10.32,1.34c1.73.23,3.46.46,5.19.7,1.21.17,2.67.37,3.65-.55.92-.86,1.09-2.3,1.2-3.5.1-1.07.13-2.15.15-3.22.03-2.24,0-4.49-.14-6.73-.02-.25-.05-.5-.11-.74-.02-.07-.03-.15-.05-.22,0-.03-.01-.07-.02-.1v-.04c-.08-.23-.08-.2,0,.1-.02-.18-.13-.63-.39-.51s-.24.68-.22.89v.05c.01-.19.03-.37.04-.56-.03.17-.05.34-.06.51-.01.24.01-.16,0,.08-.02.27-.03.54-.02.81.02.46.04.92.06,1.38.04,1.11.06,2.23.07,3.34s0,2.16-.05,3.24c0,.12-.01.24-.02.36,0,.07-.03.45,0,.16-.02.23-.03.47-.05.7-.03.36-.08.8-.14,1.07-.13.58-.33,1.09-.87,1.4s-1.16.34-1.75.31c-.71-.03-1.42-.14-2.13-.23-.84-.1-1.69-.2-2.53-.31-3.36-.43-6.71-.87-10.07-1.3-6.69-.86-13.39-1.73-20.08-2.59-.39-.05-.78-.1-1.17-.15-.16-.02-.35-.02-.5-.1-.1-.06-.06-.04-.11-.08.05.04-.03-.13,0-.02-.03-.16,0-.08,0-.03,0-.06,0-.13,0-.19,0-.09,0-.18,0-.26,0-.19-.02-.37-.03-.56-.05-.95-.13-1.89-.22-2.84-.21-2.17-.48-4.34-.75-6.51-.54-4.26-1.08-8.51-1.51-12.77-.04-.36-.07-.71-.09-1.07-.02-.33-.24-.18-.25.08h0Z"/>
              <path d="M70.36,175.09s0-.04,0-.06c0-.04-.01.06,0,.03.01-.05-.02.03,0,.01,0-.02.02-.04.03-.06.03-.06-.02.02,0-.02s.04-.07.06-.1c0-.01.01-.02.02-.04.03-.05-.02.03,0,0,.04-.05.07-.1.1-.15.08-.11.17-.22.26-.33.11-.14.21-.29.32-.44.56-.76,1.16-1.5,1.76-2.22.71-.85,1.46-1.67,2.17-2.52.66-.81,1.29-1.65,1.94-2.47.42-.54.86-1.07,1.23-1.65.01-.02.03-.04.04-.06.03-.05.14-.23.03-.06.14-.23.17-.56.09-.82-.03-.1-.06-.22-.16-.28-.07-.04-.16-.01-.2.06-.12.2-.28.39-.43.57-.23.28-.47.55-.71.83-.65.73-1.35,1.43-1.99,2.16-.75.86-1.46,1.77-2.16,2.67-.63.82-1.26,1.65-1.79,2.54-.12.21-.24.41-.35.62-.05.09-.08.18-.12.27-.02.04-.04.09-.05.13,0,.02-.02.04-.03.06,0,0,0,.02-.01.03l-.03.1c.02-.07.03-.08.02-.05-.06.18-.12.35-.17.53-.02.09-.04.18-.05.27,0,.03,0,.05,0,.08,0,.01,0,.03,0,.04,0,.05-.02.14,0,.05-.01.06-.01.13-.01.2,0,.07.01.23.1.26s.12-.13.13-.19h0Z"/>
              <path d="M118.2,181.28c-2.15-.15-3.31-2.39-3.62-4.27-.18-1.09-.21-2.2-.23-3.31-.02-1.05,0-2.09.05-3.14.23-4.07,1.19-8.23,3.79-11.47,1.33-1.66,2.99-3.01,4.71-4.23.87-.62,1.77-1.21,2.66-1.8.96-.64,1.94-1.27,2.98-1.76,4.26-2.02,9-.79,13.11.96,1.05.45,2.09.93,3.12,1.43.96.47,1.93.93,2.84,1.5,1.62,1.02,3.08,2.54,3.14,4.55.01.47-.01.89-.19,1.33-.07.19-.09.45,0,.63.08.16.2.16.28,0,1.02-1.96.41-4.41-.98-6.04-1.48-1.74-3.69-2.67-5.71-3.63-4.22-2-9.13-4.02-13.86-2.73-2.34.64-4.33,2.08-6.32,3.42-1.86,1.26-3.69,2.59-5.24,4.23-3.14,3.31-4.49,7.77-4.86,12.24-.19,2.3-.19,4.66.04,6.96.21,2.06.85,4.56,2.94,5.48.42.18.86.27,1.32.25.18,0,.18-.58,0-.59h0Z"/>
              <path d="M147.65,154.22c-.93-.85-2.1-1.26-3.34-1.37s-2.61.28-3.8.65c-1.32.42-2.63.94-3.85,1.6-1.31.7-2.55,1.54-3.78,2.37s-2.47,1.63-3.75,2.38-2.39,1.48-3.31,2.56c-1.75,2.06-2.56,4.78-2.69,7.44-.08,1.69.2,3.35.6,4.99.21.86.46,1.71.67,2.57s.36,1.67.56,2.5c.03.13.13.36.3.28s.2-.43.2-.59c.02-1.59-.46-3.12-.86-4.64-.35-1.32-.72-2.77-.76-4.06-.04-1.18.08-2.31.4-3.49s.83-2.27,1.54-3.24c.8-1.1,1.84-1.92,2.99-2.65,1.22-.77,2.45-1.53,3.63-2.37s2.34-1.68,3.55-2.44,2.42-1.35,3.71-1.87c2.42-.98,5.67-2.02,7.93-.14.12.1.18-.4.06-.51h0Z"/>
              <path d="M139.1,154.69c.08.11.16.23.25.34.08.1.16.21.25.31.16.17.31.34.46.51.26.31.51.63.73.97.05.08.1.16.15.24.02.04-.04-.08-.02-.04,0,.01.01.02.02.04.01.02.02.04.03.06.02.04.05.09.07.13.08.17.16.34.22.51,0,.02.02.04.02.06,0,.01,0,.02.01.03.02.06-.02-.07-.02-.06.01.05.03.09.05.14.03.09.05.18.08.28.01.05.02.1.03.14,0,.03.01.05.02.08s.02.13,0,.02,0-.01,0,.01c0,.03,0,.05.01.08,0,.05.02.1.02.15.03.24.05.49.08.74,0,.07.01.13.02.2,0,.03,0,.06,0,.09,0,.06,0-.14,0-.08,0,.02,0,.04,0,.05,0,.15.01.3.02.45,0,.11.01.25.06.35.03.06.06.12.12.14.16.05.23-.25.24-.35.04-.57.06-1.15-.02-1.72-.06-.48-.17-.94-.33-1.39-.26-.76-.72-1.43-1.27-2.01-.18-.19-.37-.36-.56-.54s-.4-.3-.63-.41c-.09-.04-.13.09-.14.15-.02.11-.02.24.05.33h0Z"/>
              <path d="M49.81,122.98c1.93.57,3.89,1.05,5.89,1.33s4.12.4,6.19.43,4.11.01,6.17.05c1.04.02,2.07.05,3.11.12.89.06,1.78.18,2.67.22,3,.12,5.98-.52,8.96-.73,1.52-.1,2.95-.65,4.23-1.46.29-.18.6-.36.85-.59.27-.25.25-.64.23-.98-.04-1.04-.12-2.08-.3-3.1-.1-.56-.22-1.13-.45-1.65-.19-.43-.47-.72-.84-1-.86-.66-1.9-1.06-2.92-1.39-1.49-.48-3.03-.8-4.57-1.09-1.96-.37-3.93-.64-5.91-.83s-4.05-.36-6.05-.7-3.9-.91-5.79-1.61-3.72-1.43-5.63-2.01c-3.7-1.13-7.53-1.84-11.4-2.1s-7.8-.08-11.64.57c-.47.08-.95.17-1.42.26s-.92.28-1.37.45c-.28.11-.28,1.19.07,1.17.28-.02.56-.03.85-.05.3-.02.61-.1.91-.15.59-.11,1.17-.21,1.76-.29,1.18-.17,2.36-.31,3.55-.4,2.39-.18,4.79-.2,7.18-.04,4.79.31,9.52,1.3,14.02,2.95,2.29.84,4.55,1.79,6.92,2.36s4.87.78,7.32,1,4.82.52,7.21.98c1.72.34,3.47.71,5.09,1.4.57.24,1.12.53,1.62.9.2.16.35.27.48.45.05.06-.01-.04.04.06.03.06.06.12.08.18.02.06.05.12.07.17-.03-.09.04.13.05.16.04.15.08.3.11.45.05.23.05.21.08.42.06.34.1.69.14,1.04.03.31.06.63.08.94,0,.07,0,.14.01.21,0-.13,0-.07,0,.02,0,.1.01.2.01.3,0,.09,0,.17,0,.26l.23-.68c-1.29,1.07-3.01,1.89-4.68,2.05-2.21.2-4.4.55-6.61.75-1.05.09-2.11.17-3.16.08-1.5-.12-2.99-.2-4.49-.21-3.01-.03-6.02.1-9.03,0-1.7-.06-3.4-.18-5.08-.46s-3.27-.68-4.87-1.14c-.22-.07-.31.85,0,.94h0Z"/>
              <path d="M29.87,107.36c-.65.11-1.3.33-1.59.97-.24.53-.19,1.14-.15,1.71.02.23.03.51,0,.79-.02.44-.04.87-.02,1.31.03.69.13,1.39.42,2.02.26.57.67,1.05,1.14,1.46.73.66,1.71.93,2.61,1.26,2.1.75,4.2,1.48,6.29,2.22,1.17.41,2.34.82,3.51,1.24.58.21,1.17.42,1.75.63.47.17.9.44,1.37.61.3.11.37-.8.11-.89-.37-.13-.69-.34-1.06-.47-.5-.18-1.01-.34-1.51-.51-.99-.34-1.97-.68-2.95-1.02-1.99-.7-3.98-1.4-5.98-2.1-.94-.33-1.9-.62-2.82-.99-.71-.29-1.32-.72-1.8-1.32-.85-1.04-.77-2.33-.74-3.6,0-.3-.02-.61-.04-.91-.02-.22-.03-.49,0-.71.03-.17.16-.4.33-.56.31-.28.7-.43,1.1-.54.18-.05.17-.62,0-.59h0Z"/>
              <path d="M28.75,108.91c.9,1.44,2.39,2.26,3.98,2.76,1.8.57,3.69.81,5.53,1.26,4.26,1.02,8.41,2.42,12.59,3.71,3.88,1.19,7.78,2.29,11.77,3.06,3.6.7,7.27,1.22,10.95,1.17s7.13-.61,10.27-2.24c.42-.22.77-.51,1.12-.83.2-.18.3-1.23-.13-1.09-.81.26-1.53.67-2.31,1s-1.62.62-2.46.84c-1.7.45-3.45.69-5.21.78-3.64.19-7.3-.19-10.89-.81-3.87-.66-7.7-1.52-11.46-2.61-4.12-1.2-8.19-2.55-12.36-3.58-1.97-.49-3.95-.89-5.94-1.23-1.59-.27-3.26-.68-4.5-1.76-.31-.27-.58-.59-.81-.93-.08-.11-.16.04-.18.11-.04.12-.02.29.05.4h0Z"/>
              <path d="M35.25,112c5.59-.1,11.2.44,16.73,1.2,5.85.81,11.67,1.92,17.43,3.21,2.98.67,5.95,1.38,8.91,2.15.21.05.28-.76,0-.84-5.45-1.4-10.93-2.65-16.46-3.7s-11.63-1.98-17.51-2.4c-3.03-.22-6.06-.29-9.1-.13-.16,0-.16.52,0,.52h0Z"/>
              <path d="M57.93,113.92s-.02-.07,0-.03c0,.02.01.03.02.05.02.07.04.13.06.2.04.12.07.24.11.36.02.06.04.13.06.19,0,0-.02-.06-.01-.03,0,0,0,.02,0,.02,0,.02.01.03.02.05.01.04.02.07.04.11.24.72.47,1.44.65,2.17.06.24.12.47.17.71.03.12.05.24.07.36,0,.04-.01-.07,0-.02,0,.02,0,.03,0,.05,0,.03.01.06.02.09.01.06.02.13.03.19.01.07.03.15.07.21.03.03.07.06.12.04.05-.03.08-.1.09-.16.02-.09.03-.18.02-.27-.14-.87-.36-1.73-.62-2.58-.11-.36-.23-.71-.36-1.06-.09-.23-.17-.47-.28-.69-.05-.09-.09-.19-.14-.28-.01-.03-.04-.07-.07-.07s-.06.04-.07.07c-.04.1-.04.22,0,.33h0Z"/>
              <path d="M62.86,114.91c.13.7.27,1.4.42,2.1.1.46.21.92.31,1.37s.19.94.29,1.4c.02.08.11.22.19.11.09-.12.08-.29.05-.43-.14-.7-.28-1.39-.43-2.08-.1-.45-.22-.9-.32-1.36s-.2-.93-.3-1.39c-.01-.07-.09-.18-.16-.09-.07.09-.06.25-.04.36h0Z"/>
              <path d="M59.85,124.07c0,.45-.02.91-.03,1.36-.02,1.1-.04,2.21-.06,3.31-.03,1.38-.06,2.75-.1,4.13-.04,1.26-.07,2.53-.13,3.79-.01.25-.02.51-.04.76,0,.01,0,.09,0,.05s0,.03,0,.05c0,.06,0,.12-.01.18,0,.11-.01.21-.02.32-.02.3-.05.6-.09.89-.01.08.02-.06,0-.01,0,.02,0,.04-.01.06-.03.13-.05.36.05.47s.18-.02.21-.12c.06-.26.09-.54.11-.81.04-.45.06-.91.09-1.36.06-1.22.1-2.44.13-3.66.04-1.39.06-2.78.08-4.17.02-1.17.03-2.35.05-3.52,0-.56.02-1.12,0-1.68,0,0,0-.02,0-.02,0-.07-.01-.27-.12-.27s-.12.2-.12.27h0Z"/>
              <path d="M64.34,124.34c-.17,1.82-.26,3.66-.37,5.49-.15,2.51-.29,5.03-.34,7.54-.01.48-.02.97,0,1.45,0,.31,0,.63.06.94.01.09.06.3.19.24.12-.05.12-.33.11-.43s-.02-.21-.03-.31c0-.03,0,.1,0,0,0-.04,0-.07,0-.11,0-.08,0-.16,0-.24,0-.4,0-.81,0-1.21.02-1.14.06-2.28.11-3.42.1-2.49.24-4.99.39-7.45.05-.78.09-1.56.16-2.33,0-.09.02-.31-.09-.36s-.15.13-.16.21h0Z"/>
              <path d="M87.74,121.93c1.03,1.16,2.13,2.26,3.17,3.41,1.1,1.21,2.19,2.42,3.28,3.64,2.27,2.56,4.53,5.14,6.85,7.65s4.67,4.97,7.21,7.24c2.39,2.14,4.93,4.16,7.71,5.77,1.3.75,2.65,1.43,4.04,1.99,1.31.53,2.73,1.06,4.14,1.2.35.03.69.06,1.04.08.24.01.23-.72,0-.77-.71-.16-1.41-.36-2.11-.54s-1.38-.38-2.06-.62c-1.41-.5-2.76-1.12-4.06-1.85-2.76-1.55-5.3-3.46-7.69-5.53-2.56-2.22-4.97-4.62-7.3-7.08s-4.58-5.01-6.84-7.53c-2.12-2.36-4.25-4.71-6.51-6.93-.25-.24-.5-.48-.76-.7-.14-.12-.2.46-.11.57h0Z"/>
              <path d="M83.08,123.95c1.23,1.36,2.44,2.74,3.59,4.15,1.06,1.29,2.06,2.63,3.07,3.95,1.99,2.62,4,5.22,6.37,7.52,1.26,1.22,2.61,2.32,3.97,3.42s2.69,2.19,4.05,3.28c2.67,2.14,5.39,4.24,8.29,6.07s5.77,3.27,9.04,3.61c.39.04.43-1.28,0-1.35-2.83-.4-5.51-1.69-7.97-3.09-2.91-1.65-5.63-3.65-8.27-5.71-1.37-1.07-2.73-2.16-4.08-3.24s-2.71-2.12-3.98-3.27c-2.45-2.21-4.54-4.75-6.56-7.35-2.31-2.96-4.58-6.01-7.43-8.48-.12-.1-.17.38-.09.48h0Z"/>
              <path d="M98.08,178.01c.02,2.2,1.25,4.04,3.15,5.1s4.21,1.36,6.32,1.66c5.39.78,10.85.84,16.28,1.04,2.7.1,5.39.27,8.08.48s5.29.43,7.94.51,5.23.03,7.82-.31c2.45-.32,4.97-.83,7.22-1.87,1.05-.49,2.03-1.12,2.86-1.92.57-.55,1.1-1.15,1.62-1.74.6-.69,1.19-1.38,1.74-2.11.64-.84,1.18-1.77,1.73-2.67.35-.59.71-1.17,1.06-1.76.18-.29.2-.68.12-1.01-.04-.17-.26-.55-.44-.26-1.16,1.79-2.22,3.65-3.55,5.31-1.1,1.38-2.25,2.88-3.72,3.88-1.94,1.32-4.31,1.94-6.59,2.38-2.53.48-5.1.66-7.67.67-5.21.01-10.39-.66-15.59-.91s-10.6-.25-15.88-.71c-1.33-.12-2.66-.26-3.98-.45-1.08-.15-2.16-.3-3.21-.57-1.76-.44-3.67-1.26-4.56-2.95-.29-.55-.45-1.16-.48-1.79,0-.08-.01-.29-.13-.29s-.13.23-.13.29h0Z"/>
              <path d="M126.38,156.83c-.24-.15-.43-.35-.59-.59-.02-.03-.04-.06-.06-.09.02.04-.02-.05-.03-.06-.03-.07-.07-.14-.09-.21-.01-.03-.02-.06-.04-.09-.03-.07.02.06,0-.01,0-.01,0-.03-.01-.04-.02-.08-.04-.15-.06-.23-.01-.05-.02-.01,0,.01,0,0,0-.04,0-.04,0-.04-.01-.07-.02-.11s0-.07-.01-.11c0-.02,0-.03,0-.05,0-.08,0,.09,0,0,0-.07,0-.14,0-.21,0-.01,0-.09,0-.02s0,0,0-.02c0-.04,0-.08.01-.12,0-.04,0-.07.02-.11,0-.02,0-.04,0-.06,0,.09-.01.06,0,.03.02-.08.04-.16.06-.24,0-.03.02-.06.03-.1.01-.05-.03.08,0,.01,0-.01.01-.03.02-.04.03-.07.06-.15.1-.22.01-.03.03-.06.04-.09,0-.02.04-.06,0,0,0-.01.01-.02.02-.04.04-.07.09-.13.13-.19.04-.05.08-.1.12-.15.02-.03.05-.05.07-.08.01-.01.03-.03.04-.04.01-.01.01-.01,0,0,.01,0,.02-.02.03-.03.27-.24.61-.42.94-.55.74-.29,1.56-.35,2.35-.26.38.05.77.13,1.12.27.4.16.76.4,1.1.66s.63.53.96.77c.29.21.6.4.86.64.02.01.03.03.05.05-.03-.03,0,0,0,0,.03.03.06.06.09.1.06.07.11.14.16.21.01.02.04.07,0,0,0,.01.02.03.02.04,0,0,.05.11.05.11-.01,0-.02-.09,0-.01,0,.02,0,.04.02.06.02.07,0-.04,0-.05,0,.02,0,.05.01.08.01.06,0-.13,0-.05,0,.01,0,.03,0,.04,0,.09.01-.13,0-.04,0,.01,0,.03,0,.04,0,.08.03-.11,0-.03,0,.01,0,.03,0,.04,0,.02-.01.03-.01.05,0,.03,0,.01.02-.05,0,.01,0,.03-.02.04-.01.03-.03.06-.04.09,0,.02-.02.03-.02.05-.03.06.01-.02.01-.02.01.02-.12.18-.14.2-.04.05-.09.11-.14.15-.01.01-.09.09-.05.05-.03.03-.07.06-.11.09-.12.1-.25.2-.38.29-.25.17-.5.31-.77.45-.37.19-.76.36-1.17.44-.44.09-.91.11-1.36.06s-.89-.18-1.32-.31c-.46-.14-.91-.34-1.37-.46-.22-.06-.45-.12-.67-.17-.07-.02-.14.11-.16.15-.04.1-.06.2-.06.3,0,.11,0,.23.03.33.02.07.06.21.14.24.24.09.48.19.72.29s.5.17.76.24c.46.13.93.25,1.41.31s.96.1,1.44.05c.51-.05,1.01-.19,1.48-.41.59-.29,1.19-.62,1.65-1.1.25-.25.44-.57.52-.92.11-.5.05-1.02-.22-1.46-.2-.33-.52-.59-.83-.81s-.62-.44-.92-.69c-.36-.29-.72-.59-1.12-.82s-.8-.37-1.23-.46c-.83-.18-1.71-.16-2.53.08-.73.21-1.43.58-1.82,1.26s-.51,1.43-.44,2.19c.06.66.3,1.35.81,1.78.11.09.23.17.36.24.18.09.21-.48.07-.57h0Z"/>
              <path d="M47.43,120.39c-.12-.09-.28-.12-.42-.16h.04c-.09-.02-.18-.05-.25-.12l.04.04s-.04-.04-.06-.06c0,0-.01-.02-.02-.03-.03-.04.01.01,0,.02,0,0-.03-.06-.03-.07,0-.01-.01-.03-.02-.04-.02-.06.02.08,0,.02-.03-.1-.05-.19-.08-.29-.01-.04-.02-.09-.03-.13,0-.03-.01-.05-.02-.08,0-.01,0-.02,0-.03,0-.03-.02-.1,0,.04-.02-.1-.03-.19-.04-.29,0-.05,0-.09-.01-.14,0-.05,0,.13,0,.06,0-.01,0-.02,0-.03,0-.03,0-.05,0-.08,0-.05,0-.09,0-.14,0-.02,0-.05,0-.07,0-.01,0-.03,0-.04v.09s0-.02,0-.03c0-.09.02-.19.03-.28,0-.01,0-.03,0-.04,0-.03.02-.09-.01.06,0-.02,0-.04.01-.06.01-.05.02-.1.04-.15s.03-.1.04-.15c.02-.06-.03.09-.01.04,0-.01.01-.03.02-.04,0-.03.02-.05.03-.08.04-.1.09-.19.14-.28l-.04.07c.1-.17.22-.33.36-.47l-.05.05c.23-.22.5-.37.8-.47l-.06.02c.4-.12.83-.12,1.22,0l-.06-.02c.32.1.61.28.85.51l-.05-.05c.18.18.34.38.46.6l-.04-.07c.07.13.14.27.19.41,0,.02.01.03.02.05,0,0,0,.02,0,.02.02.04-.03-.09-.02-.05.01.04.02.07.03.11.02.07.04.15.06.23,0,.02.02.1,0,0s0-.02,0,0c0,.04.01.08.02.12,0,.04,0,.07.01.11,0,.02,0,.1,0,0s0-.02,0,0c0,.04,0,.08,0,.12,0,.02,0,.04,0,.06,0,0,0,.02,0,.03,0,.08,0-.12,0-.07,0,.04,0,.08-.01.12,0,.02,0,.03,0,.05,0,.02-.02.11,0,.02s0,0,0,.02,0,.04-.02.06-.01.04-.02.06c0,.01,0,.02,0,.03-.01.04.03-.09.02-.05-.03.08-.07.17-.11.24l.04-.07c-.06.11-.14.2-.22.29l.05-.05c-.15.14-.33.24-.52.3l.06-.02c-.5.15-1.05.08-1.56-.01-.15-.02-.29-.05-.43-.1l.06.02c-.05-.02-.1-.04-.15-.05-.06-.02-.13-.03-.19-.05l.05.02c-.13-.04-.24-.1-.35-.19l.04.04s-.06-.07-.09-.11c-.03-.04-.08-.06-.12-.04s-.06.08-.08.13c-.02.07-.03.14-.03.21,0,.08,0,.17.05.25.13.25.32.47.56.62.11.07.25.1.37.14.11.03.23.05.35.07.47.08.98.15,1.45.03.24-.06.47-.16.65-.33.25-.23.4-.51.49-.83s.13-.66.11-.98-.06-.64-.15-.95c-.17-.55-.45-1.05-.87-1.44-.36-.34-.84-.55-1.33-.59s-1.01.09-1.41.38c-.45.33-.73.81-.9,1.33-.18.56-.21,1.18-.14,1.77.02.15.05.31.08.46.01.06.03.11.04.17.01.05.06.18.01.04,0,.01,0,.03.01.04.02.05.04.11.05.16.05.13.1.28.2.39.1.12.23.17.38.18.12.01.23,0,.35.04h-.04s.05,0,.07.02c.12.06.16-.14.17-.22.01-.12.01-.31-.1-.39h0Z"/>
              <path d="M46.62,117.37c-.75,1.39-1.31,2.83-1.62,4.38-.29,1.45-.48,2.9-.87,4.33-.14.5-.31.99-.41,1.49-.08.44-.15.87-.22,1.31-.18,1.18-.34,2.37-.51,3.55-.24,1.75-.48,3.5-.6,5.27-.09,1.3-.18,2.6-.2,3.91-.01.82.1,1.6.16,2.41.15,2.38.04,4.86.25,7.27,0,.11.02.21.04.31,0,.04.05.22.04.16.02.1.05.29.19.25.12-.04.12-.35.11-.44.02.09-.02-.2-.01-.15,0-.12-.01-.23-.02-.35-.02-.22-.03-.41-.04-.63-.03-.6-.04-1.19-.06-1.79-.03-1.31-.04-2.62-.09-3.93-.02-.49-.04-.98-.08-1.47-.01-.15-.04-.29-.06-.44-.03-.23-.02-.22-.03-.44-.03-1.19.04-2.38.11-3.57.1-1.76.3-3.49.53-5.24.16-1.18.31-2.37.48-3.55.07-.51.15-1.03.23-1.54.03-.19.06-.37.09-.56.01-.06,0-.03.03-.14.01-.05.02-.1.03-.15.21-.8.46-1.59.63-2.41.14-.69.26-1.38.37-2.07.23-1.4.56-2.74,1.1-4.06.18-.45.39-.9.6-1.34.06-.13-.03-.63-.17-.38h0Z"/>
              <path d="M50.59,119.39c-.11,1.22-.77,2.28-1.12,3.44-.22.73-.38,1.48-.52,2.23-.37,2.02-.63,4.07-.85,6.11-.44,4.11-.76,8.24-.86,12.37-.03,1.29-.03,2.59.11,3.87.21,1.94.91,3.78,1.04,5.73,0,.12.07.36.23.34s.18-.35.18-.46c.05-1.74-.56-3.39-.85-5.08-.23-1.29-.23-2.62-.21-3.93.03-1.72.12-3.41.24-5.09.29-4.36.6-8.74,1.3-13.05.14-.85.28-1.69.49-2.53.33-1.28,1-2.49,1.04-3.87,0-.21-.18-.34-.21-.06h0Z"/>
            </g>
          </g>
        </g>
      </g>
    </g>
  </g>
</svg>