<?xml version="1.0" encoding="UTF-8"?>
<svg id="_レイヤー_2" data-name="レイヤー 2" xmlns="http://www.w3.org/2000/svg" viewBox="0 0 760.36 74.11">
  <defs>
    <style>
      .cls-1 {
        fill: #fff;
      }
    </style>
  </defs>
  <g id="_編集箇所" data-name="編集箇所">
    <g>
      <path class="cls-1" d="M14.17,1.04v72.08H0V1.04h14.17ZM17.6,73.12H5.97l.09-12.72h11.54c2.7,0,4.85-.58,6.44-1.73,1.59-1.15,2.73-3.04,3.43-5.67.7-2.62,1.05-6.08,1.05-10.37v-11.14c0-3.23-.19-5.98-.58-8.24-.39-2.26-1-4.08-1.85-5.47s-1.98-2.39-3.39-3.02c-1.41-.63-3.14-.94-5.19-.94H5.75V1.04h11.76c3.8,0,7.25.69,10.34,2.05,3.09,1.37,5.74,3.37,7.95,5.99,2.21,2.62,3.92,5.82,5.12,9.58,1.2,3.76,1.8,8.07,1.8,12.92v11.04c0,4.82-.6,9.11-1.8,12.87-1.2,3.76-2.91,6.96-5.12,9.58-2.21,2.62-4.86,4.62-7.93,5.99-3.07,1.37-6.5,2.05-10.27,2.05Z"/>
      <path class="cls-1" d="M63.76,1.04v72.08h-14.17V1.04h14.17ZM87.37,1.04v12.77h-28.25V1.04h28.25ZM83.63,29.95v12.28h-24.5v-12.28h24.5ZM87.37,60.39v12.72h-28.25v-12.72h28.25Z"/>
      <path class="cls-1" d="M119.76,54.06c0-1.22-.1-2.33-.31-3.32-.21-.99-.62-1.9-1.23-2.72-.61-.82-1.5-1.67-2.67-2.52-1.17-.86-2.73-1.75-4.66-2.67-2.38-1.09-4.69-2.28-6.93-3.59-2.24-1.3-4.26-2.83-6.06-4.58-1.8-1.75-3.22-3.79-4.28-6.14-1.05-2.34-1.58-5.1-1.58-8.27s.52-5.85,1.56-8.34c1.04-2.49,2.5-4.62,4.39-6.39,1.89-1.77,4.1-3.12,6.64-4.06S109.99.05,113.08.05c4.1,0,7.7.93,10.8,2.8,3.1,1.86,5.52,4.47,7.24,7.82,1.72,3.35,2.58,7.25,2.58,11.71h-14.12c0-1.91-.23-3.61-.69-5.1-.46-1.49-1.2-2.65-2.21-3.49-1.01-.84-2.32-1.26-3.92-1.26-1.46,0-2.67.35-3.65,1.04s-1.72,1.64-2.21,2.85c-.49,1.21-.74,2.52-.74,3.94,0,1.16.24,2.18.74,3.07.49.89,1.16,1.72,2,2.47.85.76,1.85,1.49,3.01,2.18,1.16.69,2.44,1.35,3.83,1.98,2.91,1.29,5.5,2.68,7.77,4.18s4.17,3.21,5.7,5.12c1.53,1.91,2.68,4.07,3.45,6.46.77,2.39,1.16,5.11,1.16,8.14s-.47,5.93-1.4,8.39c-.94,2.46-2.29,4.57-4.08,6.34-1.78,1.77-3.93,3.11-6.44,4.03-2.51.92-5.32,1.39-8.44,1.39-2.94,0-5.78-.47-8.51-1.41-2.73-.94-5.16-2.39-7.28-4.36-2.12-1.96-3.8-4.46-5.03-7.47-1.23-3.02-1.85-6.62-1.85-10.82h14.17c0,2.15.16,3.97.49,5.47.33,1.5.85,2.7,1.56,3.59.71.89,1.62,1.53,2.72,1.93,1.1.4,2.41.59,3.92.59s2.76-.33,3.65-.99c.89-.66,1.52-1.58,1.89-2.75.37-1.17.56-2.45.56-3.84Z"/>
      <path class="cls-1" d="M155.09,1.04v72.08h-14.12V1.04h14.12Z"/>
      <path class="cls-1" d="M208.47,34.95v29.9c-.98,1.09-2.39,2.36-4.23,3.81-1.84,1.45-4.21,2.72-7.11,3.81s-6.36,1.63-10.4,1.63c-3.65,0-6.96-.63-9.91-1.88-2.96-1.25-5.48-3.17-7.57-5.74-2.09-2.57-3.71-5.79-4.83-9.65-1.13-3.86-1.69-8.43-1.69-13.71v-12.08c0-5.25.56-9.82,1.67-13.71,1.11-3.89,2.69-7.13,4.72-9.7,2.03-2.57,4.47-4.49,7.31-5.74,2.84-1.25,6.02-1.88,9.56-1.88,5.02,0,9.15.93,12.39,2.8,3.24,1.87,5.67,4.6,7.31,8.22,1.63,3.61,2.55,8.03,2.76,13.24h-13.59c-.18-2.9-.59-5.2-1.23-6.88-.64-1.68-1.54-2.89-2.72-3.61-1.17-.73-2.68-1.09-4.52-1.09-1.54,0-2.9.32-4.08.96-1.17.64-2.16,1.68-2.96,3.12-.8,1.44-1.4,3.32-1.78,5.64-.39,2.33-.58,5.17-.58,8.54v12.18c0,3.33.21,6.18.62,8.54.42,2.36,1.04,4.25,1.87,5.67.83,1.42,1.93,2.45,3.3,3.09,1.37.64,2.99.96,4.86.96,1.37,0,2.47-.16,3.32-.5.85-.33,1.54-.71,2.09-1.14.55-.43.99-.73,1.31-.89v-12.47h-8.55v-11.43h22.68Z"/>
      <path class="cls-1" d="M261.49,1.04v72.08h-13.9l-18.36-44.85v44.85h-13.81V1.04h13.86l18.44,45.1V1.04h13.77Z"/>
      <path class="cls-1" d="M319.1,48.91h14.08c-.09,5.45-1.06,10.04-2.92,13.79-1.86,3.75-4.47,6.58-7.84,8.51-3.37,1.93-7.37,2.9-12.01,2.9-3.68,0-6.95-.7-9.8-2.1s-5.26-3.45-7.22-6.14c-1.96-2.69-3.45-5.97-4.46-9.85-1.01-3.88-1.51-8.32-1.51-13.34v-11.19c0-5.02.53-9.47,1.6-13.37,1.07-3.89,2.6-7.19,4.59-9.9,1.99-2.71,4.4-4.75,7.24-6.14,2.84-1.39,6.02-2.08,9.56-2.08,4.84,0,8.91,1.01,12.21,3.02,3.3,2.01,5.84,4.93,7.62,8.76,1.78,3.83,2.81,8.46,3.07,13.91h-14.17c.03-3.3-.24-5.88-.8-7.75-.56-1.86-1.48-3.18-2.74-3.96-1.26-.78-2.99-1.16-5.19-1.16-1.57,0-2.93.31-4.05.94-1.13.63-2.03,1.68-2.72,3.17-.68,1.49-1.19,3.41-1.51,5.77-.33,2.36-.49,5.26-.49,8.69v11.29c0,3.43.13,6.34.38,8.71.25,2.38.71,4.3,1.36,5.77.65,1.47,1.54,2.52,2.67,3.17,1.13.64,2.58.97,4.37.97,1.96,0,3.58-.34,4.86-1.01,1.28-.68,2.23-1.91,2.87-3.69.64-1.78.96-4.34.96-7.67Z"/>
      <path class="cls-1" d="M385.17,31.58v11.48c0,5.12-.56,9.61-1.69,13.49-1.13,3.88-2.74,7.11-4.83,9.7-2.09,2.59-4.58,4.55-7.46,5.87-2.88,1.32-6.09,1.98-9.62,1.98s-6.75-.66-9.65-1.98c-2.9-1.32-5.4-3.27-7.51-5.87-2.11-2.59-3.74-5.82-4.88-9.7-1.14-3.88-1.72-8.37-1.72-13.49v-11.48c0-5.18.56-9.74,1.69-13.69,1.13-3.94,2.75-7.23,4.86-9.85,2.11-2.62,4.61-4.61,7.51-5.96,2.9-1.35,6.11-2.03,9.65-2.03s6.71.68,9.6,2.03c2.9,1.35,5.39,3.34,7.48,5.96,2.09,2.62,3.71,5.91,4.86,9.85,1.14,3.94,1.72,8.51,1.72,13.69ZM370.96,43.07v-11.58c0-3.3-.2-6.13-.6-8.49s-1-4.28-1.78-5.77c-.79-1.48-1.78-2.57-2.96-3.27-1.19-.69-2.55-1.04-4.1-1.04-1.63,0-3.04.35-4.23,1.04-1.19.69-2.17,1.78-2.94,3.27-.77,1.49-1.35,3.41-1.74,5.77-.39,2.36-.58,5.19-.58,8.49v11.58c0,3.23.19,6.01.58,8.32.39,2.31.98,4.19,1.78,5.64.8,1.45,1.8,2.52,2.98,3.22,1.19.69,2.58,1.04,4.19,1.04s2.91-.35,4.1-1.04c1.19-.69,2.18-1.76,2.96-3.22.79-1.45,1.37-3.33,1.76-5.64.39-2.31.58-5.08.58-8.32Z"/>
      <path class="cls-1" d="M438.41,31.58v11.48c0,5.12-.56,9.61-1.69,13.49-1.13,3.88-2.74,7.11-4.83,9.7-2.09,2.59-4.58,4.55-7.46,5.87-2.88,1.32-6.09,1.98-9.62,1.98s-6.75-.66-9.65-1.98c-2.9-1.32-5.4-3.27-7.51-5.87-2.11-2.59-3.74-5.82-4.88-9.7-1.14-3.88-1.72-8.37-1.72-13.49v-11.48c0-5.18.56-9.74,1.69-13.69,1.13-3.94,2.75-7.23,4.86-9.85,2.11-2.62,4.61-4.61,7.51-5.96,2.9-1.35,6.11-2.03,9.65-2.03s6.71.68,9.6,2.03c2.9,1.35,5.39,3.34,7.48,5.96,2.09,2.62,3.71,5.91,4.86,9.85,1.14,3.94,1.72,8.51,1.72,13.69ZM424.2,43.07v-11.58c0-3.3-.2-6.13-.6-8.49s-1-4.28-1.78-5.77c-.79-1.48-1.78-2.57-2.96-3.27-1.19-.69-2.55-1.04-4.1-1.04-1.63,0-3.04.35-4.23,1.04-1.19.69-2.17,1.78-2.94,3.27-.77,1.49-1.35,3.41-1.74,5.77-.39,2.36-.58,5.19-.58,8.49v11.58c0,3.23.19,6.01.58,8.32.39,2.31.98,4.19,1.78,5.64.8,1.45,1.8,2.52,2.98,3.22,1.19.69,2.58,1.04,4.19,1.04s2.91-.35,4.1-1.04c1.19-.69,2.18-1.76,2.96-3.22.79-1.45,1.37-3.33,1.76-5.64.39-2.31.58-5.08.58-8.32Z"/>
      <path class="cls-1" d="M445.32,1.04h21.52c4.34,0,8.06.83,11.18,2.48,3.12,1.65,5.51,4.09,7.17,7.33,1.66,3.23,2.49,7.24,2.49,12.03,0,3.96-.47,7.33-1.4,10.1s-2.27,5.07-3.99,6.88c-1.72,1.82-3.76,3.28-6.1,4.41l-4.5,2.97h-17.11l-.09-12.77h11.98c1.6,0,2.93-.42,3.97-1.26,1.04-.84,1.82-2.03,2.34-3.56.52-1.53.78-3.34.78-5.42s-.24-4.04-.74-5.59c-.49-1.55-1.23-2.74-2.21-3.56-.98-.82-2.24-1.24-3.79-1.24h-7.35v59.3h-14.17V1.04ZM474.41,73.12l-11.67-32.03h14.88l11.98,31.29v.74h-15.19Z"/>
      <path class="cls-1" d="M508.72,1.04v72.08h-14.17V1.04h14.17ZM512.15,73.12h-11.63l.09-12.72h11.54c2.7,0,4.85-.58,6.44-1.73,1.59-1.15,2.73-3.04,3.43-5.67.7-2.62,1.05-6.08,1.05-10.37v-11.14c0-3.23-.19-5.98-.58-8.24-.39-2.26-1-4.08-1.85-5.47s-1.98-2.39-3.39-3.02c-1.41-.63-3.14-.94-5.19-.94h-11.76V1.04h11.76c3.8,0,7.25.69,10.34,2.05,3.09,1.37,5.74,3.37,7.95,5.99,2.21,2.62,3.92,5.82,5.12,9.58,1.2,3.76,1.8,8.07,1.8,12.92v11.04c0,4.82-.6,9.11-1.8,12.87-1.2,3.76-2.91,6.96-5.12,9.58-2.21,2.62-4.86,4.62-7.93,5.99-3.07,1.37-6.5,2.05-10.27,2.05Z"/>
      <path class="cls-1" d="M558.93,1.04v72.08h-14.12V1.04h14.12Z"/>
      <path class="cls-1" d="M613.46,1.04v72.08h-13.9l-18.36-44.85v44.85h-13.81V1.04h13.86l18.44,45.1V1.04h13.77Z"/>
      <path class="cls-1" d="M645.32,15.05l-13.05,58.07h-15.1L637.35,1.04h9.4l-1.43,14.01ZM656.01,46.24v12.72h-28.74v-12.72h28.74ZM655.52,73.12l-13.1-58.07-1.6-14.01h9.53l20.27,72.08h-15.1Z"/>
      <path class="cls-1" d="M717.32,1.04v12.77h-45.58V1.04h45.58ZM701.37,1.04v72.08h-14.12V1.04h14.12Z"/>
      <path class="cls-1" d="M736.75,1.04v72.08h-14.17V1.04h14.17ZM760.36,1.04v12.77h-28.25V1.04h28.25ZM756.62,29.95v12.28h-24.5v-12.28h24.5ZM760.36,60.39v12.72h-28.25v-12.72h28.25Z"/>
    </g>
  </g>
</svg>