<?xml version="1.0" encoding="UTF-8"?>
<svg id="_レイヤー_2" data-name="レイヤー 2" xmlns="http://www.w3.org/2000/svg" viewBox="0 0 1162.31 134.34">
  <defs>
    <style>
      .cls-1 {
        fill: #fff;
      }
    </style>
  </defs>
  <g id="_編集箇所" data-name="編集箇所">
    <g>
      <path class="cls-1" d="M0,133.23V1.11h28.02c10.88,0,19.14,2.97,24.77,8.91,5.63,5.94,8.44,14.35,8.44,25.24v61.79c0,12.37-3,21.5-9,27.37-6,5.88-14.63,8.81-25.89,8.81H0ZM18.93,18.93v96.49h8.72c5.32,0,9.09-1.33,11.32-3.99,2.23-2.66,3.34-6.83,3.34-12.53v-63.65c0-5.2-1.05-9.21-3.15-12.06-2.1-2.84-5.94-4.27-11.5-4.27h-8.72Z"/>
      <path class="cls-1" d="M79.05,133.23V1.11h56.41v17.81h-37.48v38.78h32.66v17.81h-32.66v38.78h37.48v18.93h-56.41Z"/>
      <path class="cls-1" d="M208.94,39.15h-18.93v-4.27c0-4.33-1.02-8.07-3.06-11.23s-5.47-4.73-10.3-4.73c-2.6,0-4.7.5-6.31,1.48-1.61.99-2.91,2.23-3.9,3.71-.99,1.61-1.67,3.43-2.04,5.47s-.56,4.18-.56,6.4c0,2.6.09,4.76.28,6.49.19,1.73.65,3.28,1.39,4.64.74,1.36,1.82,2.54,3.25,3.53,1.42.99,3.37,1.98,5.84,2.97l14.47,5.75c4.2,1.61,7.61,3.5,10.21,5.66,2.6,2.17,4.64,4.67,6.12,7.52,1.36,2.97,2.29,6.34,2.78,10.11.49,3.77.74,8.07.74,12.9,0,5.57-.56,10.73-1.67,15.49-1.11,4.76-2.91,8.81-5.38,12.15-2.6,3.46-6,6.19-10.21,8.16-4.21,1.98-9.34,2.97-15.4,2.97-4.58,0-8.85-.81-12.8-2.41-3.96-1.61-7.36-3.83-10.21-6.68-2.85-2.84-5.1-6.15-6.77-9.93-1.67-3.77-2.5-7.89-2.5-12.34v-7.05h18.93v5.94c0,3.46,1.02,6.59,3.06,9.37,2.04,2.78,5.47,4.18,10.3,4.18,3.22,0,5.72-.46,7.52-1.39,1.79-.93,3.18-2.26,4.17-3.99.99-1.73,1.58-3.8,1.76-6.22.19-2.41.28-5.1.28-8.07,0-3.46-.12-6.31-.37-8.54-.25-2.23-.74-4.02-1.48-5.38-.87-1.36-2.01-2.47-3.43-3.34-1.42-.86-3.31-1.79-5.66-2.78l-13.55-5.57c-8.16-3.34-13.64-7.76-16.42-13.27-2.78-5.5-4.17-12.4-4.17-20.69,0-4.95.68-9.65,2.04-14.1,1.36-4.45,3.4-8.29,6.12-11.5,2.6-3.22,5.91-5.78,9.93-7.7,4.02-1.92,8.81-2.88,14.38-2.88,4.7,0,9,.87,12.9,2.6,3.9,1.73,7.27,4.02,10.11,6.87,5.69,5.94,8.54,12.74,8.54,20.41v9.28Z"/>
      <path class="cls-1" d="M223.59,133.23V1.11h18.93v132.12h-18.93Z"/>
      <path class="cls-1" d="M259.78,32.29c0-5.32.93-10.02,2.78-14.1,1.86-4.08,4.33-7.48,7.42-10.21,2.97-2.6,6.34-4.58,10.11-5.94,3.77-1.36,7.58-2.04,11.41-2.04s7.64.68,11.41,2.04c3.77,1.36,7.21,3.34,10.3,5.94,2.97,2.72,5.38,6.12,7.24,10.21,1.86,4.08,2.78,8.78,2.78,14.1v6.68h-18.93v-6.68c0-4.58-1.27-7.95-3.8-10.11-2.54-2.16-5.54-3.25-9-3.25s-6.47,1.08-9,3.25c-2.54,2.17-3.8,5.54-3.8,10.11v69.77c0,4.58,1.27,7.95,3.8,10.11,2.53,2.17,5.53,3.25,9,3.25s6.46-1.08,9-3.25c2.53-2.16,3.8-5.53,3.8-10.11v-24.86h-15.03v-16.7h33.96v41.57c0,5.57-.93,10.33-2.78,14.29-1.86,3.96-4.27,7.24-7.24,9.83-3.09,2.72-6.53,4.76-10.3,6.12-3.77,1.36-7.58,2.04-11.41,2.04s-7.64-.68-11.41-2.04c-3.77-1.36-7.14-3.4-10.11-6.12-3.09-2.6-5.57-5.87-7.42-9.83-1.86-3.96-2.78-8.72-2.78-14.29V32.29Z"/>
      <path class="cls-1" d="M339.2,133.23V1.11h18.18l28.58,79.6h.37V1.11h18.93v132.12h-17.81l-28.95-79.42h-.37v79.42h-18.93Z"/>
      <path class="cls-1" d="M516.95,95.56v8.16c0,4.08-.77,7.95-2.32,11.6-1.55,3.65-3.68,6.9-6.4,9.74-2.72,2.85-5.91,5.1-9.56,6.77-3.65,1.67-7.58,2.51-11.78,2.51-3.59,0-7.24-.5-10.95-1.48-3.71-.99-7.05-2.72-10.02-5.2-2.97-2.47-5.41-5.66-7.33-9.56-1.92-3.9-2.88-8.88-2.88-14.94V30.43c0-4.33.74-8.35,2.23-12.06,1.48-3.71,3.59-6.93,6.31-9.65,2.72-2.72,5.97-4.85,9.74-6.4,3.77-1.55,7.95-2.32,12.53-2.32,8.91,0,16.14,2.91,21.71,8.72,2.72,2.85,4.85,6.22,6.4,10.11,1.55,3.9,2.32,8.14,2.32,12.71v7.42h-18.93v-6.31c0-3.71-1.05-6.93-3.15-9.65-2.1-2.72-4.95-4.08-8.54-4.08-4.7,0-7.83,1.46-9.37,4.36-1.55,2.91-2.32,6.59-2.32,11.04v67.54c0,3.84.83,7.05,2.51,9.65,1.67,2.6,4.67,3.9,9,3.9,1.23,0,2.57-.21,3.99-.65,1.42-.43,2.75-1.14,3.99-2.13,1.11-.99,2.04-2.35,2.78-4.08.74-1.73,1.11-3.9,1.11-6.49v-6.49h18.93Z"/>
      <path class="cls-1" d="M531.24,32.29c0-5.32.93-10.02,2.78-14.1,1.86-4.08,4.33-7.48,7.42-10.21,2.97-2.6,6.34-4.58,10.11-5.94,3.77-1.36,7.58-2.04,11.41-2.04s7.64.68,11.41,2.04c3.77,1.36,7.21,3.34,10.3,5.94,2.97,2.72,5.38,6.12,7.24,10.21,1.86,4.08,2.78,8.78,2.78,14.1v69.77c0,5.57-.93,10.33-2.78,14.29-1.86,3.96-4.27,7.24-7.24,9.83-3.09,2.72-6.53,4.76-10.3,6.12-3.77,1.36-7.58,2.04-11.41,2.04s-7.64-.68-11.41-2.04c-3.77-1.36-7.14-3.4-10.11-6.12-3.09-2.6-5.57-5.87-7.42-9.83-1.86-3.96-2.78-8.72-2.78-14.29V32.29ZM550.17,102.06c0,4.58,1.27,7.95,3.8,10.11,2.53,2.17,5.53,3.25,9,3.25s6.46-1.08,9-3.25c2.53-2.16,3.8-5.53,3.8-10.11V32.29c0-4.58-1.27-7.95-3.8-10.11-2.54-2.16-5.54-3.25-9-3.25s-6.47,1.08-9,3.25c-2.54,2.17-3.8,5.54-3.8,10.11v69.77Z"/>
      <path class="cls-1" d="M610.29,32.29c0-5.32.93-10.02,2.78-14.1,1.86-4.08,4.33-7.48,7.42-10.21,2.97-2.6,6.34-4.58,10.11-5.94,3.77-1.36,7.58-2.04,11.41-2.04s7.64.68,11.41,2.04c3.77,1.36,7.21,3.34,10.3,5.94,2.97,2.72,5.38,6.12,7.24,10.21,1.86,4.08,2.78,8.78,2.78,14.1v69.77c0,5.57-.93,10.33-2.78,14.29-1.86,3.96-4.27,7.24-7.24,9.83-3.09,2.72-6.53,4.76-10.3,6.12-3.77,1.36-7.58,2.04-11.41,2.04s-7.64-.68-11.41-2.04c-3.77-1.36-7.14-3.4-10.11-6.12-3.09-2.6-5.57-5.87-7.42-9.83-1.86-3.96-2.78-8.72-2.78-14.29V32.29ZM629.22,102.06c0,4.58,1.27,7.95,3.8,10.11,2.53,2.17,5.53,3.25,9,3.25s6.46-1.08,9-3.25c2.53-2.16,3.8-5.53,3.8-10.11V32.29c0-4.58-1.27-7.95-3.8-10.11-2.54-2.16-5.54-3.25-9-3.25s-6.47,1.08-9,3.25c-2.54,2.17-3.8,5.54-3.8,10.11v69.77Z"/>
      <path class="cls-1" d="M690.45,133.23V1.11h30.43c22.27,0,33.4,12.93,33.4,38.78,0,7.79-1.21,14.41-3.62,19.85-2.41,5.45-6.65,9.83-12.71,13.17l20.41,60.31h-20.04l-17.63-56.41h-11.32v56.41h-18.93ZM709.38,18.93v41.19h10.76c3.34,0,6-.46,7.98-1.39,1.98-.93,3.53-2.26,4.64-3.99.99-1.73,1.67-3.86,2.04-6.4.37-2.53.56-5.47.56-8.81s-.19-6.28-.56-8.81c-.37-2.53-1.11-4.73-2.23-6.59-2.35-3.46-6.8-5.2-13.36-5.2h-9.83Z"/>
      <path class="cls-1" d="M769.5,133.23V1.11h28.02c10.88,0,19.14,2.97,24.77,8.91,5.63,5.94,8.44,14.35,8.44,25.24v61.79c0,12.37-3,21.5-9,27.37-6,5.88-14.63,8.81-25.89,8.81h-26.35ZM788.42,18.93v96.49h8.72c5.32,0,9.09-1.33,11.32-3.99,2.23-2.66,3.34-6.83,3.34-12.53v-63.65c0-5.2-1.05-9.21-3.15-12.06-2.1-2.84-5.94-4.27-11.5-4.27h-8.72Z"/>
      <path class="cls-1" d="M849.1,133.23V1.11h18.93v132.12h-18.93Z"/>
      <path class="cls-1" d="M885.65,133.23V1.11h18.18l28.58,79.6h.37V1.11h18.93v132.12h-17.81l-28.95-79.42h-.37v79.42h-18.93Z"/>
      <path class="cls-1" d="M960.25,133.23L989.75,1.11h15.77l29.5,132.12h-18.93l-5.57-28.39h-25.79l-5.57,28.39h-18.93ZM1007.01,87.03l-9.28-47.87h-.37l-9.28,47.87h18.93Z"/>
      <path class="cls-1" d="M1056.73,133.23V18.93h-21.9V1.11h62.72v17.81h-21.9v114.3h-18.93Z"/>
      <path class="cls-1" d="M1105.9,133.23V1.11h56.41v17.81h-37.48v38.78h32.66v17.81h-32.66v38.78h37.48v18.93h-56.41Z"/>
    </g>
  </g>
</svg>