<?xml version="1.0" encoding="UTF-8"?>
<svg id="_レイヤー_2" data-name="レイヤー 2" xmlns="http://www.w3.org/2000/svg" viewBox="0 0 206.94 82.43">
  <defs>
    <style>
      .cls-1 {
        fill: #4d4d4d;
      }
    </style>
  </defs>
  <g id="_編集箇所" data-name="編集箇所">
    <g>
      <path class="cls-1" d="M32.53,10.4c-.31,3.15-3.06,6.95-7.22,8.58-2.13.84-2.57-1.61-1.03-2.09,3.5-1.1,5.72-4.33,5.92-6.58.02-.33-.02-.68-.26-1.01-.09-.11-.11-.22-.15-.33-1.34.15-2.6.33-3.56.44-1.25.13-2.02.37-2.73.42-1.45.07-1.72-2.09-.02-2.22.79-.07,1.8-.04,2.77-.15,1.67-.18,5.37-.59,7.66-.79,1.34-.11,2.07-.33,3.12-.18.99.13,1.36.46,1.34,1.1-.02.55-.51,1.08-1.45,1.08-1.34-.02-2.53-.09-3.78,0-.24.02-.48.02-.75.04.24.46.22,1.12.15,1.69ZM31.67,4.79c-1.3.09-2,.2-2.99.31-.99.11-1.65.22-2.6.2-1.41-.02-1.76-2.05,0-2.11.77-.02,1.39.04,2.18-.04,1.06-.11,2.05-.22,3.37-.35.4-.04.73-.13,1.03-.2.33-.07.64-.15,1.06-.13,1.67.07,2.02,2.09-.04,2.22-.73.04-1.28.07-2,.11ZM36.8,3.91c-.2-.4-1.06-1.39-1.43-1.67-.97-.7.15-1.78,1.06-1.19.51.33,1.45,1.14,1.8,1.76.62,1.08-.92,2.09-1.43,1.1ZM39.75,2.99c-.35-.4-1.1-1.34-1.5-1.61-.99-.66.09-1.78,1.01-1.23.53.33,1.5,1.1,1.87,1.69.66,1.06-.64,1.98-1.39,1.14Z"/>
      <path class="cls-1" d="M52.75,8.84c.04,1.1.07,2.11.04,2.71-.04,1.67-2.44,1.8-2.29.18.07-.73.09-1.69.07-2.71-.66.07-1.25.13-1.69.18-1.78.2-2.62.31-3.3.35-1.52.11-1.78-2.13.04-2.16.88,0,2.13-.09,3.01-.18.35-.04.99-.09,1.8-.15-.02-.31-.07-.59-.11-.88-.09-.59-.2-1.14-.26-1.56-.29-1.58,2.05-1.87,2.29-.37.07.37.09.92.18,1.58.04.33.09.66.11,1.03.97-.09,2.02-.15,3.04-.22,0-.48.02-.95.02-1.43.02-.75,0-1.5-.09-2.24-.18-1.65,2.33-1.65,2.4-.2.04.73.04,1.52,0,2.24-.02.48-.07.99-.09,1.47.46-.02.9-.04,1.3-.07,1.14-.04,2.07-.15,3.19-.13,1.76.02,1.96,2.22.02,2.24-1.19.02-1.94-.02-2.95-.02-.53,0-1.1.02-1.67.04-.22,3.98-2.09,8.27-6.73,10.54-1.83.88-2.57-1.17-1.14-1.8,4.09-1.83,5.48-5.46,5.68-8.65-.99.07-1.96.13-2.86.2ZM59.41,3.82c-1.08-.46-.26-1.74.73-1.36.57.2,1.67.77,2.13,1.28.84.88-.42,2.18-1.12,1.34-.29-.33-1.32-1.08-1.74-1.25ZM61.33,1.97c-1.1-.42-.31-1.74.7-1.41.57.2,1.67.73,2.16,1.21.86.86-.35,2.22-1.08,1.41-.29-.33-1.34-1.03-1.78-1.21Z"/>
      <path class="cls-1" d="M69.66,14.63c-2.05,1.25-3.19-1.01-1.67-1.76,3.54-1.74,7.06-5.15,9.24-8.56.22-.35.64-1.32.79-1.74.46-1.3,3.04-.64,2.27.99-.29.59-.4.99-1.08,1.91-.62.81-1.21,1.58-1.8,2.31.09.09.15.2.2.33.18.48.18.68.11,2.18-.09,1.72-.07,5.06,0,7.44.02,1.03-.59,1.41-1.17,1.47-.57.07-1.19-.35-1.17-1.32.02-2.35.26-5.26.18-7.35,0-.22-.02-.42-.04-.62-1.72,1.8-3.54,3.3-5.85,4.71Z"/>
      <path class="cls-1" d="M92.1,8.93c-.92-.66-2.09-1.28-3.12-1.5-1.32-.29-.77-2.49.9-2.07,1.17.31,2.55.79,3.63,1.47.7.44.7,1.25.37,1.78s-1.06.84-1.78.31ZM93.05,17.22c-.75.4-1.23.64-2.11.7-1.83.15-2.09-2.16-.68-2.31.44-.04,1.23-.35,1.69-.55,3.98-1.8,7.55-5.39,9.77-9.68.73-1.39,2.95-.46,1.98,1.3-2.73,4.95-6.14,8.16-10.65,10.54Z"/>
      <path class="cls-1" d="M109.11,17.62c-1.63.62-2.75-1.45-.86-2.09,4.27-1.47,8.08-5.13,9.84-8.45.18-.35.07-.51-.2-.48-1.08.11-3.59.81-4.16.95-1.03.22-1.34.35-2.22.37-1.41.02-1.8-2.27.02-2.27.62,0,1.41-.15,1.96-.24.79-.13,3.45-.84,5.3-1.01,1.87-.18,2.84,1.12,2.11,2.4-.81,1.43-1.72,2.84-2.77,4.14,2.07.95,4.77,2.38,6.03,4.18.48.68.24,1.45-.2,1.83s-1.14.42-1.63-.2c-1.14-1.43-3.61-3.34-5.57-4.25-2.02,2.13-4.51,3.92-7.66,5.13Z"/>
      <path class="cls-1" d="M133.77,11.72c-1.52,1.01-2.82-.99-1.28-1.91,2.13-1.3,3.74-3.5,4.77-5.1.37-.57.7-1.25.86-1.8.4-1.47,2.6-1.08,2.35.37-.04.31-.18.64-.33.97,1.06-.18,2.2-.44,3.19-.51,1.54-.09,2.9.99,2.07,2.42-3.54,6.07-6.75,10.32-12.7,12.63-1.89.73-2.75-1.52-.88-2.13,4.64-1.56,8.25-5.52,10.78-10.3.22-.44.02-.53-.31-.53-.88.02-2.64.4-3.52.55-1.32,1.83-3.08,4.03-5.02,5.35Z"/>
      <path class="cls-1" d="M162.95,10.82h-1.14c-4.2,0-7.42.2-9.15.26-1.14.04-1.74.07-2.18.07-.26,0-.46-.02-.7-.02-.84-.02-1.28-.62-1.28-1.19s.44-1.08,1.32-1.08h.13c.81.04,1.78.07,2.66.07,1.8,0,6.51-.26,10.39-.37h.04c.88,0,1.34.57,1.34,1.12s-.46,1.14-1.41,1.14h-.02Z"/>
      <path class="cls-1" d="M167.67,15.62c2.9-1.61,4.44-4.07,5.02-6.4.15-.62.18-1.3.11-1.96-.15-1.56,2.29-1.85,2.4-.09.04.68.04,1.03-.29,2.31-.75,2.77-2.42,5.81-5.85,7.99-1.56.99-2.97-.97-1.39-1.85ZM178.35,16.21c-1.5.59-2.18-.46-1.96-1.52.31-1.5.59-5.08.51-6.82-.02-.55-.07-.95-.18-1.45-.31-1.47,1.89-1.98,2.35-.62.24.68.09,1.12.04,2.29-.02.88-.31,3.96-.31,4.71,0,.51.04.55.55.26,1.72-.97,3.72-3.32,4.93-5.39.86-1.45,2.79-.07,1.94,1.34-1.69,2.75-5.1,6.09-7.88,7.2Z"/>
      <path class="cls-1" d="M65.42,41.76c-.31,3.15-3.06,6.95-7.22,8.58-2.13.84-2.57-1.61-1.03-2.09,3.5-1.1,5.72-4.33,5.92-6.58.02-.33-.02-.68-.26-1.01-.09-.11-.11-.22-.15-.33-1.34.15-2.6.33-3.56.44-1.25.13-2.02.37-2.73.42-1.45.07-1.72-2.09-.02-2.22.79-.07,1.8-.04,2.77-.15,1.67-.18,5.37-.59,7.66-.79,1.34-.11,2.07-.33,3.12-.18.99.13,1.36.46,1.34,1.1-.02.55-.51,1.08-1.45,1.08-1.34-.02-2.53-.09-3.78,0-.24.02-.48.02-.75.04.24.46.22,1.12.15,1.69ZM64.56,36.15c-1.3.09-2,.2-2.99.31-.99.11-1.65.22-2.6.2-1.41-.02-1.76-2.05,0-2.11.77-.02,1.39.04,2.18-.04,1.06-.11,2.05-.22,3.37-.35.4-.04.73-.13,1.03-.2.33-.07.64-.15,1.06-.13,1.67.07,2.02,2.09-.04,2.22-.73.04-1.28.07-2,.11ZM69.69,35.27c-.2-.4-1.06-1.39-1.43-1.67-.97-.7.15-1.78,1.06-1.19.51.33,1.45,1.14,1.8,1.76.62,1.08-.92,2.09-1.43,1.1ZM72.64,34.35c-.35-.4-1.1-1.34-1.5-1.61-.99-.66.09-1.78,1.01-1.23.53.33,1.5,1.1,1.87,1.69.66,1.06-.64,1.98-1.39,1.14Z"/>
      <path class="cls-1" d="M85.64,40.2c.04,1.1.07,2.11.04,2.71-.04,1.67-2.44,1.8-2.29.18.07-.73.09-1.69.07-2.71-.66.07-1.25.13-1.69.18-1.78.2-2.62.31-3.3.35-1.52.11-1.78-2.13.04-2.16.88,0,2.13-.09,3.01-.18.35-.04.99-.09,1.8-.15-.02-.31-.07-.59-.11-.88-.09-.59-.2-1.14-.26-1.56-.29-1.58,2.05-1.87,2.29-.37.07.37.09.92.18,1.58.04.33.09.66.11,1.03.97-.09,2.02-.15,3.04-.22,0-.48.02-.95.02-1.43.02-.75,0-1.5-.09-2.24-.18-1.65,2.33-1.65,2.4-.2.04.73.04,1.52,0,2.24-.02.48-.07.99-.09,1.47.46-.02.9-.04,1.3-.07,1.14-.04,2.07-.15,3.19-.13,1.76.02,1.96,2.22.02,2.24-1.19.02-1.94-.02-2.95-.02-.53,0-1.1.02-1.67.04-.22,3.98-2.09,8.27-6.73,10.54-1.83.88-2.57-1.17-1.14-1.8,4.09-1.83,5.48-5.46,5.68-8.65-.99.07-1.96.13-2.86.2ZM92.3,35.18c-1.08-.46-.26-1.74.73-1.36.57.2,1.67.77,2.13,1.28.84.88-.42,2.18-1.12,1.34-.29-.33-1.32-1.08-1.74-1.25ZM94.22,33.34c-1.1-.42-.31-1.74.7-1.41.57.2,1.67.73,2.16,1.21.86.86-.35,2.22-1.08,1.41-.29-.33-1.34-1.03-1.78-1.21Z"/>
      <path class="cls-1" d="M96.24,48.98c-1.63.62-2.75-1.45-.86-2.09,4.27-1.47,8.08-5.13,9.84-8.45.18-.35.07-.51-.2-.48-1.08.11-3.59.81-4.16.95-1.03.22-1.34.35-2.22.37-1.41.02-1.8-2.27.02-2.27.62,0,1.41-.15,1.96-.24.79-.13,3.45-.84,5.3-1.01,1.87-.18,2.84,1.12,2.11,2.4-.81,1.43-1.72,2.84-2.77,4.14,2.07.95,4.77,2.38,6.03,4.18.48.68.24,1.45-.2,1.83s-1.14.42-1.63-.2c-1.14-1.43-3.61-3.34-5.57-4.25-2.02,2.13-4.51,3.92-7.66,5.13Z"/>
      <path class="cls-1" d="M118.64,50.12c-1.89.66-2.68-1.45-.81-2.02,2.71-.84,5.17-2.62,7.24-4.93-.57-.26-1.14-.48-1.65-.62-1.23-.33-.66-2.2.9-1.76.64.18,1.36.42,2.11.73.88-1.19,1.69-2.46,2.38-3.78.18-.35-.07-.59-.35-.59-.95.02-2.44.46-3.5.51-1.32,1.85-3.06,4.09-5.02,5.46-1.5,1.03-2.82-.95-1.3-1.89,2.11-1.32,3.7-3.56,4.73-5.17.37-.57.64-1.36.77-1.89.31-1.34,2.35-1.19,2.27.48-.02.31-.09.64-.22.95,1.08-.15,2.22-.37,3.28-.44,1.54-.09,2.82.99,2,2.4-1.03,1.78-2.02,3.43-3.08,4.91.75.44,1.41.95,1.87,1.52.48.62.31,1.34-.09,1.72-.4.4-1.08.46-1.58-.09-.4-.44-.97-.88-1.61-1.32-2.16,2.6-4.71,4.58-8.34,5.85Z"/>
      <path class="cls-1" d="M148.01,49.73h-.22c-4.77-.44-7.79-3.74-7.79-7.13,0-.86.2-2.35,1.58-4.03.07-.09.11-.15.11-.2,0-.02-.02-.04-.04-.04-.04,0-.13.04-.22.09-3.45,1.78-3.87,1.91-4.36,1.91-.81,0-1.34-.57-1.34-1.19,0-.44.31-.92,1.01-1.14.46-.15,1.72-.53,2.38-.77,1.03-.37,2.86-.95,5.04-1.8,1.63-.64,3.78-1.36,5.83-1.36,1.1,0,1.5.51,1.5,1.08,0,1.12-.92,1.36-1.76,1.36-.15,0-.33,0-.51-.02-.18-.02-.35-.02-.53-.02-3.41,0-6.75,2.9-6.75,5.85,0,2.64,2.51,4.88,5.96,4.88,1.1,0,1.63.64,1.63,1.3,0,.62-.51,1.23-1.52,1.23ZM149.9,42c-.31-.35-1.41-1.17-1.87-1.36-.4-.15-.55-.42-.55-.68,0-.44.42-.86.97-.86.29,0,2.97,1.01,2.97,2.16,0,.55-.48,1.03-.95,1.03-.2,0-.4-.09-.57-.29ZM152.43,40.18c-.31-.35-1.45-1.12-1.91-1.3-.4-.15-.57-.42-.57-.68,0-.44.42-.88.97-.88.35,0,2.99.95,2.99,2.09,0,.55-.44,1.03-.92,1.03-.18,0-.37-.09-.55-.26Z"/>
      <path class="cls-1" d="M12.06,70.2c.57,0,.81.44.81.88s-.24.84-.64.9c-.2.02-.24.07-.33.26-.59,1.28-1.94,4.18-1.94,4.36,0,.26,1.03,2.11,1.21,2.11.4,0,3.15-6.12,3.15-6.47,0-.13-.11-.2-.24-.24-.35-.11-.53-.46-.53-.81,0-.48.31-.99.9-.99h.04c.35.02.68.02,1.01.02.44,0,.88,0,1.41-.02.79-.02.81.86.81.97,0,.44-.24.88-.66.88h-.11c-.22,0-.29.13-.35.29-1.17,2.51-2.86,6.14-3.74,7.61-.42.73-1.06,1.08-1.69,1.08s-1.28-.37-1.61-1.1c-.15-.33-.42-.99-.66-1.47-.24.53-.53,1.19-.66,1.5-.33.75-.95,1.08-1.58,1.08s-1.34-.37-1.72-1.1c-.81-1.54-2.82-5.68-3.72-7.64-.09-.2-.18-.15-.37-.18-.57-.04-.86-.51-.86-.95,0-.48.33-.97.97-.97h.07c.35.02.66.02.97.02.42,0,.81,0,1.34-.02h.04c.68,0,.95.42.95.86s-.26.9-.62.97c-.15.02-.24.13-.24.26,0,.02.02.04.02.07.68,1.72,2.22,4.69,2.93,6.18.07.15.15.22.22.22.2,0,1.17-1.96,1.17-2.11,0-.09-.02-.2-.04-.24-.77-1.54-1.5-3.12-1.94-4.09-.09-.18-.26-.24-.44-.31-.29-.11-.46-.48-.46-.88,0-.9.53-.92,1.23-.92h1.56c.53,0,.75.42.75.86,0,.4-.18.79-.46.86-.13.02-.2.07-.2.15,0,.37.97,2.53,1.08,2.53.15,0,1.03-2.22,1.03-2.44,0-.09-.07-.15-.2-.18-.35-.09-.55-.51-.55-.9,0-.44.24-.88.68-.88h.04c.35.02.64.02.9.02.35,0,.7,0,1.23-.02h.02Z"/>
      <path class="cls-1" d="M26,81.2c-3.01,0-5.26-2.27-5.26-5.54s2.38-5.68,5.21-5.68c3.04,0,4.75,2.22,4.75,3.89,0,1.03-.68,1.87-2.09,1.91-.68.02-1.14.02-5.41.02-.13,0-.18.18-.18.42.02,1.83,1.43,2.93,2.99,2.93,1.39,0,2.22-.66,2.86-1.34.22-.24.48-.35.75-.35.59,0,1.17.53,1.17,1.14,0,.26-.09.53-.33.77-1.06,1.1-2.24,1.83-4.47,1.83ZM28.42,73.5c0-.31-.46-1.61-2.44-1.61-1.78,0-2.75,1.54-2.75,1.91,0,.2.22.2,2.27.2.9,0,1.89,0,2.49-.02.26-.02.44-.22.44-.48Z"/>
      <path class="cls-1" d="M37.25,79.73c-.04-.07-.09-.11-.13-.11-.02,0-.07.04-.09.11-.26.75-.97,1.25-2.13,1.25-.99,0-1.56-.35-1.56-1.21,0-.53.33-1.06,1.01-1.06h.11c.44,0,.66-.26.66-.77.02-2.44.09-5.85.09-8.56,0-.66-.02-1.28-.02-1.83,0-.62-.07-.88-.64-.88-.51,0-1.21-.13-1.21-1.14,0-.57.33-1.14,1.01-1.14h.07c.26.02.48.02.7.02,1.69.02,2.24.79,2.24,2.35v.09c-.02,1.12-.04,2.66-.04,4.33,0,.09.02.11.04.11s.07,0,.11-.04c.81-.73,1.85-1.19,3.08-1.19,3.04,0,5.32,2.31,5.32,5.52s-2.29,5.52-5.32,5.52c-1.19,0-2.51-.46-3.3-1.39ZM43.67,75.59c0-2.18-1.41-3.52-3.17-3.52s-3.17,1.34-3.17,3.52,1.41,3.48,3.17,3.48,3.17-1.32,3.17-3.48Z"/>
      <path class="cls-1" d="M65.98,73.12c-.31,3.15-3.06,6.95-7.22,8.58-2.13.84-2.57-1.61-1.03-2.09,3.5-1.1,5.72-4.33,5.92-6.58.02-.33-.02-.68-.26-1.01-.09-.11-.11-.22-.15-.33-1.34.15-2.6.33-3.56.44-1.25.13-2.02.37-2.73.42-1.45.07-1.72-2.09-.02-2.22.79-.07,1.8-.04,2.77-.15,1.67-.18,5.37-.59,7.66-.79,1.34-.11,2.07-.33,3.12-.18.99.13,1.36.46,1.34,1.1-.02.55-.51,1.08-1.45,1.08-1.34-.02-2.53-.09-3.78,0-.24.02-.48.02-.75.04.24.46.22,1.12.15,1.69ZM65.12,67.51c-1.3.09-2,.2-2.99.31-.99.11-1.65.22-2.6.2-1.41-.02-1.76-2.05,0-2.11.77-.02,1.39.04,2.18-.04,1.06-.11,2.05-.22,3.37-.35.4-.04.73-.13,1.03-.2.33-.07.64-.15,1.06-.13,1.67.07,2.02,2.09-.04,2.22-.73.04-1.28.07-2,.11ZM70.25,66.63c-.2-.4-1.06-1.39-1.43-1.67-.97-.7.15-1.78,1.06-1.19.51.33,1.45,1.14,1.8,1.76.62,1.08-.92,2.09-1.43,1.1ZM73.2,65.71c-.35-.4-1.1-1.34-1.5-1.61-.99-.66.09-1.78,1.01-1.23.53.33,1.5,1.1,1.87,1.69.66,1.06-.64,1.98-1.39,1.14Z"/>
      <path class="cls-1" d="M88.4,71.56c.04,1.1.07,2.11.04,2.71-.04,1.67-2.44,1.8-2.29.18.07-.73.09-1.69.07-2.71-.66.07-1.25.13-1.69.18-1.78.2-2.62.31-3.3.35-1.52.11-1.78-2.13.04-2.16.88,0,2.13-.09,3.01-.18.35-.04.99-.09,1.8-.15-.02-.31-.07-.59-.11-.88-.09-.59-.2-1.14-.26-1.56-.29-1.58,2.05-1.87,2.29-.37.07.37.09.92.18,1.58.04.33.09.66.11,1.03.97-.09,2.02-.15,3.04-.22,0-.48.02-.95.02-1.43.02-.75,0-1.5-.09-2.24-.18-1.65,2.33-1.65,2.4-.2.04.73.04,1.52,0,2.24-.02.48-.07.99-.09,1.47.46-.02.9-.04,1.3-.07,1.14-.04,2.07-.15,3.19-.13,1.76.02,1.96,2.22.02,2.24-1.19.02-1.94-.02-2.95-.02-.53,0-1.1.02-1.67.04-.22,3.98-2.09,8.27-6.73,10.54-1.83.88-2.57-1.17-1.14-1.8,4.09-1.83,5.48-5.46,5.68-8.65-.99.07-1.96.13-2.86.2ZM95.06,66.55c-1.08-.46-.26-1.74.73-1.36.57.2,1.67.77,2.13,1.28.84.88-.42,2.18-1.12,1.34-.29-.33-1.32-1.08-1.74-1.25ZM96.98,64.7c-1.1-.42-.31-1.74.7-1.41.57.2,1.67.73,2.16,1.21.86.86-.35,2.22-1.08,1.41-.29-.33-1.34-1.03-1.78-1.21Z"/>
      <path class="cls-1" d="M105.31,77.35c-2.05,1.25-3.19-1.01-1.67-1.76,3.54-1.74,7.06-5.15,9.24-8.56.22-.35.64-1.32.79-1.74.46-1.3,3.04-.64,2.27.99-.29.59-.4.99-1.08,1.91-.62.81-1.21,1.58-1.8,2.31.09.09.15.2.2.33.18.48.18.68.11,2.18-.09,1.72-.07,5.06,0,7.44.02,1.03-.59,1.41-1.17,1.47-.57.07-1.19-.35-1.17-1.32.02-2.35.26-5.26.18-7.35,0-.22-.02-.42-.04-.62-1.72,1.8-3.54,3.3-5.85,4.71Z"/>
      <path class="cls-1" d="M127.75,71.65c-.92-.66-2.09-1.28-3.12-1.5-1.32-.29-.77-2.49.9-2.07,1.17.31,2.55.79,3.63,1.47.7.44.7,1.25.37,1.78s-1.06.84-1.78.31ZM128.7,79.95c-.75.4-1.23.64-2.11.7-1.83.15-2.09-2.16-.68-2.31.44-.04,1.23-.35,1.69-.55,3.98-1.8,7.55-5.39,9.77-9.68.73-1.39,2.95-.46,1.98,1.3-2.73,4.95-6.14,8.16-10.65,10.54Z"/>
      <path class="cls-1" d="M153.45,75.5c0,.37,0,.77-.04,1.21-.07.88-.66,1.34-1.19,1.34-.48,0-.9-.35-.9-1.03v-.2c.07-.53.09-1.03.09-1.47-.46.24-2.51,1.32-2.51,2.71,0,.37.18,1.67,2.42,1.67,1.01,0,2.13-.26,2.77-.46.2-.07.4-.09.55-.09.73,0,1.14.51,1.14,1.03,0,.46-.18,1.58-3.94,1.58s-4.93-1.89-4.93-3.5c0-2.68,3.12-4.36,4.27-4.95-.26-.86-.7-1.3-1.3-1.3-.35,0-.73.13-1.14.4-.92,1.03-1.47,1.34-1.96,1.34-.53,0-.95-.35-.95-.84,0-.26.13-.59.51-.9,1.19-1.06,1.78-1.61,2.82-3.34-.4.07-.75.09-1.08.09-2.22,0-2.24-1.23-2.24-1.41,0-.51.37-.97.9-.97.24,0,.51.09.79.29.2.13.48.18.81.18.18,0,.75-.02,1.74-.24.2-.57.29-.99.4-1.74.09-.55.48-.77.92-.77.57,0,1.19.4,1.19.97,0,.26-.09.62-.13.81.66-.33.75-.35.9-.35.53,0,.95.44.95.97,0,.73-.57,1.17-2.86,1.72-.33.68-.77,1.43-1.25,2.2,1.21,0,2.2.68,2.77,2.07,2.77-1.19,4.71-1.78,5.08-1.78.79,0,1.23.59,1.23,1.14,0,.35-.2.7-.59.86-.68.29-1.41.37-2.55.73-.92.29-1.87.64-2.73.99.04.33.04.68.04,1.06Z"/>
      <path class="cls-1" d="M176.82,76.49c.04.31.07.64.07.97,0,1.98-.92,4.97-4.75,4.97-1.72,0-2.64-.46-2.64-1.32,0-.55.42-1.03,1.03-1.03.11,0,.22,0,.35.04.48.15.99.24,1.45.24,2.46,0,2.46-2.95,2.46-3.12,0-.26-.02-.51-.07-.75l-9.33.04c-.68,0-1.01-.48-1.01-.97s.35-1.01.99-1.01l8.14.04c-.26-.18-.55-.35-.88-.46-.46-.15-.66-.44-.66-.73,0-.46.51-.92,1.17-.92.48,0,.95.24,1.3.44.57-.37,1.74-1.19,1.74-1.45,0-.09-.09-.13-.24-.13-.24-.02-.66-.02-1.17-.02-1.41,0-3.54.04-5.08.11h-.04c-.66,0-.99-.46-.99-.92s.33-.9,1.01-.92c.95-.04,2.13-.04,3.3-.04,1.61,0,3.21.02,4.22.04,1.25.02,1.78.66,1.78,1.34,0,1.08-1.17,1.98-3.15,3.21.11.15.22.31.31.46l6.56-.07c.64,0,.97.51.97,1.01s-.31.97-.95.97l-5.9-.02ZM180.45,69.45c0-.92-.48-1.08-1.39-1.1-1.76-.02-3.74-.04-5.66-.04-1.56,0-3.1.02-4.47.04-1.21.02-1.41.33-1.47,1.1v1.3c0,.62-.55.97-1.12.97-.51,0-1.03-.31-1.06-.99,0-.29-.02-.62-.02-.97,0-.37.02-.75.02-1.08.04-1.03.86-2.09,2.57-2.11l1.85-.02c-.11-.07-.2-.18-.29-.31-.46-.77-.95-1.06-1.54-1.58-.2-.18-.29-.37-.29-.57,0-.48.55-.95,1.12-.95.84,0,2.55,1.67,2.55,2.44,0,.4-.29.77-.64.97,1.94-.02,3.85-.02,5.79-.02.64-.73,1.21-2,1.56-2.9.2-.51.59-.7.99-.7.62,0,1.25.46,1.25,1.08,0,.42-.7,1.5-1.61,2.55.51,0,1.03.02,1.54.02,1.3.02,2.51.73,2.55,2.09.02.31.02.77.02,1.19,0,.31,0,.59-.02.81-.04.64-.62.97-1.17.97s-1.1-.31-1.1-.92v-1.25ZM174.22,66.44c-.31,0-.59-.15-.75-.53-.31-.81-.79-1.3-1.3-1.89-.13-.15-.2-.33-.2-.48,0-.46.55-.86,1.12-.86,1.12,0,2.33,2.16,2.33,2.66,0,.59-.64,1.1-1.21,1.1Z"/>
      <path class="cls-1" d="M189.4,80.41c-.24.09-.48.11-.68.11-.77,0-1.21-.48-1.21-1.03s.44-1.14,1.43-1.36c1.32-.29,1.98-1.56,3.76-2.75.2-.13.42-.2.62-.2.57,0,1.1.46,1.1,1.03,0,.31-.18.66-.57.99-1.85,1.45-2.95,2.73-4.44,3.21ZM196.04,80.23c-2.42,0-2.77-.59-2.77-1.28,0-.51.35-.99,1.03-.99h.18c.51.07.95.09,1.34.09,1.61,0,2.27-.48,2.27-1.12,0-.95-1.32-1.98-2.49-2.82-.62-.44-.95-1.03-.95-1.78,0-.92.53-2.11,1.69-3.5.29-.35.55-.62.55-.92,0-.2-.11-.42-.35-.66-.42-.42-.97-.59-1.47-.84-.37-.18-.53-.46-.53-.75,0-.51.46-1.03,1.08-1.03.51,0,3.59,1.32,3.59,3.21,0,.64-.35,1.25-.99,1.89-.75.7-1.47,1.54-1.47,2.22,0,.26.11.51.37.73,2.05,1.58,3.45,2.68,3.45,4.44s-1.78,3.1-4.53,3.1ZM204.29,75.96c-.46-1.25-1.23-1.61-2.11-1.61-.24,0-.51.02-.77.07-.07.02-.15.02-.22.02-.55,0-.86-.42-.86-.86,0-.46.26-1.14,2.05-1.14,2.64,0,4.07,1.94,4.07,2.97,0,.75-.62,1.25-1.21,1.25-.4,0-.77-.2-.95-.7ZM202.82,70.22c-.22-.37-1.14-1.32-1.54-1.58-.29-.18-.4-.42-.4-.62,0-.4.4-.77.88-.77.66,0,2.6,1.47,2.6,2.35,0,.55-.48.99-.95.99-.22,0-.44-.11-.59-.37ZM205.42,68.9c-.24-.37-1.17-1.28-1.58-1.52-.31-.18-.44-.42-.44-.64,0-.4.42-.79.9-.79.7,0,2.64,1.43,2.64,2.33,0,.53-.46.97-.92.97-.22,0-.44-.11-.59-.35Z"/>
    </g>
  </g>
</svg>