<?xml version="1.0" encoding="UTF-8"?>
<svg id="_レイヤー_2" data-name="レイヤー 2" xmlns="http://www.w3.org/2000/svg" viewBox="0 0 1155 112.57">
  <defs>
    <style>
      .cls-1 {
        fill: #f1e57f;
      }
    </style>
  </defs>
  <g id="_編集箇所" data-name="編集箇所">
    <g>
      <path class="cls-1" d="M21.52,1.58v109.48H0V1.58h21.52ZM26.73,111.06H9.07l.14-19.33h17.53c4.1,0,7.36-.88,9.78-2.63,2.41-1.75,4.15-4.62,5.21-8.61,1.06-3.99,1.59-9.24,1.59-15.75v-16.92c0-4.91-.29-9.09-.88-12.52-.59-3.43-1.52-6.2-2.81-8.31-1.29-2.11-3-3.63-5.14-4.59-2.14-.95-4.77-1.43-7.88-1.43H8.73V1.58h17.87c5.77,0,11.01,1.04,15.7,3.12,4.69,2.08,8.72,5.11,12.08,9.1,3.36,3.99,5.96,8.84,7.78,14.55,1.83,5.71,2.74,12.26,2.74,19.63v16.77c0,7.32-.91,13.84-2.74,19.55-1.83,5.71-4.42,10.56-7.78,14.55-3.36,3.99-7.38,7.02-12.05,9.1-4.67,2.08-9.87,3.12-15.6,3.12Z"/>
      <path class="cls-1" d="M96.85,1.58v109.48h-21.52V1.58h21.52ZM132.72,1.58v19.4h-42.91V1.58h42.91ZM127.03,45.49v18.65h-37.22v-18.65h37.22ZM132.72,91.74v19.33h-42.91v-19.33h42.91Z"/>
      <path class="cls-1" d="M181.92,82.11c0-1.85-.16-3.53-.47-5.04-.32-1.5-.94-2.88-1.86-4.14-.93-1.25-2.28-2.53-4.06-3.83-1.78-1.3-4.14-2.66-7.07-4.06-3.61-1.65-7.12-3.47-10.52-5.45-3.41-1.98-6.47-4.3-9.2-6.96-2.73-2.66-4.9-5.76-6.5-9.32-1.6-3.56-2.4-7.75-2.4-12.56s.79-8.88,2.37-12.67c1.58-3.78,3.8-7.02,6.67-9.7,2.86-2.68,6.23-4.74,10.08-6.17S167.07.08,171.77.08c6.23,0,11.7,1.42,16.41,4.25,4.71,2.83,8.38,6.79,11,11.88,2.62,5.09,3.93,11.02,3.93,17.78h-21.45c0-2.91-.35-5.49-1.05-7.75-.7-2.26-1.82-4.02-3.35-5.3-1.53-1.28-3.52-1.92-5.96-1.92-2.21,0-4.06.53-5.55,1.58s-2.61,2.49-3.35,4.32c-.74,1.83-1.12,3.82-1.12,5.98,0,1.76.37,3.31,1.12,4.66.74,1.35,1.76,2.61,3.05,3.76,1.29,1.15,2.81,2.26,4.57,3.31,1.76,1.05,3.7,2.06,5.82,3.01,4.42,1.96,8.36,4.07,11.81,6.35,3.45,2.28,6.34,4.88,8.66,7.78,2.32,2.91,4.07,6.18,5.24,9.81,1.17,3.64,1.76,7.76,1.76,12.37s-.71,9.01-2.13,12.75c-1.42,3.74-3.49,6.94-6.19,9.62-2.71,2.68-5.97,4.73-9.78,6.13-3.81,1.4-8.09,2.11-12.82,2.11-4.47,0-8.78-.71-12.93-2.14-4.15-1.43-7.84-3.63-11.06-6.62-3.23-2.98-5.78-6.77-7.65-11.35-1.87-4.59-2.81-10.06-2.81-16.43h21.52c0,3.26.25,6.03.74,8.31.5,2.28,1.29,4.1,2.37,5.45,1.08,1.35,2.46,2.33,4.13,2.93,1.67.6,3.65.9,5.96.9s4.2-.5,5.55-1.5c1.35-1,2.31-2.39,2.88-4.17.56-1.78.85-3.72.85-5.83Z"/>
      <path class="cls-1" d="M235.59,1.58v109.48h-21.45V1.58h21.45Z"/>
      <path class="cls-1" d="M316.67,53.09v45.42c-1.49,1.65-3.63,3.58-6.43,5.79-2.8,2.21-6.4,4.14-10.79,5.79s-9.67,2.48-15.8,2.48c-5.55,0-10.57-.95-15.06-2.86-4.49-1.9-8.32-4.81-11.5-8.72s-5.63-8.8-7.34-14.66c-1.72-5.87-2.57-12.81-2.57-20.83v-18.35c0-7.97.85-14.91,2.54-20.83,1.69-5.91,4.08-10.83,7.17-14.74,3.09-3.91,6.79-6.82,11.1-8.72,4.31-1.9,9.15-2.86,14.52-2.86,7.62,0,13.9,1.42,18.81,4.25,4.92,2.83,8.62,6.99,11.1,12.48,2.48,5.49,3.88,12.19,4.2,20.11h-20.64c-.27-4.41-.89-7.9-1.86-10.45-.97-2.56-2.35-4.39-4.13-5.49-1.78-1.1-4.07-1.65-6.87-1.65-2.35,0-4.41.49-6.19,1.47-1.78.98-3.28,2.56-4.5,4.74s-2.12,5.04-2.71,8.57c-.59,3.53-.88,7.86-.88,12.97v18.5c0,5.06.32,9.39.95,12.97.63,3.58,1.58,6.46,2.84,8.61,1.26,2.16,2.93,3.72,5.01,4.7,2.07.98,4.53,1.47,7.38,1.47,2.07,0,3.76-.25,5.04-.75,1.29-.5,2.35-1.08,3.18-1.73.83-.65,1.5-1.1,2-1.35v-18.95h-12.99v-17.37h34.45Z"/>
      <path class="cls-1" d="M397.2,1.58v109.48h-21.11l-27.88-68.13v68.13h-20.98V1.58h21.05l28.02,68.5V1.58h20.91Z"/>
      <path class="cls-1" d="M484.71,74.29h21.39c-.14,8.27-1.61,15.25-4.43,20.94-2.82,5.69-6.79,10-11.91,12.93-5.12,2.93-11.2,4.4-18.24,4.4-5.59,0-10.56-1.07-14.89-3.2-4.33-2.13-7.99-5.24-10.96-9.32-2.98-4.09-5.23-9.07-6.77-14.96-1.53-5.89-2.3-12.64-2.3-20.27v-16.99c0-7.62.81-14.39,2.44-20.3,1.62-5.91,3.95-10.93,6.97-15.04,3.02-4.11,6.69-7.22,11-9.32,4.31-2.11,9.15-3.16,14.52-3.16,7.35,0,13.54,1.53,18.54,4.59,5.01,3.06,8.87,7.49,11.57,13.31,2.71,5.82,4.26,12.86,4.67,21.13h-21.52c.04-5.01-.36-8.94-1.22-11.77-.86-2.83-2.25-4.84-4.16-6.02-1.92-1.18-4.55-1.77-7.88-1.77-2.39,0-4.44.48-6.16,1.43-1.72.95-3.09,2.56-4.13,4.81-1.04,2.26-1.81,5.18-2.3,8.76-.5,3.58-.74,7.98-.74,13.2v17.14c0,5.21.19,9.62.58,13.23.38,3.61,1.07,6.53,2.06,8.76.99,2.23,2.35,3.83,4.06,4.81,1.71.98,3.93,1.47,6.63,1.47,2.98,0,5.44-.51,7.38-1.54,1.94-1.03,3.39-2.9,4.36-5.6.97-2.71,1.46-6.59,1.46-11.66Z"/>
      <path class="cls-1" d="M585.08,47.97v17.45c0,7.77-.86,14.6-2.57,20.49-1.72,5.89-4.16,10.8-7.34,14.74-3.18,3.94-6.96,6.91-11.34,8.91-4.38,2-9.25,3.01-14.62,3.01s-10.25-1-14.65-3.01-8.2-4.97-11.4-8.91c-3.2-3.93-5.67-8.85-7.41-14.74-1.74-5.89-2.61-12.72-2.61-20.49v-17.45c0-7.87.86-14.8,2.57-20.79,1.71-5.99,4.17-10.98,7.38-14.96,3.2-3.99,7-7,11.4-9.06,4.4-2.05,9.28-3.08,14.65-3.08s10.19,1.03,14.58,3.08c4.4,2.06,8.19,5.08,11.37,9.06s5.64,8.97,7.38,14.96c1.74,5.99,2.61,12.92,2.61,20.79ZM563.49,65.42v-17.6c0-5.01-.3-9.31-.91-12.9-.61-3.58-1.51-6.5-2.71-8.76-1.2-2.26-2.7-3.91-4.5-4.96-1.8-1.05-3.88-1.58-6.23-1.58-2.48,0-4.62.53-6.43,1.58-1.81,1.05-3.29,2.71-4.47,4.96-1.17,2.26-2.05,5.18-2.64,8.76-.59,3.58-.88,7.88-.88,12.9v17.6c0,4.91.29,9.12.88,12.63.59,3.51,1.49,6.37,2.71,8.57,1.22,2.21,2.73,3.83,4.53,4.89,1.8,1.05,3.93,1.58,6.36,1.58s4.42-.53,6.23-1.58c1.8-1.05,3.3-2.68,4.5-4.89,1.19-2.21,2.09-5.06,2.67-8.57.59-3.51.88-7.72.88-12.63Z"/>
      <path class="cls-1" d="M665.95,47.97v17.45c0,7.77-.86,14.6-2.57,20.49-1.71,5.89-4.16,10.8-7.34,14.74-3.18,3.94-6.96,6.91-11.34,8.91-4.38,2-9.25,3.01-14.62,3.01s-10.25-1-14.65-3.01-8.2-4.97-11.4-8.91c-3.2-3.93-5.67-8.85-7.41-14.74-1.74-5.89-2.61-12.72-2.61-20.49v-17.45c0-7.87.86-14.8,2.57-20.79,1.71-5.99,4.17-10.98,7.38-14.96,3.2-3.99,7-7,11.4-9.06,4.4-2.05,9.28-3.08,14.65-3.08s10.19,1.03,14.58,3.08c4.4,2.06,8.19,5.08,11.37,9.06,3.18,3.99,5.64,8.97,7.38,14.96,1.74,5.99,2.61,12.92,2.61,20.79ZM644.37,65.42v-17.6c0-5.01-.3-9.31-.91-12.9-.61-3.58-1.51-6.5-2.71-8.76-1.2-2.26-2.7-3.91-4.5-4.96-1.81-1.05-3.88-1.58-6.23-1.58-2.48,0-4.63.53-6.43,1.58-1.81,1.05-3.29,2.71-4.47,4.96-1.17,2.26-2.05,5.18-2.64,8.76-.59,3.58-.88,7.88-.88,12.9v17.6c0,4.91.29,9.12.88,12.63.59,3.51,1.49,6.37,2.71,8.57,1.22,2.21,2.73,3.83,4.53,4.89,1.8,1.05,3.93,1.58,6.36,1.58s4.42-.53,6.23-1.58c1.8-1.05,3.3-2.68,4.5-4.89,1.19-2.21,2.09-5.06,2.67-8.57.59-3.51.88-7.72.88-12.63Z"/>
      <path class="cls-1" d="M676.45,1.58h32.69c6.59,0,12.25,1.25,16.99,3.76,4.74,2.51,8.37,6.22,10.9,11.13,2.53,4.91,3.79,11,3.79,18.27,0,6.02-.71,11.13-2.13,15.34-1.42,4.21-3.44,7.7-6.06,10.45-2.62,2.76-5.71,4.99-9.27,6.69l-6.83,4.51h-25.99l-.14-19.4h18.21c2.44,0,4.44-.64,6.02-1.92,1.58-1.28,2.76-3.08,3.55-5.41.79-2.33,1.18-5.08,1.18-8.23s-.37-6.14-1.12-8.5c-.74-2.36-1.86-4.16-3.35-5.41-1.49-1.25-3.41-1.88-5.75-1.88h-11.17v90.08h-21.52V1.58ZM720.64,111.06l-17.73-48.65h22.6l18.2,47.52v1.13h-23.08Z"/>
      <path class="cls-1" d="M772.75,1.58v109.48h-21.52V1.58h21.52ZM777.96,111.06h-17.66l.14-19.33h17.53c4.1,0,7.37-.88,9.78-2.63,2.41-1.75,4.15-4.62,5.21-8.61,1.06-3.99,1.59-9.24,1.59-15.75v-16.92c0-4.91-.29-9.09-.88-12.52-.59-3.43-1.52-6.2-2.81-8.31-1.29-2.11-3-3.63-5.14-4.59-2.14-.95-4.77-1.43-7.88-1.43h-17.87V1.58h17.87c5.77,0,11.01,1.04,15.7,3.12,4.69,2.08,8.72,5.11,12.08,9.1,3.36,3.99,5.96,8.84,7.78,14.55s2.74,12.26,2.74,19.63v16.77c0,7.32-.91,13.84-2.74,19.55s-4.42,10.56-7.78,14.55c-3.36,3.99-7.38,7.02-12.05,9.1-4.67,2.08-9.87,3.12-15.6,3.12Z"/>
      <path class="cls-1" d="M849.03,1.58v109.48h-21.45V1.58h21.45Z"/>
      <path class="cls-1" d="M931.86,1.58v109.48h-21.11l-27.88-68.13v68.13h-20.98V1.58h21.05l28.02,68.5V1.58h20.91Z"/>
      <path class="cls-1" d="M980.25,22.86l-19.83,88.2h-22.94L968.14,1.58h14.28l-2.17,21.28ZM996.5,70.23v19.33h-43.65v-19.33h43.65ZM995.75,111.06l-19.9-88.2-2.44-21.28h14.48l30.79,109.48h-22.94Z"/>
      <path class="cls-1" d="M1089.62,1.58v19.4h-69.23V1.58h69.23ZM1065.39,1.58v109.48h-21.45V1.58h21.45Z"/>
      <path class="cls-1" d="M1119.13,1.58v109.48h-21.52V1.58h21.52ZM1155,1.58v19.4h-42.91V1.58h42.91ZM1149.31,45.49v18.65h-37.22v-18.65h37.22ZM1155,91.74v19.33h-42.91v-19.33h42.91Z"/>
    </g>
  </g>
</svg>