<?xml version="1.0" encoding="UTF-8"?>
<svg id="_レイヤー_2" data-name="レイヤー 2" xmlns="http://www.w3.org/2000/svg" viewBox="0 0 196.66 77.34">
  <defs>
    <style>
      .cls-1 {
        fill: #333;
      }
    </style>
  </defs>
  <g id="_編集箇所" data-name="編集箇所">
    <g>
      <path class="cls-1" d="M23.01,15.62c.12-.17.3-.25.47-.25.32,0,1.45-1.3,2.05-2.54.62-1.22,1.2-4.02.95-4.29-.08-.05-.9-.1-2.44-.2-2.25-.15-3.39-.4-3.54-.87.12-.07.95-.12,2.47-.15,1.55-.02,3.52-.02,5.91,0l3.79.05c.85-.92,1.35-1.4,1.55-1.4.4,0,1.75,1,1.75,1.32,0,.3-.22.85-.95.87l-6.01.15.47.55c1.42,1.72-.77,4.94-1.67,5.81-.92.92-3.12,1.82-4.02,2.05-.42.12-.8.02-1.1-.2-.55-.4-.57-.62-.12-.62.15,0,.3-.07.45-.27ZM29.72,2.62l.37-.45c1.02-1.35,2.62.9,1.92,1.25-.37.17-1.2.22-2.54.22-3.34,0-5.31-.25-5.89-.65-.3-.22-.47-.4-.47-.47.35-.07,2.54-.05,6.61.1ZM33.84,2.67c-.05-.67.08-.87.5-.97.05-.02.25.1.55.37.62.62.67,1.55.35,2.05q-.32.5-.85-.02c-.47-.5-.55-.7-.55-1.42ZM36.93.82c.1.03,1,.62,1.12,1.52.08.45-.07.82-.37,1.2l-.42.55-.55-.55c-.52-.52-.62-.5-.45-1.65.1-.55.17-.87.3-.95.17-.1.27-.15.37-.12Z"/>
      <path class="cls-1" d="M42.2,6.66c0-.3.07-1.82.12-2.69.07-.9.12-1.25.95-.92.82.35,1.5,1.22,1.62,1.57.07.2.1.5.07.97v1.05c.62-.02,1.52,0,2.69.07-.02-1.4,0-2.35,0-2.77.07-.9.1-.9,1.17-.37,1.2.67,1.67,1.17,1.5,2.32l.7-.25c.35-.1.57-.15.67-.15.12,0,.32.1.6.27,1.2.8.85,1.4-.77,1.6-1.62.17-1.22-.27-1.67,1.75-.42,2.02-1.85,5.99-2.32,6.64-.25.32-.4.62-.45.92-.07.3-.15.45-.22.45-.3,0-.97-.3-.97-.5.17-.77.55-2.32.72-3.04.1-.35.22-.87.32-1.55.12-.65.22-1.25.32-1.72.07-.47.15-1.02.27-1.6.25-1.15.17-1.3-.9-1.22h-.32c-1.72.07-1.5-.07-1.8,1.5-.15.8-.22,1.35-.22,1.7,0,.65-.05.8-.62.35-.62-.45-.95-.9-.95-1.35.02-.22-.05-.5-.2-.87-.17-.37-.22-.62-.25-.77,0-.2-.15-.35-.4-.4-.25-.07-.8-.12-1.65-.15-.85,0-1.37-.1-1.6-.32-.35-.27-.35-.47,0-.5h3.57ZM51.93,4.44c0-.1-.12-.25-.32-.47-.45-.45-.45-1.4-.2-1.92.12-.25.25-.37.35-.37.2,0,.72.35.85.77.12.42.27,1.9.27,2.42,0,.25,0,.42-.02.45-.07,0-.25-.12-.52-.37s-.4-.4-.4-.5ZM53.93,1.22c.25,0,.9.52.95.9.07.37,0,2.79-.17,3.09-.07.15-.15.22-.22.2-.12.02-.62-.3-.72-.47-.08-.1-.12-.2-.17-.32-.02-.1-.12-.27-.25-.42-.47-.52-.27-2.02.1-2.57.2-.27.37-.4.5-.4Z"/>
      <path class="cls-1" d="M69.38,7.41c.87.17.45.42,1.35.6-.22.03.15.15.15.85v7.16c0,.32-.37.85-.7.85-1.27.15-1.25.12-1.77.12-.2,0-.4-.67-.4-.85v-7.66c-2.17,1.85-4.52,2-7.43.85.75-.35,1.45-.5,1.82-.85,2.57-1.17,3.49-1.7,4.79-3.04,1.6-1.52,2.07-3.42,3.14-4.96.22-.3.57-.47.92-.47,1.27.32,1.15.67,2.59.97-1.05,2.99-2.54,4.29-4.47,6.44Z"/>
      <path class="cls-1" d="M96.45,6.96c-.35.57-.8,1.37-1.52,2.3-.37.45-.8,1.02-1.35,1.75-1.05,1.37-2.99,2.84-6.91,4.47-1.27.52-2.15.5-4.14-.52-1.22-.65-1.82-1.07-1.67-1.37,0-.02,0-.07.03-.1.02-.02.5-.07,1.37-.2,1.8-.3,4.57-1.27,5.64-1.72,1.05-.45,2.15-1.17,4.39-2.74,1.1-.77,2.05-1.7,2.79-2.79.4-.55.37-.55,1.07-.22.35.2.55.4.55.62.02.07-.07.27-.25.55ZM85.87,6.06c-.42,0-1.47-.72-3.24-2.02-.25-.17-.42-.5-.5-.95l-.17-.7h2.49l.77.87c.45.52.82,1.02,1.12,1.52.3.5.4.82.3,1-.1.2-.35.27-.77.27Z"/>
      <path class="cls-1" d="M115.64,15.32c-.85.12-1.77.6-2.82.72-.25,0-.7-.12-1.07-.25-.8-.82-1.75-1.65-2.67-2.32-.12-.22-.37-.47-.72-.82-2.22,2.57-4.57,4.19-8.08,2.67,7.71-4.07,7.73-7.46,10.58-12.02-2.92.25-6.36.27-8.78-.55v-.25c.2-.1.67-.1,1.02-.1,2.92.1,5.71-.25,8.66-.6h.5c2.54.35,2.54,0,1.62,2.32-.92,2.12-2.64,4.47-3.57,6.34,1.4,1.62,3.67,2.79,5.19,4.42.15,0,.15.1.15.45Z"/>
      <path class="cls-1" d="M124.25,16.12c2.62-1.45,7.36-6.46,6.86-10.58-.75,0-2.99-.45-3.74-.45-.27,0-.42.3-.6.47-.42.7-.87,1.3-1.45,2.05-.92,1-2.07,1.15-3.24.87-.3,0-.62-.32-.9-.57.6-.47,1.02-.75,1.32-1.2.9-1.02,1.32-2.35,1.15-3.67,0-.9.32-1.02,1.07-1.02.27,0,.45.12.72.12q1.77.15,1.92,2.07h.9c1.62.15,3.22.15,4.89.27.57,0,.85.15.85.9,0,3.37-1.17,6.46-3.52,8.83-1.5,1.32-3.12,2.49-5.31,2.35-.3,0-.77,0-1.05-.17,0-.1.12-.1.12-.27Z"/>
      <path class="cls-1" d="M150.08,7.98c0,.3-.57.9-1.25.97-.67.07-5.94.22-7.33-.03-.7-.12-1.25-.3-1.67-.52-.82-.47-.55-.85-.07-.87.22,0,.85.05,1.85.12,2,.15,5.51.1,6.19-.2.67-.3,1.27-.3,1.82.03.32.17.47.35.47.5Z"/>
      <path class="cls-1" d="M158.54,3.42c0-.25,1.1.17,1.22.52.08.2.15.77.27,1.8.52,4.02-.1,6.11-1.95,7.86-.92.85-1.47,1.27-1.57,1.25-.22.02-1.17-.45-1.27-.82-.05-.17,0-.3.2-.37.22-.1.4-.52.67-1.4.55-1.7,1.82-7.88,1.82-8.23,0-.32.15-.32.27-.4.2,0,.32-.05.32-.2ZM167.75,14.3c-1.25,0-1.72,0-2.4-.4l-.85-.45.6-10.58s.2-.05.5.05c.77.2,1.65.75,2.67,1.7.67.6.72.62.5,1.62-.22.97-1.25,6.89-1.02,7.01.08.1.25.02.57-.1.57-.3,1.52-1,2.15-1.57l1-.95.6.3c.75.35.7.82-.32,1.7-1,.9-1.65,1.35-2.47,1.55-.42.07-.92.12-1.52.12Z"/>
      <path class="cls-1" d="M51.71,45.73c.12-.17.3-.25.47-.25.32,0,1.45-1.3,2.05-2.54.62-1.22,1.2-4.02.95-4.29-.08-.05-.9-.1-2.44-.2-2.25-.15-3.39-.4-3.54-.87.12-.07.95-.12,2.47-.15,1.55-.02,3.52-.02,5.91,0l3.79.05c.85-.92,1.35-1.4,1.55-1.4.4,0,1.75,1,1.75,1.32,0,.3-.22.85-.95.87l-6.01.15.47.55c1.42,1.72-.77,4.94-1.67,5.81-.92.92-3.12,1.82-4.02,2.05-.42.12-.8.02-1.1-.2-.55-.4-.57-.62-.12-.62.15,0,.3-.07.45-.27ZM58.42,32.73l.37-.45c1.02-1.35,2.62.9,1.92,1.25-.37.17-1.2.22-2.54.22-3.34,0-5.31-.25-5.89-.65-.3-.22-.47-.4-.47-.47.35-.07,2.54-.05,6.61.1ZM62.54,32.78c-.05-.67.08-.87.5-.97.05-.02.25.1.55.37.62.62.67,1.55.35,2.05q-.32.5-.85-.02c-.47-.5-.55-.7-.55-1.42ZM65.63,30.93c.1.03,1,.62,1.12,1.52.08.45-.07.82-.37,1.2l-.42.55-.55-.55c-.52-.52-.62-.5-.45-1.65.1-.55.17-.87.3-.95.17-.1.27-.15.37-.12Z"/>
      <path class="cls-1" d="M72.4,36.77c0-.3.07-1.82.12-2.69.07-.9.12-1.25.95-.92.82.35,1.5,1.22,1.62,1.57.07.2.1.5.07.97v1.05c.62-.02,1.52,0,2.69.07-.02-1.4,0-2.35,0-2.77.07-.9.1-.9,1.17-.37,1.2.67,1.67,1.17,1.5,2.32l.7-.25c.35-.1.57-.15.67-.15.12,0,.32.1.6.27,1.2.8.85,1.4-.77,1.6-1.62.17-1.22-.27-1.67,1.75-.42,2.02-1.85,5.99-2.32,6.64-.25.32-.4.62-.45.92-.07.3-.15.45-.22.45-.3,0-.97-.3-.97-.5.17-.77.55-2.32.72-3.04.1-.35.22-.87.32-1.55.12-.65.22-1.25.32-1.72.07-.47.15-1.02.27-1.6.25-1.15.17-1.3-.9-1.22h-.32c-1.72.07-1.5-.07-1.8,1.5-.15.8-.22,1.35-.22,1.7,0,.65-.05.8-.62.35-.62-.45-.95-.9-.95-1.35.02-.22-.05-.5-.2-.87-.17-.37-.22-.62-.25-.77,0-.2-.15-.35-.4-.4-.25-.07-.8-.12-1.65-.15-.85,0-1.37-.1-1.6-.32-.35-.27-.35-.47,0-.5h3.57ZM82.13,34.55c0-.1-.12-.25-.32-.47-.45-.45-.45-1.4-.2-1.92.12-.25.25-.37.35-.37.2,0,.72.35.85.77.12.42.27,1.9.27,2.42,0,.25,0,.42-.02.45-.07,0-.25-.12-.52-.37-.27-.25-.4-.4-.4-.5ZM84.12,31.33c.25,0,.9.52.95.9.07.37,0,2.79-.17,3.09-.07.15-.15.22-.22.2-.12.02-.62-.3-.72-.47-.08-.1-.12-.2-.17-.32-.02-.1-.12-.27-.25-.42-.47-.52-.27-2.02.1-2.57.2-.27.37-.4.5-.4Z"/>
      <path class="cls-1" d="M102.91,45.43c-.85.12-1.77.6-2.82.72-.25,0-.7-.12-1.07-.25-.8-.82-1.75-1.65-2.67-2.32-.12-.22-.37-.47-.72-.82-2.22,2.57-4.57,4.19-8.08,2.67,7.71-4.07,7.73-7.46,10.58-12.02-2.92.25-6.36.27-8.78-.55v-.25c.2-.1.67-.1,1.02-.1,2.92.1,5.71-.25,8.66-.6h.5c2.54.35,2.54,0,1.62,2.32-.92,2.12-2.64,4.47-3.57,6.34,1.4,1.62,3.67,2.79,5.19,4.42.15,0,.15.1.15.45Z"/>
      <path class="cls-1" d="M122.01,33.35c.15.3.25.55.25.67s-.1.4-.22.85c-.15.4-.67,1.55-1.6,3.39-1.52,3.14-3.04,5.19-4.57,6.11-.62.35-.92.67-.92.9,0,.5-2.59,1.65-2.77,1.65-.2,0-.6-.35-.9-.67-.12-.15-.17-.22-.15-.25l.82-.42c.47-.25.67-.47.65-.75-.02-.3,0-.42.15-.42.05,0,.32-.42.95-1.25.62-.8,1.2-1.65,1.77-2.47.55-.8.8-1.25.72-1.27-.15-.1-2.05-1.17-3.12-1.95-.52-.4-.75-.67-.62-.85.1.02.35.1.8.25.4.15.87.22,1.37.22s1.25.3,2.3.85c.52-1.17,1.02-2.47,1.5-3.94-1.2.2-2.84.3-4.86.25l-3.07,4.34-.35-.42c-.4-.52-.35-.82.08-1.55.2-.35.62-1.37,1.17-2.99.55-1.67.85-2.59.92-2.79.17-.32.5-.5,1-.5.97,0,1.82,1.27,1.32,2-.5.7-.85.77.85.72.82-.02,1.92-.12,3.27-.17,1.35-.07,2.34-.17,2.97-.2l.3.67Z"/>
      <path class="cls-1" d="M134.21,35c.42-.8,1.05-1.55,1.55-1.87l.52-.35-2.79.02c-4.44.05-5.51,0-5.76-.17-.27-.17-.42-.3-.42-.37,0-.22,1.42-.45,6.71-.65,2.72-.1,4.37-.25,4.92-.35s.82-.12.9-.2c.15-.15,1.47-1.2,1.95-1.2s3.87,1.87.35,2.4l-1.22.15c-1.82,1.22-3.34,3.52-3.39,4.94-.05,1.35,1.8,4.29,3.04,4.76.87.32,1,.52-.55.6-1.57.07-1.75-.07-2.69-.45-1.82-.87-3.82-3.42-3.82-4.94,0-.57.3-1.55.72-2.32ZM141.89,34.43c.9.82.35,2.25-1.02,1-1.05-.95-.17-2.1,1.02-1ZM143.72,33.83c.87.82.37,2.22-1.02,1-1.07-.95-.17-2.1,1.02-1Z"/>
      <path class="cls-1" d="M1.9,68.28c0,.17.2.65.6,1.42.4.77.8,1.62,1.15,2.54.7,1.82.67,1.67,1.07.35s.85-2.42,1.25-3.14c.17-.37.32-.55.42-.55.2,0,1.25.82,1.6,1.32.17.25.4.72.7,1.42s.47,1.07.5,1.1c.07,0,.35-.67.9-2.05s.95-2.22,1.17-2.59c.22-.37.52-.55.85-.55.67,0,1.52.52,1.65.8.07.12.07.32.05.6-.1.52-1.95,4.67-2.42,5.34-.22.32-.52.5-.85.5-.67,0-1.75-.72-2.32-1.45-.27-.37-.5-.85-.7-1.45-.22-.6-.37-.9-.47-.9s-.15.02-.12.05c-.02.27-.67,2.15-1.27,3.54-.3.7-.5,1.1-.57,1.17-.22.17-.37.25-.47.22-.2-.02-1.4-.75-1.77-1.15-.37-.4-1.4-2.37-1.52-2.84-.07-.22-.27-.85-.67-1.87-.4-1.02-.6-1.67-.62-1.97s.08-.5.35-.6l.52-.2c.07-.02.27.07.57.3.3.25.45.45.45.62Z"/>
      <path class="cls-1" d="M21.31,71.92c0,.3.17.7.3.8.12.1.77.25,1.3.32.52.07,2.64.27,3.27.2.3-.02.55-.12.75-.25.2-.12.35-.2.47-.2s.27.05.5.12c1.27.52-.12,1.1-.65,1.17-.27.02-1.05,0-2.35-.07-1.3-.07-2.17-.15-2.59-.15-.87,0-1.32-.35-2.2-1.45s-2.1-2.54-1.25-4.44c.4-.9,1-1.47,2.22-1.87,1.22-.4,2.72-.42,4.32.3,1.6.72,2.22,1.57,1.5,2.3-.72.72-1.57,1-3.67,1.05-1.05.02-1.6.1-1.67.2-.07.1-.12.42-.15.95-.07.52-.1.87-.1,1.02ZM23.86,66.71c-.37,0-.67.02-.9.05-.22.03-.4.07-.5.12s-.12.15-.1.27-.05.42-.25.85c-.4.87-.45,1,.77.85.62-.07,1.07-.15,1.37-.27.6-.17.67-.25.47-.57-.1-.17-.15-.4-.15-.72.02-.32,0-.5-.08-.52-.07-.02-.27-.05-.65-.05Z"/>
      <path class="cls-1" d="M36.91,64.86c.1-1.92.17-3.02.25-3.29.15-.52.27-.52.87-.25.57.27,1.25.67,1.37.8.08.1.08,1.1,0,3.02l-.1,2.89.75-.17c1.32-.2,1.87-.2,3.14.4,1.27.6,1.55,1.02,1.65,2.3.17,2.37-1.12,3.44-4.64,3.87-.62.07-1.05.25-1.27.5-.45.5-.5.5-1.02.22s-.65-.3-.85-1.52c-.27-1.17-.35-4.89-.15-8.76ZM42.3,71.75c0-.92-.2-1.62-.42-2.3-.12-.32-.25-.55-.37-.65-.37-.32-1.02-.22-1.95.27-.2.07-.32.25-.35.47-.02.22-.05.97-.05,2.2s.08,1.85.2,1.85c.27,0,2.3-.4,2.69-.82.17-.22.25-.55.25-1.02Z"/>
      <path class="cls-1" d="M54.58,75.84c.12-.17.3-.25.47-.25.32,0,1.45-1.3,2.05-2.54.62-1.22,1.2-4.02.95-4.29-.07-.05-.9-.1-2.44-.2-2.25-.15-3.39-.4-3.54-.87.12-.07.95-.12,2.47-.15,1.55-.02,3.52-.02,5.91,0l3.79.05c.85-.92,1.35-1.4,1.55-1.4.4,0,1.75,1,1.75,1.32,0,.3-.22.85-.95.87l-6.01.15.47.55c1.42,1.72-.77,4.94-1.67,5.81-.92.92-3.12,1.82-4.02,2.05-.42.12-.8.02-1.1-.2-.55-.4-.57-.62-.12-.62.15,0,.3-.07.45-.27ZM61.29,62.84l.37-.45c1.02-1.35,2.62.9,1.92,1.25-.37.17-1.2.22-2.54.22-3.34,0-5.31-.25-5.89-.65-.3-.22-.47-.4-.47-.47.35-.07,2.54-.05,6.61.1ZM65.41,62.89c-.05-.67.08-.87.5-.97.05-.02.25.1.55.37.62.62.67,1.55.35,2.05q-.32.5-.85-.02c-.47-.5-.55-.7-.55-1.42ZM68.5,61.04c.1.03,1,.62,1.12,1.52.08.45-.07.82-.37,1.2l-.42.55-.55-.55c-.52-.52-.62-.5-.45-1.65.1-.55.17-.87.3-.95.17-.1.27-.15.37-.12Z"/>
      <path class="cls-1" d="M76.27,66.88c0-.3.07-1.82.12-2.69.07-.9.12-1.25.95-.92.82.35,1.5,1.22,1.62,1.57.07.2.1.5.07.97v1.05c.62-.02,1.52,0,2.69.07-.02-1.4,0-2.35,0-2.77.07-.9.1-.9,1.17-.37,1.2.67,1.67,1.17,1.5,2.32l.7-.25c.35-.1.57-.15.67-.15.12,0,.32.1.6.27,1.2.8.85,1.4-.77,1.6-1.62.17-1.22-.27-1.67,1.75-.42,2.02-1.85,5.99-2.32,6.64-.25.32-.4.62-.45.92-.07.3-.15.45-.22.45-.3,0-.97-.3-.97-.5.17-.77.55-2.32.72-3.04.1-.35.22-.87.32-1.55.12-.65.22-1.25.32-1.72.07-.47.15-1.02.27-1.6.25-1.15.17-1.3-.9-1.22h-.32c-1.72.07-1.5-.07-1.8,1.5-.15.8-.22,1.35-.22,1.7,0,.65-.05.8-.62.35-.62-.45-.95-.9-.95-1.35.02-.22-.05-.5-.2-.87-.17-.37-.22-.62-.25-.77,0-.2-.15-.35-.4-.4-.25-.07-.8-.12-1.65-.15-.85,0-1.37-.1-1.6-.32-.35-.27-.35-.47,0-.5h3.57ZM86,64.66c0-.1-.12-.25-.32-.47-.45-.45-.45-1.4-.2-1.92.12-.25.25-.37.35-.37.2,0,.72.35.85.77.12.42.27,1.9.27,2.42,0,.25,0,.42-.02.45-.07,0-.25-.12-.52-.37s-.4-.4-.4-.5ZM87.99,61.44c.25,0,.9.52.95.9.07.37,0,2.79-.17,3.09-.07.15-.15.22-.22.2-.12.02-.62-.3-.72-.47-.08-.1-.12-.2-.17-.32-.02-.1-.12-.27-.25-.42-.47-.52-.27-2.02.1-2.57.2-.27.37-.4.5-.4Z"/>
      <path class="cls-1" d="M103.44,67.63c.87.17.45.42,1.35.6-.22.03.15.15.15.85v7.16c0,.32-.37.85-.7.85-1.27.15-1.25.12-1.77.12-.2,0-.4-.67-.4-.85v-7.66c-2.17,1.85-4.52,2-7.43.85.75-.35,1.45-.5,1.82-.85,2.57-1.17,3.49-1.7,4.79-3.04,1.6-1.52,2.07-3.42,3.14-4.96.22-.3.57-.47.92-.47,1.27.32,1.15.67,2.59.97-1.05,2.99-2.54,4.29-4.47,6.44Z"/>
      <path class="cls-1" d="M130.51,67.18c-.35.57-.8,1.37-1.52,2.3-.37.45-.8,1.02-1.35,1.75-1.05,1.37-2.99,2.84-6.91,4.47-1.27.52-2.15.5-4.14-.52-1.22-.65-1.82-1.07-1.67-1.37,0-.02,0-.07.03-.1.02-.02.5-.07,1.37-.2,1.8-.3,4.57-1.27,5.64-1.72,1.05-.45,2.15-1.17,4.39-2.74,1.1-.77,2.05-1.7,2.79-2.79.4-.55.37-.55,1.07-.22.35.2.55.4.55.62.02.07-.07.27-.25.55ZM119.94,66.28c-.42,0-1.47-.72-3.24-2.02-.25-.17-.42-.5-.5-.95l-.17-.7h2.49l.77.87c.45.52.82,1.02,1.12,1.52.3.5.4.82.3,1-.1.2-.35.27-.77.27Z"/>
      <path class="cls-1" d="M151.3,65.41c-.22.12-3.67.8-3.94.87-.15.02,0,.45.4,1.25.4.82.6,1.35.6,1.65,0,1.05-1.95.87-2.79-.2-.15-.15-.25-.32-.25-.55-.02-.22-.1-.35-.12-.5-.1-.27-.2-.6-.2-.7-.02-.02-.07-.05-.1-.05s-.05-.03-.1.02c-.02.02-.22.32-.32.52-.02.1-.22.45-.47,1.02-.55,1.17-.75,3.02-.35,3.47.22.22.6.35,1.25.35,1.27,0,3.82-.77,3.82-1.1-.02-.15.1-.27.27-.35.12-.05.22-.07.37-.05.27-.02.6.07.95.2,2.84,1.02-2.47,2.52-4.94,2.52s-3.64-.35-4.57-1.1c-.92-.75-.95-.9-.95-1.77s.65-2.1,1.82-3.32c.57-.6,1.27-1.22,2.1-1.72.3-.17.42-.27.32-.32h-.92c-.72,0-1.35.12-1.92.25-.57.15-.92.25-1.07.25s-.4-.1-.8-.25l-.75-.35.75-1.4c.47-.9.67-1.47.65-1.7-.02-.25-.22-.37-.65-.37-.77,0-2-.52-2-.87,0-.07.45-.12,1.42-.12s1.52-.05,1.75-.1c.12-.07.32-.22.47-.55.12-.35.47-.95,1.02-1.77l.72-1.1.87.4c2.02,1,2.25,1.3,1.67,2.49-.08.22,0,.35.17.37.17.02.5.05.95.02.92.03,1.2-.07,1.55-.55.52-.67,1.2-.7,2.05-.07.7.45.82,1.07.15,1.52-.2.2-.52.3-1,.32h-5.76l-1.5,2.4,1.12.05c.72.02,1.32.12,1.67.22.7.2,1.1.2,2.15-.15,1.77-.6,2.99-.75,4.59.47,0,.2-.08.32-.15.42Z"/>
      <path class="cls-1" d="M169.64,70.2c-.07,1.25-.07,2.15-.22,3.07-.2.97-.77,1.67-1.95,2.02-1.5.4-2.97.72-4.59.2.9-.55,2.17-.72,2.3-1.9.22-1.07.35-2,.55-3.17-2.97-.12-5.89.62-8.63-.22,0-.1,0-.22-.12-.32,2.87,0,5.64-.1,8.76-.2-1.72-2.22-.8-3.74,1.4-4.86-1.45-.2-2.79-.45-4.04-.65v-.32c.12,0,.22-.12.35-.12,2.54,0,5.09.12,7.61.25.97.07,1.02.52.47,1.05-1.02.92-2.1,1.92-3.12,2.77.25.4.47.92.95,1.47.07.2.45.27.8.27,1.02,0,1.92-.07,2.99-.27.32,0,.45-.95.82-.95.7-.12,1.6.07,2.27.2.5.1.5,1.17-.1,1.37-.45.22-1,.32-1.47.32-1.75.1-3.34,0-5.01,0ZM172.06,60.8c1.35.07,2.59.2,3.84.32.22,0,.7.27.7.4.32,1.05-.22,2.15-.47,3.19,0,.1-.57.17-.8.17-.6-.07-1.17-.17-1.87-.27.27-.45.5-.77.62-1.1.57-.95-.12-2-1.4-1.9-2.69,0-5.21.12-7.76.12-1.5.07-3.07,0-4.74,0,0,.95.15,1.57.15,2.3-.72.77-1.62.32-2.47.32-.17,0-.42-.32-.55-.52-.12-.85-.12-1.7-.12-2.54,0-.17.6-.5.9-.5,3.14,0,6.41.07,9.51.2,1.4,0,1.97-.77,2.4-1.7.27-.35.4-.72.5-1.05.22-.45.45-1.07.82-1.2.7-.07,1.47,0,2.15.25.27.1.5.95.27,1.27-.32.72-1.05,1.45-1.67,2.22ZM163.21,60.22c-2.32.57-3.09,0-3.44-2.42,2.1-.5,2.64-.2,3.44,2.42ZM168.07,59.2c-2.67.42-2.79.2-3.24-1.8.85,0,1.75-.35,2.17,0,.6.32.72,1.17,1.07,1.8Z"/>
      <path class="cls-1" d="M178.43,69.73c-.12-.42.45-1.55.97-1.87.55-.27.92-.22,1.82.17.95.4,1.15,1,.85,1.6-.12.32-.22.52-.32.6-.22.22-.4.25-1,.35-.65.05-1.2,0-1.6-.12-.2-.05-.35-.12-.47-.25-.1-.1-.17-.25-.25-.47ZM188.36,65.19l-.8.62,1.22.72c1.4.82,1.77,1.37,2.02,2.64.2,1.3-1.15,3.47-2.49,4.12-.72.35-1.2.5-1.47.5-.57,0-1.57-.52-1.85-.82-.27-.25-.47-1.1-.37-1.3.07-.07.3.03.75.27.9.47.87.52,1.47.15.62-.4,1.12-1.62.95-2.82-.2-1.55-.72-2.57-1.52-3.09-.45-.35-.7-.57-.7-.72s.32-.7.82-1.57c.97-1.75,1.55-2.87,1.35-3.32-.02-.12-.15-.22-.27-.25-.15-.02-.45-.05-.85-.05-.8,0-1.62-.25-2.02-.5-.2-.12-.27-.3-.2-.42.17-.27,2.2-.17,2.84.05.62.22,2.05.85,2.94,1.8.45.47.65.9.65,1.3,0,.55-.82,1.5-2.47,2.69ZM194.18,60.07c1,.9.4,2.44-1.12,1.1-1.17-1.05-.2-2.32,1.12-1.1ZM192.95,69.3c0-1.07.2-1.45,1.12-1.12.95.3,1.87,1.1,1.85,1.95-.02.4-.17.7-.47.9-.25.22-.52.32-.72.32-.47,0-1.42-.55-1.62-.92-.1-.2-.15-.57-.15-1.12ZM196.17,59.4c1,.92.4,2.47-1.12,1.1-1.17-1.05-.2-2.3,1.12-1.1Z"/>
    </g>
  </g>
</svg>