<?xml version="1.0" encoding="UTF-8"?>
<svg id="_レイヤー_2" data-name="レイヤー 2" xmlns="http://www.w3.org/2000/svg" viewBox="0 0 335.88 117.49">
  <defs>
    <style>
      .cls-1 {
        fill: #f1e57f;
      }
    </style>
  </defs>
  <g id="_編集箇所" data-name="編集箇所">
    <g>
      <path class="cls-1" d="M10.82.74v51.19H.76V.74h10.06ZM13.26,51.93H5l.06-9.04h8.19c1.92,0,3.44-.41,4.57-1.23,1.13-.82,1.94-2.16,2.44-4.03.5-1.86.74-4.32.74-7.37v-7.91c0-2.3-.14-4.25-.41-5.85-.27-1.61-.71-2.9-1.31-3.88-.6-.98-1.4-1.7-2.4-2.14-1-.44-2.23-.67-3.69-.67H4.84V.74h8.35c2.7,0,5.15.49,7.34,1.46,2.19.97,4.08,2.39,5.65,4.25,1.57,1.86,2.78,4.13,3.64,6.8.85,2.67,1.28,5.73,1.28,9.18v7.84c0,3.42-.43,6.47-1.28,9.14-.85,2.67-2.07,4.94-3.64,6.8-1.57,1.86-3.45,3.28-5.63,4.25-2.18.97-4.61,1.46-7.29,1.46Z"/>
      <path class="cls-1" d="M46.04.74v51.19h-10.06V.74h10.06ZM62.81.74v9.07h-20.06V.74h20.06ZM60.15,21.27v8.72h-17.4v-8.72h17.4ZM62.81,42.89v9.04h-20.06v-9.04h20.06Z"/>
      <path class="cls-1" d="M85.81,38.39c0-.87-.07-1.65-.22-2.36s-.44-1.35-.87-1.93c-.43-.59-1.07-1.18-1.9-1.79-.83-.61-1.94-1.24-3.31-1.9-1.69-.77-3.33-1.62-4.92-2.55-1.59-.93-3.03-2.01-4.3-3.25-1.28-1.24-2.29-2.69-3.04-4.36-.75-1.66-1.12-3.62-1.12-5.87s.37-4.15,1.11-5.92c.74-1.77,1.78-3.28,3.12-4.54,1.34-1.25,2.91-2.21,4.71-2.88S78.87.04,81.07.04c2.91,0,5.47.66,7.67,1.99,2.2,1.32,3.92,3.18,5.14,5.55,1.22,2.38,1.83,5.15,1.83,8.31h-10.03c0-1.36-.16-2.57-.49-3.62s-.85-1.88-1.57-2.48-1.65-.9-2.78-.9c-1.03,0-1.9.25-2.59.74s-1.22,1.17-1.57,2.02c-.35.86-.52,1.79-.52,2.79,0,.82.17,1.55.52,2.18.35.63.82,1.22,1.42,1.76.6.54,1.31,1.05,2.14,1.55.82.49,1.73.96,2.72,1.41,2.07.91,3.91,1.9,5.52,2.97,1.61,1.07,2.96,2.28,4.05,3.64,1.09,1.36,1.9,2.89,2.45,4.59.55,1.7.82,3.63.82,5.78s-.33,4.21-1,5.96c-.67,1.75-1.63,3.25-2.9,4.5-1.27,1.25-2.79,2.21-4.57,2.87s-3.78.98-6,.98c-2.09,0-4.1-.33-6.04-1-1.94-.67-3.67-1.7-5.17-3.09-1.51-1.39-2.7-3.16-3.58-5.31s-1.31-4.7-1.31-7.68h10.06c0,1.52.12,2.82.35,3.88.23,1.07.6,1.92,1.11,2.55.51.63,1.15,1.09,1.93,1.37.78.28,1.71.42,2.78.42s1.96-.23,2.59-.7c.63-.47,1.08-1.12,1.34-1.95.26-.83.4-1.74.4-2.72Z"/>
      <path class="cls-1" d="M110.9.74v51.19h-10.03V.74h10.03Z"/>
      <path class="cls-1" d="M148.81,24.82v21.23c-.7.77-1.7,1.68-3.01,2.71-1.31,1.03-2.99,1.93-5.05,2.71s-4.52,1.16-7.39,1.16c-2.59,0-4.94-.45-7.04-1.34s-3.89-2.25-5.38-4.08-2.63-4.11-3.43-6.86c-.8-2.74-1.2-5.99-1.2-9.74v-8.58c0-3.73.4-6.97,1.19-9.74.79-2.77,1.91-5.06,3.35-6.89,1.44-1.83,3.17-3.19,5.19-4.08,2.01-.89,4.28-1.34,6.79-1.34,3.56,0,6.5.66,8.8,1.99,2.3,1.32,4.03,3.27,5.19,5.84s1.81,5.7,1.96,9.4h-9.65c-.13-2.06-.42-3.69-.87-4.89-.45-1.2-1.1-2.05-1.93-2.57-.83-.52-1.9-.77-3.21-.77-1.1,0-2.06.23-2.9.69s-1.53,1.2-2.1,2.21-.99,2.36-1.27,4.01c-.27,1.65-.41,3.67-.41,6.06v8.65c0,2.37.15,4.39.44,6.06.29,1.68.74,3.02,1.33,4.03.59,1.01,1.37,1.74,2.34,2.2.97.46,2.12.69,3.45.69.97,0,1.76-.12,2.36-.35.6-.23,1.1-.5,1.49-.81.39-.3.7-.52.93-.63v-8.86h-6.08v-8.12h16.1Z"/>
      <path class="cls-1" d="M186.46.74v51.19h-9.87l-13.04-31.85v31.85h-9.81V.74h9.84l13.1,32.03V.74h9.78Z"/>
      <path class="cls-1" d="M22.5,99.6h10c-.06,3.87-.75,7.13-2.07,9.79-1.32,2.66-3.17,4.68-5.57,6.05-2.39,1.37-5.24,2.06-8.53,2.06-2.62,0-4.94-.5-6.96-1.49s-3.73-2.45-5.13-4.36c-1.39-1.91-2.45-4.24-3.16-7-.72-2.75-1.08-5.91-1.08-9.47v-7.95c0-3.56.38-6.73,1.14-9.49.76-2.77,1.85-5.11,3.26-7.03,1.41-1.92,3.13-3.38,5.14-4.36s4.28-1.48,6.79-1.48c3.44,0,6.33.72,8.67,2.14,2.34,1.43,4.14,3.5,5.41,6.22,1.27,2.72,1.99,6.01,2.18,9.88h-10.06c.02-2.34-.17-4.18-.57-5.5-.4-1.32-1.05-2.26-1.95-2.81-.9-.55-2.13-.83-3.69-.83-1.12,0-2.08.22-2.88.67-.8.45-1.45,1.2-1.93,2.25s-.84,2.42-1.08,4.1c-.23,1.68-.35,3.73-.35,6.17v8.02c0,2.44.09,4.5.27,6.19.18,1.69.5,3.05.96,4.1.46,1.04,1.1,1.79,1.9,2.25.8.46,1.83.69,3.1.69,1.39,0,2.54-.24,3.45-.72.91-.48,1.59-1.35,2.04-2.62.45-1.27.68-3.08.68-5.45Z"/>
      <path class="cls-1" d="M69.42,87.29v8.16c0,3.63-.4,6.83-1.2,9.58-.8,2.75-1.95,5.05-3.43,6.89-1.49,1.84-3.25,3.23-5.3,4.17s-4.32,1.41-6.83,1.41-4.79-.47-6.85-1.41-3.83-2.33-5.33-4.17c-1.5-1.84-2.65-4.14-3.46-6.89-.81-2.75-1.22-5.95-1.22-9.58v-8.16c0-3.68.4-6.92,1.2-9.72.8-2.8,1.95-5.13,3.45-7s3.28-3.28,5.33-4.24c2.06-.96,4.34-1.44,6.85-1.44s4.76.48,6.82,1.44c2.06.96,3.83,2.37,5.32,4.24,1.49,1.86,2.64,4.2,3.45,7,.81,2.8,1.22,6.04,1.22,9.72ZM59.33,95.45v-8.23c0-2.34-.14-4.35-.43-6.03-.29-1.68-.71-3.04-1.27-4.1-.56-1.05-1.26-1.83-2.1-2.32s-1.81-.74-2.91-.74c-1.16,0-2.16.25-3.01.74s-1.54,1.27-2.09,2.32c-.55,1.05-.96,2.42-1.23,4.1-.27,1.68-.41,3.69-.41,6.03v8.23c0,2.3.14,4.27.41,5.91.27,1.64.7,2.98,1.27,4.01.57,1.03,1.28,1.79,2.12,2.29s1.83.74,2.97.74,2.07-.25,2.91-.74,1.54-1.25,2.1-2.29c.56-1.03.98-2.37,1.25-4.01.27-1.64.41-3.61.41-5.91Z"/>
      <path class="cls-1" d="M107.23,87.29v8.16c0,3.63-.4,6.83-1.2,9.58-.8,2.75-1.95,5.05-3.43,6.89-1.49,1.84-3.25,3.23-5.3,4.17s-4.32,1.41-6.83,1.41-4.79-.47-6.85-1.41-3.83-2.33-5.33-4.17c-1.5-1.84-2.65-4.14-3.46-6.89-.81-2.75-1.22-5.95-1.22-9.58v-8.16c0-3.68.4-6.92,1.2-9.72.8-2.8,1.95-5.13,3.45-7s3.28-3.28,5.33-4.24c2.06-.96,4.34-1.44,6.85-1.44s4.76.48,6.82,1.44c2.06.96,3.83,2.37,5.32,4.24,1.49,1.86,2.64,4.2,3.45,7,.81,2.8,1.22,6.04,1.22,9.72ZM97.14,95.45v-8.23c0-2.34-.14-4.35-.43-6.03-.29-1.68-.71-3.04-1.27-4.1-.56-1.05-1.26-1.83-2.1-2.32s-1.81-.74-2.91-.74c-1.16,0-2.16.25-3.01.74s-1.54,1.27-2.09,2.32c-.55,1.05-.96,2.42-1.23,4.1-.27,1.68-.41,3.69-.41,6.03v8.23c0,2.3.14,4.27.41,5.91.27,1.64.7,2.98,1.27,4.01.57,1.03,1.28,1.79,2.12,2.29s1.83.74,2.97.74,2.07-.25,2.91-.74,1.54-1.25,2.1-2.29c.56-1.03.98-2.37,1.25-4.01.27-1.64.41-3.61.41-5.91Z"/>
      <path class="cls-1" d="M112.14,65.6h15.28c3.08,0,5.73.59,7.94,1.76,2.21,1.17,3.91,2.91,5.09,5.2,1.18,2.3,1.77,5.14,1.77,8.54,0,2.81-.33,5.2-1,7.17-.66,1.97-1.61,3.6-2.83,4.89-1.22,1.29-2.67,2.33-4.33,3.13l-3.2,2.11h-12.15l-.06-9.07h8.51c1.14,0,2.08-.3,2.82-.9s1.29-1.44,1.66-2.53.55-2.37.55-3.85-.17-2.87-.52-3.97c-.35-1.1-.87-1.95-1.57-2.53-.7-.59-1.59-.88-2.69-.88h-5.22v42.12h-10.06v-51.19ZM132.8,116.79l-8.29-22.75h10.57l8.51,22.22v.53h-10.79Z"/>
      <path class="cls-1" d="M157.16,65.6v51.19h-10.06v-51.19h10.06ZM159.6,116.79h-8.26l.06-9.04h8.19c1.92,0,3.44-.41,4.57-1.23,1.13-.82,1.94-2.16,2.44-4.03.5-1.86.74-4.32.74-7.37v-7.91c0-2.3-.14-4.25-.41-5.85-.27-1.61-.71-2.9-1.31-3.88-.6-.98-1.4-1.7-2.4-2.14-1-.44-2.23-.67-3.69-.67h-8.35v-9.07h8.35c2.7,0,5.15.49,7.34,1.46,2.19.97,4.08,2.39,5.65,4.25,1.57,1.86,2.78,4.13,3.64,6.8.85,2.67,1.28,5.73,1.28,9.18v7.84c0,3.42-.43,6.47-1.28,9.14-.85,2.67-2.07,4.94-3.64,6.8-1.57,1.86-3.45,3.28-5.63,4.25-2.18.97-4.61,1.46-7.29,1.46Z"/>
      <path class="cls-1" d="M192.82,65.6v51.19h-10.03v-51.19h10.03Z"/>
      <path class="cls-1" d="M231.55,65.6v51.19h-9.87l-13.04-31.85v31.85h-9.81v-51.19h9.84l13.1,32.03v-32.03h9.78Z"/>
      <path class="cls-1" d="M254.18,75.55l-9.27,41.24h-10.73l14.33-51.19h6.68l-1.01,9.95ZM261.77,97.7v9.04h-20.41v-9.04h20.41ZM261.42,116.79l-9.3-41.24-1.14-9.95h6.77l14.4,51.19h-10.73Z"/>
      <path class="cls-1" d="M305.31,65.6v9.07h-32.37v-9.07h32.37ZM293.98,65.6v51.19h-10.03v-51.19h10.03Z"/>
      <path class="cls-1" d="M319.11,65.6v51.19h-10.06v-51.19h10.06ZM335.88,65.6v9.07h-20.06v-9.07h20.06ZM333.22,86.13v8.72h-17.4v-8.72h17.4ZM335.88,107.75v9.04h-20.06v-9.04h20.06Z"/>
    </g>
  </g>
</svg>