<?xml version="1.0" encoding="UTF-8"?>
<svg id="_レイヤー_2" data-name="レイヤー 2" xmlns="http://www.w3.org/2000/svg" viewBox="0 0 618.24 384.6">
  <defs>
    <style>
      .cls-1 {
        fill: #fff;
        stroke: #333;
        stroke-miterlimit: 10;
        stroke-width: 1.49px;
      }
    </style>
  </defs>
  <g id="_編集箇所" data-name="編集箇所">
    <g>
      <path class="cls-1" d="M94.81,143.05V1.94h29.93c11.63,0,20.44,3.17,26.46,9.51,6.01,6.34,9.02,15.33,9.02,26.95v66c0,13.21-3.21,22.96-9.61,29.23-6.41,6.28-15.63,9.41-27.65,9.41h-28.14ZM115.03,20.96v103.06h9.32c5.68,0,9.71-1.42,12.09-4.26,2.38-2.84,3.57-7.3,3.57-13.38V38.4c0-5.55-1.12-9.84-3.37-12.88-2.25-3.04-6.34-4.56-12.29-4.56h-9.32Z"/>
      <path class="cls-1" d="M179.24,143.05V1.94h60.25v19.03h-40.03v41.42h34.88v19.03h-34.88v41.42h40.03v20.22h-60.25Z"/>
      <path class="cls-1" d="M317.97,42.57h-20.22v-4.56c0-4.62-1.09-8.62-3.27-11.99-2.18-3.37-5.85-5.05-11-5.05-2.77,0-5.02.53-6.74,1.59-1.72,1.06-3.11,2.38-4.16,3.96-1.06,1.72-1.78,3.67-2.18,5.85-.4,2.18-.59,4.46-.59,6.84,0,2.77.1,5.09.3,6.94.2,1.85.69,3.5,1.49,4.95.79,1.46,1.95,2.71,3.47,3.77,1.52,1.06,3.6,2.12,6.24,3.17l15.46,6.14c4.49,1.72,8.13,3.73,10.9,6.04,2.77,2.31,4.95,4.99,6.54,8.03,1.45,3.17,2.44,6.77,2.97,10.8.53,4.03.79,8.62.79,13.77,0,5.95-.59,11.46-1.78,16.55-1.19,5.09-3.11,9.41-5.75,12.98-2.77,3.7-6.41,6.61-10.9,8.72-4.49,2.11-9.98,3.17-16.45,3.17-4.89,0-9.45-.86-13.68-2.58-4.23-1.72-7.86-4.09-10.9-7.14-3.04-3.04-5.45-6.57-7.23-10.6-1.78-4.03-2.68-8.42-2.68-13.18v-7.53h20.22v6.34c0,3.7,1.09,7.04,3.27,10.01,2.18,2.97,5.85,4.46,11,4.46,3.43,0,6.11-.5,8.03-1.49,1.91-.99,3.4-2.41,4.46-4.26,1.06-1.85,1.68-4.06,1.88-6.64s.3-5.45.3-8.62c0-3.7-.13-6.74-.4-9.12-.27-2.38-.79-4.29-1.59-5.75-.93-1.45-2.15-2.64-3.67-3.57-1.52-.92-3.54-1.91-6.04-2.97l-14.47-5.95c-8.72-3.57-14.57-8.29-17.54-14.17-2.97-5.88-4.46-13.24-4.46-22.1,0-5.28.72-10.31,2.18-15.06,1.45-4.76,3.63-8.85,6.54-12.29,2.77-3.43,6.31-6.17,10.6-8.22,4.29-2.05,9.41-3.07,15.36-3.07,5.02,0,9.61.93,13.77,2.77,4.16,1.85,7.76,4.29,10.8,7.33,6.08,6.34,9.12,13.61,9.12,21.8v9.91Z"/>
      <path class="cls-1" d="M333.63,143.05V1.94h20.22v141.11h-20.22Z"/>
      <path class="cls-1" d="M372.28,35.23c0-5.68.99-10.7,2.97-15.06,1.98-4.36,4.62-7.99,7.93-10.9,3.17-2.77,6.77-4.89,10.8-6.34,4.03-1.45,8.09-2.18,12.19-2.18s8.16.73,12.19,2.18c4.03,1.46,7.7,3.57,11,6.34,3.17,2.91,5.75,6.54,7.73,10.9,1.98,4.36,2.97,9.38,2.97,15.06v7.13h-20.22v-7.13c0-4.89-1.36-8.49-4.06-10.8-2.71-2.31-5.91-3.47-9.61-3.47s-6.91,1.16-9.61,3.47c-2.71,2.31-4.06,5.92-4.06,10.8v74.52c0,4.89,1.35,8.49,4.06,10.8,2.71,2.31,5.91,3.47,9.61,3.47s6.9-1.16,9.61-3.47c2.71-2.31,4.06-5.91,4.06-10.8v-26.56h-16.05v-17.84h36.27v44.4c0,5.95-.99,11.03-2.97,15.26-1.98,4.23-4.56,7.73-7.73,10.5-3.3,2.91-6.97,5.09-11,6.54-4.03,1.45-8.09,2.18-12.19,2.18s-8.16-.73-12.19-2.18c-4.03-1.45-7.63-3.63-10.8-6.54-3.3-2.77-5.95-6.27-7.93-10.5-1.98-4.23-2.97-9.31-2.97-15.26V35.23Z"/>
      <path class="cls-1" d="M457.1,143.05V1.94h19.42l30.52,85.02h.4V1.94h20.22v141.11h-19.03l-30.92-84.83h-.4v84.83h-20.22Z"/>
      <path class="cls-1" d="M155.79,185.58l-29.27,196.62h-26.51l-21.54-127.58h-.55l-21.26,127.58h-26.51L.87,185.58h29.82l14.08,124.82h.55l22.09-124.82h21.54l22.92,127.86h.55l13.53-127.86h29.82Z"/>
      <path class="cls-1" d="M171.8,231.97c0-7.91,1.38-14.91,4.14-20.99s6.44-11.14,11.05-15.19c4.42-3.87,9.43-6.81,15.05-8.84,5.61-2.02,11.27-3.04,16.98-3.04s11.37,1.01,16.98,3.04c5.61,2.03,10.72,4.97,15.33,8.84,4.42,4.05,8.01,9.11,10.77,15.19s4.14,13.07,4.14,20.99v103.83c0,8.28-1.38,15.37-4.14,21.26-2.76,5.89-6.35,10.77-10.77,14.64-4.6,4.05-9.71,7.09-15.33,9.11-5.62,2.02-11.28,3.04-16.98,3.04s-11.37-1.01-16.98-3.04c-5.62-2.02-10.63-5.06-15.05-9.11-4.6-3.87-8.28-8.74-11.05-14.64-2.76-5.89-4.14-12.98-4.14-21.26v-103.83ZM199.97,335.8c0,6.81,1.89,11.83,5.66,15.05,3.77,3.22,8.24,4.83,13.39,4.83s9.62-1.61,13.39-4.83c3.77-3.22,5.66-8.24,5.66-15.05v-103.83c0-6.81-1.89-11.83-5.66-15.05-3.78-3.22-8.24-4.83-13.39-4.83s-9.62,1.61-13.39,4.83c-3.78,3.22-5.66,8.24-5.66,15.05v103.83Z"/>
      <path class="cls-1" d="M291.09,382.2v-196.62h45.29c33.14,0,49.71,19.24,49.71,57.71,0,11.6-1.79,21.45-5.38,29.55-3.59,8.1-9.9,14.64-18.92,19.61l30.38,89.75h-29.82l-26.23-83.95h-16.85v83.95h-28.17ZM319.26,212.09v61.31h16.02c4.97,0,8.93-.69,11.87-2.07,2.94-1.38,5.25-3.36,6.9-5.94,1.47-2.58,2.49-5.75,3.04-9.53.55-3.77.83-8.15.83-13.12s-.28-9.34-.83-13.12c-.55-3.77-1.66-7.04-3.31-9.8-3.5-5.15-10.13-7.73-19.88-7.73h-14.64Z"/>
      <path class="cls-1" d="M408.73,382.2v-196.62h28.17v89.75h.55l41.15-89.75h28.17l-38.38,78.7,45.56,117.92h-29.82l-32.03-87.26-15.19,28.44v58.82h-28.17Z"/>
      <path class="cls-1" d="M617.5,242.19h-28.17v-6.35c0-6.44-1.52-12.01-4.56-16.71s-8.15-7.04-15.33-7.04c-3.87,0-7,.74-9.39,2.21-2.39,1.48-4.33,3.31-5.8,5.52-1.48,2.39-2.49,5.11-3.04,8.15s-.83,6.21-.83,9.53c0,3.87.14,7.09.41,9.67.28,2.58.97,4.88,2.07,6.9,1.1,2.03,2.71,3.78,4.83,5.25,2.11,1.48,5.01,2.95,8.7,4.42l21.54,8.56c6.26,2.39,11.32,5.2,15.19,8.42,3.87,3.22,6.9,6.95,9.11,11.18,2.02,4.42,3.4,9.44,4.14,15.05.73,5.62,1.1,12.01,1.1,19.19,0,8.28-.83,15.97-2.49,23.06-1.66,7.09-4.33,13.12-8.01,18.09-3.87,5.16-8.93,9.21-15.19,12.15-6.26,2.94-13.9,4.42-22.92,4.42-6.81,0-13.16-1.2-19.05-3.59-5.89-2.39-10.96-5.7-15.19-9.94-4.24-4.23-7.59-9.16-10.08-14.77-2.49-5.61-3.73-11.74-3.73-18.36v-10.49h28.17v8.84c0,5.16,1.52,9.8,4.56,13.95,3.04,4.14,8.15,6.21,15.33,6.21,4.79,0,8.51-.69,11.18-2.07,2.67-1.38,4.74-3.36,6.21-5.94,1.47-2.58,2.35-5.66,2.62-9.25.28-3.59.41-7.59.41-12.01,0-5.15-.19-9.39-.55-12.7-.37-3.31-1.1-5.98-2.21-8.01-1.29-2.02-2.99-3.68-5.11-4.97-2.12-1.29-4.93-2.67-8.42-4.14l-20.16-8.28c-12.15-4.97-20.3-11.55-24.44-19.74-4.14-8.19-6.21-18.45-6.21-30.79,0-7.36,1.01-14.36,3.04-20.99,2.02-6.63,5.06-12.33,9.11-17.12,3.87-4.79,8.79-8.6,14.77-11.46,5.98-2.85,13.12-4.28,21.4-4.28,6.99,0,13.39,1.29,19.19,3.87,5.8,2.58,10.81,5.98,15.05,10.22,8.47,8.84,12.7,18.96,12.7,30.38v13.81Z"/>
    </g>
  </g>
</svg>