<?xml version="1.0" encoding="UTF-8"?>
<svg id="_レイヤー_2" data-name="レイヤー 2" xmlns="http://www.w3.org/2000/svg" viewBox="0 0 975.68 152.45">
  <defs>
    <style>
      .cls-1 {
        fill: #fff;
        stroke: #333;
        stroke-miterlimit: 10;
        stroke-width: 1.13px;
      }
    </style>
  </defs>
  <g id="_編集箇所" data-name="編集箇所">
    <g>
      <path class="cls-1" d="M.57,150.63V1.82h31.56c12.26,0,21.56,3.34,27.9,10.03,6.34,6.69,9.51,16.16,9.51,28.42v69.6c0,13.93-3.38,24.21-10.14,30.83-6.76,6.62-16.48,9.93-29.16,9.93H.57ZM21.88,21.88v108.68h9.82c5.99,0,10.24-1.5,12.75-4.49,2.51-2.99,3.76-7.7,3.76-14.11V40.28c0-5.85-1.19-10.38-3.55-13.58-2.37-3.2-6.69-4.81-12.96-4.81h-9.82Z"/>
      <path class="cls-1" d="M89.6,150.63V1.82h63.54v20.06h-42.22v43.68h36.78v20.06h-36.78v43.68h42.22v21.32h-63.54Z"/>
      <path class="cls-1" d="M235.9,44.66h-21.32v-4.81c0-4.88-1.15-9.09-3.45-12.64-2.3-3.55-6.17-5.33-11.6-5.33-2.93,0-5.3.56-7.11,1.67-1.81,1.12-3.28,2.51-4.39,4.18-1.12,1.81-1.88,3.87-2.3,6.17s-.63,4.7-.63,7.21c0,2.93.1,5.37.31,7.31.21,1.95.73,3.69,1.57,5.23.84,1.53,2.05,2.86,3.66,3.97,1.6,1.12,3.79,2.23,6.58,3.34l16.3,6.48c4.73,1.81,8.57,3.94,11.49,6.37,2.93,2.44,5.23,5.26,6.9,8.46,1.53,3.34,2.58,7.14,3.13,11.39.56,4.25.84,9.09.84,14.53,0,6.27-.63,12.09-1.88,17.45-1.25,5.37-3.28,9.93-6.06,13.69-2.93,3.9-6.76,6.97-11.5,9.2-4.74,2.23-10.52,3.34-17.35,3.34-5.16,0-9.96-.91-14.42-2.72-4.46-1.81-8.29-4.32-11.5-7.52-3.21-3.2-5.75-6.93-7.63-11.18-1.88-4.25-2.82-8.88-2.82-13.9v-7.94h21.32v6.69c0,3.9,1.15,7.42,3.45,10.55,2.3,3.14,6.17,4.7,11.6,4.7,3.62,0,6.44-.52,8.46-1.57,2.02-1.04,3.59-2.54,4.7-4.49,1.11-1.95,1.78-4.28,1.99-7s.31-5.75.31-9.09c0-3.9-.14-7.11-.42-9.61-.28-2.51-.84-4.53-1.67-6.06-.98-1.53-2.27-2.79-3.87-3.76-1.6-.97-3.73-2.02-6.37-3.14l-15.26-6.27c-9.2-3.76-15.36-8.74-18.5-14.94-3.14-6.2-4.7-13.97-4.7-23.3,0-5.57.76-10.87,2.3-15.88,1.53-5.02,3.83-9.33,6.9-12.96,2.93-3.62,6.65-6.51,11.18-8.67,4.53-2.16,9.93-3.24,16.2-3.24,5.29,0,10.14.98,14.53,2.93,4.39,1.95,8.18,4.53,11.39,7.73,6.41,6.69,9.61,14.35,9.61,22.99v10.45Z"/>
      <path class="cls-1" d="M252.41,150.63V1.82h21.32v148.81h-21.32Z"/>
      <path class="cls-1" d="M293.16,36.93c0-5.99,1.05-11.29,3.14-15.88s4.88-8.43,8.36-11.5c3.34-2.93,7.14-5.15,11.39-6.69,4.25-1.53,8.53-2.3,12.85-2.3s8.6.77,12.85,2.3c4.25,1.54,8.11,3.76,11.6,6.69,3.34,3.07,6.06,6.9,8.15,11.5s3.13,9.9,3.13,15.88v7.52h-21.32v-7.52c0-5.15-1.43-8.95-4.28-11.39-2.86-2.44-6.24-3.66-10.14-3.66s-7.28,1.22-10.14,3.66c-2.86,2.44-4.28,6.24-4.28,11.39v78.58c0,5.16,1.43,8.95,4.28,11.39,2.85,2.44,6.23,3.66,10.14,3.66s7.28-1.22,10.14-3.66c2.85-2.44,4.28-6.23,4.28-11.39v-28.01h-16.93v-18.81h38.25v46.82c0,6.27-1.04,11.64-3.13,16.09-2.09,4.46-4.81,8.15-8.15,11.08-3.48,3.07-7.35,5.37-11.6,6.9-4.25,1.53-8.54,2.3-12.85,2.3s-8.6-.77-12.85-2.3c-4.25-1.53-8.05-3.83-11.39-6.9-3.48-2.93-6.27-6.62-8.36-11.08-2.09-4.46-3.14-9.82-3.14-16.09V36.93Z"/>
      <path class="cls-1" d="M382.61,150.63V1.82h20.48l32.19,89.66h.42V1.82h21.32v148.81h-20.06l-32.6-89.45h-.42v89.45h-21.32Z"/>
      <path class="cls-1" d="M625.67,1.82l-22.15,148.81h-20.06l-16.3-96.56h-.42l-16.09,96.56h-20.06L508.42,1.82h22.57l10.66,94.47h.42L558.79,1.82h16.3l17.35,96.77h.42l10.24-96.77h22.57Z"/>
      <path class="cls-1" d="M637.79,36.93c0-5.99,1.05-11.29,3.14-15.88s4.88-8.43,8.36-11.5c3.34-2.93,7.14-5.15,11.39-6.69,4.25-1.53,8.53-2.3,12.85-2.3s8.6.77,12.85,2.3c4.25,1.54,8.11,3.76,11.6,6.69,3.34,3.07,6.06,6.9,8.15,11.5s3.13,9.9,3.13,15.88v78.58c0,6.27-1.04,11.64-3.13,16.09-2.09,4.46-4.81,8.15-8.15,11.08-3.48,3.07-7.35,5.37-11.6,6.9-4.25,1.53-8.54,2.3-12.85,2.3s-8.6-.77-12.85-2.3c-4.25-1.53-8.05-3.83-11.39-6.9-3.48-2.93-6.27-6.62-8.36-11.08-2.09-4.46-3.14-9.82-3.14-16.09V36.93ZM659.11,115.52c0,5.16,1.43,8.95,4.28,11.39,2.85,2.44,6.23,3.66,10.14,3.66s7.28-1.22,10.14-3.66c2.85-2.44,4.28-6.23,4.28-11.39V36.93c0-5.15-1.43-8.95-4.28-11.39-2.86-2.44-6.24-3.66-10.14-3.66s-7.28,1.22-10.14,3.66c-2.86,2.44-4.28,6.24-4.28,11.39v78.58Z"/>
      <path class="cls-1" d="M728.08,150.63V1.82h34.28c25.08,0,37.62,14.56,37.62,43.68,0,8.78-1.36,16.23-4.08,22.36-2.72,6.13-7.49,11.08-14.32,14.84l22.99,67.92h-22.57l-19.85-63.54h-12.75v63.54h-21.32ZM749.4,21.88v46.4h12.12c3.76,0,6.76-.52,8.99-1.57,2.23-1.04,3.97-2.54,5.23-4.49,1.11-1.95,1.88-4.35,2.3-7.21.42-2.85.63-6.17.63-9.93s-.21-7.07-.63-9.93c-.42-2.85-1.25-5.33-2.51-7.42-2.65-3.9-7.66-5.85-15.05-5.85h-11.08Z"/>
      <path class="cls-1" d="M817.11,150.63V1.82h21.32v67.93h.42L869.99,1.82h21.32l-29.05,59.56,34.49,89.24h-22.57l-24.24-66.04-11.5,21.53v44.52h-21.32Z"/>
      <path class="cls-1" d="M975.11,44.66h-21.32v-4.81c0-4.88-1.15-9.09-3.45-12.64-2.3-3.55-6.17-5.33-11.6-5.33-2.93,0-5.3.56-7.11,1.67-1.81,1.12-3.28,2.51-4.39,4.18-1.12,1.81-1.88,3.87-2.3,6.17s-.63,4.7-.63,7.21c0,2.93.1,5.37.31,7.31.21,1.95.73,3.69,1.57,5.23.84,1.53,2.05,2.86,3.66,3.97,1.6,1.12,3.79,2.23,6.58,3.34l16.3,6.48c4.73,1.81,8.57,3.94,11.49,6.37,2.93,2.44,5.23,5.26,6.9,8.46,1.53,3.34,2.58,7.14,3.13,11.39.56,4.25.84,9.09.84,14.53,0,6.27-.63,12.09-1.88,17.45-1.25,5.37-3.28,9.93-6.06,13.69-2.93,3.9-6.76,6.97-11.5,9.2-4.74,2.23-10.52,3.34-17.35,3.34-5.16,0-9.96-.91-14.42-2.72-4.46-1.81-8.29-4.32-11.5-7.52-3.21-3.2-5.75-6.93-7.63-11.18-1.88-4.25-2.82-8.88-2.82-13.9v-7.94h21.32v6.69c0,3.9,1.15,7.42,3.45,10.55,2.3,3.14,6.17,4.7,11.6,4.7,3.62,0,6.44-.52,8.46-1.57,2.02-1.04,3.59-2.54,4.7-4.49,1.11-1.95,1.78-4.28,1.99-7s.31-5.75.31-9.09c0-3.9-.14-7.11-.42-9.61-.28-2.51-.84-4.53-1.67-6.06-.98-1.53-2.27-2.79-3.87-3.76-1.6-.97-3.73-2.02-6.37-3.14l-15.26-6.27c-9.2-3.76-15.36-8.74-18.5-14.94-3.14-6.2-4.7-13.97-4.7-23.3,0-5.57.76-10.87,2.3-15.88,1.53-5.02,3.83-9.33,6.9-12.96,2.93-3.62,6.65-6.51,11.18-8.67,4.53-2.16,9.93-3.24,16.2-3.24,5.29,0,10.14.98,14.53,2.93,4.39,1.95,8.18,4.53,11.39,7.73,6.41,6.69,9.61,14.35,9.61,22.99v10.45Z"/>
    </g>
  </g>
</svg>