<?xml version="1.0" encoding="UTF-8"?>
<svg id="_レイヤー_2" data-name="レイヤー 2" xmlns="http://www.w3.org/2000/svg" viewBox="0 0 325.32 113.8">
  <defs>
    <style>
      .cls-1 {
        fill: #fff;
      }
    </style>
  </defs>
  <g id="_編集箇所" data-name="編集箇所">
    <g>
      <path class="cls-1" d="M10.48.71v49.58H.74V.71h9.75ZM12.84,50.29h-8l.06-8.75h7.94c1.86,0,3.33-.4,4.43-1.19,1.09-.79,1.88-2.09,2.36-3.9s.72-4.18.72-7.13v-7.66c0-2.22-.13-4.11-.4-5.67-.27-1.55-.69-2.81-1.27-3.76-.58-.95-1.36-1.65-2.33-2.08-.97-.43-2.16-.65-3.57-.65H4.69V.71h8.09c2.62,0,4.99.47,7.11,1.41,2.12.94,3.95,2.32,5.47,4.12,1.52,1.8,2.7,4,3.52,6.59.83,2.59,1.24,5.55,1.24,8.89v7.59c0,3.31-.41,6.27-1.24,8.85-.83,2.59-2,4.78-3.52,6.59-1.52,1.8-3.34,3.18-5.46,4.12-2.12.94-4.47,1.41-7.06,1.41Z"/>
      <path class="cls-1" d="M44.59.71v49.58h-9.75V.71h9.75ZM60.83.71v8.79h-19.43V.71h19.43ZM58.26,20.6v8.45h-16.86v-8.45h16.86ZM60.83,41.54v8.75h-19.43v-8.75h19.43Z"/>
      <path class="cls-1" d="M83.12,37.18c0-.84-.07-1.6-.21-2.28-.14-.68-.42-1.3-.84-1.87-.42-.57-1.03-1.15-1.84-1.74-.81-.59-1.87-1.2-3.2-1.84-1.63-.75-3.22-1.57-4.77-2.47-1.54-.9-2.93-1.95-4.17-3.15s-2.22-2.61-2.94-4.22c-.73-1.61-1.09-3.51-1.09-5.69s.36-4.02,1.07-5.74c.71-1.71,1.72-3.18,3.02-4.39,1.3-1.21,2.82-2.14,4.57-2.79,1.75-.65,3.68-.97,5.81-.97,2.82,0,5.3.64,7.43,1.92,2.13,1.28,3.79,3.08,4.98,5.38,1.18,2.3,1.78,4.99,1.78,8.05h-9.71c0-1.32-.16-2.49-.47-3.51-.32-1.02-.82-1.82-1.52-2.4-.69-.58-1.59-.87-2.7-.87-1,0-1.84.24-2.51.72-.67.48-1.18,1.13-1.52,1.96-.34.83-.51,1.73-.51,2.71,0,.79.17,1.5.51,2.11.34.61.8,1.18,1.38,1.7.58.52,1.27,1.02,2.07,1.5s1.67.93,2.63,1.36c2,.89,3.79,1.84,5.35,2.88,1.56,1.03,2.87,2.21,3.92,3.52,1.05,1.32,1.84,2.8,2.38,4.44.53,1.65.8,3.51.8,5.6s-.32,4.08-.97,5.77c-.64,1.69-1.58,3.14-2.8,4.36-1.23,1.21-2.7,2.14-4.43,2.78-1.73.64-3.66.95-5.81.95-2.02,0-3.97-.32-5.85-.97-1.88-.65-3.55-1.65-5.01-3s-2.62-3.06-3.46-5.14c-.85-2.08-1.27-4.56-1.27-7.44h9.75c0,1.48.11,2.73.34,3.76.22,1.03.58,1.86,1.07,2.47.49.61,1.11,1.06,1.87,1.33s1.65.41,2.7.41,1.9-.23,2.51-.68c.61-.45,1.05-1.08,1.3-1.89.25-.81.38-1.69.38-2.64Z"/>
      <path class="cls-1" d="M107.42.71v49.58h-9.71V.71h9.71Z"/>
      <path class="cls-1" d="M144.13,24.04v20.57c-.67.75-1.64,1.62-2.91,2.62s-2.9,1.87-4.89,2.62c-1.99.75-4.38,1.12-7.16,1.12-2.51,0-4.79-.43-6.82-1.29-2.03-.86-3.77-2.18-5.21-3.95-1.44-1.77-2.55-3.98-3.32-6.64-.78-2.66-1.17-5.8-1.17-9.43v-8.31c0-3.61.38-6.75,1.15-9.43.77-2.68,1.85-4.9,3.25-6.67,1.4-1.77,3.08-3.09,5.03-3.95,1.95-.86,4.14-1.29,6.57-1.29,3.45,0,6.29.64,8.52,1.92,2.23,1.28,3.9,3.17,5.03,5.65s1.76,5.52,1.9,9.11h-9.35c-.12-2-.4-3.58-.84-4.73-.44-1.16-1.06-1.99-1.87-2.49-.81-.5-1.84-.75-3.11-.75-1.06,0-2,.22-2.8.66-.81.44-1.49,1.16-2.04,2.15-.55.99-.96,2.28-1.23,3.88s-.4,3.56-.4,5.87v8.38c0,2.29.14,4.25.43,5.87.29,1.62.71,2.92,1.29,3.9.57.98,1.33,1.69,2.27,2.13.94.44,2.05.66,3.34.66.94,0,1.7-.11,2.28-.34.58-.23,1.06-.49,1.44-.78.38-.29.68-.5.9-.61v-8.58h-5.88v-7.87h15.6Z"/>
      <path class="cls-1" d="M180.61.71v49.58h-9.56l-12.63-30.85v30.85h-9.5V.71h9.53l12.69,31.02V.71h9.47Z"/>
      <path class="cls-1" d="M21.79,96.47h9.68c-.06,3.75-.73,6.91-2.01,9.48-1.28,2.58-3.08,4.53-5.39,5.86-2.32,1.33-5.07,1.99-8.26,1.99-2.53,0-4.78-.48-6.74-1.45-1.96-.96-3.62-2.37-4.96-4.22s-2.37-4.11-3.06-6.78c-.69-2.67-1.04-5.73-1.04-9.18v-7.7c0-3.45.37-6.51,1.1-9.19s1.79-4.95,3.16-6.81,3.03-3.27,4.98-4.22c1.95-.95,4.14-1.43,6.57-1.43,3.33,0,6.13.69,8.4,2.08s4.01,3.39,5.24,6.03c1.23,2.63,1.93,5.82,2.12,9.57h-9.75c.02-2.27-.16-4.05-.55-5.33s-1.02-2.19-1.88-2.72c-.87-.53-2.06-.8-3.57-.8-1.08,0-2.01.22-2.79.65-.78.43-1.4,1.16-1.87,2.18s-.82,2.34-1.04,3.97-.34,3.62-.34,5.98v7.76c0,2.36.09,4.36.26,5.99.17,1.63.48,2.96.93,3.97.45,1.01,1.06,1.74,1.84,2.18.78.44,1.78.66,3,.66,1.35,0,2.46-.23,3.34-.7.88-.47,1.54-1.31,1.98-2.54.44-1.23.66-2.99.66-5.28Z"/>
      <path class="cls-1" d="M67.24,84.55v7.9c0,3.52-.39,6.61-1.17,9.28-.78,2.67-1.88,4.89-3.33,6.67-1.44,1.78-3.15,3.13-5.13,4.04-1.98.91-4.19,1.36-6.62,1.36s-4.64-.45-6.63-1.36c-1.99-.91-3.71-2.25-5.16-4.04-1.45-1.78-2.57-4.01-3.36-6.67-.79-2.67-1.18-5.76-1.18-9.28v-7.9c0-3.56.39-6.7,1.16-9.42s1.89-4.97,3.34-6.78c1.45-1.8,3.17-3.17,5.16-4.1,1.99-.93,4.2-1.4,6.63-1.4s4.61.47,6.6,1.4c1.99.93,3.71,2.3,5.15,4.1s2.55,4.06,3.34,6.78c.79,2.71,1.18,5.85,1.18,9.42ZM57.46,92.45v-7.97c0-2.27-.14-4.22-.41-5.84-.28-1.62-.68-2.95-1.23-3.97s-1.22-1.77-2.04-2.25c-.82-.48-1.76-.72-2.82-.72-1.12,0-2.09.24-2.91.72-.82.48-1.49,1.23-2.02,2.25-.53,1.02-.93,2.34-1.2,3.97-.27,1.62-.4,3.57-.4,5.84v7.97c0,2.22.13,4.13.4,5.72.26,1.59.67,2.88,1.23,3.88s1.24,1.74,2.05,2.21c.82.48,1.78.71,2.88.71s2-.24,2.82-.71c.82-.48,1.5-1.21,2.04-2.21.54-1,.94-2.29,1.21-3.88s.4-3.5.4-5.72Z"/>
      <path class="cls-1" d="M103.86,84.55v7.9c0,3.52-.39,6.61-1.17,9.28-.78,2.67-1.88,4.89-3.33,6.67-1.44,1.78-3.15,3.13-5.13,4.04-1.98.91-4.19,1.36-6.62,1.36s-4.64-.45-6.63-1.36c-1.99-.91-3.71-2.25-5.16-4.04-1.45-1.78-2.57-4.01-3.36-6.67-.79-2.67-1.18-5.76-1.18-9.28v-7.9c0-3.56.39-6.7,1.16-9.42s1.89-4.97,3.34-6.78c1.45-1.8,3.17-3.17,5.16-4.1,1.99-.93,4.2-1.4,6.63-1.4s4.61.47,6.6,1.4c1.99.93,3.71,2.3,5.15,4.1s2.55,4.06,3.34,6.78c.79,2.71,1.18,5.85,1.18,9.42ZM94.09,92.45v-7.97c0-2.27-.14-4.22-.41-5.84-.28-1.62-.68-2.95-1.23-3.97s-1.22-1.77-2.04-2.25c-.82-.48-1.76-.72-2.82-.72-1.12,0-2.09.24-2.91.72-.82.48-1.49,1.23-2.02,2.25-.53,1.02-.93,2.34-1.2,3.97-.27,1.62-.4,3.57-.4,5.84v7.97c0,2.22.13,4.13.4,5.72.26,1.59.67,2.88,1.23,3.88s1.24,1.74,2.05,2.21c.82.48,1.78.71,2.88.71s2-.24,2.82-.71c.82-.48,1.5-1.21,2.04-2.21.54-1,.94-2.29,1.21-3.88s.4-3.5.4-5.72Z"/>
      <path class="cls-1" d="M108.62,63.54h14.8c2.98,0,5.55.57,7.69,1.7,2.15,1.14,3.79,2.82,4.93,5.04,1.14,2.22,1.72,4.98,1.72,8.27,0,2.72-.32,5.04-.97,6.95-.64,1.91-1.56,3.49-2.74,4.73-1.19,1.25-2.58,2.26-4.2,3.03l-3.09,2.04h-11.77l-.06-8.79h8.24c1.1,0,2.01-.29,2.73-.87s1.25-1.4,1.61-2.45c.36-1.06.54-2.3.54-3.73s-.17-2.78-.51-3.85c-.34-1.07-.84-1.88-1.52-2.45-.67-.57-1.54-.85-2.61-.85h-5.06v40.79h-9.75v-49.58ZM128.63,113.12l-8.03-22.03h10.24l8.24,21.52v.51h-10.45Z"/>
      <path class="cls-1" d="M152.23,63.54v49.58h-9.75v-49.58h9.75ZM154.58,113.12h-8l.06-8.75h7.94c1.86,0,3.33-.4,4.43-1.19,1.09-.79,1.88-2.09,2.36-3.9s.72-4.18.72-7.13v-7.66c0-2.22-.13-4.11-.4-5.67-.27-1.55-.69-2.81-1.27-3.76-.58-.95-1.36-1.65-2.33-2.08-.97-.43-2.16-.65-3.57-.65h-8.09v-8.79h8.09c2.62,0,4.99.47,7.11,1.41,2.12.94,3.95,2.32,5.47,4.12,1.52,1.8,2.7,4,3.52,6.59.83,2.59,1.24,5.55,1.24,8.89v7.59c0,3.31-.41,6.27-1.24,8.85-.83,2.59-2,4.78-3.52,6.59-1.52,1.8-3.34,3.18-5.46,4.12-2.12.94-4.47,1.41-7.06,1.41Z"/>
      <path class="cls-1" d="M186.77,63.54v49.58h-9.71v-49.58h9.71Z"/>
      <path class="cls-1" d="M224.28,63.54v49.58h-9.56l-12.63-30.85v30.85h-9.5v-49.58h9.53l12.69,31.02v-31.02h9.47Z"/>
      <path class="cls-1" d="M246.19,73.18l-8.98,39.94h-10.39l13.88-49.58h6.47l-.98,9.64ZM253.55,94.63v8.75h-19.77v-8.75h19.77ZM253.21,113.12l-9.01-39.94-1.1-9.64h6.56l13.94,49.58h-10.39Z"/>
      <path class="cls-1" d="M295.72,63.54v8.79h-31.35v-8.79h31.35ZM284.75,63.54v49.58h-9.71v-49.58h9.71Z"/>
      <path class="cls-1" d="M309.08,63.54v49.58h-9.75v-49.58h9.75ZM325.32,63.54v8.79h-19.43v-8.79h19.43ZM322.75,83.42v8.45h-16.86v-8.45h16.86ZM325.32,104.37v8.75h-19.43v-8.75h19.43Z"/>
    </g>
  </g>
</svg>