<?xml version="1.0" encoding="UTF-8"?>
<svg id="_レイヤー_2" data-name="レイヤー 2" xmlns="http://www.w3.org/2000/svg" viewBox="0 0 151.47 118.58">
  <defs>
    <style>
      .cls-1 {
        fill: #fff;
      }

      .cls-2 {
        fill: #646464;
      }
    </style>
  </defs>
  <g id="_編集箇所" data-name="編集箇所">
    <g>
      <g>
        <path class="cls-1" d="M47.92,111.77s28.87,15.44,63.42-.15c34.55-15.59,46.23-39.32,37.2-56.67,0,0,1.99-32.66-14.45-43.62C117.66.37,102.5-1.74,87.74,1.21c-14.75,2.95-24.52,9.29-44.8,10.96-20.28,1.67-27.09-.69-27.09-.69,0,0,8.51,10.67-5.74,18.81s-5.39,33.12,2.67,33.12c0,0-17.33,50.96,35.13,48.36Z"/>
        <g>
          <path class="cls-2" d="M10.59,64.88c0-.07-.11-.16-.18-.06l.08.23.1-.17Z"/>
          <path class="cls-2" d="M9.73,65.1c-.03.18-.03.42.18.52-.04-.25.04-.21-.01-.5.07-.1.2-.09.24-.01,0-.07.17-.09.13-.24-.23-.03-.38.1-.44.35-.07,0-.07-.08-.09-.12Z"/>
          <path class="cls-2" d="M2.61,74.44l.05-.06s-.04.03-.05.06Z"/>
          <path class="cls-2" d="M.68,81.57c0-.06-.02-.08-.04-.09,0,.05.02.1.04.09Z"/>
          <path class="cls-2" d="M.35,82.82s.01-.05.02-.07c-.02.03-.03.06-.02.07Z"/>
          <path class="cls-2" d="M2.61,74.44l-.14.16c.06.04.09-.07.14-.16Z"/>
          <path class="cls-2" d="M8.93,66.59s.03-.08.03-.12l-.05.09.02.03Z"/>
          <path class="cls-2" d="M3.88,71.43l.03-.05s-.03-.06-.05-.09l.02.14Z"/>
          <path class="cls-2" d="M5.22,69.3s.1.17.16.23c-.04-.07-.05-.13-.03-.18-.03-.02-.07-.04-.12-.06Z"/>
          <path class="cls-2" d="M8,66.45l.03-.07s-.02.05-.03.07Z"/>
          <path class="cls-2" d="M3.01,73s-.05-.01-.07,0c.02.01.05.01.07,0Z"/>
          <path class="cls-2" d="M43.32,113.13s0,.02,0,.03c.01-.02.01-.03,0-.03Z"/>
          <polygon class="cls-2" points="46.27 113.71 46.23 113.73 46.24 113.83 46.27 113.71"/>
          <path class="cls-2" d="M.12,85.18s0-.01,0-.01c-.02-.06-.02-.03,0,.01Z"/>
          <path class="cls-2" d="M9.95,103.81c-.05-.29.42.12.3-.27-.03.08-.44-.02-.3.27Z"/>
          <path class="cls-2" d="M8.87,66.62l-.07.07s.06-.05.07-.07Z"/>
          <path class="cls-2" d="M10.25,103.54h0s-.01-.04-.01-.04c0,.02,0,.03.01.04Z"/>
          <path class="cls-2" d="M1.18,90.52s.05-.05.06-.08c-.02,0-.04.03-.06.08Z"/>
          <path class="cls-2" d="M.62,86.53v.1s0-.07,0-.1Z"/>
          <path class="cls-2" d="M2.14,92.41c0,.06,0,.08.04.14,0-.01.01-.02.01-.03-.03-.01-.06-.04-.05-.11Z"/>
          <path class="cls-2" d="M3.06,94.36s.01-.04.02-.05l-.04-.06.02.11Z"/>
          <path class="cls-2" d="M37.03,113.55c.04.06.07.12.09.17-.03-.14.28-.18-.09-.17Z"/>
          <path class="cls-2" d="M8.85,66.52s.03.07.02.1l.04-.06s-.03-.04-.06-.04Z"/>
          <path class="cls-2" d="M3.55,91.91l.09.31c-.02-.09-.05-.2-.09-.31Z"/>
          <path class="cls-2" d="M22.58,110.41h.08s-.05-.01-.08,0Z"/>
          <path class="cls-2" d="M4.08,93.08c-.03.08-.04.15-.03.22.02,0,.04.01.06.01l-.03-.23Z"/>
          <path class="cls-2" d="M37.12,113.73h0s0,0,0,0Z"/>
          <path class="cls-2" d="M39.3,113.22c-.31,0-.14.25-.21.39-.38.08-.18-.18-.31-.3-.23.07-.41.3-.59.3-.01-.04-.05-.05,0-.11-.25.2-.74.03-1.03.28-.02-.02-.03-.04-.04-.06.04.12.05.25.04.34-.14,0-.27.14-.32-.02.09.01.1-.05.14-.1l-.15.06c-.13-.24.21-.07.21-.24-.29.05-.64.22-.86.14-.04-.23.52-.04.24-.26l.34.11c-.25-.38.21.04-.02-.36-.44-.1-.5.08-.95-.02-.11.12.02.19-.09.31-.66.18-.46-.61-.95-.34-.13.14-.21.43-.53.25l.14-.25c-.43-.06-.28.35-.72.14.09-.09.35-.06.29-.09-.27-.23-.22.13-.45.11l-.02-.23c-.47.02-.99.07-1.5.03.04-.06.14-.12.03-.21-.65,0-1.36-.27-1.94-.51l-.27.15c-.05-.01-.08-.11-.02-.13-.22-.12-.04.12-.17.18-.14-.01-.16-.14-.06-.19-.46.12-1.27.05-1.65-.27l.1-.03c-.32-.17-.49.28-.76.01l.07-.02c-.71-.3-1.59-.33-2.04-.82-.2.23-.66-.4-.84-.04-.34-.34-.2-.36-.72-.71-.15-.08-.32.14-.53.11l.07-.19-.34.1-.04-.28-.2-.02c.07.04.11.14.08.2-.32-.02-.62-.4-.58-.5l-.7-.16c.05-.07.17-.04.27-.05-.42.02.03-.23-.36-.21.02.06-.08.1-.1.13-.1-.19-.44-.37-.73-.45l.11-.1c-.45-.27-1.01-.43-1.53-.69.15.15,0,.35-.17.29l.05-.22c-.16.06.11.16-.16.19-.17-.14,0-.29.14-.29l-.26-.07c.02-.06.09-.06.14-.13-.16.06-.28-.43-.53-.31l.02-.06c-.49-.31-.76-.38-1.17-.62-.11.15-.25.02-.45.07-.26-.24-.52-.55-.86-.8-.29-.1-.16.08-.33.09.08-.15-.27-.39-.02-.36-.42-.28-.54-.36-1.14-.63.01.1.06.17-.01.19-.11-.05-.17-.22-.11-.27h.04c-.76-.21-.99-1.41-1.64-1.52h.04s-.57-.24-.57-.24c-.19-.2.21.01.13-.2-.67-.22-.75-.68-1.24-.92.07-.66-1.04-1.01-1.19-1.63l-.07.1c-.18-.02-.07-.17-.12-.26-.06.07.03.18-.08.16-.49-.37-.82-.91-1.18-1.42-.33-.53-.69-1.05-.99-1.59-.24-.38-.65.16-.75-.47h.27c-.37-.29-.65-.67-.91-1.04-.24-.39-.47-.79-.8-1.11.07.02.13-.02.17.06.04-.24-.36-.59-.47-.53-.06-.13.09-.09.1-.19-.01-.21-.43-.3-.33-.47.02-.03.07.02.1.05-.12-.07-.24-.51-.35-.32-.07-.34-.36-.53-.39-.81-.27-.06-.17-.55-.46-.47.27-.1,0-.63-.21-.77.11.03.02-.2.17-.18-.09-.22-.23-.4-.36-.3.17-.53-.61-.72-.22-1.11-.35-.62-.68-1.22-.86-1.84.3-.05.18.69.48.58-.25-.55-.58-.84-.63-1.45,0-.16.15.06.21.1-.26-.57-.14-1.16-.39-1.67.03,0,.07.05.1.1-.02-.1.01-.25-.12-.22l.05.1c-.17.19-.48-.38-.58-.39.4.15.07-.55.58-.3-.03-.07-.1-.15-.19-.13.02-.11.07-.14.18-.04-.09-.37-.23-.23-.25-.58.07,0,.1.07.18.1-.14-.17-.28-.34-.24-.64.04.02.09-.02.1.07-.04-.5-.33-.86-.2-1.42.29.18.1-.18.35-.2l-.07-.3-.12.11c0-.26-.13-.5-.03-.72l.08.2v-.49s-.12.27-.12.27c-.1-.28-.32,0-.21-.35.02.07.03-.26.19-.38h0c-.07-.14-.13-.28-.05-.47.08-.04.27.08.33.06-.19-.16.05-.61-.14-.81.04.06.17.09.2.08l-.15-.14c.08-.11.1-.12.21-.08.1-.35-.33.05-.12-.35,0,.04.04.03.05.1.14-.42.05-.85.25-1.22.28-.05-.03.35.21.27.11-.56-.02-1.24.24-1.75l-.06.09c-.32-.18.3-.34.24-.66,0,.07.16.15.13.12.19-.34.15-.77.29-1.35l.06.1c.17-.18.28-.53.41-.73-.05-.1.01-.23-.14-.2.75-.47.39-1.41,1.07-1.81-.04.07-.02.21.01.15.06-.18.12-.36.2-.54-.16-.04-.12.02-.29.06-.04-.11-.02-.28.05-.4-.05.27.22.12.35.07-.05,0-.08-.07-.12-.08.39-.11-.24-.2.13-.46l.06.06c.04-.15.03-.33.13-.46.19.04-.01.18.11.27.11-.2-.05-.58.22-.65-.02.11-.08.23-.1.34.3-.08.26-.13.39-.25h-.01s.31-.25.31-.25l-.1.05c-.22-.5.27-.52.25-1.02.01.48.1.15.25.3.1-.05.24-.13.26-.06-.02-.25.27-.17.25-.51.06.03.13-.15.23-.01.11-.21-.12-.03-.18-.09.06-.42.76-.49.86-1.09.2-.43.11-.63.32-1.02.18-.03.09.25.09.25.23-.1.34-.24.43-.45.01.07.08.07.17.08.11-.14-.09-.25.14-.35.02.08.07.2.07.31.1-.19.15-.43.27-.61.12.05.02.21.02.31.14-.2.39-.49.32-.67l-.16.06c.06-.07.14.08.11.15-.05.24-.26.15-.32.11l.08-.13c-.39-.18-.41.46-.63.67l-.11-.29-.05.39c-.1,0-.24-.08-.17-.22-.25.06-.06.21-.31.24-.03,0-.04-.02-.03-.04l-.09.21c-.01-.07-.17-.11-.05-.18-.39.17-.28.6-.54.56v-.04c-.27.48.13.18.05.64l-.56-.12.12.17s-.12.11-.17.04c-.02.25.09.03.12.21-.32.09-.4.62-.7.47.06.17.26-.12.16.16-.34-.16-.15.3-.42.4-.1-.17.11-.3-.16-.2.16.3-.33.35-.41.56.19.15-.18.43-.32.76-.06-.07-.46.49-.7.72l-.03-.03c.18.18-.04.44-.12.68-.12-.08-.15-.15-.14-.3l-.12.2c.04.09.04.17-.01.31l-.13-.14c-.14.28-.09.65-.39.95.14.1.57-.05.48.36-.09-.03-.24-.09-.22-.2,0,.04.01.15-.06.19l-.06-.22c-.14.13.07.14,0,.26-.12-.06-.13.05-.22-.01,0-.04.11-.09.08-.16-.1.13-.26.27-.38.29.07.02.16.08.12.19-.13.28-.2.02-.33.16.05.11-.11.25.07.34-.04.08-.13.06-.19.07.02.18-.27.69,0,.61l.03-.03v.03s0,0,0,0h0c-.03.55-.52.95-.6,1.47l-.06-.02c-.03.32-.18.66-.12.91-.03.08-.18.17-.25.11-.01.24.05.29-.14.59-.05-.26-.12.05-.02-.26-.13.28-.25.32-.16.69-.14-.15-.27.17-.25.33l.17-.18c-.02.16-.07.3-.12.44l-.2-.13c-.42.57.24,1.21-.31,1.6.12.19.17-.32.32-.14-.08.28-.46.53-.47.62-.17.38.28.41.16.82.08-.04.3-.07.34.24-.06.28-.37.32-.42.13,0-.07.03-.1.06-.1-.02-.1-.04-.22-.14-.12l.08.05c-.1.14-.13.54-.25.43.05.23.12.1.18-.05-.16.36-.06.58-.14.96.05-.06.14-.11.14-.05-.12.56.14.25.17.63-.13.21-.29-.08-.2.3-.09.23-.21.05-.28-.05.14.35-.11.66-.12.87l-.07-.19c.04.11.05.2.05.3l.15-.11c-.02.11-.02.2-.08.2.11.11.26-.09.42.12-.07.15.11.43-.1.5.05-.46-.21.06-.26-.32.03.07.03.17,0,.28-.02.02-.04-.01-.06-.04-.17.45.25.19.27.64-.12-.05-.22.13-.18.2-.02-.18.19-.1.3.05-.06.3.11.3.12.46l.02-.18c.13.04.13.19.19.38-.09.03-.09-.17-.12-.1.24.19-.15.53.03.82-.06.16-.22.05-.26.19.2.32-.09.4.11.75.13-.14.09-.15.3.08l-.24-.57.31.34c-.04-.18-.18-.36-.18-.47.17.16.12.15.24.04-.18.29.24.45.14.76l-.39.07c-.07.46.33.72.41,1.28v-.19c.19.03.14.33.25.48-.13.02-.15.14-.2.24.09-.04.11.4.38.37l-.09.3c.06.46.54.36.65.78-.18-.07-.2.15-.4-.09.05.14.08.27.17.24-.04.11.32.31.25.48.08.03.21,0,.26.15-.02.03-.06.03-.06.03.06-.03.18.2.26,0-.24.6.57,1.09.42,1.6.18.26.4.58.53.83-.04,0-.06.03-.07-.02.09.4.46.02.57.47-.07.3-.22-.14-.22.02-.34.28.33.43.28.82l-.06-.05c0,.28.44.39.61.73,0,0-.04,0-.06.03.31.11.67.45.93.7-.21,0-.17-.08-.27.07.12.12.2-.2.43.03-.02.14.05.38-.08.51l-.19-.24c-.1.27.24.32.3.47l-.1.05c.3.36.52.21.8.62l.03-.09c.37.06.03.27.35.36l-.16.23c.17.1.61.32.86.54-.27-.01-.59-.24-.84-.35.12.14.41.46.57.44-.07-.04-.18-.07-.19-.15.3.04.57.19.79.46-.42.28.49.81.39,1.25.58.33.83.96,1.37,1.47.1-.47.16.15.42-.18.14.1.18.16.17.19.07.18.13.37.21.54.01.17-.19-.04-.24.04.26.27,0,.23.12.48.06-.14.24-.07.37.12l-.1-.34c.54.19.11.56.66.75h-.21c.26.11.76.66,1.18.58,0,.07-.02.2-.13.14.45.49,1.37.63,1.64,1.1l-.1.05c.12.05.29-.02.35.15-.03.03-.1.05-.06.09.07.01.37.05.46.2h-.18c.44.49.94.38,1.42.62-.17.24.21.59.4.76l-.03.03c.62.43,1.21.46,1.85.72.19.53,1.2.81,1.73,1.28-.07-.1.12-.2.24-.17.12.13.49.02.35.25l-.05-.03c0,.29.32.38.55.5l.19-.3c.38.81,1.69.53,1.85,1.1.19-.02.38.05.56.03l-.08.17c.41.21.61.32,1.15.48l-.15.09c.29.13.56-.37.83-.28v.3c.52.15.99.54,1.58.44-.02.04-.06.11-.15.1.25.08.92.46.93.06-.06.25.54.18.85.15l-.09.17c.3-.16.32-.23.67-.2.08.04.04.16-.06.09.25.15.25-.13.55.03l-.15.1c.28.06.27,0,.45-.11.19-.04.52.14.53.31.06-.09.24-.2.39-.13.01.07-.06.1-.09.11.44.21.73-.09,1.02.15,0,.06.01.1.04.12-.37-.07-.67-.13-.64-.14-.03.17.27.25-.02.45.27-.08.72-.29,1-.16.01.02.02.04.03.07h-.03c.06.04.13.04.19.02.09.04.15.08.24.09.01.15.33.14.48.17.01-.19.21-.14.04-.31.02.02-.03.02-.13,0-.02,0-.05,0-.07,0h.01c-.1-.03-.23-.05-.37-.07.13-.07.27-.13.42,0,.1-.11.2-.22.25-.27.17.28.55.45.59.62.47-.07,1.1.01,1.42-.32.13-.04.14.11.19.17-.08.03-.17.02-.21.07.27-.07.78.02.86-.22.32.14-.2.21.26.21l-.07.07c.44.23.81.11,1.19-.02.38-.15.76-.29,1.26-.05-.07-.03-.1-.04-.12-.08,1.13.19,2.31-.25,3.44.05.32.03.34-.13.52-.27l.09.19.31-.27c.44-.23.86.4,1.41,0l-.09-.13c.21,0,.66-.16.64,0,.02-.03.05-.15.14-.09l.02.1.49-.24c.41.03,0,.43.59.37.21-.07.57-.38.48-.44-.09,0-.24-.04-.26-.14l.19-.08c-.02-.31.08-.65-.44-.81l-.3.23-.13-.14.28-.04c-.18-.12-.26.02-.36.12-.04-.08-.09-.13-.17-.15l-.28.34c-.06-.12.11-.26-.12-.3-.13.16.19.25-.06.38-.18-.12-.15-.24-.32-.1-.04-.08,0-.13.07-.18-.15.12-.44.09-.5.27-.19-.15-.56.11-.58-.18-.04.08-.27.27-.42.3.24-.39-.58.05-.54-.34-.18.33-.73.25-1.09.44.02-.03.06-.08.09-.06-.21-.02-.28-.12-.41-.17,0,.26-.33.33-.5.5-.27-.25.14-.31.05-.56.02.21-.43.22-.34.4-.2-.15-.17-.07-.28-.29-.02.33-.18.06-.33.27-.29-.16-.08-.31-.39-.2-.15-.1.12-.22.12-.22ZM31.95,113.35h0c.06,0,.12,0,.15.01-.03,0-.08,0-.15-.01ZM31.33,113.24c.07.02.17.04.26.05.01.07-.02.13-.08.12.04-.04-.1-.1-.18-.17ZM32.45,114.78c-.1,0-.13-.03-.14-.07.05,0,.1,0,.18,0l.02-.02s-.03.07-.05.09Z"/>
          <path class="cls-2" d="M32.66,114.56s.02,0,.04,0c-.02-.02-.04-.04-.05-.05l-.04.05h.05Z"/>
          <path class="cls-2" d="M2.67,74.37h0s.02,0,.04,0c-.01,0-.02,0-.03,0Z"/>
          <polygon class="cls-2" points="23.25 110.57 23.24 110.62 23.3 110.6 23.25 110.57"/>
          <path class="cls-2" d="M4.8,71.58s.04,0,.07-.01c-.01,0-.04,0-.07.01Z"/>
          <path class="cls-2" d="M5.62,70.35l.18-.13c-.08.05-.14.09-.18.13Z"/>
          <path class="cls-2" d="M6.35,69.49s-.04-.05-.05-.07h0s.06.07.06.07Z"/>
          <path class="cls-2" d="M1.87,86.3s0,.03.01.04c.05.1.03.03-.01-.04Z"/>
          <path class="cls-2" d="M1.47,80.99c.03.06.06.12.07.18.02-.09.04-.17-.07-.18Z"/>
          <polygon class="cls-2" points="3.54 91.88 3.54 91.88 3.55 91.91 3.54 91.88"/>
          <path class="cls-2" d="M1.51,81.42c.05-.09.05-.17.03-.25-.02.08-.05.17-.03.25Z"/>
          <path class="cls-2" d="M9.66,65.91l.05-.03s-.01-.02-.02-.03l-.03.06Z"/>
          <path class="cls-2" d="M9.69,65.85l.03-.06s-.04.04-.03.06Z"/>
          <path class="cls-2" d="M9.78,65.68l-.06.12s.08-.06.06-.12Z"/>
          <path class="cls-2" d="M8.54,66.89l.04.06s-.02-.04-.04-.06Z"/>
          <path class="cls-2" d="M8.24,67.24c.09-.07.29-.09.37-.23l-.03-.05c.03.12-.35.13-.34.28Z"/>
          <path class="cls-2" d="M6.34,68.14l.29-.27c-.1,0-.23.01-.13-.14-.49.24.19.03-.16.4Z"/>
          <path class="cls-2" d="M5.52,69.04c.1-.19-.09-.06-.11-.09-.03.15-.03.19.11.09Z"/>
          <path class="cls-2" d="M1.59,76.9l-.16-.07c-.02.17.06.02.16.07Z"/>
          <polygon class="cls-2" points="2.03 78.73 2.17 78.61 2.04 78.5 2.03 78.73"/>
          <polygon class="cls-2" points=".64 79.46 .63 79.38 .64 79.66 .64 79.46"/>
          <path class="cls-2" d="M2.73,94.1l.17-.14c-.08-.08-.31,0-.17.14Z"/>
          <path class="cls-2" d="M6.35,99.39c-.05.12.01.31.17.32-.08-.12-.11-.28-.17-.32Z"/>
          <polygon class="cls-2" points="21.04 111.48 20.89 111.49 21.13 111.54 21.04 111.48"/>
        </g>
        <g>
          <path class="cls-2" d="M6.89,9.9c0,.07.09.19.17.11l-.05-.25-.12.14Z"/>
          <path class="cls-2" d="M7.76,9.95c.06-.17.12-.41-.05-.58-.02.26-.09.19-.09.5-.08.08-.21.02-.23-.07,0,.07-.18.03-.16.19.22.1.37.02.47-.2.06.03.05.1.06.15Z"/>
          <path class="cls-2" d="M17.7,10.81l-.04-.06s.02.04.04.06Z"/>
          <path class="cls-2" d="M21.51,15.64s-.05-.05-.07-.05c.03.04.05.06.07.05Z"/>
          <path class="cls-2" d="M21.59,16.72v-.06s-.02.05,0,.06Z"/>
          <path class="cls-2" d="M17.7,10.81l.1.16c.05-.06-.04-.1-.1-.16Z"/>
          <path class="cls-2" d="M8.94,8.87s-.06.05-.08.09l.08-.05v-.04Z"/>
          <path class="cls-2" d="M15.1,9.91h-.05s-.04.04-.07.07l.12-.07Z"/>
          <path class="cls-2" d="M13.03,9.59s.08-.19.1-.28c-.03.08-.07.12-.12.13,0,.04,0,.09.01.15Z"/>
          <path class="cls-2" d="M9.66,9.53l-.05.04s.03-.03.05-.04Z"/>
          <path class="cls-2" d="M16.49,10.46s-.01.06-.01.07c0-.02.01-.05.01-.07Z"/>
          <path class="cls-2" d="M8.91,60.89s-.02.01-.03.02c.02,0,.04,0,.03-.02Z"/>
          <polygon class="cls-2" points="9.79 63.44 9.75 63.42 9.67 63.5 9.79 63.44"/>
          <path class="cls-2" d="M21.68,18.61h0c-.03-.05-.02-.03,0,0Z"/>
          <path class="cls-2" d="M11.8,32.29c.28.01-.13.4.25.36-.07-.04.03-.43-.25-.36Z"/>
          <path class="cls-2" d="M9.01,8.87s.06-.02.09-.03c-.04,0-.07.02-.09.03Z"/>
          <path class="cls-2" d="M12.05,32.65h0s.04,0,.04,0c-.02,0-.03,0-.04,0Z"/>
          <path class="cls-2" d="M21.22,22.81s.07,0,.1,0c-.02,0-.05,0-.1,0Z"/>
          <path class="cls-2" d="M22.12,19.7l-.03.08s.03-.06.03-.08Z"/>
          <path class="cls-2" d="M20.73,24.46s-.07.03-.08.1h.03s0-.07.04-.1Z"/>
          <path class="cls-2" d="M19.7,25.94s.04,0,.05,0l.03-.05-.08.05Z"/>
          <path class="cls-2" d="M6.23,56.16c-.04.06-.09.1-.15.14.13-.08.26.16.15-.14Z"/>
          <path class="cls-2" d="M8.98,8.98c0-.05,0-.08.03-.1l-.06.03s.01.06.03.07Z"/>
          <path class="cls-2" d="M22.08,25.36l-.19.27c.06-.07.13-.17.19-.27Z"/>
          <path class="cls-2" d="M5.86,43.37v.07s.02-.05,0-.07Z"/>
          <path class="cls-2" d="M21.37,26.43c-.09,0-.16.03-.22.06,0,.02,0,.04.02.06l.2-.13Z"/>
          <path class="cls-2" d="M6.08,56.3h0s0,0,0,0Z"/>
          <path class="cls-2" d="M7.27,57.84c-.11-.25-.29,0-.46.01-.21-.27.12-.22.2-.38-.15-.15-.44-.2-.49-.34.04-.03.04-.06.1-.05-.3-.11-.27-.58-.59-.73.02-.03.04-.04.05-.05-.11.09-.24.14-.33.17-.04-.12-.24-.16-.09-.27.02.07.09.06.15.07l-.12-.1c.2-.2.14.14.32.08-.16-.21-.46-.43-.45-.64.22-.11.23.41.35.09v.31c.3-.34.04.18.37-.16-.06-.39-.26-.37-.32-.76-.16-.04-.19.09-.35.04-.4-.48.49-.59.07-.9-.19-.06-.5-.03-.41-.36l.3.03c-.06-.37-.45-.12-.35-.55.12.05.16.27.18.21.16-.3-.2-.15-.25-.34l.23-.09c-.1-.39-.34-.81-.45-1.25.08.02.17.08.23-.03-.23-.54-.08-1.21.03-1.75l-.23-.2s.09-.09.14-.04c.07-.21-.14,0-.23-.11-.02-.12.11-.16.18-.09-.21-.37-.37-1.08-.13-1.47l.06.08c.1-.3-.43-.38-.22-.65l.04.06c.15-.66.07-1.43.45-1.89-.3-.15.27-.62-.14-.75.29-.33.34-.21.6-.7.05-.13-.21-.27-.22-.46l.22.05c-.06-.1-.11-.19-.16-.29l.3-.05v-.17c-.04.06-.14.11-.2.08-.02-.28.34-.56.46-.53v-.65c.09.04.08.15.12.25-.12-.39.24.02.13-.33-.06.02-.12-.07-.16-.09.18-.09.32-.4.36-.65l.12.1c.23-.39.28-.91.54-1.35-.15.13-.37-.03-.32-.17l.24.06c-.08-.15-.16.1-.22-.16.12-.16.3.01.32.14l.04-.24c.07.02.08.09.15.14-.08-.15.4-.23.24-.47l.07.02c.24-.44.28-.69.52-1.02-.17-.12-.04-.23-.1-.42.23-.21.56-.39.75-.7.07-.27-.09-.17-.11-.33.16.1.39-.18.37.04.27-.35.34-.44.6-.96-.1,0-.17.02-.19-.05.05-.1.21-.12.27-.05v.03c.22-.68,1.4-.63,1.52-1.25v.03s.25-.5.25-.5c.21-.13-.02.2.19.17.25-.6.72-.54.96-.99.62.21,1-.83,1.62-.84l-.1-.09c.03-.18.17-.03.26-.07-.07-.07-.18,0-.16-.11.78-.78,1.93-1.2,2.91-1.83.35-.24-.24-.68.37-.77l.04.28c.48-.76,1.35-1.14,1.79-1.91,0,.07.05.13,0,.18.26,0,.47-.47.37-.57.1-.09.11.07.22.06.2-.06.15-.48.34-.44.03,0,0,.08,0,.11.02-.14.38-.41.15-.45.28-.19.33-.53.58-.66-.08-.27.41-.39.18-.62.26.21.56-.32.51-.59.05.11.18-.1.26.04.12-.21.17-.43,0-.48.59-.19.09-.92.67-.93.14-.72.21-1.39.28-2.01.32.1-.15.68.19.75.04-.64-.17-1.02,0-1.59.07-.14.13.11.17.17-.04-.61.17-1.16-.01-1.7.03,0,.06.06.09.11,0-.1.05-.24-.1-.23l.04.1c-.22.16-.45-.41-.57-.41.44.16.08-.51.64-.26-.03-.07-.11-.15-.21-.13.02-.1.08-.14.2-.04-.1-.37-.26-.22-.29-.55.07,0,.11.06.2.08-.16-.16-.32-.3-.3-.59.04,0,.1-.03.11.05-.12-.48-.51-.74-.53-1.27.35.07.05-.2.3-.31-.05-.09-.1-.17-.16-.25l-.09.15c-.08-.24-.34-.38-.33-.61l.17.14c-.07-.14-.13-.28-.21-.42,0,.09,0,.19,0,.28-.22-.18-.3.15-.36-.18.05.05-.09-.22,0-.4h0c-.13-.07-.25-.15-.28-.34.06-.08.29-.1.33-.16-.26,0-.33-.49-.62-.5.07.02.2-.05.22-.08h-.21c0-.12,0-.15.11-.19-.16-.31-.24.27-.33-.15.03.02.04,0,.1.03-.15-.4-.55-.58-.7-.93.15-.26.25.22.36-.02-.38-.42-.98-.66-1.32-1.06l.05.09c-.32.24-.15-.42-.49-.44.07.02.21-.11.16-.09-.25-.28-.65-.4-1.17-.59l.11-.05c-.12-.2-.45-.34-.63-.49-.11.05-.21-.02-.21.14-.17-.43-.54-.48-.86-.54-.34-.03-.66-.05-.89-.37.07.02.2-.03.14-.05l-.54-.06c0,.17.04.12.11.27-.09.08-.25.11-.38.08.25-.04.07-.26,0-.38,0,.05-.04.1-.05.15-.2-.35-.12.32-.44.05l.04-.08c-.15.02-.29.11-.43.05-.03-.21.16-.06.2-.22-.21-.04-.47.3-.63.08.1-.04.22-.03.32-.07-.17-.25-.21-.2-.36-.26h.01s-.35-.14-.35-.14l.09.07c-.31.48-.56.06-.93.37.35-.3.06-.18.09-.4-.09-.07-.23-.13-.19-.2-.17.18-.3-.14-.54.13-.01-.07-.19,0-.16-.18-.23.07.06.12.04.21-.32.27-.85-.25-1.3.18-.4.2-.43.46-.77.67-.15-.08.04-.28.04-.28-.23-.05-.39,0-.56.14.02-.07-.03-.11-.12-.17-.15.07-.03.28-.26.25,0-.09.01-.22.07-.32-.17.13-.31.3-.47.44-.09-.1.04-.22.08-.32-.2.13-.51.33-.49.53h.16c-.07.05-.1-.13-.06-.19.12-.22.28-.04.32.02l-.11.1c.28.32.5-.26.78-.32l-.02.33.2-.33c.08.06.17.21.05.29.23.09.14-.15.34-.03.02.02.02.04,0,.05l.16-.13c-.02.07.08.2-.04.19.36.09.48-.35.66-.14l-.02.02c.45-.18,0-.23.32-.54.11.17.21.33.31.51l.02-.23s.15.01.14.1c.17-.17-.04-.09.05-.25.25.18.65-.15.72.22.08-.17-.23-.13.02-.25.08.38.29-.07.51.1-.07.2-.27.1-.06.27.13-.34.41.09.58.04.03-.27.4-.09.7-.13-.03.08.54.22.79.38l-.02.04c.11-.25.38-.15.6-.14-.05.15-.1.2-.23.24l.19.05c.07-.07.14-.1.27-.09l-.1.18c.25.05.57-.07.84.17.09-.17-.07-.58.32-.57-.02.1-.08.26-.18.27.03,0,.13-.04.18.02l-.2.11c.12.12.13-.11.24-.05-.06.13.04.13-.02.23-.03,0-.07-.1-.14-.06.12.07.23.23.24.35.02-.08.08-.18.18-.15.24.1,0,.19.11.32.1-.07.2.1.3-.09.07.04.03.13.03.2.16-.02.55.28.54,0l-.02-.03h.02s0,0,0,0h0c.5.06.71.6,1.1.81l-.05.06c.26.09.47.34.71.36.06.05.04.22-.04.26.18.09.25.07.36.36-.23-.06-.04.13-.2-.09.13.23.07.35.41.43-.2.05-.06.3.05.36v-.22c.1.09.16.2.22.3l-.23.09c.06.56.96.49.72,1.09.21.04-.03-.31.2-.3.09.23-.1.61-.07.68.02.34.45.12.51.47.06-.07.26-.21.44,0,.06.25-.23.42-.35.3-.03-.05,0-.09.02-.1-.06-.06-.14-.14-.18-.02h.09c-.04.14.08.44-.08.42.14.14.16.02.16-.12-.02.33.17.45.16.78.03-.06.12-.13.13-.09.02.48.22.15.34.46-.09.21-.32,0-.15.3-.05.21-.22.09-.3.03.22.24,0,.54-.02.7l-.09-.13c.05.08.06.15.07.22l.16-.11c-.02.09-.01.16-.08.17.12.08.28-.11.46.05-.07.13.14.35-.09.41.05-.38-.22.06-.29-.24.03.06.05.13.02.22-.03.02-.05,0-.06-.03-.19.36.27.14.28.5-.13-.04-.24.09-.21.15,0-.14.21-.08.32.06-.11.24.07.26.05.38l.05-.14c.13.05.11.17.15.34-.1,0-.07-.16-.11-.1.23.2-.25.4-.13.67-.1.11-.24-.01-.31.08.14.3-.21.27-.12.58.19-.05.15-.08.28.16l-.04-.5.2.35c.03-.15-.05-.33-.01-.41.13.17.08.15.24.1-.29.17.08.44-.14.65l-.42-.09c-.26.29.08.66-.17,1.07l.12-.12c.14.11-.07.28-.06.44-.13-.06-.21,0-.32.03.11.03-.13.3.11.45l-.26.11c-.23.3.21.58-.03.87-.08-.17-.25-.08-.23-.34-.06.1-.14.18-.05.23-.11.01,0,.39-.17.41.03.08.15.17.07.28-.03,0-.06-.04-.06-.04.06.04-.03.24.17.22-.6.06-.58.91-1.11.92-.14.23-.3.52-.46.71-.02-.04-.05-.05,0-.07-.33.15.16.43-.22.61-.3-.02.05-.24-.1-.21-.38-.29-.27.39-.66.36l.03-.06c-.25.02-.22.46-.48.66,0,0-.02-.04-.05-.05,0,.33-.27.67-.47.93-.05-.21.04-.17-.12-.27-.09.11.23.2.05.43-.14-.02-.35.04-.5-.1l.2-.18c-.27-.11-.26.22-.4.28l-.06-.1c-.29.28-.11.52-.48.77l.09.04c-.02.37-.26,0-.32.31l-.23-.18c-.08.15-.27.56-.47.78,0-.27.2-.56.29-.78-.12.1-.41.34-.39.5.03-.06.06-.17.13-.17-.02.3-.16.54-.41.73-.29-.48-.75.38-1.19.17-.32.51-.95.6-1.45,1.03.45.2-.14.13.16.46-.1.12-.15.15-.18.13l-.53.08c-.17-.03.05-.17-.02-.24-.29.19-.23-.06-.48,0,.14.09.05.25-.14.33h.34c-.21.47-.56-.05-.78.45l.02-.21c-.13.23-.7.6-.63,1.03-.07,0-.19-.06-.13-.16-.48.37-.69,1.19-1.15,1.4l-.05-.11c-.05.11.02.28-.15.32-.03-.04-.05-.11-.09-.07-.01.07-.05.35-.2.42v-.18c-.26.17-.35.39-.41.62-.04.24-.05.48-.16.7-.26-.19-.61.12-.79.29l-.03-.03c-.45.53-.4,1.13-.6,1.73-.25.09-.44.36-.63.67-.16.32-.31.68-.53.94.09-.07.22.11.21.23-.12.11.05.46-.22.32l.03-.05c-.31,0-.38.3-.45.53l.35.17c-.71.41-.31,1.59-.86,1.77.06.17.02.35.08.52l-.2-.06c-.14.39-.21.59-.27,1.1l-.12-.13c-.08.28.51.46.49.72l-.31.03c-.06.49-.39.97-.17,1.49-.04-.01-.13-.03-.13-.12-.06.23-.26.91.16.84-.28,0-.04.52.07.79l-.2-.05c.25.23.32.24.38.55-.03.07-.17.07-.11-.03-.12.25.19.19.09.49l-.14-.11c0,.26.07.23.23.37.09.16-.03.48-.21.53.11.03.27.16.23.31-.07.03-.12-.03-.14-.05-.11.44.26.61.11.92-.07.01-.1.04-.11.06-.05-.34-.05-.61-.03-.59-.19.02-.2.3-.47.1.14.22.52.56.47.83-.02.02-.03.03-.06.04l-.02-.03c0,.06.02.12.05.17-.02.09-.03.15-.02.23-.15.05-.04.33-.02.47.2-.05.19.14.34-.06-.01.02-.03-.02-.05-.11,0-.02-.02-.04-.03-.05h.02c-.02-.08-.04-.2-.06-.33.12.09.22.19.13.36.14.05.29.1.35.13-.26.23-.35.62-.5.7.21.39.31.96.74,1.11.08.1-.08.16-.12.22-.05-.06-.07-.14-.13-.16.15.21.21.68.49.65-.02.32-.29-.09-.12.29l-.1-.03c-.12.91,1.02,1.03.9,2.03,0-.07,0-.1.04-.13.1.51.36.98.63,1.42.3.44.58.87.67,1.41.08.29.24.22.46.29l-.15.17.39.1c.4.23,0,.92.6,1.14l.08-.15c.08.18.47.4.31.49.03,0,.16-.05.15.05l-.08.08.47.22c.19.33-.38.27-.02.68.17.12.63.18.63.07-.05-.06-.09-.2-.01-.29l.16.09c.26-.22.59-.38.47-.85l-.35-.07.06-.18.17.17c.02-.21-.14-.18-.27-.19.05-.08.07-.15.05-.21h-.43c.08-.11.28-.07.21-.26-.2,0-.14.29-.36.19.02-.21.15-.26-.07-.29.05-.07.12-.08.19-.06-.18-.04-.3-.25-.48-.2.06-.24-.33-.37-.07-.55-.09.01-.35-.05-.44-.16.46-.03-.28-.42.1-.6-.4.06-.5-.44-.81-.62.03,0,.1,0,.1.04-.07-.17,0-.27,0-.4-.26.13-.46-.08-.69-.13.13-.33.36-.05.56-.24-.2.12-.4-.22-.53-.06.07-.23,0-.17.17-.35-.34.14-.13-.11-.38-.14.06-.3.28-.21.07-.4.05-.16.26,0,.26,0ZM4.88,51.9h0c.01.05.02.1.03.13,0-.03-.02-.06-.03-.13ZM4.8,51.36c0,.07.01.15.03.24-.07.03-.14.01-.15-.04.05.02.07-.11.12-.2ZM3.56,52.73c-.04-.09,0-.12.03-.14,0,.04.02.09.05.16h.03s-.08,0-.11-.01Z"/>
          <path class="cls-2" d="M3.85,52.85s.02.02.02.03c.01-.02.03-.04.04-.06l-.07-.02v.05Z"/>
          <path class="cls-2" d="M17.65,10.75h0s0-.01,0-.03c0,.01,0,.02,0,.03Z"/>
          <polygon class="cls-2" points="5.77 43.96 5.72 43.95 5.76 44.01 5.77 43.96"/>
          <path class="cls-2" d="M15.05,8.92s0-.04-.03-.06c0,.01.01.04.03.06Z"/>
          <path class="cls-2" d="M13.7,8.63l-.19-.1c.08.05.14.08.19.1Z"/>
          <path class="cls-2" d="M12.63,8.44s-.02.06-.02.09h0s.02-.09.02-.09Z"/>
          <path class="cls-2" d="M23.5,19.66s0,.03,0,.04c.04.1.02.03,0-.04Z"/>
          <path class="cls-2" d="M22,14.8c.06.03.11.07.16.11-.02-.09-.05-.15-.16-.11Z"/>
          <polygon class="cls-2" points="22.1 25.33 22.1 25.33 22.08 25.36 22.1 25.33"/>
          <path class="cls-2" d="M22.25,15.12c0-.1-.04-.16-.09-.22.02.07.03.16.09.22Z"/>
          <path class="cls-2" d="M8.02,9.18h-.05s0,.04,0,.05l.04-.05Z"/>
          <path class="cls-2" d="M7.98,9.23l-.04.04s.05-.02.04-.04Z"/>
          <path class="cls-2" d="M7.84,9.37l.09-.1s-.09.03-.09.1Z"/>
          <path class="cls-2" d="M9.42,8.81v-.08s0,.04,0,.08Z"/>
          <path class="cls-2" d="M9.83,8.69c-.1,0-.29-.09-.42-.01v.06c.04-.12.36.1.42-.05Z"/>
          <path class="cls-2" d="M11.68,9.36l-.34-.03c.07.07.15.17,0,.21.43.2-.1-.17.34-.18Z"/>
          <path class="cls-2" d="M12.72,9.47c-.18.03,0,.12-.01.16.11-.07.14-.08.01-.16Z"/>
          <path class="cls-2" d="M19.37,12.31l-.15.12c.12.07.05-.05.15-.12Z"/>
          <polygon class="cls-2" points="21.07 12.82 21.07 12.63 20.89 12.68 21.07 12.82"/>
          <path class="cls-2" d="M20.44,14.27l-.05-.03c.06.05.12.1.17.15-.04-.04-.08-.08-.12-.12Z"/>
          <path class="cls-2" d="M19.76,25.58l.21.11c.02-.1-.17-.27-.21-.11Z"/>
          <path class="cls-2" d="M15.99,29.51c-.12-.05-.29-.02-.29.13.11-.06.26-.07.29-.13Z"/>
          <polygon class="cls-2" points="4.46 42 4.42 41.86 4.42 42.1 4.46 42"/>
        </g>
        <g>
          <path class="cls-2" d="M142.17,49.94c.05.09.2.07.2-.14l-.22-.19.02.34Z"/>
          <path class="cls-2" d="M142.82,48.6c-.08-.27-.24-.58-.49-.45.19.28.09.32.33.63,0,.22-.13.36-.21.3.05.09-.1.32.03.46.22-.24.28-.59.18-.98.06-.07.12.02.16.04Z"/>
          <path class="cls-2" d="M140.34,28l.03.14s0-.09-.03-.14Z"/>
          <path class="cls-2" d="M133.44,16.91c.07.07.12.09.14.07-.08-.06-.14-.1-.14-.07Z"/>
          <path class="cls-2" d="M132.12,15.07s.05.07.08.11c-.02-.05-.04-.1-.08-.11Z"/>
          <path class="cls-2" d="M140.34,28l-.07-.35c-.08,0,.02.19.07.35Z"/>
          <path class="cls-2" d="M142.56,45.7c0,.07.03.13.05.19l-.02-.18h-.04Z"/>
          <path class="cls-2" d="M142.46,33.38l.02.1s.07.04.12.06l-.14-.17Z"/>
          <path class="cls-2" d="M143.4,37.73c0-.1-.21-.1-.31-.13.09.04.14.11.17.2.04,0,.08-.02.14-.07Z"/>
          <path class="cls-2" d="M143.44,44.76l.02.13s-.02-.09-.02-.13Z"/>
          <path class="cls-2" d="M141.53,30.33s.05-.04.06-.06c-.02,0-.04.03-.06.06Z"/>
          <path class="cls-2" d="M30.66,16.2s0-.02,0-.04c-.03.01-.04.03,0,.04Z"/>
          <path class="cls-2" d="M26.01,13.78h.07s.04-.06.05-.09l-.12.09Z"/>
          <path class="cls-2" d="M129.21,12.1s0,0,.01.01c.1.05.05.01-.01-.01Z"/>
          <path class="cls-2" d="M93.17,4.51c.45.12-.65.34.02.44-.07-.07.53-.41-.02-.44Z"/>
          <path class="cls-2" d="M142.59,45.59v-.18c0,.08,0,.13,0,.18Z"/>
          <path class="cls-2" d="M93.19,4.96h0s.07.01.07.01c-.03,0-.04,0-.07-.01Z"/>
          <path class="cls-2" d="M121.04,7.13s.03.08.05.13c0-.02,0-.05-.05-.13Z"/>
          <path class="cls-2" d="M127.04,10.94l-.12-.13c.04.06.08.1.12.13Z"/>
          <path class="cls-2" d="M117.5,6.05c-.09-.04-.11-.08-.24-.09,0,.01.02.02.03.03.05-.01.12,0,.21.05Z"/>
          <path class="cls-2" d="M113.82,5.04s.04.04.06.06c.04,0,.08.01.12.01l-.18-.07Z"/>
          <path class="cls-2" d="M42.25,17.2c-.08-.06-.14-.12-.18-.18.06.15-.5.2.18.18Z"/>
          <path class="cls-2" d="M142.68,45.7c-.05-.03-.08-.06-.08-.12v.12s.06.02.08,0Z"/>
          <path class="cls-2" d="M116.85,7.54l-.55-.19c.15.06.35.13.55.19Z"/>
          <path class="cls-2" d="M68.93,12.2l-.13.06c.05,0,.1-.03.13-.06Z"/>
          <path class="cls-2" d="M114.63,6.9c-.08-.1-.18-.17-.28-.23-.03.01-.06.02-.08.04.12.06.24.13.36.19Z"/>
          <path class="cls-2" d="M42.07,17.01h0s0,0,0,0Z"/>
          <path class="cls-2" d="M38.05,17.43c.58.03.29-.25.42-.4.69-.04.31.21.54.36.44-.06.77-.27,1.09-.27.02.04.09.06.01.12.46-.22,1.36-.02,1.88-.29.04.02.06.05.07.07-.09-.13-.1-.27-.09-.37.26,0,.47-.17.57,0-.16,0-.17.07-.24.12l.27-.08c.25.25-.37.09-.36.28.53-.07,1.13-.34,1.53-.28.1.24-.94.14-.39.33l-.63-.06c.49.37-.38-.01.07.39.83.02.92-.18,1.75-.15.18-.15-.07-.2.1-.35,1.14-.31.97.57,1.8.15.21-.19.26-.51.88-.41l-.18.3c.8-.05.41-.45,1.26-.34-.13.12-.61.16-.49.18.56.16.36-.19.77-.25l.12.23c.84-.16,1.74-.46,2.65-.65-.04.08-.19.19.04.22,1.14-.34,2.5-.39,3.64-.48l.38-.3c.1-.02.2.06.1.12.45,0,0-.14.19-.26.24-.07.35.05.21.15.74-.33,2.09-.85,2.95-.82l-.14.1c.65-.06.6-.59,1.23-.53l-.1.06c1.37-.25,2.82-.8,3.92-.76.12-.35,1.36-.22,1.34-.66.82,0,.62.14,1.74-.02.29-.06.36-.38.7-.52l.07.21.42-.36.33.19.32-.15c-.14.02-.31-.02-.31-.09.49-.24,1.31-.2,1.35-.09l1.18-.53c0,.09-.2.18-.35.28.59-.41.18.2.73-.18-.09-.03,0-.14,0-.19.34.05,1.02-.14,1.51-.34l-.05.18c.92-.22,1.9-.61,2.92-.89-.38.03-.37-.25-.08-.36l.18.2c.15-.2-.34,0,.01-.28.39-.08.33.19.13.32l.44-.21c.05.06-.05.13-.06.22.15-.2.86,0,1.07-.32l.04.06c1.02-.27,1.46-.48,2.29-.71-.04-.2.3-.25.51-.47.63-.1,1.35-.11,2.08-.32.49-.23.11-.21.31-.39.08.17.82-.03.47.19.88-.25,1.12-.31,2.21-.73-.14-.05-.29-.05-.23-.12.2-.08.48-.03.47.06l-.05.03c1.21-.57,3.03-.12,3.96-.7l-.05.03,1.01-.4c.49-.06-.26.19.12.24,1.07-.53,1.79-.28,2.7-.63.8.41,2.57-.41,3.59-.17l-.07-.12c.24-.16.31.04.5.05-.04-.1-.29-.08-.14-.17,1.07-.2,2.19-.21,3.3-.22,1.12.06,2.25.1,3.34.19.8.05.47-.66,1.48-.33l-.3.23c.82-.14,1.65-.07,2.47,0,.82.07,1.64.16,2.44.17-.1.04-.11.11-.27.09.31.22,1.22.19,1.25.05.24.05.04.14.17.23.31.14.87-.08,1.01.13.02.03-.1.04-.17.04.23-.04.99.24.83,0,.56.22,1.13.15,1.57.37.35-.13.95.39,1.13.11-.13.31.92.55,1.33.5-.15.06.28.19.1.28.4.13.78.23.77.04.59.66,1.6.28,1.82.91.64.12,1.2.36,1.76.57.56.22,1.1.44,1.64.66-.2.27-1.15-.55-1.26-.22,1.03.36,1.74.39,2.6,1.07.21.19-.21.04-.32.03.49.23.93.52,1.36.8.44.27.85.54,1.28.78-.02.02-.12-.01-.22-.05.16.11.32.31.39.18l-.17-.08c-.12-.36.87.1.97.03-.52.14.7.68-.05.79.12.05.29.1.33,0,.13.14.14.22-.08.19.59.35.5.08.99.47-.05.05-.17,0-.27.02.35.07.65.21,1.01.6-.05.01-.05.1-.16-.01.67.6,1.39.77,2.03,1.55-.43.01.16.32,0,.55l.42.34-.05-.25c.31.35.73.52.94.88l-.32-.18.63.61-.26-.44c.42.26.22-.27.59.25-.11-.08.32.35.36.64h0c.22.12.43.26.59.58-.01.13-.28.13-.29.21.32.04.72.83,1.09.92-.1-.04-.22.04-.23.08l.26.04c.08.21.08.25-.03.29.37.54.15-.37.5.34-.05-.04-.05,0-.15-.08.43.65.93,1.19,1.26,1.84-.12.33-.39-.49-.46-.16.59.84,1.46,1.61,1.84,2.55l-.06-.18c.41-.06.18.75.58,1.11-.08-.1-.27-.04-.21-.03.26.63.76,1.18,1.26,2.1l-.14-.08c.08.41.37,1,.5,1.42.14.08.23.32.3.12.02.72.27,1.3.55,1.86.28.56.56,1.11.52,1.74-.04-.14-.19-.3-.15-.19.14.31.27.62.37.95.14-.12.07-.16.15-.4.13.1.27.36.33.61-.21-.42-.26.07-.31.29.04-.05.11,0,.16-.02-.17.59.35,0,.32.76l-.1-.02c.11.25.28.47.32.77-.16.16-.16-.26-.32-.25.1.4.55.72.44,1.12-.08-.16-.15-.41-.24-.57-.14.44-.05.47-.05.78v-.03s0,.7,0,.7l.04-.19c.58.43.24,1.02.67,1.66-.41-.63-.2-.09-.42-.11-.04.18-.07.45-.14.39.21.3-.04.55.24.98-.07.03.01.35-.17.29.08.42.12-.11.21-.08.28.64-.22,1.55.16,2.47.18.81.35.96.46,1.73-.12.25-.25-.22-.25-.22-.12.41-.12.72-.05,1.11-.06-.08-.12,0-.2.11,0,.31.25.23.13.63-.08-.08-.2-.18-.27-.33.05.37.18.74.17,1.12-.14.09-.15-.25-.22-.38,0,.42-.05,1.1.13,1.26l.11-.26c-.01.16-.18.06-.2-.06-.1-.38.14-.51.22-.53v.27c.23-.11.26-.39.23-.7-.05-.31-.15-.66-.13-.93l.29.25-.23-.58c.08-.11.26-.19.29.09.17-.39-.09-.35.09-.69.03-.04.04-.02.05.02l-.07-.39c.06.08.22-.06.16.18.2-.69-.17-1.12.06-1.38l.02.06c-.15-.96-.23-.09-.53-.8l.53-.5-.23-.09c0-.1,0-.3.1-.26-.17-.36-.09.07-.25-.14.18-.49-.16-1.3.19-1.44-.18-.16-.11.47-.25-.03.38-.18-.14-.58-.03-1.03.22.11.17.53.28.08-.37-.22-.05-.85-.17-1.22-.27.02-.22-.78-.4-1.38.1.02-.12-1.16-.16-1.75h.05c-.29-.04-.37-.63-.53-1.04.16-.03.24.03.36.25l-.1-.4c-.11-.07-.18-.18-.27-.43l.22.05c-.17-.52-.56-.97-.65-1.68-.19.02-.32.68-.67.03.09-.06.24-.14.34.03-.03-.06-.15-.19-.15-.32l.25.22c-.03-.33-.19-.11-.25-.36.14-.04.04-.21.16-.21.03.06.01.23.1.3-.07-.28-.09-.64-.03-.78-.07.05-.18.07-.27-.13-.18-.51.11-.24.07-.56-.15-.09-.18-.44-.39-.37-.06-.15.02-.21.05-.29-.2-.22-.54-1.2-.63-.82v.07s-.01-.04-.01-.04h0s0,0,0,0c-.55-.76-.63-1.81-1.17-2.57l.07-.03c-.33-.44-.61-1.05-.93-1.32-.08-.14-.06-.4.04-.38-.24-.34-.34-.34-.56-.91.33.29.02-.18.31.31-.24-.49-.21-.66-.69-1.04.26.07-.02-.47-.21-.66l.09.39c-.18-.23-.3-.45-.43-.68l.28-.02c-.33-1.14-1.57-1.35-1.68-2.32-.31-.13.27.55-.05.46-.28-.42-.33-1.06-.43-1.19-.33-.65-.66-.31-1.09-.9,0,.13-.12.34-.55,0-.32-.4-.15-.71.12-.51.09.09.11.15.08.16.13.1.31.24.24.03h-.11c-.1-.24-.59-.76-.37-.73-.32-.23-.22-.03-.06.22-.35-.57-.69-.76-1.08-1.33.04.11.03.26-.04.18-.63-.77-.43-.19-.94-.62-.19-.35.32-.13-.25-.51-.24-.35.09-.23.26-.17-.57-.3-.78-.87-1.02-1.14l.29.17c-.17-.1-.29-.21-.41-.32l.02.26c-.12-.15-.24-.26-.19-.32-.22-.05-.08.32-.47.18-.15-.22-.67-.4-.6-.63.58.55.08-.23.64.16-.12-.06-.25-.16-.38-.3,0-.04.05-.02.1,0-.48-.64-.44-.02-1.07-.51.16-.04,0-.31-.12-.37.25.2,0,.27-.3.17-.34-.39-.48-.28-.69-.45l.21.22c-.16.04-.34-.13-.66-.3.04-.11.3.13.22.02-.45-.04-.61-.68-1.16-.85-.17-.21.11-.22-.05-.39-.61-.19-.47-.51-1.1-.74.07.25.12.23-.35.13l.96.47-.71-.15c.27.17.63.27.78.4-.35-.05-.3-.07-.25.13-.23-.46-.81-.33-1.14-.76l.23-.37c-.59-.53-1.32-.43-2.15-.98l.25.21c-.2.09-.56-.26-.87-.34.09-.12-.07-.26-.16-.4-.02.09-.66-.31-.87-.07l-.34-.34c-.72-.36-1,.05-1.7-.27.27-.06-.02-.29.5-.21-.24-.09-.45-.2-.49-.11-.11-.13-.72-.09-.91-.27-.12.03-.2.16-.47.07-.02-.04.02-.07.02-.07-.02.07-.46-.03-.27.19-.63-.65-2.11-.61-2.69-1.09-.56-.07-1.23-.17-1.72-.26.04-.04.01-.07.11-.04-.66-.28-.5.33-1.25.06-.36-.29.44-.06.2-.19-.04-.48-.96-.07-1.45-.43h.13c-.39-.23-1.01.02-1.68-.05,0,0,.04-.04.01-.07-.48.2-1.34.21-1.99.23.21-.17.3-.07.19-.27-.29,0,.07.3-.51.33-.18-.11-.59-.21-.64-.41h.54c-.27-.26-.7,0-.99-.06l.04-.11c-.84.02-.85.29-1.74.27l.09.08c-.48.3-.41-.15-.89.08l-.15-.28c-.32.08-1.12.31-1.69.38.31-.22.98-.35,1.4-.49-.32,0-1.09.05-1.25.2.13-.03.29-.11.42-.07-.38.23-.89.37-1.52.42.07-.56-1.66-.02-2.16-.41-1.09.35-2.23.15-3.53.39.52.36-.38.07-.23.5-.3.07-.41.09-.44.06l-.96-.12c-.24-.09.27-.14.23-.24-.67.07-.31-.14-.77-.19.12.14-.19.27-.58.28l.56.1c-.87.41-.86-.22-1.74.19l.27-.19c-.46.17-1.76.32-2.14.79-.09-.03-.23-.13-.03-.2-1.14.19-2.42.91-3.34.91l.06-.13c-.2.08-.32.29-.6.24,0-.05.06-.13-.04-.11-.1.06-.51.32-.8.32l.21-.18c-1.13.12-1.6.71-2.49,1.01-.08-.31-.96-.2-1.4-.13v-.05c-1.27.3-2.07.83-3.19,1.27-.81-.14-2.48.54-3.69.68.19,0,.04.25-.16.34-.29.01-.69.43-.73.13l.1-.02c-.28-.22-.82.01-1.26.12l.03.39c-1.29-.22-2.93,1.04-3.68.72-.25.17-.59.26-.84.43l-.04-.2c-.77.16-1.16.23-2.09.53l.15-.19c-.53.13-.52.75-1.01.9l-.22-.26c-.93.25-1.93.21-2.78.72,0-.05,0-.14.16-.19-.44.11-1.74.2-1.49.58-.07-.27-.97.19-1.45.43l.03-.22c-.37.35-.37.43-.95.62-.15,0-.16-.13.04-.12-.49,0-.33.26-.92.28l.19-.17c-.49.08-.44.14-.67.35-.29.14-.93.14-1.04-.03-.04.13-.28.32-.58.32-.05-.06.04-.12.09-.15-.84,0-1.17.45-1.77.35-.02-.06-.06-.09-.11-.1.65-.11,1.17-.19,1.12-.17-.03-.18-.56-.13-.19-.45-.39.21-1.06.64-1.58.64-.03-.01-.05-.03-.08-.05l.05-.03c-.12,0-.22.03-.32.08-.17,0-.27-.02-.43,0-.08-.15-.61,0-.87.03.05.2-.3.22.05.34-.04,0,.05-.03.22-.06.04-.01.08-.02.11-.04v.02c.16-.03.38-.06.63-.11-.19.13-.39.25-.7.18-.12.15-.25.31-.32.38-.4-.23-1.11-.29-1.22-.45-.79.2-1.87.27-2.34.7-.22.07-.27-.08-.36-.14.13-.05.29-.06.35-.12-.45.16-1.35.12-1.44.41-.58-.09.31-.27-.48-.18l.1-.09c-1.56-.32-2.52.77-4.26.23.12.04.18.05.2.1-.98-.16-2-.15-3.01-.17-1.01-.08-2.02-.14-2.95-.48-.53-.17-.62-.01-.97.06l-.08-.24-.61.15c-.86.06-1.27-.82-2.35-.72l.09.18c-.35-.12-1.17-.2-1.06-.35-.04.02-.16.12-.28,0l.02-.11-.93-.09c-.65-.3.24-.4-.72-.74-.37-.08-1.15-.02-1.04.1.15.05.35.19.33.3l-.36-.05c-.18.3-.57.54.2,1.04h.66s.14.21.14.21l-.5-.15c.23.24.46.17.68.14.02.1.08.18.19.25l.67-.12c.03.15-.34.17.03.37.31-.06-.17-.37.3-.32.24.24.12.33.5.29.02.1-.06.13-.21.14.33-.03.81.16,1.01.02.25.26,1.02.2.92.51.11-.06.58-.1.86-.07-.59.29,1.04.21.83.59.44-.28,1.4.11,2.1,0-.04.02-.12.07-.18.05.38.07.47.19.71.28.08-.28.68-.28,1.02-.42.44.33-.32.3-.2.58,0-.23.83-.14.69-.35.34.21.3.12.46.37.09-.35.34-.04.65-.25.51.2.11.34.69.26.27.12-.25.23-.25.23ZM51.46,15.99h0c-.11.03-.21.05-.27.06.06-.01.13-.03.27-.06ZM52.57,15.79c-.14.02-.3.04-.48.08-.05-.06-.02-.14.09-.16-.05.06.21.05.39.08ZM50.01,14.76c.17-.05.23-.02.26.02-.08.02-.17.04-.3.07l-.02.03s.02-.08.05-.11Z"/>
          <path class="cls-2" d="M49.74,15.07s-.04.02-.07.02c.04.01.08.02.11.03l.05-.07s-.06.01-.09.02Z"/>
          <path class="cls-2" d="M140.37,28.16v-.02s0,.04-.01.06c0-.02,0-.02.01-.03Z"/>
          <polygon class="cls-2" points="67.75 12.62 67.74 12.57 67.65 12.64 67.75 12.62"/>
          <path class="cls-2" d="M141.69,34.2s-.03.04-.03.09c.01,0,.02-.04.03-.09Z"/>
          <path class="cls-2" d="M142.23,36.77l-.02.38c.02-.17.02-.29.02-.38Z"/>
          <path class="cls-2" d="M142.42,38.79s.07.02.09.03h0s-.09-.03-.09-.03Z"/>
          <path class="cls-2" d="M126.34,12.14s-.04-.03-.07-.04c-.17-.08-.06-.02.07.04Z"/>
          <path class="cls-2" d="M133.63,18.29c-.1-.05-.19-.1-.28-.17.1.14.19.24.28.17Z"/>
          <polygon class="cls-2" points="116.91 7.56 116.91 7.56 116.85 7.54 116.91 7.56"/>
          <path class="cls-2" d="M133.06,17.79c.08.15.19.25.3.33-.08-.11-.18-.25-.3-.33Z"/>
          <path class="cls-2" d="M142.37,47.48l-.02.09s.02,0,.03.02v-.11Z"/>
          <path class="cls-2" d="M142.38,47.59v.11s.02-.09,0-.11Z"/>
          <path class="cls-2" d="M142.41,47.93l-.02-.23c-.01.08-.03.17.02.23Z"/>
          <path class="cls-2" d="M142.68,44.83l-.07-.03s.04.03.07.03Z"/>
          <path class="cls-2" d="M142.69,44.02c-.03.19-.18.48-.15.75l.06.03c-.11-.13.21-.59.09-.78Z"/>
          <path class="cls-2" d="M143.51,40.58l-.02.7c.07-.13.17-.29.21.02.19-.9-.17.19-.18-.72Z"/>
          <path class="cls-2" d="M143.39,38.42c.09.37.11-.02.16,0-.11-.23-.13-.28-.16,0Z"/>
          <path class="cls-2" d="M138.36,23.72l.18-.06c-.16-.24-.06.03-.18.06Z"/>
          <polygon class="cls-2" points="135.97 21.73 136.02 22.03 136.23 22.04 135.97 21.73"/>
          <polygon class="cls-2" points="136.04 19.54 136.14 19.62 135.79 19.28 136.04 19.54"/>
          <path class="cls-2" d="M114.53,5.01l.03.24c.2,0,.31-.24-.03-.24Z"/>
          <path class="cls-2" d="M103.23,3.96c-.12-.11-.44-.18-.64-.06.25,0,.51.09.64.06Z"/>
          <polygon class="cls-2" points="70.12 10.05 70.31 9.91 69.92 10.09 70.12 10.05"/>
        </g>
        <g>
          <path class="cls-2" d="M144.64,54.71c-.08-.03-.18.07-.07.23h.26s-.19-.23-.19-.23Z"/>
          <path class="cls-2" d="M144.88,56.07c.2.15.49.31.61.08-.3-.11-.24-.2-.58-.3-.11-.16-.09-.33,0-.34-.08-.03-.1-.29-.27-.32-.03.31.1.59.39.82-.01.09-.09.05-.14.05Z"/>
          <path class="cls-2" d="M146.57,74.42l.05-.11s-.04.07-.05.11Z"/>
          <path class="cls-2" d="M142.25,85.08c.04-.08.04-.12.03-.13-.03.08-.05.14-.03.13Z"/>
          <path class="cls-2" d="M140.98,86.61s.05-.06.08-.09c-.04.02-.08.05-.08.09Z"/>
          <path class="cls-2" d="M146.57,74.42l-.13.29c.07.04.08-.14.13-.29Z"/>
          <path class="cls-2" d="M146.44,58.26c-.04-.06-.08-.1-.12-.14l.08.14h.04Z"/>
          <path class="cls-2" d="M147.04,69.35v-.09s-.05-.06-.08-.08l.08.17Z"/>
          <path class="cls-2" d="M146.93,65.47c0,.09.19.1.27.13-.08-.04-.12-.11-.14-.18-.04,0-.08.02-.13.05Z"/>
          <path class="cls-2" d="M146.01,59.37l-.06-.1s.04.07.06.1Z"/>
          <path class="cls-2" d="M146.74,72.12s-.05.01-.07.03c.02,0,.05,0,.07-.03Z"/>
          <path class="cls-2" d="M55.03,114.63s0-.02.01-.03c-.03.01-.04.02-.01.03Z"/>
          <path class="cls-2" d="M51.26,111.73l.06.02s.05-.05.07-.08l-.13.06Z"/>
          <path class="cls-2" d="M138.64,89.33h.01c.04-.1.01-.05-.01,0Z"/>
          <path class="cls-2" d="M111.35,107.33c.41.03-.5.41.1.4-.07-.05.38-.46-.1-.4Z"/>
          <path class="cls-2" d="M146.46,58.37l.06.15c-.02-.07-.04-.12-.06-.15Z"/>
          <path class="cls-2" d="M111.45,107.73h0s.06,0,.06,0c-.03,0-.04,0-.06,0Z"/>
          <path class="cls-2" d="M132.92,95.26s.08.01.12,0c-.01-.01-.04-.02-.12,0Z"/>
          <path class="cls-2" d="M137.55,91.17l-.12.1c.05-.03.09-.07.12-.1Z"/>
          <path class="cls-2" d="M130.56,97.46c-.08.04-.11.03-.19.12.01,0,.03,0,.04,0,.02-.05.05-.09.15-.12Z"/>
          <path class="cls-2" d="M127.82,99.4s.05,0,.07,0l.08-.07-.16.07Z"/>
          <path class="cls-2" d="M65.37,116.47c-.07-.06-.11-.12-.15-.18.04.14-.46.14.15.18Z"/>
          <path class="cls-2" d="M146.34,58.3c.05,0,.09.02.12.07l-.05-.1s-.06,0-.06.04Z"/>
          <path class="cls-2" d="M131.35,98.74l-.46.31c.13-.08.3-.19.46-.31Z"/>
          <path class="cls-2" d="M89.74,114.69l-.12.04s.09-.02.12-.04Z"/>
          <path class="cls-2" d="M129.58,100.01c-.12,0-.22.03-.33.07,0,.02-.02.05-.02.08l.35-.14Z"/>
          <path class="cls-2" d="M65.22,116.29h0s0,0,0,0Z"/>
          <path class="cls-2" d="M61.59,116.36c.52.07.28-.21.41-.34.62,0,.26.22.46.37.4-.02.72-.21,1-.17.02.04.07.06,0,.11.43-.16,1.21.09,1.71-.11.03.02.05.05.06.07-.07-.13-.07-.26-.05-.35.23.01.44-.12.51.04-.14-.01-.16.05-.23.1l.25-.06c.2.25-.34.06-.35.23.48-.04,1.04-.21,1.4-.13.07.23-.85.03-.38.26l-.56-.12c.41.38-.34-.04.03.36.74.1.84-.07,1.57.03.17-.12-.05-.19.12-.31,1.05-.21.81.59,1.59.3.2-.15.28-.43.83-.28l-.19.26c.72.02.41-.37,1.16-.21-.13.1-.56.09-.45.12.49.2.34-.15.71-.15l.08.23c.76-.03,1.6-.25,2.44-.31-.04.07-.19.15.01.21,1.06-.17,2.27-.08,3.3-.03l.38-.23c.09,0,.18.08.08.12.41.04.01-.13.2-.22.23-.03.31.09.17.16.69-.21,1.96-.55,2.72-.41l-.14.07c.58.03.6-.48,1.16-.35l-.1.05c1.26-.05,2.6-.42,3.59-.26.14-.3,1.25-.06,1.27-.46.74.08.54.19,1.56.16.27-.03.36-.31.68-.41l.04.2.41-.29.28.2.3-.11c-.12,0-.28-.05-.27-.11.46-.17,1.2-.07,1.23.03l1.1-.39c0,.09-.19.15-.33.23.57-.32.15.19.67-.1-.08-.03.02-.13.02-.17.3.07.93-.06,1.38-.21l-.06.16c.85-.13,1.75-.44,2.69-.65-.35.01-.33-.25-.06-.33l.16.19c.15-.17-.3-.02.02-.26.36-.05.29.19.11.31l.41-.17c.04.06-.05.11-.06.2.14-.17.79.05.98-.25l.04.06c.93-.23,1.34-.39,2.1-.6-.03-.19.27-.22.46-.43.57-.09,1.23-.1,1.89-.3.44-.22.09-.19.28-.36.08.16.74-.04.43.17.79-.25,1.01-.32,1.98-.75-.13-.04-.26-.03-.21-.1.17-.08.44-.05.43.03l-.04.03c1.05-.58,2.75-.32,3.54-.96l-.04.03.87-.49c.43-.11-.21.21.14.2.9-.61,1.58-.52,2.34-.98.81.24,2.22-.87,3.17-.93l-.09-.09c.17-.2.29-.04.46-.08-.06-.08-.28,0-.17-.12,1.77-.9,3.83-1.46,5.71-2.29.69-.3.1-.73,1.07-.92l-.13.32c1.21-.93,2.73-1.44,3.88-2.39-.05.09-.02.15-.14.22.35-.02.99-.59.93-.7.21-.11.11.07.26.06.32-.08.56-.59.78-.55.04,0-.05.09-.09.13.13-.18.81-.5.54-.55.52-.22.85-.64,1.27-.81.12-.34.84-.46.74-.75.15.28.94-.36,1.13-.69-.04.14.3-.11.27.08.32-.24.58-.51.43-.59.82-.15.98-1.15,1.6-1.05.82-.88,1.57-1.69,2.3-2.48.19.26-.84.83-.6,1.03.69-.76.91-1.38,1.69-2.01.22-.15-.01.2-.04.29.62-.81,1.4-1.38,1.88-2.17.02.02-.02.11-.06.2.11-.14.31-.28.19-.36l-.09.16c-.33.08.15-.81.09-.9.1.49.66-.6.73.08.06-.11.1-.26.01-.3.13-.11.21-.12.18.08.35-.54.09-.46.45-.91.05.04,0,.15.02.25.08-.31.16-.62.5-.97.01.05.09.03,0,.15.51-.67.56-1.36,1.2-2.02.08.38.26-.2.49-.1l.2-.46-.21.1c.23-.37.28-.79.55-1.06l-.08.33.39-.71-.33.34c.12-.44-.3-.12.07-.57-.03.12.21-.37.45-.5h0c.03-.22.06-.46.27-.71.11-.03.21.19.29.17-.08-.28.43-.92.33-1.26,0,.1.13.17.16.15l-.08-.23c.13-.16.17-.17.25-.1.28-.53-.37.04.06-.55-.01.06.02.04,0,.16.38-.61.47-1.3.78-1.88.31-.09-.16.56.12.43.15-.45.27-.94.39-1.42.09-.49.2-.96.37-1.39l-.08.15c-.31-.23.4-.59.35-1.09,0,.12.15.2.12.16.21-.6.26-1.27.36-2.22l.07.14c.15-.35.24-.95.35-1.34-.07-.13,0-.36-.17-.24.71-1.14.08-2.36.56-3.41,0,.13.06.32.07.21l-.02-.94c-.16.07-.1.12-.24.31-.08-.12-.14-.39-.12-.61.07.42.25,0,.35-.17-.05.03-.1-.03-.15-.02.28-.48-.31-.09-.13-.75l.08.04c-.04-.25-.15-.48-.13-.74.18-.11.08.26.23.28-.02-.38-.33-.73-.18-1.08.07.16.07.39.12.54.21-.38.15-.42.16-.7v.03s.04-.65.04-.65l-.04.17c-.51-.44-.13-.96-.53-1.55.38.57.18.08.39.1.03-.17.06-.42.12-.36-.21-.28.05-.52-.25-.91.06-.03-.04-.32.13-.28-.11-.38-.1.11-.19.09-.28-.56-.03-1.45-.51-2.24-.31-.7-.59-.76-.89-1.38.03-.25.29.11.29.11-.02-.39-.12-.66-.31-.97.08.05.1-.04.13-.16-.13-.26-.3-.09-.35-.48.09.03.23.07.36.17-.19-.29-.43-.56-.62-.85.07-.13.24.13.36.21-.2-.34-.47-.91-.71-.93.02.08.04.17.05.25-.06-.13.11-.13.18-.05.26.25.13.48.07.52l-.13-.21c-.26.39.43.89.61,1.37l-.34-.09c.13.13.28.26.41.39-.04.13-.16.25-.27.03-.02.38.19.27.13.6-.01.04-.03.03-.05,0l.18.3c-.08-.05-.17.11-.2-.1.03.63.5.89.37,1.17l-.03-.04c.29.81.22.02.6.6l-.4.54.22.04c.01.09.04.26-.05.25.21.29.08-.07.25.09-.07.45.3,1.14,0,1.29.18.13.06-.42.23.01-.33.18.14.51.04.92-.2-.1-.16-.47-.26-.07.35.19.03.75.1,1.07.24,0,.15.7.28,1.24-.06-.03-.12,1.04-.21,1.54l-.04-.02c.24.1.22.63.23,1.01-.15-.02-.2-.09-.25-.3l-.02.36c.07.09.11.2.12.44l-.18-.1c-.03.47.17.98-.02,1.58.17.05.54-.44.57.23-.1.01-.26.02-.27-.15,0,.06.05.21,0,.32l-.12-.28c-.11.27.11.16.07.38-.13-.02-.12.15-.22.11,0-.06.08-.19.04-.28-.06.25-.18.54-.29.63.08-.01.18.02.17.21-.05.48-.18.14-.28.4.08.13-.07.41.12.45-.03.14-.12.15-.19.19.04.26-.2,1.14.06.9l.03-.06v.04h0s0,0,0,0c.06.85-.5,1.62-.61,2.42l-.06-.02c-.03.49-.28,1.04-.24,1.41-.04.14-.22.28-.28.2-.07.36,0,.43-.29.9.02-.39-.13.09.04-.39-.2.44-.36.49-.37,1.03-.09-.22-.33.25-.37.48l.24-.26c-.07.25-.17.45-.26.65l-.16-.2c-.61.78-.31,1.79-1.02,2.26.03.3.32-.43.39-.14-.21.4-.74.65-.8.77-.4.47.01.66-.37,1.18.1-.03.34.01.15.46-.27.37-.58.3-.49.02.05-.09.1-.13.12-.11.05-.14.12-.32-.04-.21l.04.09c-.19.15-.51.67-.54.48-.11.33.04.19.2,0-.41.42-.47.76-.87,1.21.09-.05.22-.07.16,0-.58.65-.1.4-.41.9-.29.2-.17-.27-.43.28-.28.25-.22-.06-.19-.22-.18.54-.68.74-.89.97l.12-.26c-.07.16-.16.26-.25.37l.23-.03c-.12.11-.21.22-.26.18-.02.2.29.06.19.42-.2.12-.35.59-.56.51.49-.5-.21-.08.13-.56-.05.1-.14.21-.26.33-.03,0-.02-.05,0-.09-.57.39-.01.39-.47.91-.03-.14-.28-.03-.33.07.18-.21.24.03.14.28-.36.27-.27.41-.43.58l.21-.17c.03.15-.12.31-.31.56-.09-.04.15-.25.04-.2-.09.39-.7.42-.93.86-.21.1-.18-.14-.35-.04-.26.5-.52.3-.84.78.23,0,.22-.05.04.34l.59-.73-.26.58c.21-.19.36-.48.49-.59-.1.3-.11.25.08.25-.44.1-.45.63-.89.83l-.27-.3c-.6.34-.72.97-1.44,1.46l.26-.13c.02.2-.39.37-.56.61-.07-.12-.23-.04-.37-.02.08.07-.49.4-.39.65l-.41.11c-.59.38-.38.81-.95,1.18.07-.24-.23-.13.07-.48-.18.14-.36.24-.3.31-.16.01-.39.52-.64.54-.04.1.02.23-.19.38-.04,0-.04-.05-.04-.05.04.05-.27.31,0,.3-.8.08-1.58,1.15-2.29,1.19-.39.3-.87.66-1.24.91,0-.05-.03-.06.04-.09-.58.23-.12.53-.79.78-.42,0,.26-.29.03-.25-.31-.32-.7.49-1.23.51l.08-.08c-.38.06-.68.58-1.21.85,0,0,0-.05-.03-.06-.24.39-.88.84-1.36,1.15.08-.23.19-.2,0-.3-.21.14.2.21-.23.49-.19,0-.56.09-.68-.05l.42-.23c-.33-.1-.55.3-.79.38l-.02-.11c-.64.36-.53.6-1.25.93l.11.04c-.28.43-.39.03-.69.39l-.23-.18c-.23.18-.8.65-1.25.91.18-.3.68-.64.97-.91-.26.12-.86.42-.94.6.09-.07.2-.19.32-.2-.23.33-.6.63-1.12.85-.12-.51-1.4.47-1.94.26-.85.55-1.86.67-2.93,1.11.53.23-.31.13-.1.49-.24.12-.34.15-.38.13l-.86.05c-.22-.05.21-.17.16-.25-.57.17-.29-.08-.7-.05.12.11-.12.27-.46.33l.51.02c-.71.49-.79-.09-1.51.38l.21-.21c-.38.21-1.49.51-1.79.94-.09-.02-.22-.1-.05-.18-.99.26-2.07,1.02-2.9,1.04l.05-.12c-.17.08-.27.28-.52.25,0-.04.05-.12-.04-.1-.09.06-.44.31-.7.32l.18-.17c-1,.14-1.4.68-2.2.96-.08-.29-.86-.18-1.25-.13v-.04c-1.13.26-1.85.71-2.88,1.08-.73-.17-2.24.38-3.33.41.17.02.02.23-.16.3-.26,0-.64.34-.66.07h.09c-.24-.23-.73-.06-1.13,0v.36c-1.13-.3-2.7.69-3.35.33-.24.13-.55.19-.79.31l-.02-.19c-.71.06-1.06.09-1.92.27l.16-.16c-.49.06-.54.64-.99.71l-.18-.26c-.85.12-1.75,0-2.56.34,0-.04.02-.13.16-.16-.4.04-1.58,0-1.39.36-.04-.25-.89.06-1.34.22l.05-.19c-.37.28-.37.34-.91.46-.13-.01-.13-.14.05-.11-.44-.06-.32.2-.85.15l.19-.13c-.45.02-.41.08-.64.24-.27.1-.85.02-.92-.15-.05.11-.29.26-.55.23-.04-.06.05-.11.1-.13-.75-.09-1.09.28-1.62.12-.01-.06-.05-.09-.09-.11.59-.03,1.07-.05,1.02-.03,0-.17-.49-.18-.12-.44-.37.15-1.01.48-1.48.41-.02-.02-.05-.03-.06-.06l.05-.02c-.11-.01-.2,0-.29.04-.15-.02-.24-.04-.39-.04-.06-.14-.55-.06-.79-.06.02.19-.29.17,0,.32-.04-.01.04-.02.2-.04.04,0,.08-.01.1-.02l-.02.02c.16,0,.36-.02.59-.03-.18.1-.38.19-.65.09-.12.13-.25.26-.33.32-.33-.25-.96-.4-1.05-.56-.73.12-1.71.08-2.17.42-.21.04-.24-.11-.31-.16.12-.03.26-.02.33-.07-.41.08-1.22.02-1.33.25-.52-.14.3-.21-.42-.21l.1-.07c-1.37-.46-2.33.51-3.84-.16.1.04.16.06.17.11-1.73-.41-3.67-.29-5.3-1.04-.46-.2-.55-.06-.88-.02l-.05-.22-.56.09c-.75-.09-1.06-.83-2.01-.9l.06.17c-.3-.15-1.01-.32-.89-.45-.04,0-.16.08-.24-.04l.04-.1-.81-.2c-.52-.36.27-.3-.49-.79-.3-.14-.98-.24-.92-.12.11.08.26.24.21.34l-.3-.12c-.22.23-.63.35-.05.97l.59.14.08.23-.42-.25c.16.27.37.25.58.27,0,.09.05.18.13.25l.64-.02c0,.14-.33.1-.03.33.29,0-.1-.36.32-.25.18.24.06.33.4.34,0,.09-.07.11-.21.1.3.02.71.25.91.15.19.28.9.31.77.57.11-.04.55-.06.79,0-.56.19.91.33.69.64.43-.22,1.25.2,1.9.16-.04.02-.12.05-.17.03.33.1.41.21.61.32.1-.25.64-.2.95-.3.37.33-.31.26-.22.52.02-.2.76-.08.65-.28.29.21.26.12.39.36.11-.32.31,0,.6-.16.44.23.07.33.6.3.23.13-.24.19-.24.19ZM73.71,116.26h0c-.1.01-.19.02-.25.02.05,0,.12-.01.25-.02ZM74.72,116.2c-.12,0-.28,0-.44.02-.04-.06,0-.13.1-.14-.05.05.19.07.34.12ZM72.55,114.98c.16-.03.21,0,.23.04-.07,0-.16.02-.28.03l-.02.02s.03-.07.06-.1Z"/>
          <path class="cls-2" d="M72.27,115.24s-.04.01-.06.02c.03.01.07.03.1.04l.05-.06h-.09Z"/>
          <path class="cls-2" d="M146.62,74.29v.02s.01-.03.03-.04c-.01.01-.02.01-.03.02Z"/>
          <polygon class="cls-2" points="88.65 114.97 88.64 114.92 88.56 114.98 88.65 114.97"/>
          <path class="cls-2" d="M147.93,68.86s.03-.03.05-.07c-.01,0-.03.03-.05.07Z"/>
          <path class="cls-2" d="M147.94,66.43l.04-.35c-.03.15-.04.26-.04.35Z"/>
          <path class="cls-2" d="M147.88,64.56s-.06-.02-.09-.03h0s.09.03.09.03Z"/>
          <path class="cls-2" d="M138.58,91.93s-.03.04-.04.06c-.08.15-.02.06.04-.06Z"/>
          <path class="cls-2" d="M143.39,84.54c-.01.1-.03.2-.06.29.09-.13.15-.24.06-.29Z"/>
          <polygon class="cls-2" points="131.4 98.71 131.39 98.71 131.35 98.74 131.4 98.71"/>
          <path class="cls-2" d="M143.13,85.19c.12-.11.17-.24.2-.36-.07.11-.16.23-.2.36Z"/>
          <path class="cls-2" d="M145.82,56.7l-.03-.09s-.02,0-.03,0l.06.08Z"/>
          <path class="cls-2" d="M145.76,56.62s-.04-.06-.06-.08c.02.04.04.08.06.08Z"/>
          <path class="cls-2" d="M145.56,56.37l.14.17c-.03-.07-.07-.15-.14-.17Z"/>
          <path class="cls-2" d="M146.64,59.06h.07s-.04,0-.07,0Z"/>
          <path class="cls-2" d="M146.89,59.77c-.04-.18,0-.48-.12-.7h-.06c.13.08.01.58.17.7Z"/>
          <path class="cls-2" d="M146.81,62.98c0-.21-.04-.41-.07-.61-.05.12-.11.27-.19,0-.05.79.14-.19.26.6Z"/>
          <path class="cls-2" d="M146.98,64.87c-.07-.32-.1.02-.15,0,.08.2.1.25.15,0Z"/>
          <path class="cls-2" d="M145.35,78.39l-.15-.09c-.06.25.06.02.15.09Z"/>
          <polygon class="cls-2" points="145.24 81.19 145.43 81 145.33 80.83 145.24 81.19"/>
          <polygon class="cls-2" points="143.47 82.11 143.49 82 143.37 82.4 143.47 82.11"/>
          <path class="cls-2" d="M128.22,98.93l.18.13c.12-.13.01-.35-.18-.13Z"/>
          <path class="cls-2" d="M119.67,104.09c-.14-.05-.43.02-.54.19.21-.09.45-.11.54-.19Z"/>
          <polygon class="cls-2" points="90.98 112.82 91.16 112.71 90.8 112.84 90.98 112.82"/>
        </g>
      </g>
      <g>
        <path d="M23.86,48.37c.09.41.24.98.43,1.7l.35,1.52s-.79.03-.92-.02c-.07-.02-.14-.13-.23-.29-.18-.34-.81-3.38-.71-3.54.46-.36,2.58-.89,2.84-.76.19.03.3.09.33.17.03.06-.03.09-.16.1-.26,0-2,.46-2.04.53-.02,0,.02.19.11.6Z"/>
        <path d="M32.56,46.3l.51-.15c.38-.15.58-.12,1.12,0,1.28.31,1.34,1.28.14,2.33-.45.4-.66.44-.95.33-.29-.1-.29-.12-.04-.46.2-.34.29-1.21.12-1.46-.16-.26-.17-.26-.52-.13-.34.14-.35.14-.27.48.04.18.05.28.05.31,0,.05-.05.06-.13.06-.09-.02-.15,0-.2,0-.06.01-.14,0-.21-.07-.09-.09-.2-.1-.25-.08-.16.06-1.07.69-1.06.74-.05.05,1.86,3.03,2.25,3.54.2.29.32.43.33.48.02.07-.02.14-.08.25-.15.21-.63.27-.93-.04-.15-.14-.58-.7-1.28-1.7-.7-1-1.1-1.53-1.22-1.6-.04-.03-.14.14-.35.47-.2.33-.35.53-.4.57-.11.11-.57,0-.58-.08,0-.04.01-.15.1-.31.15-.35.39-.77.56-.99l.22-.28-.56-.72c-.38-.47-.59-.8-.64-.95-.1-.31-.1-.32.18-.35.73-.08,1.1-.03,1.15.17.02.09.21.37.42.6.2.22.4.4.54.37.14-.03.99-.72.97-.82-.02-.06-.16-.31-.41-.78-.49-.95-.45-.79.17-.91.29-.06.52-.07.68-.04.15.03.25.05.29.1.03.06.07.22.14.51l.14.61Z"/>
        <path d="M44.82,46.79c.06.26.09.41.09.51,0,.1-.03.19-.08.28-.1.21-.53.98-1.13,1.46-.3.24-.55.4-.78.45-.22.05-.47.02-.76-.08l-.43-.17.43-.21c.58-.32,1.04-.35,1.09-1.37.03-.57-.42-1.01-.64-1.38-.06-.1-.13-.19-.2-.18-.06.01-.26.06-.56.17s-.67.3-1.11.55c-.42.24-.72.4-.9.44-.36.08-.9-.14-.98-.23-.07-.09.19-.5.43-.43.12.03.31-.02.58-.21.53-.37,1.56-.87,2.39-.95.84-.08,1.83.34,2.19.71.18.18.3.39.36.64Z"/>
        <path d="M50.59,46.41s-.06.22-.21.49c-.15.27-.25.59-.3.99-.11.77-.18.73-.69.69-.26-.04-.43-.09-.46-.18-.35-.4-1.1-3.31-1.19-4.24-.04-.46-.06-.8,0-.99.07-.37.14-.41.31-.4.34.02.64.11.94.29.25.16.34.2.42.75.05.26.11.74.15,1.42.06.68.13,1.04.2,1.04.02,0,.04-.02.13-.06.02-.02.16-.05.36,0,.21.07.31.11.33.2ZM53.86,42.25c.18-.04.21-.09.18-.25-.13-.55.31-.72.84-.57.27.09.44.16.48.22.06.05.1.15.12.24.05.2.04.3-.01.37-.02.03-.12.08-.25.14-.17.09-.46.15-.85.23l-.64.07.31,1.36c.04.16.11.21.43.26.33.05.77.15,1.06.22.16.04.21.07.22.12.01.06-.09.14-.3.2-.21.06-.44.08-.69.05-.24-.03-.39-.05-.44-.03-.04,0-.03.3.09.82.39,1.7.12,2.23-.98,2.16-.55-.03-1.02-.16-1.41-.41-.44-.29-.46-.34-.58-.85-.11-.48-.1-.51.19-1,.32-.5.66-.83,1.02-1.01.24-.15.24-.14.08-.51-.09-.2-.13-.35-.16-.49l-.05-.22-.81.21c-.69.2-1.14.25-1.36.15-.12-.07-.06-.15.15-.27l.46-.18c.41-.14.73-.29.94-.41l.33-.2-.14-.6c-.12-.69-.06-1.32.25-1.48.33-.16.43-.15.72-.03.11.06.23.11.27.21.02.08.1.31.17.73l.12.82.23-.05ZM53.41,47.19c.47-.11.17-.97-.1-1.44l-.19-.34-.16.36c-.12.22-.14.47-.08.74.12.5.28.74.52.68ZM54.69,41.14c-.2.05-.51-.09-.62-.18-.05-.02-.09-.08-.13-.15-.09-.16-.12-.35-.08-.56.1-.41.45-.66.62-.68.18-.02.71.18.88.41.16.23.23.53.14.76-.12.25-.52.54-.63.43-.03-.03-.09-.04-.18-.02ZM54.5,40.91c.08-.04.14-.08.24-.12.18-.06.32-.27.33-.44,0-.19-.16-.47-.27-.49-.06,0-.14.04-.23.11-.2.16-.3.42-.24.73l.04.27.13-.07Z"/>
        <path d="M58.14,41.03c-.18-.8-.27-1.24-.26-1.35.01-.1.1-.16.29-.18,1.19-.06,1.07-.07,1.31.93.12.49.25.88.37,1.17l.17.42.16-.31c.16-.33.27-.39.62-.44.2-.03.29,0,.31.06.03.15-.4,1.04-.71,1.38-.17.17-.26.38-.3.61-.05.47-.13.52-.52.4-.4-.07-.5-.14-.66-.4-.07-.13-.18-.35-.31-.65-.13-.29-.29-.83-.47-1.64ZM60.64,46.42c-.06-.25-.05-.23.23-.19.14.02.24.03.31.02s.14-.08.23-.18c.54-.49,1.13-2.57,1.11-3.44-.04-.85-.43-2.36-.81-3.21-.19-.41-.28-.7-.3-.82.02-.12.03-.18.1-.2.07-.02.18-.02.37.04.17.05.35.08.51.09.17,0,.29.03.34.02.05,0,.12.02.14.03l.16.06c.05.01.09.05.13.15l.33.9c.41,1.14,1.01,4.69-.2,6.07-.44.73-1.55,1.02-2.37.86-.17-.02-.26-.11-.28-.22Z"/>
        <path d="M72.9,38.06l-1.37.37c-.68.19-1.06.32-1.14.41-.08.08-.08.29-.01.58l.19.74c.03.06.04.09.06.09l.08-.02c.11-.06.27-.11.49-.16.22-.05.33-.12.32-.21-.05-.2.38-.63.63-.69.23-.05.61.12.9.35.13.1.22.21.24.31.07.33-.28.57-1.08.73-.4.08-.76.17-1.09.29l-.41.19.29,1.02c.2.66.32,1.03.4,1.19.14.29.55.4.82.43.14.02.33,0,.59-.05.78-.15,1.21-.34,1.4-.59.08-.12.13-.17.17-.16.1,0,.77.2.75.59-.02.39-.48.55-1.04.68-.55.13-1.16.22-1.73.25-.58.03-.87.04-1.66-.38-.79-.41-1.2-.79-1.46-1.71l-.2-.69-.98.19c-.83.15-1.03.17-1.39.02-.18-.08-.26-.14-.23-.18.03-.04.4-.14,1.14-.3,1.47-.31,1.29-.13,1.2-1.21-.08-1.09-.03-.97-.71-.9-.33.03-.54.05-.66.08-.21,0-.32-.04-.69-.22-.17-.08-.27-.15-.25-.19.02-.02.39-.09,1.1-.18.73-.1,1.49-.28,2.35-.54.85-.27,1.25-.43,1.23-.54-.02-.09.01-.21.09-.35.33-.59,1.48.19,1.56.53l.06.25Z"/>
        <path d="M82.78,36.46c-.06,3.67-1.29,5.23-4.51,5.72-.03-.14-.05-.21.03-.23,1.88-1.28,2.66-1.98,2.92-4.88-.07-.29-.02-.61-.07-.83-.13-.57-.31-.77.33-.91h.02s.05-.02.07-.02c.56-.2,1.01-.26,1.2,1.15Z"/>
        <path d="M87.16,36.62c-.09.02-.69-.31-.75-.57-.06-.27.35-2.38.51-2.8.09-.22.09-.38.03-.49-.06-.11-.05-.15.04-.14.14.03.44.18.86.47l.46.31c.16.1.37.33.39.37.02.04.01.22-.05.33l-.15.27-.34.51.22.1c.09.04.18.15.24.35.06.21.21.81.46,1.85l.48,2.09-.35.13c-.27.1-.65.14-.87,0-.13-.07-.19-.13-.21-.22-.02-.08-.13-.56-.32-1.46-.19-.89-.32-1.34-.37-1.35-.01,0-.05.02-.12.11-.07.09-.12.14-.16.15ZM93.35,35.43c.05.2.07.4.08.6l.02.29,1.01-.33c.19-.08.29-.17.38-.29l.14-.23.43.15c.48.17.52.32.3.61-.11.15-.23.23-.34.25-.1.04-.36.08-.79.12-.42.04-.68.07-.8.1-.12.03-.18.07-.2.14-.04.18.05.75.31,1.71.19.63.1.83-.36.99-.46.17-.61.17-.78-.12-.07-.14-.3-1.16-.74-3.04l-.64-2.79-.4.09c-.26.06-.39.14-.4.25-.01.1-.09.29-.23.58l-.22.46-.4-.13c-.21-.07-.39-.18-.43-.31,0-.07.02-.34.09-.82.07-.48.11-1.02.12-1.65,0-.47.18-.53.73-.29.55.24.59.31.56.89-.03.57-.18.51.64.2.41-.15.76-.27,1.06-.35.3-.08.5-.15.6-.19.19-.09.27-.15.33-.32.03-.08.09-.13.2-.14.19-.03.84.13,1.08.36.12.12.16.22.12.29-.05.09-.38.2-1.02.34l-.96.22.33,1.66.49-.16c.32-.11.5-.23.59-.37.08-.13.14-.22.18-.23s.18-.02.42,0c.22.01.37.04.43.06.11.04.23.33.13.45-.07.08-.45.19-1.1.39l-1.02.31.06.27Z"/>
        <path d="M97.44,32.02c-.18-.8-.27-1.24-.26-1.36.01-.1.1-.16.29-.18,1.19-.06,1.07-.07,1.31.93.12.49.25.88.37,1.17l.17.42.16-.31c.16-.33.27-.39.63-.44.2-.03.28,0,.31.06.04.15-.4,1.04-.7,1.38-.17.17-.26.38-.3.61-.05.47-.13.52-.52.4-.4-.07-.5-.14-.66-.4-.07-.13-.18-.35-.31-.66-.13-.29-.29-.83-.47-1.64ZM99.94,37.41c-.06-.25-.05-.23.23-.19.14.02.24.03.31.02.07-.02.14-.08.23-.18.54-.49,1.13-2.57,1.11-3.44-.04-.85-.43-2.36-.81-3.21-.19-.41-.28-.7-.3-.82.02-.12.03-.18.1-.2s.18-.02.37.04c.17.05.35.08.51.09.17,0,.29.03.34.02.05,0,.12.02.14.03l.16.06c.05.01.09.05.13.15l.33.9c.41,1.14,1.01,4.69-.19,6.07-.44.73-1.55,1.02-2.37.86-.17-.02-.26-.11-.28-.22Z"/>
        <path d="M111.16,28.29l.51-.15c.38-.15.58-.12,1.12,0,1.28.31,1.34,1.28.14,2.33-.45.4-.66.44-.95.33-.29-.1-.29-.12-.04-.46.2-.34.29-1.21.12-1.46-.16-.26-.17-.26-.52-.13-.34.14-.35.14-.27.48.04.18.05.28.05.31,0,.05-.05.06-.13.06-.09-.02-.15,0-.2,0-.06.01-.14,0-.21-.07-.09-.09-.2-.1-.25-.08-.16.06-1.07.69-1.06.74-.05.05,1.86,3.03,2.25,3.54.2.29.32.43.33.48.02.07-.02.14-.08.25-.15.21-.63.27-.93-.04-.15-.14-.58-.7-1.27-1.7-.7-1-1.1-1.53-1.22-1.6-.04-.03-.14.14-.35.47-.2.33-.34.53-.4.57-.11.11-.57,0-.58-.08,0-.04.02-.15.1-.31.15-.35.39-.77.56-.99l.22-.28-.56-.72c-.38-.47-.59-.8-.64-.95-.1-.31-.1-.32.18-.35.73-.08,1.1-.03,1.15.17.02.09.21.37.42.6.2.22.4.4.54.37.14-.03.99-.72.97-.82-.03-.06-.16-.31-.41-.78-.49-.95-.45-.79.17-.91.29-.06.53-.07.68-.04.15.03.25.05.29.1.02.06.08.22.14.51l.14.61Z"/>
        <path d="M27.38,74.96c.04-.1.11-.15.2-.17.15-.04.54-.76.69-1.41.16-.64.13-2.01-.02-2.11-.04-.02-.43.05-1.17.17-1.07.17-1.63.18-1.75-.03.05-.05.43-.16,1.14-.34.72-.18,1.65-.39,2.77-.64l1.78-.38c.3-.52.48-.8.58-.82.19-.04.92.28.96.43.03.14-.01.42-.35.51l-2.8.72.28.21c.85.65.17,2.4-.16,2.9-.33.53-1.27,1.19-1.66,1.39-.19.1-.37.1-.54.02-.3-.13-.33-.23-.12-.28.07-.02.13-.07.18-.18ZM29.13,68.15l.13-.25c.33-.74,1.32.14,1.03.38-.16.12-.54.23-1.17.38-1.57.36-2.52.45-2.83.33-.16-.07-.26-.14-.27-.17.16-.07,1.19-.3,3.11-.66ZM31.06,67.73c-.1-.31-.06-.42.13-.51.02-.02.13.02.3.12.36.23.48.65.38.92s-.1.27-.4.08c-.28-.18-.33-.27-.41-.61ZM32.32,66.53s.54.19.69.59c.08.2.05.39-.05.6l-.14.3-.32-.2c-.3-.19-.35-.17-.39-.72-.01-.27-.01-.43.04-.48.07-.07.11-.1.16-.1Z"/>
        <path d="M35.42,68.7c-.03-.14-.16-.86-.23-1.28-.06-.43-.08-.6.35-.53.42.08.83.41.93.56.06.09.1.22.14.45l.11.49c.29-.08.71-.16,1.27-.25-.16-.65-.25-1.1-.3-1.3-.06-.43-.05-.43.51-.3.63.19.91.37.95.93l.3-.19c.15-.08.25-.13.3-.14.06-.01.16.01.31.06.65.25.55.56-.19.83-.74.26-.6,0-.6,1,.02.99-.22,3-.37,3.36-.08.18-.12.33-.11.48,0,.15-.02.23-.06.23-.14.03-.49-.04-.51-.13,0-.38,0-1.15.01-1.5,0-.17.01-.43-.01-.76-.01-.32-.03-.61-.03-.84-.02-.23-.04-.5-.04-.78,0-.56-.06-.63-.55-.48l-.15.04c-.8.22-.71.13-.68.89.02.39.04.66.08.82.07.3.06.38-.25.23-.34-.14-.54-.32-.59-.53-.01-.11-.08-.23-.19-.39-.12-.16-.17-.27-.2-.34-.02-.09-.11-.15-.23-.14-.12,0-.39.03-.79.11-.4.09-.65.1-.78.02-.19-.09-.21-.18-.05-.23l1.67-.38ZM39.74,66.62s-.08-.1-.2-.19c-.26-.16-.36-.61-.3-.88.03-.13.08-.2.12-.21.09-.02.38.09.48.27.1.19.33.86.39,1.1.03.12.05.2.04.21-.04,0-.13-.03-.29-.12s-.23-.14-.24-.19ZM40.33,64.89c.12-.03.48.15.54.32.08.17.3,1.31.25,1.47-.02.08-.05.12-.08.12-.05.02-.32-.07-.39-.14-.05-.04-.08-.08-.12-.13-.02-.04-.09-.12-.16-.17-.28-.19-.35-.92-.23-1.21.06-.15.13-.23.19-.24Z"/>
        <path d="M48.93,65.97c.43-.01.26.15.7.14-.1.04.09.05.16.38l.77,3.36c.03.15-.08.44-.24.47-.58.21-.57.19-.82.25-.09.02-.26-.27-.28-.35l-.82-3.59c-.82,1.1-1.9,1.42-3.39,1.2.31-.24.62-.39.76-.59,1.08-.83,1.46-1.17,1.92-1.94.58-.88.6-1.82.94-2.66.07-.16.22-.28.38-.32.63.02.61.19,1.32.18-.17,1.52-.73,2.28-1.4,3.5Z"/>
        <path d="M56.52,63.57c-.2.05-.77-.18-1.74-.6-.14-.06-.25-.19-.34-.39l-.16-.31,1.17-.27.46.33c.27.2.5.39.69.59.19.2.28.34.25.44-.03.1-.13.17-.33.21ZM61.57,62.85c-.1.31-.23.73-.47,1.24-.13.25-.26.56-.44.96-.34.76-1.1,1.65-2.76,2.83-.54.38-.95.46-2,.2-.64-.17-.97-.31-.93-.46,0-.01,0-.04,0-.05s.23-.09.62-.24c.81-.33,2-1.09,2.46-1.41.44-.32.88-.78,1.76-1.76.43-.48.78-1.01,1.01-1.61.13-.3.12-.3.48-.22.18.06.3.13.32.23.02.03,0,.14-.06.28Z"/>
        <path d="M68.83,63.18c.41-.83.35-2.16,0-2.62-.1-.19-.56-.45-.64-.43-.04.07-.09.25-.2.54-.61,1.58-1.23,3.71-1.27,3.73-.09.02-.74-.21-.76-.29.04-.11.18-.79.25-1.23.03-.2.06-.42.06-.59,0-.18.07-.77.22-1.76-.39.13-.76.17-1.14.11-.2-.03-.28-.07-.24-.15.08-.12.95-.41,1.43-.54.03-.4.12-1.26.33-2.57.55-.08.99.08,1.19.52.26.59.34,1.21.24,1.81l.53.15c.79.21,1.68.75,1.89,1.23.54,1.06.34,1.98-.58,2.72,0,0-.86.77-.83.77-.56.46-1.08-.16-.48-1.38ZM70.83,58.58c.18-.33.4-.4,1.04-.24.64.15,1.04.36,1.25,1,.09.31.1.57-.03.78-.45.68-2.25,0-2.38-.78-.09-.35-.08-.45.12-.77ZM70.83,57.15l.25-.15c.15.06.32.11.45.19.14.08.24.15.24.24.33.33-.01.74-.65.39-.35-.2-.4-.34-.29-.67ZM71.85,56.61l.25-.16c.15.06.31.11.45.19.14.08.25.15.23.24.35.33,0,.74-.64.39-.35-.2-.41-.34-.29-.67Z"/>
        <path d="M75.57,58.22c-.15-.64-.21-1.05-.24-1.2-.02-.31.13-.87.28-1.16.06-.12.13-.24.22-.28.08-.07.12-.09.13-.12,0-.01.15,0,.4.04.51.08.88.78.79,1.47-.1.68.62,3.61.73,4,.06.21.17.37.28.45.58.46,1.22.53,1.77.15.23-.16.43-.42.58-.77.08-.17.18-.45.29-.84.25-.77.33-.89.75-.91.22-.02.36,0,.4.03.14.08-.59,2.03-.85,2.35-.26.33-.41.43-.87.54-.94.29-2.22.15-2.75-.3-.04-.02-.12-.08-.25-.19-.11-.09-.18-.14-.22-.17-.16-.11-.56-.67-1.02-1.72-.12-.27-.26-.71-.41-1.37Z"/>
        <path d="M85.12,55.61c-.18.12-.36.32-.58.37-.13.03-.17-.52-.19-.6.21-.05.41-.15.67-.21-.05-.47-.11-1.01-.21-1.47-.05-.21.02-.39.18-.35.22-.05.45-.02.67,0,.27-.06.46.14.53.6,0,.24,0,.29.09.68.64-.43,1.07-.59,1.74-.72.07.07.14.13.16.21-.02.17-.04.33-.14.35l-1.43.64c-.21.05-.3.15-.23.45.13,1.56.12,3.14-.04,4.66-.02.4-.18.61-.43.74-.74.17-.79.18-.74-.85-.04-1.5-.03-2.92-.06-4.49ZM88.14,58.78c.21-.21.36-.32.95-.53.65-.31.75.07.84.13.58.42,1.36.24,2.05-.16.13-.03.48-.01.74.06-.12.5-1.24,1-2.48,1.12-1.09.09-1.84-.13-2.11-.62ZM88.67,55.98c.28-.14.49-.26.72-.31l1.43-.33c.36-.08.71-.02,1.03.38-1.07.49-2.15.73-3.18.73,0,0-.45-.2,0-.47Z"/>
        <path d="M96.2,54.07c.2.86.54,1.65,1.01,2.39l.08-.3c.09-.29.15-.31.52-.32.18-.02.3,0,.34.02.09.08-.16,1.49-.31,1.7-.17.21-.75.26-.94.1-.12-.06-.29-.18-.48-.36-.76-.65-1.25-1.4-1.67-2.19-.31-.59-.67-1.99-.61-2.16.07-.19.76-.26.83-.14.03.07.13.08.32.09.36,0,.49.08.63.32.08.12.11.21.13.29l.15.56ZM98.65,52.23c-.05-.23-.03-.24.19-.23.1-.01.28.02.52.05.27.04.46.06.57.05.23,0,1.22.53,1.45.89.25.35.87,1.83.83,1.94-.02.07-.36.11-1.01.11-.31,0-.72-.34-.6-.48.06-.05-1.53-2.23-1.83-2.17-.05.01-.08-.05-.11-.17Z"/>
        <path d="M103.69,57.8c-.02-.08.14-.18.48-.29s.96-.43,1.87-.96c-.34-1.87-.57-2.98-.7-3.33-.14-.25-.14-.39.2-.43.17-.03.29-.02.36.03.07.04.25.05.52.02.27-.04.43-.04.48,0,.22.13.27.59.15,1.37-.08.47-.07.93.02,1.36.09.44.14.81.15,1.1,0,.08-.18.13-.53.17-.35.04-.8.2-1.37.46-.57.27-.92.41-1.06.45-.35.12-.55.14-.57.06Z"/>
        <path d="M114.85,46.29c.13-.03,1.18.41,1.38.59.1.1.23.5.38,1.19.32,1.4.24,1.41,1.27.5,1.21-1.08,1.47-1.32,1.45-1.4-.06-.26.13-.76.35-.79.44-.1,1.15.3,1.25.72.03.15-.15.32-.54.52-.78.37-3.09,2.27-3.17,2.49-.1.31-.7.87-.16,2,.21.41.83.77,1.65.61,1.1-.23,1.4-.32,1.59-.42.18-.13.3-.18.37-.2.14-.03.7.1.77.2.04.11-.2.44-.51.51-.35.1-2.58.46-3.14.57-2.08.44-2.43-.93-2.51-1.27-.08-.34.01-.8.2-1.26.1-.22.2-.43.31-.61l.34-.52-.31-.21c-.43-.33-.78-.97-1.05-1.9-.14-.52-.2-.85-.14-1.03.06-.17.11-.26.21-.28Z"/>
        <path d="M30.85,85.68l.63-.11c.46-.08.87-.19,1.22-.32.35-.13.55-.24.62-.31.06-.1.12-.15.18-.17.13-.03.89-.04.98.07.05.05.02.13-.07.23-.09.09-.24.18-.43.26s-.52.17-.97.28-1.14.27-2.09.49c-.06.01-.1.13-.17.38-.12.48-.52,1.33-.87,1.69-.35.36-.77.6-.97.6-.19.04-.98-.05-.97-.15-.01-.06.09-.14.31-.24.45-.2.78-.53,1.07-1.25.15-.37.22-.55.21-.57s-.16-.01-.47,0c-1.07.13-1.13-.14-.34-.31.78-.18.87-.29.86-.74,0-.23.02-.4.08-.51s.12-.17.18-.19c.06-.01.2.02.41.08.45.09.44.11.52.44l.08.34ZM32,86.96c.09-.02.71.11.83.17.06.05.1.12.11.23.06.22.05.23.46.14.2-.05.32-.11.34-.2.02-.14.28-.22.78-.26.08,0,.16-.01.2,0s.08.02.1.05c.02.03.04.09.07.18.02.09-.02.17-.12.22-.1.06-.33.12-.69.21-.36.08-.57.14-.64.17-.13.07-.13.29-.04.5s.19.14.3.02c.05-.06.07-.12.06-.16-.02-.07.09-.13.31-.18.22-.05.43-.07.6-.05.24.03.29.13.13.29-.16.16-.38.27-.66.34-.28.06-.45.12-.51.14-.06.02-.08.08-.07.14.01.06.06.1.12.1.06,0,.23-.03.49-.11.52-.17.8-.01.32.26-.08.04-.2.09-.37.17-.17.08-.28.14-.33.2-.05.05-.07.1-.06.17.03.14.07.16.28.05.21-.11,1.74-.58,1.77-.45,0,.04-.06.11-.2.22-.28.21-3.63,1.05-4.26,1.05-.34.02-.48-.04-.57-.21-.04-.09-.1-.22-.13-.42-.06-.39-.05-.38-.29-.15-.12.11-.24.19-.37.22-.25.06-1.12-.22-.86-.43l.13-.07c.12-.06.3-.27.48-.52.19-.25.37-.55.51-.82.07-.13.12-.24.15-.33.03-.09.07-.13.11-.12.09.02.7.22.74.35.02.04.09.05.19.04.23-.04.52-.21.58-.32.04-.11.04-.27,0-.47-.03-.2-.03-.31.01-.32ZM35.29,90.15c.42-.1.69-.13.81-.11.24.04.28.05.36.39.08.34.04,1.14,0,1.38-.04.24-.22.49-.42.64-.2.14-.67.34-1.19.49-.52.16-2.61.65-3.37.82-.76.17-.68.32-1.04-.83-.18-.57-.28-.95-.28-1.11,0-.16,0-.27.02-.33,0-.05.03-.09.05-.14.07-.08.5-.28.65-.26.08,0,.14.02.17.1.06.1.16.14.29.14.11-.01.28-.05.55-.13.52-.14,1.4-.39,2.16-.71.4-.14.8-.26,1.22-.35ZM32.05,88.69c-.02-.1-.05-.17-.07-.22-.06-.09-.14-.09-.19-.02-.06.12.05.42.18.4.08,0,.11-.06.08-.17ZM32.76,91.42l-.97.22.08.34c.08.33.03.36.53.39s.58,0,.46-.51l-.1-.44ZM32.29,89.35c-.06-.27-.39-.22-.33.06.03.14.11.2.21.17.1-.02.15-.11.12-.24ZM32.21,89.92c-.15.04-.15.17.04.19.19.02.21,0,.19-.09,0-.05-.02-.08-.06-.1-.04-.02-.09-.02-.17,0ZM32.35,92.77c-.06.01-.1.04-.14.06-.03.02-.04.05-.04.06,0,.01.01.06.01.12.02.13.07.16.26.11.09-.02.21-.04.37-.04.31,0,.33-.03.28-.21-.02-.09-.06-.15-.11-.17-.05-.02-.19-.02-.4.02l-.25.06ZM33.88,85.94c.05.22.43.41.91.55.25.05.51.08.8.06.29-.02.46,0,.49.06.04.08,0,.15-.14.19-.32.12-.78.14-1.39.07l-.44-.1c-.41-.12-.73-.28-.98-.48-.25-.2-.33-.38-.25-.51.04-.07.44-.08.77-.05.12.02.19.09.22.2ZM34.35,91.99l.33-.07c.15-.04.23-.07.26-.08.03-.02,0-.06-.05-.12-.13-.15-.09-.25.12-.3.06-.01.1-.05.12-.09.01-.1-.13-.52-.19-.56-.06-.04-.63.02-.73.18-.05.07-.04.26.04.53l.12.51ZM34.69,92.67c.25-.06.52-.29.48-.48-.02-.09-.05-.12-.08-.1-.11.06-.23.11-.37.16-.27.1-.33.16-.3.31,0,.08.02.13.04.14.03,0,.1,0,.23-.03Z"/>
        <path d="M40.08,84.4c.08-.56.48-.82,1.01-.68.06.09.16.32.14.46-.16.49-.61.46-1.01.55-.16.04-.4.04-.69.11.2.5.36,1,.52,1.51.51-.35.95-.62,1.43-.91q.26.56-1.27,1.18c.13.56.25,1.08.37,1.62l.6-.14q.12-.66,1.2-.68c-.07-.29-.18-.62-.25-.93-.12-.33-.07-.48.28-.56.38-.05.77-.18,1.17-.23.29-.07.39-.23.33-.48-.06-.53-.23-.98-.36-1.58-.63.15-1.33.31-2.01.46l-.04-.18c.13-.03.21-.09.34-.12l2.86-.66c.32-.04.52.05.6.4l.16.68c.12.97-.18,1.4-1.12,1.66-.16.04-.33.08-.54.16.2.85.49,1.7,1.06,2.42.31.38.63.45,1.22.21.12-.06.29-.07.47-.11.01.06.03.13.1.21-.33.17-.59.37-.88.51-.16.09-.32.17-.49.21-1.56.49-2.28.08-2.79-1.71-.37.76-1.13.53-1.75.86l.22.98c.08.07.24.17.33.25,1.48.51,2.92.68,4.37.12.05-.01.09.03.22,0-.24.5-.67.83-1.12.97-.76.27-1.57.27-2.38.1-.94-.19-1.94-.37-2.93-.54-.35,1.2-.52,1.33-1.42,1.35.05-.59.1-1.18.04-1.81.02-.36-.08-.79-.17-1.18-.07-.3.08-.41.37-.48.67-.08.72-.03.86.6l.14.6c.31-.24.08-1.41-.41-2.65l-1.55.36s-.08-.12-.09-.16c.55-.16,1.09-.39,1.63-.55-.15-.51-.3-.98-.48-1.51-.3.02-.63,0-.93.03l-.04-.16c.29-.07.54-.17.88-.25-.06-.25-.16-.55-.22-.81-.11-.28.03-.45.34-.44l.84.08q.18.99.83.84Z"/>
        <path d="M48.5,84.61c-.15-.64-.21-1.05-.24-1.2-.02-.31.13-.87.28-1.16.06-.12.13-.24.22-.28.08-.07.12-.09.13-.12,0-.01.15,0,.4.04.51.08.88.78.79,1.47-.1.68.62,3.61.73,4,.06.21.17.37.28.45.58.46,1.22.53,1.77.15.23-.16.43-.42.58-.77.08-.17.18-.45.29-.84.25-.77.33-.89.75-.91.22-.02.36,0,.4.03.14.08-.59,2.03-.85,2.35-.26.33-.41.43-.87.54-.94.29-2.22.15-2.75-.3-.04-.02-.12-.08-.25-.19-.11-.09-.18-.14-.22-.17-.16-.11-.56-.67-1.02-1.72-.12-.27-.26-.72-.41-1.37Z"/>
        <path d="M58.22,88.09c-.76.19-1.68-.48-1.58-1.14,0-.06.04-.11.09-.13.06-.03.16-.05.33-.06.77-.07,1.59.29,1.7.75.07.32-.07.46-.54.58Z"/>
        <path d="M63.9,79.29c.04-.21.93-.29,1.04-.12.17.2.14.44-.15.55-.38.12-.72.2-1.09.29l-.49.11c.06.26.11.49.16.71.24-.02.52,0,.75-.05.69-.08.78-.03,1.1.66,1.26-.05,2.54-.15,3.82-.25.09.02.25-.13.3-.23.13-.3.85-.63,1.15-.5.23.14.28.53,0,.68-.36.16-.73.24-1.15.34-.35.04-.74.05-1.12.1-.07.02-.2.13-.22.21-.25,1-.44,2.04-.66,3.04-.02.08,0,.16-.04.33.81-.23,1.59-.45,2.45-.68-.33-.41-.65-.76-1.04-1.26.41-.09.74-.22,1.08-.3.08-.02.21.04.26.1.53.55.95,1.21,1.16,1.96.07.09-.02.24-.12.33-.09.11-.24.14-.35.2-.29.14-.4.13-.52-.16-.3-.68-.17-.59-.89-.42-.6.14-1.2.28-1.79.45-.12.03-.27.06-.32.16-.24.36-.95.69-1.38.59-.24-.02-.31-.16-.23-.38.07-.18.12-.35.22-.6l-1.44.33c.09.37.2.71.24,1.05,0,.16-.01.43-.12.5-.24.18-.53.25-.8.31-.03,0-.11-.17-.14-.29-.13-.4-.2-.87-.3-1.31-.37.09-.7.2-1.04.28-.34.08-.64.15-.96.18l-.04-.19c.63-.19,1.27-.38,1.88-.59l-.11-.49c-.45.07-.88.12-1.42.2l-.76-3.31c-.02-.07.07-.25.18-.28.17-.12.38-.21.6-.26q.68-.16.44-.85c-.39.02-.82.07-1.25.09l-.04-.15c.37-.09.78-.18,1.24-.28-.11-.33-.18-.63-.28-.92-.14-.38.04-.49.36-.49.66-.07.71-.04.85.6.03.15.11.33.16.52.37-.09.75-.01.8-.5ZM62.39,82.88c.06-.1.16-.2.15-.27-.03-.31-.1-.62-.17-.92-.05-.06-.15-.11-.2-.19-.06.1-.15.19-.14.27.04.35.17.72.24,1.05.04.04.09.07.12.06ZM62.72,84.5l.15-.04c.07-.41-.14-.79-.19-1.22,0-.03-.17-.04-.38-.11.16.55.29.97.42,1.37ZM63.81,81.32c-.02-.07-.13-.08-.23-.14-.02.09-.12.19-.1.26.04.35.17.72.25,1.1l.46-.1c-.13-.41-.22-.79-.38-1.11ZM64.07,83.84c.02.08.08.14.16.16.04,0,.18-.08.18-.08-.05-.38-.1-.8-.12-1.24l-.46.1c.09.37.13.72.24,1.05ZM65.29,84.66c.02-.08.14-.1.17-.11.48.01.52-.32.6-.65.03-.24.13-.5.18-.76.14-.46.23-.93.35-1.42-.48-.01-.85-.04-1.24-.04.07.62.2,1.19.25,1.77.05.54-.07.73-.58.92-.24.14-.51.2-.77.3l.1.46c.31-.19.8.01.93-.46ZM65.57,79.33c.09.03.14.09.21.07.63-.02,1.25-.05,1.87-.15.53-.08,1.06-.21,1.58-.36.12-.03.2-.17.29-.31.03-.04-.06-.26-.09-.25-.31.03-.75.01-.9.21-.21.16-.34.28-.53.32-.5.08-.96.1-1.43.17l-.97.22s-.03.08-.03.08Z"/>
        <path d="M73.37,76.99l-.62.14.19.82,1.22,5.34.09.41c.12.51-.12.82-.58.98-.15.05-.28-.05-.31-.19l-.36-1.59c-.61.35-2.42,1.05-2.17.93-.25-.36-.08-.49.51-.62-.64-1.81-.75-3.43-1.37-5.23,0,0-.67.37-.55-.3l1.23-.28s2.62-.9,2.67-.92c0,.01.21.26.25.47l-.2.05ZM71.72,77.57c-.36.08-.65.16-.65.16l.24,1.03q.14.62.75.26l-.33-1.45ZM72.1,79.23c-.36.08-.2.25-.61.35l.28,1.24c.48-.22.64-.23.58-.49l-.25-1.1ZM72.48,80.86c-.1.25-.61.36-.56.56l.33,1.44c.21-.05.59-.43.59-.43l-.36-1.57ZM81.51,81.39c.09.41-.17,1.12-.79,1.26-.77.39-1.28.07-1.62-.49-.97.43-1.54.78-2,.67.78-.62.86-1.13,1.05-2.04-.35-.57-.72-1.27-1.12-2.04-1.23.28-2.21.72-3.48.8l-.05-.21,3.48-.8-.38-1.65c-1.27.08-2.21.73-3.48.8l-.04-.2.41-.09.41-.09c.61-.14,1.18-.49,1.59-.58l.21-.05c.1-.45.57-.34.98-.43l-.19-.82c.41-.09.56-.35,1.02-.23l.42,1.85.23,1.02c.26.16.67.07.57-.34.08-.44.82-.41,1.03-.24.24.15.09.41-.32.5-.36.3-.77.4-1.19.49.09.41.41.98.49,1.18,0,0,.2-.67.4-.72.21-.05.29-.02.75.09l.08.35c-.1.45-.21.91-.33,1.37.22.21.26.52.84.89q.5.32,1.03-.24ZM73.4,78.07l.62-.14q.2-.05.24.15c.26.16.3.36.4.77-.57.35-1.07.04-1.26-.78ZM73.74,75.82c.7-.16,1.01-.38,1.38.34.05.2.09.41-.12.46-1.22.28-1.04-.35-1.26-.79ZM76.69,82.06l-1.85.42c-.2.05-.41.09-.46-.12l-.47-2.05c-.05-.21-.09-.41.32-.5.62-.14,1.48-.13,2.1-.27.41-.09.46.12.5.32l.19.83.14.61c.09.41.14.62-.48.76ZM75.95,80.72c-.05-.21-.14-.62-.39-.77l-.62.14.19.82.82-.19ZM75.23,78.51c-.3-.36-.04-1.07.17-1.12.2-.05.56-.35.7.27.09.41-.06.67-.63,1.01-.05-.2-.24-.15-.24-.15ZM76,80.93l-.82.19.23,1.02c.2-.05.41-.09.77-.39l-.19-.82ZM78.02,76.57c-.09-.41.07-.66.48-.75.61-.14.93,0,.96.42.06.76-1.29.95-1.44.33Z"/>
        <path d="M80.66,76.96c.1-.02.9.01,1.15.15.13.07.2.19.24.35.07.3-.03.51-.27.6s-.68.07-1.05-.06c-.36-.13-.54-.32-.53-.59.03-.13.11-.23.21-.32.1-.09.19-.13.24-.14ZM80.86,73.86c.22-.05.96.07,1.19.24.22.17.35.62.26.92-.05.16-.15.26-.31.29-.33.07-1.24.07-1.48-.35-.14-.18-.13-.41,0-.67.12-.26.24-.41.36-.44ZM82.27,82.91c-.21.05-1.04-.03-1.06-.14-.01-.05.09-.32.31-.81.21-.48.42-1.02.61-1.63.19-.52.33-.89.43-1.08.11-.21.21-.28.31-.24l.06.09c.09.4-.31,3.2-.41,3.53-.06.16-.14.26-.24.29ZM87.46,72.13c.21.06.32.15.33.26,0,.22-1.07,1.07-1.77,1.4-1.05.5-1.87.76-2.42.78-.65.01-.68-.13.22-.42.8-.26,1.49-.71,2.09-1.36.68-.7,1.13-.77,1.55-.65ZM87.96,75.37c.36-.08.56-.19.63-.33.17-.25.9-.64,1.11-.53.2.1.24.38.03.6-.1.12-.5.25-1.21.41l-1.06.24.09.37c.05.22.08.5.11.84l.04.43.95-.22c1.24-.28,1.05-.63,1.56,1.39.26,1.02.36,1.59.32,1.72-.04.13-.15.26-.3.35-.36.14-5.06,1.43-5.33,1.43h-.23s-.43-1.88-.43-1.88l-.38-1.87.98-.32c.65-.21,1-.35,1.03-.38.01-.04,0-.28-.03-.73l-.08-.63-1.27.25c-1.62.32-1.71.18-.16-.25l1.27-.35c.05-.03.04-.3-.08-.84-.12-.53-.18-.82-.15-.86.03-.04.12-.06.3-.07.33-.01.63-.05,1.03-.1s.47-.03.59.6l.15.84.53-.12ZM88.64,79.11c-.52-1.85-.1-1.53-1.55-1.22-.71.15-1.2.28-1.45.34l-.39.11.77,2.99.93-.21c.57-.13,1.07-.27,1.51-.43l.56-.2-.39-1.38Z"/>
        <path d="M91.27,79.56c.24-.14.53-.23.79-.38.09-.03.21-.06.32-.11q.68-.33.39-1.2c-.54.12-1.05.24-1.59.36l-.04-.15c.46-.38,1.01-.43,1.55-.63l-.14-.6c-.43.12-.8.26-1.16.34-.46.13-.58.06-.7-.48-.09-.64-.23-1.26-.37-1.92-.07-.32.13-.36.33-.43.39-.11.8-.26,1.24-.39l-.17-.76c-.66.15-1.21.51-1.83.42l-.05-.21c.52-.19,1.07-.38,1.66-.58l-.12-.53c-.31.02-.63.06-.92.09-.02-.07-.05-.12-.06-.17.53-.25,1.1-.4,1.59-.75.5-.37,1.01-.55,1.73-.63-.25.63-.76.75-1.11.99.03.13.04.29.08.34.07.16.14.28.23.29.09.02.16-.15.22-.21.15-.22,1.13-.6,1.36-.5.07.06.17.17.15.24,0,.14-.04.32-.2.38-.31.16-.68.29-1.02.43l-.51.12c.05.23.11.42.18.72.37-.09.72-.17,1.08-.31.33-.08.59.05.67.41l.36,1.57c.08.34-.1.59-.4.73-.36.09-.64.26-1,.35l.15.65c.34-.05.65-.1,1.04-.14l.04.16c-.33.17-.61.33-.96.48,0,.24.06.45.09.75l1.2-.28c-.36.54-3.54,1.73-4.04,1.63-.02-.07-.02-.09-.05-.12ZM91.98,74.43c-.16.04-.28.1-.41.13.06.26.11.47.18.71.15-.04.26-.08.39-.16l-.16-.68ZM92.24,75.56c-.16.04-.29.1-.4.13l.21.91c.46,0,.5-.14.19-1.04ZM93.81,74.72c-.11-.75-.2-.86-.59-.68.05.22.12.51.18.77l.41-.09ZM93.72,76.01c.11-.06.27-.17.31-.22-.02-.2-.09-.41-.15-.65-.15.03-.25.08-.33.1l.18.77ZM96.13,73.71c-.36.06-.75.07-1.06.13l-.04-.18c.24-.09.45-.2.67-.25.22-.09.38-.22.3-.56-.18-.68-.34-1.36-.49-2.03-.11-.31-.04-.42.26-.45.39,0,.78-.05,1.15-.03.06,0,.29.19.27.31.11.7.16,1.45.26,2.25.47-.11.84-.14,1.2-.28.41-.09.71.01.85.44.61,1.5.87,3.03.6,4.59-.11.39-.32.63-.71.72-.27.06-.57.15-.94.26.36-1.56-.04-2.96-.26-4.41-.06-.26-.17-.5-.28-.72-.02-.08-.12-.11-.18-.19-.07.12-.1.17-.1.26.03.95.07,1.95.07,2.91,0,.43-.1.92-.24,1.33-.19.58-.93.88-1.44.69.24-1.57.17-3.18.1-4.8Z"/>
        <path d="M107.45,71.65c-.09.08-1.63.77-1.75.83-.07.03.05.21.32.54.28.34.43.57.46.71.11.49-.82.62-1.33.21-.09-.05-.15-.12-.18-.23-.04-.1-.08-.15-.11-.22-.08-.12-.16-.26-.17-.31-.01,0-.04-.02-.05-.01-.01,0-.03,0-.04.02,0,.01-.07.18-.1.28,0,.05-.06.23-.11.53-.13.61-.03,1.5.21,1.66.13.08.32.1.62.03.6-.14,1.71-.77,1.67-.92-.03-.07.02-.14.09-.19.05-.04.1-.06.17-.06.13-.04.29-.03.47,0,1.44.17-.89,1.45-2.04,1.71s-1.75.23-2.26-.02c-.51-.25-.54-.32-.63-.73-.09-.4.08-1.05.5-1.75.2-.34.46-.71.8-1.03.12-.11.17-.17.12-.19l-.43.1c-.34.08-.62.2-.87.32-.25.13-.41.22-.48.23-.07.02-.2,0-.4-.03l-.39-.08.2-.73c.12-.47.16-.76.12-.86-.04-.11-.14-.15-.34-.11-.36.08-.99-.03-1.03-.19,0-.03.2-.11.65-.21.46-.1.71-.19.81-.23.05-.05.13-.14.16-.31.02-.18.12-.5.29-.94l.22-.59.45.09c1.05.25,1.19.37,1.05.99-.01.11.04.16.12.16.08,0,.24-.03.45-.09.43-.09.55-.16.67-.42.17-.37.49-.46.95-.25.38.14.5.41.23.7-.07.12-.21.2-.43.26l-2.7.62-.44,1.28.53-.1c.34-.07.63-.08.81-.07.35.02.54-.02.99-.3.77-.47,1.32-.67,2.2-.27.02.09,0,.16-.02.21Z"/>
        <path d="M111.68,70.78c.13.98.27,1.97.4,2.96.07.46.16.93.3,1.38.07.25.17.52.27.76.03.09.21.27.21.34,0,.31-.73.52-.97.54-.5.03-.61-.31-.75-.71-.33-.91-.48-1.88-.66-2.83-.34-1.98-.84-3.92-1.19-5.89-.09-.45,0-.65.48-.74.17-.03.29.02.44.02.17,0,.38-.1.56-.13.5-.12,1.03-.17,1.55-.2.34-.03.71-.06.95.23.29.33.35.9.43,1.3.1.47.18.96.23,1.44.05.32.17.81-.02,1.11-.21.32-.78.41-1.1.24-.09-.12-.94.14-1.14.16ZM111.28,68.45c.35-.09.7-.22,1.07-.27-.07-.41-.1-.9-.28-1.28-.34,0-.68.03-1.02.07.06.49.14.98.23,1.47ZM112.59,69.7c-.06-.33-.11-.65-.16-.97l-.68.19c-.06.01-.24.03-.28.06-.09.09-.04.08-.03.24,0,.21.07.54.14.74.07.19-.02.14.19.17.09.02.22-.02.31-.03.12-.02.31-.02.42-.08.17-.11.12-.11.09-.32ZM112.84,71.3c.39-.26,1.05-.23,1.5-.32.58-.12,1.12-.26,1.68-.4.05-.01.26-.04.3-.07s0-.09.03-.13c.11-.18.14-.28.34-.37.32-.15,1.02-.15.88.4-.12.43-.87.57-1.22.67-1.06.32-2.14.56-3.23.69-.36.04-.72-.18-.29-.47ZM117.92,72.25c-.12.14-.33.24-.49.3-.06.03-.43.1-.46.14-.07.09.24,1.04.26,1.18.05.26.22.8.1,1.05-.11.23-.66.36-.87.25-.24-.13-.3-.56-.37-.79-.11-.34-.21-.69-.31-1.04-.02-.09-.04-.2-.08-.3l-.29.07c-.04.06.05.37.05.43-.01.59-.29,1.49-.9,1.7-.16.06-.61.15-.7-.06-.09-.18.27-.66.33-.86.05-.17.27-.86.08-1.03-.1-.09-.73.09-.88.08-.3-.02-.52-.18-.19-.41.26-.18.64-.2.95-.22-.07-.25-.24-.5-.03-.71.12-.11.32-.16.5-.19.25-.03.4,0,.5.22.06.11.04.26.11.37.12.18.07.13.32.07-.08-.23-.21-.42-.03-.62.11-.12.3-.18.47-.22.16-.04.4-.08.55,0,.2.1.22.33.28.54.08-.02.18-.34.32-.43.18-.12.48-.17.69-.11.3.09.23.41.08.6ZM119.48,74.95c-.32-.05-.43-.21-.39-.51.05-.49.05-.97-.04-1.47-.15-.91-.4-1.85-.65-2.74-.08-.28-.17-.56-.27-.84-.02-.09-.06-.26-.12-.34-.17-.24,0-.12-.23-.11-.48.01-1,.22-1.47.28-.39.05-.94.36-1.27.02-.25-.24-.37-.71-.48-1.03-.2-.53-.3-1.08-.39-1.63-.06-.45-.02-.65.46-.77.26-.06.48-.05.75-.13.23-.08.47-.14.71-.21.41-.1.82-.19,1.22-.25.5-.07.97-.16,1.27.29.26.38.44.85.61,1.27.38.95.57,1.97.79,2.98.2.87,1.6,5.49-.5,5.21ZM115.96,67.08c.38-.12.75-.21,1.14-.27-.04-.11-.33-.96-.39-.94-.23.05-.77.12-.86.31-.09.18.06.71.11.91ZM117.73,68.33l-.26-.64c-.1-.21-.06-.27-.27-.3-.25-.03-.63.1-.87.17-.17.05-.23.04-.27.17-.02.12.08.49.12.59.11.21-.09.16.22.17.24.02.5-.05.73-.08.19-.03.39-.05.58-.08Z"/>
        <path d="M127.18,66.84s-.12-.18-.33-.47c-.42-.56-.34-1.07.18-1.19.54-.12.69-.1.84.23.08.17.23.38.5.63.54.52.76.81.97,1.29.1.22.18.39.21.46.03.07.06.15.08.25.04.17.03.18-.1.26-.06.02-.12.05-.17.06-.09.02-.75.17-1.05.02-.16-.06-.32-.28-.52-.61l-.12-.21c-.03-.07-.19-.2-.2-.18-.02-.02-.05-.01-.15,0-.08.02-.14.03-.18.07l-.31.12c-.9.4-1.37.74-1.41,1.03-.02.12-.06.17-.1.22-.05.04-.19.09-.43.15-.5.12-.64.01-.49-.46.15-.47.25-1.34.18-1.57-.01-.11-.52.46-.59.66-.03.09-.03.34-.01.74.05.81-.01,1.41-.27,2.47l-.27.98.35.25c.24.18.4.24.53.21.25-.06.3,0,.33.16.04.16.01.22-.14.3-.14.08-.63.25-.78.24-.09-.03-.22-.09-.4-.2-.18-.13-.33-.18-.42-.17-.11.01-.41.08-.95.22-1.03.29-.95-.05-.24-.39.13-.07.23-.19.26-.38.07-.11-.04-.29-.19-.44-.16-.16-1.02-1.08-1.28-1.13-.23-.07-.34-.48-.35-1.22,0-.65-.02-.57-.3-.4-.27.16-1,.19-1.18.07-.07-.06-.04-.14.13-.25.17-.11.43-.22.81-.35.38-.14.54-.2.54-.25-.03-.19-.17-3.47-.15-3.6.03-.08,1.16.07,1.33.16.07.08.25,1.67.25,2.45v.59s.13.01.29-.03c.34-.08.79-.29,1.04-.51.12-.1.22-.21.29-.34.07-.21.4-.3.96-.23l.43.04-.08-.71-.13-2.47.35-.08c.45-.13.95.08,1,.23.05.06.1.26.14.6.1.64.17,2.31.12,2.82-.03.25-.02.39,0,.43l.32-.17c.2-.1.4-.19.59-.28.19-.08.28-.14.27-.16ZM122.38,70.14c.05-.43.05-1.11,0-1.58-.02-.25-.05-.39-.1-.44-.05-.05-.08-.07-.11-.05l-.33.12c-.13.04-.21.11-.23.16-.02.07-.03.28-.05.64,0,.36-.02.63-.07.84l-.06.35.85.63.09-.67ZM125.15,69.43c.09-.02.15-.08.19-.2.04-.11.16-.18.32-.22.33-.07,2.14-.39,2.75-.4h.49s.22.85.22.85c.3,1.1.29,1.43.08,1.85-.22.42-.42.6-.9.76-.24.07-.58.16-1,.25-.43.1-.72.15-.85.17-.27.01-.43-.09-.65-.41-.21-.32-.81-2.26-.81-2.52.03-.08.07-.11.15-.13ZM126.47,69.23l.21.94c.14.63.29,1.1.42,1.4l.23.48.34-.15c.23-.08.34-.15.38-.22.05-.06-.02-.51-.18-1.34l-.22-1.24-.35.02c-.23,0-.42.02-.58.06l-.25.06Z"/>
      </g>
    </g>
  </g>
</svg>