<?xml version="1.0" encoding="UTF-8"?>
<svg id="_レイヤー_2" data-name="レイヤー 2" xmlns="http://www.w3.org/2000/svg" viewBox="0 0 164.25 51.19">
  <defs>
    <style>
      .cls-1 {
        fill: #4d4d4d;
      }
    </style>
  </defs>
  <g id="_編集箇所" data-name="編集箇所">
    <g>
      <path class="cls-1" d="M30.54,4.25c1.34.55,3.72,2.02,3.72,3.17,0,.59-.46,1.08-1.01,1.08-.29,0-.62-.15-.88-.51-.29-.37-.59-.7-.95-1.01-5.57.95-11.16,1.23-11.79,1.23-.73,0-1.1-.51-1.1-1.01,0-.46.31-.9.95-.9.9,0,1.85-.02,2.77-.07.24-.48.53-1.32.75-1.98l-4.64.02c-.66,0-1.01-.48-1.01-.97s.35-.97,1.01-.97l6.89.04v-1.34c0-.68.57-1.03,1.14-1.03s1.14.35,1.14,1.03v1.34l7-.04c.68,0,1.01.48,1.01.97s-.33.97-1.01.97l-3.98-.02ZM32.3,16.61v.04c0,1.3-.75,2.95-3.63,2.95-1.5,0-2.33-.18-2.33-1.17,0-.48.29-.97.86-.97.04,0,.11,0,.18.02.46.09.92.15,1.34.15.84,0,1.45-.29,1.5-1.34,0-.18.02-.37.02-.59h-7.55v3.08c0,.64-.55.99-1.08.99s-.99-.31-.99-.97c0-.22.11-7.9.13-8.27.04-.86.68-1.85,2.44-1.89,1.03-.02,2.33-.04,3.61-.04,1.06,0,2.09.02,2.99.04,1.76.07,2.38.88,2.42,1.87.04,1.01.02,2.93.04,3.81l.04,2.29ZM30.25,12.96h-7.55c0,.4-.02.81-.02,1.23h7.57v-1.23ZM30.21,11.11c-.02-.86-.37-.88-3.56-.88-3.59,0-3.85,0-3.89.88v.33h7.48l-.02-.33ZM25.32,4.22c-.15.44-.55,1.25-.88,1.89,1.76-.11,3.48-.26,5.13-.44-.09-.04-.15-.09-.22-.13-.31-.15-.44-.4-.44-.62,0-.26.15-.55.42-.7h-4Z"/>
      <path class="cls-1" d="M44.02,18.7l.22-10.17c-1.06,1.36-1.72,2.16-2.49,2.16-.57,0-1.03-.44-1.03-.97,0-.24.11-.53.37-.77,2.09-2,4-4.91,5.02-7.97.18-.48.55-.7.95-.7.59,0,1.23.46,1.23,1.08,0,.53-1.08,2.6-1.89,3.98l-.26,13.36c0,.68-.55,1.01-1.08,1.01s-1.03-.33-1.03-.99v-.02ZM54.52,18.81c0,.57-.53.86-1.06.86s-1.06-.29-1.06-.86v-.02l.11-9.2c-1.01,2.16-2.27,4.07-4.16,5.87-.26.24-.57.35-.84.35-.57,0-1.08-.44-1.08-.97,0-.26.13-.55.42-.79,2.13-1.8,3.72-3.98,5.02-6.82l-3.76.07h-.02c-.66,0-.99-.46-.99-.95s.35-.97,1.01-.97h4.29V1.23c0-.64.53-.95,1.03-.95.55,0,1.08.33,1.08.95v4.16h4.91c.64,0,.97.48.97.97s-.31.95-.95.95h-.02l-4.38-.07c1.5,2.71,3.39,4.66,5.41,6.23.33.26.46.57.46.9,0,.57-.46,1.12-1.1,1.12-.29,0-.62-.11-.92-.37-1.65-1.41-3.21-3.43-4.49-5.7l.11,9.37v.02Z"/>
      <path class="cls-1" d="M75.86,4.2c-1.83,2.9-2.33,2.93-2.73,2.93-.33,0-.64-.15-.84-.37-.4.53-.77,1.01-1.19,1.5l-.26,10.45c-.02.66-.57.99-1.1.99s-1.03-.31-1.03-.95v-.04l.26-8.27c-1.85,1.65-2.33,1.74-2.6,1.74-.62,0-1.06-.55-1.06-1.1,0-.33.15-.66.53-.88,1.89-1.1,3.78-3.04,5.13-5.28.22-.35.53-.51.81-.51.44,0,.86.29,1.06.66,1.12-1.34,1.94-2.82,2.6-4.31.18-.4.53-.55.88-.55.53,0,1.08.37,1.08.92,0,.18-.04.37-.51,1.23l7.24-.04c.66,0,.99.46.99.95s-.33.95-.99.95h-8.27ZM66.64,6.93c-.62,0-1.1-.46-1.1-.99,0-.35.22-.75.73-1.03,1.72-.99,3.15-2.49,4.22-4.27.24-.4.57-.55.88-.55.57,0,1.1.48,1.1,1.08,0,.2-.07.44-.22.66-1.39,2-4.31,5.1-5.61,5.1ZM73.94,19.67c-.7,0-1.08-.46-1.08-.92,0-.42.31-.84.95-.88,1.56-.13,2.86-.46,3.94-.97-.57-.53-1.08-1.1-1.43-1.72-.29.26-3.06,2.51-3.92,2.51-.57,0-.95-.46-.95-.92,0-.29.15-.59.53-.77,1.63-.77,3.7-2.33,5.24-4.27-2.68,0-2.73-1.01-2.73-3.3,0-1.76.07-3.06,2.02-3.12.81-.02,1.83-.04,2.84-.04.84,0,1.65.02,2.33.04,1.08.04,1.87.51,1.94,1.5.04.55.07,1.17.07,1.76,0,2.99-.24,3.19-4.25,3.19-.24.33-.48.64-.73.95,1.19-.02,2.88-.04,3.17-.04,1.01,0,1.5.57,1.5,1.23,0,.24-.02,1.17-2.29,3.01,1.03.33,2.31.51,3.85.51.55,0,.86.44.86.9,0,1.06-1.14,1.06-1.41,1.06-1.94,0-3.63-.51-5.02-1.3-2.75,1.54-5.37,1.61-5.44,1.61ZM81.82,7.88c0-.2-.02-.4-.04-.59-.04-.55-.42-.55-2.73-.55s-2.68,0-2.73.59c0,.15-.02.35-.02.55h5.52ZM76.3,9.15c0,.68,0,1.12.64,1.12.64.02,1.52.04,2.38.04.7,0,1.36-.02,1.87-.04.46-.02.64-.35.64-1.12h-5.52ZM81.03,14.3c0-.09-.09-.13-.15-.13h-.07c-.09.02-2.05.02-3.26.02.4.68.95,1.32,1.72,1.83,1.03-.75,1.76-1.58,1.76-1.72Z"/>
      <path class="cls-1" d="M91.72,11.53c-.48,0-.95-.33-.95-.86,0-.13.02-.26.09-.42.4-1.06.62-3.12.62-4.69,0-.31,0-.62-.02-.88v-.09c0-.55.42-.84.88-.84s.95.31.97.95c.02.29.02.66.02,1.03,0,1.74-.18,4.14-.62,5.15-.2.44-.59.64-.99.64ZM96.49,1.43c-.02,1.47-.04,3.61-.04,5.37v.22c0,4.51-.7,8.98-3.26,11.51-.33.33-.7.46-1.03.46-.59,0-1.08-.42-1.08-.95,0-.24.11-.53.4-.79,2.35-2.2,2.95-5.85,2.95-9.97,0-.29-.04-4.73-.07-5.83v-.02c0-.68.55-1.03,1.08-1.03s1.06.33,1.06,1.01v.02ZM102.02,13.36c-.44,0-.88.02-1.3.02-.51,0-.73.26-.73.77v.9c0,.75,0,1.54.02,2.33,0,.59-.46.88-.95.88s-.95-.29-.97-.88c0-.57-.02-1.17-.02-1.78s.02-1.23.02-1.8c0-.24.04-.44.09-.64-.15.09-.35.13-.53.13-.48,0-.95-.31-.97-.9,0-.29-.02-.59-.02-.9,0-.33.02-.68.02-1.03.04-1.12.79-1.85,2.31-1.87,1.28-.02,3.08-.02,4.82-.02,1.28,0,2.51,0,3.5.02,1.08.02,2.2.68,2.24,2.02.02.29.02.59.02.88,0,.31,0,.59-.02.86-.02.59-.55.88-1.03.88-.2,0-.4-.04-.55-.13.07.22.09.46.09.73,0,.62,0,1.23.02,1.94v.11c0,1.21-.64,2.18-2.18,2.18-.9,0-1.41-.22-1.41-.95,0-.4.22-.81.64-.81.04,0,.09.02.13.02.11.02.2.02.31.02.33,0,.64-.11.64-.66,0,0,0-.95-.02-1.54,0-.77-.46-.77-2.2-.77l.02,5.21c0,.68-.51,1.01-.99,1.01s-1.01-.33-1.01-1.01v-5.21ZM99.62,4.91c-.62,0-.9-.35-.9-.73,0-.4.33-.79.9-.79h6.18c0-.18-.02-.33-.02-.44-.04-.44-.31-.59-.75-.59h-5.96c-.62,0-.92-.42-.92-.84s.31-.84.95-.84c1.87.02,4.75.02,6.42.02,2.22,0,2.27,1.34,2.27,3.48s-.04,3.37-2.27,3.41c-1.23.02-2.71.04-4.09.04-.88,0-1.72,0-2.44-.02-.59-.02-.9-.42-.9-.81s.29-.79.86-.79h.02c.92,0,2.05.02,3.15.02s2.16-.02,2.93-.02c.44,0,.7-.18.75-.62,0-.13.02-.31.02-.48h-6.18ZM107.56,12.34c0-1.91,0-2.09-1.14-2.11-.9-.02-2.62-.04-4.14-.04q-3.67,0-3.67,1.43v.73c.35-.33.95-.48,1.74-.51.53,0,1.1-.02,1.69-.02v-.57c0-.64.48-.95.99-.95s.97.31.97.95v.57c.66,0,1.3,0,1.91.02.75.02,1.3.2,1.65.53v-.02Z"/>
      <path class="cls-1" d="M117.81,10.8c-1.5,1.21-1.83,1.36-2.16,1.36-.62,0-1.06-.55-1.06-1.1,0-.33.15-.66.53-.88,1.89-1.1,3.78-3.04,5.13-5.28.22-.35.53-.51.84-.51.59,0,1.14.57,1.14,1.12,0,.2-.07.4-.2.59-.68.97-1.39,1.85-2.13,2.66l-.24,9.92c-.02.66-.55.99-1.1.99-.51,0-1.01-.31-1.01-.95v-.04l.26-7.9ZM115.92,6.93c-.51,0-1.1-.33-1.1-.99,0-.35.22-.73.73-1.03,1.72-.99,3.15-2.49,4.22-4.27.24-.4.57-.55.88-.55.57,0,1.1.48,1.1,1.08,0,.2-.07.44-.22.66-1.78,2.57-4.51,5.1-5.61,5.1ZM127.16,10.76c.99-.02,2.44-.07,2.82-.07,1.06,0,1.65.62,1.65,1.41,0,.88-1.1,2.57-2.13,3.72,1.1.73,2.51,1.25,4.27,1.47.55.07.81.48.81.95,0,.55-.4,1.14-1.17,1.14-.48,0-3.01-.42-5.28-2.27-2.64,2.13-5.32,2.55-5.57,2.55-.68,0-1.06-.51-1.06-1.01,0-.4.26-.77.79-.88,1.69-.31,3.19-1.1,4.4-2.05-.59-.7-1.08-1.43-1.43-2.18-1.01,1.3-2.95,3.15-3.78,3.15-.57,0-1.01-.48-1.01-.99,0-.24.11-.51.4-.68,2.18-1.47,3.21-2.73,4.58-5.1-.75.07-2.42.22-3.41.22-.55,0-.84-.46-.84-.95,0-.44.26-.9.81-.9.73,0,1.45-.02,2.18-.04l.04-.02c.48-.37.99-.75,1.5-1.21-.86-.88-1.89-1.67-2.93-2.18-.37-.2-.53-.48-.53-.79,0-.46.4-.9.95-.9.29,0,.75.22,1.01.37.81-.84,1.52-1.94,2-2.97.15-.33.44-.46.75-.46.57,0,1.21.46,1.21,1.01,0,.44-1.1,2.07-2.49,3.37.51.37.97.79,1.39,1.21.92-.99,1.78-2.07,2.4-3.01.2-.31.53-.44.84-.44.57,0,1.14.4,1.14.95,0,1.08-3.72,4.33-4.42,4.91,1.36-.11,2.68-.29,3.94-.46-.15-.15-.33-.29-.48-.42-.24-.2-.35-.44-.35-.64,0-.44.46-.81.97-.81.88,0,3.54,2.51,3.54,3.52,0,.62-.53,1.08-1.06,1.08-.33,0-.64-.15-.86-.53-.18-.29-.35-.57-.55-.84-1.45.29-3.1.55-4.82.75.04.11.07.22.07.33,0,.18-.04.35-.18.55l-.11.15ZM129.3,12.52c0-.2-.18-.24-.33-.24h-.07c-.15,0-1.39.04-2.38.04.35.75.84,1.5,1.47,2.2.48-.55,1.3-1.63,1.3-2Z"/>
      <path class="cls-1" d="M143,19.25c-.55-.81-1.76-1.83-2.71-2.31-.42-.22-.59-.55-.59-.88,0-.51.4-.97,1.03-.97.77,0,4.29,1.94,4.29,3.43,0,.7-.59,1.21-1.19,1.21-.31,0-.62-.15-.84-.48Z"/>
      <path class="cls-1" d="M16.77,44.81c0,1.3-.15,2.46-2.31,2.46-1.14,0-2.35.02-3.61.02l.02,1.01v.02c0,1.32-1.12,2.55-3.37,2.55-.7,0-2.31-.02-2.31-1.17,0-.51.35-.99.97-.99.11,0,.22.02.33.04.37.09.79.15,1.17.15.66,0,1.19-.22,1.19-1.03l.02-.57c-1.91,0-3.85,0-5.61-.02-.55,0-.84-.42-.84-.81,0-.42.29-.81.84-.81h.02c1.63.02,3.61.04,5.59.04v-.99H.77c-.51,0-.77-.42-.77-.84,0-.4.26-.81.77-.81h8.1v-.92c-2.07,0-4.16.02-5.59.04h-.02c-.48,0-.73-.37-.73-.75,0-.4.26-.79.84-.81,1.56-.02,3.54-.02,5.5-.02v-.77c-5.26,0-5.74-.04-5.74-2,0-1.45.26-2.13,2.29-2.13.84,0,2.11-.02,3.45-.02v-.86l-6.65.02c-.59,0-.9-.44-.9-.88s.31-.88.9-.88l6.65.02-.02-.9c0-.66.51-.99,1.01-.99s.99.33.99.99v.9l6.54-.02c.62,0,.9.44.9.88s-.29.88-.9.88l-6.54-.02v.86c1.34,0,2.62,0,3.48.02,1.41.02,2.02.42,2.09,1.32.02.24.04.48.04.7,0,.24-.02.46-.04.68-.15,1.41-.77,1.43-5.57,1.43v.79c1.3,0,2.53,0,3.59.02,1.41.02,2.24.48,2.29,1.58,0,.2.02.44.02.73h2.02c.57,0,.86.46.86.92s-.29.92-.86.92h-2ZM8.87,37.1c-1.19,0-2.29.02-2.97.02-.46,0-.64.11-.68.31v.48c0,.37.53.4,3.65.4v-1.21ZM10.85,38.31c3.48,0,3.54,0,3.54-.64,0-.35-.11-.55-.73-.55s-1.67-.02-2.82-.02v1.21ZM14.79,42.78c-.02-.4-.29-.59-.68-.59-.9-.02-2.02-.02-3.26-.02v.9h3.96l-.02-.29ZM10.85,44.72v.99c1.14,0,2.24-.02,3.26-.04.4,0,.66-.22.68-.62,0-.11.02-.22.02-.33h-3.96Z"/>
      <path class="cls-1" d="M41.67,35.59c-.31,1.1-.88,2.31-1.91,3.43,1.08.53,2.29.86,3.48,1.06.55.09.79.48.79.88,0,.53-.42,1.1-1.21,1.1-.46,0-2.46-.42-4.51-1.76-1.78,1.28-3.98,1.98-4.27,1.98-.48,0-.84-.35-.97-.75-.04.09-.4.84-1.14.84-.46,0-.86-.31-.86-.73,0-.13.04-.26.13-.42.18-.29.64-1.12.64-1.34,0-.11-.09-.18-.35-.2h-.75v.18s-.02,3.76-.02,4.95c0,.35.04,2.35.07,3.12v.11c0,1.41-.7,2.64-2.75,2.64-.77,0-2.02-.07-2.02-1.17,0-.51.31-.99.86-.99.07,0,.13,0,.2.02.29.07.57.11.81.11.53,0,.92-.2.95-.95,0-.99.02-3.23.04-5.06-.81,1.25-1.78,2.51-2.62,3.37-.24.24-.51.35-.75.35-.53,0-.97-.46-.97-.99,0-.29.13-.57.42-.81,1.06-.9,2.79-2.93,3.85-4.84-.24,0-2.49.11-2.9.11-.53,0-.79-.42-.79-.86,0-.46.29-.9.84-.92h3.45c-.51-.64-1.36-1.19-1.85-1.43-.26-.13-.35-.33-.35-.55,0-.42.42-.88.92-.88.33,0,.95.37,1.36.66.88-.88,1.43-1.61,1.43-1.69,0-.07-.04-.09-.11-.09-1.08,0-2.82.04-4.03.13h-.09c-.55,0-.84-.42-.84-.86s.31-.9.92-.92c1.43-.04,3.54-.04,5.06-.04.95,0,1.45.53,1.45,1.21,0,.33,0,.95-2.55,3.28.02.02.04.07.07.09.15.18.22.37.22.57s-.07.37-.18.53c.44,0,.86.02,1.21.02.84.02,1.72.57,1.72,1.5,0,.22-.02.42-.26.97l.2-.07c1.28-.35,2.29-.81,3.1-1.34-.7-.66-1.3-1.41-1.74-2.29-.88,1.08-1.08,1.25-1.58,1.25s-.97-.35-.97-.84c0-.2.09-.44.33-.68,1.14-1.14,2.09-2.6,2.75-4.31.15-.4.51-.55.86-.55.53,0,1.08.35,1.08.88,0,.09,0,.22-.55,1.32l5.87-.07c.57,0,.86.44.86.86,0,.44-.29.88-.86.88h-1.19ZM38.11,44.98c-1.28,4.71-5.74,5.9-6.21,5.9-.64,0-1.06-.53-1.06-1.03,0-.37.2-.7.68-.86,2.44-.73,3.98-2.05,4.62-3.96-.88.02-1.76.04-2.62.07h-.04c-.62,0-.92-.42-.92-.86s.31-.88.95-.88c.95-.02,1.96-.02,2.97-.04,0-.15.02-.33.02-.51,0-.22-.02-.46-.04-.73v-.07c0-.53.53-.86,1.03-.86s.95.29.95.95c0,.42,0,.81-.04,1.19.75,0,1.5,0,2.22.02,1.5.02,2.11.86,2.11,2,0,.75-.07,5.21-3.83,5.21-.57,0-1.21-.11-1.96-.31-.44-.11-.64-.53-.64-.92,0-.51.29-1.01.84-1.01.09,0,.22.02.33.07.59.2,1.03.29,1.41.29,1.06,0,1.74-1.25,1.8-2.99,0-.46-.26-.66-.66-.66h-1.91ZM36.35,35.59c.46,1.01,1.1,1.8,1.85,2.42.73-.77,1.19-1.61,1.43-2.42h-3.28Z"/>
      <path class="cls-1" d="M50.29,41.81c-.66,0-.97-.42-.97-.84,0-.46.33-.92.97-.92h4.82c.44-.77,1.1-2.31,1.39-3.34.13-.51.53-.7.92-.7.55,0,1.17.42,1.17.97,0,.31-.81,1.96-1.5,3.08h2.51c.62,0,.92.44.92.88s-.31.88-.92.88h-9.31ZM50.75,35.61c-.68,0-.99-.42-.99-.84,0-.44.35-.9.99-.9h3.15l-.02-1.34v-.02c0-.62.53-.9,1.06-.9s1.06.31,1.06.9v.02l-.02,1.34h3.19c.64,0,.95.44.95.86,0,.44-.31.88-.95.88h-8.41ZM55.09,50.39c-.88,0-1.76-.02-2.42-.07-1.43-.09-2.02-.95-2.07-2.02-.02-.46-.02-.86-.02-1.23,0-.62.02-1.14.04-1.8.04-1.12.81-1.91,2-1.98.62-.02,1.36-.04,2.09-.04.9,0,1.8.02,2.46.04,1.08.04,2.07.79,2.11,1.89.02.79.07,1.47.07,2.18,0,1.19,0,2.79-2.16,2.97-.57.04-1.34.07-2.11.07ZM52.36,39.11c-.31-.79-.62-1.32-.9-1.65-.15-.18-.22-.35-.22-.53,0-.44.48-.79.97-.79.9,0,2.02,1.94,2.02,2.51s-.55,1.08-1.06,1.08c-.33,0-.64-.2-.81-.62ZM57.27,45.66c-.04-.7-.4-.7-2.35-.7-.57,0-1.12,0-1.52.02-.77.02-.81.42-.81,2s0,1.63,2.38,1.63,2.33-.07,2.33-1.94c0-.31,0-.64-.02-1.01ZM63.52,46.5c0-.55.37-1.1.97-1.1.07,0,.15,0,.22.02.22.04.42.07.62.07.37,0,1.3-.09,1.3-1.67,0-1.06-.55-1.96-1.25-2.86-.51-.62-.68-1.17-.68-1.69,0-.62.24-1.19.53-1.8.77-1.63,1.08-2.31,1.08-2.64,0-.46-.31-.46-1.52-.46-.35,0-.7,0-1.01.02-.48.02-.77.4-.77.86-.02,1.32-.02,2.66-.02,4.03,0,2.93.02,5.96.02,9.04v1.8c0,.64-.53.97-1.03.97-.55,0-1.08-.33-1.08-.97,0-9.35.02-12.3.07-15.18.02-1.41.73-2.31,2.18-2.33.59-.02,1.23-.02,1.91-.02.48,0,.97,0,1.45.02,1.47.04,2.2.81,2.2,1.85,0,.84-.24,1.32-1.54,3.59-.29.48-.42.79-.42,1.08,0,.35.2.64.59,1.14.81,1.08,1.52,2.16,1.52,3.83,0,2.27-1.3,3.7-3.43,3.7-1.01,0-1.89-.22-1.89-1.28Z"/>
      <path class="cls-1" d="M78.67,32.13c.88,0,1.78,0,2.2.02,1.1.04,1.87.79,1.91,1.83.02.79.04,1.69.04,2.53,0,3.01-.02,3.52-4.38,3.52-.57,0-1.12-.02-1.52-.04v1.96c0,2.27-.02,4.97-.09,8.08,0,.64-.53.95-1.06.95s-1.06-.31-1.06-.9v-.04c.15-4.03.11-10.63.15-15.64,0-2.24,1.56-2.24,3.78-2.24ZM80.89,35.32c0-.29-.02-.53-.02-.77-.04-.73-.31-.75-1.91-.75-1.76,0-1.96.09-2,.92,0,.18-.02.37-.02.59h3.96ZM76.93,36.91v1.45c.31.02.97.02,1.63.02,2.13,0,2.29-.07,2.31-.75,0-.22.02-.46.02-.73h-3.96ZM88.86,40.03c-2.66,0-4.42,0-4.49-2-.02-.46-.02-.99-.02-1.52,0-.84.02-1.74.04-2.53.04-1.03.77-1.78,1.87-1.83.42-.02,1.36-.02,2.27-.02.66,0,1.28,0,1.65.02,1.63.09,2.31,1.01,2.31,2.05v1.69c0,3.39.04,6.56.04,9.35,0,1.03.02,1.96.02,2.73,0,1.56-.77,2.93-3.28,2.93-1.54,0-2.33-.2-2.33-1.17,0-.51.31-.97.86-.97.07,0,.11.02.18.02.42.07.81.13,1.17.13.73,0,1.28-.26,1.3-1.34.02-.88.04-1.76.04-2.64,0-1.32-.02-2.66-.02-4.03v-.92c-.4.02-.97.04-1.61.04ZM90.42,35.32c0-1.5-.02-1.52-2.07-1.52-1.56,0-2,.02-2.05.77,0,.22-.02.48-.02.75h4.14ZM90.47,36.91h-4.18c0,.26.02.51.02.73.02.7.22.75,2.42.75.73,0,1.43,0,1.74-.02v-1.45Z"/>
      <path class="cls-1" d="M100.36,49.03c-.42-1.34-.57-2.77-.57-4.2,0-3.87,1.12-7.66,1.23-9.18.07-.75.55-1.06,1.06-1.06.55,0,1.1.37,1.1.97,0,.04,0,.11-.02.18-.31,1.61-1.43,5.68-1.43,7.86,0,.81.15.9.22.9.04,0,.11-.04.15-.15.68-1.3.84-1.56,1.3-1.56s.9.44.9.92c0,.13-.02.26-.11.4-1.06,1.83-1.65,3.48-1.65,4.14,0,.2.02.4.02.59,0,1.08-.86,1.14-1.1,1.14-.44,0-.9-.29-1.1-.95ZM112.6,48.9c-3.81,0-6.71-2.27-6.71-3.34,0-.57.53-1.03,1.14-1.03.33,0,.68.13.99.48.92,1.03,2.49,1.47,4.27,1.47.62,0,1.23-.04,1.87-.13.09-.02.18-.02.26-.02.75,0,1.1.51,1.1,1.06,0,1.14-.97,1.52-2.93,1.52ZM110.11,39.24c-.97,0-2-.09-2.97-.33-.66-.15-.92-.57-.92-.99,0-.53.42-1.03,1.01-1.03.07,0,.13,0,.22.02.73.15,1.45.22,2.13.22.95,0,1.85-.11,2.71-.22.07,0,.13-.02.2-.02.68,0,1.06.51,1.06,1.03,0,.88-.62,1.32-3.43,1.32Z"/>
      <path class="cls-1" d="M130.51,46.68l-8.6.04c-.64,0-.95-.42-.95-.84,0-.44.33-.9.95-.9l5.04.02v-1.78l-3.72.02c-.64,0-.95-.42-.95-.84,0-.44.33-.9.95-.9l3.72.02v-.88c0-.46.48-.7.97-.7s.99.24.99.7v.9h3.15v-.9c0-.46.48-.7.99-.7s.99.24.99.7v.88l3.78-.02c.59,0,.9.44.9.86,0,.44-.31.88-.9.88l-3.78-.02v1.78l5.1-.02c.59,0,.9.44.9.86,0,.44-.31.88-.9.88l-8.63-.04ZM122.78,51.19c-.7,0-1.1-.53-1.1-1.08,0-.46.29-.9.95-.99,1.5-.2,3.39-.88,4.86-2,.18-.13.37-.2.55-.2.55,0,1.06.57,1.06,1.12,0,.26-.11.53-.4.73-1.67,1.21-4.91,2.42-5.92,2.42ZM135.17,39.77c-1.43.04-2.88.07-4.33.07-1.67,0-3.37-.02-4.99-.07-1.58-.04-2.4-.86-2.44-1.98-.02-.66-.04-1.32-.04-1.96s.02-1.25.04-1.83c.04-.92.66-1.89,2.38-1.94.92-.02,2.42-.04,4.05-.04,1.96,0,4.07.02,5.48.04,1.3.02,2.2.92,2.27,1.78.04.51.07,1.14.07,1.78,0,.73-.02,1.5-.07,2.13-.04,1.06-.97,1.96-2.4,2ZM129.47,33.58c-1.23,0-2.38.02-3.12.04-1.03.02-1.03.66-1.03,1.47h4.16v-1.52ZM129.47,36.62h-4.16c0,1.06.02,1.52,1.06,1.56.81.02,1.91.02,3.1.02v-1.58ZM132.05,43.22l-1.54-.02-1.61.02v1.78l1.63.02,1.52-.02v-1.78ZM135.59,35.1c0-.22-.02-.46-.02-.66-.04-.86-.24-.86-4.16-.86v1.52h4.18ZM131.41,36.62v1.58c1.17,0,2.29,0,3.17-.02.99,0,1.01-.51,1.01-1.56h-4.18ZM138.1,51.08c-.55,0-3.43-.77-5.83-2.4-.29-.2-.42-.46-.42-.75,0-.53.46-1.06,1.03-1.06.18,0,.35.04.53.15,1.5.99,3.48,1.72,4.97,1.91.62.09.9.51.9.97,0,.57-.44,1.17-1.19,1.17Z"/>
      <path class="cls-1" d="M149.93,46.04l-2.93.07h-.02c-.57,0-.86-.37-.86-.77,0-.37.31-.77.88-.77l2.93-.02v-.86c-3.23,0-3.52-.07-3.52-3.12,0-2.71.62-2.73,3.54-2.73l-.02-.9h-3.34c-.57,0-.88-.4-.88-.79s.31-.79.88-.79l3.34.02v-.92c-1.25.07-2.31.07-2.75.07-.62,0-.92-.44-.92-.88s.31-.84.9-.84h.07c.44.02.88.04,1.34.04,1.69,0,3.48-.2,5.41-.62.07-.02.15-.02.22-.02.53,0,.9.44.9.9,0,.66-.44.88-3.34,1.19l-.02,1.08,3.26-.02c.59,0,.9.4.9.79,0,.04-.02.11-.02.15.13-.09.31-.13.51-.13.57,0,1.19-.02,1.8-.02v-3.43c0-.66.51-.97,1.01-.97s1.06.33,1.06.97l-.02,3.43c.55,0,1.12.02,1.65.02,1.45.02,2.33.97,2.35,2.44,0,.64.02,1.3.02,1.96,0,4.22-.4,9.7-4.49,9.7-.59,0-1.23-.11-1.91-.33-.48-.18-.7-.57-.7-.99,0-.53.35-1.03.95-1.03.13,0,.26.02.42.07.44.13.81.22,1.17.22.95,0,2.53-.57,2.53-7.81,0-.53-.02-1.03-.02-1.52-.02-.62-.35-.81-.81-.84-.35,0-.75-.02-1.17-.02-.15,4.64-1.39,9.64-5.52,12.45-.24.18-.48.24-.73.24-.59,0-1.03-.48-1.03-1.01,0-.31.15-.62.51-.86.33-.22.66-.48.95-.73-2.46.68-7.39,1.41-8.01,1.41-.57,0-.88-.46-.88-.92,0-.42.24-.84.77-.86,1.19-.09,2.44-.2,3.65-.37l.02-1.32ZM149.93,41.29h-1.8c0,.15.02.29.02.4.07.66.26.68,1.78.68v-1.08ZM149.95,39.11c-1.65,0-1.76.04-1.8.79v.22h1.8v-1.01ZM151.76,45.99v1.08c1.01-.18,1.94-.37,2.75-.57.07-.02.13-.02.2-.02.37,0,.64.26.7.59,2.13-2.49,2.68-5.74,2.77-9.04-.62,0-1.25.02-1.8.02-.62,0-.92-.46-.92-.95,0-.09.02-.2.04-.29-.13.07-.31.11-.51.11h-3.26v.88c2.88,0,3.59.04,3.59,2.82,0,2.99-.44,3.06-3.59,3.06v.84l2.75-.07h.02c.53,0,.81.37.81.75s-.29.75-.84.75l-2.73.04ZM153.54,39.81c-.02-.7-.29-.7-1.8-.7v1.01h1.8v-.31ZM151.74,41.29v1.08c1.39,0,1.78-.02,1.8-.7,0-.13.02-.24.02-.37h-1.83Z"/>
    </g>
  </g>
</svg>