<?xml version="1.0" encoding="UTF-8"?>
<svg id="_レイヤー_2" data-name="レイヤー 2" xmlns="http://www.w3.org/2000/svg" viewBox="0 0 154.12 47.48">
  <defs>
    <style>
      .cls-1 {
        fill: #333;
      }
    </style>
  </defs>
  <g id="_編集箇所" data-name="編集箇所">
    <g>
      <path class="cls-1" d="M13.82,8.52c1.13-1.3,2.06-2.38,3.07-3.58-1.25-.1-2.3-.19-3.34-.26v-.29c.29-.02.55-.1.84-.1,3.36.02,6.72.07,10.08.1.48.02.91.07,1.2-.5.22-.43,1.94-.34,2.14.12.1.17-.12.65-.34.74-.26.17-.65.14-.98.14-2.5-.02-4.99-.05-7.49-.05h-1.68c.62.31,1.08.53,1.66.84-.55.7-1.06,1.32-1.63,2.09h5.11c-.02-.17-.02-.22-.02-.26-.05-.46-.84-.84-.26-1.3.55-.46,1.73-.12,2.18.46.65.82,1.3,1.63,1.97,2.45-1.1.67-1.8.62-2.59-.22-.43-.43-.84-.58-1.39-.53-1.39.1-2.78.12-4.18.24-.84.07-1.68-.12-2.54.34-.36.22-1.08-.24-1.8-.43ZM13.85,17.47c1.32-.55,1.44-1.75,1.51-2.95.07-1.2.05-2.4.05-3.58,0-.58.24-.82.82-.82,2.11-.05,4.22-.14,6.34-.14.72,0,1.46.14,2.18.31.22.05.5.41.5.62.1,1.97.12,3.94.12,5.9,0,.65-1.54,1.51-2.11,1.22-.14-.07-.22-.29-.24-.46-.1-.77-.14-1.51-.22-2.23-1.54,0-3.07-.02-4.61.02-.17,0-.38.36-.48.58-.6,1.34-1.51,2.21-3.07,2.28-.58.02-.86-.12-.79-.77ZM22.68,13.49c-1.56-.07-3.05-.14-4.58-.22l-.07,1.49h4.73l-.07-1.27ZM22.58,10.56h-4.51v2.14c1.56.12,3.07.22,4.66.34l-.14-2.47ZM20.09,3.41c-1.2,0-1.85-.5-1.85-1.34,0-.67.34-1.01,1.03-.98,1.15,0,1.94.7,1.9,1.73-.05.77-.7.53-1.08.6Z"/>
      <path class="cls-1" d="M38.4,13.01c1.2-1.32,1.58-2.52,1.87-3.84,0-.41.12-1.08.38-1.2.67-.14,1.34,0,1.99,0,.14,0,.26.53.26.67-.12,1.44-.65,2.9-1.46,4.1-.65.94-1.46,1.73-3.05,1.34,0,1.06,0,1.99.14,2.9,0,.55-.29.94-.94,1.08q-2.14.79-2.4-1.73c-.12-1.73-.26-3.46-.41-5.33,0-.38-.12-.79-.12-1.2-1.06,0-2.14.14-3.05.26-.14-.12-.14-.26-.14-.26.14-.26.26-.53.53-.65,2.26-1.73,3.72-3.86,4.25-6.65.14-.41.26-.67.67-.67h.53c1.87,0,2.26.26,1.73,2.14-.12.53-.26,1.06-.65,1.58-.67.94-.67,1.99-.55,3.07.26,1.32.26,2.78.41,4.37ZM46.63,6.24c.94.12,1.87.26,2.28-.67.12-.12.38-.26.53-.26.53,0,1.06-.12,1.58,0,.41,0,.94.41.94.53-.14.41-.41.94-.67,1.08-.65.12-1.58.26-2.38.26h-2.02c0,2.38-.26,8.38-.12,9.29,0,1.46-1.06,1.46-1.99,1.73-1.34.53-1.46.41-1.46-.91q0-2.02-.14-3.07v-6.91c-1.58-.26-3.19.53-4.92-.12,1.73-.94,3.34-.41,4.92-.94,0-1.2,0-2.52-.12-3.86,0-.65.12-.79.79-.79,2.66.26,2.52.26,2.66,2.66,0,.65.12,1.32.12,1.99ZM46.9,8.23c.82-.14,1.34-.26,2.02-.26.26,0,.53.12.65.38,1.08,1.73,2.26,3.6,3.86,4.92v.14c-1.46,1.2-2.4,1.2-3.46-.26-.94-1.2-1.73-2.52-2.52-3.86-.26-.26-.41-.65-.55-1.06Z"/>
      <path class="cls-1" d="M62.04,6.7c-.43,1.68-.84,2.93-2.52,3.77-1.25.84-2.5,1.25-4.18,1.25v-.41c.41,0,.84-.41,1.25-.84,1.68-.84,2.52-1.66,2.93-3.34.43-.43.84-.43,1.25-.43.43,0,.84-.41,1.27-.41.82-1.25,1.25-2.5,1.25-4.18h2.5c-.41.84-.41,1.25-.82,2.09h3.34c.41,0,.84-.41,1.25-.41h.41c.84-.84,1.68-.43,2.11-.43q.41,0,.41.43c.41,0,0,.41,0,.41-.41,0-.84.41-1.25.41h-5.86l-.41.43c-.84,1.25-1.68,1.66-2.93,1.66ZM55.75,6.7c.84-.41,1.68-.82,2.11-1.66.41-.43.82-.84.82-1.25q.43-1.27,1.68-1.27.84,0,.84.84c-.84,2.09-2.52,3.34-4.61,3.34h-.84ZM59.95,12.15c-.43,1.68-.43,3.34-.43,5.02,0,.84-.41,1.25-1.25,1.25q-1.68.41-1.68-1.25c.43-1.25.43-2.93.43-4.61,0-.41.41-.41.84-.41.82-.43,1.25,0,2.09,0ZM69.96,15.91c1.27.82,2.52.82,4.2,1.25-.43,0-.43.41-.84.41-1.68.43-3.36.43-4.61-.41h-1.66c-1.27,0-2.52.41-3.77.41,0,0-.43,0-.84-.41,1.25-.43,2.52-.43,3.77-1.25-.43-.43-.84-.84-.84-1.27l-.41-.41c.41,0,.41-.41.82-.41.43,0,1.27,0,1.68.41.41,0,.41-.41.84-.84h-2.52c-.41,0-.41.43-.41.43-1.25.82-3.34,1.66-4.61.82,0,0,.43,0,.43-.41,1.25-.41,2.09-.84,2.5-1.68.43-.41,1.68-.41,2.09-.41,0,.41.43.41.84.41h3.77c.84,0,.84.43.84.84l-1.27,2.52ZM68.71,6.29h3.36c.41,0,.82,0,.82.84v2.93c0,.41-.41.84-.82.84h-.84c-2.09.41-4.61.41-6.7.41-.41,0-.84,0-.84-.41v-4.2s.43-.41.84-.41c1.25,0,2.93,0,4.18-.41v.41ZM69.96,6.7h-2.9c-.43,0-.84.43-.84.43v1.25h3.74v-1.68ZM70.39,9.22h-4.18v1.25h2.09c.41,0,1.25,0,2.09-.41v-.84Z"/>
      <path class="cls-1" d="M80.74,9.6c-.12.12-.46.19-.96.19s-.84-.02-.98-.05-.26-.12-.34-.24c-.19-.31-.22-4.85-.07-5.62.07-.38.22-.58.38-.58.74,0,1.54.22,1.85.53.17.17.26.38.29.65.02.26.07,1.15.05,2.66s-.1,2.33-.22,2.45ZM81.86,2.26c.1-.89.38-.96,1.42-.67l.77.22s.07.5.14,1.46c.07.96.17,1.99.29,3.12s.14,2.35.12,3.72l-.05,2.11-.98,1.51c-1.25,1.92-1.37,2.06-2.64,2.3-.65.12-1.03.14-1.18.02-.14-.1-.22-.17-.19-.24s.17-.19.43-.41c.26-.22.46-.46.6-.74.17-.29.41-.91.74-1.85l.53-1.42V2.26ZM95.81,5.33c.38,0,1.03.12,1.15.22s.34.46.34.82v.74c0,.72-.07,1.25-.22,1.56s-.34.48-.6.48c-.5,0-.58.12-.6.79-.17,1.27-.38,1.99-.65,2.18-.19.17-1.39.29-2.35.22h-.5l.1-2.93c-.02-.17-.12-.26-.29-.26s-.24.22-.24.67l.17,7.51-.41.14c-.26.12-.58.19-.94.26l-.6.1-.12-2.57c-.07-1.7-.14-2.57-.17-2.59s-.38,0-1.08.14c-1.37.29-1.54.1-1.63-1.51l-.07-1.15-.55.1c-.7.17-.98-.14-1.32-1.37-.17-.6-.26-1.15-.26-1.63v-.36c0-.17.05-.29.14-.36.07-.02.12-.05.17-.05s.26-.05.65-.12c.38-.05,1.13-.12,2.26-.22,1.13-.1,2.18-.26,3.17-.48.98-.22,2.11-.34,3.41-.34h1.06ZM91.35,4.13c.19-.1.29-.26.29-.53s-.1-.38-.26-.41c-.17-.02-.72-.07-1.61-.07-2.3,0-3.5-.14-3.6-.43-.02-.05.07-.1.29-.14.22-.05,1.01-.07,2.4-.07h2.78V.96l-2.38.1c-4.22.17-3.86-.36.84-.6,2.35-.12,3.79-.07,4.32.14.36.1.17,3.6-.19,4.01-.17.19-1.18.31-2.98.38-1.8.07-3.12.14-3.96.24s-1.3.07-1.42-.07c-.12-.17-.07-.29.14-.36.22-.07,1.13-.17,2.69-.31,1.56-.14,2.45-.26,2.64-.36ZM88.13,9l.89-.1c.58-.07.86-.14.86-.17l-.05-1.06c-.1-1.08-.12-1.1-.89-.94s-.82.34-.82,1.37v.89ZM89.88,11.02c.05-.36.05-.72.02-1.08q-.02-.17-.05,0c-.02.12-.02.31-.02.53l.05.55ZM94.25,8.47l.29-2.42c-.02-.1-.14-.17-.41-.19-.5-.07-2.74.55-2.71.65.17.07.26.43.34,1.13l.1,1.06.5-.12c.36-.07.74-.1,1.2-.1h.7Z"/>
      <path class="cls-1" d="M99.94,10.18c.72-.24,1.32-.36,1.82-.89.84-.72,1.73-1.56,2.33-2.54.86-1.46,1.49-1.87,3.19-1.39.14,2.38-3.91,6.17-7.34,4.82ZM106.94.26c-.26,1.3-.74,2.57-1.75,2.93-.96.6-2.3.89-3.43,1.2-.38.14-.6-.24-.72-.24.12-.24.12-.36.22-.62.86-.96,1.75-1.85,2.57-2.64.26-.14.41-.29.62-.29.74-.26,1.46-.26,2.5-.34ZM105.19,10.92c0,2.66-.14,5.26-.24,7.73-.12.48-.6.96-1.13,1.08-.34.17-1.1.24-1.7.24v-2.66c0-1.75,0-3.31-.12-5.02-.14-.89.24-1.15,1.01-1.15.74-.22,1.44-.22,2.18-.22ZM115.99,16.3c.86.6,2.06,1.08,3.43,1.08.24,0,.62.29.98.67-1.46,1.08-2.95.84-4.42.6-.36-.12-.84-.12-1.25-.24-1.34-.74-2.57-.36-3.79,0-1.22.24-2.57.48-3.79.6-.22-.12-.22-.36-.22-.48.34,0,.6-.26.96-.26,1.22-.22,2.59-.6,3.79-1.7-.48-.48-1.08-1.1-1.49-1.7-1.34.48-2.59,1.08-4.01.22,1.82-.74,2.66-2.18,3.05-3.79.36-1.34,1.37-1.1,2.18-1.1.41,0,.62.62,1.01.96,0,.14,0,.26-.26.26,1.49,0,2.86-.12,4.3-.12,1.34,0,1.58.24,1.34,1.49-.48,1.08-1.22,2.3-1.82,3.53ZM113.04,7.94h4.42c-.12-.48-.38-.96-.6-1.56.6-.14,1.08-.36,1.7-.36.26-.12.74.1.86.36.24.24.24.6.36.96q.74,1.94-1.56,2.47c-.17-.36-.29-.65-.41-1.25-2.3.41-4.9.6-7.32.89-.77,0-1.51-.17-2.23-.17,0-.12-.12-.19-.12-.31,1.46-1.25,2.95-2.35,4.42-3.62v-.19c-1.46-.29-2.95-.41-4.42-.48,1.1-1.49,2.06-3,2.95-4.34.12-.22.34-.22.6-.22.86-.12,1.7-.12,2.71-.12-.26,1.85-1.97,2.57-2.98,4.08,1.22.07,2.23.46,2.71-.89.12-.26.74-.62,1.08-.62.77-.12,1.63,0,2.59,0-.96,2.59-2.78,3.82-4.78,5.38ZM111.1,14.23h2.42c.14-.65.48-1.34.74-2.09q-2.42,0-3.17,2.09Z"/>
      <path class="cls-1" d="M129.74,12.51c0,.1-.17.41-.6.86-.41.43-.77,1.03-1.06,1.8-.53,1.46-.65,1.37-1.66,1.03-.48-.14-.77-.36-.82-.53-.5-.96-.67-7.06-.43-8.9.14-.94.24-1.61.46-1.94.31-.72.46-.77.82-.67.65.22,1.2.48,1.68,1.01.43.43.58.55.5,1.68-.05.53-.12,1.49-.34,2.86-.22,1.37-.24,2.11-.07,2.11.02,0,.1,0,.26-.02.07-.02.31-.02.72.17.38.22.53.36.53.55ZM138,5.76c.38,0,.48-.1.48-.43,0-1.15.94-1.27,1.87-.72.5.26.82.48.89.62.05.17.1.36.1.55,0,.43-.07.6-.19.72-.07.05-.26.1-.55.17-.36.12-.96.12-1.75.1l-1.27-.17v2.83c0,.34.12.46.72.7.6.26,1.46.67,1.94.94.29.14.38.22.38.31,0,.14-.24.26-.65.29-.43.02-.89-.07-1.39-.22-.46-.19-.74-.26-.84-.26-.07,0-.17.58-.17,1.66,0,3.53-.79,4.42-2.9,3.77-1.06-.29-1.94-.77-2.54-1.44-.72-.77-.79-.84-.79-1.92,0-1.01.02-1.08.86-1.92.82-.84,1.63-1.32,2.42-1.51.53-.22.53-.17.36-.98-.07-.43-.1-.74-.1-1.03v-.48l-1.63.05c-1.46.07-2.38,0-2.74-.31-.19-.17-.07-.29.38-.46l1.01-.14c.86-.1,1.56-.24,2.04-.38l.72-.24v-1.22c.1-1.42.48-2.64,1.18-2.83.72-.17.89-.12,1.42.26.19.17.38.34.41.53.02.19.05.67,0,1.51l-.17,1.68h.5ZM134.88,15.29c1.01,0,.79-1.82.5-2.9l-.22-.72-.5.6c-.31.41-.48.91-.48,1.46,0,1.06.22,1.56.7,1.56Z"/>
      <path class="cls-1" d="M10.13,30.83c.86.12,1.73.12,2.38-.62.12-.12.48-.24.74-.24.5,0,.91.07,1.37.17.24.05.38.26.38.48v.38c0,.26-.19.48-.46.5l-3.79.34c-.26,0-.5.1-.74.24.12.12.12.24.12.24.86.14,1.73.14,2.74.26.38,0,.62.12,1.01.12.14,0,.36.14.36.14v1.85c-.12.26-.48.65-.74.65-.5.12-1.1,0-1.75-.12-1.61-.38-1.73-.26-1.61,1.61h5.88c.6,0,.98.36.86,1.13-.14.5-.14,1.01-.14,1.49.77-.12,1.51-.24,2.26-.24.26,0,.5.24.89.36-.24.26-.38.77-.77.91-.72.1-1.46.22-2.38.34q-.12,0-.12.14c-.36,1.87-.36,1.99-2.74,2.38-1.25.12-2.5.12-3.48.12-.38.86,0,1.99-.65,2.62-.48.62-1.85.62-3.12.62.5-.72.36-2.11.36-3.36-1.03-.05-4.01-.31-4.99-.31-.41,0-.05-1.1-.02-1.27,1.68-.14,3.65.38,5.02,0v-1.18c-2.09-.1-4.27-.14-6.5-.34-.26-.02-.48-.24-.48-.5.02-.31.05-.65.12-.65h7.01v-.89c-1.61,0-3.38.1-5.02-.12-.19-1.73,1.03-1.25,5.02-1.25v-1.37h-3c-1.37-.12-2.14-1.63-1.37-2.62.12-.26.6-.26.98-.26.86-.12,1.78,0,2.64,0h.6c.14-.65-.12-.65-.48-.74l-4.25-.38c-.26,0-.5-.12-.74-.24v-.26c.24-.12.48-.26.74-.26l3.74.38h.86v-1.25c0-.98.12-.98,1.03-.86h.34q1.63.38,1.9,1.87ZM6.98,33.45h-1.37v1.39c.5-.14,1.01-.14,1.37-.26v-1.13ZM10.13,34.22h.86c.14-.26.14-.38.14-.5,0-.14-.14-.26-.14-.38q-.98,0-.86.89ZM10.13,39.09h3c0-.12,0-.29-.14-.89h-2.86v.89ZM10.13,40.34v1.66h1.25c1.87,0,1.99.24,1.61-1.66h-2.86Z"/>
      <path class="cls-1" d="M23.95,45.55c0-.19.07-.26.24-.26s.29-.12.38-.41c.19-.55.29-3.05.07-4.56l-.1-.96-.43.46c-.67.65-2.35,1.75-3,1.75-.31,0-.62-.07-.91-.17-.29-.1-.43-.22-.43-.34,0-.05.05-.12.14-.24.1-.1.26-.22.53-.36.5-.29,2.11-1.99,2.52-2.71.46-.96.41-1.44-.14-1.46-.65-.02-1.78-.38-1.78-.58.02-.12.96-.31,2.86-.62,1.9-.31,2.83-.5,2.83-.53s-.1-.07-.29-.1c-1.34-.26-2.02-.89-2.02-1.87,0-.12.07-.19.19-.22.12-.02.41,0,.84.02.86.12.96.1,1.22-.34.26-.41.65-1.63.55-1.75-.05-.07-.38-.05-.98.05-1.22.22-1.49.14-2.26-.14-1.75-.7-1.94-.84,1.2-1.06,1.56-.1,2.52-.12,2.86-.1.67.07,1.9.6,2.09,1.13.26.5.19,1.49-.58,2.4-.38.43-.72.67-1.01.67-.58,0-.86.29-.86.86v.5l1.37.12c1.9.1,2.18.41,2.18,1.51s.02,1.18-.62,1.92c-.65.7-.82.79-2.18.58-.7-.1-1.01-.1-.94,0,.12.22.17,6.86.1,7.61-.07.77-.36,1.03-1.44,1.1-1.08.07-1.32-.17-1.63-.6-.17-.24-.29-.48-.41-.7-.12-.24-.17-.46-.17-.62ZM28.1,35.85c0-.12-.1-.26-.26-.26h-.34c-.31.02-.48.05-.5.07-.02.05.05.12.17.19.19.19.29.53.26,1.01v.82l.34-.46c.22-.29.34-.62.34-1.01v-.36ZM32.02,39.74l-1.18.65c-.31-.07-.48-.19-.5-.31-.05-.24.46-.34,1.54-.34h.14ZM33.26,39.74v-.65c.46-.24.96-.53,1.49-.79.17,0,.31.07.48.24.17.19.41.26.72.26s.5.07.58.22c.07.12.41.19,1.06.19,1.27,0,2.71.29,3.17.84.46.55.55,2.38.48,2.81-.07.41-.82,1.66-1.56,2.09-.74.43-2.59.62-2.86.34-.12-.12.02-.41.43-.86.5-.58.77-1.44.96-3.19l.12-1.15-1.61.1-.6,1.92c-.55,1.78-.86,2.54-1.34,3.05-.48.48-1.58,1.3-2.86,1.3-.65,0-.96-.1-.96-.24,0-.05.05-.17.14-.29.1-.12.17-.31.22-.53.02-.22.19-.36.48-.43.58-.12,1.37-1.9,1.44-3.22l.07-1.03-1.18-.12c-.55-.07-.96-.12-1.27-.19l1.2-.65h1.2ZM36.43,31.07c.77,0,1.27,0,1.49-.02.46-.02.6-.1.72-.43.12-.34.24-.5.82-.41.58.07,1.56.36,1.63.72.07.36-.36.7-1.01.91-.31.1-.67.14-1.06.17s-.58.05-.58.12c.26.1.62.48.84.89.12.22.17.41.14.55.02.31-.19.79-.65,1.51-.46.7-.67,1.06-.67,1.13,0,.14,1.97,1.01,2.38,1.1.22.02.36.07.46.14.1.07.14.12.12.19-.05.17-.34.24-.89.17-.55-.07-1.08-.24-1.63-.46-.55-.24-.91-.41-1.08-.43s-.34,0-.46.12l-3.74,2.02v-.12c0-.74-.02-.84-.48-.96-1.13-.24-.41-.53.43-.94.41-.22.82-.55,1.2-.98l.55-.67-.53-.62c-.34-.46-.5-.7-.5-.79,0-.12-.22-.5-.31-.5-.05,0-.14.05-.26.14-.12.12-.26.17-.38.17-.26,0-1.68-.34-1.87-.67-.1-.19.07-.62.48-1.39.41-.74.72-1.63.94-2.66.05-.29.12-.43.22-.46.19-.1,1.39.34,1.78.86.19.29.29.7.26,1.2.02.22.1.34.26.36s.62.05,1.39.05ZM32.06,39.71c.36-.24.77-.43,1.2-.65l-1.2.65ZM35.91,32.01c-.41,0-.72,0-.89.02-.36.02-.48.1-.79.53s-.29.6.48.77c.38.1.65.22.77.34.26.29.31.29.58-.19.14-.24.24-.53.31-.84.07-.31.22-.48.46-.5q.07-.05-.02-.07c-.17-.02-.48-.05-.89-.05Z"/>
      <path class="cls-1" d="M53.81,32.85c-3.07,0-6.14,0-8.76-.43,0,0-.46,0-.46-.43h6.14c.46,0,.89,0,1.32-.43h1.75c0-.89.46-.89.89-.89,1.97.65,7.46.17,7.46,1.75,0,1.68-1.87,2.52-.89,3.5,1.94,2.93.36,5.71-3.07,5.71.77-1.54.5-3.36-.43-5.26,1.08-1.85,1.56-2.83,1.32-4.39-.89,0-1.75-.43-2.64-.43v.86c0,3.5.43,7.03.43,10.97v2.64c.12,1.78-2.62,2.16-2.62-.89v-6.14c-3.53-.43-7.03,0-10.1,0v-1.03c.43,0,1.32.17,1.75.17h.43q3.07,0,3.96-2.64c0-.43.43-1.32.43-1.32,1.73,0,2.21.26,2.21.89-.46.86-.89,2.18-.89,3.07.43-.43,1.32.02,1.75-.43v-4.85ZM44.59,45.59v-3.96c0-.43,0-.86.89-.86h6.14c1.32,0,1.78.79,1.32,2.62q-.46,2.21-3.07,2.64c-2.14.36-5.28,1.25-5.28-.43ZM48.12,36.81c-2.23,0-3.07-.14-3.07-2.18,1.3-.7,3.07.77,3.07,2.18ZM50.3,45.14v-1.75c0-2.62,0-2.18-1.75-2.18h-1.32v4.39c.89,0,2.18-.17,3.07-.46ZM50.74,31.1c-.91.6-4.15.55-3.07-1.75,2.02,0,3.07.58,3.07,1.75Z"/>
      <path class="cls-1" d="M65.3,29.78c.17-.02.24-.07.29-.05,1.85.65,3.74.26,5.62.36.86.02,1.73.14,2.54.38.31.07.74.53.74.84.05,1.94.02,3.91-.02,5.86,0,.17-.34.46-.55.48-1.54.24-3.07.43-4.61.65-.17.02-.34.02-.6.05.07,1.61.17,3.14.24,4.68.02.82.14,1.63.07,2.42-.02.36-.34.82-.62.96-.46.22-1.03.24-1.56.26-.55.02-1.03-.07-1.06-.84-.07-1.82-.22-3.65-.29-5.47-.1-3.24-.17-6.48-.24-9.72,0-.26.02-.55.05-.86ZM68.66,37.79c.89-.17,1.66-.31,2.42-.48.14-.05.31-.26.31-.41.02-.89.02-1.75.02-2.69-1.06.14-1.97.26-3,.38.07,1.06.14,2.06.24,3.19ZM68.54,30.91v2.95l2.9-.34c-.07-.96-.12-1.85-.19-2.78-.96.07-1.8.12-2.71.17ZM81.84,46.6c.22-.77.58-1.44.58-2.14.07-2.23.05-4.46.05-6.91-1.08.1-1.85.19-2.64.24-.89.07-1.8.22-2.69.12-.38-.02-.98-.53-1.01-.86-.19-2.28-.26-4.58-.38-7.01,1.08.07,1.92.14,2.78.19l4.73.22c.72.02,1.18.38,1.25,1.03.41,3.34,1.51,6.6,1.22,9.98-.1,1.22-.36,2.47-.74,3.65-.41,1.27-1.92,1.87-3.14,1.49ZM77.95,34.24l.14,2.71c1.39-.12,2.66-.24,4.06-.38-.12-.82-.19-1.58-.29-2.33h-3.91ZM81.75,33.57c-.1-.82-.12-1.54-.24-2.23-.02-.19-.29-.46-.43-.46-1.06-.02-2.11-.02-3.1-.02v2.71h3.77Z"/>
      <path class="cls-1" d="M90.05,38.95c0-1.78.6-5.4,1.01-6.12.14-.26.6.07,1.18.46l.89.53c.6.34.62.38.5,1.49-.05.53-.22,1.3-.43,2.33s-.36,2.06-.43,3.12l-.14,1.7.86.38c.58.22.89.41.91.58-.02.12-.34.26-.84.48-.53.24-.86.36-.91.46-.07.12-.26.1-.53-.07-.58-.36-1.22-1.08-1.56-1.68-.26-.6-.34-1.01-.43-1.75-.05-.36-.07-.98-.07-1.9ZM97.2,42.11c0-.31.05-.5.17-.53.17-.02.5-.07,1.03-.07,1.1,0,3.5.43,4.99.77.65.1,1.06,1.73.53,2.02-1.08.6-3.55.46-5.52-.29-.31-.12-.58-.38-.84-.79-.24-.41-.36-.79-.36-1.1ZM102.87,34.1c.46,0,.79.07.96.1.17,0,.31.1.43.22l.5.5c.91,1.01.48,2.11-.43,2.45-.89.34-1.78-.55-1.87-.82-.1-.26.29-1.03.38-1.2,0-.07-2.62-.55-3.38-.55-.72,0-1.73-.72-1.51-1.06.1-.14.43-.24,1.03-.22.58.02,1.25.1,2.02.31.77.19,1.42.26,1.87.26Z"/>
      <path class="cls-1" d="M113.52,45.59c.41,0,1.9-.7,2.54-1.8l.46-.84h.91c1.13.07,2.09.55,2.06,1.06,0,1.15-1.51,2.18-3.07,2.33-.77.1-1.49.07-2.18-.07-.72-.12-1.06-.26-1.03-.41-.02-.17.1-.26.31-.26ZM117.17,38.03v-1.97l1.15.12c.84.1,1.39.19,1.61.31.19.14.29.38.31.82v.72h2.66l.1-1.7.91-.12c1.13-.12,1.87.29,1.9.84-.02.29.05.43.14.46.1.02.48.05,1.15.05.62,0,1.03.05,1.18.07.22.07.41.91-.1,1.13-.22.14-.67.17-1.3.14l-1.06-.07-.1,1.82h-2.74v-1.9h-2.83l.26,2.45c.19.07,5.74.29,6.58.22.38-.02.7-.1.82-.26.29-.36,2.11-.24,2.33-.17.22.07.1.62-.1.84-.12.1-.38.17-.84.19-.43.07-1.1.12-1.97.12-1.73,0-6.14-.07-9.94-.31-1.92-.14-3.02-.31-3.31-.5-.29-.17-.19-.31.31-.36.48-.05,1.18-.05,1.99.1l.86.17v-1.32c0-.65-.02-1.01-.07-1.15-.02-.12-.19-.17-.41-.17-.26,0-.5-.07-.79-.17-.29-.1-.29-.22-.02-.31l.58-.07h.72ZM126.58,29.54c.65.07,1.03.12,1.18.19.22.14.38,5.54.14,5.95-.24.38-12.15.26-12.53-.12-.24-.31-.12-5.02-.05-5.76.07-.36.17-.58.31-.7.96-.72,9.62.26,10.95.43ZM120.7,31.51c-.1-.65-.12-1.13-.1-1.42-.02-.29-.07-.43-.14-.46-.07-.02-.36-.05-.84-.05h-.96l-.24,1.85c-.05.29.02.72.05.79s.29.26.53.24h1.82l-.12-.96ZM120.77,32.99h-1.06c-1.44,0-1.3-.12-1.3,1.2v.96h.62c.38,0,.77.02,1.18.1l.55.12v-2.38ZM125.14,32.63l-.07-1.25c-.12-1.68.05-1.37-1.42-1.49l-1.13-.12.12,1.27c.17,1.7.19,1.58,1.54,1.58h.96ZM122.71,33.19l.14,2.04,1.06-.05c1.34,0,1.37.02,1.37-.91s-.48-1.08-1.63-1.08h-.94ZM123.67,43.65c0-.14.29-.24.84-.29,1.1-.05,1.92-.14,3.36,1.34,1.42,1.46,1.32,2.06-.43,2.28-.86.1-.96.12-1.8-.72-.84-.82-1.97-2.3-1.97-2.62Z"/>
      <path class="cls-1" d="M134.88,44.95c.53-.17,1.13-.22,1.7-.38.19-.02.43-.02.67-.07q1.46-.34,1.3-2.16h-3.26v-.31c1.06-.53,2.16-.38,3.31-.53v-1.22c-.89.05-1.68.14-2.42.14-.96.05-1.15-.14-1.15-1.25.12-1.3.12-2.57.14-3.91,0-.65.41-.65.84-.7.82-.05,1.68-.14,2.59-.22v-1.56c-1.34,0-2.59.46-3.77,0v-.43c1.1-.14,2.26-.26,3.5-.38v-1.08c-.62-.1-1.25-.17-1.82-.24,0-.14-.05-.26-.05-.36,1.15-.24,2.33-.29,3.43-.74,1.15-.5,2.21-.62,3.65-.46-.77,1.13-1.82,1.13-2.62,1.44,0,.26-.05.58,0,.7.07.34.14.6.31.67s.38-.22.53-.31c.38-.36,2.47-.67,2.88-.36.12.14.26.41.19.53-.07.26-.22.6-.55.65-.67.17-1.46.26-2.18.38h-1.06c0,.48.02.86.02,1.49.77,0,1.49,0,2.26-.12.67,0,1.13.36,1.13,1.1v3.22c0,.7-.46,1.1-1.1,1.25-.74.02-1.37.22-2.11.24v1.34c.7.05,1.32.1,2.09.19v.34c-.72.19-1.34.36-2.09.5-.1.48-.1.91-.17,1.51h2.47c-.94.89-7.68,1.8-8.62,1.37,0-.14,0-.19-.05-.26ZM138.55,35.25c-.34,0-.6.07-.86.07,0,.53,0,.96.02,1.46.31,0,.55-.05.84-.14v-1.39ZM138.55,37.58c-.34,0-.6.07-.84.07v1.87c.89.22,1.03-.05.84-1.94ZM141.98,36.64c.12-1.51,0-1.78-.84-1.58v1.58h.84ZM141.24,39.11c.24-.07.6-.22.7-.29.05-.41,0-.84,0-1.34-.31,0-.53.05-.7.05v1.58ZM146.98,35.71c-.72-.05-1.49-.19-2.14-.22v-.36c.5-.07.96-.19,1.42-.19.48-.07.84-.26.84-.96-.05-1.42-.05-2.81-.05-4.18-.07-.65.12-.84.72-.77.77.17,1.54.24,2.26.46.12.05.48.5.38.72-.1,1.42-.34,2.9-.5,4.51.96,0,1.7.1,2.47,0,.84,0,1.37.34,1.46,1.25.53,3.19.34,6.29-.89,9.22-.38.72-.91,1.08-1.7,1.08-.55,0-1.18.05-1.94.1,1.39-2.88,1.25-5.78,1.46-8.71,0-.53-.1-1.06-.22-1.54,0-.17-.19-.26-.26-.46-.19.19-.26.29-.31.46-.36,1.87-.74,3.84-1.18,5.71-.19.84-.6,1.75-1.06,2.5-.62,1.06-2.21,1.3-3.12.7,1.18-2.95,1.75-6.12,2.35-9.31Z"/>
    </g>
  </g>
</svg>