<?xml version="1.0" encoding="UTF-8"?>
<svg id="_レイヤー_2" data-name="レイヤー 2" xmlns="http://www.w3.org/2000/svg" viewBox="0 0 259.29 203.41">
  <defs>
    <style>
      .cls-1 {
        fill: #fff;
      }

      .cls-2 {
        fill: #646464;
      }
    </style>
  </defs>
  <g id="_編集箇所" data-name="編集箇所">
    <g>
      <path class="cls-1" d="M81.66,11.69s49.52-26.48,108.79.27,79.3,67.45,63.82,97.21c0,0,3.41,56.02-24.78,74.82-28.19,18.79-54.2,22.41-79.5,17.35-25.3-5.06-42.06-15.93-76.84-18.79-34.78-2.86-46.47,1.19-46.47,1.19,0,0,14.6-18.3-9.85-32.27-24.45-13.97-9.24-56.81,4.57-56.81,0,0-29.72-87.42,60.26-82.96Z"/>
      <g>
        <path d="M60.4,49.61c-.13.67-.29,1.61-.48,2.8l-.48,2.48c-.09.04-1.2-.47-1.34-.63-.08-.08-.12-.28-.15-.58-.04-.62,1-5.55,1.25-5.72.92-.24,4.4.37,4.71.72.26.17.39.33.38.47,0,.1-.1.12-.3.04-.39-.15-3.27-.62-3.38-.55-.02-.02-.1.3-.22.97Z"/>
        <path d="M74.66,52.22l.85.1c.67.03.93.2,1.66.73,1.69,1.29,1.15,2.77-1.31,3.55-.93.3-1.27.21-1.62-.13-.37-.35-.35-.36.23-.71.53-.37,1.22-1.61,1.13-2.08-.06-.49-.08-.49-.69-.53-.59-.01-.61-.02-.72.54-.06.29-.11.45-.13.49-.03.07-.11.06-.24,0-.12-.08-.22-.1-.29-.12-.1-.02-.2-.1-.27-.25-.08-.19-.22-.28-.32-.28-.27-.01-2.04.32-2.06.4-.11.04.79,5.71,1.03,6.73.11.56.19.85.18.92-.02.11-.12.2-.28.32-.36.21-1.11-.01-1.35-.68-.14-.3-.4-1.42-.78-3.36s-.63-2.99-.76-3.17c-.05-.07-.3.12-.82.48-.5.36-.86.57-.96.59-.24.09-.84-.38-.82-.49.01-.06.12-.21.35-.39.46-.43,1.08-.88,1.48-1.1l.51-.28-.36-1.43c-.26-.94-.35-1.57-.32-1.82.06-.52.06-.54.49-.4,1.14.36,1.65.67,1.59,1-.03.15.07.69.23,1.17.15.46.33.85.56.9.23.04,1.94-.42,1.97-.59,0-.1-.03-.56-.1-1.42-.11-1.72-.15-1.47.85-1.24.47.11.83.24,1.04.38.21.14.33.24.37.35,0,.1-.03.37-.12.85l-.19.99Z"/>
        <path d="M92.53,60.94c-.08.42-.13.67-.2.81-.07.15-.17.26-.31.36-.28.24-1.42,1.11-2.63,1.44-.6.16-1.07.23-1.46.16-.36-.07-.72-.28-1.07-.62l-.53-.54.78-.03c1.07-.09,1.77.16,2.51-1.32.42-.83.04-1.77-.04-2.46-.02-.18-.07-.37-.18-.39-.1-.02-.42-.08-.95-.12-.53-.04-1.19.01-2,.09-.79.09-1.33.12-1.62.07-.59-.11-1.25-.79-1.3-.98-.04-.19.61-.62.92-.36.15.13.48.17,1,.07,1.03-.2,2.88-.28,4.17.14,1.3.43,2.48,1.7,2.79,2.49.14.38.19.77.11,1.19Z"/>
        <path d="M101.34,64.15c-.01.08-.23.29-.63.59-.39.3-.75.71-1.1,1.27-.66,1.08-.74.97-1.47.57-.35-.23-.58-.41-.57-.56-.26-.82.52-5.64,1-7.07.23-.71.43-1.22.65-1.46.35-.51.48-.52.73-.39.49.25.88.58,1.21,1.04.26.41.37.53.13,1.39-.1.42-.32,1.17-.7,2.2-.36,1.04-.49,1.63-.38,1.67.04,0,.08,0,.24,0,.04-.01.27.03.53.24.27.25.38.37.36.5ZM108.9,60.11c.29.05.37.01.42-.26.17-.9.94-.87,1.62-.3.34.3.55.52.57.64.06.11.04.29.02.44-.06.32-.13.47-.26.54-.05.03-.22.04-.46.05-.3.02-.78-.07-1.41-.21l-.99-.31-.42,2.22c-.05.27.03.38.47.66.46.29,1.05.73,1.43,1.02.21.16.27.25.25.33-.02.1-.23.15-.58.11-.35-.05-.7-.17-1.06-.38-.34-.2-.55-.32-.63-.34-.06-.01-.24.43-.4,1.27-.53,2.77-1.28,3.38-2.86,2.56-.79-.41-1.41-.9-1.82-1.54-.46-.72-.46-.8-.3-1.64.15-.78.18-.82.93-1.37.8-.54,1.52-.8,2.18-.83.45-.07.45-.05.45-.71-.01-.36.04-.61.08-.84l.07-.36-1.34-.22c-1.16-.16-1.85-.37-2.11-.66-.12-.18,0-.26.39-.3l.8.04c.7.06,1.28.05,1.66,0l.63-.08.19-.97c.27-1.1.78-1.99,1.34-2.04.6-.02.74.06,1.09.43.13.16.28.31.26.49-.03.13-.06.52-.23,1.18l-.37,1.3.38.07ZM105,67.15c.76.15.89-1.33.8-2.2l-.06-.63-.48.42c-.33.25-.51.61-.6,1.05-.16.82-.07,1.27.34,1.35ZM110.86,59c-.32-.06-.7-.47-.8-.67-.07-.07-.09-.17-.1-.32-.02-.3.06-.6.25-.88.42-.53,1.1-.68,1.36-.61.28.09.93.73,1.04,1.19.09.45,0,.93-.29,1.21-.33.29-1.12.46-1.21.22-.03-.06-.12-.12-.25-.15ZM110.73,58.54c.14-.01.26-.03.44-.02.31.04.65-.19.78-.45.13-.27.07-.8-.08-.91-.09-.04-.23-.02-.42.02-.4.1-.72.44-.83.93l-.12.43h.24Z"/>
        <path d="M116.05,61.08c.25-1.3.41-2.02.5-2.18.09-.14.25-.17.55-.07,1.81.68,1.63.59,1.33,2.23-.13.81-.2,1.47-.22,1.98l-.02.73.44-.35c.45-.39.65-.41,1.21-.24.32.08.42.2.42.3-.05.25-1.27,1.28-1.95,1.59-.37.15-.63.39-.85.71-.38.66-.53.69-1.04.26-.54-.36-.65-.54-.71-1.03-.01-.24-.04-.64-.03-1.17,0-.51.11-1.42.37-2.74ZM116.24,70.72c.08-.4.07-.38.46-.13.2.12.34.2.45.22.11.02.26-.03.46-.11,1.12-.38,3.36-3.08,3.89-4.38.5-1.29.9-3.79.89-5.29-.02-.74.04-1.22.09-1.41.11-.16.17-.25.28-.22.11.02.28.09.52.3.22.18.47.35.7.47.25.13.41.24.49.25.07.03.16.11.19.14l.2.2c.07.05.09.14.1.32l-.1,1.55c-.14,1.95-1.56,7.62-4.25,8.88-1.12.79-2.97.5-4.09-.27-.23-.14-.31-.34-.28-.51Z"/>
        <path d="M139.87,66.31l-2.27-.34c-1.14-.16-1.78-.22-1.95-.14-.17.07-.31.38-.4.85l-.19,1.23c0,.1,0,.16.03.16l.13.03c.2-.02.47.01.84.08.36.07.57.03.61-.1.06-.32.98-.68,1.38-.61.38.07.82.57,1.12,1.1.13.24.19.45.16.62-.1.53-.78.66-2.07.38-.65-.14-1.24-.24-1.81-.29l-.74.02-.23,1.7c-.13,1.1-.2,1.74-.19,2.02.02.52.55.96.94,1.17.2.12.49.21.91.31,1.25.28,2.02.29,2.47.04.2-.12.31-.16.36-.13.15.05,1.01.81.73,1.37s-1.07.51-1.98.33c-.9-.17-1.86-.43-2.73-.76-.89-.33-1.31-.51-2.22-1.65-.91-1.12-1.27-1.96-1.06-3.49l.16-1.16-1.57-.36c-1.33-.31-1.64-.41-2.07-.87-.21-.24-.3-.38-.22-.42.07-.05.68.05,1.88.3,2.38.49,2,.64,2.57-1.01.6-1.67.59-1.45-.47-1.79-.5-.18-.84-.28-1.03-.32-.31-.14-.44-.26-.88-.78-.19-.23-.3-.39-.25-.44.04-.01.63.12,1.75.45,1.15.32,2.39.56,3.84.73,1.43.16,2.14.17,2.18,0,.03-.15.16-.31.37-.46.88-.66,2.08,1.25,1.97,1.8l-.08.4Z"/>
        <path d="M155.58,70.39c-2.48,5.4-5.32,6.92-10.42,5.55.04-.23.07-.34.2-.32,3.63-.67,5.24-1.2,7.51-5.33.09-.48.37-.92.44-1.28.18-.94.04-1.34,1.09-1.14h.04s.08.02.11.03c.96.06,1.67.28,1.03,2.49Z"/>
        <path d="M161.97,73.47c-.15-.03-.82-.91-.74-1.33.08-.44,2.08-3.3,2.59-3.82.27-.27.37-.5.35-.7-.02-.2.03-.25.15-.19.19.14.53.56.97,1.25l.49.77c.17.25.33.74.34.8,0,.08-.12.33-.29.46l-.39.3-.83.53.26.29c.12.12.17.35.13.68-.05.35-.22,1.34-.52,3.05l-.65,3.42-.61-.04c-.47-.03-1.05-.22-1.3-.56-.14-.19-.2-.31-.17-.47.03-.13.18-.92.48-2.38.3-1.45.4-2.2.33-2.25-.02-.02-.1,0-.26.09-.16.09-.26.13-.34.11ZM171.94,75.75c-.06.32-.16.64-.28.94l-.16.44,1.71.17c.34,0,.54-.05.75-.19l.36-.25.54.5c.6.57.56.82.05,1.1-.27.15-.49.18-.66.15-.17-.01-.59-.11-1.24-.34-.65-.22-1.06-.34-1.25-.38-.19-.04-.31-.02-.39.08-.19.24-.42,1.15-.66,2.74-.12,1.06-.39,1.29-1.19,1.24s-1.02-.16-1.08-.68c0-.26.31-1.92.9-4.99l.87-4.56-.65-.12c-.42-.08-.66-.05-.75.11-.09.14-.33.37-.73.71l-.62.53-.51-.45c-.27-.25-.45-.52-.43-.74.04-.11.25-.49.68-1.16.42-.67.83-1.44,1.25-2.37.31-.69.62-.67,1.28.05.65.72.67.84.25,1.69-.42.83-.6.64.81.71.71.04,1.31.09,1.81.17.5.08.83.1,1.01.11.34-.01.5-.04.7-.26.1-.1.22-.14.39-.08.3.08,1.17.74,1.37,1.23.11.26.1.43-.02.51-.14.09-.7.04-1.73-.15l-1.57-.3-.59,2.68.84.08c.55.04.89,0,1.12-.16.2-.14.34-.23.42-.22.08.01.28.09.62.26.33.16.52.3.6.37.13.12.13.64-.1.75-.15.07-.79-.01-1.89-.14l-1.72-.21-.08.44Z"/>
        <path d="M180.22,73.36c.25-1.3.41-2.02.5-2.18.09-.14.25-.17.55-.07,1.81.68,1.63.59,1.33,2.23-.13.81-.2,1.47-.22,1.98l-.02.73.44-.35c.45-.39.65-.41,1.21-.24.32.08.42.2.42.3-.05.25-1.27,1.28-1.95,1.59-.37.15-.63.39-.85.71-.38.66-.53.69-1.04.26-.54-.36-.65-.54-.71-1.03-.01-.24-.04-.64-.03-1.17,0-.51.11-1.42.37-2.74ZM180.42,83c.08-.4.07-.38.46-.13.2.12.34.2.45.22.11.02.26-.03.46-.11,1.12-.38,3.36-3.08,3.89-4.38.5-1.29.9-3.79.89-5.29-.02-.74.04-1.22.09-1.41.11-.16.17-.25.28-.22s.28.09.52.3c.22.18.47.35.7.47.25.13.41.24.49.25.07.03.16.11.19.14l.2.2c.07.05.09.14.1.32l-.1,1.54c-.14,1.95-1.56,7.62-4.25,8.88-1.12.79-2.97.5-4.09-.27-.23-.14-.31-.34-.28-.51Z"/>
        <path d="M203.01,76.77l.85.1c.67.03.93.2,1.66.73,1.69,1.29,1.15,2.77-1.31,3.55-.93.3-1.27.21-1.62-.13-.37-.35-.35-.36.24-.71.53-.37,1.22-1.61,1.13-2.08-.06-.49-.08-.49-.69-.53-.59-.01-.61-.02-.72.54-.05.29-.11.45-.13.49-.03.07-.11.06-.24,0-.12-.08-.22-.1-.29-.12-.1-.02-.2-.1-.27-.25-.08-.19-.22-.28-.32-.28-.27-.01-2.04.32-2.06.4-.11.04.79,5.71,1.03,6.73.11.56.19.85.18.93-.02.11-.12.2-.28.32-.36.21-1.11-.01-1.36-.67-.14-.3-.4-1.42-.78-3.36s-.63-2.99-.76-3.17c-.05-.07-.3.12-.82.48-.5.36-.86.57-.96.59-.24.09-.84-.38-.82-.49.01-.06.12-.21.35-.39.46-.43,1.08-.88,1.48-1.1l.51-.28-.36-1.43c-.26-.94-.35-1.57-.32-1.82.06-.52.06-.54.49-.4,1.14.36,1.65.67,1.59,1-.03.15.07.69.23,1.17.15.46.33.85.56.9.23.04,1.94-.42,1.97-.59,0-.1-.03-.56-.1-1.43-.11-1.72-.15-1.47.85-1.24.47.11.83.24,1.04.38.21.14.33.24.37.35,0,.1-.03.37-.12.85l-.19.99Z"/>
        <path d="M47.88,93.46c.12-.12.27-.15.4-.12.25.05,1.3-.78,1.94-1.65.66-.84,1.5-2.9,1.35-3.15-.05-.05-.67-.21-1.84-.51-1.7-.44-2.54-.8-2.58-1.19.11-.04.74.04,1.91.25,1.19.21,2.7.5,4.53.87l2.89.59c.78-.58,1.24-.87,1.39-.84.31.06,1.19,1.02,1.14,1.27-.04.23-.3.62-.85.53l-4.62-.77.28.49c.84,1.53-1.31,3.67-2.13,4.2-.84.57-2.65.94-3.37.98-.34.03-.61-.1-.81-.31-.36-.39-.35-.56,0-.5.11.02.24-.01.38-.14ZM54.92,84.49l.35-.29c.98-.88,1.87,1.07,1.29,1.24-.31.08-.95,0-1.98-.2-2.56-.49-4.03-.97-4.41-1.36-.2-.22-.3-.37-.29-.43.28,0,1.95.33,5.04,1.04ZM58.06,85.13c.06-.52.19-.66.52-.67.04-.01.18.11.36.37.39.57.29,1.28-.03,1.62q-.32.33-.65-.14c-.29-.45-.32-.62-.21-1.17ZM60.7,84.17c.07.03.67.62.64,1.33,0,.35-.18.62-.46.86l-.4.36-.34-.5c-.32-.48-.4-.47-.1-1.33.16-.41.26-.64.37-.68.15-.05.23-.07.31-.04Z"/>
        <path d="M63.88,89.41c.04-.23.32-1.38.49-2.04.19-.68.28-.94.86-.57.58.39.97,1.15,1.01,1.44.03.16,0,.4-.08.76l-.15.8c.48.07,1.17.22,2.05.45.19-1.07.34-1.79.41-2.12.19-.68.21-.67.95-.11.82.69,1.11,1.14.81,2l.57-.09c.28-.03.46-.03.54-.02.1.02.23.12.42.3.8.79.44,1.19-.83,1.11-1.27-.1-.9-.39-1.54,1.09-.62,1.48-2.29,4.31-2.75,4.74-.24.21-.4.42-.48.64-.1.22-.18.32-.24.31-.23-.04-.7-.37-.67-.52.25-.57.76-1.7,1-2.22.13-.25.3-.64.47-1.14.19-.48.35-.92.5-1.27.13-.35.26-.76.44-1.18.36-.84.32-.97-.51-1.07l-.25-.05c-1.33-.2-1.13-.28-1.59.88-.23.59-.37,1-.42,1.27-.1.5-.16.6-.53.18-.41-.43-.59-.83-.53-1.17.05-.17.03-.39-.02-.7-.08-.31-.08-.51-.08-.63.03-.15-.06-.29-.25-.36-.18-.09-.59-.21-1.24-.36-.65-.12-1.04-.28-1.17-.48-.23-.26-.2-.41.07-.38l2.73.52ZM71.65,89.14c.01-.08-.06-.21-.18-.41-.28-.41-.14-1.14.13-1.5.13-.17.25-.25.32-.24.15.03.5.37.54.72.03.34-.07,1.49-.14,1.89-.04.19-.06.32-.09.34-.06-.01-.17-.13-.35-.36s-.25-.36-.23-.44ZM73.65,86.97c.19.04.61.53.59.83,0,.3-.41,2.14-.59,2.34-.08.1-.15.15-.2.12-.1,0-.43-.32-.48-.47-.04-.09-.07-.17-.09-.27,0-.08-.06-.23-.13-.36-.29-.47.09-1.59.45-1.95.19-.18.35-.25.44-.23Z"/>
        <path d="M85.72,94.18c.64.26.28.39.94.66-.18-.01.09.14,0,.67l-1.05,5.48c-.05.25-.41.59-.66.55-1-.07-.97-.09-1.37-.16-.15-.03-.21-.57-.18-.71l1.12-5.86c-1.93,1.09-3.75.87-5.81-.44.62-.16,1.18-.17,1.52-.38,2.14-.52,2.92-.79,4.11-1.63,1.44-.93,2.08-2.31,3.13-3.34.22-.2.51-.28.78-.23.93.43.78.68,1.84,1.12-1.24,2.14-2.58,2.91-4.36,4.27Z"/>
        <path d="M106.5,97.8c-.35.39-.81.93-1.5,1.53-.35.29-.76.67-1.29,1.14-1,.9-2.71,1.74-5.94,2.41-1.05.21-1.71.07-3.09-1.01-.84-.68-1.24-1.09-1.08-1.29,0-.02.01-.06.03-.07.02-.02.39.02,1.08.05,1.42.03,3.68-.31,4.57-.49.87-.19,1.81-.58,3.76-1.46.95-.43,1.81-1,2.55-1.73.39-.36.37-.37.85-.01.24.2.36.39.33.56,0,.06-.1.2-.27.38ZM98.54,95.57c-.32-.06-1.02-.77-2.19-2.02-.17-.17-.25-.44-.24-.8l-.03-.56,1.91.37.46.78c.27.47.48.9.64,1.33.16.43.18.69.08.81-.11.14-.31.16-.63.1Z"/>
        <path d="M117.05,103.03c1.15-.97,1.94-2.98,1.71-3.89-.03-.34-.54-1.03-.67-1.06-.11.08-.3.32-.64.67-1.94,1.95-4.25,4.71-4.32,4.7-.15-.03-.96-.8-.93-.93.12-.13.78-1.06,1.17-1.66.17-.28.37-.58.48-.84.11-.28.6-1.09,1.48-2.47-.66-.07-1.24-.24-1.77-.58-.28-.17-.36-.29-.26-.39.2-.12,1.68,0,2.47.14.31-.57,1-1.79,2.17-3.6.86.24,1.42.77,1.43,1.54,0,1.05-.29,2.02-.82,2.85l.68.57c1.03.83,2.01,2.21,2.01,3.06.11,1.92-.78,3.16-2.64,3.65,0,0-1.78.59-1.74.6-1.13.32-1.5-.94.19-2.36ZM123.01,97.5c.48-.36.85-.33,1.7.33.85.64,1.31,1.22,1.2,2.31-.06.52-.21.91-.55,1.14-1.11.72-3.34-1.47-3.02-2.72.09-.58.18-.72.68-1.06ZM123.95,95.38l.47-.07c.18.19.4.37.54.58.16.21.26.39.2.51.28.71-.51,1.09-1.22.16-.39-.53-.37-.76,0-1.19ZM125.82,95.25l.47-.07c.18.19.38.37.54.58.16.21.26.39.18.51.3.71-.49,1.09-1.2.17-.39-.53-.39-.77,0-1.19Z"/>
        <path d="M130.29,100.06c.2-1.05.36-1.69.43-1.94.17-.48.76-1.2,1.17-1.54.17-.15.35-.27.51-.28.17-.05.23-.06.27-.09,0-.02.22.1.57.33.71.45.8,1.74.22,2.69-.59.94-1.44,5.76-1.52,6.42-.05.35.01.66.11.85.57,1.06,1.46,1.59,2.53,1.37.45-.09.92-.34,1.37-.77.23-.19.56-.55.97-1.06.88-.98,1.06-1.1,1.71-.86.34.1.53.24.57.31.16.21-2.2,2.63-2.8,2.93-.6.32-.88.37-1.65.24-1.59-.18-3.39-1.22-3.88-2.25-.05-.05-.12-.2-.25-.44-.1-.2-.17-.33-.22-.4-.17-.27-.39-1.36-.39-3.22,0-.48.08-1.23.28-2.3Z"/>
        <path d="M146.15,102.42c-.35.05-.74.23-1.1.17-.21-.04.09-.87.11-1.01.34.07.71.04,1.13.12.24-.73.5-1.57.64-2.31.07-.34.29-.56.49-.4.36.07.68.27,1.01.43.44.08.59.51.4,1.24-.17.34-.18.44-.3,1.07,1.23-.22,1.97-.18,3.05.07.05.15.12.28.1.41-.14.23-.27.46-.44.43h-2.54c-.34-.06-.54.04-.63.52-.81,2.4-1.87,4.73-3.1,6.89-.29.58-.66.78-1.13.81-1.2-.23-1.3-.25-.54-1.75.93-2.26,1.86-4.35,2.85-6.7ZM148.56,109.1c.45-.17.74-.23,1.75-.16,1.17-.03,1.07.6,1.17.74.58,1,1.86,1.25,3.15,1.1.21.04.72.3,1.06.58-.5.66-2.48.67-4.4.05-1.67-.58-2.64-1.4-2.73-2.3ZM151.19,105.28c.5-.02.9-.06,1.27,0l2.33.45c.59.11,1.06.44,1.29,1.24-1.91.03-3.66-.32-5.19-.99,0,0-.54-.6.31-.69Z"/>
        <path d="M163.6,107.36c-.27,1.41-.28,2.8-.05,4.21l.31-.4c.33-.37.42-.35.98-.13.28.09.44.2.49.25.08.17-1.21,2.1-1.57,2.31-.39.2-1.29-.11-1.46-.46-.15-.17-.31-.45-.47-.84-.71-1.46-.95-2.89-1.05-4.34-.07-1.08.31-3.38.51-3.6.22-.23,1.31.11,1.32.33,0,.12.14.2.41.34.53.24.67.44.72.89.04.22.03.38,0,.51l-.14.92ZM168.43,106.23c.07-.38.11-.37.44-.21.15.05.39.21.73.42.37.23.64.38.8.45.35.15,1.46,1.59,1.57,2.26.15.68.1,3.29-.04,3.42-.08.08-.6-.08-1.57-.5-.46-.21-.84-.97-.58-1.1.12-.04-.82-4.31-1.3-4.4-.08-.01-.09-.14-.06-.33Z"/>
        <path d="M172.28,117.79c.03-.13.33-.17.9-.13.56.05,1.7-.01,3.4-.2.71-2.99,1.1-4.8,1.13-5.4-.05-.46.05-.66.57-.5.26.07.44.16.52.28.08.11.33.24.76.36.43.12.67.23.71.31.23.34.02,1.05-.66,2.13-.42.65-.71,1.33-.86,2.03-.15.7-.32,1.28-.49,1.73-.06.11-.35.07-.89-.09-.54-.16-1.32-.23-2.33-.21-1.01.02-1.62,0-1.88-.02-.6-.06-.9-.15-.88-.29Z"/>
        <path d="M196.35,107.99c.21.04,1.48,1.37,1.66,1.78.08.21,0,.89-.21,2.02-.44,2.29-.57,2.25,1.56,1.57,2.49-.81,3.04-1,3.07-1.14.08-.42.69-1.04,1.03-.95.73.14,1.51,1.2,1.38,1.89-.05.25-.43.37-1.15.41-1.4.05-6.06,1.35-6.33,1.62-.35.39-1.61.84-1.54,2.87.04.74.73,1.68,2.06,1.98,1.79.38,2.29.44,2.63.41.35-.07.57-.07.68-.05.23.04.97.6,1.01.81-.02.19-.58.52-1.09.42-.58-.07-4.12-1.01-5.04-1.2-3.37-.7-3-2.97-2.89-3.52s.54-1.18,1.13-1.74c.29-.26.57-.5.87-.7l.84-.55-.32-.52c-.43-.77-.52-1.94-.32-3.5.13-.87.27-1.39.47-1.61.2-.22.34-.31.49-.28Z"/>
        <path d="M45.63,113.72l1,.25c.74.18,1.41.29,2.02.33.61.04.97,0,1.12-.06.16-.11.28-.14.38-.13.21.04,1.35.51,1.4.74.04.11-.06.21-.25.29-.19.08-.48.11-.81.1s-.87-.09-1.62-.21c-.75-.12-1.88-.34-3.42-.63-.1-.02-.24.13-.5.46-.5.64-1.64,1.63-2.39,1.94-.75.31-1.54.38-1.83.26-.31-.06-1.43-.71-1.34-.85.02-.1.23-.15.62-.16.79,0,1.5-.29,2.4-1.16.46-.45.68-.68.69-.7,0-.02-.23-.12-.7-.29-1.67-.5-1.58-.94-.3-.69,1.28.24,1.48.14,1.76-.53.15-.35.29-.58.45-.71.16-.13.29-.18.39-.16.1.02.29.15.56.38.61.43.59.45.48.98l-.11.55ZM49.3,123.25c.69.13,1.12.25,1.28.36.33.22.39.25.28.81-.11.55-.68,1.71-.91,2.04-.22.33-.65.59-1.04.67-.39.08-1.22.06-2.09-.04s-4.29-.74-5.53-.98c-1.24-.24-1.21.03-1-1.91.11-.97.2-1.58.31-1.82.1-.24.18-.4.25-.47.03-.07.1-.12.17-.17.15-.07.93-.08,1.14.04.13.04.2.12.19.25.02.18.14.3.34.4.17.05.46.11.9.17.87.13,2.33.33,3.67.37.68.05,1.36.14,2.05.27ZM46.5,116.38c.15.03.99.62,1.12.79.06.11.07.25.02.42-.05.37-.07.38.6.51.32.06.55.04.63-.08.12-.2.56-.15,1.32.11.13.04.24.09.29.12.05.03.1.08.11.14,0,.06,0,.16-.02.31-.03.15-.14.23-.33.25-.18.02-.57-.03-1.16-.14-.59-.11-.94-.16-1.06-.16-.24.01-.38.34-.39.72-.01.37.19.33.43.22.11-.06.18-.12.2-.2.02-.11.22-.14.59-.07.36.07.68.17.93.32.34.2.34.38,0,.51-.34.13-.74.16-1.2.07-.46-.09-.75-.12-.85-.12-.1,0-.17.07-.19.16-.02.1.02.18.12.22.09.04.36.11.8.15.87.09,1.19.5.3.59-.14.01-.36.01-.66.01-.3,0-.5.02-.61.08-.11.04-.18.1-.2.22-.04.23,0,.28.39.25.38-.03,2.96.27,2.92.48-.01.06-.16.13-.43.19-.56.13-6.08-.81-7.01-1.22-.52-.2-.68-.37-.7-.69,0-.16,0-.4.08-.72.16-.62.17-.6-.34-.42-.25.09-.48.13-.69.09-.4-.08-1.52-1.06-1-1.2h.24c.22-.03.61-.21,1.06-.46.44-.25.9-.58,1.3-.88.19-.14.33-.27.43-.39.1-.12.19-.14.24-.11.12.08.9.79.88,1,0,.08.09.14.26.19.36.09.9.03,1.07-.09.12-.13.23-.37.29-.7.08-.32.15-.49.23-.47ZM43.23,125.22c-.1-.02-.17-.01-.24,0-.06,0-.09.04-.09.06,0,.02-.02.1-.06.19-.06.21,0,.28.31.34.15.03.34.08.58.19.46.21.5.17.56-.13.03-.15,0-.26-.06-.33-.06-.07-.27-.15-.61-.23l-.4-.08ZM44.73,123.48l-1.58-.3-.11.55c-.1.53-.19.56.53.93.72.38.86.36,1.02-.46l.14-.73ZM44.89,120.9c-.25-.05-.33.16-.06.31s.31.14.34-.01c.03-.07.03-.13-.02-.18-.05-.05-.12-.08-.26-.11ZM45.37,120.11c.08-.44-.44-.58-.53-.12-.04.23.03.36.2.4.17.03.29-.06.33-.27ZM45.45,118.97c.03-.17.04-.29.03-.37-.03-.16-.15-.23-.27-.15-.17.15-.2.65,0,.71.13.04.2-.02.23-.19ZM46.76,126.61c.4.08.97-.09,1.03-.4.03-.15,0-.22-.06-.21-.2.02-.42.02-.65,0-.47-.03-.6.02-.65.27-.05.13-.06.21-.02.23.03.03.15.07.35.11ZM46.7,125.37l.53.1c.25.05.39.05.45.05s.06-.09,0-.22c-.1-.32.02-.43.37-.37.1.02.18,0,.23-.06.09-.14.15-.86.08-.95-.06-.09-.96-.38-1.21-.21-.11.08-.23.35-.29.81l-.16.84ZM49.96,116.09c-.07.36.37.88,1,1.42.33.24.71.45,1.15.62.44.16.67.31.69.41.01.14-.1.22-.33.19-.55-.03-1.25-.3-2.1-.8l-.59-.43c-.53-.44-.9-.88-1.15-1.35-.25-.46-.25-.78-.04-.92.11-.08.7.17,1.19.42.16.11.23.26.19.43Z"/>
        <path d="M60.16,117.85c.48-.78,1.24-.91,1.95-.34.03.16.03.58-.09.77-.56.63-1.2.28-1.85.16-.27-.05-.62-.2-1.09-.29-.03.87-.11,1.72-.21,2.57.99-.19,1.82-.3,2.71-.41q.03.99-2.65.92c-.18.92-.34,1.76-.51,2.65l.97.19q.61-.89,2.22-.23c.09-.48.14-1.04.24-1.54.03-.57.2-.75.78-.64.6.17,1.26.24,1.88.42.48.09.73-.08.81-.5.26-.82.31-1.6.49-2.58-1.03-.2-2.18-.42-3.28-.63l.05-.29c.21.04.37.01.58.05l4.68.89c.5.16.73.42.62.99l-.21,1.11c-.45,1.52-1.18,1.95-2.75,1.73-.27-.05-.53-.1-.91-.11-.27,1.39-.38,2.84,0,4.27.21.77.65,1.07,1.67,1.11.22-.02.48.09.76.15-.02.1-.04.21,0,.38-.6.04-1.12.16-1.64.18-.3.02-.58.05-.87,0-2.64-.29-3.44-1.37-3.03-4.36-1.04.89-2.03.05-3.15.13l-.31,1.6c.07.15.24.4.32.58,1.87,1.72,3.89,2.92,6.41,3.03.08.01.12.1.33.14-.69.58-1.54.79-2.29.71-1.31-.09-2.51-.62-3.59-1.4-1.27-.9-2.64-1.81-4-2.7-1.31,1.55-1.64,1.63-2.98,1.07.46-.84.92-1.69,1.24-2.65.26-.52.39-1.23.51-1.86.1-.5.38-.56.86-.47,1.05.32,1.09.43.89,1.46l-.19.97c.62-.16,1.04-2.04,1.12-4.2l-2.54-.49c.01-.08-.04-.22-.02-.3.93.12,1.87.14,2.78.26.1-.85.2-1.64.27-2.56-.46-.17-.93-.4-1.4-.56l.05-.27c.48.09.91.1,1.47.2.08-.4.12-.93.2-1.35.01-.49.34-.65.79-.42l1.2.66q-.38,1.59.69,1.79Z"/>
        <path d="M72.52,123.65c.2-1.05.36-1.69.43-1.94.17-.48.76-1.2,1.17-1.54.17-.15.35-.27.51-.28.17-.05.23-.06.27-.09,0-.02.22.1.57.33.71.45.8,1.74.22,2.69-.59.94-1.44,5.76-1.52,6.42-.05.35.01.66.11.85.57,1.06,1.46,1.59,2.53,1.37.45-.09.92-.34,1.37-.77.23-.19.56-.55.97-1.06.88-.98,1.06-1.1,1.71-.86.34.1.53.24.57.31.16.21-2.2,2.63-2.8,2.93-.6.32-.88.37-1.65.24-1.59-.19-3.39-1.22-3.89-2.25-.05-.05-.12-.2-.25-.44-.1-.2-.17-.33-.22-.4-.17-.27-.39-1.36-.39-3.22,0-.48.08-1.23.28-2.3Z"/>
        <path d="M84.65,135.16c-1.24-.22-2.19-1.8-1.6-2.72.06-.09.13-.13.22-.14.1,0,.27.03.53.12,1.19.41,2.17,1.46,2.03,2.23-.1.52-.4.64-1.19.51Z"/>
        <path d="M98.83,125.8c.19-.28,1.57.18,1.62.51.12.4-.08.74-.57.72-.64-.06-1.19-.17-1.81-.29l-.8-.15c-.08.42-.15.8-.22,1.16.37.13.77.34,1.15.42,1.09.33,1.18.46,1.2,1.69,1.9.74,3.86,1.43,5.83,2.12.12.08.46-.03.6-.14.39-.36,1.67-.37,2.04.01.25.36.07.96-.45,1-.63,0-1.24-.12-1.93-.25-.54-.16-1.13-.41-1.73-.59-.11-.02-.39.06-.47.17-1.03,1.33-1.99,2.75-2.96,4.09-.08.1-.1.24-.27.46,1.35.18,2.66.37,4.08.58-.22-.81-.47-1.56-.72-2.55.67.13,1.24.16,1.79.26.13.03.28.19.32.32.43,1.17.63,2.42.45,3.67.04.19-.18.34-.4.42-.2.1-.45.05-.65.07-.52.02-.68-.07-.66-.58,0-1.21.13-.98-1.04-1.21-.97-.19-1.97-.38-2.95-.51-.19-.04-.44-.08-.58.03-.59.38-1.86.4-2.43-.03-.34-.18-.35-.44-.1-.71.22-.22.4-.44.72-.75l-2.35-.45c-.12.61-.17,1.18-.33,1.72-.1.24-.3.64-.5.66-.48.11-.95.02-1.39-.07-.06-.01-.06-.33-.02-.52.07-.68.27-1.41.41-2.14-.61-.12-1.18-.17-1.73-.27s-1.05-.2-1.54-.35l.06-.31c1.06.12,2.13.27,3.18.35l.15-.8c-.71-.2-1.39-.4-2.24-.63l1.03-5.4c.02-.11.26-.33.45-.29.33-.08.7-.06,1.07,0q1.11.21,1.22-.98c-.59-.23-1.26-.44-1.91-.68l.05-.25c.61.12,1.28.24,2.02.39.05-.56.14-1.06.18-1.55.04-.64.37-.7.85-.49,1.02.33,1.07.4.87,1.45-.05.25-.05.56-.11.87.61.12,1.12.47,1.51-.23ZM93.68,132.77l.25.05c.37-.56.3-1.27.51-1.94.01-.06-.23-.16-.5-.41-.12.93-.19,1.63-.26,2.3ZM94.24,130.15c.16-.11.37-.19.39-.3.15-.49.25-.98.34-1.48-.04-.13-.15-.27-.18-.41-.16.11-.35.19-.37.3-.16.54-.23,1.18-.33,1.72.04.09.09.16.15.17ZM97.39,134.69c.08-.1.27-.07.33-.06.71.33.97-.13,1.32-.58.2-.34.52-.65.77-1,.51-.59.95-1.22,1.45-1.88-.71-.33-1.23-.61-1.81-.86-.3.97-.48,1.89-.79,2.78-.28.84-.57,1.04-1.46.99-.45.05-.88-.03-1.33-.06l-.14.74c.59-.08,1.18.54,1.68-.08ZM96.11,132.66c-.03.13.03.26.13.34.06.01.32,0,.32,0,.17-.6.38-1.25.62-1.92l-.74-.14c-.12.61-.28,1.15-.33,1.72ZM97.37,128.77c.02-.11-.14-.2-.25-.36-.08.12-.3.2-.32.32-.16.54-.23,1.18-.34,1.79l.74.14c.07-.7.19-1.31.16-1.89ZM101.28,126.96c.12.1.15.23.27.25.96.38,1.9.74,2.88,1.01.85.22,1.71.39,2.58.49.19.04.4-.12.63-.28.07-.05.08-.42.02-.43-.49-.15-1.12-.47-1.47-.28-.42.1-.69.18-.99.13-.79-.21-1.49-.48-2.22-.68l-1.58-.3c-.09.04-.1.1-.1.1Z"/>
        <path d="M114.38,128.58l-1.01-.19-.26,1.34-1.67,8.73-.13.67c-.16.84-.71,1.13-1.49,1.08-.25-.03-.39-.25-.34-.48l.5-2.6c-1.13.12-4.27-.03-3.83-.04-.14-.7.21-.77,1.16-.59.24-3.1,1.13-5.58,1.38-8.66,0,0-1.23.12-.62-.81l2,.38s4.48.38,4.56.38c0,.02.14.52.07.86l-.32-.06ZM110.52,133.74c-.31.3-1.13.14-1.2.46l-.45,2.35c.34.07,1.16-.25,1.16-.25l.49-2.56ZM111.03,131.06c-.59-.11-.46.25-1.13.12l-.39,2.02c.85-.01,1.09.07,1.17-.35l.34-1.79ZM111.55,128.35c-.59-.11-1.07-.19-1.07-.19l-.32,1.68q-.19,1.01.94.87l.45-2.37ZM115.99,138.27l-3.02-.58c-.32-.06-.67-.13-.6-.47l.64-3.34c.07-.34.13-.67.8-.54,1.01.19,2.29.77,3.3.97.67.13.6.47.54.8l-.26,1.36-.19.99c-.13.67-.19,1.01-1.21.82ZM123.57,140.41c-.13.67-.99,1.55-2,1.36-1.4.07-1.94-.73-2.09-1.79-1.72,0-2.8.16-3.4-.31,1.56-.41,2.01-1.12,2.88-2.34-.15-1.08-.24-2.36-.33-3.76-2-.38-3.75-.38-5.69-1.09l.07-.34,5.69,1.09.51-2.69c-1.94-.71-3.75-.36-5.69-1.09l.06-.32.67.13.67.13c.99.19,2.07.04,2.74.17l.34.07c.45-.61,1.07-.13,1.74,0l.26-1.34c.67.13,1.06-.15,1.66.32l-.58,3.02-.32,1.66c.28.41.95.54,1.07-.13.41-.59,1.48-.07,1.68.32.26.39-.13.67-.8.54-.73.22-1.4.09-2.09-.04-.13.67-.03,1.72-.04,2.07,0,0,.74-.87,1.06-.81.34.07.44.16,1.05.62l-.11.57c-.45.61-.9,1.21-1.38,1.81.19.45.04.94.67,1.87q.54.8,1.68.32ZM113.71,130.19l1.01.19q.32.06.26.39c.28.41.22.73.09,1.4-1.08.15-1.62-.65-1.36-1.98ZM115.7,136.13l-1.34-.26-.32,1.66c.32.06.67.13,1.4-.07l.26-1.34ZM115.77,135.79c.07-.34.19-1.01-.07-1.4l-1.01-.19-.26,1.34,1.34.26ZM115.69,127.09c1.15.22,1.74.1,1.83,1.4-.06.32-.13.67-.47.6-1.99-.38-1.31-1.2-1.36-2ZM116.15,132.04c-.22-.73.65-1.62.99-1.55.32.06,1.06-.15.87.86-.13.67-.52.95-1.59,1.08.06-.32-.26-.39-.26-.39ZM121.56,130.98c.13-.67.53-.93,1.2-.8.99.19,1.37.62,1.15,1.25-.4,1.17-2.54.56-2.35-.45Z"/>
        <path d="M123.71,143.17c-.34-.07-1.52-.73-1.49-.9.01-.08.34-.41.98-1,.62-.57,1.29-1.24,1.97-2.02.62-.65,1.06-1.1,1.34-1.33.3-.24.49-.28.62-.16l.03.16c-.12.65-2.55,4.54-2.91,4.97-.2.2-.38.3-.55.27ZM125.2,133.28c.17.03,1.33.61,1.61.98.14.19.18.41.13.68-.09.5-.38.74-.79.72-.41-.02-1.06-.34-1.52-.76-.45-.42-.59-.83-.4-1.22.13-.17.31-.28.52-.34.21-.06.37-.07.45-.05ZM127.52,128.81c.36.07,1.38.74,1.6,1.14.22.4.12,1.15-.22,1.54-.18.2-.39.28-.66.23-.53-.1-1.89-.7-1.97-1.49-.09-.35.07-.7.43-1.01.36-.31.62-.46.81-.42ZM137.07,135.69c.59.11.95.08,1.14-.08.41-.26,1.75-.36,1.99-.05.22.28.1.71-.35.9-.22.12-.9.05-2.06-.18l-1.74-.33-.12.61c-.07.36-.21.79-.39,1.31l-.23.67,1.55.3c2.02.39,1.97-.26,1.41,3.08-.28,1.69-.5,2.6-.65,2.77-.15.17-.39.28-.68.33-.63-.02-8.44-1.18-8.85-1.36l-.35-.15.59-3.07.66-3.02,1.67.16c1.11.11,1.72.13,1.78.1.05-.05.18-.42.43-1.11l.29-.99-2.05-.45c-2.62-.58-2.65-.84-.07-.47l2.12.31c.1,0,.26-.43.43-1.3.16-.86.27-1.33.34-1.38.07-.05.22-.02.5.09.5.19.96.34,1.6.52.64.18.72.26.49,1.28l-.32,1.34.86.16ZM135.65,141.69c.43-3.08.84-2.33-1.5-2.82-1.16-.24-1.97-.38-2.37-.43l-.66-.09-.81,4.93,1.53.29c.94.18,1.76.3,2.53.34l.96.06.32-2.29ZM138.45,130.55c.27.23.37.43.32.6-.14.33-2.29.89-3.54.93-1.89.05-3.27-.09-4.09-.43-.97-.4-.93-.63.61-.48,1.36.14,2.67-.08,3.99-.66,1.46-.59,2.18-.41,2.72.05Z"/>
        <path d="M139.25,144.06c.45-.05.93,0,1.41-.05.16,0,.35.05.55.04q1.22-.04,1.36-1.52c-.88-.17-1.72-.33-2.6-.5l.05-.25c.92-.26,1.78.02,2.72.08l.19-.97c-.71-.1-1.36-.14-1.95-.25-.77-.11-.9-.29-.73-1.17.29-1.01.49-2.02.71-3.09.1-.52.42-.45.77-.43.66.09,1.36.14,2.09.22l.24-1.24c-1.07-.2-2.13-.03-3-.57l.07-.34c.9.05,1.83.13,2.85.23l.16-.86c-.48-.17-.97-.32-1.41-.47.02-.11,0-.22.02-.29.95-.02,1.9.12,2.84-.07.99-.23,1.85-.16,2.97.19-.78.78-1.62.62-2.3.75-.04.21-.13.45-.11.55,0,.28.02.5.15.58.12.08.34-.11.47-.17.36-.23,2.07-.16,2.35.15.07.13.15.36.07.45-.1.2-.26.44-.54.43-.56.03-1.2-.01-1.8-.03l-.84-.16c-.07.38-.11.69-.21,1.19.61.12,1.18.23,1.81.25.53.1.84.46.73,1.05l-.49,2.56c-.11.55-.53.81-1.07.82-.6-.09-1.12-.04-1.72-.13l-.2,1.07c.55.14,1.04.28,1.63.47l-.05.27c-.6.04-1.12.08-1.74.08-.15.37-.22.71-.36,1.18l1.97.38c-.88.56-6.38.26-7.06-.22.02-.11.03-.15,0-.22ZM143.3,138.76c-.27-.05-.49-.03-.68-.07l-.29,1.49c.67.31.83.12.96-1.42ZM143.65,136.91c-.27-.05-.49-.03-.7-.07-.08.42-.15.76-.2,1.17.25.05.45.05.69.01l.21-1.11ZM145.2,140.39c.2-.02.51-.08.6-.12.1-.32.13-.67.2-1.07-.25-.05-.43-.04-.56-.07l-.24,1.26ZM146.17,138.54c.33-1.18.27-1.41-.43-1.39-.07.36-.16.84-.24,1.26l.67.13ZM150.28,138.55c-.57-.15-1.15-.38-1.67-.5l.05-.29c.41.02.79,0,1.16.06.39.02.71-.08.81-.64.18-1.13.39-2.24.6-3.33.04-.53.22-.65.69-.5.59.25,1.19.42,1.73.71.09.06.31.47.2.63-.29,1.11-.71,2.26-1.09,3.51.76.15,1.34.34,1.97.38.67.13,1.04.48.97,1.22-.07,2.62-.69,5.05-2.11,7.2-.42.51-.89.72-1.52.6-.44-.08-.94-.14-1.56-.22,1.55-2.08,1.87-4.41,2.49-6.71.08-.42.08-.85.06-1.25.03-.13-.11-.24-.14-.4-.18.12-.25.19-.32.32-.57,1.43-1.18,2.94-1.8,4.36-.28.64-.74,1.3-1.22,1.83-.66.75-1.95.69-2.59.08,1.39-2.17,2.33-4.6,3.29-7.05Z"/>
        <path d="M168.42,142.89c-.19.06-2.92.07-3.15.09-.12,0-.07.34.12,1.01.19.69.26,1.12.22,1.35-.15.8-1.62.38-2.11-.56-.09-.14-.14-.28-.11-.46.01-.18-.03-.28-.02-.4-.04-.22-.06-.49-.05-.56-.02-.02-.05-.05-.07-.05-.02,0-.04-.03-.08,0-.02.02-.22.22-.32.35-.03.07-.24.31-.51.71-.59.82-1.02,2.2-.78,2.6.14.2.41.35.9.45.97.19,3.03-.03,3.08-.28,0-.12.12-.2.26-.23.1-.02.18-.02.29.02.21.02.45.15.7.29,2.03,1.2-2.26,1.57-4.15,1.21-1.89-.36-2.74-.8-3.33-1.51-.6-.71-.59-.83-.47-1.49.12-.65.8-1.51,1.88-2.27.53-.37,1.15-.75,1.86-1.01.25-.09.36-.15.3-.2l-.71-.14c-.55-.11-1.05-.1-1.51-.09-.46.03-.74.06-.86.03-.11-.02-.29-.14-.57-.31l-.52-.38.78-.96c.49-.62.73-1.03.75-1.2.02-.19-.12-.32-.44-.38-.59-.11-1.45-.69-1.4-.96.01-.06.36-.03,1.11.11.74.14,1.17.18,1.35.18.11-.04.28-.12.44-.35.15-.25.5-.66,1.04-1.21l.72-.73.61.43c1.4,1.06,1.53,1.32.91,2.15-.09.16-.05.27.08.31.13.04.37.11.72.16.7.15.93.12,1.26-.19.5-.44,1.02-.36,1.58.24.47.45.47.94-.11,1.19-.18.12-.44.15-.81.1l-4.41-.84-1.5,1.61.85.2c.55.13.99.29,1.25.42.51.26.81.31,1.66.2,1.44-.2,2.4-.13,3.44,1.03-.03.15-.1.24-.18.3Z"/>
        <path d="M175.25,144.36c-.45,1.54-.89,3.1-1.35,4.65-.2.73-.36,1.49-.45,2.25-.06.42-.09.87-.09,1.31-.01.16.13.54.09.65-.19.46-1.42.3-1.79.17-.76-.28-.71-.87-.65-1.55.1-1.56.52-3.11.87-4.62.78-3.16,1.31-6.36,2.08-9.52.16-.72.44-.96,1.2-.78.26.07.41.22.63.32.26.11.63.1.92.18.82.16,1.64.41,2.43.72.52.18,1.1.37,1.26.95.21.67-.06,1.57-.21,2.22-.17.76-.35,1.54-.6,2.28-.14.51-.27,1.31-.75,1.64-.52.34-1.43.1-1.79-.36-.06-.23-1.49-.4-1.8-.5ZM177.31,143.35c.12-.53.26-1.04.39-1.55l-1.14-.16c-.1-.02-.37-.11-.46-.09-.19.08-.12.1-.2.34-.12.31-.24.84-.27,1.2-.02.33-.12.2.17.37.12.08.34.1.49.15.19.06.48.17.68.15.33-.06.26-.09.34-.41ZM183.56,150.6c-.26.13-.64.14-.91.12-.1,0-.71-.14-.77-.09-.16.09-.33,1.7-.39,1.92-.1.42-.2,1.33-.53,1.62-.31.28-1.21.11-1.45-.2-.27-.35-.08-1.02-.03-1.41.05-.58.14-1.16.21-1.74.03-.15.06-.32.08-.5l-.48-.09c-.09.06-.17.58-.21.67-.4.87-1.4,2.03-2.45,1.93-.27-.01-1-.17-1-.55-.02-.32.83-.81,1.05-1.06.18-.22.96-1.1.8-1.47-.1-.2-1.14-.34-1.36-.46-.43-.22-.66-.6-.02-.74.51-.1,1.08.13,1.55.3.06-.42-.03-.9.42-1.07.25-.09.58-.03.86.05.39.11.58.27.61.65.02.2-.12.41-.08.62.05.35.01.24.43.32.04-.39-.03-.76.36-.94.24-.11.57-.07.83-.02.27.05.65.14.82.36.22.28.12.64.07.98.13.03.49-.38.76-.43.35-.05.82.06,1.09.29.39.33.07.77-.28.94ZM176.64,145.89c.76-.13,1.71.35,2.44.51.93.2,1.83.35,2.75.51.08.01.41.12.5.09.08-.02.06-.13.13-.17.28-.2.4-.32.76-.33.58,0,1.62.45,1.04,1.17-.46.56-1.66.28-2.25.2-1.78-.22-3.54-.56-5.24-1.08-.56-.17-.95-.74-.13-.89ZM176.18,140.64c.58.09,1.18.13,1.76.3.17-.66.45-1.4.42-2.08-.51-.22-1.03-.4-1.56-.55-.23.77-.43,1.54-.62,2.33ZM184.1,155.63c-.44-.28-.5-.59-.24-1.02.39-.7.7-1.41.9-2.2.38-1.45.62-3.01.82-4.49.07-.46.12-.95.15-1.42.03-.15.08-.42.05-.58-.09-.47.07-.18-.28-.31-.72-.29-1.62-.33-2.37-.55-.62-.18-1.63-.07-1.91-.8-.22-.52-.09-1.3-.04-1.85.06-.92.26-1.79.49-2.68.22-.71.39-.98,1.19-.84.42.08.75.24,1.19.29.39.03.79.09,1.2.15.67.11,1.34.26,1.98.42.79.23,1.55.4,1.7,1.26.14.74.1,1.54.08,2.29-.06,1.65-.43,3.3-.77,4.94-.27,1.41-1.2,9.19-4.15,7.4ZM185.84,144.66l.04-1.12c0-.38.08-.44-.2-.61-.36-.21-1-.27-1.41-.31-.29-.04-.36-.09-.51.08-.11.16-.21.77-.2.95.03.38-.23.17.22.4.34.18.78.25,1.14.36.3.08.62.18.92.26ZM184.02,141.66c.64.06,1.25.18,1.87.34.02-.19.14-1.64.04-1.66-.38-.07-1.22-.33-1.48-.11-.26.21-.37,1.1-.43,1.42Z"/>
        <path d="M200.82,148.62c.01-.06-.05-.35-.18-.91-.26-1.1.19-1.8,1.05-1.64.88.17,1.09.31,1.1.88,0,.3.1.71.33,1.27.46,1.12.6,1.7.6,2.55,0,.4,0,.69.02.82,0,.12,0,.26-.04.43-.05.29-.07.28-.32.32-.1,0-.22,0-.29-.02-.15-.03-1.22-.23-1.58-.66-.2-.2-.29-.63-.38-1.24l-.05-.38c0-.12-.16-.43-.18-.39-.01-.04-.07-.05-.22-.08-.13-.03-.23-.04-.31-.02l-.53-.02c-1.6,0-2.51.21-2.77.6-.11.16-.2.22-.29.26-.1.02-.34.01-.74-.06-.82-.16-.95-.4-.42-.99.53-.59,1.24-1.82,1.29-2.21.05-.17-1.08.35-1.3.6-.1.12-.27.48-.51,1.09-.45,1.24-.93,2.08-2.01,3.49l-1.04,1.29.36.6c.24.42.44.62.65.66.4.08.44.2.39.45-.05.27-.12.33-.41.36-.26.03-1.1-.03-1.32-.15-.12-.1-.27-.27-.47-.56-.18-.31-.36-.48-.51-.53-.17-.05-.66-.15-1.55-.3-1.71-.25-1.37-.7-.1-.73.24-.01.46-.13.63-.39.18-.12.13-.45,0-.77-.13-.34-.81-2.27-1.16-2.52-.29-.25-.2-.93.27-2.05.42-.97.34-.86-.19-.79-.51.06-1.61-.37-1.79-.66-.07-.13.02-.23.35-.29.33-.06.78-.05,1.42.01.64.04.94.06.95-.02.08-.3,2.01-5.26,2.13-5.43.1-.1,1.68.85,1.87,1.11.05.17-.72,2.63-1.22,3.8l-.37.88s.16.09.43.14c.55.11,1.37.08,1.87-.08.25-.07.47-.17.65-.31.25-.27.79-.19,1.57.28l.61.33.35-1.1,1.41-3.75.57.11c.75.1,1.36.74,1.33.99.04.13-.03.45-.19.97-.27,1.02-1.25,3.54-1.67,4.25-.21.36-.28.56-.28.64l.58-.05c.36-.01.72-.02,1.06-.04.34,0,.5-.02.51-.06ZM191.54,150.38c.35-.61.8-1.61,1.04-2.33.13-.39.18-.62.14-.73-.04-.11-.07-.15-.13-.14l-.57-.03c-.21-.02-.38.03-.45.09-.08.08-.23.39-.49.92-.24.53-.43.93-.65,1.2l-.31.48.84,1.49.58-.94ZM196.13,151.14c.15.03.28-.03.41-.18.12-.13.35-.17.62-.12.54.1,3.43.81,4.34,1.21l.73.34-.22,1.38c-.27,1.83-.5,2.32-1.09,2.8-.61.48-1.01.62-1.83.54-.4-.06-.96-.14-1.65-.28-.71-.14-1.16-.24-1.37-.3-.41-.16-.58-.41-.69-1.02-.1-.61.27-3.89.44-4.27.1-.1.18-.12.32-.1ZM198.22,151.7l-.29,1.53c-.2,1.03-.29,1.82-.29,2.36l.03.86h.59c.39.03.61,0,.71-.09.11-.06.31-.77.6-2.1l.48-1.99-.54-.2c-.35-.15-.65-.24-.89-.29l-.4-.08Z"/>
      </g>
      <g>
        <path class="cls-2" d="M12.13,184.98c-.11.06-.2.29-.02.33l.31-.3-.29-.03Z"/>
        <path class="cls-2" d="M12.84,186.22c.28-.08.65-.32.68-.71-.36.29-.33.11-.73.43-.18-.04-.22-.27-.12-.39-.11.06-.2-.21-.41-.02.05.39.32.55.72.45.02.11-.08.18-.13.24Z"/>
        <path class="cls-2" d="M30.43,185.85l-.13.02s.09,0,.13-.02Z"/>
        <path class="cls-2" d="M37.88,177.17c-.02.09,0,.14.04.16,0-.09,0-.16-.04-.16Z"/>
        <path class="cls-2" d="M38.94,175.41s-.04.07-.06.11c.05-.03.08-.07.06-.11Z"/>
        <path class="cls-2" d="M30.43,185.85l.33-.06c-.05-.13-.19,0-.33.06Z"/>
        <path class="cls-2" d="M15.44,186.16c-.06,0-.12.02-.18.06.05,0,.1,0,.15,0,0-.02.02-.04.03-.06Z"/>
        <path class="cls-2" d="M25.86,188.18l-.09.03c-.01.05-.02.12-.03.18l.12-.21Z"/>
        <path class="cls-2" d="M21.96,188.92c.09.01.1-.34.12-.5-.04.15-.1.22-.17.25,0,.07.02.15.06.25Z"/>
        <path class="cls-2" d="M15.85,187.76l-.12.02s.08-.01.12-.02Z"/>
        <path class="cls-2" d="M28.56,187.28s.06.08.08.1c-.02-.04-.05-.07-.08-.1Z"/>
        <path class="cls-2" d="M12.12,96.95s.03.02.05.04c-.01-.04-.03-.06-.05-.04Z"/>
        <path class="cls-2" d="M16.38,94.71l-.03.06c.04.05.08.1.13.15l-.1-.21Z"/>
        <path class="cls-2" d="M40.08,171.79s0,0,0,.02c.03.1.03.05,0-.02Z"/>
        <path class="cls-2" d="M21.5,145.72c.09.47-.71-.04-.5.57.05-.14.73-.13.5-.57Z"/>
        <path class="cls-2" d="M15.52,186.23s.09.02.14.04c-.06-.03-.1-.04-.14-.04Z"/>
        <path class="cls-2" d="M21,146.29h0s.02.06.02.06c0-.03-.01-.04-.02-.06Z"/>
        <path class="cls-2" d="M38.68,163.18c-.05.04-.08.09-.11.14.03-.02.07-.05.11-.14Z"/>
        <path class="cls-2" d="M39.42,169.56l.04-.16c-.03.06-.04.11-.04.16Z"/>
        <path class="cls-2" d="M36.76,160.42c-.02-.09,0-.14-.09-.21-.01.02-.02.03-.02.05.06.01.11.05.11.16Z"/>
        <path class="cls-2" d="M34.82,157.65s-.01.06-.02.09l.08.07-.07-.16Z"/>
        <path class="cls-2" d="M7.36,106.07c.12-.04.23-.04.35-.04-.25-.04-.18-.54-.35.04Z"/>
        <path class="cls-2" d="M15.39,186.35c.04-.08.08-.11.13-.12h-.1s-.04.08-.03.12Z"/>
        <path class="cls-2" d="M34.31,161.74l-.19-.43c.04.13.11.29.19.43Z"/>
        <path class="cls-2" d="M6.76,129.84l-.08-.11s.03.09.08.11Z"/>
        <path class="cls-2" d="M33.27,160.18c.05-.14.06-.26.04-.37-.03,0-.06,0-.1,0l.06.36Z"/>
        <path class="cls-2" d="M7.72,106.03h0s0,0,0,0Z"/>
        <path class="cls-2" d="M8.33,102.43c-.22.47.31.42.5.63-.13.61-.43.11-.73.2-.05.4.22.84.09,1.09-.08-.01-.13.03-.19-.07.09.26-.03.53-.14.81-.09.29-.16.6-.02.9-.05.02-.09.02-.13.02.24,0,.47.08.62.15-.06.21.14.49-.17.47.05-.13-.06-.18-.13-.27l.05.27c-.48.06-.04-.35-.34-.46-.02.49.15,1.11-.08,1.4-.43-.06.13-.83-.38-.5l.33-.47c-.77.18.15-.3-.65-.17-.36.66-.06.85-.41,1.5.17.22.35.05.53.27.13,1.09-1.23.5-.88,1.39.23.26.74.46.33.91l-.43-.29c-.21.68.58.54.1,1.19-.16-.16-.03-.57-.11-.48-.48.39.19.39.1.74h-.44c-.05.75.14,1.62.1,2.44-.12-.06-.23-.22-.39-.04.02,1.06-.26,2.22-.58,3.23l.35.4c0,.09-.18.16-.24.06-.16.39.23.03.37.22.01.22-.23.29-.33.15.26.71.72,1.96.33,2.71l-.11-.14c-.13.58.78.6.45,1.14l-.07-.1c-.05,1.24.48,2.53.04,3.56.53.09.02,1.25.76,1.18-.21.76-.38.59-.4,1.63.03.27.53.28.68.58l-.37.11c.16.11.35.21.52.32l-.37.35.19.27c-.02-.12.09-.3.2-.31.31.41.1,1.19-.08,1.27l.66.98c-.15.03-.26-.14-.4-.25.56.45-.35.24.16.66.06-.1.23-.04.31-.06-.13.34.14.93.41,1.33l-.28.02c.3.81.79,1.63,1.26,2.47-.06-.36.4-.49.57-.27l-.31.28c.31.04,0-.32.45-.14.13.33-.29.43-.51.31l.34.31c-.1.08-.2.02-.35.07.31.03.01.86.52.87l-.09.08c.47.85.79,1.16,1.28,1.78.3-.18.41.11.78.14.23.53.38,1.21.8,1.76.43.28.32-.07.62-.03-.23.23.25.72-.16.6.59.59.76.76,1.64,1.36.02-.17-.02-.31.1-.33.16.1.18.41.06.5h-.06c.55.27.87.88,1.19,1.48.31.61.66,1.15,1.22,1.2h-.06s.94.35.94.35c.3.32-.36.01-.24.38,1.14.23,1.2,1.1,2.08,1.33-.07,1.15,1.85,1.35,2.18,2.35l.09-.21c.31-.04.14.27.24.4.09-.15-.07-.31.11-.32,1.68.91,2.92,2.58,4.28,3.91.49.48,1.03-.65,1.37.31l-.45.16c1.41.49,2.13,1.84,3.38,2.46-.13.01-.21.1-.31,0,0,.4.71.75.9.58.12.17-.13.19-.13.37.06.32.77.25.65.56-.02.05-.13,0-.18-.01.24.03.51.67.67.31.18.49.73.63.81,1.07.46-.02.33.79.83.54-.48.3.12.95.48,1.09-.2,0-.02.32-.28.34.18.29.43.52.66.32-.25.85,1.06.94.44,1.62.72.8,1.18,1.67,1.54,2.56-.56.1-.32-.99-.88-.79.22.38.48.67.7.98.19.31.34.65.35,1.1-.04.24-.27-.09-.37-.15.37.84.15,1.69.46,2.47-.05,0-.11-.09-.16-.17.02.16-.07.36.18.34l-.07-.15c.37-.26.79.64.97.68-.72-.3-.23.8-1.14.32.04.1.16.24.33.23-.06.15-.16.19-.35.02.11.57.39.4.32.91-.12-.02-.16-.12-.3-.19.21.28.42.58.26,1-.07-.04-.17,0-.16-.13-.1.73.41,1.4-.06,2.15-.45-.38-.25.22-.71.13,0,.15.02.31,0,.46l.27-.1c-.13.36.07.8-.19,1.07l-.08-.34c-.06.24-.1.48-.17.71.12-.1.21-.21.32-.32.08.46.58.18.25.62,0-.12-.17.37-.51.44h0c.05.24.13.5-.12.71-.17,0-.43-.29-.55-.29.26.35-.34.85-.09,1.28-.05-.12-.26-.25-.31-.25l.19.3c-.19.1-.24.1-.39-.03-.34.43.6.17.03.58,0-.06-.05-.06-.03-.18-.44.48-.56,1.16-1.05,1.55-.47-.16.22-.49-.21-.57-.43.71-.71,1.72-1.41,2.21l.15-.07c.36.56-.66.2-.79.68.05-.1-.13-.37-.1-.29-.5.27-.79.85-1.42,1.5v-.2c-.36.07-.8.39-1.16.49-.01.2-.21.28.02.44-.72-.15-1.14.15-1.56.52-.43.32-.86.67-1.46.44.12-.03.22-.23.13-.2l-.77.38c.14.26.15.14.39.31-.06.19-.26.39-.47.45.33-.29-.12-.45-.32-.56.05.08.02.19.05.27-.56-.4.06.58-.63.37v-.16c-.21.12-.38.36-.64.37-.16-.31.22-.2.18-.48-.33.1-.58.73-.95.45.14-.11.35-.14.48-.25-.4-.34-.42-.24-.68-.27h.03s-.59-.1-.59-.1l.16.09c-.35.91-.86.22-1.43.82.56-.57.09-.32.12-.7-.15-.09-.37-.22-.31-.33-.27.3-.44-.25-.83.19-.01-.12-.29-.02-.21-.32-.35.08.07.22.04.37-.58.37-1.22-.57-2.06-.15-.71.13-.92.5-1.61.54-.17-.24.28-.39.28-.39-.3-.26-.56-.27-.91-.24.09-.08.05-.19,0-.35-.25-.05-.3.37-.57.09.1-.11.24-.29.4-.39-.32,0-.69.15-1.02.13,0-.23.29-.22.44-.33-.36-.02-.91-.17-1.15.1l.17.2c-.13-.04.05-.29.16-.31.38-.13.36.28.34.4l-.24-.02c-.05.78.92.22,1.33.39l-.34.44.58-.26c.06.16.05.46-.2.47.26.35.34-.1.55.25.02.05,0,.07-.03.08l.36-.07c-.09.09-.03.37-.22.25.53.45,1.04-.16,1.19.26l-.06.02c.86-.04.15-.36.83-.71.09.33.19.67.29,1l.13-.37c.08.02.25.06.2.21.35-.23-.04-.17.17-.4.38.39,1.14-.07,1.21.52.16-.29-.39-.23.06-.43.11.66.51-.1.89.2-.11.34-.48.15-.09.46.22-.56.75.09,1.08-.04-.02-.45.69-.23,1.21-.47-.01.17,1.05.11,1.58.14v.08c0-.47.53-.48.87-.69.06.27.02.39-.15.57l.35-.1c.04-.17.13-.27.34-.39v.35c.48-.14.81-.68,1.47-.68-.09-.31-.76-.67-.25-1.09.08.15.22.42.09.55.04-.04.13-.2.26-.17l-.13.36c.31.02.05-.27.26-.33.09.23.22.09.26.29-.04.05-.22-.01-.26.1.25-.05.59-.05.76.08-.08-.12-.14-.3.02-.41.43-.22.28.2.59.2.03-.2.39-.18.23-.52.12-.07.23.07.32.14.14-.27,1.01-.61.56-.81h-.07s.03-.02.03-.02h0s0,0,0,0c.48-.73,1.53-.73,2.06-1.39l.08.1c.3-.39.76-.77.82-1.2.1-.1.4-.07.46.08.21-.32.12-.45.63-.71-.09.42.23.03-.14.39.4-.29.63-.25.72-.85.13.34.54-.04.6-.28l-.39.13c.12-.24.28-.4.44-.57l.26.35c.52-.25.6-.77.68-1.22.09-.45.18-.83.72-.97-.13-.37-.44.38-.62,0,.26-.36,1.02-.51,1.09-.64.5-.47-.3-.8.11-1.33-.17.02-.57-.07-.5-.56.21-.39.77-.29.79.02-.03.11-.09.14-.13.12,0,.16-.03.36.2.25l-.11-.11c.23-.15.42-.76.6-.54-.01-.38-.18-.22-.34,0,.4-.49.33-.86.62-1.41-.11.07-.3.11-.27.02.42-.81-.16-.45-.08-1.04.29-.28.5.24.44-.39.22-.33.4,0,.49.18-.17-.61.4-1,.49-1.32l.08.32c-.05-.19-.03-.34,0-.49l-.32.13c.07-.17.09-.31.22-.29-.17-.2-.51.07-.73-.31.18-.21-.07-.7.31-.74-.19.71.41-.05.41.58-.04-.12,0-.27.05-.44.05-.02.08.03.1.08.39-.68-.43-.36-.38-1.08.22.1.43-.15.39-.28-.02.3-.38.13-.54-.14.16-.46-.14-.5-.12-.74l-.08.27c-.22-.09-.2-.31-.28-.62.17-.03.13.28.2.17-.39-.33.37-.82.05-1.29.13-.24.41-.06.5-.28-.34-.52.23-.65-.11-1.21-.26.22-.19.23-.55-.12l.38.92-.54-.54c.04.28.3.57.26.75-.27-.26-.2-.23-.43-.07.38-.45-.39-.71-.17-1.2l.73-.13c.18-.76-.64-1.12-.74-2.02l-.03.31c-.32-.02-.22-.51-.43-.74.24-.06.27-.26.37-.44-.15.07-.23-.62-.73-.5l.13-.49c-.2-.71-.95-.45-1.22-1.06.34.05.34-.31.74,0-.11-.2-.18-.4-.33-.32.07-.19-.61-.38-.51-.68-.14-.03-.38.08-.49-.15.03-.05.1-.06.1-.06-.1.06-.34-.25-.46.09.24-.99-1.12-1.55-1-2.4-.38-.32-.8-.74-1.12-1.05.07-.03.09-.08.13,0-.25-.6-.78.21-1.06-.47.05-.53.41.12.37-.15.52-.63-.65-.54-.66-1.19l.12.04c-.07-.45-.85-.38-1.23-.82,0,0,.07-.03.08-.09-.58.04-1.23-.34-1.72-.62.34-.13.3.04.43-.28-.22-.13-.28.44-.71.19-.01-.23-.19-.58,0-.87l.38.28c.1-.5-.48-.37-.62-.59l.15-.13c-.6-.4-.91-.03-1.5-.53l-.03.16c-.63.13-.11-.43-.66-.4l.2-.47c-.29-.08-1.06-.21-1.51-.43.44-.12,1.02.07,1.44.12-.21-.17-.77-.54-1.03-.43.12.03.3.02.34.14-.5.11-.97,0-1.4-.34.65-.71-.99-1.04-.86-1.87-.98-.29-1.43-1.26-2.33-1.89-.15.83-.27-.18-.69.47-.23-.12-.3-.19-.29-.24l-.33-.84c0-.29.29.02.38-.13-.39-.4.02-.4-.13-.79-.11.26-.4.18-.58-.1l.12.56c-.86-.18-.12-.92-.97-1.11l.34-.02c-.39-.16-1.1-.96-1.8-.77,0-.11.08-.33.25-.25-.31-.36-.8-.6-1.25-.86-.45-.26-.81-.57-.92-.97l.19-.07c-.15-.09-.46,0-.47-.28.07-.04.19-.07.14-.14-.11-.02-.56-.13-.63-.38h.29c-.21-.41-.54-.58-.9-.73-.33-.16-.69-.29-.97-.57.44-.33.18-1.02.05-1.36l.07-.03c-.58-.87-1.35-1.27-2.03-2.04.11-.42-.09-.9-.34-1.4-.2-.53-.44-1.1-.48-1.61-.03.18-.4.15-.53,0,.01-.26-.61-.45-.13-.6l.02.08c.4-.35.06-.72-.03-1.08l-.64.17c.63-1.24-1.15-2.35-.44-3.11-.21-.19-.27-.47-.48-.67l.35-.07c-.05-.66-.08-.98-.33-1.75l.28.11c-.08-.44-1.14-.38-1.2-.8l.51-.21c-.11-.8.26-1.64-.32-2.37.08,0,.23.02.27.14-.07-.37.28-1.46-.45-1.28.47-.04.02-.82-.21-1.26l.35.06c-.46-.36-.58-.37-.72-.88.04-.12.28-.11.19.06.17-.4-.34-.32-.13-.81l.21.19c.05-.42-.07-.39-.32-.62-.13-.27.13-.79.45-.84-.19-.07-.43-.31-.33-.56.12-.02.19.07.22.12.27-.67-.36-1.08.06-1.52.12,0,.18-.02.22-.06-.1.54-.13.99-.16.95.32.03.4-.41.82-.02-.24-.37-.64-1.03-.44-1.44.03-.02.07-.03.12-.04l.03.05c.05-.09.03-.19-.01-.28.07-.13.12-.21.15-.34.27-.01.21-.48.26-.69-.35-.04-.25-.32-.58-.1.03-.03.04.05.03.2,0,.03,0,.07.02.1l-.03-.02c-.01.15-.03.34-.06.55-.15-.2-.27-.41-.05-.62-.21-.15-.42-.32-.52-.41.52-.23.88-.75,1.21-.77-.04-.7.24-1.57-.3-2.15-.04-.21.24-.17.35-.21.04.13,0,.25.08.34-.08-.42.21-1.13-.19-1.34.36-.4.32.38.46-.27l.11.13c.56-.51.45-1.1.38-1.72-.03-.31-.07-.63,0-.93.09-.29.29-.57.65-.81-.1.07-.14.11-.22.09.55-.68.78-1.51,1.12-2.31.37-.77.78-1.54,1.47-2.08.34-.33.13-.53.11-.89l.37.13-.07-.64c.16-.76,1.46-.41,1.49-1.49l-.27-.07c.2-.24.55-.85.73-.63-.01-.05-.13-.25.05-.25l.16.12.27-.8c.51-.35.52.6,1.13,0,.16-.29.21-1.09.04-1.09-.1.09-.32.16-.46.03l.13-.3c-.37-.46-.62-1.07-1.44-.78l-.11.65-.32-.07.3-.35c-.37,0-.31.29-.32.54-.14-.07-.27-.09-.38-.04l.05.77c-.22-.1-.17-.48-.51-.3.02.36.55.16.39.58-.37.02-.49-.18-.52.19-.14-.07-.17-.18-.14-.31-.05.32-.44.58-.27.9-.42.01-.48.79-.9.43.05.15.06.65-.07.86-.26-.76-.58.73-1.1.23.14.31.02.59-.15.89-.14.31-.33.63-.34.98-.02-.05-.07-.16-.02-.19-.21.27-.42.26-.62.39.4.29.23.8.36,1.19-.62.12-.38-.5-.84-.61.36.18-.02.82.35.85-.42.13-.26.17-.7.12.51.33-.05.31.18.72-.46.28-.56-.15-.61.39-.27.14-.28-.37-.28-.37ZM5.98,114.14h0c0-.1.01-.19.01-.24,0,.05,0,.12,0,.24ZM5.85,115.12c.03-.12.05-.27.07-.42.13-.02.25.03.22.13-.07-.06-.18.16-.3.3ZM8.56,113.43c.03.15-.05.19-.12.2,0-.07,0-.15,0-.26l-.04-.02c.06.02.12.05.17.08Z"/>
        <path class="cls-2" d="M8.14,113.09s-.02-.04-.02-.06c-.03.02-.07.05-.09.07l.1.07v-.08Z"/>
        <path class="cls-2" d="M30.28,185.87h.02s-.04-.01-.06-.02c.02,0,.03.02.04.02Z"/>
        <polygon class="cls-2" points="6.26 128.82 6.35 128.8 6.25 128.73 6.26 128.82"/>
        <path class="cls-2" d="M24.95,186.77s-.04-.05-.09-.07c0,.02.04.05.09.07Z"/>
        <path class="cls-2" d="M22.77,187.08l-.32-.08c.14.05.24.07.32.08Z"/>
        <path class="cls-2" d="M21.08,187.05c-.02.06-.02.11-.03.15h0s.02-.15.02-.15Z"/>
        <path class="cls-2" d="M37.07,169.73s0-.04-.02-.06c-.07-.15-.04-.05.02.06Z"/>
        <path class="cls-2" d="M36.25,177.58c-.02-.11-.05-.21-.05-.3-.08.12-.13.22.05.3Z"/>
        <polygon class="cls-2" points="34.33 161.79 34.34 161.78 34.31 161.74 34.33 161.79"/>
        <path class="cls-2" d="M36.36,176.93c-.12.1-.16.22-.16.34.07-.1.16-.21.16-.34Z"/>
        <path class="cls-2" d="M14.07,185.63l-.07-.04s-.02.04-.03.05h.1Z"/>
        <path class="cls-2" d="M13.97,185.63h-.1s.07.03.1,0Z"/>
        <path class="cls-2" d="M13.67,185.64h.21c-.06-.03-.13-.08-.21,0Z"/>
        <path class="cls-2" d="M16.1,186.48l.06-.12s-.04.06-.06.12Z"/>
        <path class="cls-2" d="M16.76,186.61c-.15-.07-.32-.36-.56-.33l-.05.09c.15-.16.41.41.6.24Z"/>
        <path class="cls-2" d="M19.44,188.57l-.6-.16c.09.14.22.34-.06.35.75.47-.13-.32.66-.19Z"/>
        <path class="cls-2" d="M21.35,188.78c-.33.08.01.2,0,.28.21-.14.26-.17,0-.28Z"/>
        <path class="cls-2" d="M33.85,183.43l.2.25c.16-.21-.09-.09-.2-.25Z"/>
        <polygon class="cls-2" points="34.22 180.42 33.93 180.48 34.1 180.74 34.22 180.42"/>
        <path class="cls-2" d="M36.97,180.41l-.02.12c.04-.15.1-.29.13-.44-.03.11-.07.21-.11.31Z"/>
        <path class="cls-2" d="M35.45,157.92l-.26.3c.15.1.54-.14.26-.3Z"/>
        <path class="cls-2" d="M28.02,151.35c.04-.22-.1-.49-.35-.44.16.16.23.41.35.44Z"/>
        <polygon class="cls-2" points="10.06 130.33 10.24 130.47 10.03 130.17 10.06 130.33"/>
      </g>
      <g>
        <path class="cls-2" d="M244.98,117.42c-.13-.11-.35.01-.25.37l.45.18-.21-.55Z"/>
        <path class="cls-2" d="M244.64,120.01c.28.39.68.85,1.03.51-.45-.37-.32-.5-.86-.89-.11-.36.02-.66.18-.62-.13-.11,0-.59-.3-.74-.23.53-.15,1.13.22,1.72-.07.15-.2.03-.28.02Z"/>
        <path class="cls-2" d="M239.18,154.93l.14-.19c-.05.05-.1.11-.14.19Z"/>
        <path class="cls-2" d="M227.2,173.34c.1-.13.12-.21.09-.24-.08.14-.15.25-.09.24Z"/>
        <path class="cls-2" d="M224.31,175.77c.07-.05.12-.09.17-.14-.08.03-.16.08-.17.14Z"/>
        <path class="cls-2" d="M239.18,154.93l-.36.49c.11.09.22-.23.36-.49Z"/>
        <path class="cls-2" d="M246.18,124.87c-.03-.13-.07-.23-.13-.32l.07.3s.04,0,.07.02Z"/>
        <path class="cls-2" d="M242.07,145.67l.04-.17c-.03-.06-.08-.13-.13-.19l.08.36Z"/>
        <path class="cls-2" d="M243.55,138.39c-.04.16.3.28.44.36-.13-.12-.18-.25-.18-.4-.07-.01-.15,0-.26.04Z"/>
        <path class="cls-2" d="M244.85,126.64l-.05-.21c.01.05.04.14.05.21Z"/>
        <path class="cls-2" d="M240.4,150.71c-.05,0-.11,0-.14.02.04.02.09,0,.14-.02Z"/>
        <path class="cls-2" d="M52.79,178.84s-.01-.04-.01-.06c-.03.04-.04.07.01.06Z"/>
        <path class="cls-2" d="M44.01,179.59l.11-.06c-.01-.07-.02-.13-.04-.19l-.07.25Z"/>
        <path class="cls-2" d="M218.97,180s.02,0,.03-.01c.11-.14.04-.07-.03.01Z"/>
        <path class="cls-2" d="M159.74,192.79c.66.42-1.22.22-.2.73-.08-.15,1.05-.39.2-.73Z"/>
        <path class="cls-2" d="M246.14,125.07l.03.31c0-.14,0-.24-.03-.31Z"/>
        <path class="cls-2" d="M159.54,193.52h0s.11.05.11.05c-.04-.02-.07-.03-.1-.05Z"/>
        <path class="cls-2" d="M205.87,188.44c.05.04.13.06.21.07-.02-.03-.07-.05-.21-.07Z"/>
        <path class="cls-2" d="M216.23,183.01l-.26.13c.11-.04.19-.09.26-.13Z"/>
        <path class="cls-2" d="M200.4,191.12c-.16.02-.23-.01-.42.09.02.01.05.02.08.02.06-.07.15-.12.34-.12Z"/>
        <path class="cls-2" d="M194.27,192.79s.09.03.13.04c.06-.02.13-.04.19-.06l-.32.02Z"/>
        <path class="cls-2" d="M71.87,176.88c-.14-.1-.22-.21-.29-.32.09.25-.84.33.29.32Z"/>
        <path class="cls-2" d="M245.98,124.89c.09.03.14.09.17.18-.01-.07-.02-.15-.03-.22-.05-.02-.1-.02-.13.03Z"/>
        <path class="cls-2" d="M201.02,193.83l-1.03.25c.29-.05.67-.14,1.03-.25Z"/>
        <path class="cls-2" d="M116.94,185.25l-.24-.02c.09.03.17.04.24.02Z"/>
        <path class="cls-2" d="M197.01,195c-.21-.07-.42-.08-.63-.07-.04.04-.08.07-.1.11.24,0,.48-.03.73-.04Z"/>
        <path class="cls-2" d="M71.58,176.56h0s0,0,0,0Z"/>
        <path class="cls-2" d="M64.96,177.51c.95-.04.43-.47.62-.75,1.14-.19.55.32.94.53.71-.15,1.24-.63,1.78-.59.04.08.15.11.03.2.76-.36,2.25,0,3.14-.46.07.04.1.08.11.12-.14-.23-.16-.47-.12-.64.44,0,.82-.29.97.02-.27-.01-.29.11-.42.2l.46-.13c.4.44-.63.15-.63.47.89-.16,1.94-.43,2.61-.27.12.43-1.59.05-.71.48l-1.04-.22c.78.71-.63-.07.08.68,1.37.2,1.54-.13,2.91.07.32-.22-.08-.36.24-.57,1.99-.32,1.45,1.15,2.93.73.4-.24.59-.77,1.59-.38l-.4.44c1.32.18.84-.61,2.19-.15-.27.16-1.06.05-.87.13.86.48.67-.22,1.36-.12l.09.44c1.42.14,3.02.04,4.6.2-.11.11-.39.19-.05.39,2,.15,4.19.75,6.02,1.41l.79-.21c.17.04.28.23.08.26.71.29.08-.22.47-.29.42.06.51.32.22.37,1.36-.06,3.84.14,5.11.84l-.29.05c1.03.39,1.37-.46,2.28.1l-.2.02c2.26.73,4.89,1.01,6.49,2.03.47-.42,2.21.83,2.54.15,1.21.7.8.73,2.58,1.47.48.17.85-.24,1.48-.15l-.09.38.93-.16.32.57.6.06c-.22-.08-.44-.3-.37-.4.94.08,2.1.87,2.06,1.06l2.19.28c-.09.14-.46.09-.76.11,1.23-.06.09.45,1.22.39-.11-.12.14-.2.18-.27.45.37,1.62.7,2.51.85l-.24.21c1.54.5,3.33.81,5.08,1.3-.6-.29-.33-.7.2-.6l.1.45c.4-.15-.5-.3.27-.41.64.23.32.57-.1.59l.84.08c.01.13-.19.14-.28.28.4-.15,1.27.78,1.86.48v.13c1.77.48,2.61.56,4.05.93.12-.33.66-.11,1.16-.27,1.03.38,2.14.95,3.42,1.25.94.06.33-.22.79-.32-.01.33,1.27.63.55.68,1.55.33,1.98.41,3.99.62-.18-.18-.41-.29-.26-.37.36.03.77.32.69.46h-.1c2.29.05,4.87,2.05,6.77,1.75h-.11s1.9.02,1.9.02c.83.21-.55.14.04.45,2.07-.14,3.11.65,4.81.54.56.56,1.69.74,2.88.84,1.2.08,2.45.13,3.28.53l-.08-.23c.47-.16.53.19.85.28-.03-.18-.46-.26-.17-.34,1.9.08,3.85.26,5.81.56,1.97.17,3.96.51,5.93.56,1.44.03.79-1.17,2.61-.68l-.5.43c.72-.15,1.45-.2,2.18-.29.73-.09,1.47-.14,2.2-.2.73-.05,1.47-.1,2.19-.18.72-.1,1.43-.27,2.12-.47-.15.12-.14.24-.42.28.64.21,2.2-.31,2.17-.55.44-.04.14.2.43.29.63.11,1.42-.63,1.79-.41.06.04-.15.13-.25.18.36-.23,1.8-.35,1.36-.61,1.08-.06,1.96-.58,2.83-.56.43-.53,1.8-.33,1.82-.91.08.57,1.93-.08,2.49-.53-.16.23.62,0,.44.3.73-.25,1.36-.6,1.14-.83.78.07,1.42-.28,1.97-.62.55-.35,1.02-.65,1.56-.4,2-1.17,3.79-2.31,5.52-3.41.21.53-1.97,1.13-1.62,1.61,1.63-1.14,2.37-2.08,4.08-2.98.47-.19-.11.35-.21.53.78-.59,1.58-1.09,2.33-1.61.77-.5,1.5-1.01,2.09-1.66.03.05-.09.2-.21.34.26-.22.69-.41.5-.59l-.23.25c-.65.02.62-1.43.54-1.62,0,.94,1.44-.9,1.3.4.14-.18.29-.45.14-.55.29-.17.43-.16.29.21.86-.88.35-.82,1.21-1.51.08.1-.06.27-.06.46.29-.53.53-1.1,1.3-1.64,0,.09.15.09-.06.28,1.19-1.08,1.55-2.32,2.97-3.36.02.75.54-.3.94-.05l.55-.78-.43.12c.57-.6.84-1.34,1.41-1.78l-.26.59.95-1.22-.71.54c.36-.79-.5-.33.31-1.06-.11.2.54-.61,1.03-.76h0c.15-.4.28-.83.75-1.23.22-.03.32.42.47.41-.06-.56,1.13-1.57,1.08-2.24-.02.19.17.35.24.33l-.06-.46c.31-.25.38-.26.5-.1.72-.89-.69-.06.31-1-.04.1.03.09-.06.29.93-1.02,1.32-2.29,2.16-3.23.6-.05-.51.97.06.84.92-1.58,1.51-3.48,2.44-4.96l-.2.26c-.47-.53.94-.97,1.05-1.92-.05.22.2.42.16.34.63-1.03.98-2.26,1.51-4.01l.06.27c.44-.58.84-1.66,1.18-2.35-.07-.27.11-.67-.22-.51,1.8-1.85,1.05-4.37,2.42-6.11-.07.24-.03.61.03.42.13-.58.25-1.17.34-1.76-.31.06-.23.18-.54.48-.11-.26-.11-.78,0-1.2-.01.82.45.11.7-.18-.1.03-.17-.1-.26-.1.73-.77-.52-.29.12-1.43l.13.1c.02-.48-.08-.95.06-1.43.37-.14.05.52.31.61.13-.71-.32-1.51.13-2.08.04.32-.06.74-.03,1.06.53-.61.46-.71.61-1.22l-.02.05.38-1.17-.16.29c-.71-1.03.16-1.83-.28-3.11.4,1.23.29.23.65.37.14-.29.32-.75.41-.6-.25-.61.38-.93-.02-1.79.12-.03.06-.61.35-.46-.04-.76-.23.16-.37.08-.17-.59.01-1.25.17-1.99.14-.73.24-1.54-.02-2.37-.2-1.43-.67-1.69-.88-2.99.19-.45.45.35.45.35.17-.72.12-1.26-.08-1.93.12.13.2-.02.32-.23-.07-.54-.47-.33-.34-1.06.14.11.37.25.53.5-.16-.64-.42-1.25-.62-1.89.19-.2.37.36.54.59-.18-.74-.42-1.91-.78-2.09l-.06.49c-.05-.27.27-.18.36.02.34.61,0,.93-.12.98l-.13-.46c-.33.28-.24.74-.07,1.26.15.52.39,1.09.4,1.56l-.55-.36.5.94c-.12.21-.4.37-.51-.09-.22.68.24.59-.04,1.18-.04.07-.07.04-.09-.02l.17.65c-.11-.13-.37.12-.3-.28-.28,1.18.44,1.89.04,2.34l-.03-.1c.13,1.63.38.16.79,1.4l-.97.8.38.18c-.02.17-.06.5-.21.43.22.64.18-.1.4.28-.41.79,0,2.26-.62,2.38.27.32.28-.76.42.13-.66.18,0,1.01-.39,1.72-.31-.27-.05-.94-.44-.24.5.51-.27,1.41-.29,2.04.44.1-.03,1.37-.06,2.43-.14-.09-.65,1.88-1.02,2.79l-.07-.05c.4.29.06,1.24-.03,1.97-.26-.1-.33-.25-.35-.67l-.17.66c.1.19.12.42.06.87l-.29-.26c-.23.88-.15,1.87-.7,2.93.28.17,1.14-.62.95.64-.18-.01-.48-.06-.44-.39-.01.11,0,.41-.13.59l-.11-.56c-.3.47.14.34-.03.74-.23-.09-.27.24-.44.12.01-.11.22-.32.18-.51-.2.44-.54.94-.78,1.06.15,0,.31.11.23.46-.29.87-.38.19-.68.65.08.27-.3.74.03.89-.1.25-.28.23-.41.29-.02.5-.78,2.06-.22,1.72l.07-.1s-.01.05-.02.08h0s0,0,0,0c-.3,1.57-1.51,2.86-2.08,4.29l-.11-.06c-.27.9-.89,1.84-.97,2.55-.13.24-.51.45-.58.28-.26.66-.18.8-.89,1.56.18-.71-.29.11.24-.7-.57.72-.84.79-1.06,1.8-.09-.45-.69.37-.86.77l.54-.41c-.23.43-.49.77-.75,1.11l-.22-.42c-1.42,1.25-1.22,3.24-2.74,3.87-.06.57.77-.68.78-.12-.55.66-1.6.97-1.76,1.18-.9.76-.2,1.25-1.13,2.07.22-.02.62.12.12.91-.61.62-1.16.38-.9-.1.12-.16.23-.21.26-.17.14-.24.33-.56-.01-.41l.04.18c-.39.22-1.15,1.11-1.15.74-.34.56,0,.37.37.07-.9.65-1.18,1.24-2.05,1.96.18-.07.42-.07.3.06-1.3,1.04-.32.71-1.08,1.55-.62.28-.21-.55-.89.37-.6.37-.37-.19-.26-.46-.53.93-1.54,1.14-2,1.49l.32-.44c-.19.27-.39.44-.59.61l.42.02c-.27.17-.47.35-.55.25-.12.36.51.21.2.84-.43.15-.9.94-1.26.72,1.12-.73-.36-.22.47-.97-.14.17-.34.34-.62.49-.06,0-.02-.09.04-.16-1.2.51-.16.72-1.2,1.53,0-.28-.5-.15-.64,0,.43-.31.43.14.14.57-.78.36-.66.65-1.03.9l.46-.23c0,.28-.36.52-.81.92-.14-.11.37-.41.15-.35-.31.7-1.46.49-2.07,1.22-.43.11-.26-.33-.62-.21-.7.79-1.1.31-1.88,1.07.42.1.43,0-.07.65l1.4-1.09-.74.96c.46-.27.87-.74,1.17-.86-.33.49-.33.4.02.47-.86,0-1.11.98-2,1.16l-.35-.66c-1.27.3-1.77,1.44-3.35,1.98l.53-.11c-.07.36-.9.48-1.33.81-.06-.25-.4-.18-.67-.23.11.17-1.1.47-1.05.98l-.8-.02c-1.26.4-1.14,1.23-2.39,1.59.27-.38-.33-.35.4-.82-.4.14-.78.23-.72.39-.29-.07-1,.74-1.46.6-.14.15-.12.42-.59.53-.07-.03-.03-.12-.03-.12.04.12-.68.37-.19.51-1.49-.38-3.54,1.14-4.85.68-.9.28-1.98.59-2.81.79.04-.08-.02-.12.14-.13-1.19.03-.58.84-1.95.79-.74-.3.67-.32.22-.4-.31-.78-1.58.34-2.53,0l.21-.08c-.71-.17-1.61.56-2.74.57,0,0,.05-.08,0-.12-.72.48-2.17.73-3.25.94.32-.35.48-.21.26-.52-.48.08.17.53-.79.66-.33-.17-1.03-.3-1.14-.65l.91-.04c-.49-.44-1.18.04-1.66-.02l.06-.2c-1.39.09-1.4.6-2.91.58l.16.15c-.83.46-.69-.29-1.52.04l-.24-.5c-.54.1-1.92.42-2.9.49.57-.35,1.72-.51,2.43-.7-.54-.02-1.82-.02-2.11.22.22-.04.5-.15.71-.07-.68.38-1.56.53-2.63.42.26-.95-2.78-.45-3.48-1.26-1.92.11-3.72-.55-5.9-.84.67.86-.64-.08-.62.7-.52-.03-.71-.07-.75-.13l-1.47-.69c-.33-.28.51-.09.49-.27-1.1-.23-.41-.39-1.11-.71.1.3-.45.32-1.06.1l.83.52c-1.62.11-1.22-.89-2.85-.78l.54-.14c-.83,0-2.94-.55-3.85-.14-.12-.12-.27-.36.1-.34-1.88-.5-4.39-.27-5.78-1.01l.19-.15c-.37-.03-.7.2-1.1-.09.04-.07.19-.15.02-.2-.2.02-1.02.09-1.46-.12l.45-.11c-1.79-.68-2.96-.22-4.55-.48.14-.54-1.27-1.07-1.97-1.36l.05-.07c-2.13-.65-3.76-.53-5.81-.88-1.07-.92-4.11-1.4-6-2.29.28.18-.17.4-.53.35-.43-.24-1.39,0-1.18-.46l.16.06c-.22-.58-1.21-.72-1.95-.94l-.3.6c-1.69-1.48-5.22-1.1-6.06-2.22-.52.03-1.1-.13-1.61-.1l.12-.34c-1.29-.45-1.93-.66-3.58-1.01l.4-.16c-.91-.27-1.42.68-2.27.48l-.12-.58c-1.6-.41-3.12-1.26-4.83-1.19.04-.07.13-.21.39-.16-.75-.22-2.86-1.05-2.75-.28.09-.47-1.66-.43-2.58-.43l.21-.31c-.84.27-.88.37-1.94.28-.24-.09-.16-.32.15-.16-.78-.35-.7.19-1.66-.19l.41-.14c-.83-.2-.79-.07-1.31.09-.55.03-1.57-.41-1.64-.75-.15.16-.66.34-1.14.16-.05-.13.15-.17.25-.19-1.37-.48-2.17.03-3.08-.48,0-.12-.05-.19-.13-.23,1.12.21,2.02.38,1.94.39.06-.32-.84-.53-.04-.84-.78.11-2.11.41-2.97.11-.04-.04-.08-.07-.1-.13l.1-.02c-.2-.06-.39-.06-.57-.03-.28-.09-.45-.16-.72-.2-.07-.28-1.03-.29-1.49-.37-.01.35-.6.21-.08.58-.07-.03.09-.03.4,0,.07,0,.15,0,.2,0l-.04.03c.3.04.69.08,1.14.14-.39.13-.78.22-1.26-.04-.27.19-.55.39-.71.47-.55-.57-1.72-1.01-1.86-1.33-1.43.05-3.32-.21-4.26.36-.4.04-.44-.24-.58-.35.24-.04.51,0,.64-.09-.81.07-2.37-.09-2.59.35-.99-.27.59-.39-.8-.4l.19-.13c-2.71-.94-4.45,1.04-7.46.07.21.04.32.08.36.16-1.72-.14-3.5.04-5.26.21-1.75.27-3.5.45-5.23.38-.98.04-1.03.35-1.58.67l-.27-.34-.91.6c-1.34.52-2.62-.41-4.25.62l.29.19c-.64.11-1.96.64-1.93.33-.05.06-.14.3-.42.25l-.07-.18-1.42.82c-1.22.25-.05-.81-1.79-.28-.62.28-1.63,1.14-1.35,1.19.26-.08.7-.1.78.08l-.54.29c.09.58-.13,1.28,1.4,1.21l.85-.66.4.17-.81.28c.55.1.76-.22,1.04-.48.12.12.29.17.5.16l.79-.84c.18.18-.29.57.38.49.37-.39-.57-.35.12-.76.54.1.47.37.96,0,.12.13.03.25-.18.37.45-.3,1.29-.4,1.47-.76.57.2,1.66-.5,1.73.05.13-.16.77-.66,1.23-.76-.71.8,1.74-.27,1.65.47.52-.68,2.19-.69,3.26-1.15-.06.05-.17.16-.27.14.64-.02.84.14,1.26.21.02-.5.99-.71,1.49-1.07.82.39-.41.62-.12,1.05-.08-.39,1.3-.54,1.01-.84.62.23.52.09.86.46.06-.62.54-.13,1.01-.53.88.26.26.56,1.19.33.46.17-.37.42-.37.42ZM87.45,177.84h0c-.19-.02-.36-.03-.47-.04.1,0,.23.02.47.04ZM89.32,178.16c-.23-.05-.51-.11-.81-.16-.05-.13.05-.24.23-.2-.12.06.32.21.58.36ZM85.69,175.11c.31,0,.4.08.43.15-.14-.01-.31-.03-.54-.03-.01.01-.03.03-.04.04.04-.06.08-.12.15-.16Z"/>
        <path class="cls-2" d="M85.08,175.49s-.07.01-.13,0c.06.04.11.07.17.1.04-.03.08-.06.12-.09-.06,0-.11-.01-.16-.02Z"/>
        <path class="cls-2" d="M239.34,154.71l-.02.03s.05-.05.08-.06c-.03.02-.04.01-.06.02Z"/>
        <polygon class="cls-2" points="114.83 184.86 114.86 184.77 114.67 184.8 114.83 184.86"/>
        <path class="cls-2" d="M243.88,145.09s.08-.04.12-.11c-.02,0-.07.05-.12.11Z"/>
        <path class="cls-2" d="M244.96,140.6l.23-.62c-.12.27-.18.46-.23.62Z"/>
        <path class="cls-2" d="M245.67,137.12c-.06-.05-.1-.07-.14-.09h0s.14.09.14.09Z"/>
        <path class="cls-2" d="M217.8,184.78s-.07.06-.1.09c-.22.25-.06.1.1-.09Z"/>
        <path class="cls-2" d="M229.52,172.72c-.07.18-.13.35-.23.51.22-.21.37-.38.23-.51Z"/>
        <polygon class="cls-2" points="201.13 193.81 201.13 193.8 201.02 193.83 201.13 193.81"/>
        <path class="cls-2" d="M228.78,173.82c.25-.18.4-.38.52-.58-.18.17-.4.36-.52.58Z"/>
        <path class="cls-2" d="M245.91,121.7v-.17s-.05,0-.06-.01l.06.19Z"/>
        <path class="cls-2" d="M245.84,121.51l-.06-.18c.01.09.02.16.06.18Z"/>
        <path class="cls-2" d="M245.64,120.94l.14.39c-.02-.14-.03-.31-.14-.39Z"/>
        <path class="cls-2" d="M246.15,126.42l.13.05s-.07-.05-.13-.05Z"/>
        <path class="cls-2" d="M246.21,127.85c.02-.34.25-.87.16-1.34l-.1-.04c.19.22-.28,1.07-.06,1.38Z"/>
        <path class="cls-2" d="M244.46,133.71l.19-1.16c-.15.2-.35.45-.35-.08-.51,1.44.33-.28.16,1.24Z"/>
        <path class="cls-2" d="M243.89,137.3c.01-.63-.2-.02-.27-.06.08.41.1.51.27.06Z"/>
        <path class="cls-2" d="M235.42,161.91l-.25-.22c-.19.44.11.07.25.22Z"/>
        <polygon class="cls-2" points="234.14 167.09 234.57 166.8 234.46 166.44 234.14 167.09"/>
        <polygon class="cls-2" points="230.56 168.2 230.64 168.01 230.26 168.72 230.56 168.2"/>
        <path class="cls-2" d="M195.3,192.25l.24.35c.3-.14.26-.58-.24-.35Z"/>
        <path class="cls-2" d="M176.57,194.79c-.21-.2-.74-.35-1.07-.16.43.04.85.21,1.07.16Z"/>
        <polygon class="cls-2" points="120.59 183.17 121 183.15 120.27 183.06 120.59 183.17"/>
      </g>
      <g>
        <path class="cls-2" d="M246.25,108.79c.03.15.26.21.37-.1l-.23-.39-.14.5Z"/>
        <path class="cls-2" d="M247.88,107.17c.01-.43-.08-.96-.51-.9.16.5-.02.51.18,1.07-.11.31-.37.45-.47.34.03.15-.31.41-.18.68.46-.24.72-.72.76-1.33.13-.07.17.08.22.14Z"/>
        <path class="cls-2" d="M251.93,75.53v.22c0-.06,0-.14,0-.22Z"/>
        <path class="cls-2" d="M244.75,56.69c.09.13.16.16.19.15-.1-.11-.18-.2-.19-.15Z"/>
        <path class="cls-2" d="M243.23,53.53c.04.07.07.12.1.18-.02-.08-.05-.16-.1-.18Z"/>
        <path class="cls-2" d="M251.93,75.53v-.56c-.12-.01-.02.29,0,.56Z"/>
        <path class="cls-2" d="M248.83,102.77c-.02.11-.03.2-.01.3l.06-.26s-.03-.02-.05-.04Z"/>
        <path class="cls-2" d="M253.38,84.36v.17c.06.05.11.09.18.13l-.18-.3Z"/>
        <path class="cls-2" d="M253.3,91.25c.03-.15-.29-.24-.43-.31.13.1.18.22.2.36.06,0,.14,0,.23-.05Z"/>
        <path class="cls-2" d="M250.56,101.79l-.02.2c0-.05.01-.14.02-.2Z"/>
        <path class="cls-2" d="M252.99,79.44s.08-.05.11-.08c-.04,0-.08.04-.11.08Z"/>
        <path class="cls-2" d="M94.89,9.65s-.01-.03-.02-.05c-.03.04-.03.07.02.05Z"/>
        <path class="cls-2" d="M87.3,11.62l.08-.07c-.02-.06-.05-.11-.08-.16v.23Z"/>
        <path class="cls-2" d="M239.74,48.17s0,.02.01.03c.13.11.07.04-.01-.03Z"/>
        <path class="cls-2" d="M191.41,16.77c.51.5-1.13-.01-.32.62-.04-.16,1.01-.16.32-.62Z"/>
        <path class="cls-2" d="M248.93,102.63l.1-.25c-.06.11-.09.19-.1.25Z"/>
        <path class="cls-2" d="M191.09,17.4h0s.08.07.08.07c-.03-.03-.05-.04-.08-.07Z"/>
        <path class="cls-2" d="M229.26,37.88c-.01.06,0,.14.02.21.02-.03.02-.08-.02-.21Z"/>
        <path class="cls-2" d="M236.79,45.77l-.15-.23c.05.1.1.17.15.23Z"/>
        <path class="cls-2" d="M224.54,34.73c-.1-.11-.12-.17-.3-.26,0,.02.01.04.02.07.08,0,.17.05.28.19Z"/>
        <path class="cls-2" d="M219.75,31.35s.04.08.05.11c.05.03.11.06.17.09l-.22-.2Z"/>
        <path class="cls-2" d="M111.78,6.35c-.13-.08-.22-.17-.28-.27.1.22-.73.38.28.27Z"/>
        <path class="cls-2" d="M249,102.83c-.06-.06-.08-.12-.07-.21-.02.06-.04.12-.06.18.04.03.08.05.12.02Z"/>
        <path class="cls-2" d="M222.82,36.64l-.7-.58c.18.18.44.39.7.58Z"/>
        <path class="cls-2" d="M152.94,9.28h-.21c.08.02.15.03.21,0Z"/>
        <path class="cls-2" d="M219.89,34.55c-.07-.19-.17-.34-.29-.48-.05,0-.09,0-.13,0l.43.47Z"/>
        <path class="cls-2" d="M111.5,6.08h0s0,0,0,0Z"/>
        <path class="cls-2" d="M105.63,7.46c.85-.1.35-.46.49-.73,1.01-.24.52.25.89.43.62-.19,1.07-.64,1.55-.68.04.07.14.08.04.18.65-.41,2.02-.19,2.78-.68.06.03.09.07.11.1-.14-.2-.18-.42-.16-.57.39-.04.71-.33.87-.06-.24,0-.25.12-.36.22l.4-.15c.39.38-.55.17-.53.47.79-.19,1.7-.55,2.32-.48.15.39-1.42.2-.59.51l-.95-.1c.76.58-.58-.01.13.61,1.24.05,1.37-.27,2.62-.22.27-.23-.1-.32.17-.55,1.76-.43,1.41.96,2.7.41.33-.26.46-.78,1.39-.51l-.31.44c1.2.05.69-.63,1.95-.32-.23.17-.95.14-.77.19.82.36.58-.25,1.21-.24l.12.39c1.28-.07,2.71-.27,4.14-.3-.08.11-.33.23,0,.36,1.8-.1,3.83.23,5.54.61l.69-.29c.15.02.27.18.1.23.66.18.05-.21.39-.32.39,0,.49.23.24.32,1.21-.21,3.44-.3,4.66.18l-.25.08c.96.23,1.17-.57,2.04-.15l-.18.04c2.1.38,4.47.39,6.01,1.13.38-.45,2.05.53,2.29-.12,1.15.52.79.58,2.44,1.08.44.11.74-.3,1.31-.28l-.05.35.82-.24.33.49h.54c-.2-.06-.41-.23-.36-.33.85-.02,1.94.6,1.93.78l1.98.07c-.07.13-.4.12-.67.16,1.09-.16.11.4,1.12.26-.11-.1.11-.2.14-.26.43.29,1.49.52,2.3.6l-.2.21c1.41.35,3.02.51,4.6.88-.54-.24-.32-.63.16-.56l.1.41c.35-.16-.46-.25.23-.39.59.18.3.51-.06.55l.75.03c.02.12-.17.14-.24.27.35-.17,1.16.65,1.67.36v.12c1.59.39,2.35.42,3.63.74.11-.31.59-.11,1.04-.26.92.35,1.9.85,3.04,1.15.84.06.3-.2.71-.29-.02.3,1.12.59.47.63,1.37.33,1.75.43,3.53.7-.15-.17-.35-.28-.21-.35.32.05.67.33.59.45h-.09c2.06.14,4.16,2.18,5.85,2.1h-.09s1.67.22,1.67.22c.7.29-.5.07-.03.42,1.85.1,2.62,1,4.12,1.18.75,1.22,3.79,1.36,4.99,2.48v-.22c.44-.04.39.29.64.44.02-.16-.33-.33-.06-.34,3.19,1.07,6.23,3.01,9.19,4.71,1.09.6,1.12-.65,2.3.53l-.57.13c2.46.76,4.55,2.44,6.86,3.37-.17,0-.23.1-.44-.03.31.51,1.65,1,1.77.82.32.22-.03.22.11.44.37.4,1.3.4,1.39.78.02.06-.17,0-.26-.04.36.07,1.31.89,1.21.44.7.63,1.57.84,2.07,1.43.6-.02,1.2,1.04,1.62.72-.35.38,1.08,1.28,1.69,1.44-.25,0,.31.44,0,.47.54.39,1.09.68,1.16.4.61,1.22,2.25,1.15,2.29,2.2.87.5,1.65,1.05,2.42,1.59.76.54,1.51,1.07,2.19,1.66-.2.17-.57-.16-.92-.48-.37-.3-.73-.59-.88-.36,1.41.95,2.39,1.34,3.53,2.58.26.35-.34-.01-.51-.05,1.34,1.05,2.25,2.36,3.46,3.29-.04.03-.18-.06-.31-.15.21.21.4.57.55.39l-.24-.18c-.06-.59,1.31.41,1.49.34-.85.06.85,1.24-.33,1.19.16.12.41.23.5.09.16.25.14.38-.19.27.78.73.72.29,1.32,1.05-.09.07-.25-.06-.41-.05.47.24.96.49,1.38,1.19-.09,0-.1.13-.25-.06.91,1.06,1.88,1.58,2.61,2.95-.68-.09.17.52-.15.83l.54.62v-.39c.38.61.98.99,1.19,1.59l-.44-.36.79,1.1-.27-.73c.58.51.43-.35.84.54-.13-.15.35.64.31,1.1h0c.29.25.6.5.76,1.03-.05.19-.47.13-.51.25.49.14.9,1.44,1.41,1.69-.14-.1-.35,0-.37.06l.39.14c.06.35.04.41-.15.44.38.94.36-.52.65.66-.06-.08-.08-.02-.21-.18.2.57.5,1.07.76,1.58.25.51.5,1.02.63,1.56-.28.46-.45-.86-.66-.37.33.72.76,1.44,1.15,2.16.36.74.69,1.49.88,2.24l-.04-.29c.64.02.1,1.17.56,1.85-.09-.17-.39-.15-.31-.12.16,1.05.72,2.03,1.26,3.56l-.19-.16c-.02.64.24,1.62.3,2.29.19.17.24.55.42.28-.23,1.09-.04,2.05.24,2.99.29.93.51,1.86.18,2.8-.02-.22-.17-.51-.16-.34l.25,1.55c.26-.14.15-.21.33-.55.17.19.32.63.35,1.02-.23-.7-.42.02-.56.33.08-.05.17.05.26.02-.48.83.54.13.21,1.26l-.14-.06c.07.42.25.81.21,1.27-.31.18-.14-.45-.4-.48,0,.63.61,1.27.24,1.84-.06-.27-.06-.66-.14-.94-.36.62-.28.69-.37,1.15v-.04s-.23,1.05-.23,1.05l.12-.26c.73.85.07,1.62.43,2.74-.34-1.09-.26-.2-.6-.33-.14.26-.31.65-.39.52.21.53-.34.79-.04,1.55-.12.01-.09.53-.35.37,0,.66.22-.12.35-.04.06.26.04.54-.03.82-.08.28-.21.57-.33.88-.24.61-.48,1.27-.38,2.04-.1,1.26.15,1.58-.01,2.77-.29.32-.29-.44-.29-.44-.35.55-.46,1.02-.53,1.63-.05-.15-.17-.06-.36.07-.15.45.26.44-.14.97-.08-.15-.21-.35-.24-.61-.12.55-.13,1.15-.26,1.73-.24.06-.14-.44-.18-.68-.18.63-.46,1.64-.3,1.94.1-.11.2-.22.28-.33-.08.23-.29,0-.27-.18,0-.62.41-.7.52-.69l-.09.42c.77-.13.55-1.6.9-2.35l.32.5c-.02-.32-.02-.63-.05-.94.17-.13.47-.17.41.26.41-.5,0-.57.41-.98.06-.04.07,0,.07.05l.04-.61c.06.14.35,0,.18.34.59-.95.18-1.76.65-2.04v.09c.2-1.49-.3-.23-.45-1.41l1.02-.53-.31-.22c.05-.15.14-.44.27-.35-.11-.61-.17.06-.32-.31.52-.65.22-2.02.8-2.09-.23-.3-.31.66-.38-.14.63-.13.03-.91.41-1.54.28.24.02.86.4.22-.44-.47.28-1.3.21-1.89-.42-.06-.08-1.25-.15-2.22.18.07.25-1.79.41-2.69l.07.03c-.44-.17-.31-1.09-.46-1.75.26.02.36.13.5.49l-.04-.63c-.15-.14-.23-.34-.3-.74l.33.14c-.08-.84-.45-1.67-.37-2.76-.3-.02-.71.93-1.05-.17.15-.06.42-.13.52.16-.03-.09-.18-.33-.14-.53l.33.42c.05-.5-.26-.23-.28-.62.23-.02.12-.31.31-.27.03.1-.05.35.06.49-.02-.44.05-.99.2-1.19-.12.06-.3.04-.38-.28-.13-.83.23-.32.29-.83-.17-.18-.11-.74-.45-.69-.05-.24.1-.31.17-.42-.23-.4-.44-1.99-.7-1.44v.11s-.02-.04-.03-.07h0s0,0,0,0c-.56-1.33-.48-2.91-.97-4.25l.11-.03c-.31-.79-.63-1.77-1.04-2.27-.08-.24.01-.62.18-.56-.29-.58-.41-.61-.55-1.55.41.54.1-.28.36.58-.16-.83-.1-1.06-.71-1.79.39.18.11-.72-.12-1.06l.02.63c-.21-.4-.33-.77-.45-1.15l.43.05c-.23-1.8-2.02-2.49-1.85-4.03-.44-.29.23.93-.23.7-.27-.74-.22-1.7-.32-1.93-.34-1.06-.98-.62-1.39-1.69-.06.2-.28.49-.83-.16-.37-.69-.02-1.12.34-.75.11.16.12.26.08.27.18.19.41.45.37.1l-.17-.02c-.09-.4-.68-1.32-.35-1.23-.43-.44-.33-.1-.15.32-.38-.96-.82-1.36-1.3-2.3.03.18-.01.39-.11.26-.74-1.35-.6-.4-1.25-1.21-.17-.6.53-.12-.22-.87-.25-.6.21-.33.45-.18-.75-.63-.93-1.54-1.23-2l.4.33c-.24-.2-.39-.39-.55-.59l-.04.4c-.15-.26-.3-.46-.21-.53-.33-.13-.21.46-.78.15-.13-.4-.85-.84-.66-1.18.67,1.05.2-.34.89.45-.16-.13-.31-.33-.46-.59,0-.06.08-.01.15.04-.51-1.13-.67-.16-1.46-1.09.26-.02.11-.47-.06-.59.32.38-.1.4-.52.17-.4-.7-.65-.56-.9-.89l.25.4c-.26.02-.48-.31-.91-.65.09-.14.42.28.34.09-.68-.19-.67-1.24-1.44-1.69-.17-.38.25-.3.08-.61-.84-.5-.52-.94-1.4-1.48.02.4.1.38-.6.09.44.33.89.66,1.32,1-.34-.16-.69-.3-1.04-.45.35.34.88.6,1.04.85-.51-.2-.42-.21-.42.12-.18-.77-1.13-.75-1.49-1.49l.49-.48c-.64-1.05-1.75-1.19-2.79-2.31l.29.41c-.33.07-.73-.59-1.17-.83.18-.14,0-.41-.06-.66-.08.14-.85-.73-1.25-.46l-.34-.66c-.89-.87-1.49-.39-2.38-1.16.44.02.11-.44.85-.1-.31-.24-.57-.49-.67-.36-.1-.25-1.06-.41-1.22-.8-.19-.02-.38.14-.72-.14-.01-.07.07-.09.07-.09-.07.09-.64-.29-.48.15-.56-1.29-2.79-1.9-3.32-3-.76-.4-1.67-.9-2.34-1.31.08-.03.06-.09.17,0-.79-.76-.9.19-1.82-.64-.34-.64.66.16.4-.16.24-.73-1.32-.67-1.8-1.47l.19.06c-.41-.56-1.47-.53-2.34-1.08,0,0,.08-.03.06-.1-.8-.01-2.02-.56-2.94-.91.41-.12.47.07.44-.28-.41-.17-.11.48-.93.15-.18-.28-.68-.7-.61-1.02l.75.37c-.19-.56-.96-.49-1.32-.76l.13-.13c-1.17-.53-1.39-.12-2.61-.76l.07.18c-.87.07-.45-.5-1.27-.53v-.51c-.51-.11-1.77-.33-2.61-.62.6-.1,1.61.18,2.28.27-.45-.21-1.53-.67-1.86-.57.2.04.47.05.62.19-.7.08-1.48-.11-2.37-.5.51-.74-2.24-1.22-2.63-2.13-1.73-.36-3.14-1.44-5.05-2.09.43.9-.56-.19-.69.51-.45-.12-.62-.2-.64-.26l-1.2-.88c-.25-.31.47,0,.49-.16-.95-.4-.31-.43-.89-.83.05.29-.46.22-.98-.07l.67.59c-1.48-.13-.98-.98-2.48-1.09l.51-.06c-.75-.11-2.61-.89-3.48-.56-.1-.12-.21-.35.12-.3-1.67-.63-3.95-.61-5.18-1.32l.18-.13c-.33-.05-.64.15-.99-.14.04-.06.18-.13.03-.18-.18,0-.93.04-1.33-.17l.42-.09c-1.61-.68-2.69-.26-4.12-.52.14-.49-1.14-.99-1.78-1.24l.04-.06c-1.94-.58-3.43-.41-5.29-.66-1.01-.79-3.78-1.11-5.54-1.77.26.15-.13.38-.46.36-.41-.19-1.25.1-1.09-.34l.15.04c-.23-.52-1.14-.58-1.83-.72l-.23.58c-1.64-1.23-4.78-.56-5.63-1.5-.46.08-1-.02-1.46.06l.08-.32c-1.2-.27-1.8-.41-3.31-.56l.34-.18c-.84-.16-1.21.77-1.99.68l-.17-.52c-1.48-.2-2.93-.83-4.45-.56.03-.07.09-.2.34-.19-.7-.1-2.67-.65-2.49.05.03-.44-1.53-.19-2.35-.08l.16-.31c-.72.34-.75.45-1.7.47-.22-.06-.17-.28.12-.16-.73-.23-.61.26-1.5.01l.35-.18c-.77-.08-.72.03-1.16.24-.49.09-1.45-.19-1.55-.49-.12.17-.55.38-1,.27-.05-.11.12-.17.2-.2-1.28-.29-1.94.27-2.81-.1-.01-.11-.07-.16-.14-.2,1.02.07,1.85.13,1.77.15.02-.3-.81-.4-.13-.77-.68.19-1.84.59-2.64.44-.04-.03-.08-.06-.1-.11l.09-.03c-.19-.04-.35-.01-.51.03-.26-.06-.42-.1-.67-.11-.09-.25-.95-.16-1.36-.19.03.33-.51.26-.01.54-.06-.02.08-.04.35-.04.06,0,.14-.01.18-.03l-.03.03c.27,0,.63,0,1.03.01-.33.15-.68.28-1.13.09-.22.2-.46.41-.59.51-.55-.47-1.64-.71-1.79-1-1.27.16-2.99.11-3.77.75-.36.09-.42-.17-.55-.26.21-.07.45-.06.56-.15-.72.17-2.13.09-2.28.54-.91-.15.49-.42-.75-.29l.16-.14c-2.5-.57-3.9,1.3-6.67.71.19.03.29.04.33.11-3.14-.06-6.25,1.21-9.36,1.33-.88.1-.9.39-1.36.73l-.28-.29-.77.62c-.57.34-1.16.31-1.79.33-.63,0-1.3.1-1.96.68l.28.14c-.56.18-1.67.82-1.69.55-.04.07-.07.31-.33.3l-.09-.16-1.16.93c-1.06.41-.2-.77-1.66.07-.5.39-1.21,1.38-.95,1.35.22-.12.6-.24.71-.09l-.42.37c.21.5.2,1.15,1.49.8l.59-.75.37.07-.63.41c.49-.01.6-.34.79-.63.13.09.29.12.47.08l.55-.85c.19.14-.16.55.41.39.26-.4-.56-.24-.02-.7.5.03.45.25.84-.14.12.1.06.22-.1.35.35-.32,1.08-.51,1.18-.87.53.1,1.4-.65,1.54-.13.09-.16.63-.63,1.02-.78-.54.82,1.49-.47,1.5.25.4-.66,1.89-.78,2.81-1.28-.05.05-.13.16-.23.15.57-.07.76.06,1.14.08-.02-.46.82-.74,1.24-1.11.77.3-.32.6-.02.98-.11-.37,1.12-.57.84-.83.57.18.48.06.81.38,0-.57.47-.17.86-.59.81.16.27.48,1.09.2.42.12-.3.41-.3.41ZM125.84,5.72h0c-.18,0-.33.01-.42.01.09,0,.21,0,.42-.01ZM127.56,5.8c-.21-.02-.47-.04-.74-.05-.05-.12.02-.23.19-.21-.1.07.3.16.55.27ZM123.99,3.4c.28-.04.37.03.4.1-.13,0-.28,0-.48.02,0,.01-.02.03-.03.04.03-.06.06-.12.11-.16Z"/>
        <path class="cls-2" d="M123.49,3.81s-.06.02-.11.02c.06.03.11.06.16.08.03-.03.07-.07.1-.1-.05,0-.1,0-.15,0Z"/>
        <path class="cls-2" d="M251.93,75.79v-.04s-.01.06-.03.08c.01-.03.02-.03.03-.05Z"/>
        <polygon class="cls-2" points="151.03 9.11 151.04 9.03 150.88 9.08 151.03 9.11"/>
        <path class="cls-2" d="M251.96,85.33s-.06.05-.08.13c.02,0,.05-.06.08-.13Z"/>
        <path class="cls-2" d="M251.83,89.39l-.16.56c.08-.24.13-.42.16-.56Z"/>
        <path class="cls-2" d="M251.42,92.47c.05.05.09.06.13.08h0s-.13-.08-.13-.08Z"/>
        <path class="cls-2" d="M235.32,47.39s-.06-.06-.09-.08c-.23-.17-.09-.04.09.08Z"/>
        <path class="cls-2" d="M244.58,58.87c-.13-.11-.25-.22-.36-.34.1.24.2.43.36.34Z"/>
        <polygon class="cls-2" points="222.9 36.71 222.9 36.71 222.82 36.64 222.9 36.71"/>
        <path class="cls-2" d="M243.89,57.92c.09.26.19.45.33.6-.09-.2-.17-.45-.33-.6Z"/>
        <path class="cls-2" d="M247.75,105.3l-.07.13s.03.02.04.04l.03-.17Z"/>
        <path class="cls-2" d="M247.72,105.47c-.01.06-.02.11-.03.17.04-.07.05-.13.03-.17Z"/>
        <path class="cls-2" d="M247.6,105.98l.09-.34c-.06.11-.13.23-.09.34Z"/>
        <path class="cls-2" d="M249.38,101.55l-.1-.08s.05.06.1.08Z"/>
        <path class="cls-2" d="M249.72,100.35c-.12.28-.46.63-.52,1.05l.08.07c-.11-.24.55-.78.44-1.11Z"/>
        <path class="cls-2" d="M252.39,95.57c-.07.35-.19.69-.3,1.04.17-.16.39-.37.31.12.66-1.26-.31.22,0-1.16Z"/>
        <path class="cls-2" d="M253.06,92.29c0,.58.19.01.25.05-.09-.38-.11-.47-.25-.05Z"/>
        <path class="cls-2" d="M250.2,68.46l.3-.04c-.18-.41-.11.03-.3.04Z"/>
        <polygon class="cls-2" points="247.16 64.75 247.15 65.21 247.47 65.3 247.16 64.75"/>
        <polygon class="cls-2" points="247.95 61.42 248.07 61.58 247.65 60.95 247.95 61.42"/>
        <path class="cls-2" d="M220.78,31.7l-.09.38c.28.12.57-.18.09-.38Z"/>
        <path class="cls-2" d="M205.48,23.34c-.09-.25-.48-.57-.83-.54.34.2.63.5.83.54Z"/>
        <polygon class="cls-2" points="156.06 7.06 156.43 7 155.76 6.98 156.06 7.06"/>
      </g>
      <g>
        <path class="cls-2" d="M16.65,93.3c.12-.03.23-.23.05-.33l-.36.19.31.14Z"/>
        <path class="cls-2" d="M16.07,91.82c-.3-.02-.73.03-.85.39.43-.11.37.05.85-.11.18.11.19.34.07.42.12-.02.19.28.43.17,0-.41-.25-.64-.68-.7,0-.11.12-.14.18-.18Z"/>
        <path class="cls-2" d="M4.93,75.3v.14s.01-.09,0-.14Z"/>
        <path class="cls-2" d="M2.12,63.34c.02.09.06.13.1.13-.03-.08-.07-.15-.1-.13Z"/>
        <path class="cls-2" d="M2.4,61.23s-.02.08-.02.12c.03-.05.05-.1.02-.12Z"/>
        <path class="cls-2" d="M4.93,75.3l-.02-.35c-.12.03-.02.19.02.35Z"/>
        <path class="cls-2" d="M13.39,90.57c.06.04.13.06.2.06-.05-.03-.1-.06-.15-.1l-.05.03Z"/>
        <path class="cls-2" d="M7.59,80.03l.05.08c.05,0,.11,0,.18,0l-.23-.08Z"/>
        <path class="cls-2" d="M9.89,83.49c-.04-.08-.33.08-.46.13.14-.03.23-.01.3.04.05-.03.1-.09.16-.17Z"/>
        <path class="cls-2" d="M13.67,88.96l.11.05s-.08-.04-.11-.05Z"/>
        <path class="cls-2" d="M6.27,77.37s.07-.06.09-.08c-.04.02-.06.05-.09.08Z"/>
        <path class="cls-2" d="M74.13,6.24s0,.04,0,.06c.03-.03.04-.05,0-.06Z"/>
        <path class="cls-2" d="M78.81,8.51h-.07c-.02.07-.04.13-.05.18l.12-.18Z"/>
        <path class="cls-2" d="M2.84,57.46s0,0,0,.02c.03.1.03.04,0-.02Z"/>
        <path class="cls-2" d="M18.39,27.25c-.49.07.21-.73-.45-.53.13.05-.04.75.45.53Z"/>
        <path class="cls-2" d="M13.34,90.45s-.09-.08-.13-.13c.05.07.09.1.13.13Z"/>
        <path class="cls-2" d="M17.94,26.71h0s-.07.02-.07.02c.03,0,.04-.01.07-.02Z"/>
        <path class="cls-2" d="M4.15,48.92c-.06,0-.11.02-.16.04.03,0,.08,0,.16-.04Z"/>
        <path class="cls-2" d="M2.38,55.19l.06-.16c-.04.06-.05.11-.06.16Z"/>
        <path class="cls-2" d="M4.83,45.59c.06-.07.11-.08.12-.21-.02,0-.03,0-.05.02.02.06.02.12-.07.19Z"/>
        <path class="cls-2" d="M6.33,42.38s-.06.02-.09.03c-.01.03-.03.07-.04.11l.13-.14Z"/>
        <path class="cls-2" d="M62.91,5.89c.08.09.14.19.18.29-.06-.23.48-.32-.18-.29Z"/>
        <path class="cls-2" d="M13.52,90.44c-.07.04-.12.05-.18.02l.1.08s.08-.06.08-.1Z"/>
        <path class="cls-2" d="M2.52,44.47l.28-.53c-.1.14-.2.34-.28.53Z"/>
        <path class="cls-2" d="M37.15,11.57l.11-.09c-.05.01-.09.04-.11.09Z"/>
        <path class="cls-2" d="M3.51,42.3c.15-.05.26-.12.35-.2-.01-.03-.02-.07-.04-.1l-.3.3Z"/>
        <path class="cls-2" d="M63.09,6.18h0s0,0,0,0Z"/>
        <path class="cls-2" d="M66.97,5.41c-.56-.02-.27.42-.4.66-.67.12-.3-.31-.53-.53-.42.11-.74.51-1.05.49-.02-.07-.08-.1-.01-.18-.44.34-1.31.02-1.81.45-.04-.04-.06-.07-.07-.11.09.21.11.43.09.59-.25,0-.45.29-.55.01.15,0,.16-.11.23-.2l-.26.13c-.25-.39.35-.16.34-.45-.51.16-1.08.52-1.48.43-.1-.39.91-.18.37-.5l.61.12c-.48-.59.37.02-.08-.62-.81-.07-.89.25-1.69.17-.17.23.08.32-.09.55-1.1.46-.96-.96-1.75-.35-.19.28-.23.79-.84.58l.16-.46c-.78.04-.38.68-1.21.47.12-.19.59-.21.47-.25-.56-.29-.34.29-.74.33l-.13-.38c-.82.13-1.67.56-2.56.77.03-.12.17-.27-.06-.35-.55.19-1.16.27-1.78.3-.61.06-1.22.06-1.8.06l-.35.42c-.1.02-.21-.11-.12-.2-.45-.04.02.21-.15.39-.24.07-.36-.12-.23-.26-.7.41-1.97,1.12-2.84.96l.13-.14c-.64.02-.5.85-1.15.69l.09-.09c-1.34.26-2.68.98-3.82.84-.02.53-1.34.26-1.19.93-.84-.05-.68-.25-1.79-.06-.28.08-.24.56-.55.77l-.14-.33-.31.53-.41-.29-.28.22c.13-.03.33.04.35.14-.42.35-1.29.27-1.37.11l-1.01.81c-.04-.14.13-.28.24-.43-.45.62-.27-.29-.68.28.11.04.05.21.07.28-.37-.06-1,.23-1.42.54l-.02-.26c-.86.38-1.68,1.03-2.61,1.52.39-.08.52.34.27.52l-.29-.27c-.06.3.35-.03.14.42-.35.16-.44-.24-.3-.46l-.34.35c-.08-.08-.01-.19-.06-.33-.05.3-.9.09-.94.59l-.08-.08c-.91.53-1.25.88-1.95,1.37.16.28-.16.4-.22.76-.57.26-1.31.41-1.9.88-.34.44.03.31-.05.61-.2-.22-.8.24-.6-.16-.7.57-.92.7-1.67,1.6.17.02.31-.02.32.1-.13.16-.45.19-.51.06l.02-.06c-.74,1.11-2.85,1.17-3.24,2.32l.02-.06c-.2.31-.4.62-.58.94-.39.29.07-.36-.32-.26-.51,1.14-1.4,1.15-1.84,2.05-1.13-.12-1.8,1.85-2.86,2.2l.19.1c-.03.32-.3.14-.46.25.14.09.32-.08.3.12-1.28,1.73-3.18,3.12-4.67,4.79-.53.62.58,1-.43,1.53l-.13-.46c-.3.79-.77,1.48-1.26,2.16-.47.69-.93,1.38-1.19,2.16-.03-.13-.12-.19-.04-.32-.42.14-.65,1.07-.46,1.19-.15.2-.21-.05-.38.02-.32.21-.13.91-.45.94-.05,0-.03-.13-.02-.19.01.26-.52.9-.14.86-.42.46-.43,1.08-.8,1.43.18.44-.61.86-.19,1.16-.47-.27-.82.8-.74,1.25-.09-.18-.28.24-.43.02-.18.4-.22.83.06.85-.88.54-.1,1.69-.97,1.87-.1,1.34-.31,2.52-.39,3.7-.5-.16.22-1.27-.32-1.35-.04,1.15.28,1.86-.08,2.9-.13.26-.19-.2-.26-.31-.04,1.12-.35,2.12-.22,3.12-.05,0-.09-.12-.11-.22,0,.19-.13.44.1.44l-.04-.19c.38-.26.61.83.8.88-.66-.38-.22.94-1.05.36.04.13.14.3.3.28-.06.18-.15.24-.32.04.09.7.36.47.32,1.09-.11,0-.15-.13-.28-.21.21.33.42.65.29,1.17-.07-.03-.16.03-.15-.13,0,.91.62,1.54.42,2.53-.51-.27-.15.34-.58.42l.14.53.2-.23c0,.47.39.85.28,1.26l-.21-.33.17.86.11-.51c.27.45.54-.1.48.52-.06-.12.04.46-.18.73h0c.16.21.33.42.26.78-.13.11-.48,0-.56.07.39.17.29,1.06.72,1.28-.11-.08-.33-.04-.37,0l.32.14c-.05.23-.09.27-.28.27.07.65.5-.3.41.49-.03-.05-.07-.02-.14-.13.01.39.12.75.23,1.1.14.34.27.68.29,1.04-.37.31-.26-.57-.56-.26.36.98,1,1.93,1.24,2.89v-.19c.61-.06-.06.79.37,1.17-.08-.1-.37-.04-.3-.03.15.67.55,1.28,1.16,2.14l-.2-.06c.03.42.34,1,.44,1.42.19.05.27.29.42.06-.16.8.24,1.32.65,1.8.41.49.82.93.76,1.64-.07-.12-.28-.23-.22-.13.19.28.39.55.61.81.19-.2.07-.19.14-.47.2.03.46.21.58.42-.39-.29-.37.22-.39.46.05-.07.17-.06.23-.11-.14.69.51-.2.6.57l-.14.04c.2.19.48.3.6.56-.2.27-.27-.16-.49-.04.23.34.9.36.85.83-.17-.09-.29-.3-.46-.4-.1.54,0,.53.13.8v-.03s.26.65.26.65l-.02-.2c.96-.05.72.76,1.54,1-.79-.24-.3.08-.61.25.02.2.09.48-.03.48.42.09.13.59.76.68-.07.09.21.27-.05.39.34.27.09-.2.22-.26.71.25.62,1.48,1.62,1.85.69.46,1.09.29,1.73.7.04.3-.44.13-.44.13.16.41.39.61.75.79-.12.01-.13.13-.14.3.23.2.43-.14.59.27-.14.04-.34.12-.53.1.32.19.72.3,1.07.47-.06.21-.37.06-.56.07.38.22.94.6,1.24.46l-.12-.26c.12.09-.12.25-.25.21-.43-.06-.31-.43-.25-.52l.25.12c.13-.33-.09-.49-.38-.61-.28-.14-.64-.25-.81-.45l.49-.18-.66-.11c0-.17.15-.42.38-.28-.09-.44-.35-.12-.39-.54,0-.05.03-.06.07-.05l-.36-.17c.12-.02.2-.28.31-.07-.25-.66-1-.52-.91-.95l.06.02c-.72-.59-.32.17-1.08-.09l.36-.92-.33.16c-.05-.08-.15-.24-.02-.31-.41-.12-.08.14-.39.13-.04-.55-.93-.88-.55-1.3-.32.04.12.46-.34.2.38-.47-.42-.39-.45-.89.32-.08.42.33.4-.17-.57.11-.38-.72-.66-.95-.35.23-.59-.52-1.04-.92.13-.04-.39-1.07-.54-1.61l.07-.02c-.42.13-.64-.39-.93-.7.23-.11.35-.1.57.03l-.2-.32c-.16,0-.29-.07-.46-.26l.32-.07c-.26-.44-.8-.73-.92-1.41-.28.1-.49.85-.99.31.13-.1.36-.24.5-.11-.05-.04-.22-.13-.21-.27l.37.13c-.03-.32-.27-.04-.36-.26.21-.1.06-.23.24-.28.05.04.01.23.13.27-.09-.26-.12-.61-.01-.78-.11.08-.28.13-.39-.03-.25-.45.16-.27.15-.59-.19-.05-.17-.41-.48-.28-.06-.14.08-.23.14-.32-.24-.18-.52-1.11-.74-.7v.07s-.03-.03-.03-.03h0s0,0,0,0c-.33-.33-.46-.77-.57-1.21-.08-.45-.13-.91-.34-1.29l.11-.04c-.29-.44-.45-1.06-.8-1.33-.05-.14.09-.4.24-.38-.18-.35-.32-.36-.28-.96.29.33.14-.18.24.35-.03-.52.11-.67-.33-1.12.33.11.26-.46.11-.67l-.11.39c-.11-.25-.15-.49-.18-.73l.41.04c.22-1.09-1.13-1.67-.52-2.59-.31-.23-.08.58-.44.4-.03-.48.41-1.05.4-1.2.14-.67-.62-.53-.55-1.23-.13.1-.48.23-.67-.27,0-.49.51-.64.65-.35.02.11-.01.17-.06.17.07.15.15.34.27.14l-.14-.05c.11-.25.03-.9.27-.76-.17-.34-.24-.13-.28.14.12-.62-.08-.95.04-1.58-.07.1-.23.2-.23.1.14-.93-.27-.4-.35-1.02.2-.36.5.12.31-.51.13-.38.36-.08.48.07-.3-.57.15-1.06.23-1.37l.1.3c-.06-.18-.05-.32-.04-.47l-.28.16c.06-.17.07-.32.18-.31-.17-.19-.46.12-.69-.25.15-.23-.11-.73.25-.79-.16.73.37-.06.4.56-.04-.12-.03-.27.03-.44.04-.02.07.03.09.08.36-.68-.4-.35-.35-1.08.2.11.39-.14.37-.26-.04.29-.36.11-.48-.18.22-.45-.05-.52,0-.76l-.11.27c-.19-.12-.13-.35-.16-.69.16,0,.07.31.16.2-.31-.41.48-.77.3-1.31.17-.21.38.04.5-.15-.18-.6.39-.55.29-1.17-.31.11-.25.16-.42-.31l-.02,1-.26-.69c-.07.29.04.65-.05.81-.16-.33-.1-.29-.35-.19.49-.33-.07-.84.31-1.26l.67.16c.46-.61-.13-1.31.33-2.15l-.2.25c-.23-.19.13-.55.11-.87.21.09.34-.06.52-.14-.17-.03.21-.63-.2-.85l.4-.3c.32-.67-.33-1.01-.02-1.66.16.29.42.05.42.55.09-.22.2-.4.05-.46.17-.08-.05-.73.25-.85-.05-.13-.26-.25-.13-.5.05,0,.1.05.1.05-.1-.05.03-.45-.3-.33.93-.39.84-1.91,1.68-2.21.18-.5.42-1.09.63-1.52.04.06.1.06.04.12.51-.46-.37-.67.22-1.21.51-.14-.03.44.21.31.7.3.36-.83,1.01-1.03l-.03.13c.42-.19.26-.94.65-1.44,0,0,.04.06.09.07-.1-.58.28-1.31.54-1.88.13.32-.03.32.28.39.12-.25-.44-.21-.19-.71.23-.05.57-.29.86-.15-.1.14-.19.28-.28.43.48.02.37-.54.59-.72l.12.13c.42-.66.07-.94.6-1.6h-.16c-.08-.66.44-.16.47-.73l.44.18c.1-.3.33-1.11.61-1.59.06.46-.21,1.06-.3,1.5.19-.23.62-.81.54-1.08-.04.12-.05.31-.18.36-.05-.52.14-1,.54-1.45.6.67,1.19-1.05,2.01-.89.49-.99,1.53-1.44,2.37-2.32-.79-.18.24-.27-.31-.72.17-.23.26-.3.31-.29.31-.1.61-.21.92-.3.29.01-.09.3.03.39.5-.38.4.04.83-.1-.23-.13-.09-.41.24-.58l-.59.1c.4-.87.96-.07,1.36-.94l-.06.35c.24-.42,1.26-1.07,1.24-1.8.11.01.32.09.2.26.86-.64,1.51-1.97,2.38-2.22l.04.19c.13-.16.08-.48.39-.49.03.06.04.19.12.14.05-.11.26-.55.54-.63l-.07.29c.99-.42,1.04-1.34,1.71-1.93.28.42,1.07.11,1.46-.05l.03.07c1.05-.63,1.54-1.46,2.42-2.22.87.09,2.21-.96,3.35-1.22-.19,0-.16-.37,0-.51.28-.03.51-.64.68-.2l-.09.03c.38.32.82-.02,1.21-.19l-.2-.58c1.37.3,2.56-1.49,3.43-1,.19-.24.5-.38.69-.62l.11.31c.73-.18,1.09-.27,1.93-.66l-.1.28c.49-.16.3-1.11.75-1.3l.29.41c.87-.28,1.87-.14,2.6-.83,0,.07.02.22-.11.28.41-.13,1.68-.12,1.35-.73.12.42.92-.19,1.35-.5v.33c.31-.5.29-.62.83-.87.15.01.18.22-.02.19.49.06.28-.37.87-.32l-.16.24c.47-.07.41-.17.61-.46.27-.19.9-.1,1.02.17.03-.19.24-.47.53-.45.06.1-.03.19-.07.23.81.04,1.1-.57,1.69-.35.03.1.07.15.12.18-.62.09-1.13.15-1.08.12.05.29.56.27.23.73.36-.28.97-.87,1.48-.8.03.02.06.05.08.09l-.05.04c.12.01.21-.03.3-.09.16.02.27.04.42.03.09.23.59.04.84.02-.06-.32.27-.3-.07-.54.04.02-.04.05-.21.08-.04.02-.08.03-.1.05v-.03c-.15.03-.36.07-.61.12.17-.19.36-.36.66-.23.1-.23.22-.46.28-.57.41.41,1.1.59,1.22.86.75-.26,1.79-.3,2.23-.96.22-.09.27.16.36.25-.12.07-.27.07-.34.16.43-.18,1.3-.13,1.38-.56.57.16-.29.41.47.3l-.1.14c.76.3,1.35,0,1.98-.28.62-.25,1.28-.47,2.11-.04-.12-.05-.17-.08-.2-.15,1.89.34,3.94-.25,5.78.45.52.17.6-.09.94-.27l.08.36.59-.35c.82-.21,1.27.97,2.32.54l-.1-.25c.35.1,1.15.03,1.05.29.04-.04.15-.22.27-.08v.18s.9-.18.9-.18c.66.23-.21.7.76.88.38-.02,1.13-.37,1.01-.51-.15-.03-.36-.17-.34-.35l.35-.04c.15-.52.51-1.02-.27-1.52l-.64.24-.15-.29.5.06c-.24-.28-.45-.1-.68.02-.03-.14-.09-.25-.2-.32l-.65.42c-.04-.22.32-.38-.05-.55-.3.2.19.51-.28.6-.25-.28-.14-.47-.5-.31-.03-.14.05-.22.19-.26-.32.12-.79-.04-.97.22-.26-.35-1-.03-.92-.53-.11.11-.56.35-.84.34.56-.56-1.01-.14-.82-.77-.42.52-1.35.09-2.03.37.04-.04.12-.13.17-.1-.36-.06-.46-.23-.69-.35-.08.45-.65.53-.97.79-.43-.46.3-.52.18-.94,0,.37-.8.33-.66.64-.33-.29-.29-.15-.45-.53-.08.56-.33.08-.62.41-.49-.3-.11-.54-.67-.38-.26-.17.24-.37.24-.37ZM54,7.22h0c.11-.03.2-.05.26-.07-.05.01-.13.03-.26.07ZM52.92,7.39c.13,0,.3-.03.47-.06.06.1.03.23-.08.24.05-.08-.22-.11-.39-.18ZM55.51,9.27c-.16.07-.22.02-.25-.05.08-.02.17-.04.28-.08,0-.01,0-.03.01-.04,0,.06-.02.12-.04.17Z"/>
        <path class="cls-2" d="M55.75,8.8s.03-.03.07-.03c-.04-.02-.07-.04-.11-.06l-.05.11s.06-.01.09-.02Z"/>
        <path class="cls-2" d="M4.94,75.46v-.02s-.01.04-.03.06c0-.02.02-.02.03-.04Z"/>
        <polygon class="cls-2" points="38.22 10.95 38.25 11.02 38.31 10.92 38.22 10.95"/>
        <path class="cls-2" d="M6.62,81.27s-.03.06-.03.11c.02-.01.02-.06.03-.11Z"/>
        <path class="cls-2" d="M7.93,83.51l.12.36c-.04-.17-.08-.28-.12-.36Z"/>
        <path class="cls-2" d="M8.97,85.24c.06-.01.1-.03.13-.05h0s-.13.05-.13.05Z"/>
        <path class="cls-2" d="M.2,55.08s0-.05,0-.08c-.04-.19-.03-.06,0,.08Z"/>
        <path class="cls-2" d="M1.01,64.59c-.07-.09-.14-.18-.18-.28,0,.17,0,.3.18.28Z"/>
        <polygon class="cls-2" points="2.49 44.52 2.5 44.53 2.52 44.47 2.49 44.52"/>
        <path class="cls-2" d="M.79,63.87c-.05.17-.02.31.04.44,0-.14.02-.31-.04-.44Z"/>
        <path class="cls-2" d="M14.66,91.83l.06.07s.03-.03.04-.03l-.11-.04Z"/>
        <path class="cls-2" d="M14.77,91.88l.11.04s-.07-.06-.11-.04Z"/>
        <path class="cls-2" d="M15.1,92.01l-.22-.09c.06.05.12.13.22.09Z"/>
        <path class="cls-2" d="M12.87,89.85l-.11.06s.06-.02.11-.06Z"/>
        <path class="cls-2" d="M12.29,89.29c.11.16.15.52.39.67l.09-.05c-.22.03-.21-.62-.48-.62Z"/>
        <path class="cls-2" d="M11.22,85.83l.35.56c.02-.17.06-.39.27-.18-.24-.87-.11.31-.62-.38Z"/>
        <path class="cls-2" d="M10.13,84.1c.25.25.14-.11.21-.14-.22-.11-.28-.14-.21.14Z"/>
        <path class="cls-2" d="M3.61,71.06l.29-.05c-.11-.25-.11.03-.29.05Z"/>
        <polygon class="cls-2" points="1.41 68.7 1.3 69 1.6 69.06 1.41 68.7"/>
        <polygon class="cls-2" points="3.16 66.63 3.23 66.74 3.04 66.32 3.16 66.63"/>
        <path class="cls-2" d="M6.3,43.07l-.36-.09c-.02.19.33.41.36.09Z"/>
        <path class="cls-2" d="M11.69,33.95c.21.02.49-.14.47-.4-.17.17-.43.27-.47.4Z"/>
        <polygon class="cls-2" points="36.75 14.77 36.61 14.97 36.93 14.7 36.75 14.77"/>
      </g>
    </g>
  </g>
</svg>