<?xml version="1.0" encoding="UTF-8"?>
<svg id="_レイヤー_2" data-name="レイヤー 2" xmlns="http://www.w3.org/2000/svg" viewBox="0 0 212.34 80.35">
  <defs>
    <style>
      .cls-1 {
        fill: #4d4d4d;
      }
    </style>
  </defs>
  <g id="_編集箇所" data-name="編集箇所">
    <g>
      <path class="cls-1" d="M16.31,12.74c-2.05,1.25-3.19-1.01-1.67-1.76,3.54-1.74,7.06-5.15,9.24-8.56.22-.35.64-1.32.79-1.74.46-1.3,3.04-.64,2.27.99-.29.59-.4.99-1.08,1.91-.62.81-1.21,1.58-1.8,2.31.09.09.15.2.2.33.18.48.18.68.11,2.18-.09,1.72-.07,5.06,0,7.44.02,1.03-.59,1.41-1.17,1.47-.57.07-1.19-.35-1.17-1.32.02-2.35.26-5.26.18-7.35,0-.22-.02-.42-.04-.62-1.72,1.8-3.54,3.3-5.85,4.71Z"/>
      <path class="cls-1" d="M38.09,7.05c-.92-.66-2.09-1.28-3.12-1.5-1.32-.29-.77-2.49.9-2.07,1.17.31,2.55.79,3.63,1.47.7.44.7,1.25.37,1.78s-1.06.84-1.78.31ZM39.04,15.34c-.75.4-1.23.64-2.11.7-1.83.15-2.09-2.16-.68-2.31.44-.04,1.23-.35,1.69-.55,3.98-1.8,7.55-5.39,9.77-9.68.73-1.39,2.95-.46,1.98,1.3-2.73,4.95-6.14,8.16-10.65,10.54Z"/>
      <path class="cls-1" d="M58.62,16.95c-1.87.75-2.51-1.45-1.06-2,3.85-1.45,5.79-4.47,5.92-7.7-1.63.13-3.19.33-4.29.44-.7.07-1.54.18-2.29.2-1.5.04-1.63-2.2.11-2.18.68,0,1.5-.02,2.18-.09,1.01-.11,2.64-.29,4.29-.42,0-.81.02-1.41-.04-2.09-.04-.53-.15-1.06-.37-1.47-.64-1.28,1.5-2.29,2.31-.75.2.37.29,1.12.33,1.98.04.99.02,1.5.02,2.18.4-.02.77-.04,1.12-.07,1.34-.04,2.75-.15,4.03-.2,1.03-.02,1.5.66,1.41,1.28-.09.62-.7,1.12-1.69,1.08-1.41-.07-2.62-.09-3.92-.07-.31,0-.62,0-.92.02-.04,4.2-2.55,8.01-7.13,9.86Z"/>
      <path class="cls-1" d="M92.65,8.94h-1.14c-4.2,0-7.42.2-9.15.26-1.14.04-1.74.07-2.18.07-.26,0-.46-.02-.7-.02-.84-.02-1.28-.62-1.28-1.19s.44-1.08,1.32-1.08h.13c.81.04,1.78.07,2.66.07,1.8,0,6.51-.26,10.39-.37h.04c.88,0,1.34.57,1.34,1.12s-.46,1.14-1.41,1.14h-.02Z"/>
      <path class="cls-1" d="M99.01,17.37c-1.56.77-2.66-1.36-1.03-2.07,2.71-1.17,5.1-3.28,7.04-5.61-.84-.48-1.72-.88-2.51-1.17-1.41-.51-.48-2.49,1.25-1.78.81.33,1.72.73,2.62,1.17.73-1.03,1.36-2.09,1.89-3.08.42-.79.75-1.72.81-2.11.29-1.5,2.79-1.21,2.46.51-.13.75-.51,1.5-1.03,2.38-.7,1.17-1.43,2.31-2.2,3.41.75.48,1.41,1.01,1.94,1.61.55.62.4,1.39,0,1.8-.4.42-1.1.59-1.63.02-.46-.51-1.06-1.01-1.74-1.52-2.07,2.57-4.55,4.84-7.88,6.45Z"/>
      <path class="cls-1" d="M132.92,8.94h-1.14c-4.2,0-7.42.2-9.15.26-1.14.04-1.74.07-2.18.07-.26,0-.46-.02-.7-.02-.84-.02-1.28-.62-1.28-1.19s.44-1.08,1.32-1.08h.13c.81.04,1.78.07,2.66.07,1.8,0,6.51-.26,10.39-.37h.04c.88,0,1.34.57,1.34,1.12s-.46,1.14-1.41,1.14h-.02Z"/>
      <path class="cls-1" d="M148.93,6.78c-1.12,3.85-3.45,7.7-7.66,9.88-1.45.75-2.9-1.08-1.1-2,3.17-1.61,5.26-4.51,6.4-7.57l-1.56.22c-1.06.13-1.94.29-2.77.29-1.85,0-1.65-2.18-.22-2.11.84.04,1.78-.09,2.77-.18.84-.07,1.63-.18,2.4-.26.11-.51.2-.99.26-1.47.15-1.08,0-1.76.02-2.31.07-1.43,2.24-1.25,2.31.04.02.53-.04,1.19-.15,2.11-.07.44-.13.9-.22,1.36.66-.09,1.32-.18,1.98-.24,1.67-.18,2.99.9,2.79,2.68-.24,2.18-.75,5.35-1.8,6.97-1.54,2.38-4.16,3.12-6.07,1.14-1.03-1.06.4-3.06,1.56-1.78.84.9,1.67.55,2.51-.53.95-1.21,1.41-4.38,1.54-5.5.07-.53-.07-1.14-1.06-1.01l-1.94.26Z"/>
      <path class="cls-1" d="M175.38,8.94h-1.14c-4.2,0-7.42.2-9.15.26-1.14.04-1.74.07-2.18.07-.26,0-.46-.02-.7-.02-.84-.02-1.28-.62-1.28-1.19s.44-1.08,1.32-1.08h.13c.81.04,1.78.07,2.66.07,1.8,0,6.51-.26,10.39-.37h.04c.88,0,1.34.57,1.34,1.12s-.46,1.14-1.41,1.14h-.02Z"/>
      <path class="cls-1" d="M197.02,8.1c0-2.44-1.91-4.53-5.1-4.53h-.04c.35.15.62.48.62.92v.11c0,2.31-2.27,6.31-4.69,8.69-.55.53-1.12.75-1.65.75-1.56,0-2.97-1.76-2.97-4.16,0-3.98,3.92-8.03,8.87-8.03,4.44,0,7.22,2.95,7.22,6.38,0,.81-.15,1.65-.48,2.49-1.94,4.88-7.92,5.57-8.23,5.57-.77,0-1.25-.53-1.25-1.08,0-.48.37-.95,1.21-1.1,4-.66,6.51-3.12,6.51-6.01ZM190.66,3.68c-2.75.55-5.5,3.48-5.5,6.09,0,1.65,1.1,1.85,1.17,1.85.13,0,.29-.04.42-.18.66-.59,3.41-3.85,3.5-6.82,0-.44.18-.77.42-.95Z"/>
      <path class="cls-1" d="M2.98,41.2c-1.52,1.01-2.82-.99-1.28-1.91,2.13-1.3,3.74-3.5,4.77-5.1.37-.57.7-1.25.86-1.8.4-1.47,2.6-1.08,2.35.37-.04.31-.18.64-.33.97,1.06-.18,2.2-.44,3.19-.51,1.54-.09,2.9.99,2.07,2.42-3.54,6.07-6.75,10.32-12.7,12.63-1.89.73-2.75-1.52-.88-2.13,4.64-1.56,8.25-5.52,10.78-10.3.22-.44.02-.53-.31-.53-.88.02-2.64.4-3.52.55-1.32,1.83-3.08,4.03-5.02,5.35ZM14.09,32.6c-1.1-.46-.24-1.78.77-1.41.57.22,1.67.81,2.16,1.32.86.9-.42,2.24-1.14,1.39-.29-.33-1.34-1.12-1.78-1.3ZM16.07,30.73c-1.12-.44-.33-1.76.7-1.43.59.2,1.69.75,2.2,1.25.88.88-.35,2.22-1.1,1.41-.31-.33-1.36-1.06-1.8-1.23Z"/>
      <path class="cls-1" d="M25.24,48.4c-1.63.66-2.86-1.43-.97-2.11,4.29-1.56,7.39-5.02,8.56-8.05.18-.48.07-.64-.37-.62-1.69.11-4.91.57-5.96.68-1.32.13-1.34.22-2.62.24-1.45.02-1.91-2.22-.04-2.22,1.12,0,1.39-.02,2.42-.09,1.08-.07,4.88-.51,7.42-.73,1.63-.15,2.84,1.01,2.07,2.49-2.4,4.6-4.77,8.1-10.5,10.41ZM27.44,34.01c-.73.07-.84.04-1.76.07-1.39.02-1.67-2.02-.07-2.07.81-.02.88.04,1.54-.02,1.12-.09,3.72-.31,5.24-.55,1.47-.24,2.38,1.83.04,2.11-1.19.15-4.2.4-4.99.46Z"/>
      <path class="cls-1" d="M42.95,45.76c4.62-1.67,8.14-6.43,9.37-9.59.15-.37-.11-.53-.4-.51-1.69.09-4.62.57-6.14.75-1.34.15-1.47.29-2.77.24-1.63-.07-1.8-2.46.15-2.35.97.04,1.78-.04,2.71-.11,1.85-.13,4.84-.62,7.31-.77,1.85-.11,2.71,1.1,2.05,2.44-2.31,4.71-5.13,9.55-11.29,12.08-2.13.88-2.9-1.47-.99-2.18Z"/>
      <path class="cls-1" d="M63.22,42.19c-1.14,1.14-2.35,2.11-3.87,3.04-1.65,1.01-2.62-.92-1.34-1.54,2.49-1.23,5.98-4.38,6.95-7.11.4-1.14,2.53-.53,1.89.84-.26.55-.4.84-.77,1.36-.4.53-.77,1.03-1.17,1.52.04.07.07.11.09.18.13.37.13.55.09,1.58-.07,1.21-.04,3.52,0,5.19.02.81-.51,1.14-.99,1.21-.53.07-.99-.33-.99-1.1.02-1.65.18-3.67.11-5.15v-.02Z"/>
      <path class="cls-1" d="M74.55,42.13c-.29-.59-.73-1.21-1.19-1.61-.9-.77.37-2.13,1.39-1.21.55.51,1.14,1.19,1.56,1.89.68,1.19-1.12,2.22-1.76.92ZM74.66,46.5c3.1-1.39,5.28-3.76,6.31-6.69.11-.31.15-.75.15-1.06-.04-1.34,2.09-1.45,2.18.02.04.68-.18,1.25-.42,1.8-1.45,3.41-3.56,5.88-7.24,7.66-1.5.73-2.2-1.19-.99-1.74ZM77.36,40.98c-.22-.64-.57-1.32-.97-1.76-.79-.88.66-2.05,1.54-.99.48.57.97,1.32,1.28,2.07.51,1.25-1.39,2.07-1.85.68Z"/>
      <path class="cls-1" d="M91.53,41.2c-1.52,1.01-2.82-.99-1.28-1.91,2.13-1.3,3.74-3.5,4.77-5.1.37-.57.7-1.25.86-1.8.4-1.47,2.6-1.08,2.35.37-.04.31-.18.64-.33.97,1.06-.18,2.2-.44,3.19-.51,1.54-.09,2.9.99,2.07,2.42-3.54,6.07-6.75,10.32-12.7,12.63-1.89.73-2.75-1.52-.88-2.13,4.64-1.56,8.25-5.52,10.78-10.3.22-.44.02-.53-.31-.53-.88.02-2.64.4-3.52.55-1.32,1.83-3.08,4.03-5.02,5.35Z"/>
      <path class="cls-1" d="M118.77,39.88c-.31,3.15-3.06,6.95-7.22,8.58-2.13.84-2.57-1.61-1.03-2.09,3.5-1.1,5.72-4.33,5.92-6.58.02-.33-.02-.68-.26-1.01-.09-.11-.11-.22-.15-.33-1.34.15-2.6.33-3.56.44-1.25.13-2.02.37-2.73.42-1.45.07-1.72-2.09-.02-2.22.79-.07,1.8-.04,2.77-.15,1.67-.18,5.37-.59,7.66-.79,1.34-.11,2.07-.33,3.12-.18.99.13,1.36.46,1.34,1.1-.02.55-.51,1.08-1.45,1.08-1.34-.02-2.53-.09-3.78,0-.24.02-.48.02-.75.04.24.46.22,1.12.15,1.69ZM117.91,34.27c-1.3.09-2,.2-2.99.31-.99.11-1.65.22-2.6.2-1.41-.02-1.76-2.05,0-2.11.77-.02,1.39.04,2.18-.04,1.06-.11,2.05-.22,3.37-.35.4-.04.73-.13,1.03-.2.33-.07.64-.15,1.06-.13,1.67.07,2.02,2.09-.04,2.22-.73.04-1.28.07-2,.11ZM123.04,33.39c-.2-.4-1.06-1.39-1.43-1.67-.97-.7.15-1.78,1.06-1.19.51.33,1.45,1.14,1.8,1.76.62,1.08-.92,2.09-1.43,1.1ZM125.99,32.47c-.35-.4-1.1-1.34-1.5-1.61-.99-.66.09-1.78,1.01-1.23.53.33,1.5,1.1,1.87,1.69.66,1.06-.64,1.98-1.39,1.14Z"/>
      <path class="cls-1" d="M139.65,38.32c.04,1.1.07,2.11.04,2.71-.04,1.67-2.44,1.8-2.29.18.07-.73.09-1.69.07-2.71-.66.07-1.25.13-1.69.18-1.78.2-2.62.31-3.3.35-1.52.11-1.78-2.13.04-2.16.88,0,2.13-.09,3.01-.18.35-.04.99-.09,1.8-.15-.02-.31-.07-.59-.11-.88-.09-.59-.2-1.14-.26-1.56-.29-1.58,2.05-1.87,2.29-.37.07.37.09.92.18,1.58.04.33.09.66.11,1.03.97-.09,2.02-.15,3.04-.22,0-.48.02-.95.02-1.43.02-.75,0-1.5-.09-2.24-.18-1.65,2.33-1.65,2.4-.2.04.73.04,1.52,0,2.24-.02.48-.07.99-.09,1.47.46-.02.9-.04,1.3-.07,1.14-.04,2.07-.15,3.19-.13,1.76.02,1.96,2.22.02,2.24-1.19.02-1.94-.02-2.95-.02-.53,0-1.1.02-1.67.04-.22,3.98-2.09,8.27-6.73,10.54-1.83.88-2.57-1.17-1.14-1.8,4.09-1.83,5.48-5.46,5.68-8.65-.99.07-1.96.13-2.86.2ZM146.31,33.3c-1.08-.46-.26-1.74.73-1.36.57.2,1.67.77,2.13,1.28.84.88-.42,2.18-1.12,1.34-.29-.33-1.32-1.08-1.74-1.25ZM148.23,31.45c-1.1-.42-.31-1.74.7-1.41.57.2,1.67.73,2.16,1.21.86.86-.35,2.22-1.08,1.41-.29-.33-1.34-1.03-1.78-1.21Z"/>
      <path class="cls-1" d="M156.56,44.11c-2.05,1.25-3.19-1.01-1.67-1.76,3.54-1.74,7.06-5.15,9.24-8.56.22-.35.64-1.32.79-1.74.46-1.3,3.04-.64,2.27.99-.29.59-.4.99-1.08,1.91-.62.81-1.21,1.58-1.8,2.31.09.09.15.2.2.33.18.48.18.68.11,2.18-.09,1.72-.07,5.06,0,7.44.02,1.03-.59,1.41-1.17,1.47-.57.07-1.19-.35-1.17-1.32.02-2.35.26-5.26.18-7.35,0-.22-.02-.42-.04-.62-1.72,1.8-3.54,3.3-5.85,4.71Z"/>
      <path class="cls-1" d="M176.87,48.31c-1.87.75-2.51-1.45-1.06-2,3.85-1.45,5.79-4.47,5.92-7.7-1.63.13-3.19.33-4.29.44-.7.07-1.54.18-2.29.2-1.5.04-1.63-2.2.11-2.18.68,0,1.5-.02,2.18-.09,1.01-.11,2.64-.29,4.29-.42,0-.81.02-1.41-.04-2.09-.04-.53-.15-1.06-.37-1.47-.64-1.28,1.5-2.29,2.31-.75.2.37.29,1.12.33,1.98.04.99.02,1.5.02,2.18.4-.02.77-.04,1.12-.07,1.34-.04,2.75-.15,4.03-.2,1.03-.02,1.5.66,1.41,1.28-.09.62-.7,1.12-1.69,1.08-1.41-.07-2.62-.09-3.92-.07-.31,0-.62,0-.92.02-.04,4.2-2.55,8.01-7.13,9.86Z"/>
      <path class="cls-1" d="M210.91,40.3h-1.14c-4.2,0-7.42.2-9.15.26-1.14.04-1.74.07-2.18.07-.26,0-.46-.02-.7-.02-.84-.02-1.28-.62-1.28-1.19s.44-1.08,1.32-1.08h.13c.81.04,1.78.07,2.66.07,1.8,0,6.51-.26,10.39-.37h.04c.88,0,1.34.57,1.34,1.12s-.46,1.14-1.41,1.14h-.02Z"/>
      <path class="cls-1" d="M61.26,70.78c-.95-.51-1.14-1.23-1.14-2.46,0-.35.02-.75.04-1.19.04-1.01.07-1.8.07-2.46,0-.97-.04-1.61-.15-2.11-.02-.11-.02-.2-.02-.29,0-.64.48-.97,1.01-.97,1.34,0,1.41,1.28,1.41,2.75,0,.62-.04,1.39-.13,2.49-.04.68-.11,1.23-.11,1.67,0,1.36.9,1.5,1.56,1.5.33,0,.37-.18.64-.26.11-.04.24-.07.35-.07.57,0,1.1.48,1.1,1.06,0,.37-.24.79-.81,1.14-.75.46-2.51,1.21-3.52,1.76-1.67.92-2.42,1.87-2.42,2.68,0,.88.97,1.83,3.23,1.83.35,0,2.09-.02,3.06-.7.35-.24.73-.35,1.03-.35.73,0,1.25.53,1.25,1.12,0,1.36-2.57,2.13-4.84,2.13-3.98,0-5.76-1.89-5.76-3.78,0-1.58,1.21-3.39,3.87-4.88.04-.02.57-.31.75-.42-.13-.02-.31-.09-.46-.18Z"/>
      <path class="cls-1" d="M80.69,79.41c-4.4,0-4.58-2.55-4.58-4.73,0-2.51.26-5.7.26-8.3,0-.95-.04-1.8-.13-2.51,0-.07-.02-.15-.02-.22,0-.73.57-1.1,1.14-1.1s1.17.37,1.23,1.06c.04.48.07,1.01.07,1.58,0,2.71-.46,6.16-.46,9.11,0,1.8.09,2.9,2.27,2.9,2.42,0,4.84-.97,5.26-1.14.26-.11.48-.15.68-.15.68,0,1.08.51,1.08,1.06s-.33,1.1-1.08,1.39c-.48.18-2.86,1.06-5.72,1.06Z"/>
      <path class="cls-1" d="M104.12,79.21h-.22c-4.77-.44-7.79-3.74-7.79-7.13,0-.86.2-2.35,1.58-4.03.07-.09.11-.15.11-.2,0-.02-.02-.04-.04-.04-.04,0-.13.04-.22.09-3.45,1.78-3.87,1.91-4.36,1.91-.81,0-1.34-.57-1.34-1.19,0-.44.31-.92,1.01-1.14.46-.15,1.72-.53,2.38-.77,1.03-.37,2.86-.95,5.04-1.8,1.63-.64,3.78-1.36,5.83-1.36,1.1,0,1.5.51,1.5,1.08,0,1.12-.92,1.36-1.76,1.36-.15,0-.33,0-.51-.02-.18-.02-.35-.02-.53-.02-3.41,0-6.75,2.9-6.75,5.85,0,2.64,2.51,4.88,5.96,4.88,1.1,0,1.63.64,1.63,1.3,0,.62-.51,1.23-1.52,1.23Z"/>
      <path class="cls-1" d="M119.71,75.67v1.01c.99-.18,1.91-.37,2.73-.57.07-.02.13-.02.2-.02.35,0,.62.24.7.53,2.16-2.51,2.68-5.81,2.77-9.11-.62,0-1.25.02-1.8.02h-.02c-.62,0-.9-.46-.9-.92s.31-.97.92-.97c.57,0,1.19-.02,1.8-.02v-3.43c0-.66.51-.97,1.01-.97s1.06.33,1.06.97l-.02,3.43c.55,0,1.12.02,1.65.02,1.45.02,2.33.97,2.35,2.44,0,.64.02,1.3.02,1.96,0,3.89-.22,9.66-4.69,9.66-.55,0-1.12-.09-1.72-.29-.48-.18-.7-.57-.7-.99,0-.53.35-1.03.95-1.03.13,0,.26.02.42.07.37.11.73.18,1.03.18,1.58,0,2.66-1.5,2.66-7.77,0-.53-.02-1.03-.02-1.52-.02-.62-.35-.81-.81-.84-.35,0-.75-.02-1.17-.02-.15,4.64-1.39,9.64-5.52,12.45-.26.18-.51.24-.73.24-.57,0-1.01-.46-1.01-.97,0-.31.15-.62.51-.86.31-.2.62-.44.88-.66-3.23.86-7.75,1.39-7.97,1.39-.57,0-.88-.46-.88-.9s.24-.81.77-.84c1.19-.09,2.44-.2,3.65-.37v-1.28l-2.71.04h-.02c-.51,0-.75-.35-.75-.73s.26-.75.77-.75l2.71-.02v-.97h-3.15c-.51,0-.77-.37-.77-.75s.26-.75.77-.75h3.15v-.86c-3.59,0-3.78-.33-3.78-2.22s.59-1.94,5.15-1.94c3.92,0,4.27.13,4.27,2.2,0,1.61-.4,1.96-3.76,1.96v.86h3.01c.48,0,.73.37.73.75s-.24.75-.73.75h-3.01v.95l2.42-.02h.02c.46,0,.7.35.7.73s-.24.75-.73.75h-2.42ZM121.47,64.93v.68c0,.59-.48.88-.95.88s-.9-.26-.9-.81v-.77h-1.67v.7c0,.59-.48.88-.95.88s-.88-.26-.88-.81v-.75h-1.8c-.51,0-.75-.4-.75-.79s.26-.81.75-.81h1.8v-1.23c0-.55.46-.84.92-.84s.9.29.9.84v1.25h1.67v-1.25c0-.55.46-.84.92-.84s.92.29.92.84v1.25l2.07-.02c.53,0,.79.4.79.79s-.29.81-.79.81h-2.07ZM117.91,68.05c-.55,0-1.03.02-1.36.02-.46.02-.68.04-.68.7,0,.77.07.86,2.05.86v-1.58ZM119.65,69.62c.51-.02.97-.02,1.28-.04.59-.02.77-.07.77-.75,0-.75-.02-.79-2.05-.79v1.58Z"/>
      <path class="cls-1" d="M155.02,65.06c-.31,1.1-.88,2.31-1.91,3.43,1.08.53,2.29.86,3.48,1.06.55.09.79.48.79.88,0,.53-.42,1.1-1.21,1.1-.46,0-2.46-.42-4.51-1.76-1.78,1.28-3.98,1.98-4.27,1.98-.48,0-.84-.35-.97-.75-.04.09-.4.84-1.14.84-.46,0-.86-.31-.86-.73,0-.13.04-.26.13-.42.18-.29.64-1.12.64-1.34,0-.11-.09-.18-.35-.2h-.75v.18s-.02,3.76-.02,4.95c0,.35.04,2.35.07,3.12v.11c0,1.41-.7,2.64-2.75,2.64-.77,0-2.02-.07-2.02-1.17,0-.51.31-.99.86-.99.07,0,.13,0,.2.02.29.07.57.11.81.11.53,0,.92-.2.95-.95,0-.99.02-3.23.04-5.06-.81,1.25-1.78,2.51-2.62,3.37-.24.24-.51.35-.75.35-.53,0-.97-.46-.97-.99,0-.29.13-.57.42-.81,1.06-.9,2.79-2.93,3.85-4.84-.24,0-2.49.11-2.9.11-.53,0-.79-.42-.79-.86,0-.46.29-.9.84-.92h3.45c-.51-.64-1.36-1.19-1.85-1.43-.26-.13-.35-.33-.35-.55,0-.42.42-.88.92-.88.33,0,.95.37,1.36.66.88-.88,1.43-1.61,1.43-1.69,0-.07-.04-.09-.11-.09-1.08,0-2.82.04-4.03.13h-.09c-.55,0-.84-.42-.84-.86s.31-.9.92-.92c1.43-.04,3.54-.04,5.06-.04.95,0,1.45.53,1.45,1.21,0,.33,0,.95-2.55,3.28.02.02.04.07.07.09.15.18.22.37.22.57s-.07.37-.18.53c.44,0,.86.02,1.21.02.84.02,1.72.57,1.72,1.5,0,.22-.02.42-.26.97l.2-.07c1.28-.35,2.29-.81,3.1-1.34-.7-.66-1.3-1.41-1.74-2.29-.88,1.08-1.08,1.25-1.58,1.25s-.97-.35-.97-.84c0-.2.09-.44.33-.68,1.14-1.14,2.09-2.6,2.75-4.31.15-.4.51-.55.86-.55.53,0,1.08.35,1.08.88,0,.09,0,.22-.55,1.32l5.87-.07c.57,0,.86.44.86.86,0,.44-.29.88-.86.88h-1.19ZM151.46,74.46c-1.28,4.71-5.74,5.9-6.21,5.9-.64,0-1.06-.53-1.06-1.03,0-.37.2-.7.68-.86,2.44-.73,3.98-2.05,4.62-3.96-.88.02-1.76.04-2.62.07h-.04c-.62,0-.92-.42-.92-.86s.31-.88.95-.88c.95-.02,1.96-.02,2.97-.04,0-.15.02-.33.02-.51,0-.22-.02-.46-.04-.73v-.07c0-.53.53-.86,1.03-.86s.95.29.95.95c0,.42,0,.81-.04,1.19.75,0,1.5,0,2.22.02,1.5.02,2.11.86,2.11,2,0,.75-.07,5.21-3.83,5.21-.57,0-1.21-.11-1.96-.31-.44-.11-.64-.53-.64-.92,0-.51.29-1.01.84-1.01.09,0,.22.02.33.07.59.2,1.03.29,1.41.29,1.06,0,1.74-1.25,1.8-2.99,0-.46-.26-.66-.66-.66h-1.91ZM149.7,65.06c.46,1.01,1.1,1.8,1.85,2.42.73-.77,1.19-1.61,1.43-2.42h-3.28Z"/>
    </g>
  </g>
</svg>