<?xml version="1.0" encoding="UTF-8"?>
<svg id="_レイヤー_2" data-name="レイヤー 2" xmlns="http://www.w3.org/2000/svg" viewBox="0 0 219.36 71.29">
  <defs>
    <style>
      .cls-1 {
        fill: #333;
      }
    </style>
  </defs>
  <g id="_編集箇所" data-name="編集箇所">
    <g>
      <path class="cls-1" d="M36.09,7.09c.83.17.43.4,1.28.57-.21.02.14.14.14.8v6.78c0,.31-.35.8-.66.8-1.21.14-1.18.12-1.68.12-.19,0-.38-.64-.38-.8v-7.26c-2.06,1.75-4.28,1.89-7.04.8.71-.33,1.37-.47,1.73-.8,2.43-1.11,3.31-1.61,4.54-2.88,1.51-1.44,1.96-3.24,2.98-4.7.21-.28.54-.45.87-.45,1.21.31,1.09.64,2.46.92-.99,2.84-2.41,4.07-4.23,6.1Z"/>
      <path class="cls-1" d="M64.1,6.67c-.33.54-.76,1.3-1.44,2.17-.35.43-.76.97-1.28,1.65-.99,1.3-2.84,2.69-6.55,4.23-1.21.5-2.03.47-3.92-.5-1.16-.61-1.73-1.02-1.58-1.3,0-.02,0-.07.02-.09.02-.02.47-.07,1.3-.19,1.7-.28,4.33-1.21,5.34-1.63.99-.43,2.03-1.11,4.16-2.6,1.04-.73,1.94-1.61,2.65-2.65.38-.52.35-.52,1.02-.21.33.19.52.38.52.59.02.07-.07.26-.24.52ZM54.08,5.81c-.4,0-1.39-.69-3.07-1.91-.24-.17-.4-.47-.47-.9l-.17-.66h2.36l.73.83c.43.5.78.97,1.06,1.44s.38.78.28.95c-.09.19-.33.26-.73.26Z"/>
      <path class="cls-1" d="M82.32,5.39c.9,0,1.04-.02,1.51-.64.54-.59.99-.73,1.89-.24.66.43.9.9.61,1.44-.07.14-.28.21-.57.26-.31.02-1.02.05-2.1.07h-2.53c-.45,1.94-1.21,3.52-2.29,4.7-.61.69-1.09,1.28-1.42,1.82-.69,1.06-2.62,2.74-3.05,2.74-.45,0-1.13-.43-1.18-.59-.02-.14.26-.43.85-.92,1.13-1.02,2.62-3.9,3.26-6.24l.4-1.49c-1.54-.17-3.1-.21-4.75-.21-1.63.02-2.6-.02-2.86-.19-.26-.19-.4-.28-.4-.38,0-.28,1.68-.35,4.96-.21l3.31.07c-.02-.21-.02-.78-.05-1.73-.05-1.91-.21-3.07-.38-3.66.78.12,1.37.26,1.75.43.38.17.59.19.66.12s.24,0,.52.24c.26.24.5.52.66.87.14.14.26.43.28.83.02.4.02.95,0,1.68l-.05,1.23h.95Z"/>
      <path class="cls-1" d="M101.18,7.63c0,.28-.54.85-1.18.92-.64.07-5.63.21-6.95-.02-.66-.12-1.18-.28-1.58-.5-.78-.45-.52-.8-.07-.83.21,0,.8.05,1.75.12,1.89.14,5.22.09,5.86-.19.64-.28,1.21-.28,1.73.02.31.17.45.33.45.47Z"/>
      <path class="cls-1" d="M104.99,14.61c0-.14.28-.4.87-.73,1.13-.69,2.93-2.55,3.99-4.11l.95-1.42-.73-.61c-.5-.45-.76-.76-.83-.97-.05-.24-.4-.52-.95-.85-.57-.35-.83-.64-.78-.85.05-.05.12-.09.24-.09.24,0,1.23.52,1.23.71,0,.24,2.22,1.3,2.51,1.23.28-.09,1.58-2.84,2.2-4.7.31-.95.5-1.49.61-1.68.24-.33.78-.21,1.32.28.5.5.5.52.43,1.54-.09,1.09-1.42,5.01-2.15,6.38l-.5.92,1.13.57c.73.35,1.28.57,1.61.61.71.07,1.42.35,1.73.71.19.19.24.31.19.43-.45.43-2.58-.26-4.09-1.32l-.87-.59-.76.85c-.57.64-1.16,1.32-1.75,2.1-1.16,1.54-1.47,1.61-2.88,2.29-.73.35-1.18.52-1.32.52-.31,0-.78-.33-1.13-.71-.17-.17-.26-.38-.26-.5Z"/>
      <path class="cls-1" d="M134.27,7.63c0,.28-.54.85-1.18.92-.64.07-5.63.21-6.95-.02-.66-.12-1.18-.28-1.58-.5-.78-.45-.52-.8-.07-.83.21,0,.8.05,1.75.12,1.89.14,5.22.09,5.86-.19.64-.28,1.21-.28,1.73.02.31.17.45.33.45.47Z"/>
      <path class="cls-1" d="M153.13,15.25c-.57.76-.97,1.21-1.25,1.37-.54.31-.52.31-1.32-.33l-.78-.71c1.21-1.91,1.91-4.11,2.27-6.71.14-1.04.21-1.68.26-1.89.07-.21-.02-.31-.19-.35h-3.83c-.99,2.15-1.89,3.76-2.72,4.85-.8,1.09-1.28,1.73-1.37,1.96-1.11,1.68-1.75,2.74-1.96,3.17-.14-.14-.33-.31-.57-.52-.26-.24-.43-.4-.54-.5,2.46-4.47,3.85-7.37,4.14-8.75h-1.58c-1.39,0-1.56-.02-2.06-.57-.26-.28-.33-.43-.21-.43.09-.02.76-.07,1.96-.12,2.41-.07,2.32.12,2.46-2.03.09-1.09.21-1.84.28-2.27.33-.87,2.46,1.54,2.67,2.32.07.4.07.92-.07,1.58h5.37l.69.69c.61.73.69.76.69,2.03,0,4.14-1.25,5.7-2.32,7.21Z"/>
      <path class="cls-1" d="M172.09,7.63c0,.28-.54.85-1.18.92-.64.07-5.63.21-6.95-.02-.66-.12-1.18-.28-1.58-.5-.78-.45-.52-.8-.07-.83.21,0,.8.05,1.75.12,1.89.14,5.22.09,5.86-.19.64-.28,1.21-.28,1.73.02.31.17.45.33.45.47Z"/>
      <path class="cls-1" d="M190.9,4.96c.99,1.96,1.23,4.11.47,5.65-.76,1.51-1.8,2.55-2.67,2.55-.33,0-1.49-.61-1.49-.8,0-.09.07-.17.19-.21.14-.05.24-.24.35-.52.28-.66.45-1.58.66-2.95.21-1.39-.07-3.92-.4-4.77-.17-.38-.38-.71-.61-.9-.28-.19-.5-.24-.59-.17-.07.09-.14.87-.24,2.34-.19,2.91-.52,4.04-1.23,5.39-.71,1.32-1.65,2.1-2.34,2.32s-2.32-.26-3.05-.61c-.78-.38-1.84-1.77-2.03-2.2-.21-.47-.38-1.21-.28-1.91.09-.73.38-1.39.99-2.69.61-1.3,1.61-2.51,2.72-3.21.59-.38,1.11-.57,1.58-.64.45-.07.76-.21.87-.43.26-.45.64-.66,1.58-.43.45.12.85.35,1.25.66.38.28.61.43.76.43.71,0,2.93,1.99,3.5,3.12ZM183.36,10.61c.14-.43.26-3.33.24-5.34l-.02-1.73-.59.35c-1.51.9-2.27,2.55-2.41,4.87-.09,1.51.17,2.79.5,3.07.38.33,1.16-.02,1.8-.5.28-.28.43-.54.5-.73Z"/>
      <path class="cls-1" d="M2.91,43.05c1.99-1.09,3.26-3.07,4.07-5.15.71-1.68,1.28-3.33.85-5.29h-1.96c-.26,0-.4.28-.57.45-.4.66-.83,1.21-1.37,1.94-.87.95-1.96,1.09-3.07.83-.28,0-.59-.31-.85-.54.57-.45.95-.71,1.23-1.13.87-.97,1.25-2.22,1.11-3.47,0-.85.31-.97,1.02-.97.26,0,.4.12.69.12q1.68.14,1.82,1.96h.85c1.54.14,3.05.14,4.61.26.54,0,.83.14.83.85,0,3.19-1.11,6.12-3.36,8.37-1.39,1.25-2.93,2.36-5.03,2.22-.28,0-.71,0-.97-.17,0-.09.12-.09.12-.26ZM13,31.78c-.85-.17-1.42-.17-1.96-.31-.26-.09-.43-.38-.43-.66q-.4-1.65,1.25-1.54c.57.14.71.28.85.83,0,.43.14.99.28,1.68ZM12.72,28.85c.85.14,1.65.14,1.96.43.54.54.69,1.39.95,2.1,0,0,0,.09-.12.09-.69-.09-1.54,0-1.94-.38-.57-.43-.57-1.28-.85-2.25Z"/>
      <path class="cls-1" d="M22.08,33.79c0-.09,9.29.02,10.66.17,1.37.12,2.34.57,2.77,1.06.21.24.35.5.35.8,0,.61-3.21,5.34-4.44,6.41-1.23,1.04-2.58,1.75-3.69,1.99-1.11.09-2.22-.35-2.48-.9-.26-.57-.21-.64.14-.85,2.08-1.51,4.25-3.9,5.48-6.19l.76-1.39-3.85-.12c-1.65-.02-2.79-.09-3.33-.17-.59-.07-1.13-.19-1.63-.43-.47-.21-.73-.38-.73-.38ZM31.25,28.87c.78-.09,1.04-.09,1.54-.47.26-.19.47-.28.71-.28.45,0,1.44.83,1.61,1.65.14.83-.12.99-.99.61-.52-.24-1.84-.43-3.95-.5-2.1-.09-3.62-.19-4.54-.4-.9-.21-1.54-.47-1.96-.83l-.5-.45.52.17c1.35.31,2.84.5,4.49.5h3.07Z"/>
      <path class="cls-1" d="M45.21,32.2c-.24-.28-.47-.59-.76-.9,2.62-.19,9.83-.07,10.52.02.66.12,1.13.8,1.18,1.09.02.14-.02.47-.09,1.02-.12,1.06-1.3,3.69-2.39,5.13-1.09,1.44-1.44,1.96-2.29,2.48-.4.28-.71.45-.95.5l-1.7.43c-.07,0-.33.09-.47.09l-.69-.57c-.12-.07-.14-.14-.14-.21.05-.07.83-.31,2.29-.73,1.89-3.14,2.95-5.86,3.19-8.18.05-.09-1.04-.17-3.29-.17h-4.42Z"/>
      <path class="cls-1" d="M71.71,37.35c.66.12,1.3.12,1.99.24-.17.02.09.12.09.61v5.25c0,.24-.26.61-.52.61-.9.09-1.3.07-2.22.07-.14,0-.28-.47-.28-.61v-5.58c-1.58,1.35-2.53,1.89-4.63,1.02.52-.24,1.04-.35,1.3-.59,1.06-.87,2.13-1.56,3.05-2.55.95-1.09,1.7-2.17,2.51-3.29.17-.21.4-.35.66-.35.9.24,1.09.07,2.15.31-.78,2.2-2.65,3.29-4.09,4.87Z"/>
      <path class="cls-1" d="M85.28,34.02s.24.09.66.28c.76.38,1.35,1.23,1.28,1.65-.4,1.49-.61,1.65-1.68,1.04-.95-.61-1.32-2.41-.59-2.86.19-.07.28-.12.33-.12ZM88.61,33.67c.38-.21,1.47.14,1.87.54.38.43.59,1.68.4,2.17-.4.97-2.62-.28-2.72-.85-.19-.64.09-1.75.45-1.87ZM91.21,43.22c-.19,0-.35-.05-.52-.19-.24-.12-.38-.19-.45-.28-.09-.07-.09-.12,0-.21.07-.07.26-.17.59-.31.33-.09.54-.26.61-.5.07-.17.26-.9.52-2.1.52-2.46,1.3-5.93,1.49-6.24.43-.61,2.1,1.21,2.43,1.82.19.31.28.69.28,1.11,0,.9-.87,3.4-1.68,4.54-.4.57-.83,1.11-1.3,1.58-.45.45-.73.69-.85.66-.09-.02-.28-.02-.52.05-.24.05-.43.07-.61.07Z"/>
      <path class="cls-1" d="M108.86,43.22c2.48-1.37,6.97-6.12,6.5-10.02-.71,0-2.84-.43-3.55-.43-.26,0-.4.28-.57.45-.4.66-.83,1.23-1.37,1.94-.87.95-1.96,1.09-3.07.83-.28,0-.59-.31-.85-.54.57-.45.97-.71,1.25-1.13.85-.97,1.25-2.22,1.09-3.47,0-.85.31-.97,1.02-.97.26,0,.43.12.69.12q1.68.14,1.82,1.96h.85c1.54.14,3.05.14,4.63.26.54,0,.8.14.8.85,0,3.19-1.11,6.12-3.33,8.37-1.42,1.25-2.95,2.36-5.03,2.22-.28,0-.73,0-.99-.17,0-.09.12-.09.12-.26Z"/>
      <path class="cls-1" d="M128.32,42.74c.12-.17.28-.24.45-.24.31,0,1.37-1.23,1.94-2.41.59-1.16,1.13-3.81.9-4.07-.07-.05-.85-.09-2.32-.19-2.13-.14-3.21-.38-3.36-.83.12-.07.9-.12,2.34-.14,1.47-.02,3.33-.02,5.6,0l3.59.05c.8-.87,1.28-1.32,1.47-1.32.38,0,1.65.95,1.65,1.25,0,.28-.21.8-.9.83l-5.7.14.45.52c1.35,1.63-.73,4.68-1.58,5.51-.87.87-2.95,1.73-3.81,1.94-.4.12-.76.02-1.04-.19-.52-.38-.54-.59-.12-.59.14,0,.28-.07.43-.26ZM134.67,30.43l.35-.43c.97-1.28,2.48.85,1.82,1.18-.35.17-1.13.21-2.41.21-3.17,0-5.03-.24-5.58-.61-.28-.21-.45-.38-.45-.45.33-.07,2.41-.05,6.26.09ZM138.57,30.48c-.05-.64.07-.83.47-.92.05-.02.24.09.52.35.59.59.64,1.47.33,1.94q-.31.47-.8-.02c-.45-.47-.52-.66-.52-1.35ZM141.5,28.73c.09.02.95.59,1.06,1.44.07.43-.07.78-.35,1.13l-.4.52-.52-.52c-.5-.5-.59-.47-.43-1.56.09-.52.17-.83.28-.9.17-.09.26-.14.35-.12Z"/>
      <path class="cls-1" d="M148.85,34.26c0-.28.07-1.73.12-2.55.07-.85.12-1.18.9-.87.78.33,1.42,1.16,1.54,1.49.07.19.09.47.07.92v.99c.59-.02,1.44,0,2.55.07-.02-1.32,0-2.22,0-2.62.07-.85.09-.85,1.11-.35,1.13.64,1.58,1.11,1.42,2.2l.66-.24c.33-.09.54-.14.64-.14.12,0,.31.09.57.26,1.13.76.8,1.32-.73,1.51-1.54.17-1.16-.26-1.58,1.65-.4,1.91-1.75,5.67-2.2,6.29-.24.31-.38.59-.43.87-.07.28-.14.43-.21.43-.28,0-.92-.28-.92-.47.17-.73.52-2.2.69-2.88.09-.33.21-.83.31-1.47.12-.61.21-1.18.31-1.63.07-.45.14-.97.26-1.51.24-1.09.17-1.23-.85-1.16h-.31c-1.63.07-1.42-.07-1.7,1.42-.14.76-.21,1.28-.21,1.61,0,.61-.05.76-.59.33-.59-.43-.9-.85-.9-1.28.02-.21-.05-.47-.19-.83-.17-.35-.21-.59-.24-.73,0-.19-.14-.33-.38-.38-.24-.07-.76-.12-1.56-.14-.8,0-1.3-.09-1.51-.31-.33-.26-.33-.45,0-.47h3.38ZM158.07,32.15c0-.09-.12-.24-.31-.45-.43-.43-.43-1.32-.19-1.82.12-.24.24-.35.33-.35.19,0,.69.33.8.73.12.4.26,1.8.26,2.29,0,.24,0,.4-.02.43-.07,0-.24-.12-.5-.35-.26-.24-.38-.38-.38-.47ZM159.96,29.11c.24,0,.85.5.9.85.07.35,0,2.65-.17,2.93-.07.14-.14.21-.21.19-.12.02-.59-.28-.69-.45-.07-.09-.12-.19-.17-.31-.02-.09-.12-.26-.24-.4-.45-.5-.26-1.91.09-2.43.19-.26.35-.38.47-.38Z"/>
      <path class="cls-1" d="M174.59,34.97c.83.17.43.4,1.28.57-.21.02.14.14.14.8v6.78c0,.31-.35.8-.66.8-1.21.14-1.18.12-1.68.12-.19,0-.38-.64-.38-.8v-7.26c-2.06,1.75-4.28,1.89-7.04.8.71-.33,1.37-.47,1.73-.8,2.43-1.11,3.31-1.61,4.54-2.88,1.51-1.44,1.96-3.24,2.98-4.7.21-.28.54-.45.87-.45,1.21.31,1.09.64,2.46.92-.99,2.84-2.41,4.07-4.23,6.1Z"/>
      <path class="cls-1" d="M198.61,33.27c.9,0,1.04-.02,1.51-.64.54-.59.99-.73,1.89-.24.66.43.9.9.61,1.44-.07.14-.28.21-.57.26-.31.02-1.02.05-2.1.07h-2.53c-.45,1.94-1.21,3.52-2.29,4.7-.61.69-1.09,1.28-1.42,1.82-.69,1.06-2.62,2.74-3.05,2.74-.45,0-1.13-.43-1.18-.59-.02-.14.26-.43.85-.92,1.13-1.02,2.62-3.9,3.26-6.24l.4-1.49c-1.54-.17-3.1-.21-4.75-.21-1.63.02-2.6-.02-2.86-.19-.26-.19-.4-.28-.4-.38,0-.28,1.68-.35,4.96-.21l3.31.07c-.02-.21-.02-.78-.05-1.73-.05-1.91-.21-3.07-.38-3.66.78.12,1.37.26,1.75.43.38.17.59.19.66.12s.24,0,.52.24c.26.24.5.52.66.87.14.14.26.43.28.83.02.4.02.95,0,1.68l-.05,1.23h.95Z"/>
      <path class="cls-1" d="M219.36,35.51c0,.28-.54.85-1.18.92-.64.07-5.63.21-6.95-.02-.66-.12-1.18-.28-1.58-.5-.78-.45-.52-.8-.07-.83.21,0,.8.05,1.75.12,1.89.14,5.22.09,5.86-.19.64-.28,1.21-.28,1.73.02.31.17.45.33.45.47Z"/>
      <path class="cls-1" d="M62.35,54.05c.26,0,2.08,1.3,2.39,1.75.14.24.21,1.06.21,2.46,0,2.84-.17,2.81,2.22,1.51,2.79-1.54,3.4-1.89,3.4-2.06,0-.52.59-1.39,1.02-1.37.9,0,2.08,1.09,2.08,1.94,0,.31-.43.54-1.28.76-1.65.38-6.93,3-7.19,3.38-.33.54-1.73,1.37-1.18,3.78.21.87,1.25,1.84,2.91,1.89,2.22.05,2.84,0,3.24-.12.4-.17.66-.21.8-.21.28,0,1.3.5,1.39.73.02.24-.57.76-1.21.76-.71.05-5.15-.26-6.29-.28-4.18-.07-4.25-2.86-4.25-3.55s.38-1.54.95-2.34c.28-.38.57-.73.87-1.04l.87-.85-.5-.54c-.69-.83-1.06-2.2-1.18-4.11-.05-1.06,0-1.73.19-2.03.19-.31.33-.45.52-.45Z"/>
      <path class="cls-1" d="M83.31,59.68c0-1.3.05-2.1.07-2.41.09-.61.64-1.61,1.04-2.1.17-.21.35-.4.54-.45.19-.09.26-.12.31-.17,0-.02.28.07.76.26.95.38,1.35,1.89.87,3.17-.5,1.25-.4,7.21-.35,8.01.02.43.17.78.33.99.92,1.13,2.1,1.56,3.33,1.06.52-.21,1.02-.61,1.47-1.23.24-.28.54-.78.92-1.49.83-1.37,1.02-1.56,1.84-1.42.43.05.69.17.76.24.24.21-2.03,3.64-2.67,4.14-.64.52-.97.64-1.91.66-1.94.14-4.33-.69-5.15-1.8-.07-.05-.19-.21-.4-.47-.17-.21-.28-.35-.35-.43-.26-.28-.78-1.54-1.21-3.76-.12-.57-.19-1.49-.19-2.81Z"/>
      <path class="cls-1" d="M107.59,60.03c.4-.76,1.02-1.51,1.47-1.8l.54-.33-2.72.05c-4.23.07-5.22-.02-5.48-.19-.26-.17-.38-.28-.38-.38,0-.21,1.35-.4,6.41-.59,2.58-.09,4.16-.21,4.66-.33.54-.12.8-.17.87-.21.14-.09,1.42-1.11,1.87-1.11.43,0,3.69,1.75.35,2.27l-1.18.14c-1.75,1.18-3.19,3.36-3.24,4.73-.05,1.28,1.68,4.14,2.88,4.56.85.31.97.52-.52.57-1.49.05-1.65-.07-2.58-.43-1.73-.85-3.66-3.29-3.66-4.73,0-.57.31-1.47.71-2.22Z"/>
      <path class="cls-1" d="M128.69,66.58c0,.59.12.73.4.45.28-.26,2.15-.07,2.34.21.12.21-.05.35-.5.5-.33.09-.73.14-1.21.14h-1.18l-.05.5c-.07.5-.12.52.71.52.4.02.66-.05.76-.21.17-.33,2.15.07,2.15.4,0,.31-.45.8-.71.87-.12.02-.31.02-.54,0-.59-.09-1.77-.02-3.57.21-1.8.21-2.91.35-3.36.33-.45.02-.85-.07-1.23-.19-.76-.24-.71-.54.12-.64l4.47-.54-.69-.24c-.47-.14-.71-.33-.71-.54,0-.12-.05-.19-.14-.26-.09-.05-.28-.07-.54-.07-2.06,0-1.84-.59-.52-.73.66-.09,1.06-.14,1.18-.19.12-.05.19-.17.19-.38,0-.19-.05-.31-.14-.33-.09-.07-.33-.14-.71-.17-2.01-.28-1.75-.78-.45-.78.64,0,1.02-.02,1.13-.05s.17-.17.17-.35c0-.21-.05-.33-.14-.4-.09-.07-.33-.07-.71-.05-1.3-.02-2.17-.31-2.72-.78-.47-.43-.69-1.54-.47-2.6l.12-.64.85.09c.54.09,1.42-.07,2.58-.31,2.34-.5,2.69-.61,4.47-.54.87.02,1.49.12,1.82.28.66.35.69,1.18.33,2.74l-.31,1.11-1.54.12c-1.16.07-1.7.19-1.61.38.07.09.35.19.9.31.54.12.85.24.92.33.07.09.05.19-.05.31-.19.19-.54.38-1.16.47-.31.05-.5.09-.57.17-.07.07-.09.24-.09.54ZM129.95,58.73c0,.19-.07.31-.24.35s-.54.09-1.18.17c-.64.09-1.23.19-1.8.33-1.13.31-2.62-.17-2.72-.38-.05-.09-.12-.52-.19-1.25l-.12-1.13-.69-.17c-.92-.24-.95-.47,0-.66l.76-.09v-.9c0-1.21.14-1.35,1.16-1.28,1.02.14,1.13.19,1.13.9s.17.92.66.8c.5-.12.59-.19.71-.99.12-.8.21-1.11,1.23-.99,1.02.12,1.39.24,1.51.73.07.26.17.38.33.38.31-.02,1.18.26,1.35.38s.09.59-.21.8c-.17.09-.43.17-.78.24-.73.14-.69.19-.83,1.49-.07.69-.09,1.11-.09,1.28ZM126.07,62.49c0-.69-.05-1.04-.17-1.02-.12-.02-.17.33-.17,1.02s.05,1.06.17,1.06.17-.35.17-1.06ZM127.21,57.15c0-.9-.35-.66-.73-.57-.19.02-.31.09-.33.19-.07.19-.12,1.49.05,1.68.17.17.8-.07.9-.19.05-.07.07-.14.09-.26.02-.14.02-.4.02-.85ZM128.79,63.27l.61.07c.4.02.61,0,.59-.12,0-.12-.07-.21-.21-.21-.09.05-.17-.05-.19-.21-.02-.17-.02-.43,0-.8l.07-1.13c-.02-.09-.05-.19-.07-.21-.02-.02-.07-.05-.09-.02-.69.07-.71.14-.71,1.39v1.25ZM142.31,61.35c0,1.47-.64,5.53-.95,6.52-.31.99-.73,1.51-1.23,1.99-.5.52-.85.83-2.1.78-.64-.02-1.04-.12-1.23-.31-.35-.38-.28-.78.17-1.06.59-.28,1.49-2.43,1.82-4.02.17-.76.24-1.82.24-3.1s-.05-2.01-.14-2.1c-.19-.19-.92-.24-1.04-.05-.07.09-.17.47-.28,1.09-.24,1.28-.76,3-1.28,4.4-.26.69-.45,1.16-.59,1.44-.21.31-.38.47-.54.54-.31.12-2.51-.28-2.51-.54,0-.12.14-.43.43-.85.57-.87,1.16-3.07,1.3-4.87l.12-1.47-.47-.09c-.83-.17-1.28-.38-1.35-.59-.05-.09,0-.14.12-.17.12-.05.38,0,.73.05l.92.12v-2.32c0-3.1-.5-2.53,2.22-2.46,1.35.02,2.08.07,2.17.14.09.07.14.21.14.5s-.07.83-.21,1.65c-.05.35-.17.57-.35.57s-.33.17-.43.52c0,.02,0,.05-.02.07-.21,1.18-.26,1.23,1.61,1.51l1.44.24c.38.07.92.24,1.04.33.09.07.26.5.26.71v.83Z"/>
      <path class="cls-1" d="M148.22,69.39c0-.19.07-.26.24-.26s.28-.12.38-.4c.19-.54.28-3,.07-4.49l-.09-.95-.43.45c-.66.64-2.32,1.73-2.95,1.73-.31,0-.61-.07-.9-.17-.28-.09-.43-.21-.43-.33,0-.05.05-.12.14-.24.09-.09.26-.21.52-.35.5-.28,2.08-1.96,2.48-2.67.45-.95.4-1.42-.14-1.44-.64-.02-1.75-.38-1.75-.57.02-.12.95-.31,2.81-.61,1.87-.31,2.79-.5,2.79-.52s-.09-.07-.28-.09c-1.32-.26-1.99-.87-1.99-1.84,0-.12.07-.19.19-.21s.4,0,.83.02c.85.12.95.09,1.21-.33.26-.4.64-1.61.54-1.73-.05-.07-.38-.05-.97.05-1.21.21-1.47.14-2.22-.14-1.73-.69-1.91-.83,1.18-1.04,1.54-.09,2.48-.12,2.81-.09.66.07,1.87.59,2.06,1.11.26.5.19,1.47-.57,2.36-.38.43-.71.66-.99.66-.57,0-.85.28-.85.85v.5l1.35.12c1.87.09,2.15.4,2.15,1.49s.02,1.16-.61,1.89c-.64.69-.8.78-2.15.57-.69-.09-.99-.09-.92,0,.12.21.17,6.76.09,7.49-.07.76-.35,1.02-1.42,1.09-1.06.07-1.3-.17-1.61-.59-.17-.24-.28-.47-.4-.69-.12-.24-.17-.45-.17-.61ZM152.31,59.84c0-.12-.09-.26-.26-.26h-.33c-.31.02-.47.05-.5.07-.02.05.05.12.17.19.19.19.28.52.26.99v.8l.33-.45c.21-.28.33-.61.33-.99v-.35ZM156.16,63.67l-1.16.64c-.31-.07-.47-.19-.5-.31-.05-.24.45-.33,1.51-.33h.14ZM157.39,63.67v-.64c.45-.24.95-.52,1.47-.78.17,0,.31.07.47.24.17.19.4.26.71.26s.5.07.57.21c.07.12.4.19,1.04.19,1.25,0,2.67.28,3.12.83.45.54.54,2.34.47,2.77-.07.4-.8,1.63-1.54,2.06-.73.43-2.55.61-2.81.33-.12-.12.02-.4.43-.85.5-.57.76-1.42.95-3.14l.12-1.13-1.58.09-.59,1.89c-.54,1.75-.85,2.51-1.32,3-.47.47-1.56,1.28-2.81,1.28-.64,0-.95-.09-.95-.24,0-.05.05-.17.14-.28s.17-.31.21-.52c.02-.21.19-.35.47-.43.57-.12,1.35-1.87,1.42-3.17l.07-1.02-1.16-.12c-.54-.07-.95-.12-1.25-.19l1.18-.64h1.18ZM160.51,55.14c.76,0,1.25,0,1.47-.02.45-.02.59-.09.71-.43.12-.33.24-.5.8-.4.57.07,1.54.35,1.61.71.07.35-.35.69-.99.9-.31.09-.66.14-1.04.17s-.57.05-.57.12c.26.09.61.47.83.87.12.21.17.4.14.54.02.31-.19.78-.64,1.49-.45.69-.66,1.04-.66,1.11,0,.14,1.94.99,2.34,1.09.21.02.35.07.45.14.09.07.14.12.12.19-.05.17-.33.24-.88.17-.54-.07-1.06-.24-1.61-.45-.54-.24-.9-.4-1.06-.43-.17-.02-.33,0-.45.12l-3.69,1.99v-.12c0-.73-.02-.83-.47-.95-1.11-.24-.4-.52.43-.92.4-.21.8-.54,1.18-.97l.54-.66-.52-.61c-.33-.45-.5-.69-.5-.78,0-.12-.21-.5-.31-.5-.05,0-.14.05-.26.14-.12.12-.26.17-.38.17-.26,0-1.65-.33-1.84-.66-.09-.19.07-.61.47-1.37.4-.73.71-1.61.92-2.62.05-.28.12-.43.21-.45.19-.09,1.37.33,1.75.85.19.28.28.69.26,1.18.02.21.09.33.26.35.17.02.61.05,1.37.05ZM156.21,63.65c.35-.24.76-.43,1.18-.64l-1.18.64ZM159.99,56.06c-.4,0-.71,0-.87.02-.35.02-.47.09-.78.52-.31.43-.28.59.47.76.38.09.64.21.76.33.26.28.31.28.57-.19.14-.24.24-.52.31-.83s.21-.47.45-.5q.07-.05-.02-.07c-.17-.02-.47-.05-.87-.05Z"/>
    </g>
  </g>
</svg>