<?xml version="1.0" encoding="UTF-8"?>
<svg id="_レイヤー_2" data-name="レイヤー 2" xmlns="http://www.w3.org/2000/svg" viewBox="0 0 945.11 274.49">
  <defs>
    <style>
      .cls-1 {
        fill: #9eb3bc;
      }
    </style>
  </defs>
  <g id="_編集箇所" data-name="編集箇所">
    <g>
      <path class="cls-1" d="M3.3,83c-1.23-.07-1.85-.65-2.39-1.13-.83-.73-1.27-1.6-.5-2.34.52-.5,1.5-1.21,2.73-1.28,1.28-.18,2.48.47,3.41.27,1.34-.29,2.33-.88,3.11-1.35.99-.59,1.14-1.65,1.59-2.79.34-.85,1.19-1.7,1.45-3.01.16-.81.39-1.83.59-3.03.15-.92.52-1.91.69-3.01.15-.96-.17-2.05-.02-3.12.14-.98.08-2.02.23-3.08.14-.99.98-1.91,1.13-2.96s.02-2.05.16-3.09-.36-2.11-.22-3.14,1.15-1.91,1.29-2.94-.84-2.18-.71-3.2.94-1.95,1.07-2.98.86-1.97.99-2.99.2-2.06.33-3.07-.07-2.1.05-3.11.46-2.04.58-3.04c.13-1.05-.43-2.16-.31-3.15.13-1.06.71-2.03.82-3.01.13-1.08-.47-2.19-.36-3.15.13-1.12.94-2.06,1.05-2.99.14-1.21.8-2.18.89-3,.14-1.28-1.09-2.34-1.25-3.31-.18-1.05.29-2.53-.83-3.32-.72-.51-2.18-.07-3.5-.51-.91-.3-1.93-.57-3.19-.85-.98-.22-1.98-.85-3.2-1.05-1.19-.18-1.89-.76-2.34-1.33-.64-.81-.53-1.52.44-2.12C7.66.48,8.46-.07,9.7,0c.69.04,1.71,0,2.92.06.88.04,1.87.11,2.92.16.94.05,1.93.03,2.92.09s1.89,1.12,2.84,1.2c1.02.08,2.1-.87,3.01-.77,1.1.12,2.09.43,2.89.59,1.54.45,1.84,1.7,2.93,3.57.53.86,1.52,1.34,2.13,2.48.4.76.79,1.72,1.37,2.92.39.82.42,1.97.93,3.11.39.87.78,1.87,1.26,2.97.34.78.83,1.7,1.3,2.8.37.86.58,1.9,1.01,2.92.38.9,1.56,1.52,1.98,2.52.38.91.06,2.17.47,3.15.39.93,1.31,1.66,1.72,2.63s.62,1.96,1.02,2.92.82,1.88,1.22,2.84.35,2.08.75,3.04.98,1.82,1.38,2.78,1.27,1.71,1.66,2.66.12,2.19.51,3.14.73,1.95,1.12,2.89,1.63,1.58,2.01,2.51c.41.98.8,1.94,1.19,2.86.41.99.48,2.08.86,2.99.42,1.01.16,2.24.53,3.13.44,1.05,1.19,1.86,1.54,2.71.5,1.19,1.41,1.94,1.71,2.63.21.49.79.89,1.19.31.3-.46.1-1.91.9-3.26.48-.79,1.27-1.58,1.9-2.63.51-.85,1.26-1.66,1.85-2.66.52-.88.86-1.93,1.44-2.9.53-.89.72-2.03,1.29-3,.53-.9,1.25-1.73,1.82-2.68s1.93-1.34,2.49-2.29.99-1.9,1.55-2.84.63-2.12,1.18-3.06,1.39-1.68,1.94-2.61.65-2.12,1.2-3.05.8-2.04,1.35-2.97,1.99-1.33,2.54-2.26.28-2.35.83-3.28,1.58-1.59,2.13-2.51.69-2.12,1.24-3.03,1.2-1.82,1.74-2.73,1.63-1.57,2.17-2.48.49-2.26,1.03-3.16c.63-1.03,2.16-1.35,2.69-2.16.69-1.06.56-2.45,1.1-3.19.82-1.12,1.96-1.5,2.57-2.06,1.08-1,1.7-1.14,2.68-1.19.53-.04,1.58-.37,2.95-.34.89.02,1.91-.3,2.99-.26.96.03,1.93.93,2.94.98s2.03-.27,2.99-.22c1.06.05,2.05.45,2.95.5,1.35.08,2.1.14,2.65.65.84.78,1,1.68.1,2.46-.59.52-1.55,1.33-2.83,1.39-1.29.09-2.48-.57-3.47-.45-1.37.16-2.51.38-3.4.64-1.37.4-1.62,1.56-2.18,2.43-.51.8-1.91,1.45-2.02,2.87-.06.64.59,1.77.49,3.19-.06.91-.1,1.96-.17,3.13-.06.97-.08,2.02-.14,3.13-.05.99-.44,2.02-.5,3.12-.05,1.01-.21,2.05-.27,3.13-.05,1.02-.18,2.06-.23,3.13s.84,2.12.79,3.18-1.05,2.03-1.1,3.09.18,2.1.13,3.15.46,2.12.41,3.16-.9,2.06-.95,3.1-.22,2.1-.26,3.14.48,2.13.44,3.16.44,2.13.4,3.16c-.04,1.08-1.35,2.08-1.38,3.09-.04,1.09.23,2.15.19,3.15-.04,1.11.36,2.17.34,3.15-.03,1.16-.04,2.21-.06,3.14-.02,1.31.24,2.36.25,3.12.02,1.12-.41,2.07-.33,2.87.12,1.16.38,2.03.84,2.72s1.42.68,2.5,1.12c.73.3,1.43,1.01,2.53,1.28.82.2,1.82-.01,2.88.2,1.34.26,2.69.83,3.19,1.42.75.89-.26,1.84-1.47,2.44-.69.35-1.45,1.36-2.81,1.28-1.18-.07-2.16-1.07-3.17-1.15-1.1-.09-2.15.05-3.24-.05-1-.09-2.13.84-3.31.75-.98-.07-2.04-.02-3.24-.09-1.03-.06-2.13-.24-3.28-.29s-2.19-.96-3.27-1c-1.18-.04-2.29-.42-3.29-.46-1.46-.05-2.69.89-3.34.86-1.34-.08-2.33-.72-2.89-1.21-.86-.76-.52-1.62.5-2.39.61-.46,1.33-1.54,2.62-1.65,1.51-.17,2.54-.59,3.46-.86,1.57-.46,3.01-.23,3.49-1.2.44-.89.04-2.27.17-3.8.08-.93.35-1.98.44-3.18.08-.99-.58-2.11-.5-3.25.07-1.01,1.11-2.02,1.18-3.13.07-1.03.15-2.1.22-3.2.07-1.04-.66-2.16-.59-3.25s.38-2.1.44-3.19.65-2.1.71-3.17-.73-2.18-.67-3.26.73-2.11.79-3.18-.33-2.17-.27-3.24.3-2.14.36-3.2,0-2.17.05-3.22.37-2.16.43-3.2c.06-1.11.22-2.18.27-3.2.06-1.13-.08-2.21-.03-3.22.06-1.16.63-2.22.67-3.19.06-1.26-.1-2.35-.06-3.21.06-.96-.53-.87-.79-.64-.53.89-1.22,1.73-1.77,2.66s-.19,2.33-.74,3.26-1.48,1.57-2.02,2.49-1.74,1.42-2.29,2.34-.43,2.2-.97,3.12-.89,1.93-1.43,2.85-1.79,1.4-2.32,2.32-.36,2.24-.9,3.16-1.55,1.55-2.09,2.47-.35,2.26-.88,3.18-1.41,1.64-1.94,2.55-.7,2.05-1.24,2.96-1.55,1.56-2.08,2.47-1.5,1.59-2.02,2.5-1.37,1.67-1.89,2.58-.03,2.45-.55,3.35-1.21,1.77-1.73,2.67c-.54.93-1.98,1.26-2.44,2.08-.53.94-.2,2.28-.65,3.1-.52.95-1.75,1.42-2.19,2.25-.5.94.14,2.39-.3,3.24-.47.92-1.77,1.37-2.21,2.26s-.34,2.03-.82,2.96c-.73,1.56-1.86,2.61-2.78,2.72-1.15.14-1.85-1.22-2.3-2.65-.19-.89-1.11-1.63-1.38-2.68-.22-.86-.85-1.67-1.17-2.71-.26-.85-.05-1.93-.39-2.96-.29-.86-.82-1.7-1.18-2.71-.31-.86-.69-1.77-1.06-2.76-.32-.89.05-2.14-.34-3.22-.33-.92-1.3-1.68-1.68-2.73-.34-.94-.08-2.14-.46-3.17-.34-.95-.95-1.84-1.33-2.86-.35-.95-1.11-1.79-1.48-2.8-.35-.96-.56-2-.93-3.01s-.27-2.11-.64-3.11-.61-1.99-.98-2.98-1.13-1.79-1.51-2.79-1.18-1.78-1.56-2.77-.32-2.11-.7-3.1-.15-2.18-.53-3.16-1.38-1.7-1.77-2.68-.62-2-1.01-2.98-.34-2.12-.73-3.1-1.55-1.63-1.95-2.6,0-2.26-.4-3.24-1.12-1.81-1.53-2.78c-.21-.49-1.23-.48-1.4.35-.12,1.02.02,2.1-.1,3.14s.07,2.1-.05,3.14-1.06,1.97-1.17,3.01.09,2.1-.03,3.14.68,2.17.56,3.21-.27,2.07-.38,3.1-.67,2.03-.79,3.06-.98,2-1.09,3.03.14,2.13.03,3.15-.43,2.07-.54,3.09-.13,2.1-.24,3.12-.07,2.11-.17,3.12c-.11,1.07-.44,2.08-.54,3.09-.11,1.07.7,2.2.6,3.2-.11,1.09-.75,2.07-.84,3.05-.11,1.11.38,2.2.3,3.16-.1,1.16-.89,2.14-.95,3.04-.1,1.25.27,2.28.34,3.16.1,1.24-.3,2.62.4,3.35.6.63,1.95.65,3.19,1.11.84.31,1.74.97,2.94,1.26.92.22,1.97.45,3.13.69,1.29.19,2.47.2,2.91.82.61.86.23,2.24-.83,2.87-.65.38-1.68-.05-2.97-.12-1.05-.06-2.18-.08-3.4-.18-1.07-.09-2.3.82-3.49.72-1.09-.09-2.2-.46-3.38-.55-1.1-.08-2.21-.66-3.38-.73-.94-.05-1.99.73-3.03.69s-1.99-.85-2.97-.88c-1.06-.03-2.09.22-3.01.19-1.23-.04-2.27-.3-2.98-.34Z"/>
      <path class="cls-1" d="M125.24,41.19c-1.82-.59-2.87-2.39-2.71-3.35s1.8-1.83,3.73-1.58c.82.1,1.82-.04,2.82.14.88.16,1.81.32,2.75.51s1.79.61,2.69.79c.96.19,1.89.32,2.75.46.83.13,2.06.13,3.38.31,1.1.15,2.31.08,3.41.23,1.34.18,2.41,1.39,3.21,1.52,1.85.3,2.63.93,2.6,1.93-.03,1.05-.93,1.56-2.69,1.65-1.75.12-2.93.74-3.73,1.03-1.4.5-1.87,1.48-1.53,3.23.24,1.02.31,2.11.56,3.17s1.18,1.91,1.43,2.97-.12,2.22.13,3.27,1.46,1.86,1.7,2.91.47,2.1.71,3.14.34,2.13.58,3.17-.43,2.32-.19,3.35,1.04,1.99,1.27,3.01c.25,1.08.09,2.22.31,3.23.25,1.09.67,2.1.9,3.09.25,1.12,0,2.32.21,3.28.26.65,1.22.65,1.53.21.57-.85.6-2.05,1.16-2.9s1.2-1.67,1.74-2.51,1.18-1.68,1.73-2.53,1.57-1.44,2.11-2.29,1.47-1.52,1.99-2.37c.55-.89.65-2.03,1.17-2.87.55-.9.86-1.91,1.37-2.75.55-.91,1.89-1.3,2.39-2.13.56-.94-.1-2.51.38-3.33.58-.98,1.81-1.45,2.25-2.22.67-1.16.59-2.35.91-2.95.65-1.41.82-2.2.79-3.04-.04-1.02-.36-1.13-1.8-1.89-.8-.42-1.55-1.38-2.88-1.88-1.05-.38-2.27-.71-2.65-1.3-.55-.87-.04-2.44.74-3,.55-.4,1.52.34,2.68.49.86.14,2.08-.6,3.26-.36.97.19,2,.53,3.08.73s2.03.64,3.07.81c.93.15,2.01.21,3.14.35,1.01.13,2.16-.37,3.22-.23s2.09.62,3.09.78c1.22.16,2.37.61,2.83,1.17.64.79-.02,1.83-.9,2.54-.57.46-1.23,1.43-2.44,1.5-1.44.11-2.55-.06-3.45.26-1.12.4-1.58,1.33-2.43,2.32-.63.73-1.63,1.34-2.42,2.51-.52.8-.68,1.95-1.31,2.91-.54.82-1.51,1.43-2.13,2.37-.55.83-1.42,1.51-2.03,2.43-.56.84-1.29,1.61-1.9,2.52-.56.84-.29,2.28-.9,3.18-.56.85-1.26,1.64-1.86,2.54-.56.85-1.77,1.31-2.36,2.21-.56.85-.5,2.15-1.09,3.05s-1.54,1.47-2.13,2.36-1.02,1.81-1.6,2.71-1.61,1.44-2.19,2.33-.85,1.93-1.43,2.82-1.28,1.65-1.86,2.54-.51,2.15-1.08,3.04-1.48,1.53-2.05,2.43-.54,2.13-1.11,3.03-1.98,1.22-2.55,2.11-.98,1.85-1.54,2.76-1.06,1.81-1.62,2.71c-.55.9-1.32,1.62-1.81,2.45-.55.91-.16,2.32-.65,3.15-.55.92-2.21,1.1-2.7,1.92-.55.93-.17,2.32-.64,3.13-.55.95-1.5,1.56-1.96,2.37-.56.98-1.37,1.67-1.81,2.46-.57,1.02.02,2.48-.38,3.24-.59,1.1-1.81,1.56-2.18,2.27-.57,1.25-1.36,2.27-3.37,1.94-1.05-.17-2.01-.49-2.8-.88-.97-.49-2-.96-2.54-1.63-.71-.88-.69-2.08-.55-2.93.13-.78.53-1.62,1.18-2.6.47-.69,1.28-1.27,1.97-2.11.56-.68,1.35-1.26,2.03-2.06.86-.96,1.68-1.78,2.38-2.59.81-.93.64-2.58,1.38-3.45s1.7-1.53,2.5-2.48c.69-.82,1.83-1.37,2.67-2.36.71-.93,1.18-2.02,1.85-2.92s.89-2.21,1.55-3.12,1.82-1.51,2.49-2.43,1.28-1.9,1.96-2.82c.31-.44,1.3-1.07,1.2-1.94-.24-1-.96-1.95-1.21-2.98s-1.06-1.89-1.31-2.91-.63-1.99-.88-3.02-.63-2-.88-3.01.79-2.35.54-3.37-.83-1.96-1.08-2.97-.8-1.97-1.05-2.98-.53-2.04-.78-3.04-.91-1.94-1.17-2.94-.21-2.13-.47-3.12-.98-1.94-1.24-2.92c-.28-1.05-.02-2.2-.28-3.18-.28-1.06-.23-2.16-.49-3.12-.29-1.07-.4-2.15-.67-3.08-.37-1.14-1.66-1.8-1.96-2.65-.4-1.15-.34-2.23-.82-3-.55-.88-1-1.91-1.97-2.53-.74-.47-2.07.02-3.23-.42Z"/>
      <path class="cls-1" d="M265.56,66.99c.9,1.34,2.27,2.45,1.8,4.31-.27,1.04-1.17,2.02-1.77,2.93-.74,1.13-1.65,2.02-2.19,2.5-.7.67-1.54.55-2.29.53-.67-.01-1.98.38-2.33-1-.24-.95-.56-1.89-1.19-3.04-.51-.93-.82-1.96-1.67-2.88-.72-.79-1.58-1.41-2.6-2.11-.88-.61-1.88-.94-3.01-1.44-.99-.43-1.97-.78-3.17-1.09-1.1-.28-2.01-1.36-3.07-1.43-1.12-.07-2.26.12-3.33.3s-2.17.5-3.18.95-1.57,1.49-2.47,2.19c-.83.65-1.37,1.49-2.12,2.38-.67.8-2.28.98-2.88,1.98-.54.89-.33,2.26-.8,3.32-.43.96-1.71,1.66-2.07,2.75-.34,1-.33,2.18-.61,3.3-.27,1.06-.71,2.07-.89,3.07-.19,1.08-.42,2.16-.5,3.17-.09,1.1.46,2.2.49,3.2.04,1.1-.18,2.2-.02,3.19.18,1.08.69,2.07,1.01,3.03.34,1.04.42,2.2.9,3.1.51.95,1.51,1.61,2.15,2.41.67.84,1.09,1.95,1.86,2.63s1.74,1.35,2.61,1.89,1.98.93,2.92,1.33c1,.42,2.16.28,3.15.53,1.02.26,1.98.48,2.97.59s1.98-.06,3.01-.12,1.91-.27,2.96-.48c.95-.2,2.03.04,3.06-.29.91-.3,1.81-.81,2.81-1.22,1.22-.51,2.01-.1,2.57.2.76.41.62.84.01,1.92-.37.65-.71,1.4-1.63,2.03-.87.56-1.9.8-2.84,1.29s-1.68,1.27-2.67,1.65-1.99.55-3.01.83-1.85,1.43-2.9,1.6-2.17-.56-3.24-.51-2.09.54-3.16.47c-1.02-.06-2.05-.45-3.12-.63-1.01-.16-1.83-1.19-2.88-1.46-1.02-.26-2.4.64-3.34.24s-1.59-1.51-2.47-2.05-1.97-.84-2.76-1.51-1.79-1.22-2.48-2-.96-1.93-1.54-2.8-1.51-1.56-1.98-2.49-.9-1.93-1.26-2.91-.38-2.09-.63-3.1-.41-2.05-.55-3.08.54-2.1.5-3.15-.43-2.04-.37-3.08.2-2.04.37-3.07.13-2.08.39-3.09c.26-1.02.1-2.18.44-3.12.36-.99,1.62-1.58,2.06-2.48.46-.94.49-2.09,1.02-2.94.55-.89,1.5-1.48,2.11-2.27s1.48-1.41,2.18-2.13c.73-.75.75-2.24,1.51-2.89.8-.68,2.25-.51,3.06-1.07.87-.61,1.53-1.46,2.38-1.94.94-.53,1.93-.84,2.8-1.24,1.02-.46,1.95-.87,2.82-1.16,1.06-.38,2.04-.88,3.06-1.14,1.09-.28,2.14-.67,3.17-.83,1.12-.17,2.27.46,3.3.4,1.14-.06,2.22-.96,3.24-.91,1.17.05,2.21.74,3.2.88,1.22.18,2.43-.21,3.32.01,1.09.28,2.04.8,2.92,1.14,1.07.41,1.66,1.52,2.46,1.98,1.03.59,1.92.98,2.58,1.56,1.02.9,1.41,1.8,1.8,2.39Z"/>
      <path class="cls-1" d="M306.57,97.74c.3-1.13.21-2.22.35-3.23.16-1.16,1.11-2.2,1.08-3.22-.04-1.17-.55-2.26-.81-3.25-.29-1.12-1-2-1.51-2.89-.56-.98-.97-2.03-1.72-2.77-.8-.78-2.12-.73-3.04-1.26-.97-.56-1.59-1.75-2.59-2.07-1.17-.36-2.29-.02-3.23-.08-1.23-.09-2.18-.17-3.09.15-1.06.37-2.08.71-2.82,1.48-.64.64-.58,1.91-1.18,2.76-.55.78-1.49,1.32-2.04,2.14s-1.55,1.33-2.14,2.05c-.92,1.17-2.13,2.24-3.16,1.79-.84-.37-2.06-1.66-2.25-3.41-.15-.92.88-1.92.96-2.84s.44-1.74.71-2.61c.43-1.38.85-1.82,2.43-2.46.98-.37,1.91-.9,3.01-1.22,1.03-.3,1.96-1.11,3.05-1.35s2.14-.62,3.22-.8,2.18-.7,3.25-.82c1.14-.13,2.29-.08,3.34-.14,1.19-.06,2.32.69,3.32.73,1.33.06,2.61-.55,3.43-.29,1.11.34,1.73,1.74,2.66,2.18,1.05.5,1.99.88,2.82,1.48.93.68,1.6,1.42,2.28,2.21.74.85,1.33,1.64,1.81,2.59s1.95,1.64,2.22,2.69-.73,2.36-.65,3.44.94,2.2.85,3.27-.51,2.2-.72,3.24c-.22,1.12-.47,2.21-.77,3.2-.27.86-.73,1.81-1.08,2.9-.29.92-.09,2.08-.42,3.11-.31.95-.53,1.97-.86,2.97s-1.67,1.62-1.99,2.61-.82,1.92-1.14,2.89-.21,2.14-.52,3.09c-.34,1.04-1.17,1.86-1.47,2.78-.36,1.1-.11,2.28-.39,3.13-.51,1.57-1.12,2.56-1.21,2.86-.36,1.15-.83,2.22-.71,2.63.24,1.13,2.1,1.35,3.35,1.94,1.13.54,2.06,1.96,3.1,2.28,1.36.35,1.7.78,1.21,1.81-.39.82-.98,2.27-2.23,2.55-.88.25-2.03-.25-3.09-.17-.95.07-1.93-.19-2.95-.25s-2,.17-2.98-.02-1.99-.36-2.92-.68c-1.12-.39-1.92-1.04-2.34-1.83s.11-1.75.19-2.9c.05-.86-.24-1.84,0-2.92.19-.88.29-1.72.57-2.76-1.07.45-1.98.82-2.97,1.2-1.09.41-2,1.2-3.01,1.52-1.11.36-2.51-.53-3.53-.28-1.14.28-2.04,1.26-3.08,1.43-1.16.18-2.27.28-3.31.32-1.17.04-2.21-.63-3.25-.76-1.15-.14-2.25.06-3.27-.26-.89-.28-1.84-.68-2.79-1.31-.82-.54-1.61-1.2-2.36-2.01-.68-.73-.93-1.76-1.46-2.7-.49-.87-1.18-1.62-1.48-2.67-.27-.95-.04-1.96-.1-3.06-.05-.98-1.09-2.07-.93-3.16.14-.97.44-2.05.77-3.11.32-1.02,1.59-1.56,2.15-2.4s1.23-1.47,2.01-2.16,1.07-1.96,1.99-2.48c.87-.49,1.78-1.17,2.78-1.54.94-.34,2.15-.03,3.18-.26s2.03-.12,3.07-.25,2.01-.32,3.05-.36,2.04-.13,3.08-.09,2.13-.68,3.17-.57,1.96,1,2.98,1.18,2.14-.06,3.14.18,2.1.32,3.07.63c1.15.36,2.51,1.5,4.19,2.15,1.15-1.01,1.08-1.26,1.5-2.73s-.22-1.65.22-3.12ZM302.91,109.54c.21-.69-.22-.37-.64-.63-.78-.41-1.3-1.65-2.5-2.12-.83-.32-1.94-.34-3.12-.72-.89-.29-1.99-.28-3.14-.61-1.07-.32-2.03-.88-3.04-1.03-1.11-.17-2.18.57-3.2.59-1.13.02-2.24-.71-3.22-.47-1.08.27-1.82,1.17-2.69,1.71s-1.76,1.06-2.41,1.92-1.37,1.61-1.71,2.69c-.29.95.35,1.98.31,2.92s-.43,1.86-.13,2.78.32,2.02.98,2.79c.59.68,1.78.72,2.7,1.25.77.44,1.65.51,2.67.83.94.29,1.7,1.56,2.8,1.68.97.11,2.1.3,3.22.18.95-.11,2.11-.18,3.2-.52.92-.29,1.88-.9,2.91-1.38.87-.42,1.54-1.42,2.5-2.01,1.24-.75,1.66-1.18,2.44-3.7.48-1.55.17-1.63.61-3.19s.97-1.41,1.45-2.96Z"/>
      <path class="cls-1" d="M375.55,105.97c-.39,1.08-1.35,1.84-1.93,2.71-.69,1.04-1.42,1.83-2.17,2.39-.66.78-2.03,2.44-3.16,2.03-1.02-.36-.93-1.19-1.94-3.72-.56-1.18-1.18-2.19-1.98-3.04s-1.75-1.39-3.07-1.87c-.9-.32-1.87-.65-2.96-.7-.93-.04-1.8.77-2.89,1-.91.19-2.2-.63-3.23-.21-.87.36-1.38,1.59-2.35,2.13-.69.52-1.02.4-1.31,1.19-.57,1.59-.72,1.53-1.29,3.12s-.68,1.55-1.25,3.13-.11,1.75-.68,3.34-.96,1.45-1.53,3.04-.67,1.56-1.23,3.14-.28,1.69-.85,3.29-.63,1.57-1.2,3.16c-.44,1.24-.75,2.41-1.08,3.44-.42,1.32-1.43,2.28-1.71,3.25-.43,1.53-.03,2.78.61,3.75.48.73,1.5,1.32,2.9,2.23.84.55,2.21.59,3.45,1.32,1.53.92,1.9,2.86,1.55,3.7-.36.89-2,1.53-3.62.95-.77-.28-1.79-.44-2.86-.86-.84-.33-1.8-.61-2.8-1-.87-.34-1.73-.84-2.71-1.21-.89-.33-1.43-1.74-2.4-2.09-.95-.34-1.93-.35-2.75-.62-.96-.32-2.15.34-2.97.08-.96-.31-1.76-.81-2.58-1.08-.94-.3-1.58-1.24-2.42-1.54-1.56-.56-2.46-1.47-2.19-2.4s1.5-1.19,3.13-1.04c1.09.1,2.01-.84,2.73-.83,1.28.02,1.77.11,2.33-.26.62-.42.98-.85,1.48-1.94.56-.98,1.16-2.06,1.67-3.37.42-1.09,1.53-2.03,1.99-3.31.55-1.54.45-1.58,1-3.12s-.37-1.87.18-3.42,1.14-1.33,1.69-2.88.5-1.56,1.06-3.1.86-1.44,1.41-2.98.02-1.74.57-3.28c.32-.89,1.4-1.45,1.67-2.22.33-.94.16-1.95.39-2.68.37-1.16-.05-2.18-.03-2.71.33-1.14.14-1.5-1.17-2.81-.67-.68-1.31-1.75-2.6-2.73-.79-.67-1.2-1.79-.94-2.46s1.25-1.26,2.28-1.33c.99-.06,2-.2,3.04-.3s2.1.41,3.11.28,1.92-1.1,2.91-1.25c1.04-.16,2.21.58,3.17.39.95-.17,1.47-.84,2.15-.59.9.32.51,1.53.29,2.85-.09.69-.13,1.8-.47,3.09-.25.95-.7,1.94-1.02,2.99s.01,2.05-.33,2.99c.98-.46,1.94-.33,2.82-.73,1-.45,1.94-.81,2.82-1.18,1.02-.43,1.9-.94,2.78-1.28,1.05-.4,1.73-1.57,2.61-1.85,1.1-.35,2.25-.11,3.13-.29,1.17-.24,2.18-.65,3.07-.63,1.12.03,2.28,0,3.2.33.8.29.99,1.9,1.76,2.53.7.58,2.17.53,2.63,1.36.44.78.98,1.86,1.04,2.84.05.85-.61,1.85-.96,2.83Z"/>
      <path class="cls-1" d="M421.97,124.36c-.43,1.07-.96,2.17-1.57,3.02-.73,1.02-2.14,1.29-2.91,1.82-.69.76-1.71,1.47-2.83,1.03-1-.4-1.57-.17-2.49-2.73-.52-1.2-.66-2.47-1.43-3.34s-1.68-1.73-2.98-2.25c-.89-.35-2.05.33-3.15.24-.93-.07-1.9-.65-3-.45-.91.16-2.13-.19-3.17.19-.88.32-1.58,1.36-2.57,1.87-.71.49-1.55.44-1.86,1.22-.62,1.57-.61,1.58-1.23,3.14s.01,1.82-.61,3.38-.17,1.75-.79,3.32-1.43,1.25-2.05,2.82-.2,1.74-.83,3.31-.96,1.44-1.59,3.01.16,1.89-.46,3.46c-.49,1.23-1.13,2.25-1.5,3.28-.47,1.3-.96,2.39-1.27,3.36-.48,1.51-1.07,2.65-.46,3.65.46.75,1.69,1.19,3.06,2.15.82.58,1.99.96,3.21,1.73,1.5.97,2.04,2.74,1.66,3.57-.4.88-1.94.92-3.55.28-.76-.3-2,.06-3.05-.4-.83-.36-1.61-1.04-2.6-1.47-.86-.37-1.89-.45-2.86-.86-.88-.37-1.31-1.93-2.27-2.32-.93-.37-2.1.05-2.9-.26-.95-.36-1.61-1.25-2.41-1.54-.95-.34-2.2.4-3.01.11-.93-.34-1.8-.65-2.63-.98-1.54-.61-2.32-2.49-2.02-3.41s1.77-.88,3.4-.68c1.09.13,2.02,0,2.73.04,1.28.06,2.38.16,2.95-.19.63-.39,1.11-1.36,1.65-2.44.59-.96.34-2.49.89-3.78.46-1.07.85-2.26,1.35-3.53.61-1.52,1.13-1.31,1.73-2.84s.95-1.39,1.56-2.91.02-1.76.63-3.28,1.04-1.35,1.64-2.88.73-1.48,1.33-3,.7-1.49,1.31-3.02c.35-.88.55-1.76.85-2.52.36-.93.83-1.72,1.09-2.44.41-1.15.29-2.16.32-2.69.37-1.13.46-2.47-.8-3.83-.65-.7-1.89-1.26-3.15-2.29-.77-.7-1.7-1.67-1.42-2.33s1.63-.52,2.66-.55c.99-.03,2.03.07,3.08,0s2.06.01,3.08-.08,1.95-1.2,2.94-1.32c1.05-.12,2.2.72,3.17.57.96-.14,1.58-1.25,2.25-.98.89.35,1.47,2.03,1.2,3.34-.12.69-.37,1.86-.75,3.14-.28.95-.76,1.96-1.11,3s-.86,1.53-1.23,2.45c1-.42,1.46-.89,2.35-1.26,1.01-.41,2.18-.24,3.07-.58,1.03-.39,2.05-.57,2.94-.88,1.07-.37,1.82-1.39,2.71-1.64,1.12-.31,2.18-.36,3.07-.51,1.17-.2,2.2.4,3.08.46,1.12.07,1.92.33,2.83.69.79.31,1.95.22,2.7.87.68.6,1.36,1.4,1.79,2.25.41.8,1,1.81,1.03,2.79.02.85-.42,1.89-.8,2.86Z"/>
      <path class="cls-1" d="M410.94,174.8c-1.08-.46-2.18-.54-2.47-1.17-.43-.9,0-2.23.89-2.71.63-.34,1.59.33,2.71.58,1.46.29,2.68-.49,3.6-.51,1.37-.03,2.7.3,3.49-.73.55-.73.91-1.96,1.5-3.33.61-1.42.96-1.27,1.57-2.69s-.08-1.71.53-3.14.96-1.27,1.57-2.69.78-1.35,1.39-2.77.53-1.45,1.14-2.87.39-1.52,1-2.94.57-1.44,1.18-2.86,1-1.26,1.61-2.68-.2-1.77.41-3.2c.42-.97.47-1.9.75-2.61.4-.99,1.33-1.54,1.51-2.3.44-1.24.46-1.94-.71-3.4-.54-.68-1.54-1.33-2.69-2.49-.87-.85-1.05-2.25-.58-2.99.42-.67,1.69-1.57,3.03-1.24,1.12.29,2.2.79,3.45.92,1.17.13,2.35.7,3.6.69s2.37-.66,3.58-.8c1.23-.13,2.24.17,3.23.6,1.1.47,1.13,1.22.2,2.78-.5.85-.95,1.65-1.54,2.66-.43.73-.15,2-.73,3.11-.4.78-1.56,1.34-2.07,2.41-.39.83-.41,1.94-.87,2.99-.38.86-1.05,1.69-1.5,2.72-.61,1.42-.53,1.45-1.14,2.87s-.24,1.58-.85,3-.63,1.41-1.24,2.83-1.49,1.04-2.09,2.46-.32,1.54-.93,2.96-.55,1.45-1.16,2.87-.87,1.31-1.48,2.73-.16,1.62-.77,3.04-.24,1.58-.85,3.01c-.44,1.02-.68,1.89-.92,2.64-.36,1.13-.33,1.72-.15,2.5s-.21,1.97.68,2.76c.58.52,1.65.69,2.58,1.33.97.61,1.03,1.52,1.2,2.22.23.96.24,1.84-.74,2.14-.66.21-1.32-.6-2.41-1.06-1.03-.44-2.29-.31-3.35-.81-.96-.45-1.72-1.45-2.84-1.96-.95-.44-1.95-.98-3.09-1.47-.95-.41-2.47.32-3.51-.1s-1.92-1.25-2.89-1.63c-1.21-.47-2.07-1.38-2.83-1.71ZM457.11,107.62c-.37.87-.24,2.04-.85,2.71s-1.43,1.4-2.25,1.8-1.87-.18-2.83-.18c-.87,0-1.95.74-2.88.34-1.14-.49-1.42-1.94-2.06-2.83s-1.19-1.73-1.27-2.91c-.07-1.09.45-1.94.94-3.07.51-1.19.58-2.5,1.47-3.25.96-.81,2.18-.96,3.37-1.15s2.15.11,3.33.62c.99.43,1.76.95,2.44,1.91.63.89,1.23,1.74,1.35,2.9.11,1.05-.28,1.98-.77,3.11Z"/>
      <path class="cls-1" d="M468.75,193.6c.94.41,1.82.89,2.68,1.15.98.3,2.01.28,2.89.42,1.02.16,2.01-.19,2.89-.17,1.05.02,1.93-.48,2.8-.57,1.08-.11,2.15.86,2.96.77,1.34-.19,2.56-.88,3.03-.45.65.58.64,2.47-.21,3.39-.52.57-1.82.64-2.86,1.05-.6.21-1.6.96-3.08,1.3-.94.22-2.15-.2-3.37-.05-1.01.13-2.09.06-3.27.08-1.05.02-2.1-.11-3.24-.21-1.05-.09-2.23.48-3.35.26-1.04-.2-1.94-1.09-3.03-1.43-1.02-.32-1.92-.89-2.96-1.34-.99-.43-2.23-.27-3.11-.81s-1.37-1.68-2.17-2.35-1.86-1.06-2.56-1.85-1.68-1.4-2.26-2.29-1.21-1.81-1.65-2.77-.23-2.18-.54-3.2-.94-1.94-1.12-2.99-.63-2.09-.69-3.16-.2-2.17-.14-3.24.77-2.07.94-3.13.45-2.05.72-3.1.01-2.21.36-3.23.6-2.07,1.03-3.06c.41-.94,1.5-1.55,1.96-2.41.48-.9.81-1.88,1.34-2.69.56-.86.98-1.82,1.58-2.58.64-.8,1.34-1.57,2.01-2.27.71-.74,1.48-1.43,2.22-2.07.78-.67,2.13-.54,2.93-1.09.84-.59,1.73-.94,2.57-1.42.9-.51,1.17-2.18,2.05-2.57.95-.42,2.18-.09,3.08-.4.96-.3,2.06-.03,3.09-.24s1.95-.33,2.99-.44,1.98-1.39,3.02-1.38,2.14-.07,3.17.07,1.88,1.21,2.88,1.49,1.91.63,2.87,1.05c.97.42,1.83.88,2.66,1.38.9.54,2.04.69,2.79,1.31.81.66,1.17,1.75,1.81,2.48.68.78,1.38,1.49,1.89,2.33.53.88,1.1,1.73,1.45,2.65s1.24,1.81,1.45,2.79-.04,2.13.02,3.12-.34,2.05-.43,3.03c-.09,1.04.35,2.17.13,3.11-.24,1.03-.6,1.83-.96,2.7.52.62-.05,1.02-.48,2.01-.45,1.03-1.08,1.32-2.23,1.64-1.06.29-2.02.19-3.08.04-.94-.14-2.02.36-3.14.13-.9-.18-2.06.27-3.19-.03-.9-.24-1.86-.67-2.96-1.01-.9-.28-1.94-.45-3.01-.82-.9-.31-1.71-1.14-2.75-1.53-.91-.33-1.95-.5-2.97-.89-.91-.35-1.69-1.18-2.7-1.58-.91-.37-1.82-.86-2.82-1.28-.91-.38-1.99-.48-2.98-.9-.92-.39-1.9-.7-2.89-1.13-.92-.39-1.66-.66-2.65-1.09-.42,1.01-.72,1.76-1.05,2.73-.35,1.04-1.29,1.88-1.53,2.87-.26,1.07-.64,2.13-.77,3.14-.15,1.09,1.04,2.23,1.03,3.25,0,1.1-1.08,2.22-.93,3.23.16,1.08.6,2.13.93,3.11s.49,2.21,1,3.12,2.05,1.17,2.73,1.98,1,1.93,1.83,2.62,1.81,1.05,2.74,1.61,1.64,1.4,2.63,1.83ZM463.14,159.2c.61.4,2.64,1.58,3.96,2.16.99.43,2.05.61,2.97,1.01,1,.42,2.12.44,3.05.82,1.01.42,2.14.41,3.06.78,1.02.41,1.58,1.84,2.5,2.2,1.05.4,2.39-.21,3.29.11,1.1.4,2.11.62,2.97.9,1.27.41,2.06,1.36,2.79,1.51.54-.03.48-.57.72-1.12.4-1.03,1.29-1.85,1.47-2.84.2-1.08.42-2.19.38-3.2-.05-1.08-.14-2.24-.42-3.23s-1.39-1.75-1.9-2.65-.64-2.17-1.34-2.94-1.44-1.73-2.29-2.33-2.19-.56-3.14-.97c-.98-.43-1.86-1.37-2.89-1.54s-2.19.24-3.25.36-1.91.76-2.93,1.16c-.93.37-1.73.92-2.64,1.56-.81.57-2.01.75-2.79,1.55-.7.7-1.07,1.77-1.74,2.66-.6.8-.86,1.81-1.43,2.76-.29.66-.9.94-.4,1.29Z"/>
      <path class="cls-1" d="M552.16,179.2c-.42,1.07-1.84,1.65-2.45,2.5-.72,1.02-1.15,2.17-1.92,2.71-.69.76-2.32,1.49-3.44,1.05-1.01-.39-.71-.9-1.65-3.46-.52-1.2-.96-2.55-1.73-3.42s-2.09-1.3-3.4-1.82c-.89-.35-1.96-.63-3.05-.71-.93-.07-1.98.19-3.08.39-.91.17-1.68,1.03-2.73,1.42-.88.33-1.96.31-2.93.82-.71.5-.88.65-1.18,1.43-.62,1.57-1.19,1.34-1.81,2.92s-.59,1.58-1.2,3.15-.73,1.52-1.35,3.1.24,1.91-.38,3.48-1.14,1.37-1.75,2.94.12,1.86-.49,3.44-1.51,1.23-2.12,2.8c-.48,1.23-.46,2.53-.82,3.55-.46,1.31-.77,2.47-1.07,3.43-.48,1.52-1.07,2.75-.45,3.75.46.74,1.5,1.56,2.87,2.51.82.57,1.69,1.48,2.91,2.24,1.5.96,2.61,1.72,2.24,2.56-.39.88-2.13,1.6-3.74.97-.76-.3-1.71-.65-2.77-1.1-.83-.35-1.68-.89-2.67-1.31-.86-.36-1.53-1.32-2.5-1.72-.88-.36-1.7-.99-2.66-1.37-.93-.37-1.8-.72-2.61-1.02-.95-.35-2.2.38-3.01.1-.95-.34-1.52-1.49-2.33-1.78-.93-.33-2.17.38-3,.06-1.54-.6-1.74-2.39-1.44-3.32s1.31-1.96,2.94-1.76c1.09.13,1.92.64,2.64.67,1.28.05,1.89-.39,2.45-.75.63-.4,1.62-.58,2.15-1.66.59-.96.54-2.41,1.09-3.69.46-1.07.42-2.44.92-3.71.6-1.52,1.06-1.34,1.66-2.87s.95-1.39,1.54-2.92,1-1.37,1.6-2.89.08-1.73.68-3.26.23-1.67.83-3.2.78-1.46,1.38-2.99c.35-.88.52-1.77.81-2.53.36-.93,1.12-1.6,1.37-2.32.4-1.15.79-2,.82-2.54.36-1.13-.3-2.02-1.56-3.37-.65-.7-1.81-1.21-3.08-2.24-.77-.69-.74-1.99-.47-2.65s1.11-.82,2.14-.86c.99-.04,2.01-.23,3.05-.3s1.96-.97,2.98-1.07,2.05-.04,3.04-.16c1.05-.13,2.17.53,3.14.37.96-.14,1.59-.79,2.26-.53.89.35,1.56,1.92,1.31,3.24-.11.69-1.35,1.58-1.72,2.86-.27.95.04,2.19-.31,3.23s-1.29,2.34-1.65,3.26c1-.43,2.43-.73,3.32-1.09,1.01-.42,1.79-1.21,2.68-1.55,1.03-.4,1.9-1,2.79-1.31,1.07-.37,2.06-.63,2.95-.88,1.11-.32,2.09-.67,2.98-.82,1.17-.2,2.23-.32,3.11-.27,1.12.06,2.19.23,3.1.59.79.31,1.3,1.38,2.05,2.03.69.6,1.27,1.22,1.72,2.07.42.8,1.29,1.57,1.32,2.56.03.85.1,2.02-.27,2.99Z"/>
      <path class="cls-1" d="M600.12,206.98c-.44,1.54-.11,1.64-.55,3.19s-1.53,1.23-1.98,2.78-.63,1.49-1.08,3.04-.31,1.59-.76,3.13-.47,1.54-.92,3.09-.55,1.52-.99,3.07c-.28.97-.25,1.96-.48,2.81-.28,1,.07,2.07-.15,2.89-.28,1.05-.16,2.04-.35,2.81-.32,1.27-1.23,2-1.35,2.57-.24,1.16-.27,2.02-.16,2.77.12.82.44,1.56,1.43,2.3.59.44,1.5.67,2.53,1.2,1.76.86,2.21,2.21,1.99,3.13-.25,1.02-1.41,1.63-3.24,1.11-1.03-.3-2.06-.64-3.2-1.02-.97-.32-1.86-1.19-3.03-1.56-.98-.31-2.17-.25-3.35-.59-1.17-.34-2.2-.58-3.11-.82-1.17-.3-2.08-.94-3.01-1.17-1.05-.25-2.35.75-3.42.44-1.23-.35-2.16-1.32-2.56-1.89-.61-.88.02-2.08,1.09-2.59.66-.32,1.63-.42,2.84-.27,1.11.09,1.95-.14,2.67-.24.97-.13,1.98-.08,2.57-.9.41-.57.07-1.71.45-2.78.39-1.11,1.51-1.81,1.82-2.75.32-1-.44-2.3-.12-3.36.27-.91.76-1.84,1.09-2.98.26-.91,1.6-1.61,1.93-2.76.44-1.52-.4-1.76.04-3.27s.9-1.38,1.33-2.9.2-1.59.63-3.1.23-1.58.66-3.09.18-1.59.61-3.11.7-1.44,1.14-2.96,1.14-1.32,1.58-2.83.43-1.52.87-3.04.1-1.61.54-3.13-.19-1.7.25-3.21,1.11-1.33,1.54-2.85.3-1.56.74-3.08-.19-1.7.25-3.22.71-1.44,1.15-2.96,1.05-1.35,1.49-2.87c.34-1.18.45-2.28.72-3.23.35-1.22.64-2.26.9-3.18.36-1.27,1.01-2.2,1.24-3.09.31-1.22-.05-2.34.15-3.36.24-1.26.31-2.07-.4-2.94-.47-.57-1.46-.79-2.68-1.52-.74-.44-1.2-1.79-2.29-2.36-1.38-.54-2.4-1.5-1.93-2.45.37-.74,1.61-1,3.4-.71.92.12,1.91.32,2.96.4.95.07,1.95-.43,2.99-.44.96-.02,1.93-.04,2.94-.16.96-.12,1.99.04,2.98-.21,2.29-.59,3.68-1.18,4.48-.95,1.15.33.82,1.93.29,2.9-.55.97-.64,2.26-1.12,3.44-.41,1.01-1.28,1.96-1.69,3.18-.35,1.04.3,2.48-.07,3.7-.32,1.06-.67,2.18-1.02,3.4-.43,1.5-1.52,1.19-1.96,2.69s.45,1.76.02,3.26-1.15,1.3-1.58,2.8.65,1.82.22,3.32-1.04,1.33-1.47,2.83-.39,1.52-.82,3.02-.73,1.42-1.16,2.93-.68,1.43-1.12,2.94-.31,1.54-.74,3.05-.69,1.44-1.12,2.94c-.13.46.78,1.29,1.64.91.82-.38,1.34-1.65,2.25-2.01s2.09.16,2.99-.14,1.86-.5,2.74-.75c.98-.28,1.88-.59,2.72-.79,1.1-.27,2.17-.27,3.27-.36s2.19-.1,3.27,0c1.16.11,2.33-.22,3.36.07,1.08.31,2.31.22,3.24.66,1.01.48,1.66,1.58,2.49,2.19.89.65,1.44,1.57,2.13,2.36s1.16,1.71,1.67,2.64.93,1.82,1.25,2.85,1.6,1.84,1.73,2.92.14,2.21.11,3.3-1.22,2.03-1.4,3.1.14,2.18-.16,3.22c-.45,1.56-.02,1.68-.46,3.24s-1.37,1.29-1.82,2.85.5,1.83.06,3.38-1.09,1.37-1.53,2.93-.85,1.44-1.3,3-.51,1.54-.96,3.09.74,1.9.3,3.46-1.63,1.22-2.08,2.78c-.36,1.27.61,2.51.2,4.39-.33,1.43-.97,2.36-.04,3.39.59.65,1.37,1.75,2.85,2.51,1.06.52,1.41,1.02,1.77,1.67.57.99,1.01,1.81.03,2.21-.63.26-1.75.5-2.98.15-.87-.25-1.56-1.58-2.62-1.93-.95-.31-2.05-.31-3.04-.63s-2.02-.64-2.96-.91c-1.18-.34-2.38.2-3.38-.05s-1.9-.83-3.1-1.14c-.91-.23-1.76-1.15-2.99-1.5-1.87-.54-2.38-1.08-2.28-2.01s.73-1.88,2.72-1.76c1.7.08,2.97.39,3.86.15,1.31-.35,1.81-1.45,2.38-2.92.23-.55.53-1.5,1.12-3.41.28-.91,1.11-1.89,1.53-3.3.3-1-.19-2.39.18-3.7.41-1.42,1.5-1.1,1.91-2.52s.43-1.41.84-2.83.17-1.49.57-2.91.56-1.38.97-2.8-.64-1.72-.23-3.14c.29-1.02,1.26-1.81,1.44-2.73.2-1.05.61-2.06.67-3,.07-1.08-.82-2.07-.94-2.99-.13-1.06.1-2.13-.24-3.01-.38-.96-1.17-1.67-1.78-2.43s-1.62-1.01-2.45-1.6-1.1-2.01-2.04-2.43c-.88-.39-2.17.23-3.16-.06-1.04-.3-1.97-.46-2.97-.56-1.07-.11-2.12-1.34-3.12-1.25s-2.12.62-3.1.9-2.19.38-3.12.82-1.19,2.16-2.03,2.73c-.78.53-.97.66-1.5,2.51Z"/>
      <path class="cls-1" d="M646.78,261.06c-1.16-.23-2.32-.73-2.74-1.28-.6-.8.4-1.65,1.17-2.3.55-.46,1.02-1.41,2.17-1.39,1.49,0,2.73.55,3.62.34,1.33-.31,2.05-1.35,2.61-2.52.4-.82.58-1.96.87-3.43.31-1.51.09-1.56.39-3.07s.2-1.54.51-3.05.95-1.39,1.25-2.9.37-1.5.68-3.01-.35-1.65-.05-3.16,1.16-1.34,1.47-2.86.09-1.56.4-3.08.18-1.54.49-3.06.34-1.51.65-3.03c.21-1.03-.18-2.01-.04-2.77.19-1.05,1.01-1.8,1.02-2.58.18-1.3.02-2.32-1.42-3.52-.67-.55-2.23-.37-3.6-1.27-1.03-.66-.79-2.12-.48-2.94.27-.74.8-.95,2.18-.91,1.16.06,2.43-.07,3.69-.19,1.17-.11,2.38-.51,3.59-.77s2.31-.74,3.47-1.12c1.18-.37,2.26-1.42,3.31-1.2,1.18.24,1.06,1.67.47,3.38-.32.94.51,2.18.13,3.29-.27.8-1.8,1.36-2.13,2.57-.23.85.78,2.15.51,3.31-.21.89-.58,1.84-.83,2.96-.2.92-1.16,1.76-1.39,2.86-.31,1.51-.77,1.42-1.08,2.94s.59,1.7.28,3.21-1.07,1.36-1.38,2.88.14,1.6-.17,3.12-.3,1.52-.61,3.03-.35,1.51-.65,3.02.36,1.65.06,3.17-.73,1.43-1.04,2.95-.35,1.51-.66,3.03c-.22,1.09-.87,1.95-.95,2.74-.13,1.18.83,1.89,1.16,2.62s.69,1.25,1.72,1.84c.68.39,1.21,1.43,2.25,1.86,1.07.4,2.14.56,2.45,1.22.42.89-.4,1.44-1.29,1.94-.61.34-1.25,1.18-2.41.95-1.1-.22-2.01-1.21-3.15-1.49-1.03-.25-2.23-.02-3.42-.3-1.01-.23-2.1-.53-3.32-.78-1.01-.21-2.22.14-3.32-.05s-2.22-.38-3.24-.55c-1.28-.21-2.41-.47-3.23-.64ZM679.29,185.23c-.19.93-.38,2.03-.83,2.82s-1.96.76-2.68,1.33-1.16,1.62-2.09,1.82c-.85.18-1.72-.44-2.71-.64-1.21-.25-2.3-.37-3.11-1.11s-1.54-1.72-1.86-2.86c-.29-1.05-.55-2.28-.31-3.49.26-1.27.75-2.58,1.47-3.49.78-.99,2.18-1.24,3.31-1.66s2.18-.45,3.45-.19c1.06.21,2.4.18,3.26.98.8.74.71,2.12,1.06,3.24.32,1.01,1.28,2.05,1.03,3.27Z"/>
      <path class="cls-1" d="M714.41,240.08c.89.5,1.81.94,2.67,1.53s2.03.8,2.79,1.5.9,1.99,1.51,2.81,1.68,1.39,2.09,2.35.84,1.96.98,3.03c.13.97-.52,2.02-.64,3.12-.13,1.09-.39,2.09-.7,3.12s-.42,2.12-.93,3.09-1.59,1.42-2.29,2.29c-.66.81-1.04,1.83-1.89,2.57-.78.68-1.29,1.81-2.25,2.43-.87.56-1.7,1.42-2.73,1.92-1.03.48-2.4.23-3.49.53s-2.22.46-3.33.62-2.27.12-3.37.14c-1.18.02-2.32.21-3.39.08-1.2-.14-2.36-.06-3.35-.3-1.22-.29-2.27-.79-3.16-1.14-1.41-.55-2.05-1.73-2.62-2.08-.67-.44-1.18.11-2,.98-.77.72-2.29.64-3.21.49-.87-.15-1-.62-.81-2.24.11-.96-.57-2.01-.49-3.02.08-.95.75-1.89.8-2.91.05-.95.21-1.93.24-2.96.03-.95-.98-1.96-.96-2.99.02-.95.2-1.93.22-2.96.03-1.87,1.36-3.18,2.4-3.26s2.78.98,3.11,2.82c.08.4-.65,1.58-.41,2.62.21.88.79,1.71.94,2.33.34,1.11.49,2.31,1.05,3.27s1.74,1.48,2.58,2.27,1.25,2.1,2.29,2.66c.94.49,2.16.72,3.32,1.04,1.02.28,2.21.21,3.41.35,1.18.14,2.26.05,3.26-.02,1.19-.09,2.15-.49,3.08-.88,1.05-.43,1.96-.86,2.69-1.66s.9-1.78,1.31-2.88c.35-.94,1.08-1.84,1.21-3.03.12-1.04.41-2.09.24-2.98-.19-.98-1.36-1.53-1.86-2.36s-.69-1.78-1.44-2.47c-.68-.62-1.45-1.2-2.32-1.74-.85-.47-1.49-1.48-2.44-1.99-.89-.47-2.22-.18-3.14-.66s-1.68-1.28-2.58-1.74c-.96-.49-1.67-1.38-2.53-1.82-.86-.46-1.86-.8-2.8-1.46-.84-.59-1.66-1.22-2.46-1.98s-1.56-1.39-2.19-2.29-1.24-1.71-1.63-2.74c-.37-.96-1.04-1.94-1.17-3.06-.12-1,.48-2.09.61-3.23.11-.98.38-1.87.68-2.8s.43-1.9.92-2.76.51-2.08,1.16-2.84,1.5-1.37,2.28-2.01c.73-.6,2.1-.35,2.98-.87.91-.55,1.31-2.07,2.23-2.45.98-.41,2.19-.19,3.16-.44,1.02-.26,2.06-.4,3.05-.52,1.06-.12,2.1.62,3.08.63,1.09,0,2.1-.39,3.05-.28.89.1,1.68.64,2.54.84.94.22,1.96-.11,2.72.14,1.28.42,2.16.94,2.42,1.14.81.33,1.33.71,1.72.51.9-.5,1.54-1.53,2.31-1.93,1.55-.91,3.58-.96,3,.91-.13.42-1.15,1.25-1.52,2.74-.21.84-.22,1.9-.45,3.03-.19.91-.43,1.91-.62,2.99-.17.94.48,2.08.33,3.13-.14.97-.66,1.91-.78,2.96-.2,1.77-1.03,3.05-1.95,3.32-1.13.34-2.99-.66-3.12-2.47-.07-1.04.73-2.2.5-3.31-.2-.97-.45-2.06-.88-3.17-.35-.96-1.59-1.37-2.27-2.14s-1.13-1.6-2.04-2.13c-.83-.49-1.77-.78-2.79-1.09-.93-.28-1.83-.95-2.88-1.07-1.31-.15-2.53-.17-3.55-.03-1.31.18-2.21,1.09-3.08,1.66-1.03.67-1.58,1.52-2.1,2.53s-.62,2.05-.76,3.22c-.15,1.26-.36,2.25-.12,3.23.28,1.15.88,1.92,1.57,2.78s1.08,2,2.05,2.67c.88.62,1.93,1.1,2.96,1.65,1.25.63,1,1.14,2.26,1.75s1.82-.53,3.07.08.79,1.52,2,2.22,1.38.43,2.63,1.06Z"/>
      <path class="cls-1" d="M754.31,255.75c0,1.05-.13,2.05-.05,2.93.11,1.07,1.23,1.81,1.48,2.64.31,1.04.38,1.88.93,2.56.61.77,1.24,1.24,2.18,1.58.82.3,1.66,1.37,2.75,1.37,1.4,0,2.27-1.44,3.18-1.61,1.04-.19,2.04.08,3.26-.37,1.55-.45,3.31.46,3.2,1.83-.07.85-.78,2.35-2.03,3.55-.85.7-2.36.52-3.29,1.08s-1.56,1.77-2.58,2.17-2.29-.13-3.37.08-2.05.89-3.17.89c-1.14,0-2.36.13-3.44-.15s-2.28-.71-3.22-1.4c-.83-.62-1.88-1.44-2.54-2.5-.53-.85-.52-2.19-.9-3.39-.31-.97-.08-2.15-.28-3.38-.17-1.02-.81-2.06-.9-3.28-.07-1.05.15-2.18.15-3.39,0-1.65.52-1.65.52-3.31s-.95-1.65-.95-3.31-.42-1.66-.43-3.31.23-1.66.23-3.31.18-1.65.18-3.31.41-1.66.4-3.31.49-1.66.49-3.31-.07-1.66-.07-3.31-.28-1.66-.29-3.32-.22-1.51-.93-3.01c-.33-.71-.13.07-.91.07-1.01,0-1.88-.99-2.64-.99-1.09,0-1.95.28-2.64.27-1.41-.01-2.03-.35-2.55-.41-.84-.12-.95-.2-.95-.91,0-.63.02-1.84.71-2.69.74-.92,1.93-1.47,2.31-1.65.52-.17,1.16-.73,3.63-.82.94-.03,1.77-.21,3.32-.21.01-1.03.94-1.41.96-2.29.02-1.05-.27-2.01-.24-2.87.03-1.09-.24-2.05-.19-2.88.06-1.17.78-2.05.86-2.8.16-1.63.23-2.26.39-2.68.31-.7.64-1.71,1.53-2.62.71-.73,1.84-1.1,2.63-1.78.93-.79,1.54-1.8,2.2-2.26,1.04-.67,2.18-1.23,2.64-.79s.04,1.64-.43,2.76c-.24.54-.94,1.31-1.11,3.04-.08.81.82,1.9.76,3.2-.04.9.19,1.94.16,3.13-.03.94-.36,1.97-.38,3.12-.02.96-.95,1.99-.96,3.12-.01.98.45,2.41.44,3.53,1.81.53,2-.52,3.89-.52s1.89.11,3.78.11c1.1,0,2.24.22,3.25.19,1.54-.05,2.84-.03,3.28-.11.72-.12,1.4-.06,1.4.78,0,.5-.22,1.67-.52,2.68-.28.94-1.23,1.61-1.75,2.02-.34.43-1.03.41-3.37.52-.93.04-2.1.86-3.61.86-1.56,0-1.56-.19-3.12-.19s-2.19-1.5-3.28-.39.26,1.75.26,3.35-.23,1.6-.23,3.19-.39,1.6-.39,3.19.33,1.6.34,3.19.05,1.59.05,3.19-.08,1.6-.08,3.19-.17,1.6-.17,3.19.27,1.6.27,3.19.08,1.6.02,3.19-.08,1.6-.08,3.2Z"/>
      <path class="cls-1" d="M837.91,232.39c.19,1.13-.04,2.3.06,3.36.11,1.14.39,2.26.4,3.32.01,1.15-.68,2.24-.76,3.3-.09,1.15.6,2.38.4,3.41-.21,1.13-1.25,2.05-1.56,3.05-.34,1.11-.9,2.05-1.33,3-.48,1.07-1.2,1.88-1.74,2.75-.45.77-.03,2.3-.7,3.22-.56.77-1.66,1.24-2.38,2.06-.64.73-1.08,1.76-1.85,2.5-.72.68-2.13.61-2.96,1.26-.78.62-1.62,1.1-2.5,1.67s-1.65,1.06-2.58,1.53-1.65,1.14-2.63,1.52-1.86.72-2.87,1-1.93.54-2.96.71c-1.1.19-2.14.83-3.2.87s-2.21-.44-3.27-.54-2.06-.73-3.1-.98-2.08-.44-3.09-.83-2.33-.16-3.28-.7-1.57-1.59-2.44-2.25-2.03-.98-2.82-1.74-1.51-1.61-2.2-2.46-.64-2.2-1.24-3.12-1.99-1.35-2.49-2.33-.73-2.09-1.12-3.11-.88-2.03-1.17-3.08-.42-2.17-.6-3.24c-.19-1.13.42-2.31.32-3.36-.1-1.14-.55-2.19-.54-3.25,0-1.14.3-2.2.42-3.26.13-1.13.29-2.17.53-3.22.26-1.09-.1-2.36.28-3.37s.61-2.22,1.12-3.19,2.21-1.24,2.83-2.16.23-2.58.93-3.44c.72-.83,2.31-.89,3.09-1.67s.95-2.24,1.81-2.95,2.16-.83,3.08-1.45,1.83-1.2,2.81-1.73,2.02-.79,3.07-1.21,1.8-1.54,2.88-1.84,2.23-.19,3.35-.38c1.05-.18,2.13.25,3.16.21s2.16-1.12,3.19-1.03,2.09.66,3.11.9,1.98.78,2.96,1.15,2.17.38,3.1.87,1.33,1.86,2.19,2.46,1.58,1.29,2.36,1.99,1.98.95,2.68,1.74,1.04,1.84,1.64,2.71,1.69,1.43,2.19,2.35.34,2.16.74,3.14,1.18,1.8,1.47,2.82,1,1.97,1.17,3.01ZM803.99,217.7c-1.07.18-2.07.05-2.98.36-1.01.35-1.77.95-2.6,1.45-.91.54-2.07.63-2.78,1.32s-.69,2-1.24,2.85-1.69,1.35-2.07,2.3-.87,1.89-1.1,2.88-.64,2.01-.75,3.02,1.03,2.1,1.03,3.11-.52,2.06-.43,3.04c.09,1.06.61,2,.77,2.96.17,1.03-.59,2.25-.34,3.26s.45,2.09.77,3.08.74,2.01,1.15,2.96,1.16,1.81,1.66,2.72,1.11,1.81,1.71,2.65,1.32,1.66,2.02,2.42,1.82,1.08,2.64,1.73,1.41,1.59,2.33,2.09,1.73,1.36,2.74,1.68,2.1.44,3.16.58c1,.13,2.09-.58,3.17-.61,1-.03,2.08.42,3.15.23,1.05-.18,1.9-.94,2.83-1.32s1.84-.81,2.68-1.4,2.19-.68,2.88-1.45.49-2.18,1.03-3.1c.51-.86,1.14-1.64,1.52-2.64.35-.93.49-1.93.72-2.97.22-.98.48-1.94.58-3,.1-1,.9-2,.89-3.07,0-1-.45-2.04-.55-3.1-.09-1,0-2.07-.18-3.12-.18-1.05-.44-2.16-.73-3.25s-1.29-1.87-1.68-2.92-1.05-1.88-1.54-2.87.13-2.6-.46-3.52-2.3-1.05-3.01-1.89-.65-2.41-1.47-3.14-2.27-.62-3.21-1.21-1.57-1.67-2.62-2.07-2.1-.67-3.21-.86c-1.05-.18-2.17-.48-3.32-.47-1.05.01-2.04,1.11-3.18,1.3Z"/>
      <path class="cls-1" d="M883.38,194.44c.4,1.08.11,2.38.22,3.43.14,1.24-.3,2.34-.51,3.26,0,1.03-.15,2.62-1.27,3.04-1.01.38-1.22.15-3.62-1.13-1.19-.54-2.28-1.52-3.44-1.65s-2.16,1.18-3.47,1.67c-.89.33-1.67.71-2.54,1.38-.74.57-2.18.56-2.87,1.44-.57.73-.67,1.93-1.19,2.91-.43.83-1.47,1.56-1.86,2.6-.2.84.04,1.43.33,2.22.59,1.58,1.4,1.28,1.98,2.86s.69,1.54,1.28,3.12-.1,1.84.49,3.42.58,1.58,1.17,3.17.78,1.51,1.37,3.09,1.04,1.42,1.63,3-.23,1.89.36,3.47c.46,1.24,1.27,2.22,1.68,3.22.53,1.28,1.56,2.13,1.98,3.05.66,1.45.8,2.05,1.92,2.38.84.25,1.85.92,3.5.72.99-.12,2.17-.39,3.6-.64,1.76-.28,3.32.07,3.6.94.29.91-.86,2.08-2.48,2.68-.77.29-1.88.1-2.97.46-.85.29-1.63,1.1-2.65,1.44-.88.3-1.85.55-2.83.9-.89.32-1.49,1.57-2.46,1.93-.94.35-2.02.11-2.82.43-.94.37-2.06.07-2.85.39-.94.38-1.69.96-2.49,1.29-.91.37-1.64,1.01-2.47,1.32-1.55.58-2.87.18-3.26-.7s.29-1.9,1.64-2.84c.9-.63,1.36-1.49,1.91-1.95.99-.81,1.89-1.21,2.08-1.86.21-.72-.25-1.58-.57-2.74-.2-1.11-1.26-2.08-1.71-3.41-.37-1.1.2-2.64-.28-3.92-.57-1.53-.84-1.43-1.41-2.97s-.36-1.62-.93-3.15-.51-1.56-1.08-3.1-.42-1.59-.99-3.13-1.73-1.11-2.3-2.65-.27-1.65-.84-3.19c-.33-.89-.41-1.81-.7-2.57-.35-.93-.92-1.65-1.22-2.36-.47-1.12-.16-2.28-.49-2.69-.49-1.09-1.62-1.36-3.47-1.52-.95-.09-2.17.17-3.8.26-1.04,0-1.65-.85-1.89-1.52s-.42-1.76.33-2.48c.71-.68,2.19-.65,2.93-1.4s1.03-1.85,1.72-2.6,1.53-1.4,2.19-2.16c.7-.8.7-2.13,1.32-2.89.62-.74,1.56-.45,2.23-.7.9-.33,2.21-.27,2.9.88.37.59.97,1.63,1.55,2.83.43.89.43,2.1.87,3.11s.65,1.53,1,2.47c.46-.98.32-1.66.74-2.53.48-.98,1.91-1.41,2.35-2.26.5-.99.29-2.25.74-3.08.55-.99,1.33-1.72,1.82-2.5.62-.98,1.45-1.61,2.01-2.32.74-.93.82-2.31,1.51-2.87.87-.7,1.91-1.28,2.83-1.62.8-.3,1.98.07,2.97.06.91-.01,2.05-.33,2.94,0,.84.32.93,1.82,1.61,2.53.59.62,2.09.74,2.45,1.71Z"/>
      <path class="cls-1" d="M887.69,192.96c-1.8.66-2.89-.54-3.36-1.39s-.57-2.1,1.1-3.1c.7-.43,1.72-.56,2.62-1.03.79-.42,1.61-.88,2.46-1.31s1.52-1.15,2.34-1.57c.87-.45,1.75-.79,2.51-1.21.73-.41,1.44-1.62,2.58-2.3.96-.57,2.08-1.01,3.03-1.57,1.16-.69,2.14-1.49,2.86-1.89,1.64-.91,3.52-.18,4.12.62.63.84-.12,2.03-1.44,3.19-1.3,1.17-2.17,2.2-2.62,2.92-.79,1.25.33,1.92,1.68,3.09.82.66,1.59,1.39,2.44,2.07s1.63,1.37,2.47,2.05,1.85,1.11,2.69,1.78.89,2.32,1.72,2.99,2.48.34,3.32,1,1.02,2.18,1.85,2.85,1.93,1.06,2.75,1.72,1.48,1.63,2.29,2.28c.86.69,2.36.55,3.16,1.21.87.7,1.67,1.43,2.46,2.07.89.72,1.71,1.34,2.48,1.97.61.35.05.85.02.32-.08-1.02.53-2.09.44-3.1s-.44-2.02-.53-3.02-.8-1.98-.91-2.98.24-2.09.13-3.09-.4-2.03-.51-3.02c-.12-1.04-.18-2.06-.3-3.04-.12-1.05-.18-2.07-.3-3.04-.13-1.06.73-2.2.6-3.16-.14-1.08-.48-2.07-.61-3-.16-1.13-1.46-1.98-1.59-2.86-.2-1.32-.13-2.34-.25-3.01-.36-1.51-.14-2.73-.69-3.37-.66-.77-1.6-.34-3.2-.04-.89.16-2.23-.54-3.59-.1-1.06.36-1.67.43-2.34.19-.97-.34-1.01-.62-.75-1.54.19-.65,0-1.81,1.01-2.41.76-.42,2.04-.35,3.11-.89.88-.45,1.4-1.79,2.37-2.29s1.88-.93,2.8-1.44c.82-.46,1.99-.56,2.97-1.15.88-.53,1.98-.77,2.9-1.32s1.88-1.04,2.77-1.53c1.06-.63,1.78-.89,2.49-.73.99.22,1.6.87,1.35,1.97-.16.71-.67,1.53-1.58,2.34-1.06.98-2.29,1.5-2.79,2.31-.63,1.01-.03,2.33-.09,3.63-.04.96-.07,2.04.04,3.45.09.95.14,1.99.23,3.14.08.97-.8,2.1-.71,3.22.08.99,1.51,1.93,1.6,3.02.08,1-.45,2.1-.36,3.19.08,1.01.08,2.06.17,3.14.08,1.01.65,2.02.74,3.1.09,1.02.26,2.05.35,3.13.09,1.02.22,2.06.32,3.12s.26,2.06.35,3.12.19,2.07.29,3.13.13,2.08.23,3.14-.77,2.16-.66,3.22,0,2.09.1,3.15.49,2.04.6,3.1.33,2.06.44,3.12-.12,2.11-.01,3.17,1.44,1.94,1.55,3-.56,2.16-.45,3.22.21,2.08.32,3.14c.13,1.05.2,2.06.33,3.02.14,1.05.14,2.07.26,3.03.14,1.06,1.1,1.95,1.23,2.89.15,1.07-.51,2.18-.37,3.11.16,1.09.74,2.02.88,2.93.17,1.11-.15,2.18-.01,3.07.19,1.15.19,2.17.34,3.02.22,1.23.6,2.16.76,2.95.33,1.33.17,2.13-1.62,3.13-.93.52-1.61,1.36-2.48,1.54-1.06.22-1.99-.33-2.83-.52-1.1-.25-2.41-.2-2.83-.94-.38-.69-.33-1.81-.42-2.99-.06-.83.59-1.79.61-2.88.01-.88-1.03-1.88-1-2.93.08-1.29.92-2.4.97-3.47.06-1.24-.03-2.38,0-3.52s.47-2.26.51-3.5c.03-1.07-.81-2.24-.77-3.53-.03-1.17,0-2.3-.04-3.42s.6-2.33.55-3.46,0-2.3-.05-3.43.18-2.29.14-3.44c-.02-.54-.55-1.53-1.17-2.15-.81-.64-2.21-.6-3.05-1.26s-1.62-1.31-2.45-1.96-1.37-1.63-2.2-2.28-1.63-1.3-2.46-1.95-1.34-1.69-2.17-2.33-1.65-1.3-2.48-1.93-2.31-.45-3.13-1.08-1.48-1.53-2.31-2.15-2.03-.81-2.86-1.43-1.53-1.49-2.35-2.11-1.91-.99-2.72-1.6c-.86-.65-1.1-2.08-1.91-2.69-.88-.65-1.96-.94-2.77-1.54-.89-.66-1.95-.97-2.74-1.54-.99-.67-1.82-1.24-2.58-1.72-1.03-.66-1.83-1.01-2.69-1.31-.97-.35-1.66-.46-2.81-.33-.87.09-1.72.29-2.91.67Z"/>
    </g>
  </g>
</svg>