<?xml version="1.0" encoding="UTF-8"?>
<svg id="_レイヤー_2" data-name="レイヤー 2" xmlns="http://www.w3.org/2000/svg" xmlns:xlink="http://www.w3.org/1999/xlink" viewBox="0 0 1366 728.09">
  <defs>
    <style>
      .cls-1 {
        fill: none;
      }

      .cls-2 {
        fill: #ebe9e6;
      }

      .cls-3 {
        fill: #fff;
      }

      .cls-4 {
        clip-path: url(#clippath);
      }
    </style>
    <clipPath id="clippath">
      <rect class="cls-1" y="0" width="1366" height="728.09"/>
    </clipPath>
  </defs>
  <g id="_編集箇所" data-name="編集箇所">
    <g class="cls-4">
      <g>
        <path class="cls-2" d="M1366.95,99.07c-.71.33-1.39.7-1.96,1.16-1.83,1.46-2.53,4.34-4.39,5.78-1.85,1.43-3.4,3.29-5.29,4.7-1.88,1.4-5.06,1.03-6.97,2.4-1.9,1.37-3.26,3.48-5.2,4.82-1.93,1.33-3.92,2.57-5.88,3.87-1.95,1.29-4.13,2.23-6.12,3.5-1.98,1.25-2.98,4.09-4.99,5.31-2,1.22-5.29.29-7.33,1.47-2.02,1.18-4.06,2.3-6.12,3.44-2.05,1.14-3.28,3.77-5.36,4.87-2.07,1.09-3.85,2.8-5.95,3.86-2.09,1.05-4.43,1.65-6.56,2.67-2.11,1.01-4.81.79-6.96,1.76-2.13.96-4.46,1.46-6.63,2.39-2.15.92-4.26,1.9-6.45,2.79-2.17.88-4.4,1.56-6.61,2.4-2.19.83-3.69,3.5-5.92,4.3-2.2.79-5.03-.19-7.27.56-2.22.74-4.08,2.57-6.34,3.27-2.23.7-4.55,1.14-6.82,1.8-2.25.65-4.42,1.61-6.7,2.23-2.26.61-4.33,2.01-6.63,2.57-2.27.56-5.02-.85-7.33-.33-2.28.52-4.18,2.8-6.5,3.28-2.29.47-4.61.93-6.93,1.37-2.3.43-4.69.46-7.02.85-2.3.39-4.53,1.45-6.87,1.8-2.31.35-4.78-.21-7.12.1-2.32.31-4.6,1.01-6.96,1.28-2.32.26-4.7.22-7.05.45-2.33.22-4.66.62-7.02.8-2.33.19-4.72-.24-7.08-.09-2.33.15-4.7-.05-7.06.06-2.33.11-4.68.25-7.04.32-2.34.07-4.67,1.15-7.03,1.18-2.34.04-4.7-.62-7.07-.62-2.34,0-4.68-.98-7.04-1.01-2.34-.03-4.67-.18-7.04-.25-2.34-.07-4.75,1.73-7.11,1.63-2.33-.1-4.64-1.25-7-1.38-2.33-.13-4.64-.8-7-.96-2.33-.16-4.82,1.51-7.18,1.32-2.33-.19-4.7-.24-7.06-.46-2.33-.22-4.55-1.63-6.91-1.88-2.32-.25-4.74.14-7.09-.14-2.32-.28-4.6-1.01-6.95-1.32-2.32-.3-4.65-.6-6.99-.93-2.31-.33-4.42-2.12-6.76-2.48-2.31-.36-4.67-.44-7-.82-2.31-.38-4.94,1.05-7.27.64-2.3-.4-4.22-2.97-6.55-3.4-2.3-.43-5,1.18-7.32.73-2.29-.45-4.48-1.54-6.8-2.02-2.29-.47-4.65-.72-6.96-1.22-2.29-.49-4.73-.37-7.04-.9-2.28-.52-4.41-1.78-6.71-2.33-2.28-.54-4.69-.6-6.98-1.16-2.27-.56-4.5-1.36-6.79-1.94-2.27-.58-4.36-1.87-6.65-2.47-2.26-.59-4.21-2.33-6.45-2.94-2.26-.62-5.11.91-7.35.28-2.25-.64-4.21-2.26-6.45-2.91-2.24-.66-4.8-.28-7.03-.96-2.24-.68-4.32-1.85-6.55-2.54-2.23-.7-4.56-1.09-6.78-1.81-2.22-.71-4.46-1.4-6.68-2.13-2.22-.73-4.34-1.75-6.55-2.5-2.21-.75-4.33-1.79-6.53-2.55-2.21-.76-4-2.69-6.2-3.46-2.2-.78-4.37-1.62-6.57-2.41-2.2-.79-4.37-1.63-6.56-2.43-2.19-.8-4.79-.5-6.98-1.32-2.19-.82-4.21-2.05-6.4-2.88-2.18-.83-4.11-2.31-6.29-3.15-2.18-.84-4.83-.46-7-1.3-2.17-.84-4.23-1.99-6.41-2.85-2.17-.85-4.39-1.59-6.56-2.45-2.17-.86-3.78-3.11-5.95-3.98-2.17-.86-4.49-1.35-6.65-2.22-2.16-.87-4.83-.52-6.99-1.4-2.16-.87-4.03-2.47-6.2-3.34-2.16-.88-4.8-.61-6.96-1.49-2.16-.88-4.39-1.6-6.56-2.49-2.16-.88-3.57-3.61-5.73-4.49-2.16-.88-4.55-1.2-6.72-2.08-2.16-.88-4.67-.91-6.84-1.79-2.16-.88-3.97-2.63-6.13-3.5-2.16-.87-4.61-1.05-6.78-1.92-2.16-.87-4.09-2.33-6.26-3.2-2.16-.87-4.87-.39-7.04-1.26-2.16-.86-3.66-3.42-5.83-4.28-2.17-.85-4.71-.77-6.89-1.62-2.17-.85-3.79-3.11-5.97-3.96-2.17-.84-4.52-1.25-6.71-2.09-2.17-.83-4.28-1.88-6.47-2.71-2.18-.82-4.77-.57-6.97-1.39-2.18-.82-4.61-.99-6.81-1.8-2.18-.81-4.29-1.85-6.49-2.65-2.19-.8-4.52-1.21-6.72-2-2.19-.78-4.37-1.6-6.58-2.38-2.2-.77-4.27-1.9-6.49-2.66-2.2-.76-4.31-1.79-6.53-2.54-2.2-.75-4.4-1.54-6.62-2.28-2.21-.74-4.6-.95-6.82-1.68-2.21-.72-4.33-1.76-6.56-2.47-2.22-.71-4.67-.68-6.91-1.38-2.22-.69-3.87-3.25-6.11-3.94-2.23-.68-4.53-1.16-6.77-1.83-2.23-.66-4.88.05-7.13-.61-2.23-.65-4.44-1.4-6.7-2.04-2.24-.63-4.24-2.13-6.5-2.76-2.24-.62-4.71-.46-6.97-1.07-2.25-.6-4.03-2.97-6.3-3.56-2.25-.59-4.51-1.19-6.79-1.77-2.25-.57-4.55-1.06-6.83-1.62-2.26-.56-4.92.51-7.21-.03-2.26-.54-4.33-1.93-6.62-2.46-2.27-.52-4.41-1.64-6.7-2.15-2.27-.51-4.74-.19-7.03-.68-2.27-.49-4.68-.4-6.98-.88-2.28-.47-4.27-2.39-6.57-2.85-2.28-.46-4.58-.9-6.89-1.35-2.28-.44-4.65-.52-6.96-.95-2.29-.42-4.88.77-7.19.36-2.32-.41-4.38-2.19-6.69-2.59-2.32-.4-4.89.77-7.2.39-2.32-.38-4.29-2.9-6.6-3.26-2.32-.36-4.67-.57-6.99-.91-2.33-.35-4.64-.75-6.96-1.08-2.33-.33-4.92,1.3-7.24.99-2.33-.32-4.48-1.88-6.8-2.18-2.33-.3-4.54-1.62-6.86-1.9-2.34-.28-4.87,1.15-7.19.88-2.34-.26-4.69-.32-7.01-.56-2.34-.25-4.67-.41-7-.64-2.34-.23-4.64-.81-6.96-1.02-2.34-.21-4.58-1.49-6.91-1.69-2.34-.19-4.74.39-7.08.22-2.35-.18-4.67-.59-7-.74-2.35-.16-4.66-.79-6.99-.93-2.35-.14-4.73.4-7.06.28-2.35-.12-4.7.1-7.04,0-2.35-.1-4.65-1.38-6.98-1.46-2.35-.08-4.73,1-7.07.93-2.35-.06-4.67-1.34-7-1.39-2.35-.04-4.7,0-7.04-.03-2.35-.03-4.7-.43-7.04-.44-2.35,0-4.69,1.89-7.03,1.91-2.35.01-4.69.18-7.02.21-2.35.03-4.72-1.49-7.06-1.43-2.35.05-4.7.22-7.03.3-2.35.08-4.62,1.98-6.96,2.07-2.35.1-4.7-.26-7.04-.14-2.35.12-4.7-.08-7.03.06-2.35.14-4.64.85-6.98,1.01-2.35.16-4.85-2-7.18-1.82-2.34.18-4.59,1.54-6.92,1.74-2.34.2-4.61,1.16-6.93,1.38-2.34.22-4.76-.37-7.08-.13-2.34.24-4.54,1.67-6.86,1.93-2.34.27-4.7.15-7.02.44-2.33.29-4.65.61-6.97.92-2.33.31-4.57,1.17-6.88,1.5-2.33.33-4.76-.13-7.07.22-2.32.35-4.7.33-7.01.7-2.32.38-4.51,1.49-6.81,1.89-2.32.4-4.93-.92-7.23-.5-2.31.42-4.23,2.88-6.53,3.32-2.31.44-4.85-.34-7.14.12-2.3.47-4.58,1.04-6.87,1.53-2.3.49-4.66.7-6.94,1.2-2.29.51-4.51,1.34-6.79,1.88-2.29.53-4.83.01-7.1.57-2.28.56-4.55,1.19-6.82,1.77-2.28.58-4.04,3.12-6.29,3.72-2.27.6-4.62.86-6.87,1.48-2.26.62-4.58,1.03-6.83,1.68-2.26.65-4.72.59-6.96,1.26-2.25.67-4.35,1.82-6.59,2.51-2.24.69-4.78.47-7,1.19-2.24.72-4.26,2.1-6.47,2.83-2.23.74-4.71.74-6.92,1.5-2.22.76-4.05,2.65-6.25,3.42-2.21.78-4.19,2.19-6.39,2.99-2.21.8-4.95.15-7.14.97-2.2.83-4.25,2.04-6.43,2.89-2.19.85-3.96,2.74-6.13,3.61-2.18.87-4.26,1.96-6.42,2.85-2.17.89-4.64,1.05-6.79,1.96-2.16.91-4.3,1.87-6.44,2.8-2.15.94-4.51,1.41-6.64,2.36-2.14.96-4.57,1.31-6.69,2.28-2.13.98-3.9,2.74-6.02,3.73-2.12,1-3.66,3.21-5.76,4.23-2.11,1.02-5.01.43-7.11,1.47-2.1,1.04-3.53,3.4-5.62,4.46-2.09,1.06-5.08.4-7.15,1.47-2.08,1.08-3.39,3.63-5.45,4.73-2.07,1.1-4.16,2.15-6.21,3.27-2.06,1.12-4.48,1.58-6.53,2.72-2.05,1.14-3.99,2.48-6.02,3.64-2.04,1.16-3.82,2.76-5.84,3.94-2.03,1.18-4.71,1.25-6.72,2.45-.63.38-1.2.84-1.74,1.33v349.56c1-.44,1.99-.85,2.92-1.02,2.32-.44,4.88.37,7.18-.05,2.32-.43,4.53-1.43,6.84-1.84,2.33-.41,4.92.79,7.23.4,2.33-.39,4.42-2.18,6.73-2.55,2.33-.37,4.75-.16,7.07-.5,2.33-.35,4.55-1.47,6.87-1.8,2.34-.33,4.64-.9,6.97-1.21,2.34-.31,4.7-.5,7.02-.78,2.34-.29,4.87,1,7.2.73,2.35-.27,4.64-.85,6.97-1.1,2.35-.25,4.62-1.18,6.95-1.41,2.35-.23,4.62-1.24,6.96-1.44,2.35-.21,4.82,1.03,7.16.85,2.35-.19,4.62-1.39,6.96-1.55,2.36-.16,4.76.6,7.11.46,2.36-.14,4.75.56,7.09.44,2.36-.12,4.69-.43,7.03-.53,2.36-.1,4.69-.46,7.04-.54,2.36-.08,4.66-1.99,7-2.05,2.36-.06,4.72.01,7.07-.02,2.36-.03,4.73,1.91,7.08,1.9,2.36-.01,4.71-1.69,7.06-1.68,2.36.01,4.7,1.33,7.05,1.36,2.36.03,4.73-.81,7.07-.76,2.36.06,4.68,1.21,7.02,1.29,2.36.08,4.72-.26,7.06-.16,2.36.1,4.68.64,7.02.76,2.36.12,4.81-1.53,7.15-1.38,2.35.15,4.66.97,7,1.14,2.35.17,4.61,1.52,6.94,1.71,2.35.19,4.66.73,6.99.95,2.35.21,4.82-.99,7.16-.75,2.35.24,4.74.06,7.07.32,2.35.26,4.67.71,7,.99,2.34.28,4.78-.2,7.11.1,2.34.31,4.4,2.63,6.72,2.95,2.34.33,4.91-1.02,7.23-.67,2.33.35,4.63.91,6.95,1.28,2.33.37,4.37,2.46,6.68,2.86,2.33.4,5.02-1.36,7.33-.94,2.32.42,4.41,2.08,6.72,2.51,2.32.44,4.53,1.36,6.83,1.82,2.31.46,4.83-.11,7.13.37,2.31.48,4.32,2.32,6.61,2.82,2.3.51,4.53,1.26,6.82,1.79,2.3.53,5-.69,7.28-.14,2.29.55,4.51,1.39,6.79,1.96,2.29.57,4.51,1.39,6.78,1.98,2.28.59,4.38,1.86,6.64,2.47,2.28.61,4.99-.38,7.25.25,2.27.63,4.45,1.58,6.71,2.23,2.27.65,4.08,2.8,6.33,3.47,2.26.67,4.71.68,6.95,1.37,2.25.69,4.75.6,6.99,1.31,2.25.71,3.9,3.24,6.13,3.97,2.24.73,4.81.45,7.03,1.19,2.23.75,4.03,2.73,6.25,3.5,2.23.77,5.12-.35,7.32.44,2.22.79,4.47,1.5,6.67,2.31,2.21.81,4.1,2.5,6.29,3.32,2.21.83,4.76.75,6.95,1.59,2.2.85,4.16,2.31,6.34,3.17,2.19.86,4.44,1.59,6.61,2.47,2.19.88,4.57,1.27,6.74,2.16,2.18.9,4.41,1.69,6.57,2.59,2.17.91,4.1,2.4,6.25,3.32,2.17.93,3.79,3.08,5.94,4.02,2.16.94,4.81.78,6.95,1.73,2.15.96,4.65,1.17,6.78,2.14,2.15.98,3.99,2.61,6.11,3.59,2.14.99,4.24,2.06,6.36,3.06,2.13,1,4.39,1.75,6.5,2.76,2.13,1.02,3.51,3.56,5.61,4.58,2.12,1.03,4.87.77,6.97,1.8,2.12,1.04,3.49,3.55,5.58,4.6,2.11,1.06,4.57,1.4,6.66,2.46,2.11,1.07,3.87,2.76,5.96,3.83,2.1,1.08,5.06.49,7.13,1.56,2.09,1.09,4.1,2.33,6.17,3.42,2.09,1.1,4.4,1.76,6.47,2.86,2.08,1.11,3.04,4.3,5.1,5.4,2.08,1.12,5.39-.04,7.44,1.07,2.08,1.13,2.9,4.51,4.95,5.63,2.07,1.13,5.14.44,7.19,1.57,2.07,1.14,3.34,3.69,5.38,4.83,2.07,1.15,4.49,1.62,6.53,2.76,2.06,1.15,4.77,1.13,6.81,2.28,2.06,1.16,3.47,3.44,5.5,4.59,2.06,1.16,3.98,2.53,6.02,3.68,2.06,1.16,4.19,2.16,6.23,3.32,2.06,1.17,4.32,1.94,6.35,3.09,2.06,1.17,4.43,1.76,6.46,2.91,2.06,1.17,3.09,4.1,5.12,5.25,2.06,1.17,4.14,2.26,6.18,3.41,2.06,1.16,5.15.48,7.19,1.62,2.07,1.16,3.34,3.68,5.37,4.82,2.07,1.15,4.38,1.85,6.41,2.98,2.07,1.15,3.57,3.29,5.62,4.41,2.08,1.14,5.01.69,7.06,1.79,2.09,1.13,3.8,2.9,5.86,3.99,2.1,1.11,4.15,2.26,6.21,3.34,2.11,1.1,4.07,2.42,6.14,3.47,2.12,1.08,4.19,2.21,6.27,3.23,2.13,1.05,4.53,1.51,6.62,2.51,2.15,1.03,3.74,3.17,5.85,4.14,2.17.99,4.44,1.7,6.57,2.63,2.18.95,5.1.1,7.25.99,2.21.91,3.85,3.1,6.01,3.93,2.23.86,4.64,1.11,6.82,1.88,2.18.77,4.5,1.21,6.73,1.99,2.18.77,4.51,1.2,6.74,1.98,2.18.77,4.13,2.28,6.36,3.06,2.19.76,4.73.58,6.96,1.35,2.19.76,4.32,1.77,6.55,2.54,2.19.75,4,2.7,6.23,3.46,2.2.74,4.41,1.5,6.65,2.25,2.2.74,4.41,1.52,6.65,2.26,2.21.73,4.16,2.29,6.4,3.02,2.21.72,5.15-.75,7.4-.03,2.21.71,4.05,2.65,6.3,3.36,2.22.7,4.12,2.46,6.37,3.16,2.22.69,5.09-.64,7.34.05,2.23.68,4.06,2.69,6.32,3.36,2.23.67,4.93-.19,7.19.47,2.23.65,4.31,1.88,6.57,2.53,2.24.64,4.47,1.35,6.74,1.98,2.24.63,4.59.9,6.87,1.52,2.25.61,4.33,1.88,6.6,2.48,2.25.6,4.52,1.19,6.8,1.78,2.26.59,4.53,1.15,6.81,1.72,2.26.57,4.49,1.32,6.78,1.88,2.27.55,4.74.27,7.03.81,2.27.54,4.66.56,6.96,1.09,2.27.52,4.25,2.37,6.54,2.88,2.28.51,4.41,1.74,6.71,2.23,2.28.49,4.88-.47,7.18,0,2.28.47,4.57.96,6.88,1.42,2.29.46,4.66.48,6.97.92,2.29.44,4.29,2.47,6.6,2.9,2.3.42,4.84-.5,7.16-.1,2.3.4,4.62.69,6.94,1.08,2.3.38,4.39,2.14,6.71,2.51,2.31.37,4.71.19,7.03.53,2.31.35,4.81-.6,7.14-.27,2.31.33,4.33,2.85,6.66,3.16,2.32.31,4.65.56,6.98.85,2.32.29,4.69.22,7.03.49,2.32.27,4.6,1,6.94,1.25,2.32.25,4.87-1.65,7.21-1.42,2.32.23,4.52,1.9,6.86,2.11,2.33.21,4.76-.75,7.1-.57,2.33.19,4.51,2.48,6.85,2.65,2.33.17,4.79-1.51,7.14-1.36,2.33.15,4.6,1.42,6.95,1.55,2.33.12,4.74-1.19,7.09-1.08,2.33.1,4.64.94,6.99,1.02,2.33.08,4.67.51,7.01.57,2.34.06,4.68,0,7.03.03,2.34.04,4.69-1.15,7.04-1.14,2.34.02,4.67.76,7.02.76,2.34,0,4.67-.64,7.02-.67,2.34-.03,4.69.78,7.03.73,2.34-.05,4.7.7,7.05.62,2.33-.07,4.63-1.53,6.97-1.63,2.33-.1,4.68,0,7.02-.12,2.33-.12,4.76,1.29,7.1,1.15,2.33-.14,4.69-.19,7.03-.35,2.33-.16,4.62-1.05,6.96-1.23,2.33-.19,4.63-.76,6.97-.97,2.33-.21,4.59-1.09,6.93-1.32,2.32-.23,4.76.52,7.09.27,2.32-.25,4.68-.28,7.02-.55,2.32-.28,4.58-1.13,6.91-1.43,2.32-.3,4.6-.91,6.92-1.23,2.31-.32,4.54-1.26,6.86-1.61,2.31-.34,4.83.63,7.15.26,2.31-.37,4.45-1.75,6.77-2.14,2.3-.39,4.68-.41,6.99-.82,2.3-.41,4.6-.84,6.91-1.28,2.3-.43,4.64-.65,6.94-1.11,2.29-.46,4.58-.96,6.88-1.44,2.29-.48,4.3-2.23,6.59-2.74,2.28-.5,4.77-.1,7.06-.62,2.28-.52,4.43-1.57,6.72-2.12,2.27-.55,4.66-.63,6.94-1.21,2.27-.57,4.64-.73,6.92-1.33,2.26-.59,4.27-2.12,6.54-2.74,2.25-.61,4.89.12,7.15-.51,2.25-.63,4.71-.59,6.97-1.24,2.24-.65,4.05-2.79,6.3-3.47,2.24-.68,4.82-.25,7.06-.95,2.23-.7,3.91-3.12,6.15-3.84,2.22-.72,4.41-1.54,6.64-2.29,2.22-.74,4.41-1.54,6.63-2.3,2.21-.76,4.59-1.02,6.81-1.8,2.2-.78,4.95-.07,7.16-.88,2.19-.8,3.96-2.78,6.16-3.6,2.19-.82,4.84-.44,7.04-1.28,2.18-.84,3.57-3.7,5.75-4.57,2.17-.86,4.89-.38,7.06-1.26,2.16-.88,4.62-1.08,6.79-1.98,2.15-.9,3.49-3.73,5.65-4.66.94-.4,1.73-.71,2.49-1V99.07Z"/>
        <path class="cls-3" d="M-1.78,203.41c40.8-38.88,95.99-61.82,152.32-63.52s109.03,17.54,151.26,52.08c22.14,18.11,39.86,39.98,54.55,64.43,15.86,26.4,29.05,54.58,48.01,79.01,16.23,20.9,37.1,39.38,62.38,48.29s50.14,5.19,73.91-3.34c46.24-16.6,91.42-53.33,143.3-40.14,20.28,5.16,33.42,18.85,44.64,35.74,5.23,7.87,10.24,15.88,16.08,23.32,8.26,10.53,17.72,20.29,27.45,29.46,37.82,35.63,84.74,61.65,135.77,72.27,23.79,4.95,48.27,6.67,72.5,4.83,23.89-1.81,49.19-6.04,70.89-16.59,23.98-11.67,43.72-30.19,64.85-46.09,23.5-17.68,50.24-29.87,77.91-39.6,52.09-18.32,115.38-22.65,159.33,16.86,9.12,8.2,16.48,17.88,21.86,28.9,2.54,5.2,10.31.65,7.77-4.54-23.44-47.99-80.54-67.8-131.01-63.51-31.79,2.71-62.18,13.14-91.19,25.96-13.2,5.84-26.08,11.99-38.04,20.12-10.96,7.45-21.26,15.81-31.63,24.04-10.71,8.51-21.54,16.95-33.28,24.02s-23.17,11.42-35.96,14.65c-24.04,6.06-48.9,8.45-73.66,7.17-51.65-2.65-101.35-21.75-142.85-52.33-21.33-15.72-42.16-34.74-57.6-56.38-10.85-15.21-19.58-32.33-34.59-44.01-18.71-14.57-44.13-18.19-67.13-15.01-25.1,3.47-48.15,14.97-70.71,25.87s-46.88,22.77-72.72,24.29c-28.16,1.66-53.42-11.22-73.51-30.19-21.96-20.74-36.59-47.3-51.15-73.41s-29.83-51.69-50.91-73.18c-38.02-38.77-89.24-64.08-143.16-70.51-55.61-6.64-113.42,7.96-159.93,38.96-11.43,7.62-22.18,16.25-32.12,25.73-4.2,4,2.17,10.36,6.36,6.36h0Z"/>
      </g>
    </g>
  </g>
</svg>