<?xml version="1.0" encoding="UTF-8"?>
<svg id="_レイヤー_2" data-name="レイヤー 2" xmlns="http://www.w3.org/2000/svg" xmlns:xlink="http://www.w3.org/1999/xlink" viewBox="0 0 390 933.75">
  <defs>
    <style>
      .cls-1, .cls-2 {
        fill: none;
      }

      .cls-2 {
        stroke: #fff;
        stroke-miterlimit: 10;
        stroke-width: 7px;
      }

      .cls-3 {
        fill: #ebe9e6;
      }

      .cls-4 {
        clip-path: url(#clippath);
      }
    </style>
    <clipPath id="clippath">
      <polygon class="cls-1" points="390 927.57 0 933.75 0 0 390 15.99 390 927.57"/>
    </clipPath>
  </defs>
  <g id="_レイヤー_5" data-name="レイヤー 5">
    <g class="cls-4">
      <path class="cls-3" d="M268.43,82.12c-.71-.23-1.43-.42-2.13-.64s-1.29-.84-2-1.06-1.63.23-2.33.02-1.32-.77-2.03-.98-1.41-.47-2.12-.68-1.52-.1-2.23-.3-1.36-.64-2.07-.83-1.52-.08-2.23-.27-1.35-.71-2.06-.89-1.38-.58-2.1-.76-1.48-.21-2.19-.39-1.52-.01-2.24-.19-1.3-.97-2.01-1.13-1.43-.42-2.15-.58-1.48-.21-2.2-.36-1.44-.4-2.16-.56-1.5-.11-2.22-.26-1.46-.3-2.18-.45-1.55.19-2.28.05-1.47-.22-2.2-.35-1.43-.43-2.16-.56-1.48-.16-2.21-.29-1.45-.31-2.18-.44-1.36-.86-2.09-.98-1.51.04-2.24-.08-1.5,0-2.23-.11-1.44-.37-2.17-.48-1.52.11-2.25,0-1.41-.58-2.14-.69-1.51.1-2.24,0-1.38-.83-2.11-.93-1.56.47-2.29.37-1.37-.95-2.11-1.05-1.53.28-2.27.18-1.46-.33-2.19-.42-1.5,0-2.23-.09-1.44-.49-2.17-.58-1.54.39-2.28.3-1.42-.65-2.15-.73-1.44-.47-2.17-.56-1.49.02-2.23-.07-1.54.37-2.27.28-1.43-.5-2.17-.59-1.5.1-2.24.01-1.46-.24-2.2-.32-1.43-.51-2.16-.59-1.46-.26-2.2-.35-1.5.08-2.24-.01-1.5.07-2.24-.02-1.46-.27-2.19-.37-1.47-.19-2.2-.28-1.45-.33-2.18-.43-1.48-.13-2.21-.23-1.41-.61-2.14-.72-1.52.15-2.25.04-1.46-.21-2.19-.33-1.38-.71-2.11-.83-1.48-.11-2.21-.23-1.42-.46-2.15-.58-1.48-.12-2.2-.25-1.44-.3-2.17-.44-1.51.06-2.24-.09-1.46-.21-2.19-.36-1.49-.12-2.21-.28-1.34-.79-2.06-.96-1.51-.02-2.23-.19-1.45-.3-2.17-.48-1.31-.82-2.03-1.01c-.72-.19-1.57.11-2.28-.08s-1.48-.22-2.2-.41-1.35-.74-2.06-.93-1.42-.46-2.13-.65-1.37-.65-2.08-.84-1.57.12-2.29-.07-1.39-.58-2.1-.77-1.51-.13-2.22-.32-1.37-.62-2.08-.82-1.54-.03-2.25-.22-1.42-.45-2.13-.65-1.24-1.1-1.94-1.3-1.49-.2-2.2-.4-1.58.09-2.28-.11-1.41-.49-2.12-.7-1.34-.72-2.05-.93-1.36-.65-2.07-.86-1.39-.56-2.09-.77-1.48-.24-2.19-.46-1.51-.17-2.21-.39-1.36-.64-2.06-.86-1.38-.59-2.08-.81-1.38-.56-2.08-.79-1.43-.41-2.13-.64-1.46-.34-2.15-.57-1.34-.68-2.04-.92-1.44-.38-2.14-.62-1.38-.57-2.07-.81-1.52-.15-2.22-.4-1.38-.55-2.07-.8-1.38-.54-2.07-.8-1.31-.73-2-.99-1.6.04-2.29-.23-1.29-.78-1.98-1.05-1.49-.29-2.17-.57-1.18-1.04-1.87-1.32-1.38-.54-2.06-.83-1.36-.58-2.05-.87-1.54-.16-2.22-.46-1.38-.55-2.05-.85-1.26-.82-1.93-1.13-1.38-.54-2.06-.85-1.17-1-1.84-1.31-1.4-.5-2.07-.82-1.3-.7-1.97-1.02-1.28-.75-1.94-1.07-1.56-.17-2.23-.5-1.39-.53-2.05-.86-1.33-.64-2-.98-1.15-1-1.81-1.34-1.52-.28-2.18-.62-1.17-.97-1.83-1.31-1.26-.76-1.92-1.11-1.42-.46-2.08-.81-1.31-.69-1.96-1.04-1.25-.8-1.91-1.15-1.17-.93-1.83-1.29-1.57-.22-2.23-.58-1.14-1.07-1.8-1.43c-.37,1.04-.16,1.11-.16,2.21s.34,1.1.34,2.2-.35,1.1-.35,2.2-.15,1.1-.15,2.2.02,1.1.02,2.2.63,1.1.63,2.2-.57,1.1-.57,2.21-.07,1.1-.07,2.2.54,1.1.54,2.21-.59,1.1-.59,2.2.36,1.1.36,2.21-.25,1.1-.25,2.2.4,1.1.4,2.21-.12,1.1-.12,2.21.4,1.1.4,2.2-.26,1.1-.26,2.21-.38,1.1-.38,2.21-.02,1.1-.02,2.21.5,1.1.5,2.21-.5,1.11-.5,2.21.44,1.11.44,2.21.16,1.12.16,2.24-.44,1.12-.44,2.23.35,1.12.35,2.23-.33,1.12-.33,2.23.2,1.12.2,2.23-.03,1.12-.03,2.23-.12,1.12-.12,2.23-.19,1.12-.19,2.23-.06,1.12-.06,2.23-.12,1.12-.12,2.23.22,1.12.22,2.23.26,1.12.26,2.24-.45,1.12-.45,2.24.04,1.12.04,2.24.66,1.12.66,2.24-.35,1.12-.35,2.23.26,1.12.26,2.23-.34,1.12-.34,2.23.28,1.12.28,2.23-.3,1.12-.3,2.23.26,1.12.26,2.24,0,1.12,0,2.24-.1,1.12-.1,2.24,0,1.12,0,2.24.02,1.12.02,2.24-.02,1.12-.02,2.24-.4,1.12-.4,2.23.7,1.12.7,2.24.02,1.12.02,2.24-.6,1.12-.6,2.24.28,1.12.28,2.24.16,1.12.16,2.24.22,1.12.22,2.24-.14,1.12-.14,2.24-.13,1.12-.13,2.24-.47,1.12-.47,2.24.1,1.12.1,2.24.48,1.12.48,2.24-.02,1.12-.02,2.24-.56,1.12-.56,2.24.16,1.12.16,2.24.3,1.12.3,2.24-.53,1.12-.53,2.24.1,1.12.1,2.24.52,1.12.52,2.24-.5,1.12-.5,2.24-.07,1.12-.07,2.24.05,1.12.05,2.24-.09,1.12-.09,2.24.36,1.12.36,2.23.41,1.12.41,2.23-.25,1.12-.25,2.24-.14,1.12-.14,2.24.14,1.12.14,2.24-.35,1.12-.35,2.24.29,1.12.29,2.24-.08,1.12-.08,2.24.29,1.12.29,2.24-.13,1.12-.13,2.24-.05,1.12-.05,2.24-.41,1.12-.41,2.24.57,1.12.57,2.24-.51,1.12-.51,2.24,0,1.12,0,2.24.16,1.12.16,2.24.17,1.12.17,2.24-.29,1.12-.29,2.24.54,1.12.54,2.24-.27,1.12-.27,2.25.93,1.64.13,2.43-1.32-.06-2.45-.06-1.28-.75-2.37-.41c.36.6.99,1.39,1.36,1.98s.47,1.36.85,1.95,1.18.9,1.57,1.49.3,1.4.69,1.98c.15,1.11-.19,1.09-.19,2.21s.11,1.12.11,2.23.09,1.12.09,2.23.4,1.12.4,2.23-.11,1.12-.11,2.23.06,1.12.06,2.23.11,1.12.11,2.23-.4,1.12-.4,2.23.37,1.12.37,2.23-.23,1.12-.23,2.23.15,1.12.15,2.23-.3,1.12-.3,2.23.09,1.12.09,2.23-.27,1.12-.27,2.23.34,1.12.34,2.23.14,1.12.14,2.23-.19,1.12-.19,2.23-.03,1.12-.03,2.23.35,1.12.35,2.24-.72,1.12-.72,2.24.66,1.12.66,2.24-.4,1.12-.4,2.24.47,1.12.47,2.24.08,1.12.08,2.24-.02,1.12-.02,2.24-.43,1.12-.43,2.24-.22,1.12-.22,2.24.46,1.12.46,2.24.18,1.12.18,2.24-.5,1.12-.5,2.24.54,1.12.54,2.24-.43,1.12-.43,2.24-.27,1.12-.27,2.23.08,1.12.08,2.23.13,1.12.13,2.23.21,1.12.21,2.23-.42,1.12-.42,2.23.14,1.12.14,2.23-.05,1.12-.05,2.23.13,1.12.13,2.23-.29,1.12-.29,2.23.72,1.12.72,2.23-.06,1.12-.06,2.23-.52,1.12-.52,2.23.09,1.12.09,2.23.4,1.12.4,2.23-.15,1.12-.15,2.23.15,1.12.15,2.23,0,1.12,0,2.23-.29,1.12-.29,2.23.13,1.12.13,2.23.19,1.12.19,2.23-.22,1.12-.22,2.23.12,1.12.12,2.23.11,1.12.11,2.24.04,1.12.04,2.24-.06,1.12-.06,2.24-.7,1.12-.7,2.24.74,1.12.74,2.24-.68,1.12-.68,2.24.77,1.12.77,2.24-.07,1.12-.07,2.24.04,1.12.04,2.24-.52,1.12-.52,2.24,0,1.12,0,2.24.42,1.12.42,2.24-.23,1.12-.23,2.24.12,1.12.12,2.24-.08,1.12-.08,2.24-.22,1.12-.22,2.24.34,1.12.34,2.24.07,1.12.07,2.24-.17,1.12-.17,2.24.13,1.12.13,2.23-.02,1.12-.02,2.23-.48,1.12-.48,2.23.18,1.12.18,2.23-.35,1.12-.35,2.23.49,1.12.49,2.23,0,1.12,0,2.23.22,1.12.22,2.23-.28,1.12-.28,2.24.16,1.12.16,2.24.18,1.12.18,2.24-.34,1.12-.34,2.24-.19,1.12-.19,2.24-.13,1.12-.13,2.24.12,1.12.12,2.24.27,1.12.27,2.24-.37,1.12-.37,2.24.28,1.12.28,2.24.38,1.12.38,2.24-.42,1.12-.42,2.24-.26,1.12-.26,2.24.21,1.12.21,2.24.22,1.12.22,2.24.17,1.12.17,2.24-.05,1.12-.05,2.24-.54,1.12-.54,2.24.26,1.12.26,2.24.07,1.12.07,2.24.15,1.12.15,2.24-.05,1.12-.05,2.24.09,1.12.09,2.24.1,1.12.1,2.24-.38,1.12-.38,2.24.27,1.12.27,2.24.03,1.12.03,2.24-.26,1.12-.26,2.24.22,1.12.22,2.24.04,1.12.04,2.24.07,1.12.07,2.24-.39,1.12-.39,2.24.24,1.12.24,2.24,0,1.12,0,2.24-.47,1.12-.47,2.24.68,1.12.68,2.24-.44,1.12-.44,2.24.03,1.12.03,2.24.33,1.12.33,2.24-.12,1.12-.12,2.24-.61,1.12-.61,2.24.03,1.12.03,2.24.68,1.12.68,2.24-.32,1.12-.32,2.24-.29,1.12-.29,2.24.46,1.12.46,2.24-.23,1.12-.23,2.24-.23,1.12-.23,2.24.33,1.12.33,2.24.38,1.12.38,2.24-.6,1.12-.6,2.24-.08,1.12-.08,2.24.21,1.12.21,2.24-.15,1.12-.15,2.24.36,1.12.36,2.24-.22,1.12-.22,2.24.29,1.12.29,2.24-.13,1.12-.13,2.24-.15,1.12-.15,2.24-.34,1.12-.34,2.24.08,1.12.08,2.24.4,1.12.4,2.24.16,1.12.16,2.24-.32,1.12-.32,2.24.14,1.12.14,2.24-.03,1.12-.03,2.24-.31,1.12-.31,2.24.57,1.12.57,2.24-.24,1.12-.24,2.24-.09,1.12-.09,2.24.15,1.12.15,2.24.04,1.12.04,2.24-.57,1.12-.57,2.24.69,1.12.69,2.24.03,1.12.03,2.24-.17,1.12-.17,2.24.1,1.12.1,2.24.11,1.12.11,2.24-.2,1.12-.2,2.24-.15,1.12-.15,2.24.18,1.12.18,2.24.26,1.12.26,2.24-.04,1.12-.04,2.24-.73,1.12-.73,2.23.1,1.12.1,2.23.16,1.12.16,2.23-.31,1.12-.31,2.23.52,1.12.52,2.23.2,1.12.2,2.23-.59,1.12-.59,2.23.66,1.12.66,2.23-.08,1.12-.08,2.23.08,1.12.08,2.24-.03,1.12-.03,2.24-.42,1.12-.42,2.24.2,1.12.2,2.24.29,1.12.29,2.24-.62,1.12-.62,2.24-.12,1.12-.12,2.24.34,1.12.34,2.24.27,1.12.27,2.24-.4,1.12-.4,2.24.23,1.12.23,2.24.28,1.12.28,2.24-.77,1.12-.77,2.24.31,1.12.31,2.24.27,1.12.27,2.24-.46,1.12-.46,2.24.62,1.12.62,2.24.03,1.12.03,2.24-.24,1.12-.24,2.24-.33,1.12-.33,2.24.09,1.12.09,2.24.07,1.12.07,2.24-.33,1.12-.33,2.24.3,1.12.3,2.24.23,1.12.23,2.24.06,1.12.06,2.24-.3,1.12-.3,2.24-.32,1.12-.32,2.24.25,1.12.25,2.24.27,1.12.27,2.24.24,1.12.24,2.24-.45,1.12-.45,2.24-.33,1.12-.33,2.24.43,1.12.43,2.24-.39,1.12-.39,2.24-.03,1.12-.03,2.24.2,1.12.2,2.24.02,1.12.02,2.24.5,1.12.5,2.24.03,1.12.03,2.24-.42,1.12-.42,2.24-.1,1.12-.1,2.24-.17,1.12-.17,2.24,0,1.12,0,2.24.25,1.12.25,2.24.21,1.12.21,2.24.19,1.12.19,2.24-.13,1.12-.13,2.24-.35,1.12-.35,2.24.17,1.12.17,2.24.28,1.12.28,2.24.1,1.12.1,2.24-.68,1.12-.68,2.24-.15,1.12-.15,2.24.74,1.12.74,2.24-.74,1.12-.74,2.24.52,1.12.52,2.24-.53,1.12-.53,2.24.67,1.12.67,2.24-.43,1.12-.43,2.24-.03,1.12-.03,2.24.36,1.12.36,2.24.07,1.12.07,2.24-.01,1.12-.01,2.24-.52,1.12-.52,2.25,0,1.12,0,2.24.21,1.12.21,2.24.2,1.12.2,2.24-.32,1.12-.32,2.24.18,1.12.18,2.24-.27,1.12-.27,2.25.43,1.12.43,2.25-.13,1.12-.13,2.25-.17,1.13-.17,2.25-.38,1.28.22,2.23c.46.74.87.03,1.71.25s1.2-.16,1.84.42c-.59.56-1.2,1.52-1.76,2.1s-1.3,1-1.83,1.61c-.21,1.11.13,1.13.13,2.26s.05,1.13.05,2.26-.48,1.13-.48,2.26.59,1.13.59,2.26-.63,1.13-.63,2.26.77,1.13.77,2.26-.48,1.13-.48,2.26-.15,1.13-.15,2.26-.19,1.13-.19,2.26.37,1.13.37,2.26-.14,1.13-.14,2.26-.16,1.13-.16,2.26.7,1.13.7,2.26.04,1.13.04,2.26-.01,1.13-.01,2.26-.6,1.13-.6,2.26.06,1.13.06,2.26.43,1.13.43,2.27-.26,1.07.1,2.14c.75,0,1.13-.18,1.88-.17s1.49.53,2.24.55,1.52-.5,2.27-.47,1.49.32,2.24.36,1.52-.18,2.27-.13,1.48.4,2.23.46,1.52-.12,2.27-.05,1.5.15,2.25.23,1.46.52,2.2.6,1.5.14,2.24.23,1.49.18,2.24.28,1.45.48,2.19.59,1.48.22,2.23.33,1.54-.08,2.28.05,1.48.27,2.22.41,1.54-.05,2.28.09,1.36.86,2.1,1.01,1.6-.31,2.33-.15,1.31,1.03,2.05,1.19,1.6-.24,2.33-.07,1.43.5,2.16.68,1.37.72,2.1.91,1.53.09,2.26.28,1.48.28,2.21.48,1.39.62,2.11.83,1.47.32,2.19.53,1.38.63,2.1.85,1.5.23,2.22.46,1.54.13,2.25.36,1.22,1.11,1.93,1.34,1.56.06,2.27.3,1.31.82,2.02,1.07,1.47.36,2.17.61,1.31.78,2.02,1.04,1.66-.17,2.37.09,1.17,1.17,1.87,1.44,1.43.45,2.14.72,1.44.45,2.14.72,1.45.41,2.15.69,1.4.54,2.1.82,1.38.6,2.07.88,1.51.27,2.21.57,1.35.67,2.04.96,1.29.79,1.98,1.09,1.34.69,2.02,1,1.54.25,2.22.55,1.21.98,1.89,1.29,1.25.88,1.93,1.19,1.37.62,2.05.93,1.45.44,2.14.75,1.39.58,2.07.9,1.46.42,2.14.74,1.22.92,1.9,1.25,1.57.19,2.25.52c.66.33,1.11,1.1,1.77,1.43s1.25.82,1.91,1.15,1.33.65,1.99.98,1.6.12,2.26.45,1.18.96,1.84,1.29,1.46.39,2.12.73,1.05,1.21,1.7,1.55,1.58.17,2.23.51,1.02,1.25,1.68,1.59,1.61.1,2.27.44,1.36.6,2.01.94,1.34.64,1.99.98,1,1.29,1.65,1.63,1.41.49,2.07.83,1.32.67,1.97,1.02,1.51.31,2.16.65,1.01,1.26,1.67,1.6,1.46.4,2.12.74,1.35.62,2,.96,1.33.64,1.99.98,1.31.69,1.97,1.03,1.38.56,2.03.9,1.06,1.17,1.72,1.51,1.38.55,2.04.89,1.4.51,2.06.85,1.18.94,1.84,1.27,1.33.65,1.99.98,1.44.44,2.1.77,1.45.42,2.11.75,1.23.85,1.89,1.18,1.12,1.07,1.79,1.39,1.67-.05,2.34.28,1.31.68,1.98,1,1.03,1.26,1.7,1.58,1.51.28,2.18.6,1.29.73,1.96,1.05,1.2.93,1.87,1.25,1.46.37,2.13.68,1.41.48,2.08.79,1.26.8,1.94,1.11,1.32.68,1.99.98,1.39.51,2.07.81,1.4.5,2.07.8,1.22.91,1.9,1.2,1.65-.1,2.33.19,1.18,1,1.87,1.29,1.49.28,2.17.55,1.44.37,2.13.65,1.22.94,1.91,1.21,1.5.23,2.19.49,1.37.56,2.06.82,1.3.74,2,1,1.37.55,2.07.8,1.36.58,2.06.83,1.35.62,2.05.86,1.44.36,2.14.6,1.41.46,2.11.69,1.32.73,2.03.95,1.66-.34,2.36-.12,1.24,1.02,1.95,1.23c.72.21,1.4.52,2.12.73s1.55.02,2.27.22,1.39.57,2.11.77,1.53.07,2.25.25,1.4.53,2.13.71,1.37.68,2.1.86,1.52.08,2.24.25,1.4.6,2.12.76,1.46.31,2.19.46,1.47.28,2.2.43,1.58-.3,2.31-.15,1.39.69,2.12.83,1.49.16,2.22.29,1.45.39,2.18.51,1.47.25,2.21.37,1.48.2,2.22.31,1.43.55,2.17.66,1.49.17,2.23.27,1.47.29,2.21.38,1.54-.32,2.29-.23,1.43.63,2.17.71,1.51-.06,2.25.02,1.48.2,2.23.27,1.48.22,2.23.28,1.54-.51,2.28-.45,1.47.32,2.22.37,1.5-.04,2.24,0,1.48.15,2.23.19,1.46.75,2.2.79,1.52-.67,2.27-.64,1.49.2,2.23.22,1.48.53,2.23.55,1.5-.01,2.24,0,1.5-.64,2.24-.63,1.49.4,2.24.4,1.5.21,2.24.2,1.49-.09,2.24-.1,1.49-.19,2.24-.21,1.49-.17,2.23-.19,1.49-.15,2.23-.18,1.51.3,2.26.26,1.48-.28,2.23-.32,1.5-.01,2.24-.06,1.5-.03,2.24-.09,1.5-.06,2.24-.12,1.48-.19,2.23-.26,1.5-.07,2.24-.14,1.47-.28,2.22-.36,1.45-.5,2.19-.59,1.55.39,2.29.3,1.41-.75,2.15-.85,1.5-.06,2.24-.17,1.49-.15,2.22-.26,1.47-.29,2.2-.41,1.5-.09,2.23-.21,1.47-.29,2.2-.42,1.5-.1,2.24-.23,1.4-.63,2.13-.78,1.54.1,2.27-.05,1.48-.23,2.21-.39,1.38-.67,2.11-.83,1.39-.61,2.12-.78,1.46-.29,2.19-.46,1.47-.25,2.2-.43,1.54-.02,2.26-.21,1.49-.21,2.21-.41,1.45-.35,2.17-.55,1.3-.88,2.02-1.09,1.36-.66,2.08-.87,1.44-.4,2.15-.62,1.46-.33,2.17-.55,1.41-.48,2.12-.71c.15-.05.7.21.85.16.08-1.12-.46-1.14-.46-2.26s-.07-1.12-.07-2.24.16-1.12.16-2.24.3-1.12.3-2.24.18-1.12.18-2.24-.33-1.12-.33-2.24-.41-1.12-.41-2.24.26-1.12.26-2.24-.29-1.12-.29-2.24.7-1.12.7-2.24.04-1.12.04-2.24-.1-1.12-.1-2.24-.67-1.12-.67-2.24.24-1.12.24-2.24.46-1.12.46-2.24-.69-1.12-.69-2.24.41-1.12.41-2.24-.39-1.12-.39-2.24.51-1.12.51-2.24.17-1.12.17-2.24-.02-1.12-.02-2.24-.03-1.12-.03-2.24-.57-1.12-.57-2.24.37-1.12.37-2.24-.49-1.12-.49-2.24.23-1.12.23-2.24.45-1.12.45-2.24-.31-1.12-.31-2.24.14-1.12.14-2.24.15-1.12.15-2.24-.17-1.12-.17-2.24.3-1.12.3-2.24-.41-1.12-.41-2.24-.01-1.12-.01-2.24.07-1.12.07-2.24,0-1.12,0-2.24.12-1.12.12-2.24-.32-1.12-.32-2.24.43-1.12.43-2.24-.2-1.12-.2-2.24-.1-1.12-.1-2.24-.18-1.12-.18-2.24.08-1.12.08-2.24.32-1.12.32-2.24-.21-1.12-.21-2.24-.12-1.12-.12-2.24-.23-1.12-.23-2.24.03-1.12.03-2.24.49-1.12.49-2.24.06-1.12.06-2.24-.44-1.12-.44-2.24.26-1.12.26-2.24.27-1.12.27-2.24-.2-1.12-.2-2.24.24-1.12.24-2.24-.39-1.12-.39-2.25-.04-1.12-.04-2.25.11-1.12.11-2.25.24-1.13.24-2.25-.45-1.13-.45-2.25.36-1.11.36-2.23-.58-1.11-.58-2.23.67-1.11.67-2.23-.37-1.11-.37-2.23.46-1.11.46-2.23-.68-1.11-.68-2.23.15-1.11.15-2.23-.11-1.11-.11-2.23-.02-1.11-.02-2.23.71-1.11.71-2.23-.41-1.11-.41-2.23-.17-1.11-.17-2.23.45-1.11.45-2.23-.03-1.11-.03-2.23-.43-1.11-.43-2.23.52-1.11.52-2.23-.14-1.11-.14-2.23,0-1.11,0-2.23-.47-1.11-.47-2.23.24-1.11.24-2.23.44-1.11.44-2.23-.17-1.11-.17-2.23-.27-1.11-.27-2.23.06-1.11.06-2.23,0-1.11,0-2.23,0-1.11,0-2.23.21-1.11.21-2.23-.11-1.11-.11-2.23.02-1.11.02-2.23.19-1.11.19-2.23-.51-1.11-.51-2.23.44-1.11.44-2.23-.67-1.11-.67-2.23.35-1.11.35-2.23.41-1.11.41-2.23-.73-1.11-.73-2.23.28-1.11.28-2.23.01-1.11.01-2.23,0-1.11,0-2.23.4-1.11.4-2.23.09-1.11.09-2.23-.32-1.11-.32-2.23.25-1.11.25-2.23-.12-1.11-.12-2.23-.11-1.11-.11-2.23-.19-1.11-.19-2.23.45-1.11.45-2.23-.61-1.11-.61-2.23-.09-1.11-.09-2.23.4-1.12.4-2.23-.2-1.11-.2-2.23.03-1.11.03-2.23.09-1.11.09-2.23.02-1.11.02-2.23.24-1.11.24-2.23-.57-1.11-.57-2.23.37-1.11.37-2.23-.16-1.11-.16-2.23.5-1.11.5-2.23-.67-1.11-.67-2.23-.02-1.11-.02-2.23.65-1.11.65-2.23-.21-1.11-.21-2.23-.14-1.11-.14-2.23-.06-1.11-.06-2.23.08-1.11.08-2.23.41-1.11.41-2.23-.43-1.11-.43-2.23-.24-1.11-.24-2.23.51-1.11.51-2.23-.66-1.11-.66-2.23.82-1.11.82-2.23-.82-1.11-.82-2.23.75-1.11.75-2.23-.16-1.11-.16-2.23.05-1.11.05-2.23-.6-1.11-.6-2.23.22-1.11.22-2.23-.25-1.12-.25-2.23.52-1.12.52-2.23-.46-1.11-.46-2.23.54-1.11.54-2.23-.09-1.11-.09-2.23.03-1.11.03-2.23.23-1.11.23-2.23-.26-1.11-.26-2.23-.39-1.11-.39-2.23.42-1.11.42-2.23.2-1.11.2-2.23-.04-1.11-.04-2.23-.17-1.11-.17-2.23-.05-1.11-.05-2.23.21-1.11.21-2.23-.31-1.11-.31-2.23.29-1.11.29-2.23-.03-1.11-.03-2.23-.64-1.11-.64-2.23.41-1.11.41-2.23-.35-1.11-.35-2.23.6-1.11.6-2.23-.27-1.12-.27-2.23-.22-1.12-.22-2.23.49-1.12.49-2.23.1-1.12.1-2.23-.53-1.11-.53-2.23.22-1.11.22-2.23.08-1.11.08-2.23.09-1.11.09-2.23-.57-1.11-.57-2.23.08-1.11.08-2.23.44-1.11.44-2.23-.34-1.11-.34-2.23.15-1.11.15-2.23.4-1.11.4-2.23-.7-1.11-.7-2.23.55-1.11.55-2.23.06-1.11.06-2.23-.54-1.11-.54-2.23.64-1.12.64-2.23-.25-1.12-.25-2.23.06-1.12.06-2.23-.13-1.12-.13-2.23-.46-1.11-.46-2.23.11-1.11.11-2.23.37-1.11.37-2.23.21-1.11.21-2.23-.57-1.11-.57-2.23.14-1.11.14-2.23-.13-1.11-.13-2.23.35-1.11.35-2.23-.28-1.11-.28-2.23.41-1.11.41-2.23-.53-1.12-.53-2.23.63-1.12.63-2.23.04-1.12.04-2.23-.59-1.12-.59-2.23-.09-1.12-.09-2.23-.06-1.12-.06-2.23.27-1.11.27-2.23.29-1.11.29-2.23-.33-1.11-.33-2.23.46-1.11.46-2.23-.25-1.11-.25-2.23-.22-1.12-.22-2.23-.11-1.12-.11-2.23.5-1.12.5-2.23.04-1.12.04-2.23-.08-1.12-.08-2.23-.25-1.12-.25-2.23.18-1.12.18-2.23-.46-1.11-.46-2.23.51-1.11.51-2.23-.19-1.11-.19-2.23.41-1.11.41-2.23-.57-1.11-.57-2.23.34-1.11.34-2.23.23-1.11.23-2.23-.2-1.11-.2-2.23-.08-1.11-.08-2.23.24-1.11.24-2.23-.34-1.11-.34-2.23.25-1.11.25-2.23-.23-1.11-.23-2.23.1-1.12.1-2.23,0-1.12,0-2.23-.28-1.12-.28-2.23.51-1.12.51-2.23-.4-1.11-.4-2.23.42-1.11.42-2.23-.24-1.11-.24-2.23-.19-1.11-.19-2.23-.22-1.11-.22-2.23-.05-1.11-.05-2.23.45-1.11.45-2.23.04-1.11.04-2.23.17-1.11.17-2.23-.47-1.12-.47-2.23.21-1.12.21-2.23.08-1.12.08-2.23-.51-1.12-.51-2.23.37-1.12.37-2.23.09-1.11.09-2.23.16-1.11.16-2.23-.37-1.11-.37-2.23.24-1.11.24-2.23-.39-1.12-.39-2.23.2-1.12.2-2.23.05-1.12.05-2.23-.36-1.12-.36-2.23.72-1.12.72-2.23-.42-1.12-.42-2.23-.16-1.12-.16-2.23.4-1.12.4-2.23.15-1.12.15-2.23-.05-1.12-.05-2.23-.39-1.12-.39-2.23-.03-1.12-.03-2.23.1-1.12.1-2.23.37-1.12.37-2.23-.48-1.12-.48-2.23.16-1.12.16-2.23.08-1.12.08-2.23-.08-1.12-.08-2.23-.1-1.12-.1-2.23.16-1.12.16-2.23-.34-1.12-.34-2.23.41-1.12.41-2.23-.16-1.12-.16-2.23-.07-1.12-.07-2.23.24-1.12.24-2.23.02-1.12.02-2.23-.52-1.12-.52-2.23.62-1.12.62-2.23-.47-1.12-.47-2.23.57-1.11.57-2.23-.42-1.12-.42-2.23-.27-1.12-.27-2.23.22-1.12.22-2.23.17-1.12.17-2.23-.01-1.12-.01-2.23.26-1.12.26-2.24-.07-1.12-.07-2.23-.35-1.12-.35-2.24-.13-1.12-.13-2.23.5-1.12.5-2.24-.21-1.12-.21-2.24-.38-1.12-.38-2.24.25-1.12.25-2.24-.22-1.12-.22-2.23.31-1.12.31-2.24-.16-1.12-.16-2.24.24-1.12.24-2.24.08-1.12.08-2.24.12-1.12.12-2.24-.64-1.12-.64-2.24-.02-1.1-.02-2.2.35-1.1.35-2.2-.1-1.1-.1-2.2.1-1.1.1-2.2-.03-1.1-.03-2.2.4-1.1.4-2.2-.66-1.1-.66-2.2.56-1.1.56-2.2-.24-1.1-.24-2.2.13-1.1.13-2.2.26-1.1.26-2.2-.17-1.1-.17-2.2,0-1.1,0-2.2.13-1.1.13-2.2-.37-1.1-.37-2.2.27-1.1.27-2.2-.24-1.1-.24-2.2-.37-1.1-.37-2.2.74-1.1.74-2.2-.18-1.1-.18-2.2.1-1.1.1-2.2.15-1.1.15-2.2-.58-1.1-.58-2.2-.03-1.1-.03-2.2.5-1.1.5-2.2-.04-1.1-.04-2.2-.6-1.1-.6-2.2.12-1.1.12-2.2-.02-1.1-.02-2.21.39-1.1.39-2.21-.37-1.1-.37-2.21.38-1.1.38-2.21-.06-1.11-.1-2.21c-.09-.07-.69-.62-1.45-1.75-.35-.52-.64-1.23-1.14-1.94-.38-.56-.75-1.21-1.22-1.88-.4-.57-1.04-1.03-1.51-1.68-.42-.57-.59-1.38-1.06-2.01-.43-.58-.79-1.24-1.27-1.86-.44-.57-.92-1.15-1.4-1.76-.45-.57-.96-1.12-1.45-1.72-.46-.57-1.35-.81-1.84-1.4s-.68-1.35-1.17-1.94-.64-1.4-1.14-1.98-1.44-.72-1.94-1.29-.96-1.13-1.47-1.7-1.02-1.07-1.53-1.64-.49-1.57-1-2.13-1.38-.75-1.9-1.31-.7-1.39-1.22-1.94-1.41-.71-1.94-1.26-1.12-.98-1.66-1.52-1.05-1.05-1.59-1.58-.73-1.38-1.28-1.91-1.2-.9-1.75-1.43-1.26-.83-1.82-1.35-.96-1.16-1.51-1.67-.91-1.21-1.47-1.72-1.46-.6-2.03-1.1-1.13-.97-1.7-1.46-1.12-.98-1.7-1.47-.76-1.41-1.34-1.9-1.31-.76-1.89-1.24-.98-1.17-1.56-1.64-1.15-.97-1.74-1.43-1.46-.57-2.05-1.03-1.22-.86-1.82-1.32-.82-1.4-1.42-1.85-1.35-.7-1.96-1.15-1.15-.97-1.76-1.41-1.32-.73-1.93-1.17-1.21-.88-1.83-1.3-1.18-.93-1.8-1.35-1.17-.94-1.8-1.36-1.24-.84-1.87-1.25-1.32-.71-1.96-1.12-1.22-.87-1.86-1.27-1.39-.61-2.03-1-1.46-.47-2.11-.86-1.24-.83-1.89-1.21-1.36-.63-2.01-1.01-1.06-1.16-1.71-1.54-1.46-.45-2.12-.82-1.03-1.23-1.69-1.59-1.54-.31-2.2-.66-1.23-.88-1.9-1.22-1.44-.47-2.11-.81-1.2-.94-1.88-1.28-1.47-.4-2.15-.73-1.43-.47-2.11-.8-1.09-1.21-1.77-1.53-1.38-.58-2.07-.89-1.53-.25-2.21-.56-1.27-.83-1.97-1.12-1.54-.2-2.24-.49-1.43-.45-2.13-.74-1.21-1-1.91-1.28-1.41-.51-2.11-.78-1.36-.63-2.07-.9-1.55-.14-2.25-.39-1.33-.72-2.04-.97-1.37-.63-2.08-.88-1.54-.13-2.26-.37-1.34-.71-2.06-.95Z"/>
      <path class="cls-2" d="M-1.63,206.06c.9.59,1.65,1.43,2.56,2.02s2.03.84,2.94,1.43,1.61,1.5,2.53,2.07,1.7,1.36,2.62,1.93,1.94.97,2.87,1.53,2.07.76,3,1.32,1.47,1.76,2.4,2.31,1.82,1.18,2.76,1.72,1.95.96,2.89,1.49,1.83,1.16,2.78,1.69,2.01.85,2.96,1.37,1.89,1.05,2.85,1.57,2.18.52,3.13,1.03,1.95.95,2.9,1.45,1.83,1.17,2.79,1.67,1.98.88,2.95,1.37,1.9,1.04,2.87,1.53,1.61,1.63,2.58,2.11,2.1.65,3.07,1.12,2.08.68,3.06,1.14,1.88,1.08,2.87,1.54,2.13.55,3.11,1.01,1.78,1.31,2.77,1.75,2.13.55,3.12.99,1.68,1.57,2.67,2,2.31.12,3.3.55,1.64,1.69,2.64,2.11,2.22.32,3.22.73,1.94.98,2.94,1.39,2.09.6,3.1,1,1.88,1.14,2.89,1.54,2.26.15,3.28.53,1.83,1.3,2.84,1.67,1.91,1.09,2.93,1.46,2.12.52,3.14.89,2.26.11,3.28.46,1.92,1.08,2.95,1.43,2.16.39,3.18.73,2.03.75,3.06,1.08,1.94,1.04,2.98,1.37,2.04.74,3.08,1.06,2.17.33,3.2.64,2.16.32,3.2.62,2.05.7,3.09.99,2.09.58,3.13.86,2.05.72,3.1,1,2.12.46,3.17.73,1.98,1,3.03,1.26,2.21.09,3.26.34,2.11.48,3.17.73,1.99,1.04,3.05,1.28,2.15.31,3.21.53,2.07.69,3.13.91,2.16.26,3.23.46,2.13.45,3.19.64,2.21-.01,3.27.17,2.15.27,3.22.45,2.17.13,3.24.29,2.05.9,3.12,1.06,2.2-.07,3.27.08c1.07.15,2.14.23,3.21.37s2.07.84,3.14.98,2.21-.33,3.28-.2,2.16.07,3.23.19,2.09.69,3.16.81,2.13.33,3.2.45,2.11.56,3.18.68,2.21-.4,3.28-.28,2.12.46,3.19.58,2.18-.1,3.25.02,2.11.51,3.19.63,2.19-.22,3.27-.1,2.14.3,3.21.43,2.04,1.11,3.11,1.24,2.17,0,3.24.14,2.22-.35,3.29-.21,2.13.38,3.19.53,2.08.67,3.15.83,2.09.59,3.15.76,2.1.5,3.16.67,2.16.13,3.22.31,2.18.05,3.24.25,2.07.65,3.13.86,2.07.6,3.13.83,2.07.59,3.12.84,2.11.44,3.15.7,2.13.37,3.17.65,2.01.81,3.04,1.11,2.1.48,3.13.79,2.02.73,3.05,1.06,2.18.26,3.2.61,2.01.77,3.02,1.15,1.99.8,2.99,1.2,1.88,1.06,2.87,1.49,2.26.21,3.24.66,1.81,1.2,2.78,1.68,2.07.68,3.03,1.18,1.6,1.56,2.54,2.09,1.88,1.04,2.8,1.59,1.83,1.12,2.73,1.7,2.11.71,3,1.31,1.81,1.18,2.68,1.81,1.57,1.5,2.43,2.15,1.76,1.25,2.6,1.92,1.34,1.75,2.15,2.45,1.72,1.29,2.51,2.01,1.51,1.52,2.28,2.27,1.42,1.61,2.16,2.38,1.94,1.13,2.66,1.93,1.56,1.51,2.25,2.33,1.4,1.65,2.06,2.5.95,1.98,1.58,2.85,1.69,1.46,2.28,2.35.85,2.02,1.41,2.94,1,1.91,1.52,2.85,1.29,1.76,1.77,2.72.95,1.94,1.38,2.93.73,2.03,1.12,3.04.46,2.12.81,3.14,1.3,1.85,1.6,2.89.08,2.21.33,3.26.28,2.13.47,3.19.76,2.05.9,3.12-.16,2.17-.07,3.25c.09,1.1-.04,2.19,0,3.28s.06,2.18.04,3.27.68,2.23.6,3.32-.86,2.13-.98,3.22-.36,2.15-.53,3.23.26,2.28.03,3.35-1.16,1.98-1.43,3.04-.15,2.22-.46,3.28-.93,2-1.28,3.04-.28,2.23-.67,3.26-.94,1.99-1.37,3-.45,2.21-.91,3.21-1.23,1.85-1.72,2.83-1.41,1.73-1.94,2.7-1.09,1.89-1.64,2.84-.61,2.19-1.19,3.13-1.68,1.53-2.28,2.44-.79,2.12-1.42,3.02-1.13,1.9-1.78,2.79-1.73,1.44-2.41,2.31-1.03,1.99-1.73,2.84-1.7,1.44-2.41,2.28-1.25,1.82-1.98,2.64-1.49,1.61-2.24,2.42-1.61,1.5-2.37,2.29-1.7,1.41-2.47,2.18c-.77.76-1.58,1.46-2.36,2.21s-1.66,1.38-2.45,2.12-1.4,1.66-2.2,2.39-1.4,1.67-2.21,2.39-1.98,1.02-2.8,1.72-1.61,1.43-2.44,2.12-1.16,1.99-2,2.67-1.95,1.03-2.79,1.7-1.51,1.58-2.36,2.24-1.96,1-2.82,1.65-1.52,1.57-2.39,2.21-1.95.99-2.83,1.63-1.57,1.52-2.45,2.14-1.76,1.25-2.65,1.87-1.84,1.13-2.74,1.74-1.79,1.21-2.68,1.82-1.79,1.22-2.69,1.81-1.82,1.17-2.72,1.76-2.07.77-2.98,1.35-1.38,1.86-2.29,2.44-1.82,1.17-2.73,1.75-2.21.53-3.13,1.1-1.67,1.41-2.59,1.98-1.75,1.29-2.67,1.85-1.72,1.34-2.64,1.9-1.94.97-2.87,1.52-1.94.97-2.87,1.52-2.14.62-3.08,1.16-1.81,1.19-2.74,1.74-1.58,1.58-2.51,2.13-1.88,1.07-2.81,1.61-2.2.51-3.14,1.05-1.78,1.24-2.71,1.79-1.69,1.4-2.62,1.94-2.19.54-3.12,1.08-1.81,1.19-2.74,1.73-1.55,1.63-2.48,2.17-2.17.58-3.1,1.12-1.91,1.02-2.84,1.57-1.83,1.15-2.76,1.71-1.91,1.02-2.84,1.57-1.63,1.48-2.55,2.05-1.59,1.54-2.51,2.11-1.99.88-2.91,1.45-1.92,1-2.84,1.58-1.74,1.3-2.65,1.88-2.05.81-2.95,1.4-1.62,1.47-2.52,2.07-1.85,1.12-2.75,1.72-1.6,1.49-2.49,2.1-1.87,1.09-2.76,1.71-1.8,1.19-2.69,1.82-2.04.86-2.92,1.49-1.34,1.82-2.21,2.47-2.1.8-2.96,1.45-1.73,1.3-2.59,1.96-1.59,1.48-2.44,2.15-1.57,1.5-2.41,2.18-1.89,1.1-2.72,1.79-1.24,1.88-2.07,2.58-1.85,1.16-2.66,1.87-1.46,1.61-2.26,2.33-1.71,1.33-2.5,2.06-1.93,1.11-2.71,1.85-1.14,1.93-1.91,2.69-1.81,1.25-2.56,2.02-1.08,1.96-1.82,2.74-1.95,1.13-2.69,1.92-1.63,1.45-2.34,2.26-1.33,1.72-2.03,2.54-1.32,1.72-2,2.56-.99,1.97-1.66,2.82-1.43,1.62-2.09,2.48-1.24,1.76-1.88,2.63-1.15,1.83-1.77,2.71-1.63,1.5-2.23,2.4-.8,2.06-1.37,3.02-1.31,1.75-1.83,2.74-.82,2.02-1.29,3.03-1.22,1.84-1.64,2.87-.71,2.07-1.09,3.11-1.03,1.96-1.38,3.01-.27,2.2-.58,3.27-.42,2.14-.7,3.22-.74,2.07-.98,3.15-.49,2.13-.7,3.22.02,2.22-.16,3.31-1.18,2.04-1.33,3.14.51,2.27.4,3.37-.68,2.13-.77,3.24.4,2.22.35,3.32,0,2.18-.03,3.29-.07,2.18-.06,3.28-.5,2.19-.47,3.3-.18,2.21-.12,3.31.68,2.15.77,3.25.4,2.16.51,3.25-.34,2.25-.2,3.34.94,2.08,1.11,3.17-.14,2.25.06,3.33.11,2.22.34,3.3.57,2.13.83,3.2.69,2.09.98,3.16.83,2.04,1.15,3.1.18,2.25.52,3.3.86,2.03,1.24,3.07.71,2.09,1.11,3.11.97,1.98,1.41,2.99.56,2.16,1.03,3.16,1.72,1.61,2.21,2.6.93,1.98,1.45,2.95.5,2.23,1.05,3.18,1.19,1.85,1.77,2.79,1.56,1.61,2.16,2.53,1.06,1.92,1.69,2.83,1.41,1.68,2.06,2.57,1.31,1.75,1.99,2.62,1.1,1.93,1.81,2.78,1.53,1.57,2.27,2.4,1.63,1.48,2.38,2.28,1.32,1.77,2.1,2.55,1.65,1.44,2.45,2.2,1.68,1.39,2.5,2.14,1.66,1.42,2.5,2.13,1.62,1.46,2.48,2.16,1.2,2.02,2.08,2.69,2.28.61,3.17,1.26,1.31,1.94,2.23,2.57,2.32.46,3.25,1.07,1.79,1.25,2.73,1.83,1.89,1.09,2.85,1.64,1.59,1.63,2.56,2.16,1.93,1.06,2.91,1.57,2.17.56,3.16,1.05,1.85,1.2,2.86,1.67,2.05.79,3.06,1.23,1.96.95,2.97,1.37,1.92,1.07,2.94,1.47,2.18.41,3.2.78,2.07.66,3.1,1.02,1.99.89,3.03,1.23,2.12.51,3.16.83,2.08.65,3.13.95,1.95,1.14,3,1.42,2.17.34,3.23.6,2.03.92,3.09,1.16,2.25-.09,3.32.14,2.13.43,3.21.64,2.19.15,3.26.34,2.09.7,3.17.88,2.18.15,3.26.31,2.18.1,3.26.24,2.11.68,3.19.81,2.14.48,3.23.59,2.16.37,3.25.46,2.19.05,3.28.13,2.2-.17,3.29-.1,2.15.57,3.24.62,2.19-.23,3.28-.19,2.19-.39,3.28-.36,2.17.54,3.26.56,2.18.33,3.27.33,2.18-.26,3.27-.28,2.18-.29,3.27-.32,2.17-.27,3.26-.31,2.18-.03,3.27-.08,2.21.53,3.3.47,2.16-.45,3.25-.52,2.17-.25,3.26-.34,2.16-.36,3.24-.47,2.17-.16,3.26-.27,2.15-.34,3.24-.47,2.15-.38,3.23-.52,2.22.16,3.3.01,2.11-.62,3.19-.79,2.15-.36,3.22-.54,2.2-.04,3.28-.23,2.1-.63,3.17-.83,2.13-.45,3.2-.66,2.12-.5,3.19-.72,2.23.01,3.3-.22,2.07-.75,3.13-.99,2.12-.5,3.18-.76,2.26.02,3.31-.24,1.91-1.32,2.96-1.6,2.25-.05,3.3-.34,2.1-.62,3.14-.92,1.99-.99,3.03-1.3,2.13-.49,3.17-.82,2.31.03,3.34-.31,2.07-.72,3.1-1.07,1.8-1.47,2.83-1.83,2.19-.38,3.21-.75,2.17-.44,3.19-.83,1.84-1.3,2.85-1.71,2.13-.56,3.14-.97,2.13-.59,3.12-1.02,1.85-1.23,2.84-1.67,1.8-1.31,2.79-1.76,2.29-.27,3.27-.74,2.01-.88,2.98-1.36,1.84-1.21,2.8-1.72,2.02-.87,2.97-1.38,1.71-1.43,2.65-1.96,2.03-.86,2.96-1.41"/>
    </g>
  </g>
</svg>