<?xml version="1.0" encoding="UTF-8"?>
<svg id="_レイヤー_2" data-name="レイヤー 2" xmlns="http://www.w3.org/2000/svg" xmlns:xlink="http://www.w3.org/1999/xlink" viewBox="0 0 1364.56 875.45">
  <defs>
    <style>
      .cls-1 {
        fill: none;
      }

      .cls-2 {
        fill: #eeeae6;
      }

      .cls-3 {
        fill: #fff;
      }

      .cls-4 {
        clip-path: url(#clippath);
      }
    </style>
    <clipPath id="clippath">
      <path class="cls-1" d="M1364.56,117.95c-83.79,86.37-202.32,140.22-397.99,76.36-137.36-44.83-246.31-135.72-428.28-175.89C305.35-33.01,131.16,29.5,0,128.63v428.94c377.2-93.74,593.91,172.09,726.84,230.26,132.93,58.17,365.15,158.58,637.72,10.5V117.95Z"/>
    </clipPath>
  </defs>
  <g id="_背景" data-name="背景">
    <g class="cls-4">
      <path class="cls-2" d="M1368.61,118.34c-1.81,1.85-1.63,4.02-3.47,5.84s-5.17,2.1-7.05,3.88-2.41,5-4.33,6.75-5.14,2.02-7.08,3.73-3.86,3.42-5.84,5.09-2.47,5.14-4.48,6.77-4.12,3.18-6.16,4.77-5.75.99-7.83,2.53-3.81,3.52-5.92,5.02-3.75,3.65-5.9,5.1-4.55,2.48-6.74,3.88-3.86,3.59-6.07,4.94-4.81,2.03-7.06,3.33-3.76,3.89-6.04,5.13-5.12,1.41-7.43,2.6-5.08,1.37-7.42,2.5-4.05,3.52-6.42,4.59-4.69,2.21-7.08,3.21-5.49.19-7.91,1.14-4.36,3.02-6.81,3.91-4.55,2.67-7.01,3.5-4.77,2.15-7.25,2.91-5.51-.38-8.01.31-4.59,2.84-7.12,3.48-5.11.93-7.65,1.5-4.95,1.67-7.5,2.18-5.57-1.67-8.13-1.21-4.8,2.52-7.38,2.91-5.12.7-7.7,1.03-5.28-.81-7.87-.54-5.1.62-7.7.84-4.99,2.53-7.59,2.69-5.17.41-7.77.51-5.18-.04-7.79,0-5.17-.42-7.78-.42-5.16-.08-7.77-.13-5.17.14-7.78.03-5.13-.92-7.73-1.08-5.11-.86-7.71-1.06-5.28,1.18-7.88.93-4.94-2.37-7.53-2.66-5.29.82-7.88.49-5.07-1.01-7.66-1.38-4.91-1.99-7.48-2.4-5.22-.05-7.78-.5-5.17-.39-7.73-.88-4.72-2.7-7.27-3.23-5.5,1.07-8.05.51-4.89-1.78-7.43-2.37-5.2-.48-7.73-1.11-5.11-.89-7.64-1.55-4.91-1.65-7.43-2.34-4.84-1.89-7.35-2.61-4.69-2.35-7.19-3.09-4.94-1.48-7.43-2.25-5.12-.92-7.61-1.72-4.89-1.8-7.36-2.63-5.18-.96-7.64-1.82-4.6-2.62-7.04-3.51-5.38-.48-7.82-1.39-4.55-2.71-6.98-3.65-5.05-1.41-7.47-2.38-4.46-2.86-6.87-3.85-5.06-1.41-7.46-2.42-4.77-2.1-7.16-3.13-5.11-1.33-7.49-2.38-4.73-2.2-7.1-3.27-4.63-2.41-7-3.5-4.72-2.2-7.09-3.3-4-3.74-6.35-4.85-4.85-1.92-7.2-3.05-4.59-2.45-6.94-3.58-5.63-.32-7.97-1.46-3.81-4.05-6.15-5.2-5.16-1.31-7.49-2.47-4.75-2.13-7.09-3.29-4.64-2.37-6.97-3.53-4.96-1.71-7.3-2.88-3.54-4.55-5.87-5.72-5.59-.45-7.93-1.62-4-3.63-6.34-4.8-4.33-2.98-6.67-4.14-5.08-1.46-7.42-2.62-4.94-1.74-7.28-2.89-4.06-3.55-6.4-4.69-5.11-1.39-7.46-2.52-5.29-.99-7.65-2.12-4.41-2.82-6.77-3.94-4.97-1.65-7.33-2.75-4.37-2.93-6.74-4.03-4.58-2.48-6.96-3.56-5.08-1.38-7.46-2.45-4.85-1.87-7.24-2.92-4.35-3.03-6.75-4.06-4.86-1.86-7.26-2.88-5.15-1.16-7.56-2.16-3.96-4.04-6.38-5.02-5.2-1-7.63-1.97-4.73-2.17-7.17-3.12-4.74-2.17-7.18-3.1-5.12-1.16-7.57-2.06-4.96-1.57-7.42-2.45-4.93-1.63-7.4-2.5-5.09-1.16-7.56-2-4.55-2.78-7.03-3.6-5.09-1.14-7.58-1.94-4.6-2.69-7.1-3.46-5.58.47-8.08-.28-4.67-2.53-7.18-3.26-4.86-1.92-7.38-2.63-5-1.41-7.53-2.09-5.12-.97-7.65-1.62-4.8-2.25-7.34-2.88-5.21-.59-7.76-1.19-4.85-2.12-7.41-2.7-5.34.03-7.9-.53-5.39.12-7.95-.42-4.66-3.47-7.22-3.98-5.64,1.49-8.21,1.01-4.82-2.83-7.39-3.29-5.4.34-7.97-.09-5-1.98-7.58-2.39-5.16-1.05-7.75-1.44-5.24-.54-7.83-.9-5.35.39-7.95.06-5.12-1.4-7.71-1.71-5.33.4-7.93.11-5.15-1.18-7.75-1.44-5.29.27-7.9.04-5.11-1.88-7.72-2.09-5.31.59-7.91.42-5.26.08-7.87-.07-5.14-2.45-7.75-2.57-5.3,1-7.91.91-5.22-1.19-7.84-1.25-5.28,1.98-7.9,1.95-5.24-2.75-7.85-2.75-5.24,2.14-7.86,2.17-5.26-.72-7.88-.66-5.28-.51-7.89-.42-5.28-.3-7.89-.17-5.18,1.67-7.79,1.82-5.25.16-7.86.35-5.25.21-7.86.43-5.2.8-7.81,1.06-5.3-.18-7.9.11-5.29.08-7.89.4-5.28.22-7.88.57-5.06,1.79-7.65,2.17-4.96,2.28-7.54,2.69-5.58-1.54-8.16-1.09-4.92,2.34-7.49,2.82-5.05,1.49-7.62,2.01-5.54-.81-8.09-.26-4.56,3.68-7.11,4.26-5.56-.73-8.1-.12-4.66,3.02-7.19,3.67-5.32.39-7.84,1.07-5.5-.18-8.02.54-4.42,3.6-6.93,4.35-5.6-.35-8.09.43-4.55,3.02-7.04,3.84-5.14,1.17-7.62,2.01-4.76,2.28-7.23,3.15-5.64-.13-8.09.77-4.44,3.14-6.88,4.08-5.04,1.54-7.47,2.51-4.65,2.5-7.07,3.51-4.62,2.55-7.02,3.58-4.7,2.32-7.1,3.38-5.04,1.58-7.42,2.67-4.86,1.99-7.23,3.11-4.62,2.5-6.97,3.66-4.6,2.53-6.93,3.71-4.8,2.13-7.12,3.34-5.39,1.05-7.7,2.29-3.78,4.04-6.07,5.31-4.91,1.98-7.18,3.27-4.15,3.31-6.41,4.63-4.1,3.35-6.35,4.69-5.92.37-8.15,1.74-4.26,3.1-6.48,4.5-4.02,3.46-6.22,4.88-4.22,3.13-6.4,4.58-4.54,2.65-6.71,4.12-4.81,2.28-6.96,3.78-2.99,4.86-5.12,6.39-4.48,2.74-6.59,4.29-4.64,2.47-6.74,4.03c-.85,3.8.05,3.88.05,7.78s.62,3.9.62,7.8-.72,3.9-.72,7.8-1.1,3.9-1.1,7.8,1.45,3.9,1.45,7.8-.5,3.9-.5,7.8.05,3.9.05,7.8-1.32,3.9-1.32,7.8,1.98,3.9,1.98,7.8-1.47,3.9-1.47,7.8,2.24,3.9,2.24,7.8-.5,3.9-.5,7.8-.78,3.9-.78,7.8-.89,3.9-.89,7.8.47,3.9.47,7.8-.64,3.9-.64,7.8-.29,3.9-.29,7.8,1.9,3.9,1.9,7.8-1.78,3.9-1.78,7.8,2.08,3.9,2.08,7.8.28,3.9.28,7.8-1.74,3.9-1.74,7.8-.59,3.9-.59,7.8.32,3.9.32,7.8.36,3.9.36,7.8-.42,3.9-.42,7.8,1.45,3.9,1.45,7.8-.31,3.9-.31,7.8-.42,3.9-.42,7.8,1.2,3.9,1.2,7.8-.25,3.9-.25,7.79-1.27,3.9-1.27,7.8-.8,3.9-.8,7.8,1.02,3.9,1.02,7.8-1.03,3.9-1.03,7.8.54,3.9.54,7.8-.14,3.9-.14,7.8,1.94,3.9,1.94,7.8-.34,3.9-.34,7.8.05,3.9.05,7.8-.5,3.9-.5,7.8.65,3.9.65,7.8-.33,3.9-.33,7.8-.71,3.9-.71,7.8,1.49,3.9,1.49,7.8-2.22,3.9-2.22,7.8-.27,3.9-.27,7.8.45,3.9.45,7.8,1.71,3.9,1.71,7.8-.52,3.9-.52,7.8-.54,3.9-.54,7.8-.18,3.9-.18,7.81-.27,3.9-.27,7.8,1.41,3.9,1.41,7.81-1.56,3.88-.26,7.56c2.55-.63,4.23-1.64,6.76-2.24s5.12-1.13,7.66-1.7,5.37.04,7.92-.5,4.94-1.98,7.49-2.49,5.47.71,8.03.22,4.97-1.88,7.53-2.33,4.9-2.44,7.47-2.86,5.16-1,7.73-1.4,5.29-.12,7.87-.48,5.14-1.13,7.72-1.46,5.4.97,7.98.66,4.98-2.66,7.57-2.94,5.25-.32,7.84-.56,5.29.23,7.88.02,5.33,1.03,7.92.85,5.13-1.77,7.73-1.92,5.29.86,7.89.75,5.22-.52,7.82-.6,5.2-1.88,7.8-1.93,5.26,1.62,7.87,1.6,5.22,1.12,7.83,1.14,5.26-1.81,7.86-1.75,5.25-.14,7.85-.06,5.23.39,7.84.51,5.12,2.22,7.72,2.38,5.24-.11,7.84.08,5.2.54,7.79.77,5.25-.04,7.84.22,5.41-1.35,8-1.06,5.14,1.25,7.72,1.57,5.05,1.76,7.63,2.12,5.41-.78,7.99-.39,5.19.82,7.76,1.24,4.95,2.13,7.52,2.59,5.12,1.07,7.68,1.56,5.5-.78,8.05-.26,4.82,2.55,7.37,3.1,5.12,1.11,7.65,1.7,4.91,1.95,7.44,2.57,5.26.54,7.78,1.19,5,1.56,7.51,2.24,5.01,1.51,7.51,2.23,4.98,1.59,7.48,2.33,5.5-.07,7.99.7,4.69,2.55,7.17,3.36,5.14,1.14,7.61,1.97,4.42,3.22,6.88,4.08,4.81,2.05,7.26,2.95,5.02,1.48,7.46,2.4,4.94,1.71,7.36,2.66,4.9,1.81,7.32,2.79,5.52.34,7.92,1.34,4.74,2.26,7.13,3.29,4.47,2.86,6.85,3.91,4.51,2.72,6.89,3.8,5.24,1.14,7.6,2.24,5.13,1.4,7.49,2.53,4.72,2.3,7.06,3.45,3.95,3.83,6.28,4.99,5.05,1.62,7.37,2.81,4.73,2.25,7.04,3.46,4.15,3.36,6.44,4.59,4.39,2.87,6.68,4.12,4.35,2.94,6.62,4.21,5.13,1.54,7.4,2.83,4.71,2.32,6.96,3.62,4.99,1.85,7.23,3.17,4.25,3.12,6.48,4.45,4.64,2.45,6.87,3.8,4.8,2.2,7.02,3.57,3.69,3.99,5.9,5.37,4.2,3.16,6.4,4.55,5.13,1.7,7.32,3.11,3.23,4.65,5.41,6.07,4.73,2.33,6.9,3.76,4.75,2.31,6.92,3.75,4.41,2.83,6.57,4.28,4.07,3.33,6.22,4.79,5.04,1.91,7.19,3.37,3.53,4.12,5.67,5.59,4.63,2.52,6.77,3.99,3.65,3.94,5.78,5.42,5.75.91,7.88,2.39,4.35,2.94,6.48,4.42,2.71,5.29,4.84,6.78,5.48,1.31,7.61,2.79,3.83,3.68,5.96,5.17,3.98,3.47,6.11,4.95,4.26,3.07,6.39,4.53,4.12,3.28,6.26,4.74,5.21,1.68,7.35,3.13,4.92,2.08,7.08,3.51,3.21,4.65,5.37,6.07,4.13,3.3,6.3,4.7,4.48,2.77,6.67,4.15,5.21,1.59,7.4,2.94,4.89,2.06,7.11,3.37,3.4,4.62,5.64,5.89,5.86.28,8.12,1.51,4.23,3.22,6.52,4.39,4.78,2.18,7.09,3.28,4.27,3.33,6.62,4.35,4.96,1.55,7.38,2.6,4.24,3.24,6.66,4.28,5.53.23,7.95,1.26,4.2,3.35,6.63,4.38,5.27.83,7.7,1.85,4.89,1.74,7.32,2.74,4.35,3.04,6.78,4.03,4.5,2.72,6.93,3.7,5.1,1.24,7.53,2.2,5.02,1.41,7.46,2.36,5.21.91,7.65,1.85,4.89,1.72,7.34,2.64,4.09,3.9,6.55,4.8,5.55-.07,8.01.81,4.18,3.74,6.65,4.61,4.88,1.81,7.35,2.66,5.11,1.14,7.59,1.96,5.01,1.42,7.5,2.22,5,1.44,7.49,2.23,4.92,1.7,7.42,2.46,5.3.39,7.81,1.12,4.94,1.6,7.45,2.31,4.47,3.33,6.99,4.02,5.04,1.3,7.57,1.97,5.71-1.33,8.24-.69,4.65,2.8,7.19,3.42,4.77,2.42,7.32,3.01,5.66-1.46,8.21-.9,4.97,1.58,7.52,2.11,4.77,2.61,7.33,3.12,5.16.73,7.73,1.21,5.2.48,7.77.93,5.12.88,7.7,1.31,5.34-.52,7.92-.13,5.03,1.43,7.62,1.79,4.97,2.06,7.56,2.4,5.41-1.41,8-1.11,5.12.84,7.72,1.11,5.11,1.09,7.71,1.33,5.23-.2,7.83.01,5.1,1.47,7.7,1.65,5.2.15,7.81.3,5.19.23,7.8.34,5.2.03,7.81.11,5.2-.54,7.82-.5,5.18.37,7.8.38,5.19.76,7.81.74,5.19-.67,7.8-.72,5.25,1.72,7.86,1.63,5.15-1.61,7.75-1.73,5.16-.8,7.77-.96,5.24.48,7.84.29,5.17-.56,7.77-.79,5.17-.53,7.77-.79,5.17-.56,7.76-.85,5.06-1.42,7.65-1.75,5.47,1.72,8.06,1.35,5.1-1.13,7.69-1.53,5.07-1.29,7.65-1.72,4.86-2.39,7.43-2.85,5.59,1.62,8.16,1.12,4.76-2.74,7.32-3.27,5.24-.37,7.79-.93,4.84-2.14,7.39-2.74,5.01-1.36,7.55-1.99,5.01-1.37,7.53-2.03,5.16-.81,7.68-1.5,5.38-.1,7.89-.82,5.01-1.43,7.52-2.18,4.25-3.84,6.74-4.63,5.01-1.36,7.49-2.18,4.82-1.92,7.29-2.77,5.75.7,8.22-.18,4.16-3.75,6.62-4.67,5.43-.34,7.86-1.28,5.18-1.07,7.61-2.04,3.98-4.03,6.4-5.03,5.44-.48,7.84-1.51,4.24-3.3,6.63-4.36,5.31-.88,7.69-1.96,4.37-2.95,6.74-4.06,5.11-1.36,7.47-2.5,4.86-1.93,7.2-3.1,4.53-2.59,6.86-3.78,4.08-3.44,6.4-4.66,4.81-2.24,7.11-3.48c.96-3.79-.26-3.94-.26-7.85s-.15-3.91-.15-7.82-.84-3.91-.84-7.81,2.18-3.91,2.18-7.81-2.21-3.91-2.21-7.81.59-3.91.59-7.82,1.18-3.91,1.18-7.82-.17-3.91-.17-7.82-1.48-3.91-1.48-7.82.18-3.91.18-7.82,1.99-3.91,1.99-7.82-.32-3.91-.32-7.82-2.16-3.91-2.16-7.82,2.63-3.91,2.63-7.82-.31-3.91-.31-7.82-.99-3.91-.99-7.82-.36-3.91-.36-7.82,1.55-3.91,1.55-7.82-.55-3.91-.55-7.82-.25-3.91-.25-7.82.47-3.91.47-7.82-1.12-3.91-1.12-7.82,1.05-3.91,1.05-7.82-1.14-3.91-1.14-7.82-.95-3.91-.95-7.82,1.68-3.91,1.68-7.82.39-3.91.39-7.82-2-3.91-2-7.82,1.53-3.91,1.53-7.82-1.01-3.91-1.01-7.82-.66-3.91-.66-7.82,2.14-3.91,2.14-7.82-.51-3.91-.51-7.82-.44-3.91-.44-7.82,1.09-3.91,1.09-7.82.16-3.91.16-7.82.2-3.91.2-7.82-2.48-3.91-2.48-7.82-.1-3.91-.1-7.82,2.57-3.91,2.57-7.82-1.96-3.91-1.96-7.82-.26-3.91-.26-7.82,1.03-3.91,1.03-7.82.3-3.91.3-7.82-1.01-3.91-1.01-7.82-.55-3.91-.55-7.82.65-3.91.65-7.82,1.94-3.91,1.94-7.82-1.34-3.91-1.34-7.82.46-3.91.46-7.82-.38-3.91-.38-7.82-1.38-3.91-1.38-7.82,2.39-3.91,2.39-7.82.25-3.91.25-7.82-1.58-3.91-1.58-7.82-.69-3.91-.69-7.82-.26-3.91-.26-7.82.83-3.91.83-7.82.34-3.91.34-7.82.28-3.91.28-7.82-.76-3.91-.76-7.82-.29-3.91-.29-7.82-.43-3.91-.43-7.82,2.3-3.91,2.3-7.82-2.17-3.91-2.17-7.82.69-3.91.69-7.82,1.57-3.91,1.57-7.82-2.03-3.91-2.03-7.82-.51-3.91-.51-7.82,2.48-3.91,2.48-7.82-.1-3.91-.1-7.82-1.36-3.91-1.36-7.82,1.62-3.91,1.62-7.82-.96-3.91-.96-7.82.68-3.91.68-7.82.02-3.91.02-7.82-.96-3.91-.96-7.82-.36-3.91-.36-7.83,1.22-3.91,1.22-7.82-.27-3.91-.27-7.82.45-3.91.45-7.82-.26-3.91-.26-7.82-.43-3.91-.43-7.83-1.62-3.91-1.62-7.83,1.75-3.91,1.75-7.83-1.32-3.9-1.37-7.82.66-3.7-.48-7.45Z"/>
      <path class="cls-3" d="M-44.57,217.12c6.12-26.13,28.92-43.81,53.79-51.06,30.81-8.98,63.24-.71,91.94,11.56,30.94,13.23,59.4,31.57,90.49,44.49s62.85,17.82,96.02,12.45c67.15-10.86,122.05-54.43,182.4-82.38,28.35-13.13,59.59-23.69,91.19-23.1,25.1.47,50.41,7.85,71.27,21.94s36.12,35.69,38.55,61.08c2.89,30.11-9.55,58.98-18.64,87.02s-14.98,55.49-6.84,83.48c7.34,25.24,24.25,46.62,44.91,62.44,51.62,39.52,118.76,37.39,178.78,21.25,66.98-18.01,129.01-52.73,198.05-63.36,52.33-8.05,105.69,4.02,153.85,24.59s94,50.1,127.22,90.55c7.15,8.7,13.52,18.01,18.96,27.87,2.8,5.07,10.57.54,7.77-4.54-24.58-44.55-67.21-78.17-110.93-102.69-46.06-25.84-98.41-44.33-151.45-47.14-65.95-3.49-128.11,24.66-188.51,47.2s-135.23,45.15-198.97,16.52c-24.88-11.17-47.41-29.11-61.32-52.82-14.94-25.48-15.73-53.58-8.52-81.69s21.09-57.39,24.4-87.86c2.88-26.46-4.56-52.15-22.36-72.08-16.66-18.65-40.15-30.75-64.24-36.6-27.81-6.76-56.23-4.41-83.59,3.37-65.87,18.72-119.58,64.35-183.62,87.43-32.47,11.7-67.1,17.03-101.05,8.76s-63.34-26.3-93.8-41.86-62.23-29.1-96.39-28.72c-25.78.29-52.52,10.33-70.42,29.23-8.59,9.06-14.77,20.1-17.62,32.27-1.32,5.63,7.36,8.04,8.68,2.39h0Z"/>
    </g>
  </g>
</svg>