<?xml version="1.0" encoding="UTF-8"?>
<svg id="_レイヤー_2" data-name="レイヤー 2" xmlns="http://www.w3.org/2000/svg" viewBox="0 0 193.64 60.58">
  <defs>
    <style>
      .cls-1 {
        fill: #7b959e;
      }

      .cls-2 {
        stroke-miterlimit: 10;
        stroke-width: .58px;
      }

      .cls-2, .cls-3 {
        fill: none;
        stroke: #231815;
      }

      .cls-4 {
        fill: #f4f1ef;
      }

      .cls-3 {
        stroke-linecap: round;
        stroke-linejoin: round;
        stroke-width: .49px;
      }
    </style>
  </defs>
  <g id="_編集箇所" data-name="編集箇所">
    <g>
      <rect class="cls-4" x="4.83" y="3.29" width="188.81" height="46.9" rx="12.47" ry="12.47"/>
      <polyline class="cls-4" points="47.97 49.3 67.42 60.58 62.77 50.19"/>
      <g>
        <path class="cls-1" d="M24.77,23.85c-1.36,1.26-3.02,2.4-4.98,3.42h6.39c.16,0,.26-.03.32-.1.06-.06.11-.2.15-.41l.17-.78h.42v4.39h-11.9l-.19-.42c2.57-1.75,4.42-3.55,5.54-5.39,1.12-1.84,1.68-3.59,1.68-5.24,0-.95-.2-1.68-.6-2.21-.4-.52-1.01-.78-1.81-.78-.76,0-1.47.12-2.12.36-.65.24-1.34.6-2.08,1.08l-.25-.4c1.94-1.4,4.07-2.1,6.41-2.1,1.74,0,2.99.37,3.77,1.1.77.74,1.16,1.77,1.16,3.1,0,1.67-.68,3.13-2.05,4.39Z"/>
        <path class="cls-1" d="M40.39,16.13c1.08.58,1.93,1.45,2.56,2.6.62,1.15.93,2.56.93,4.21s-.31,3.06-.93,4.21c-.62,1.15-1.47,2.02-2.56,2.6-1.08.58-2.3.87-3.66.87s-2.58-.29-3.66-.87c-1.08-.58-1.93-1.45-2.56-2.6-.62-1.15-.93-2.56-.93-4.21s.31-3.06.93-4.21c.62-1.15,1.47-2.02,2.56-2.6,1.08-.58,2.3-.87,3.66-.87s2.58.29,3.66.87ZM38.66,28.25c.35-1.17.53-2.94.53-5.31s-.18-4.15-.53-5.31c-.35-1.17-1-1.75-1.93-1.75s-1.58.58-1.93,1.75c-.35,1.17-.53,2.94-.53,5.31s.18,4.15.53,5.31c.35,1.17,1,1.75,1.93,1.75s1.58-.58,1.93-1.75Z"/>
        <path class="cls-1" d="M55.28,23.85c-1.36,1.26-3.02,2.4-4.98,3.42h6.39c.16,0,.26-.03.32-.1.06-.06.11-.2.15-.41l.17-.78h.42v4.39h-11.9l-.19-.42c2.57-1.75,4.42-3.55,5.54-5.39,1.12-1.84,1.68-3.59,1.68-5.24,0-.95-.2-1.68-.6-2.21-.4-.52-1.01-.78-1.81-.78-.76,0-1.47.12-2.12.36-.65.24-1.34.6-2.08,1.08l-.25-.4c1.94-1.4,4.07-2.1,6.41-2.1,1.74,0,2.99.37,3.77,1.1.77.74,1.16,1.77,1.16,3.1,0,1.67-.68,3.13-2.05,4.39Z"/>
        <path class="cls-1" d="M61.73,30.34c-.87-.16-1.56-.37-2.07-.64l.3-3.52h.49c.24.81.49,1.47.75,1.99.26.52.63.95,1.09,1.29.47.34,1.07.51,1.8.51.98,0,1.7-.35,2.19-1.05.48-.7.72-1.67.72-2.9s-.25-2.29-.75-3c-.5-.71-1.4-1.07-2.68-1.07-.83,0-1.66.11-2.48.34h-.59l.51-6.79h9.19v3.1h-8.74l-.23,3.1c.59-.16,1.13-.26,1.61-.32.48-.06,1.05-.08,1.72-.08,2.5,0,4.27.4,5.31,1.2,1.04.8,1.56,1.91,1.56,3.34,0,1.67-.59,2.87-1.76,3.62-1.17.74-2.89,1.11-5.13,1.11-.99,0-1.92-.08-2.79-.23Z"/>
        <path class="cls-1" d="M81.88,22.97c.22-.26.44-.64.67-1.14l.36.19c-.16.72-.47,1.37-.94,1.93-.47.57-1.05.85-1.73.85-.25,0-.54-.07-.87-.2-.33-.13-.73-.33-1.21-.58-.57-.28-1.01-.49-1.35-.63-.33-.13-.64-.2-.92-.2-.33,0-.6.13-.82.39-.22.26-.44.64-.67,1.14l-.36-.19c.16-.72.47-1.36.94-1.93.47-.57,1.05-.85,1.73-.85.25,0,.54.07.87.2.33.13.73.33,1.21.58.57.28,1.01.49,1.35.63.33.13.64.2.92.2.33,0,.6-.13.82-.39Z"/>
        <path class="cls-1" d="M85.03,34.77l.74-.17c.21-.04.35-.09.41-.15.06-.06.1-.16.1-.32v-12.81c0-.16-.03-.26-.1-.32-.06-.06-.2-.11-.41-.15l-.74-.17v-.38l5.09-.64h.36v1.23c.95-.74,2.18-1.1,3.69-1.1s2.81.42,3.73,1.27,1.38,2.19,1.38,4.01-.46,3.27-1.38,4.16-2.16,1.34-3.73,1.34-2.79-.46-3.65-1.38v4.94c0,.16.03.26.1.32.06.06.2.11.41.15l.74.17v.38h-6.75v-.38ZM90.53,21.49v6.98c.33.35.69.64,1.1.86.41.22.84.33,1.29.33.51,0,.91-.16,1.2-.47.29-.31.49-.8.62-1.45.12-.66.18-1.55.18-2.66,0-1.57-.16-2.69-.47-3.37-.31-.68-.86-1.02-1.63-1.02-.88,0-1.64.27-2.29.81Z"/>
        <path class="cls-1" d="M110.07,19.86c.47,0,.83.06,1.1.17l-.32,3.31h-.15l-4.35-.95v6.96c0,.16.03.27.1.33.06.06.19.12.39.16l.72.15v.38h-6.7v-.38l.74-.17c.21-.04.35-.09.41-.15.06-.06.1-.16.1-.32v-8.02c0-.16-.03-.26-.1-.32-.06-.06-.2-.11-.41-.15l-.74-.17v-.38l5.09-.64h.36v2.08c1.23-1.26,2.48-1.89,3.76-1.89Z"/>
        <path class="cls-1" d="M117.99,28.52c.49.82,1.4,1.23,2.75,1.23.66,0,1.26-.1,1.77-.3.52-.2,1.05-.48,1.6-.85l.28.4c-1.32,1.08-3.06,1.61-5.22,1.61-1.95,0-3.49-.47-4.61-1.41-1.12-.94-1.69-2.32-1.69-4.13,0-1.71.57-3.02,1.72-3.93,1.15-.91,2.75-1.36,4.82-1.36,1.17,0,2.16.18,2.97.55.81.37,1.4.86,1.79,1.47.39.62.58,1.3.58,2.05,0,.38-.04.74-.11,1.06h-7.4c.01,1.57.27,2.77.75,3.59ZM117.68,21.28c-.28.65-.43,1.68-.45,3.1h3.56v-1.59c0-.86-.1-1.49-.31-1.89-.21-.4-.61-.59-1.22-.59-.78,0-1.31.33-1.59.98Z"/>
        <path class="cls-1" d="M132.93,29.81c.32-.2.48-.54.48-1.04,0-.34-.08-.62-.25-.83-.17-.21-.44-.4-.81-.57-.37-.17-.95-.4-1.76-.7-1.37-.49-2.35-1.01-2.93-1.54-.58-.53-.87-1.26-.87-2.2,0-1.06.4-1.85,1.19-2.37.79-.52,1.99-.77,3.61-.77.82,0,1.63.08,2.42.24.79.16,1.41.35,1.85.56l-.25,2.55h-.36c-.38-.95-.84-1.67-1.38-2.15-.54-.49-1.32-.73-2.33-.73-.65,0-1.15.09-1.51.27-.35.18-.53.5-.53.97,0,.33.08.59.24.78.16.2.42.38.76.55.35.17.92.42,1.73.74,1.16.47,2.04.87,2.63,1.21.59.34,1.03.73,1.32,1.17.28.44.42.99.42,1.65,0,1.06-.41,1.83-1.22,2.3-.81.47-2.03.71-3.66.71-.86,0-1.76-.08-2.71-.24-.94-.16-1.64-.35-2.11-.56l.3-2.89h.36c.25,1.12.71,1.93,1.36,2.43.65.5,1.5.75,2.55.75.66,0,1.16-.1,1.47-.3Z"/>
        <path class="cls-1" d="M143.75,28.52c.49.82,1.4,1.23,2.75,1.23.66,0,1.26-.1,1.77-.3.52-.2,1.05-.48,1.6-.85l.28.4c-1.32,1.08-3.06,1.61-5.22,1.61-1.95,0-3.49-.47-4.61-1.41-1.12-.94-1.69-2.32-1.69-4.13,0-1.71.57-3.02,1.72-3.93,1.15-.91,2.75-1.36,4.82-1.36,1.17,0,2.16.18,2.97.55.81.37,1.4.86,1.79,1.47.39.62.58,1.3.58,2.05,0,.38-.04.74-.11,1.06h-7.4c.01,1.57.27,2.77.75,3.59ZM143.44,21.28c-.28.65-.43,1.68-.45,3.1h3.56v-1.59c0-.86-.1-1.49-.31-1.89-.21-.4-.61-.59-1.22-.59-.78,0-1.31.33-1.59.98Z"/>
        <path class="cls-1" d="M165.81,29.66c.06.06.2.11.41.15l.74.17v.38h-4.41c-.38,0-.66-.1-.83-.3-.17-.2-.25-.49-.25-.89v-6.45c0-.64-.1-1.09-.31-1.36-.21-.27-.55-.4-1.03-.4-.85,0-1.72.35-2.61,1.06v7.32c0,.16.03.27.1.33.06.06.19.12.39.16l.72.15v.38h-6.7v-.38l.74-.17c.21-.04.35-.09.41-.15.06-.06.1-.16.1-.32v-8.02c0-.16-.03-.26-.1-.32-.06-.06-.2-.11-.41-.15l-.74-.17v-.38l5.09-.64h.36v1.72c.54-.44,1.2-.81,1.97-1.12.78-.31,1.64-.47,2.59-.47,1.32,0,2.26.28,2.82.83.57.55.85,1.38.85,2.48v6.24c0,.16.03.26.1.32Z"/>
        <path class="cls-1" d="M167.9,20.6v-.55c.44,0,.76-.04.98-.11.21-.07.42-.2.64-.38l3.78-3.39h.19v3.88h2.74v.55h-2.74v7.13c0,.68.08,1.16.24,1.43.16.28.44.41.84.41.31,0,.59-.06.83-.19.24-.13.5-.35.78-.66l.34.4c-.89.99-2.21,1.49-3.95,1.49-1.17,0-2.02-.25-2.52-.74-.51-.49-.76-1.27-.76-2.31v-6.96h-1.38Z"/>
      </g>
      <rect class="cls-2" x=".29" y=".29" width="188.81" height="46.9" rx="12.47" ry="12.47"/>
      <polyline class="cls-3" points="45.9 44.05 61.86 53.95 57.21 43.56"/>
    </g>
  </g>
</svg>