<?xml version="1.0" encoding="UTF-8"?>
<svg id="_レイヤー_2" data-name="レイヤー 2" xmlns="http://www.w3.org/2000/svg" viewBox="0 0 172.34 53.5">
  <defs>
    <style>
      .cls-1 {
        fill: #7b959e;
      }

      .cls-2 {
        stroke-miterlimit: 10;
        stroke-width: .52px;
      }

      .cls-2, .cls-3 {
        fill: none;
        stroke: #231815;
      }

      .cls-4 {
        fill: #f4f1ef;
      }

      .cls-3 {
        stroke-linecap: round;
        stroke-linejoin: round;
        stroke-width: .44px;
      }
    </style>
  </defs>
  <g id="_編集箇所" data-name="編集箇所">
    <g>
      <rect class="cls-4" x="4.3" y="2.93" width="168.04" height="41.74" rx="11.1" ry="11.1"/>
      <polyline class="cls-4" points="41.58 43.46 58.89 53.5 54.76 44.25"/>
      <g>
        <path class="cls-1" d="M22.1,21.19c-1.22,1.13-2.71,2.15-4.46,3.06h5.72c.14,0,.23-.03.28-.09.05-.06.09-.18.13-.37l.15-.7h.38v3.93h-10.66l-.17-.38c2.31-1.57,3.96-3.18,4.96-4.83,1-1.65,1.5-3.21,1.5-4.69,0-.85-.18-1.51-.54-1.98-.36-.47-.9-.7-1.62-.7-.68,0-1.32.11-1.9.32-.58.22-1.2.54-1.86.97l-.23-.36c1.74-1.25,3.65-1.88,5.74-1.88,1.56,0,2.68.33,3.37.99.69.66,1.04,1.58,1.04,2.77,0,1.49-.61,2.81-1.83,3.93Z"/>
        <path class="cls-1" d="M36.09,14.27c.97.52,1.73,1.3,2.29,2.33.56,1.03.84,2.29.84,3.77s-.28,2.74-.84,3.77c-.56,1.03-1.32,1.81-2.29,2.33-.97.52-2.06.78-3.28.78s-2.31-.26-3.28-.78c-.97-.52-1.73-1.29-2.29-2.33-.56-1.03-.84-2.29-.84-3.77s.28-2.74.84-3.77c.56-1.03,1.32-1.81,2.29-2.33.97-.52,2.06-.78,3.28-.78s2.31.26,3.28.78ZM34.54,25.13c.32-1.05.47-2.63.47-4.76s-.16-3.71-.47-4.76c-.32-1.05-.89-1.57-1.73-1.57s-1.41.52-1.73,1.57c-.32,1.04-.48,2.63-.48,4.76s.16,3.71.48,4.76c.32,1.04.89,1.57,1.73,1.57s1.41-.52,1.73-1.57Z"/>
        <path class="cls-1" d="M49.43,21.19c-1.22,1.13-2.71,2.15-4.46,3.06h5.72c.14,0,.23-.03.28-.09.05-.06.09-.18.13-.37l.15-.7h.38v3.93h-10.66l-.17-.38c2.31-1.57,3.96-3.18,4.96-4.83,1-1.65,1.5-3.21,1.5-4.69,0-.85-.18-1.51-.54-1.98-.36-.47-.9-.7-1.62-.7-.68,0-1.32.11-1.9.32-.58.22-1.2.54-1.86.97l-.23-.36c1.74-1.25,3.65-1.88,5.74-1.88,1.56,0,2.68.33,3.37.99.69.66,1.04,1.58,1.04,2.77,0,1.49-.61,2.81-1.83,3.93Z"/>
        <path class="cls-1" d="M53.23,24l-.11-.44,8.82-9.84h1.39v9.75h1.77v.53h-1.77v2.03c0,.14.03.24.09.29s.17.1.35.12l1.33.19v.38h-7.6v-.38l1.5-.19c.19-.04.31-.08.37-.13.06-.05.09-.15.09-.3v-2.01h-6.21ZM59.45,23.47v-6.12l-5.49,6.12h5.49Z"/>
        <path class="cls-1" d="M74.09,20.4c.2-.23.4-.57.6-1.02l.32.17c-.14.65-.42,1.22-.85,1.73-.42.51-.94.76-1.55.76-.23,0-.49-.06-.78-.18-.29-.12-.65-.29-1.08-.52-.51-.25-.91-.44-1.21-.56-.3-.12-.57-.18-.83-.18-.29,0-.54.12-.73.35-.2.23-.4.57-.6,1.02l-.32-.17c.14-.65.42-1.22.85-1.73.42-.51.94-.76,1.55-.76.23,0,.49.06.78.18.29.12.65.29,1.08.52.51.25.91.44,1.21.56.3.12.57.18.83.18.29,0,.54-.12.73-.35Z"/>
        <path class="cls-1" d="M76.91,30.97l.67-.15c.19-.04.31-.08.37-.13.06-.05.09-.15.09-.28v-11.48c0-.14-.03-.23-.09-.28-.06-.05-.18-.1-.37-.13l-.67-.15v-.34l4.56-.57h.32v1.1c.85-.66,1.95-.99,3.31-.99s2.52.38,3.34,1.14c.82.76,1.24,1.96,1.24,3.59s-.41,2.93-1.24,3.72c-.82.8-1.94,1.2-3.34,1.2s-2.5-.41-3.27-1.23v4.43c0,.14.03.23.09.28.06.05.18.09.37.13l.67.15v.34h-6.04v-.34ZM81.83,19.08v6.25c.29.32.62.57.99.77.37.2.75.29,1.16.29.46,0,.81-.14,1.07-.42.26-.28.44-.71.55-1.3.11-.59.16-1.38.16-2.38,0-1.41-.14-2.41-.42-3.02-.28-.61-.77-.91-1.46-.91-.79,0-1.47.24-2.05.72Z"/>
        <path class="cls-1" d="M99.33,17.62c.42,0,.75.05.99.15l-.28,2.96h-.13l-3.9-.85v6.23c0,.14.03.24.09.29.06.06.17.1.35.14l.65.13v.34h-6v-.34l.67-.15c.19-.04.31-.08.37-.13.06-.05.09-.15.09-.29v-7.18c0-.14-.03-.23-.09-.28-.06-.05-.18-.1-.37-.13l-.67-.15v-.34l4.56-.57h.32v1.86c1.1-1.13,2.22-1.69,3.36-1.69Z"/>
        <path class="cls-1" d="M106.42,25.37c.44.73,1.26,1.1,2.46,1.1.6,0,1.12-.09,1.59-.27.46-.18.94-.43,1.43-.76l.25.36c-1.18.96-2.74,1.44-4.67,1.44-1.75,0-3.13-.42-4.13-1.26-1.01-.84-1.51-2.07-1.51-3.7,0-1.53.51-2.7,1.54-3.52,1.03-.81,2.46-1.22,4.31-1.22,1.05,0,1.94.16,2.66.49.72.33,1.26.77,1.61,1.32s.52,1.16.52,1.83c0,.34-.03.66-.09.95h-6.63c.01,1.41.24,2.48.67,3.21ZM106.15,18.89c-.25.58-.39,1.51-.4,2.77h3.19v-1.43c0-.77-.09-1.34-.28-1.69-.18-.35-.55-.53-1.09-.53-.7,0-1.17.29-1.43.87Z"/>
        <path class="cls-1" d="M119.8,26.53c.28-.18.43-.49.43-.93,0-.3-.08-.55-.23-.74-.15-.19-.39-.36-.72-.51-.33-.15-.85-.36-1.58-.63-1.23-.44-2.1-.9-2.62-1.38-.52-.47-.78-1.13-.78-1.97,0-.95.35-1.66,1.06-2.12.71-.46,1.79-.69,3.23-.69.73,0,1.46.07,2.17.22.71.15,1.26.31,1.65.5l-.23,2.28h-.32c-.34-.85-.75-1.49-1.24-1.93-.48-.44-1.18-.66-2.09-.66-.58,0-1.03.08-1.35.24-.32.16-.48.45-.48.86,0,.29.07.53.22.7.15.18.37.34.68.49.31.15.83.37,1.55.67,1.04.42,1.82.78,2.36,1.08s.92.65,1.18,1.05c.25.39.38.89.38,1.48,0,.95-.36,1.64-1.09,2.06-.73.42-1.82.64-3.28.64-.77,0-1.58-.07-2.42-.22-.84-.15-1.47-.31-1.89-.5l.27-2.58h.32c.23,1,.63,1.73,1.22,2.18.58.45,1.34.67,2.28.67.6,0,1.04-.09,1.32-.27Z"/>
        <path class="cls-1" d="M129.49,25.37c.44.73,1.26,1.1,2.46,1.1.6,0,1.12-.09,1.59-.27.46-.18.94-.43,1.43-.76l.25.36c-1.18.96-2.74,1.44-4.67,1.44-1.75,0-3.13-.42-4.13-1.26-1.01-.84-1.51-2.07-1.51-3.7,0-1.53.51-2.7,1.54-3.52,1.03-.81,2.46-1.22,4.31-1.22,1.05,0,1.94.16,2.66.49.72.33,1.26.77,1.61,1.32s.52,1.16.52,1.83c0,.34-.03.66-.09.95h-6.63c.01,1.41.24,2.48.67,3.21ZM129.21,18.89c-.25.58-.39,1.51-.4,2.77h3.19v-1.43c0-.77-.09-1.34-.28-1.69-.18-.35-.55-.53-1.09-.53-.7,0-1.17.29-1.43.87Z"/>
        <path class="cls-1" d="M149.25,26.4c.06.05.18.09.37.13l.67.15v.34h-3.95c-.34,0-.59-.09-.74-.27-.15-.18-.23-.44-.23-.8v-5.78c0-.57-.09-.98-.28-1.22-.18-.24-.49-.36-.92-.36-.76,0-1.54.32-2.34.95v6.55c0,.14.03.24.09.29.06.06.17.1.35.14l.65.13v.34h-6v-.34l.67-.15c.19-.04.31-.08.37-.13.06-.05.09-.15.09-.29v-7.18c0-.14-.03-.23-.09-.28-.06-.05-.18-.1-.37-.13l-.67-.15v-.34l4.56-.57h.32v1.54c.48-.39,1.07-.73,1.77-1.01.7-.28,1.47-.42,2.32-.42,1.18,0,2.02.25,2.53.74.51.49.76,1.23.76,2.22v5.59c0,.14.03.23.09.29Z"/>
        <path class="cls-1" d="M151.12,18.28v-.49c.39,0,.68-.03.87-.1.19-.06.38-.18.57-.34l3.38-3.04h.17v3.48h2.45v.49h-2.45v6.38c0,.61.07,1.04.22,1.28.15.25.4.37.75.37.28,0,.53-.06.74-.17.22-.11.45-.31.7-.59l.3.36c-.8.89-1.98,1.33-3.53,1.33-1.05,0-1.8-.22-2.26-.67-.46-.44-.68-1.13-.68-2.07v-6.23h-1.24Z"/>
      </g>
      <rect class="cls-2" x=".26" y=".26" width="168.04" height="41.74" rx="11.1" ry="11.1"/>
      <polyline class="cls-3" points="40.05 39.67 54.26 48.48 50.12 39.23"/>
    </g>
  </g>
</svg>