<?xml version="1.0" encoding="UTF-8"?>
<svg id="_レイヤー_2" data-name="レイヤー 2" xmlns="http://www.w3.org/2000/svg" viewBox="0 0 148.86 58.59">
  <defs>
    <style>
      .cls-1 {
        fill: #7b959e;
      }

      .cls-2 {
        stroke-miterlimit: 10;
        stroke-width: .5px;
      }

      .cls-2, .cls-3 {
        fill: none;
        stroke: #231815;
      }

      .cls-4 {
        fill: #f4f1ef;
      }

      .cls-3 {
        stroke-linecap: round;
        stroke-linejoin: round;
        stroke-width: .48px;
      }
    </style>
  </defs>
  <g id="_編集箇所" data-name="編集箇所">
    <g>
      <g>
        <rect class="cls-4" x="3.74" y="3.16" width="145.12" height="45.38" rx="10.75" ry="10.75"/>
        <polyline class="cls-4" points="46.45 47.67 65.27 58.59 60.78 48.54"/>
        <g>
          <path class="cls-1" d="M24,23.05c-1.32,1.22-2.93,2.32-4.81,3.31h6.18c.15,0,.25-.03.31-.09.05-.06.1-.2.14-.4l.16-.76h.41v4.25h-11.52l-.18-.41c2.49-1.7,4.28-3.44,5.36-5.21,1.08-1.78,1.62-3.47,1.62-5.07,0-.92-.2-1.63-.59-2.14-.39-.51-.98-.76-1.76-.76-.74,0-1.42.12-2.05.35-.63.23-1.3.58-2.01,1.05l-.25-.39c1.88-1.35,3.94-2.03,6.2-2.03,1.68,0,2.9.36,3.64,1.07.75.71,1.12,1.71,1.12,3,0,1.61-.66,3.03-1.98,4.25Z"/>
          <path class="cls-1" d="M39.11,15.57c1.05.56,1.87,1.4,2.47,2.51.6,1.12.9,2.47.9,4.07s-.3,2.96-.9,4.08c-.6,1.12-1.43,1.95-2.47,2.51-1.05.56-2.23.84-3.54.84s-2.49-.28-3.54-.84c-1.05-.56-1.87-1.4-2.47-2.51s-.9-2.47-.9-4.08.3-2.96.9-4.07,1.43-1.95,2.47-2.51c1.05-.56,2.23-.84,3.54-.84s2.49.28,3.54.84ZM37.44,27.31c.34-1.13.51-2.84.51-5.14s-.17-4.01-.51-5.14c-.34-1.13-.96-1.69-1.87-1.69s-1.53.56-1.87,1.69c-.34,1.13-.51,2.84-.51,5.14s.17,4.01.51,5.14c.34,1.13.96,1.69,1.87,1.69s1.53-.56,1.87-1.69Z"/>
          <path class="cls-1" d="M44.85,16.68v-.45c2.08-.25,4.02-.75,5.83-1.5l.41.21v13.34c0,.15.03.26.09.32s.19.11.38.13l1.44.21v.41h-8.21v-.41l1.62-.21c.21-.04.34-.09.4-.14s.09-.16.09-.33v-11.58h-2.05Z"/>
          <path class="cls-1" d="M61.6,17.05c-.79.89-1.32,2.12-1.58,3.7.79-.33,1.66-.49,2.59-.49,1.08,0,2.01.18,2.78.55.77.37,1.36.89,1.76,1.55.4.66.6,1.42.6,2.27,0,1.03-.25,1.91-.74,2.66-.49.75-1.19,1.32-2.09,1.71-.9.4-1.96.6-3.18.6-1.33,0-2.48-.26-3.45-.77-.97-.51-1.72-1.22-2.24-2.14-.52-.91-.78-1.95-.78-3.13,0-1.49.34-2.86,1.03-4.11.68-1.25,1.76-2.29,3.21-3.13s3.29-1.38,5.51-1.61l.16.47c-1.59.36-2.78.98-3.57,1.87ZM59.92,21.42c-.1.82-.14,1.81-.14,2.98,0,1.42.13,2.56.4,3.4.27.84.8,1.26,1.61,1.26.73,0,1.27-.35,1.62-1.04.36-.69.53-1.68.53-2.97s-.17-2.28-.51-2.97c-.34-.69-.96-1.04-1.87-1.04-.57,0-1.12.12-1.64.37Z"/>
          <path class="cls-1" d="M77.67,22.19c.21-.25.43-.62.65-1.1l.35.18c-.15.7-.46,1.32-.91,1.87-.46.55-1.02.82-1.67.82-.25,0-.53-.06-.84-.2-.31-.13-.71-.32-1.17-.56-.55-.27-.98-.48-1.3-.61-.32-.13-.62-.2-.89-.2-.31,0-.58.13-.79.38-.21.25-.43.62-.65,1.1l-.35-.18c.15-.7.45-1.32.91-1.87.46-.55,1.02-.82,1.67-.82.25,0,.53.07.84.2.31.13.7.32,1.17.56.55.27.98.48,1.3.61.32.13.62.2.89.2.31,0,.58-.13.79-.38Z"/>
          <path class="cls-1" d="M90.19,23.05c-1.32,1.22-2.93,2.32-4.81,3.31h6.18c.15,0,.25-.03.31-.09.05-.06.1-.2.14-.4l.16-.76h.41v4.25h-11.52l-.18-.41c2.49-1.7,4.28-3.44,5.36-5.21,1.08-1.78,1.62-3.47,1.62-5.07,0-.92-.2-1.63-.59-2.14-.39-.51-.98-.76-1.76-.76-.74,0-1.42.12-2.05.35-.63.23-1.3.58-2.01,1.05l-.25-.39c1.88-1.35,3.94-2.03,6.2-2.03,1.68,0,2.9.36,3.64,1.07.75.71,1.12,1.71,1.12,3,0,1.61-.66,3.03-1.98,4.25Z"/>
          <path class="cls-1" d="M105.3,15.57c1.05.56,1.87,1.4,2.47,2.51.6,1.12.9,2.47.9,4.07s-.3,2.96-.9,4.08c-.6,1.12-1.43,1.95-2.47,2.51-1.05.56-2.23.84-3.54.84s-2.49-.28-3.54-.84c-1.05-.56-1.87-1.4-2.47-2.51s-.9-2.47-.9-4.08.3-2.96.9-4.07,1.43-1.95,2.47-2.51c1.05-.56,2.23-.84,3.54-.84s2.49.28,3.54.84ZM103.63,27.31c.34-1.13.51-2.84.51-5.14s-.17-4.01-.51-5.14c-.34-1.13-.96-1.69-1.87-1.69s-1.53.56-1.87,1.69c-.34,1.13-.51,2.84-.51,5.14s.17,4.01.51,5.14c.34,1.13.96,1.69,1.87,1.69s1.53-.56,1.87-1.69Z"/>
          <path class="cls-1" d="M119.71,23.05c-1.32,1.22-2.93,2.32-4.81,3.31h6.18c.15,0,.25-.03.31-.09.05-.06.1-.2.14-.4l.16-.76h.41v4.25h-11.52l-.18-.41c2.49-1.7,4.28-3.44,5.36-5.21,1.08-1.78,1.62-3.47,1.62-5.07,0-.92-.2-1.63-.59-2.14-.39-.51-.98-.76-1.76-.76-.74,0-1.42.12-2.05.35-.63.23-1.3.58-2.01,1.05l-.25-.39c1.88-1.35,3.94-2.03,6.2-2.03,1.68,0,2.9.36,3.64,1.07.75.71,1.12,1.71,1.12,3,0,1.61-.66,3.03-1.98,4.25Z"/>
          <path class="cls-1" d="M133.26,23.05c-1.32,1.22-2.93,2.32-4.81,3.31h6.18c.15,0,.25-.03.31-.09.05-.06.1-.2.14-.4l.16-.76h.41v4.25h-11.52l-.18-.41c2.49-1.7,4.28-3.44,5.36-5.21,1.08-1.78,1.62-3.47,1.62-5.07,0-.92-.2-1.63-.59-2.14-.39-.51-.98-.76-1.76-.76-.74,0-1.42.12-2.05.35-.63.23-1.3.58-2.01,1.05l-.25-.39c1.88-1.35,3.94-2.03,6.2-2.03,1.68,0,2.9.36,3.64,1.07.75.71,1.12,1.71,1.12,3,0,1.61-.66,3.03-1.98,4.25Z"/>
        </g>
        <rect class="cls-2" x=".25" y=".25" width="145.12" height="45.38" rx="10.75" ry="10.75"/>
      </g>
      <polyline class="cls-3" points="44.44 42.59 59.89 52.17 55.4 42.12"/>
    </g>
  </g>
</svg>