<?xml version="1.0" encoding="UTF-8"?>
<svg id="_レイヤー_2" data-name="レイヤー 2" xmlns="http://www.w3.org/2000/svg" viewBox="0 0 115.13 45.32">
  <defs>
    <style>
      .cls-1 {
        fill: #7b959e;
      }

      .cls-2 {
        stroke-miterlimit: 10;
        stroke-width: .39px;
      }

      .cls-2, .cls-3 {
        fill: none;
        stroke: #231815;
      }

      .cls-4 {
        fill: #f4f1ef;
      }

      .cls-3 {
        stroke-linecap: round;
        stroke-linejoin: round;
        stroke-width: .37px;
      }
    </style>
  </defs>
  <g id="_編集箇所" data-name="編集箇所">
    <g>
      <rect class="cls-4" x="2.89" y="2.44" width="112.24" height="35.1" rx="8.32" ry="8.32"/>
      <g>
        <polyline class="cls-4" points="35.93 36.87 50.49 45.32 47.01 37.54"/>
        <g>
          <path class="cls-1" d="M16.62,17.79c-1.03.95-2.28,1.81-3.75,2.58h4.82c.12,0,.2-.02.24-.07.04-.05.08-.15.11-.31l.13-.59h.32v3.31h-8.98l-.14-.32c1.94-1.32,3.33-2.68,4.18-4.06.84-1.39,1.26-2.7,1.26-3.95,0-.71-.15-1.27-.46-1.66-.3-.39-.76-.59-1.37-.59-.58,0-1.11.09-1.6.27-.49.18-1.01.45-1.57.82l-.19-.3c1.46-1.06,3.07-1.58,4.83-1.58,1.31,0,2.26.28,2.84.83.58.55.87,1.33.87,2.34,0,1.26-.51,2.36-1.54,3.31Z"/>
          <path class="cls-1" d="M28.4,11.96c.82.44,1.46,1.09,1.93,1.96.47.87.7,1.93.7,3.18s-.23,2.31-.7,3.18c-.47.87-1.11,1.52-1.93,1.96-.82.44-1.74.66-2.76.66s-1.94-.22-2.76-.66c-.82-.44-1.46-1.09-1.93-1.96-.47-.87-.7-1.93-.7-3.18s.23-2.31.7-3.18,1.11-1.52,1.93-1.96c.82-.44,1.74-.66,2.76-.66s1.94.22,2.76.66ZM27.1,21.11c.27-.88.4-2.22.4-4.01s-.13-3.13-.4-4.01c-.27-.88-.75-1.32-1.46-1.32s-1.19.44-1.46,1.32c-.27.88-.4,2.22-.4,4.01s.13,3.13.4,4.01c.27.88.75,1.32,1.46,1.32s1.19-.44,1.46-1.32Z"/>
          <path class="cls-1" d="M39.63,17.79c-1.03.95-2.28,1.81-3.75,2.58h4.82c.12,0,.2-.02.24-.07.04-.05.08-.15.11-.31l.13-.59h.32v3.31h-8.98l-.14-.32c1.94-1.32,3.33-2.68,4.18-4.06.84-1.39,1.26-2.7,1.26-3.95,0-.71-.15-1.27-.46-1.66-.3-.39-.76-.59-1.37-.59-.58,0-1.11.09-1.6.27-.49.18-1.01.45-1.57.82l-.19-.3c1.46-1.06,3.07-1.58,4.83-1.58,1.31,0,2.26.28,2.84.83.58.55.87,1.33.87,2.34,0,1.26-.51,2.36-1.54,3.31Z"/>
          <path class="cls-1" d="M47.93,21.77c.34-.43.51-1.11.51-2.06,0-.83-.19-1.49-.58-1.98-.38-.49-.96-.73-1.73-.73h-.66v-.48h.67c.67,0,1.16-.19,1.47-.56.31-.37.46-.94.46-1.71s-.18-1.3-.53-1.65-.89-.53-1.6-.53c-.94,0-1.88.28-2.82.83l-.19-.3c.63-.42,1.31-.74,2.03-.96.73-.22,1.56-.34,2.51-.34,1.16,0,2.1.24,2.8.71.7.47,1.06,1.15,1.06,2.02,0,.63-.24,1.18-.71,1.66-.47.48-1.13.83-1.96,1.04.97.14,1.73.46,2.27.96.54.5.82,1.15.82,1.94,0,1.17-.43,2-1.28,2.49-.85.49-2.14.73-3.86.73-.75,0-1.45-.06-2.12-.18-.67-.12-1.19-.28-1.58-.48l.22-2.66h.37c.18.61.37,1.11.58,1.5.2.39.48.72.84.98.36.26.82.38,1.4.38.71,0,1.24-.21,1.58-.64Z"/>
          <path class="cls-1" d="M59.63,17.12c.17-.2.33-.48.5-.86l.27.14c-.12.54-.35,1.03-.71,1.46-.36.43-.79.64-1.3.64-.19,0-.41-.05-.66-.15-.25-.1-.55-.25-.91-.44-.43-.21-.77-.37-1.02-.47-.25-.1-.48-.15-.7-.15-.25,0-.45.1-.62.3-.17.2-.33.48-.5.86l-.27-.14c.12-.54.35-1.03.71-1.46.36-.43.79-.64,1.3-.64.19,0,.41.05.66.15.25.1.55.25.91.44.43.21.77.37,1.02.47.25.1.48.15.7.15.25,0,.45-.1.62-.3Z"/>
          <path class="cls-1" d="M69.39,17.79c-1.03.95-2.28,1.81-3.75,2.58h4.82c.12,0,.2-.02.24-.07.04-.05.08-.15.11-.31l.13-.59h.32v3.31h-8.98l-.14-.32c1.94-1.32,3.33-2.68,4.18-4.06.84-1.39,1.26-2.7,1.26-3.95,0-.71-.15-1.27-.46-1.66-.3-.39-.76-.59-1.37-.59-.58,0-1.11.09-1.6.27-.49.18-1.01.45-1.57.82l-.19-.3c1.46-1.06,3.07-1.58,4.83-1.58,1.31,0,2.26.28,2.84.83.58.55.87,1.33.87,2.34,0,1.26-.51,2.36-1.54,3.31Z"/>
          <path class="cls-1" d="M81.17,11.96c.82.44,1.46,1.09,1.93,1.96.47.87.7,1.93.7,3.18s-.23,2.31-.7,3.18c-.47.87-1.11,1.52-1.93,1.96-.82.44-1.74.66-2.76.66s-1.94-.22-2.76-.66c-.82-.44-1.46-1.09-1.93-1.96-.47-.87-.7-1.93-.7-3.18s.23-2.31.7-3.18,1.11-1.52,1.93-1.96c.82-.44,1.74-.66,2.76-.66s1.94.22,2.76.66ZM79.86,21.11c.27-.88.4-2.22.4-4.01s-.13-3.13-.4-4.01c-.27-.88-.75-1.32-1.46-1.32s-1.19.44-1.46,1.32c-.27.88-.4,2.22-.4,4.01s.13,3.13.4,4.01c.27.88.75,1.32,1.46,1.32s1.19-.44,1.46-1.32Z"/>
          <path class="cls-1" d="M92.4,17.79c-1.03.95-2.28,1.81-3.75,2.58h4.82c.12,0,.2-.02.24-.07.04-.05.08-.15.11-.31l.13-.59h.32v3.31h-8.98l-.14-.32c1.94-1.32,3.33-2.68,4.18-4.06.84-1.39,1.26-2.7,1.26-3.95,0-.71-.15-1.27-.46-1.66-.3-.39-.76-.59-1.37-.59-.58,0-1.11.09-1.6.27-.49.18-1.01.45-1.57.82l-.19-.3c1.46-1.06,3.07-1.58,4.83-1.58,1.31,0,2.26.28,2.84.83.58.55.87,1.33.87,2.34,0,1.26-.51,2.36-1.54,3.31Z"/>
          <path class="cls-1" d="M95.61,20.16l-.1-.37,7.42-8.29h1.17v8.21h1.49v.45h-1.49v1.71c0,.12.02.2.07.25.05.05.15.08.3.1l1.12.16v.32h-6.4v-.32l1.26-.16c.16-.03.26-.07.31-.11.05-.04.07-.13.07-.26v-1.7h-5.23ZM100.84,19.71v-5.15l-4.62,5.15h4.62Z"/>
        </g>
        <rect class="cls-2" x=".19" y=".19" width="112.24" height="35.1" rx="8.32" ry="8.32"/>
        <polyline class="cls-3" points="34.38 32.94 46.32 40.35 42.85 32.57"/>
      </g>
    </g>
  </g>
</svg>