<?xml version="1.0" encoding="UTF-8"?>
<svg id="_レイヤー_2" data-name="レイヤー 2" xmlns="http://www.w3.org/2000/svg" viewBox="0 0 189.15 189.05">
  <defs>
    <style>
      .cls-1 {
        fill: #fadf00;
      }

      .cls-2 {
        fill: #ec7a96;
      }
    </style>
  </defs>
  <g id="_編集箇所" data-name="編集箇所">
    <g>
      <path class="cls-1" d="M189.15,94.51c0,2.53-7.81,4.72-8.01,7.19s7.15,5.94,6.74,8.4c-.41,2.49-8.47,3.37-9.08,5.78-.61,2.44,6.07,7.03,5.27,9.39-.81,2.38-8.91,1.92-9.91,4.2s4.83,7.93,3.65,10.13-9.11.42-10.47,2.51c-1.37,2.1,3.46,8.62,1.93,10.59-1.54,1.98-9.05-1.08-10.74.76s2.01,9.07.17,10.77c-1.84,1.7-8.75-2.55-10.72-1.01-1.97,1.54.5,9.27-1.6,10.65-2.09,1.37-8.21-3.95-10.41-2.75s-1.03,9.22-3.33,10.24-7.43-5.26-9.81-4.44-2.55,8.92-4.99,9.54-6.45-6.42-8.93-6.01-3.99,8.38-6.5,8.58-5.29-7.4-7.82-7.4-5.34,7.61-7.82,7.4-4.05-8.17-6.51-8.58-6.52,6.62-8.93,6.01-2.63-8.73-4.99-9.54-7.52,5.45-9.81,4.44-1.14-9.04-3.33-10.24-8.32,4.13-10.41,2.76c-2.1-1.38.37-9.11-1.6-10.65s-8.88,2.71-10.72,1.01,1.86-8.92.17-10.77-9.2,1.22-10.74-.76c-1.53-1.98,3.3-8.49,1.93-10.59-1.36-2.09-9.28-.3-10.47-2.51-1.19-2.2,4.65-7.83,3.64-10.13-1-2.29-9.1-1.82-9.91-4.2s5.88-6.95,5.27-9.39c-.61-2.41-8.67-3.3-9.08-5.78s6.95-5.88,6.74-8.4C7.81,99.26,0,97.07,0,94.54c0-2.53,7.81-4.72,8.01-7.19s-7.15-5.94-6.74-8.4,8.47-3.37,9.08-5.78c.61-2.44-6.07-7.03-5.27-9.39.81-2.38,8.91-1.92,9.91-4.2,1.01-2.3-4.83-7.93-3.65-10.13s9.11-.42,10.47-2.51c1.37-2.1-3.46-8.62-1.93-10.59,1.54-1.98,9.05,1.08,10.74-.76s-2.01-9.07-.17-10.77,8.75,2.55,10.72,1.01c1.97-1.54-.5-9.27,1.6-10.65,2.09-1.37,8.21,3.95,10.41,2.75s1.03-9.22,3.33-10.24,7.43,5.26,9.81,4.44,2.55-8.92,4.99-9.54,6.45,6.42,8.93,6.01S84.23.21,86.74,0s5.29,7.4,7.82,7.4S99.91-.2,102.38,0s4.05,8.17,6.51,8.58,6.52-6.62,8.93-6.01,2.63,8.73,4.99,9.54,7.52-5.45,9.81-4.44,1.14,9.04,3.33,10.24,8.32-4.13,10.41-2.76-.37,9.11,1.6,10.65,8.88-2.71,10.72-1.01-1.86,8.92-.17,10.77c1.69,1.84,9.2-1.22,10.74.76,1.53,1.98-3.3,8.49-1.93,10.59,1.36,2.09,9.28.3,10.47,2.51,1.19,2.2-4.65,7.83-3.64,10.13,1,2.29,9.1,1.82,9.91,4.2.81,2.36-5.88,6.95-5.27,9.39s8.67,3.3,9.08,5.78-6.95,5.88-6.74,8.4c.2,2.47,8.01,4.66,8.01,7.19Z"/>
      <g>
        <path class="cls-2" d="M79.6,55.84s-.02.03-.02.06c0,.03,0,.05-.02.06-.06.09-.11.18-.16.27-.05.09-.1.17-.16.27-.1.19-.23.34-.37.46-.12.13-.24.25-.35.37-.11.12-.22.24-.32.35-.16.09-.32.17-.48.24-.16.07-.33.12-.51.17-.09.02-.16.04-.21.08-.08.07-.18.12-.28.13-.07.02-.15.04-.23.06-.08.02-.15.07-.24.13-.15.03-.3.08-.44.13-.14.05-.3.07-.45.06-.04,0-.08,0-.12,0-.04,0-.08,0-.14.01-.05-.04-.11-.07-.18-.1-.07-.03-.13-.07-.2-.13-.13,0-.26,0-.39,0-.13,0-.27,0-.41.01-.05-.04-.1-.07-.14-.11-.05-.04-.09-.06-.15-.09-.05-.04-.1-.07-.14-.1-.04-.03-.1-.03-.17-.02-.06.05-.12.1-.18.17-.05.06-.11.13-.16.21-.02.05-.04.11-.05.17,0,.06-.02.11-.02.15l.03.37c-.02.1-.04.17-.08.23-.08.15-.11.31-.1.48.03.19.02.38-.02.58-.04.2-.07.39-.1.59-.08.13-.13.27-.15.43-.02.15-.06.31-.11.46,0,.04-.02.08-.04.1-.14.14-.29.19-.46.17-.15-.02-.31-.05-.47-.07-.16-.03-.31-.09-.46-.18-.04-.02-.09-.04-.14-.04-.06,0-.11-.02-.17-.03-.13,0-.26-.02-.38-.05-.12-.03-.25-.08-.36-.15-.05-.04-.12-.06-.19-.07-.08-.01-.15-.02-.22-.03,0-.03-.02-.05-.03-.06-.01,0-.02-.02-.02-.03-.02-.12-.04-.24-.05-.35-.01-.12-.02-.23-.01-.33.01-.07,0-.14,0-.22-.02-.07-.03-.15-.03-.22.02-.11.06-.22.11-.32.06-.1.1-.2.13-.29,0-.1,0-.2.01-.29,0-.09.02-.18.05-.26.01-.08.02-.17,0-.26,0-.09-.02-.18-.03-.29.03-.04.07-.09.12-.15.05-.06.08-.12.1-.18.04-.09.05-.19.02-.28-.03-.09-.03-.21.01-.34.04-.05.07-.11.1-.17.03-.06.07-.12.1-.19,0-.17.02-.45.06-.82.04-.37.09-.74.14-1.09.05-.35.09-.58.12-.69,0-.2.03-.39.09-.56.06-.17.13-.34.21-.52.03-.07.05-.12.08-.17.03-.05.06-.09.1-.15.04-.09.1-.23.16-.4.06-.17.1-.26.12-.27.09-.22.15-.37.18-.46.03-.09.07-.17.13-.24.06-.07.18-.18.35-.35.17-.16.33-.37.48-.62.06-.08.09-.15.12-.22.03-.02.06-.04.07-.05.02-.01.03-.02.05-.04l.19-.27c.17-.25.4-.4.7-.47.09-.01.18-.05.28-.1.1-.05.22-.1.36-.15.19-.01.39-.04.6-.08.21-.04.43-.07.66-.09.09-.01.18-.01.28,0,.1.02.2.02.3.03.07.03.14.05.21.06.07.02.15.03.23.05.12.03.25.07.36.1.12.03.23.09.33.18.05.02.11.04.17.06.06.02.12.04.17.06.1.02.2.03.32.05.11.02.21.05.31.09.04.03.12.1.26.19.14.09.21.14.23.14.05.04.08.07.09.1.02.03.05.07.07.12.02.05.05.09.09.12.18.17.32.36.44.55.12.2.23.41.34.63.05.14.11.24.19.31.04.05.07.1.09.16.03.05.06.11.09.18-.01.08-.03.17-.04.26-.01.09-.02.18-.02.27,0,.06,0,.12,0,.19.01.07.02.15.02.22-.02.04-.05.15-.08.34-.03.19-.04.32-.04.39.04.21.01.38-.08.53-.04.08-.04.17,0,.26,0,.06,0,.16-.04.32-.03.15-.04.26-.04.32ZM76.99,54.61c.02-.24.01-.46-.04-.66-.05-.2-.14-.4-.26-.59-.1-.16-.21-.3-.31-.41-.1-.11-.23-.22-.37-.33-.25-.08-.47-.11-.68-.08-.06.05-.17.07-.32.06-.15,0-.25.01-.3.06-.07.1-.17.21-.3.33-.13.12-.2.18-.23.19-.11.17-.2.37-.25.59-.06.22-.08.42-.06.6,0,.14.01.28.02.41,0,.13.02.25.03.37,0,.04,0,.08.03.11.03.02.04.08.04.18,0,.1.02.17.05.2.02.09.06.15.12.18.07.03.14.09.23.18.04,0,.08.02.12.03.04.01.09.02.15.03.11.02.22.04.31.06.1.02.19.06.29.1.13.09.3.11.51.06.03-.02.08-.04.15-.05.07-.01.12-.04.15-.07.09,0,.14-.04.16-.12.02-.08.04-.13.08-.15.22-.2.38-.41.48-.63.1-.22.17-.44.22-.65Z"/>
        <path class="cls-2" d="M84.68,54.88c-.04.08-.07.17-.09.28-.02.11-.03.21-.05.33,0,.1-.02.2-.05.31-.03.1-.05.2-.07.3l-.18.19c.06.08.09.16.09.25,0,.09,0,.18-.02.28-.02.1-.03.2-.05.31s-.04.21-.07.32c-.03.1-.07.2-.13.3-.06.11-.11.22-.16.34-.02.14-.05.31-.09.49-.04.19-.06.38-.08.56-.03.27-.08.54-.17.8-.09.27-.21.51-.37.73-.02.11-.02.22,0,.33.01.11.02.22.03.34,0,.01-.01.03-.03.05-.02.02-.03.04-.03.07-.09.09-.18.16-.29.21-.01,0-.03,0-.05.01h-.08c-.16-.04-.31-.05-.48-.06-.17,0-.34-.04-.53-.12-.05-.04-.11-.08-.16-.13-.06-.05-.12-.1-.18-.14-.06,0-.12-.02-.2-.04-.08-.02-.15-.04-.22-.07-.09-.14-.18-.3-.27-.45-.04-.03-.08-.06-.14-.09-.05-.02-.11-.05-.16-.09-.09-.09-.11-.2-.05-.35.05-.15.11-.28.17-.38.07-.18.09-.35.06-.53l-.04-.31c.02-.11.03-.22.03-.32,0-.1.02-.2.05-.3.04-.14.06-.27.07-.4.01-.13.03-.26.05-.4.04-.19.08-.39.11-.58.03-.19.06-.38.09-.56.01-.07.02-.11.04-.12.09-.1.14-.2.16-.31.02-.11.03-.21.05-.33,0-.11.02-.23.06-.35.04-.12.05-.23.04-.33.02-.13.04-.25.06-.37.02-.12.04-.24.08-.37.02-.07.05-.14.07-.22.02-.08.02-.17,0-.27.13-.04.25-.06.35-.08.1-.01.19-.01.27,0,.06,0,.12.02.18.03.06,0,.12.01.18,0,.15,0,.27-.02.37-.03.07.03.12.06.17.1.04.04.09.08.14.12.1.02.2,0,.31-.02.1,0,.19.02.26.06.07.04.12.12.15.24.01.02.02.03.03.05,0,.02.01.03.02.05l.13.11c.1.03.18.03.26-.01.08-.04.15-.06.23-.06.08.01.13.06.13.13.03.11.03.26.02.46ZM85.56,50.05c.03.11.02.21,0,.31-.03.1-.07.2-.11.3-.03.08-.07.16-.12.23-.05.07-.1.14-.14.2-.07.08-.14.14-.21.2-.07.06-.15.12-.21.18-.04,0-.08.03-.12.06-.03.03-.07.06-.12.08-.11.06-.27.1-.49.13-.22.03-.4.04-.52.02-.07-.01-.12-.03-.16-.07-.08-.01-.17-.03-.25-.05-.08-.02-.16-.04-.23-.05-.04-.03-.08-.07-.12-.11-.04-.04-.08-.07-.1-.1-.07-.04-.14-.06-.22-.08s-.15-.02-.22-.03c-.05-.05-.11-.1-.18-.15-.07-.05-.14-.09-.21-.13l-.07-.4c.03-.11.06-.23.1-.36.03-.13.04-.27.02-.42-.04-.03-.03-.07.02-.11.06-.09.07-.19.05-.3-.03-.1-.01-.2.05-.3.02-.03.03-.07.04-.12-.03-.09-.02-.17.04-.24.05-.07.1-.13.14-.18,0-.04,0-.09,0-.14,0-.05.01-.09.02-.12.02-.01.03-.03.04-.05.01-.02.03-.03.06-.04.12-.01.22-.05.31-.11.09-.07.19-.11.29-.14.11-.07.23-.12.36-.16.13-.04.25-.08.37-.11.11.02.21.03.3.05s.17.04.25.08c.04.02.09.04.14.04.06,0,.11.02.17.03.2,0,.34.1.43.3.02.07.06.12.13.15.07.03.13.06.18.09.12.15.19.32.2.53.02.09.03.18.06.27.02.09.03.18.03.26.01.09.03.18.03.28,0,.09.01.19.01.27Z"/>
        <path class="cls-2" d="M95.04,54.17c-.09.1-.17.21-.24.32-.08.11-.12.24-.15.4-.12.05-.24.13-.35.23-.11.1-.21.2-.3.32-.07.09-.14.18-.2.26-.06.08-.14.17-.22.26-.02.03-.04.02-.07-.01-.03-.03-.05-.07-.06-.12,0-.06-.02-.09-.07-.1-.04,0-.08,0-.12.05-.03,0-.06.03-.1.06-.03.03-.07.06-.1.08-.02.01-.04.02-.08.02-.04,0-.07,0-.1.02-.05-.06-.1-.13-.17-.19-.06-.06-.12-.12-.19-.19-.08-.04-.16-.08-.24-.12-.08-.04-.15-.07-.22-.1-.05-.04-.07-.05-.06-.05-.04-.03-.07-.08-.09-.12-.02-.05-.07-.06-.14-.04-.05.04-.07.07-.07.11,0,.04,0,.08-.03.14-.1-.02-.17-.02-.21-.01-.03,0-.06.02-.09.03-.03,0-.07.02-.11.03-.04-.02-.09-.04-.14-.05-.05-.02-.12-.04-.18-.06-.13,0-.26.01-.39.06-.13.04-.25.09-.38.12-.09,0-.16.05-.22.14-.08.13-.18.25-.31.36-.13.11-.25.23-.36.35-.02.03-.05.06-.08.11-.04.04-.07.09-.11.12-.02.04-.04.08-.05.11-.01.03-.02.07-.03.11.01.09.03.15.06.18-.04.04-.07.08-.1.11-.04.04-.07.08-.1.11,0,.04,0,.09,0,.13,0,.04,0,.08,0,.11.02.15.06.27.12.36.03.06.06.13.08.2.02.07.04.15.07.24.05.05.1.1.15.15.05.05.1.11.15.17.05.06.09.13.13.18.04.06.08.12.11.18.06,0,.11,0,.16,0s.11.01.18,0c.03.02.06.03.09.05.03.01.06.03.09.05.1.03.19.06.28.09.09.03.18.03.27,0,.12-.01.24-.02.37-.04.13-.02.25-.02.35-.02.1.03.19.07.27.11.09.04.18.09.27.13.11-.05.22-.1.33-.13.11-.03.23-.05.36-.04.12.06.2.15.24.27.04.08.08.16.1.25.02.09.05.18.08.27.01.1.04.2.07.29.04.09.08.18.12.28.03.06.07.13.11.21.04.08.07.15.09.21,0,.23-.04.43-.13.58-.11.06-.22.12-.33.19-.11.07-.22.14-.33.21-.04.05-.07.1-.11.15-.04.04-.07.09-.11.14-.06,0-.12.01-.18.03-.06.01-.12.04-.18.07-.04,0-.09.01-.14.01-.05,0-.11,0-.17.03-.09.04-.21.09-.35.14-.09-.07-.2-.12-.32-.16-.11.06-.23.07-.35.05-.13-.02-.25-.02-.37-.01-.13,0-.24-.04-.34-.11-.1-.07-.2-.12-.31-.17l-.32.1-.42-.22c-.06,0-.12,0-.18,0-.06,0-.13-.01-.2-.01-.05-.04-.11-.07-.18-.11-.07-.04-.13-.07-.2-.1-.04,0-.09-.01-.14-.02s-.1,0-.16,0c-.08-.07-.13-.13-.17-.18-.05-.05-.1-.11-.15-.16-.05-.06-.11-.1-.17-.12-.22-.16-.4-.36-.54-.58-.08-.13-.17-.25-.25-.37-.09-.12-.2-.24-.32-.36-.06-.08-.12-.19-.19-.33,0-.19-.04-.37-.11-.55-.07-.18-.15-.35-.22-.52.03-.1.03-.18,0-.26-.03-.08-.05-.16-.07-.25.05-.11.08-.23.09-.36.01-.13.04-.27.07-.41.03-.07,0-.16-.09-.27,0-.06.03-.09.07-.11.04-.02.07-.04.09-.08.08-.03.12-.1.14-.19-.02-.03-.04-.07-.06-.13-.01-.05-.03-.09-.06-.13.04-.05.07-.11.11-.18.04-.07.06-.13.07-.18l.06-.38c.07-.08.14-.13.2-.16.02-.11-.01-.18-.09-.21-.08-.03-.13-.07-.16-.13.15-.31.25-.5.29-.57.05-.07.15-.19.3-.35.04-.15.07-.31.09-.46.02-.15.11-.31.24-.46.03,0,.07-.03.12-.07.05-.04.1-.07.15-.11.04-.07.07-.13.1-.19.03-.06.06-.12.08-.17.1-.06.19-.11.28-.16.09-.05.2-.1.31-.16.03-.02.07-.04.1-.05.04,0,.08-.02.14-.02.07,0,.14-.02.2-.05.06-.03.12-.07.19-.1.03.02.06.03.1.04.04,0,.08.02.12.04.12-.01.22-.04.32-.1.09-.06.2-.12.31-.19.18-.02.35-.03.53-.04.18,0,.35-.03.52-.08.1.02.19.05.27.11.08.06.18.06.29.02.03-.02.07-.02.1.02.14.02.28.05.43.09.15.04.29.07.43.11.21.06.38.04.53-.07.02-.01.03-.02.05-.04.02-.01.03-.02.05-.04.03.02.05.04.09.06.03.02.06.04.07.05.3.36.68.6,1.12.71.07.01.14.04.2.08.07.04.12.08.18.11l.37.51c.12.13.15.28.08.44,0,.03,0,.06,0,.09,0,.03,0,.06,0,.09Z"/>
        <path class="cls-2" d="M103.6,62.95c-.19.21-.41.35-.67.39-.16.03-.32.08-.48.14-.15.06-.31.13-.46.21-.04.05-.1.08-.19.08-.04-.02-.09-.04-.14-.07-.05-.02-.11-.05-.18-.07l-.35-.12c-.09-.09-.16-.17-.22-.26-.06-.09-.12-.18-.17-.28-.11-.19-.2-.31-.25-.36-.05-.05-.17-.14-.35-.27-.05-.17-.08-.33-.12-.5-.03-.17-.04-.26-.02-.27.06-.02.07-.08.04-.18-.03-.1-.07-.16-.09-.18-.08-.07-.12-.11-.13-.11-.08-.03-.17-.05-.27-.06-.1-.02-.2-.03-.29-.05-.05-.05-.1-.09-.15-.13s-.11-.07-.18-.11c-.1,0-.18.03-.23.1-.05.07-.1.14-.14.21-.02.04-.04.1-.05.19-.02.1-.03.2-.04.32-.01.11-.04.22-.08.33-.04.09-.08.19-.1.29-.02.1-.04.2-.06.31-.02.05-.05.12-.07.18-.03.07-.06.14-.1.2-.07.09-.13.19-.17.3-.04.11-.1.2-.18.27-.35.03-.57.05-.67.05-.09,0-.24-.02-.45-.07-.03,0-.06.02-.09.03-.03,0-.07.02-.11.03-.09-.06-.19-.13-.29-.21-.1-.08-.21-.16-.31-.23-.09-.07-.13-.16-.11-.25.02-.24.03-.48.02-.72-.01-.24,0-.48.06-.71-.02-.18,0-.35.03-.54.04-.18.05-.37.05-.55,0-.06,0-.11,0-.16,0-.05.02-.1.02-.16.05-.11.09-.23.12-.37,0-.03-.02-.07-.03-.12-.01-.05-.03-.09-.06-.13-.02-.15-.01-.28.02-.39.03-.11.06-.22.08-.32.02-.1.03-.22.02-.35.01-.07.02-.13.04-.18.01-.05.03-.1.06-.15.1-.16.12-.33.06-.53-.01-.12-.03-.23-.05-.35-.02-.12-.05-.24-.07-.36,0-.06.02-.12.03-.19.01-.07.03-.14.05-.21.02-.15.05-.31.08-.45.03-.15.05-.29.06-.43l.02-.13c.04-.09.08-.19.1-.3.02-.1.05-.2.08-.3.06-.11.1-.22.13-.35.03-.13.05-.24.08-.33.04-.24.09-.46.17-.66.04-.05.06-.1.07-.15,0-.05.01-.09.02-.14.01-.07.01-.13,0-.19-.01-.06-.01-.12,0-.17.01-.07.03-.14.06-.2.03-.06.05-.12.06-.17l.11-.72c.04-.14.06-.28.09-.42.02-.14.05-.29.09-.44-.01-.02-.02-.04-.03-.07,0-.03-.03-.07-.05-.12-.02-.09.01-.13.08-.12.3-.07.59-.15.88-.25.03,0,.05,0,.06,0,.02,0,.03,0,.04,0,.13,0,.26-.01.38-.02.12,0,.24-.03.35-.09.03-.04.1-.05.2-.03.15.02.29.02.41-.02.1-.01.19,0,.25.03.07.03.13.07.2.11l-.03.17c-.01.07-.01.11,0,.13,0,.03,0,.04.04.05.18.2.25.46.2.77,0,.06-.01.11-.02.17,0,.06,0,.12,0,.19l-.03.17c-.03.12-.07.24-.12.35-.05.11-.08.22-.12.33,0,.14,0,.29,0,.44,0,.15-.04.29-.12.42l-.03.19c.01.1,0,.2-.03.3-.03.1-.05.2-.07.31l-.04.23c.02.15,0,.29-.03.43-.04.14-.09.27-.14.39,0,.07,0,.14,0,.21,0,.06,0,.13,0,.21-.02.07-.05.14-.08.21-.03.08-.05.15-.08.21-.02.1-.03.19-.03.29,0,.09-.01.2-.02.31-.02.07-.05.15-.08.24-.03.09-.06.17-.1.25,0,.04.02.08.07.12.01,0,.03,0,.05-.01.06,0,.09,0,.11-.05.13-.11.28-.21.46-.3.08-.03.15-.07.21-.12.06-.05.14-.09.23-.11.04,0,.12-.05.21-.12l.38-.2c.13-.07.26-.11.39-.13.15-.13.26-.25.34-.36.07-.02.14-.04.2-.07.06-.03.11-.04.14-.05.05-.04.09-.07.12-.11.04-.08.08-.16.12-.24.04-.08.09-.16.15-.24.11-.07.22-.14.32-.21.1-.07.21-.15.33-.23.09,0,.16.02.23.07.06.05.14.09.22.13.11.25.24.48.4.69.16.21.33.42.5.62.07.03.11.1.14.24.02.13,0,.24-.05.32-.04,0-.09.03-.15.06-.06.03-.12.06-.2.08-.13.18-.27.36-.42.54-.15.18-.3.36-.44.56-.06.08-.11.15-.16.22-.05.07-.12.13-.2.17-.06.02-.1.05-.12.09-.02.04-.05.09-.09.14-.08.13-.16.24-.25.33-.09.09-.19.17-.3.26-.05.02-.1.06-.15.11-.05.05-.09.09-.13.13-.02.01-.03.03-.03.06,0,.14.02.26.1.35.07.09.11.19.1.31.07.04.13.08.18.14.06.05.11.1.16.13.1.19.21.38.34.56.13.19.25.37.37.54.12.16.22.33.31.51.09.18.15.37.19.56.02.06.03.12.03.18,0,.06-.02.11-.06.16Z"/>
        <path class="cls-2" d="M119.28,58.9c.02.09.01.17,0,.26-.02.08-.05.16-.09.22-.04.09-.08.19-.1.3-.02.1-.04.21-.06.32-.02.14-.05.28-.07.41-.03.13-.05.27-.07.41-.02.1-.03.2-.05.32-.02.11-.05.23-.1.35-.09.22-.19.44-.3.67-.11.23-.2.47-.28.71-.02.03-.03.06-.05.11-.02.05-.04.1-.08.15-.17.25-.34.52-.52.83-.07.06-.14.13-.21.2-.08.07-.16.14-.24.2-.06.03-.13.06-.2.08-.07.02-.13.04-.19.06-.03,0-.05.02-.08.07.02.03.04.07.06.12.01.05.03.08.04.11-.14.15-.33.29-.58.41-.06,0-.13.01-.21.02-.08,0-.16.01-.25.01-.15.06-.33.15-.54.26-.02.03-.05.06-.08.11-.04.04-.07.08-.1.1-.11.04-.21.05-.29.02-.09-.03-.19-.06-.3-.09-.04,0-.09.02-.12.03s-.08.03-.13.06c-.03,0-.07.03-.11.06-.04.03-.08.05-.11.06-.18.04-.35.04-.52-.02-.16-.05-.33-.07-.51-.06-.06-.05-.13-.1-.21-.14-.07-.04-.14-.08-.21-.12,0-.03.01-.06.02-.08.01-.03.03-.06.05-.1-.01-.1-.07-.17-.16-.2-.09-.04-.18-.09-.27-.13-.09-.04-.18-.06-.28-.04-.1-.02-.14-.09-.11-.23,0-.13-.05-.2-.12-.21h-.08c-.11.01-.2,0-.29-.05-.09-.05-.17-.12-.24-.2-.05-.06-.07-.15-.06-.25,0-.1,0-.2-.05-.31-.03-.08-.09-.15-.17-.21-.08-.06-.16-.13-.22-.2-.05-.22-.1-.44-.16-.64-.05-.2-.1-.4-.14-.59-.03-.09-.04-.17-.02-.23.02-.06.03-.14.05-.24l-.05-.12-.03-.09c-.05-.3-.07-.59-.06-.87.02-.29.09-.57.22-.85,0-.04-.02-.09-.03-.13-.01-.05-.03-.08-.06-.12-.02-.07,0-.14.04-.21.05-.06.07-.13.08-.18,0-.2.03-.36.1-.48.04-.07.06-.13.05-.21,0-.07,0-.14.03-.19.07-.16.12-.32.16-.48.04-.16.08-.31.12-.47.06-.31.15-.6.27-.89.05-.11.1-.2.17-.28.07-.08.14-.15.21-.23.03-.02.07-.04.12-.05.04,0,.09-.01.13-.02.09,0,.18,0,.27,0,.09,0,.2,0,.33,0,.07.03.15.05.24.08.09.03.18.05.28.07.1.03.19.06.29.08.1.02.2.05.31.08,0,.04.02.08.03.11,0,.03.02.06.03.09-.02.1-.03.19-.05.28-.02.09-.04.18-.05.28,0,.04.02.09.03.12.02.04.03.09.03.15-.02.05-.05.11-.08.18-.03.07-.07.13-.11.2,0,.23,0,.47-.05.72-.04.25-.06.49-.07.73,0,.16,0,.31,0,.46,0,.15,0,.31.01.47-.03.1-.04.2-.02.3.01.1.02.21.04.31.03.1.04.21.05.31,0,.1.01.21.02.33.04.24.11.46.22.66.07.1.13.16.16.2.03.02.06.03.09.04.03,0,.07.02.09.04.1.02.18,0,.24-.05.06-.05.13-.07.21-.08.17-.05.32-.08.47-.1.07.03.14.04.21.05l.15.02.37-.16c.09-.1.16-.22.21-.36.05-.14.13-.25.25-.33.09-.1.17-.2.24-.31.07-.1.16-.18.25-.24.06-.19.11-.37.15-.54.04-.17.1-.33.18-.49.02-.04.03-.08.03-.14,0-.05,0-.1.01-.14,0-.09,0-.17,0-.25,0-.08,0-.13.01-.16.04-.15.07-.29.09-.42.02-.13.04-.24.08-.35.03-.11.06-.23.08-.34s.04-.23.07-.32c.06-.22.19-.36.37-.42.06-.02.11-.04.16-.05.04-.01.1-.02.15-.03.06,0,.12,0,.17,0s.13.01.21.01c.07.03.14.06.21.1.07.04.15.08.23.12.08.03.16.04.24.04.08,0,.16-.01.25-.03.05.02.1.04.14.07.04.02.09.05.14.09.01.02.02.04.03.06.01.02.01.05,0,.08,0,.07,0,.15,0,.24,0,.09,0,.17-.02.26-.01.17-.03.34-.05.51-.02.17-.02.34,0,.52Z"/>
        <path class="cls-2" d="M129.45,63.62s-.02.03-.02.06c0,.03,0,.05-.02.06-.06.09-.11.18-.16.27-.05.09-.1.17-.16.27-.1.19-.23.34-.37.46-.12.13-.24.25-.35.37-.11.12-.22.24-.32.35-.16.09-.32.17-.48.24-.16.07-.33.12-.51.17-.09.02-.16.04-.21.08-.08.07-.18.12-.28.13-.07.02-.15.04-.23.06-.08.02-.15.07-.24.13-.15.03-.3.08-.44.13-.15.05-.3.07-.45.06-.04,0-.08,0-.12,0-.04,0-.08,0-.14.01-.05-.04-.11-.07-.18-.1-.07-.03-.13-.07-.2-.13-.13,0-.26,0-.39,0-.13,0-.27,0-.41.01-.05-.04-.1-.07-.14-.11-.05-.04-.09-.07-.15-.09-.05-.04-.1-.07-.14-.1-.04-.03-.1-.03-.17-.02-.07.05-.12.1-.18.17-.05.06-.11.13-.16.21-.02.05-.04.11-.05.17,0,.06-.02.11-.02.15l.03.37c-.02.1-.04.17-.08.23-.08.15-.11.31-.1.48.03.19.02.38-.02.58-.04.2-.07.39-.1.59-.08.13-.13.27-.15.43-.02.15-.06.31-.11.46,0,.04-.02.08-.04.1-.14.14-.29.19-.46.17-.15-.02-.31-.05-.47-.07-.16-.03-.31-.09-.46-.18-.04-.02-.09-.04-.15-.04s-.11-.02-.17-.03c-.13,0-.25-.02-.38-.05-.13-.03-.25-.08-.36-.15-.05-.04-.12-.06-.19-.07-.08-.01-.15-.02-.22-.03,0-.03-.02-.05-.03-.06-.01,0-.02-.02-.02-.04-.02-.12-.04-.24-.05-.35-.01-.12-.02-.23-.01-.33.01-.07,0-.14,0-.22-.02-.07-.03-.15-.03-.22.02-.11.06-.22.11-.32.06-.1.1-.2.13-.29,0-.1,0-.2.01-.29,0-.09.02-.18.05-.26.01-.08.02-.17,0-.26,0-.09-.02-.18-.03-.29.03-.04.07-.09.12-.15.05-.06.08-.12.1-.18.04-.09.05-.19.02-.28-.03-.09-.03-.21.01-.34.04-.05.07-.11.1-.17.03-.06.07-.12.1-.19,0-.17.02-.45.06-.82.04-.37.09-.74.14-1.09.05-.35.09-.58.12-.69,0-.2.03-.39.09-.56.06-.17.13-.34.21-.52.03-.07.05-.12.08-.17.03-.05.06-.09.1-.15.04-.09.1-.23.16-.4.06-.17.1-.26.12-.27.09-.22.15-.37.18-.46.03-.09.07-.17.13-.24.06-.07.18-.18.35-.35.17-.16.33-.37.48-.62.06-.08.1-.15.12-.22.03-.02.06-.04.07-.05.02-.01.03-.02.05-.04l.19-.27c.17-.25.4-.4.7-.47.09-.01.18-.05.28-.1.1-.05.22-.1.36-.15.19-.01.39-.04.6-.08.21-.04.43-.07.66-.09.09-.01.18-.01.28,0,.1.02.2.02.3.02.07.03.14.05.21.06.07.02.15.03.23.05.12.03.25.07.36.1.12.03.23.09.33.18.05.02.11.04.17.06.06.02.12.04.17.06.1.02.2.03.32.05.11.02.22.05.31.09.04.03.13.1.26.19.14.09.21.14.23.14.05.04.08.07.09.1.02.03.05.07.07.12.02.05.05.09.09.12.17.17.32.36.44.55.12.2.23.41.34.63.05.14.11.24.19.31.04.05.07.1.09.16.03.05.06.11.09.18-.01.08-.03.17-.04.26-.01.09-.02.18-.02.27,0,.06,0,.12,0,.19.01.07.02.15.02.22-.02.04-.05.15-.08.34-.03.19-.04.32-.04.39.04.21.01.38-.08.53-.04.08-.04.17,0,.26,0,.06,0,.16-.04.32-.03.15-.04.26-.04.32ZM126.83,62.39c.02-.24,0-.46-.04-.66-.05-.2-.14-.4-.26-.59-.1-.16-.21-.3-.31-.41-.1-.11-.23-.22-.37-.33-.25-.08-.47-.11-.68-.08-.07.05-.17.07-.32.06-.15,0-.25.01-.3.06-.07.1-.17.21-.3.33-.13.12-.2.18-.23.19-.11.17-.2.36-.25.59-.06.22-.08.42-.06.59,0,.15.01.28.02.41,0,.13.02.25.03.37,0,.04,0,.08.03.11.03.02.04.08.04.18,0,.1.02.17.05.2.02.09.06.15.12.18.07.03.14.09.23.18.04,0,.08.02.12.03.04.01.09.02.15.03.11.02.22.04.31.06.1.02.19.06.29.1.13.09.3.11.51.06.03-.02.08-.04.15-.05.07-.01.12-.04.15-.07.09,0,.14-.04.16-.12.02-.08.04-.13.08-.15.22-.2.38-.41.48-.63.1-.22.17-.44.22-.65Z"/>
        <path class="cls-2" d="M134.37,67.04c-.05.06-.1.13-.15.2-.05.07-.1.14-.17.2l-.13.41s-.02.05-.03.07c-.02.02-.04.04-.05.07-.18.14-.33.37-.45.66-.07.09-.15.15-.25.19-.09.04-.2.06-.31.07l-.53.09-.42-.07c-.07-.01-.15-.02-.22-.02-.08,0-.18,0-.29-.01-.01,0-.04-.01-.08-.03-.04-.02-.07-.04-.1-.06-.02-.03-.06-.06-.11-.07-.05-.01-.1-.03-.15-.06-.05-.08-.09-.16-.12-.26-.04-.09-.1-.17-.19-.25l-.04-.05c-.06-.2-.13-.38-.24-.57-.1-.18-.16-.39-.16-.62.02-.03.04-.06.06-.11.02-.05.02-.09,0-.12.02-.13.03-.22.02-.28.06-.11.12-.22.18-.34.06-.12.13-.24.21-.36.1-.1.2-.19.3-.28.1-.09.2-.17.3-.26.37-.19.77-.36,1.18-.51.14.04.23.05.27.04.04,0,.14-.05.28-.13.07.01.13.01.19,0,.06,0,.11.03.16.11.03.02.04.04.06.06,0,.02.02.04.03.06h.02s.04.03.04.03l.05.07c.04.09.11.15.19.16s.15.07.19.16c.06.1.12.18.18.25.06.07.12.15.18.23.02.06.03.11.04.14l-.05.3c.02.06.04.12.07.18.03.06.05.13.06.2,0,.06-.01.13-.01.21,0,.09,0,.17-.02.24ZM134.82,61.39c-.02.15-.04.31-.06.47-.02.16-.06.31-.12.46-.09.17-.16.35-.21.53-.06.18-.12.36-.19.53-.05.04-.1.08-.16.13-.06.05-.11.1-.16.15-.12.01-.23.02-.33.02-.1,0-.21.02-.31.05-.1.01-.21,0-.33-.02-.12-.03-.23-.05-.35-.06-.1-.02-.2-.03-.3-.04-.1,0-.21-.02-.32-.04-.04,0-.09,0-.13,0-.04-.01-.08-.02-.12-.03-.09-.04-.16-.11-.18-.2-.02-.07-.04-.14-.08-.2-.03-.06-.08-.13-.14-.23,0-.1,0-.2.02-.31,0-.11.02-.21.04-.31.01-.08.01-.17,0-.27-.01-.1,0-.18.06-.26-.04-.12-.03-.23.03-.34.06-.11.08-.21.07-.31-.02-.12-.02-.23.03-.32.04-.09.07-.19.09-.29.02-.21.05-.42.09-.62.04-.2.07-.4.1-.6.04-.28.09-.57.13-.86.05-.29.11-.59.18-.9.04-.07.05-.14.04-.21,0-.07,0-.15,0-.24.01-.07.03-.14.06-.21.03-.07.05-.13.06-.18.01-.07.01-.13,0-.18,0-.05-.01-.11-.02-.16.03-.02.07-.05.1-.09.03-.04.07-.08.1-.11-.03-.06-.05-.12-.06-.18-.04-.08-.06-.17-.04-.27.03-.18.13-.26.3-.23.03,0,.07,0,.11,0,.04.01.08.02.1.03.06,0,.1,0,.13,0,0-.04.03-.12.08-.23.04,0,.08-.02.11-.03.03,0,.06-.01.09,0l1.71.27s.08.03.12.06c.03.02.05.04.07.08,0,.06.02.11.03.17.01.05.01.11,0,.18-.04.17-.06.33-.06.5,0,.17-.02.33-.08.5-.02.05-.03.11-.03.18,0,.07,0,.12.02.16,0,.15,0,.29-.04.45s-.09.3-.17.45c.02.12.04.24.05.37s-.01.27-.07.42c0,.03,0,.07,0,.12,0,.05,0,.1.01.14.01.19,0,.37-.01.55-.02.18-.04.36-.05.54,0,.06-.02.12-.04.2-.02.08-.04.16-.07.26.02.07.04.16.07.27.03.1.03.21.01.33Z"/>
      </g>
      <g>
        <path class="cls-2" d="M57.86,83.17c.02.18-.02.35-.12.51-.1.16-.14.34-.12.54-.02.1-.06.19-.12.28,0,.05-.03.09-.06.12-.03.03-.05.06-.05.09-.04.39-.07.66-.1.79-.03.13-.14.38-.32.76,0,.1,0,.22,0,.36,0,.14-.01.28-.01.43-.05.17-.15.38-.29.63-.07-.06-.13-.11-.18-.14-.06-.03-.11-.07-.15-.1-.14-.07-.22-.02-.25.15-.03.17-.02.33.02.47.04.14.1.28.18.42-.08.19-.15.39-.22.6-.07.21-.15.44-.24.68-.16.2-.33.41-.51.61-.18.21-.41.36-.67.44-.04.12-.08.22-.12.3-.04.08-.09.18-.16.29-.25.14-.49.28-.74.43-.25.15-.46.31-.64.48-.14.08-.25.1-.35.06-.09-.04-.19-.05-.29-.05-.19.1-.37.19-.55.29-.18.1-.36.19-.55.29-.19.07-.36.16-.53.26-.17.1-.34.2-.53.29l-.55-.09c-.14.08-.26.14-.37.19-.11.05-.23.1-.36.15-.07-.01-.13-.01-.17,0-.04,0-.08,0-.13-.04-.24-.06-.41-.08-.52-.06s-.31.07-.62.15c-.23.04-.46.08-.7.14-.23.05-.47.11-.7.17-.25-.16-.51-.27-.79-.31-.28-.04-.57-.09-.86-.13-.13-.12-.26-.23-.4-.32-.09-.06-.16-.11-.22-.15-.06-.03-.13-.07-.23-.11-.05,0-.12-.02-.2-.03-.09-.01-.18,0-.29.03-.05.02-.12.04-.2.08-.08.04-.15.09-.21.15-.45-.15-.92-.29-1.4-.42-.48-.14-.95-.29-1.43-.47-.19-.08-.37-.16-.54-.25-.17-.09-.35-.17-.54-.25-.15,0-.3,0-.45,0-.15,0-.31.01-.49.04-.4-.01-.65-.23-.76-.64,0-.05,0-.1,0-.15,0-.05,0-.09,0-.11.09-.26.18-.51.27-.75.09-.24.16-.46.22-.68,0-.05.07-.11.18-.2l.02-.15c-.09-.09-.17-.18-.24-.26-.07-.09-.14-.17-.2-.26l.48-3.3v-.04s.26.04.26.04c-.02-.05-.05-.1-.09-.15-.04-.04-.09-.08-.13-.11.21-.42.34-.67.38-.77.07-.14.08-.26.04-.37-.05-.11-.07-.21-.08-.31.06-.09.13-.17.19-.25.06-.08.11-.16.15-.26,0-.13-.02-.24-.06-.35-.03-.1-.07-.21-.1-.32,0-.13.02-.25.08-.38.06-.13.09-.24.11-.34.07-.11.1-.23.09-.36,0-.13,0-.27.03-.44-.03-.28-.1-.59-.19-.93.1-.14.18-.27.25-.41.07-.14.14-.28.21-.42l-.03-.53c.08-.19.17-.38.26-.58.09-.2.17-.38.22-.55-.04-.38-.03-.75.04-1.1.07-.35.13-.71.19-1.08.03-.2.12-.41.29-.63.06-.04.1-.09.12-.15.02-.06.05-.1.07-.12-.08-.26-.13-.46-.13-.58.02-.15.07-.29.15-.45.07-.15.06-.3-.04-.44-.03-.28-.02-.53.04-.76.06-.23.13-.46.22-.7.14-.1.26-.21.37-.34.11-.12.22-.25.34-.38.13,0,.26-.02.4-.03.14-.02.26,0,.35.04.38.13.8.14,1.27.01.13-.05.27-.06.4-.01.13.05.27.1.4.18.47,0,.95,0,1.43,0,.47,0,.94-.03,1.4-.08.13-.03.25-.02.37.02.12.04.26.08.43.11l.7-.19c.12.04.23.09.35.15.12.06.23.12.35.19.15,0,.3-.01.46-.04.15-.03.32-.04.49-.04.09.06.18.14.26.23.08.09.17.16.26.23.27.02.53,0,.77-.03.24-.04.49-.05.74-.04.08.11.14.23.17.35.03.12.09.22.18.31.08.14.21.21.4.23.18.02.33-.04.42-.18.07-.11.15-.15.26-.11.11.04.2.17.3.38.15.02.29.03.45.03.15,0,.31.01.48.04.11.09.2.18.28.25.08.07.16.17.24.28.08.11.17.22.25.32.08.1.18.2.29.29.13.1.21.22.24.38.07.16.17.32.28.48.11.16.22.3.32.44.16.25.43.47.8.65.04.03.1.07.15.1.06.03.1.07.12.09.02.2.04.4.08.59.03.19.05.39.04.59-.06.22-.12.39-.2.53.01.23.08.42.21.58.12.16.24.32.34.48.26.59.33,1.24.22,1.95-.04.24-.06.48-.07.72-.01.24-.06.46-.14.67-.05.19-.07.39-.04.59.03.2,0,.4-.07.59ZM52.55,81.63c-.03-.13-.08-.27-.14-.42-.06-.15-.11-.3-.14-.45-.05-.16-.09-.32-.11-.49-.02-.17-.05-.34-.07-.52-.38-.11-.7-.28-.95-.52-.25-.24-.49-.48-.73-.71l-.55-.09c-.21-.23-.42-.45-.61-.64-.2-.19-.4-.39-.62-.6-.41-.11-.82-.18-1.22-.21-.41-.03-.78-.1-1.11-.23-.23.04-.43.06-.59.08-.16.01-.32.03-.48.06-.16.07-.27.13-.33.17-.13.35-.21.72-.24,1.09-.03.37-.07.74-.1,1.11.07.16.07.31-.01.43-.08.12-.12.25-.12.38.01.08.02.15.02.23,0,.08,0,.18,0,.3-.07.14-.13.29-.16.44-.04.16-.08.33-.14.52-.06.39-.15.75-.28,1.08.05.13.1.26.13.38.03.12.06.24.09.37-.11.21-.22.42-.34.64-.12.22-.22.42-.3.61-.02.12-.03.25-.04.37,0,.12-.03.25-.08.36-.07.29-.19.57-.36.84l.11.28c.09.39.36.57.82.54.27.04.49.04.68,0,.18-.02.34,0,.5.06.15.06.32.09.49.1.2-.02.43-.05.67-.1.24-.05.47-.1.68-.14.13,0,.24-.01.34-.02.1,0,.2,0,.29.05.22.06.45.09.7.11.25.01.5.03.74.04.06-.04.14-.07.24-.09.1-.02.2-.05.28-.09.39-.11.75-.34,1.08-.69.15-.15.28-.32.4-.52.12-.19.24-.37.36-.52.26-.38.47-.77.63-1.16.16-.39.25-.8.27-1.25,0-.1,0-.2.03-.3.03-.1.06-.19.1-.28.04-.09.08-.19.12-.28.04-.09.05-.19.05-.29Z"/>
        <path class="cls-2" d="M76.47,80c-.17.1-.35.13-.54.1-.2-.03-.38-.06-.57-.09-.18-.03-.34-.02-.47.04l-.61-.21c-.1,0-.19.01-.26.02-.08,0-.18,0-.3,0-.07-.01-.2-.06-.39-.14-.29-.09-.54-.12-.77-.08-.31.05-.64.04-1.01-.04-.21-.08-.44-.11-.68-.09-.24.02-.46.05-.67.06-.09-.04-.18-.07-.27-.1-.08-.03-.15-.05-.19-.09-.15,0-.3.03-.44.08-.15.05-.3.12-.46.19-.09.09-.17.19-.26.32-.08.12-.18.24-.3.35-.07.29-.13.59-.18.89-.05.31-.11.59-.17.85-.06.19-.15.33-.27.43-.13.09-.2.21-.22.36.04.21.16.34.35.39.14.07.29.13.46.17.17.04.34.08.5.14.21-.04.41-.09.62-.13.21-.04.4-.09.58-.13.27.04.5.08.7.11.2.03.39.05.59.05.07.01.15.02.22.02.07,0,.15,0,.23-.02.36-.09.72-.11,1.06-.06.34.05.68.13,1.01.23.23.11.36.32.39.62,0,.05-.01.1,0,.17,0,.06.01.13.02.21-.04.07-.07.15-.11.24-.04.09-.07.2-.09.32-.04.39-.1.78-.2,1.17-.1.38-.17.79-.21,1.21,0,.17-.05.34-.13.5-.09.16-.18.3-.27.41l-.12.06c-.15,0-.28-.02-.38-.08s-.22-.09-.34-.11c-.15-.02-.27,0-.38.05-.11.06-.23.1-.36.13-.18,0-.35-.02-.54-.05-.18-.03-.37-.07-.56-.13-.09-.06-.19-.08-.31-.05-.12.03-.23.06-.33.1-.22-.06-.42-.12-.63-.19-.2-.07-.39-.17-.57-.3-.15-.02-.29-.05-.44-.07-.15-.02-.31-.04-.48-.04-.32-.03-.65-.08-.99-.15-.26-.09-.52-.06-.77.11-.05.02-.11.08-.18.18-.07.1-.09.19-.08.27.07.21.09.43.07.65-.02.22-.05.43-.08.62.01.08.03.14.04.19.02.05.03.11.05.16-.03.05-.07.09-.11.13-.04.04-.08.09-.11.13-.14.23-.1.38.11.47.28.12.57.24.86.36.29.12.6.23.91.33.08-.01.17-.02.27-.03.1,0,.19,0,.26,0,.34.05.69.08,1.06.07.36,0,.72.02,1.06.07.07.01.16.02.26.02.1,0,.2.02.29.06.18.1.38.19.6.24.22.06.43.11.65.14.15.02.29.05.42.08.13.03.27.07.41.12.19.08.27.19.25.34-.04.12-.11.24-.19.36-.08.12-.15.23-.22.32-.05.17-.05.31.01.41.06.11.09.21.1.32-.06.24-.13.47-.2.68-.07.21-.18.4-.33.55-.02.15,0,.26.06.35.06.08.1.18.11.28-.06.04-.11.1-.16.18-.05.08-.11.16-.17.25.02.2.03.42.03.64,0,.23-.09.42-.26.6-.08.01-.16.04-.26.09-.1.05-.19.05-.28.01-.24-.09-.47-.12-.71-.11-.24.01-.47.01-.69,0-.18,0-.34.02-.5.07s-.31.09-.47.11c-.25.01-.5,0-.75,0-.25-.01-.51-.02-.79-.01l-.5-.19c-.22-.01-.49-.01-.79-.01l-.95-.37c-.09-.09-.17-.18-.24-.28-.07-.1-.17-.18-.28-.25-.02-.03-.06-.04-.13-.04-.06,0-.1.02-.1.04-.04.24-.2.38-.48.41-.11-.07-.24-.13-.39-.17-.14-.05-.27-.09-.39-.14-.12-.04-.25-.07-.4-.08-.15-.01-.28-.03-.41-.04-.29-.05-.57-.13-.84-.24-.27-.12-.53-.32-.79-.61-.01-.08-.04-.16-.08-.24-.04-.08-.07-.17-.11-.28-.09-.06-.17-.14-.25-.23-.07-.09-.16-.16-.25-.23l-.37-.28c-.08-.16-.1-.31-.08-.44.02-.13.03-.26.02-.39,0-.13,0-.26,0-.39,0-.14.01-.28.01-.43.09-.29.17-.57.23-.86.06-.29.1-.6.12-.92.02-.27.07-.55.15-.82.08-.27.19-.54.33-.79,0-.1-.03-.19-.05-.27s-.03-.17-.02-.26c.02-.12.06-.24.13-.35.07-.11.09-.24.06-.37,0-.05.03-.08.07-.1.04-.02.07-.04.1-.06.1-.16.09-.26-.03-.3-.23-.11-.34-.25-.31-.42.07-.14.11-.28.1-.43s.01-.31.04-.48c.02-.12.05-.24.09-.36.04-.12.05-.24.02-.37,0-.02,0-.06,0-.11,0-.05,0-.09.04-.11.16-.25.25-.5.25-.75,0-.25-.02-.5-.05-.76.13-.2.23-.41.28-.61.06-.2.1-.42.14-.63l.15-.99c.04-.07.06-.15.07-.23.01-.09.04-.15.07-.2.28-.51.35-1.07.23-1.69-.02-.05-.02-.13,0-.23.07-.14.15-.27.23-.4.08-.12.15-.26.19-.4.08-.19.17-.39.26-.6.09-.21.17-.41.23-.6l.04-.26c0-.13,0-.25.04-.39.03-.13.05-.26.04-.39,0-.13,0-.25.04-.37.03-.12.05-.23.07-.33.02-.1.02-.18.02-.24,0-.06-.01-.13-.02-.21.08-.16.19-.28.36-.36.16-.07.27-.18.31-.33.32-.15.64-.23.96-.24.31-.01.62-.07.91-.18.29-.1.59-.15.88-.12.3.02.59,0,.87-.05.16.08.32.15.47.22.15.07.31.15.47.22.1.02.2.03.31.03.11,0,.22,0,.32,0,.17.05.32.11.46.18.14.07.3.11.47.11.28-.03.54,0,.77.12.12.02.23.04.33.07.1.03.19.06.28.1.41-.21.81-.22,1.21-.04.18.1.38.16.57.16.2,0,.39.06.57.16.19.08.37.13.56.14.19.02.36.04.53.06.23-.01.45.02.66.1.19.08.4.15.62.21.23.06.44.11.63.14.12.02.28.13.47.34.13,1.4-.01,2.72-.43,3.98Z"/>
        <path class="cls-2" d="M93.39,81.82c-.2.29-.43.53-.71.7-.28.17-.52.38-.73.62-.2.02-.41.07-.61.17-.2.09-.39.19-.55.29-.27.11-.49.07-.66-.1-.09-.06-.16-.13-.21-.2-.05-.07-.12-.14-.21-.2-.17-.2-.42-.3-.74-.3-.03.02-.06,0-.1-.05l.06-.37s-.05-.07-.07-.12c-.03-.05-.07-.09-.12-.09-.46-.27-.92-.36-1.38-.25-.15,0-.3.02-.46.04-.15.03-.31.05-.46.08-.12.13-.23.26-.34.4-.11.13-.22.25-.34.36,0,.2-.02.4-.04.59-.02.2-.03.4-.04.59.1.17.19.34.28.51.08.18.16.36.23.54.19.21.4.41.62.6.22.2.42.41.61.64.13.12.27.22.42.31.15.09.27.2.38.34.1.14.2.26.3.37.1.1.18.22.26.36.07.04.14.08.2.14.06.06.13.12.2.18.37.33.63.75.78,1.25.09.21.19.44.29.68.1.24.2.47.29.68.15.17.24.36.27.57.03.2.07.41.11.62.02.03.03.08.01.15,0,.3.04.59.11.88.07.29.14.57.22.86.02.33.02.65-.02.95-.04.31-.1.6-.19.89-.04.24-.11.48-.2.7-.1.22-.21.42-.34.6-.03.02-.04.04-.05.07,0,.02-.03.06-.09.1-.25.19-.47.4-.65.65-.18.25-.37.49-.58.73-.03.02-.05.05-.05.09,0,.04-.04.06-.09.08-.27.13-.5.28-.69.45-.19.17-.4.34-.62.5-.11.08-.25.15-.41.2-.16.05-.31.11-.44.19l-.83.25c-.25-.01-.5-.02-.77,0-.26,0-.54.05-.83.13-.19.07-.39.11-.6.13-.21.02-.42.03-.63.05-.1,0-.2.02-.3.03-.1,0-.2.02-.3.03-.28-.29-.61-.47-1-.53-.27-.04-.49-.13-.67-.26-.27-.17-.53-.34-.78-.52-.25-.18-.46-.39-.65-.65-.13-.14-.26-.28-.39-.4-.13-.12-.25-.24-.36-.36-.08-.11-.19-.2-.32-.26-.13-.06-.25-.12-.36-.19-.15-.15-.23-.3-.23-.45.05-.19.16-.36.32-.51.16-.15.31-.31.43-.49.02-.15.09-.32.2-.53.27-.26.54-.52.83-.79.29-.27.58-.54.88-.82.11-.06.23-.12.37-.19.13-.07.28-.14.45-.21.47.2.91.4,1.33.62.42.21.85.42,1.29.61.1,0,.18-.03.23-.06.05-.03.1-.05.12-.07.08-.01.14-.03.19-.04.05-.02.09-.04.12-.06l.66.1s.07-.08.11-.11c.04-.03.08-.07.11-.11.13-.23.27-.45.4-.65.13-.2.23-.44.3-.7-.02-.2-.04-.42-.07-.65-.03-.23-.11-.47-.25-.71-.09-.09-.18-.19-.29-.31-.11-.12-.21-.23-.32-.35-.41-.11-.81-.29-1.21-.53-.4-.24-.81-.39-1.22-.45-.16-.08-.29-.18-.37-.3-.08-.13-.17-.25-.28-.36-.16-.08-.34-.14-.53-.2-.19-.05-.33-.18-.43-.37-.36-.28-.66-.49-.91-.63-.1-.17-.19-.33-.28-.49-.09-.16-.18-.32-.28-.46-.08-.14-.15-.3-.2-.5-.06-.2-.13-.39-.23-.58-.08-.14-.14-.29-.19-.46-.05-.17-.1-.35-.14-.53-.02-.35-.04-.73-.05-1.13.09-.26.18-.53.26-.8.08-.27.16-.56.23-.85l-.09-.39c.1-.03.19-.1.25-.19.06-.09.13-.18.19-.27.07-.14.15-.25.24-.34.09-.09.13-.22.14-.39.07-.46.26-.87.57-1.22.06-.09.12-.17.17-.24.05-.07.09-.14.13-.21.13-.05.25-.12.35-.19.1-.07.16-.12.19-.14.14-.1.21-.21.2-.32,0-.11,0-.22.05-.31.12-.13.25-.26.4-.39.14-.13.3-.26.48-.41.19-.1.39-.17.6-.23.21-.05.41-.15.61-.3.06-.07.13-.11.21-.14.08-.03.17-.04.27-.05.13-.05.28-.09.43-.12.15-.03.31-.06.47-.11.25-.01.51,0,.77,0,.26.02.51.03.76.04.02,0,.06,0,.09,0,.04,0,.08,0,.12.04.25.14.53.18.82.13.3-.05.59-.05.88.02.27.04.52.12.77.23.25.11.49.21.72.3.24.24.48.46.72.66.24.2.52.37.82.52.08.11.16.23.23.35.07.12.14.25.22.39.08.11.17.21.25.3.09.09.16.19.22.3.14.4.27.79.4,1.17.13.38.25.76.37,1.13Z"/>
        <path class="cls-2" d="M108.82,82.69c.05.18.06.37.04.57-.02.2-.1.38-.26.56-.06.09-.1.18-.1.27,0,.09-.01.19-.03.31-.06.07-.13.12-.21.17-.08.05-.16.12-.22.21-.06.04-.11.1-.16.16-.05.07-.13.12-.23.15-.12-.04-.26-.08-.43-.11-.17-.03-.33-.05-.48-.07-.37-.06-.71-.01-1.03.14-.11.08-.22.13-.32.16-.1.02-.21.05-.31.08-.17.12-.24.26-.22.42l-.11.7c0,.22-.01.44,0,.66,0,.21-.03.44-.09.68-.03.05-.04.11-.03.2.01.09.02.16.04.21-.04.09-.08.17-.13.22-.05.06-.09.13-.13.22,0,.1.02.2.03.29.01.09.02.18.03.29-.02.12-.05.21-.08.25-.07.14-.14.28-.2.42-.06.14-.12.28-.2.42-.1.16-.14.32-.11.47.03.15,0,.3-.1.43-.08.51-.18,1.01-.31,1.49-.12.48-.24.96-.34,1.45-.1.63-.09,1.3.03,1.99.06.23.2.37.42.4.05-.02.11-.04.18-.08.07-.04.14-.07.22-.08.07.01.13.05.17.1.16.25.36.43.59.54.37.16.45.37.24.64-.1.16-.16.34-.18.53-.02.2-.06.39-.11.58-.13.53-.24,1.07-.33,1.62-.09.55-.14,1.11-.15,1.68-.04.27-.09.44-.14.52-.05.08-.22.2-.52.35l-.11-.02c-.19-.06-.38-.11-.56-.16-.18-.05-.35-.11-.52-.16-.48,0-.9-.03-1.26-.08-.17,0-.35.01-.51.05-.17.04-.35.03-.54-.03-.19-.08-.38-.11-.59-.09-.2.02-.4.01-.6-.02-.09-.06-.18-.12-.26-.15-.08-.04-.18-.09-.29-.16-.6,0-1.2-.02-1.79-.09-.59-.07-1.19-.14-1.81-.21-.1-.19-.19-.36-.29-.51-.1-.15-.19-.31-.26-.47-.02-.18-.09-.34-.21-.48-.12-.14-.23-.27-.33-.39.01-.25,0-.49-.04-.72-.02-.2.01-.4.09-.59.09-.11.13-.23.13-.35-.02-.23.01-.45.09-.68.07-.23.15-.45.23-.66l.07-.44c.2-.02.4-.03.61-.04.2,0,.4.03.58.11.11-.03.2-.07.28-.12.08-.05.18-.1.29-.16.11.07.23.14.34.2.11.07.24.14.38.21.27-.11.58-.26.93-.45.07-.14.11-.24.12-.32.04-.27.08-.54.13-.82.04-.28.1-.55.17-.82l.02-.11c-.06-.26-.06-.5,0-.71.06-.22.09-.45.11-.7l.07-.48c.14-.55.24-1.11.32-1.66.07-.55.14-1.11.2-1.67l.33-.44c0-.13-.01-.25-.02-.38,0-.13-.01-.25-.02-.38.04-.12.09-.22.14-.32.05-.09.1-.2.14-.32.02-.1.01-.17,0-.23-.08-.31-.08-.59-.02-.83l.09-.55c.02-.1,0-.18-.04-.25-.04-.07-.05-.15-.04-.25.03-.04.06-.15.09-.32,0-.15,0-.3,0-.45,0-.15-.02-.3-.04-.46-.1-.14-.23-.2-.38-.19-.15.01-.29,0-.41-.04-.11-.07-.24-.11-.39-.14-.15-.02-.31-.05-.48-.07-.16-.12-.34-.2-.55-.22-.21-.02-.41-.08-.59-.19-.08-.14-.1-.29-.06-.46.04-.17.03-.3-.03-.38-.03-.1-.01-.23.06-.38.07-.15.1-.29.07-.42.12-.11.14-.19.08-.25-.07-.06-.05-.16.05-.29.09-.11.15-.24.18-.4.02-.16.09-.28.21-.36.06-.04.09-.12.09-.23,0-.11.03-.21.07-.31.06-.04.17-.05.34-.04.17.01.27,0,.31-.05.12-.11.25-.17.39-.2.14-.03.29-.07.45-.12.05,0,.11.01.19.01.08,0,.16,0,.26.02.19.03.4.06.62.1.22.03.43.05.63.06.2-.02.4-.03.6-.04.2,0,.41,0,.64,0,.23-.01.44.03.65.14.3.15.69.2,1.18.15.1,0,.19-.02.27-.03.08-.01.14-.03.19-.04.17.05.32.1.45.14.13.05.24.08.34.09.07.01.15.01.24,0,.09-.01.16-.01.21,0,.24.04.47.08.67.12.21.04.41.11.63.19.45.15.86.23,1.23.27.13,0,.23,0,.31.03.08.03.14.04.16.04.17.05.29.13.36.22.07.1.13.18.17.23.33.45.35.87.07,1.25-.03.02-.05.1-.08.25.02.05.03.11.03.17,0,.06,0,.15.02.25Z"/>
        <path class="cls-2" d="M129.09,98.38c-.04.09-.11.23-.2.42-.09.19-.18.38-.26.6-.04.09-.07.18-.1.27-.03.08-.04.16-.06.23-.04.12-.07.23-.09.34s-.03.2-.04.27c-.22.29-.43.58-.64.86-.21.28-.37.59-.5.92-.16.38-.37.71-.64,1.01-.27.3-.53.6-.78.91-.11.08-.21.16-.3.23-.09.07-.17.15-.26.24-.28.06-.56.13-.82.23-.26.1-.51.23-.74.39-.03.02-.08.04-.14.05-.06.02-.12.03-.18.05-.28.06-.57.12-.86.2-.29.08-.57.16-.86.24l-.97-.3c-.17,0-.35.01-.53.05-.18.03-.35.06-.5.09-.17-.05-.29-.16-.36-.32-.07-.06-.13-.13-.19-.2-.06-.07-.16-.09-.29-.06-.15,0-.27-.05-.35-.17-.08-.11-.18-.2-.3-.27-.08.01-.15.02-.21.02-.06,0-.16,0-.28.01l-.56-.24c-.22-.03-.43-.03-.64.01-.11-.07-.23-.15-.34-.24-.11-.09-.25-.15-.42-.18s-.33-.08-.48-.17c-.15-.09-.31-.15-.47-.21-.14-.05-.28-.09-.41-.14-.13-.05-.25-.09-.37-.13-.09-.06-.15-.14-.19-.22-.04-.08-.07-.16-.11-.24-.09-.06-.16-.1-.21-.11-.06-.08-.14-.15-.23-.2-.09-.05-.2-.1-.31-.14-.16-.1-.29-.21-.4-.34-.11-.13-.21-.25-.32-.37-.14-.22-.26-.43-.37-.64-.11-.2-.24-.41-.41-.61l-.13-.39c-.1-.17-.18-.3-.25-.41-.07-.11-.2-.23-.38-.36l-.44-.07s-.05-.03-.06-.08c-.02-.05-.01-.09.02-.11.04-.09.08-.19.12-.3.04-.11.08-.21.12-.3.02-.12,0-.24-.04-.34-.05-.11-.08-.23-.11-.35.06-.52.05-1.02,0-1.52-.06-.5-.12-1-.2-1.51l.17-1.06c.08-.06.17-.14.24-.22.08-.09.14-.17.2-.23,0-.13,0-.25,0-.37,0-.12.03-.24.08-.36.02-.15.03-.3.03-.46,0-.16,0-.33,0-.51,0-.02.02-.08.06-.16.04-.08.06-.17.08-.27.04-.07.07-.15.09-.23.03-.08.03-.18.02-.28-.02-.2,0-.39.05-.57.05-.18.11-.38.17-.59.08-.16.15-.32.22-.47.07-.15.11-.31.11-.49.02-.15.06-.24.12-.28.15-.13.24-.27.29-.44.05-.17.1-.32.15-.46.16-.2.33-.4.53-.61.19-.21.42-.38.66-.52.09-.09.18-.17.27-.26.09-.09.17-.16.26-.22.51-.37.92-.79,1.25-1.27.11-.06.21-.1.3-.14.09-.04.19-.08.3-.14.04-.07.09-.11.17-.12.17-.47.54-.74,1.1-.8.05,0,.12.01.2.01.09,0,.18,0,.28-.01.08-.04.18-.09.31-.16.12-.07.24-.12.34-.15.09-.09.2-.15.33-.19.13-.04.26-.08.39-.11.15,0,.29-.04.43-.1.13-.07.27-.11.4-.14.3,0,.56.05.76.16.46.25.92.28,1.37.1.19-.07.37-.1.56-.08.19.02.35-.03.49-.13.25.14.5.26.73.38l.71.26c.24.09.47.19.7.32.23.12.45.24.66.35.23.14.46.27.69.41.23.14.43.28.61.43.09.06.18.11.26.13.08.03.16.07.22.13.11.07.22.13.31.18.09.05.17.11.24.17.06.11.11.22.16.32.05.11.11.22.19.33.04.06.1.11.16.16.07.05.13.1.2.16.16.12.28.26.37.41.09.15.12.32.09.52-.02.1.01.19.09.28.07.09.11.19.12.32-.16.23-.29.44-.4.65-.15.3-.38.52-.7.64-.03.02-.05.05-.07.08-.02.03-.04.07-.08.12,0,.28-.07.5-.22.68-.15.18-.33.35-.53.52-.02.1-.03.19-.04.27-.01.09-.08.13-.21.14-.02-.03-.08-.02-.19.03-.11.05-.18.09-.21.14-.04.09-.12.15-.23.17s-.21,0-.27-.06c-.1-.17-.26-.27-.48-.3l-.03-.04s-.04-.06-.06-.1c-.02-.04-.04-.06-.06-.07-.14-.07-.26-.12-.35-.13-.37-.06-.64-.3-.82-.73-.02-.05-.06-.12-.12-.21-.3-.17-.58-.35-.85-.53-.27-.18-.58-.32-.91-.42-.25-.01-.48-.04-.7-.09-.22-.05-.47-.04-.75.01l-.55.4c-.18.05-.36.08-.52.09-.16.01-.32.03-.48.06-.14.08-.28.12-.43.14-.15.01-.31.07-.48.17-.08.04-.2.14-.35.32l-.06.4c-.16.05-.3.07-.42.05-.06.09-.11.18-.13.26-.03.08-.05.17-.06.27-.05.34-.15.65-.29.93-.05.17-.1.35-.16.54-.06.19-.12.38-.2.57-.03.02-.04.06-.04.13,0,.06,0,.12,0,.17.03.13.03.21,0,.23-.05.17-.1.34-.16.52-.05.18-.07.36-.05.54.02.18.03.36.03.53,0,.17,0,.36-.01.56.03.11.05.21.05.31,0,.1,0,.21,0,.34.08.16.16.31.27.45-.04.09-.07.2-.09.31s-.05.22-.09.34c0,.2.04.39.14.57.1.18.17.37.21.58.11.12.23.22.37.3.14.08.23.2.28.36.17.18.34.35.5.53.16.17.31.36.46.56.09.04.18.08.26.12.08.04.17.09.26.15.28,0,.55-.01.83-.02.28,0,.57-.02.87-.05.07.01.15.03.22.05.07.02.15.06.25.09.07.01.15.02.24.02.09,0,.15-.02.18-.07.11-.06.2-.12.27-.2.07-.08.17-.14.27-.2.08-.04.16-.07.24-.09.08-.03.15-.06.2-.1.17-.15.32-.3.45-.46.12-.16.25-.31.37-.47.02-.15.03-.3.01-.45-.01-.15-.04-.29-.07-.42-.02-.23-.15-.39-.41-.48-.19-.08-.32-.11-.4-.1-.36.04-.7.03-1.02-.05-.33-.08-.65-.11-.98-.11-.09-.09-.21-.17-.37-.25-.06-.11-.06-.18,0-.23.1-.16.19-.31.26-.45.07-.14.11-.3.11-.47.06-.39.16-.76.29-1.12.13-.35.26-.7.39-1.03.18-.22.42-.31.72-.26.25-.01.5-.03.76-.05.25-.02.5-.08.74-.17.22.01.44.04.66.08.22.05.42.13.6.26.31.07.62.15.92.24.3.08.61.14.93.16.04.03.1.07.15.1.06.03.09.08.11.13.08-.06.21-.13.37-.2.11.07.23.15.34.24.11.09.21.17.3.23.05.03.11.05.2.07.09.01.16.04.23.07.18.13.35.28.51.45.16.17.32.3.48.38.19.25.24.48.17.68-.07.2-.19.38-.36.52-.02.15-.05.29-.09.44-.04.14-.05.29-.05.44,0,.1.02.23.03.38.01.15-.02.36-.11.62Z"/>
        <path class="cls-2" d="M155.44,90.04c-.14.25-.22.52-.24.79-.02.27-.04.54-.05.82l-.03.18c-.04.12-.1.25-.17.39s-.14.28-.21.42c0,.43-.02.84-.08,1.24-.06.4-.12.8-.19,1.19-.03.2-.07.38-.11.56-.04.18-.06.36-.06.53-.03.17-.04.34-.04.52,0,.17,0,.36-.01.56-.09.24-.17.5-.26.8-.08.3-.21.59-.38.86-.05.29-.13.58-.27.86s-.18.57-.16.88c-.06.24-.12.48-.17.72-.05.24-.11.5-.18.76-.06.22-.11.43-.16.65-.05.22-.06.44-.05.67-.03.22-.11.46-.22.72-.17.27-.23.54-.2.79-.1.46-.2.93-.31,1.41-.11.48-.29.94-.53,1.38-.04.09-.07.21-.09.36-.02.12-.02.21,0,.26l-.3.22c-.2,0-.39-.01-.58-.02-.19,0-.38,0-.58-.02-.08.01-.16.04-.26.09-.1.05-.22.11-.39.18-.36.04-.71.07-1.06.08-.35,0-.7.02-1.06.04-.16-.08-.31-.12-.45-.14-.13-.02-.26-.05-.38-.1-.09-.04-.19-.07-.3-.1-.11-.03-.22-.07-.34-.11-.05.02-.12.03-.19.04-.08.01-.14.03-.19.04l-.31-.39c-.07-.21-.08-.4-.04-.57.04-.17.06-.34.06-.52-.07-.16-.18-.28-.32-.35-.14-.07-.26-.17-.37-.28-.14-.22-.24-.45-.31-.69-.06-.23-.18-.45-.35-.65-.15-.17-.26-.37-.34-.58-.08-.21-.19-.41-.34-.58-.08-.29-.17-.56-.28-.83-.11-.27-.2-.53-.29-.79-.09-.24-.19-.45-.31-.65-.13-.14-.25-.31-.36-.49-.11-.18-.23-.35-.35-.52,0-.17-.04-.33-.12-.47-.08-.14-.16-.29-.23-.45-.14-.37-.32-.73-.55-1.06-.22-.33-.42-.69-.58-1.07-.05.02-.1.02-.15.01-.05,0-.09.01-.12.06-.18.2-.3.47-.35.81-.01.07-.01.15,0,.23.01.08-.01.15-.07.21-.06.04-.12.08-.21.12-.08.04-.16.07-.24.11-.14.23-.21.48-.23.75-.02.27-.07.54-.16.8-.06.24-.11.49-.16.76-.04.27-.08.53-.12.77l-.47.6c-.15.33-.23.66-.23,1.01,0,.35.03.7.1,1.06-.1.16-.19.35-.27.56-.05.17-.1.34-.16.52-.05.18-.08.37-.09.57-.05.49-.35.8-.89.91-.05,0-.12,0-.23,0-.2-.16-.43-.27-.7-.35-.26-.08-.52-.2-.77-.36-.23-.16-.46-.27-.7-.32-.24-.05-.47-.09-.69-.13-.12-.07-.23-.15-.35-.26-.12-.11-.24-.18-.36-.22-.11-.07-.23-.12-.35-.17-.12-.04-.24-.1-.35-.17-.02-.05-.03-.12-.03-.19,0-.08-.01-.13-.03-.15.04-.42.1-.82.17-1.19.07-.38.12-.75.16-1.12.04-.27.09-.54.14-.8.05-.27.1-.53.14-.8l.06-.37c0-.13-.03-.26-.09-.41-.05-.15-.06-.29,0-.43.05-.14.08-.29.11-.43s.04-.28.06-.4c.07-.14.1-.28.09-.44s-.01-.29,0-.41c.09-.24.19-.47.3-.7.11-.23.24-.44.4-.61l.59-3.81c.02-.1.01-.17,0-.23-.08-.26-.1-.5-.04-.72.04-.12.08-.24.11-.38.03-.13.07-.26.11-.38-.02-.18-.04-.36-.07-.54-.02-.18-.04-.36-.07-.54.07-.14.09-.3.06-.48-.03-.18-.03-.35.03-.52.07-.14.18-.25.32-.34.14-.09.23-.22.28-.39,0-.2-.05-.4-.17-.61-.12-.21-.16-.43-.12-.68.15-.18.29-.27.42-.27.28,0,.54-.05.79-.12.25-.07.49-.17.74-.28.03-.02.13-.04.31-.06.09.04.19.08.3.12.11.04.23.09.37.13.21-.04.42-.06.63-.05.21,0,.44.03.68.07.19.03.39.05.57.05.19,0,.4.01.65.03.12.04.24.09.37.13.13.05.27.09.41.14.18.13.34.27.48.43.14.16.23.34.27.55.09.36.23.71.4,1.04.17.33.3.66.37,1,.11.12.22.22.34.32.12.09.21.21.27.34.16.23.36.43.58.62.22.18.44.36.67.52.17.33.33.65.47.97.14.32.32.6.56.84.07.21.12.42.16.63.04.21.09.39.14.55.07.16.18.26.31.29.13.03.25.07.34.11.04.03.08.06.12.07.04.02.06.04.08.07.17.2.3.42.39.64.09.23.18.47.26.73.11.09.21.19.29.29.08.1.18.2.29.29.05.03.1.05.16.04.06,0,.11,0,.13,0,.15-.15.28-.3.39-.45.11-.15.17-.32.17-.52-.01-.08,0-.15.03-.22.04-.07.06-.15.08-.25.09-.29.2-.57.32-.85.12-.28.21-.58.29-.89.06-.22.12-.44.18-.67.06-.23.08-.44.06-.65.08-.39.14-.76.17-1.12.03-.36.06-.72.1-1.09.06-.54.15-1.06.28-1.57.13-.5.31-1.01.54-1.53,0-.02.01-.04.02-.03.01,0,.02,0,.02-.03.12-.11.23-.17.35-.19.12-.02.23-.06.34-.12.13-.05.26-.07.38-.05.12.02.24.06.35.13.13.15.27.29.42.44.05,0,.09.03.12.06.03.03.07.05.12.06l1.21.19c.17.05.33.11.5.17.16.06.32.17.48.32.04.03.09.05.13.04.04,0,.07,0,.09.03.13-.03.25-.07.37-.11.12-.04.24-.07.37-.07.04.03.08.07.11.11.03.04.06.1.1.18.07.16.12.33.13.51,0,.18-.03.34-.13.5Z"/>
        <path class="cls-2" d="M65.14,110.77c-.11.06-.19.23-.23.51-.04.28-.11.48-.2.59-.06.09-.16.17-.28.24-.12.07-.23.16-.32.27.02.05.03.12.04.19.01.08.03.14.04.19-.12.11-.23.21-.35.32-.12.11-.25.22-.39.35-.07-.01-.19,0-.34.02-.1,0-.16.07-.18.2-.02.1-.01.2,0,.32s.02.23,0,.36c-.16.35-.31.7-.46,1.05-.16.35-.37.67-.64.95-.09.39-.25.74-.5,1.06-.25.32-.48.67-.69,1.04-.1.14-.17.27-.23.41-.06.14-.13.29-.2.46-.11.08-.21.17-.3.25-.09.09-.2.17-.34.25-.09.11-.17.24-.25.37-.07.14-.14.28-.21.42-.12.11-.22.23-.3.37-.08.14-.18.26-.3.37-.28.36-.51.74-.69,1.15-.18.41-.3.82-.36,1.24-.1.16-.19.3-.27.43-.08.12-.19.24-.33.34-.12.16-.23.32-.32.49-.09.17-.21.34-.36.49-.28.33-.45.56-.52.67-.07.11-.11.23-.11.36,0,.12-.1.37-.28.74-.12.11-.29.2-.53.29-.24.09-.45.14-.63.16-.09-.06-.25-.11-.47-.13-.22-.02-.38-.05-.47-.09-.12-.04-.25-.08-.4-.1-.15-.02-.28-.04-.4-.06-.17-.03-.35-.05-.53-.08s-.36-.07-.52-.12c-.14-.07-.24-.16-.3-.27-.06-.26-.1-.5-.13-.71-.03-.22.01-.43.12-.64.04-.09.02-.18-.05-.27-.07-.09-.13-.15-.18-.18-.05-.16-.09-.32-.13-.49-.04-.17-.1-.34-.2-.5-.11-.27-.22-.52-.33-.76-.11-.24-.21-.5-.29-.76,0-.1-.06-.2-.16-.29-.1-.09-.14-.18-.12-.28.03-.2.03-.37-.01-.53-.04-.16-.08-.32-.13-.51-.03-.15-.06-.31-.09-.48-.04-.17-.07-.33-.09-.48-.06-.28-.13-.53-.22-.75-.19-.38-.39-.76-.59-1.14-.2-.38-.41-.75-.63-1.11-.13-.27-.31-.42-.53-.46-.1-.02-.15.03-.17.12-.03.17-.05.33-.06.48-.01.15-.03.3-.05.44-.07.44-.24.76-.53.97-.2.14-.34.32-.42.52-.08.2-.16.39-.24.58-.11.21-.23.4-.37.58-.14.18-.25.36-.33.55-.17.12-.32.24-.47.34-.14.1-.26.23-.36.39-.11.21-.25.39-.42.53-.17.15-.3.34-.39.58-.06.22-.18.4-.37.54-.19.15-.31.34-.37.58-.07.14-.16.27-.27.39-.11.12-.2.25-.27.39-.15.13-.27.31-.38.54-.42.11-.76.17-1.02.18-.26,0-.65.02-1.15.05-.16-.08-.34-.17-.54-.27-.2-.11-.41-.2-.65-.29-.08.01-.15.03-.23.04-.08.01-.17.02-.27.03-.06.04-.12.07-.18.08-.06.02-.12.03-.18.05-.17-.05-.32-.11-.46-.17-.14-.06-.3-.08-.48-.06-.09-.24-.18-.47-.28-.7-.1-.23-.16-.47-.17-.72.02-.27-.03-.51-.15-.72-.12-.21-.18-.43-.19-.69-.05-.13-.12-.24-.19-.33-.07-.09-.14-.17-.2-.26-.06-.26-.09-.53-.1-.8,0-.28.01-.55.05-.82-.26-.42-.36-.83-.29-1.25-.21-.41-.34-.67-.38-.79-.04-.12-.07-.34-.06-.67-.19-.35-.39-.72-.6-1.11-.2-.38-.41-.75-.63-1.11-.04-.41-.07-.8-.1-1.18s-.06-.76-.1-1.14c-.05-.51-.12-1-.22-1.48-.1-.48-.18-.96-.23-1.44-.01-.23-.04-.44-.09-.63-.04-.19-.08-.39-.09-.6.02-.1.01-.19-.01-.28-.02-.09-.06-.16-.1-.22-.08-.14-.12-.27-.12-.41,0-.14,0-.27-.01-.4,0-.17-.01-.33-.04-.47-.03-.14-.05-.29-.08-.44.24-.39.54-.72.9-.98.13-.05.26-.08.37-.07.11,0,.22,0,.33-.04.38-.04.67-.1.85-.19.19-.08.47-.18.83-.3.64-.25,1.29-.4,1.94-.45.12.04.2.11.23.19.04.08.06.17.07.27.04.26.08.52.12.79.04.27.14.53.27.77.07.36.17.73.3,1.1.13.37.24.73.34,1.07.02.03.06.15.13.38.07.22.14.45.21.67.08.22.13.34.15.34.29.35.51.62.64.81.13.2.24.41.33.63.09.23.18.56.26,1,.08.29.16.57.24.86.08.29.15.59.2.89,0,.17-.02.35-.04.52-.03.17-.04.36-.05.55.05.13.1.28.14.43.04.16.07.31.1.47.09.06.17.1.24.11,0,.02.01.03.05.03.04,0,.06-.02.06-.05.21-.24.41-.47.58-.7.17-.22.3-.46.4-.73.05-.19.13-.34.22-.45.09-.11.16-.24.21-.38,0-.13,0-.26.03-.41.02-.15.03-.28.03-.41.13-.18.25-.34.35-.47.11-.13.21-.27.31-.4.07-.14.14-.28.2-.44.06-.15.14-.28.23-.4.16-.25.32-.48.48-.69.16-.21.33-.44.52-.69.04-.12.05-.24.02-.37-.03-.13-.05-.24-.06-.35.03-.04.06-.1.08-.16.02-.06.06-.1.11-.11.34-.1.6-.31.77-.63.26-.41.47-.74.63-1.01.15-.26.39-.57.72-.92.06-.07.21-.2.44-.4.23-.2.38-.35.44-.44.04-.07.12-.12.25-.15.09.04.17.08.22.13.05.05.13.1.22.17.1.02.18.02.26,0,.2-.14.41-.2.63-.16.2,0,.4.02.61.04.21.02.4.07.56.14.19.08.31.19.36.32.05.13.17.19.35.17.14.25.21.5.22.75.01.25.06.48.15.7.08.14.19.23.35.28.15.05.25.11.29.2.09.19.14.37.12.53-.01.16-.02.3-.01.43.03.13.05.26.07.39.02.13,0,.28-.05.44-.03.02-.03.07,0,.15s.05.14.06.2c.04.08.09.16.15.23.06.07.1.14.12.19l.16.66s.05.06.08.11c.03.04.04.09.04.14,0,.1.01.21,0,.32,0,.11-.02.23-.04.35-.08.51-.06.96.05,1.36.07.34.14.58.19.72.05.15.23.39.52.74.04.08.07.17.09.28.02.1.05.21.08.31.02.05.05.19.1.41.05.22.11.42.19.61.07.19.13.28.18.29.16-.05.32-.21.49-.49.17-.27.34-.56.51-.86.17-.3.31-.49.43-.57.12-.26.24-.51.36-.77.13-.26.23-.53.3-.82.07-.29.17-.57.3-.83.13-.27.23-.53.29-.8.04-.07.18-.2.42-.4.24-.2.38-.31.41-.33.3-.45.46-.82.49-1.1.03-.28.18-.64.45-1.07.16-.2.32-.39.5-.56.18-.17.33-.35.46-.53.24-.11.46-.13.65-.07.19.07.37.09.55.07.28.12.52.19.71.22s.39.14.59.32c.11.07.24.15.39.25.15.1.28.18.39.25.07.16.18.31.31.44s.23.28.31.44c.26.24.46.43.6.58.14.15.31.39.51.72Z"/>
        <path class="cls-2" d="M81.79,129.46s-.04-.04-.07-.05l.03.04c-.11.03-.19.13-.25.3-.06.17-.15.28-.26.33-.04.07-.14.17-.31.29s-.29.17-.36.13c-.33-.13-.73-.19-1.21-.19-.08.06-.17.12-.25.19-.08.06-.2.13-.33.21-.02,0-.05,0-.08,0-.03,0-.06,0-.11,0-.08.01-.19,0-.34-.01-.78-.15-1.57-.12-2.37.08-.18.02-.37.02-.56,0-.2-.02-.39-.08-.57-.18-.14-.1-.27-.16-.4-.19-.13-.03-.27-.05-.42-.05-.32-.05-.61-.15-.89-.29-.13,0-.26.01-.4.01-.14,0-.27.02-.4.05-.13.03-.26.08-.4.14s-.27.08-.42.03c-.02-.05-.05-.11-.08-.18-.04-.07-.08-.16-.11-.26-.05-.03-.1-.07-.17-.12-.07-.05-.12-.09-.17-.12-.31-.1-.59-.25-.83-.47-.33-.3-.65-.54-.98-.71-.16-.08-.29-.19-.38-.34-.09-.15-.19-.29-.29-.4-.06-.26-.11-.5-.15-.74s-.05-.47-.04-.72c-.07-.06-.12-.12-.16-.19-.04-.07-.08-.13-.12-.19-.13-.12-.19-.22-.18-.29.01-.22-.04-.41-.14-.55-.1-.14-.19-.33-.25-.56,0-.05.01-.12.02-.22,0-.1,0-.2,0-.3,0-.05.02-.12.03-.2.01-.09.01-.15,0-.21-.07-.21-.14-.41-.2-.61-.07-.2-.13-.39-.17-.57.02-.12.07-.3.16-.54.2-.49.27-1,.2-1.51-.05-.18-.07-.36-.07-.54,0-.17,0-.35-.03-.53.03-.04.07-.11.12-.19.05-.08.1-.14.16-.18l-.14-.81c-.03-.13-.08-.26-.15-.38-.07-.12-.13-.24-.19-.35,0-.2.08-.38.21-.53.14-.15.23-.31.28-.48.01-.07.02-.15.02-.22,0-.08,0-.15.02-.22.24-.24.41-.5.52-.78.11-.28.2-.58.27-.9.19-.07.35-.16.49-.26.14-.1.25-.25.33-.44.04-.07.07-.15.1-.25.03-.1.06-.19.1-.28.15-.18.31-.36.48-.54.17-.19.32-.36.47-.51.07-.11.13-.24.19-.38.06-.14.15-.25.26-.33.13-.05.24-.14.32-.25.08-.11.15-.23.22-.34.17,0,.33-.01.46-.04.13-.03.25-.05.35-.06.13-.05.21-.12.22-.19.13-.33.32-.56.57-.68.26-.12.54-.2.84-.22.1,0,.19-.01.26-.01.08,0,.18,0,.3,0,.06-.04.13-.1.21-.17.09-.07.17-.15.26-.24.15-.03.3-.05.44-.08.14-.03.27-.06.37-.09l.26.04c.18.1.37.2.57.3.2.09.41.2.65.31.2,0,.41,0,.62-.03.22-.03.42,0,.61.08.02,0,.05.01.07.03.02.02.05.01.08,0,.17.03.35.03.52,0,.18-.02.35,0,.52.04.15.02.3.03.46.03.16,0,.32-.02.48-.07.13,0,.24,0,.36,0,.11,0,.22.04.34.11.06.08.12.16.19.24.06.07.14.17.22.28.19.06.4.13.62.23.22.1.45.2.68.31.12.04.22.12.32.24.09.11.22.21.39.29.14.07.29.13.44.16.16.04.32.07.49.1.33.45.75.79,1.27,1.02.04.03.09.06.13.1.04.03.09.06.14.1.17.2.33.41.48.62.15.21.3.42.45.61.14.22.21.44.2.67.17.2.26.35.29.44.02.09,0,.33-.06.72.13.1.26.2.37.3.11.1.16.24.16.42.03.11.07.2.1.3.04.09.06.19.07.29.06.11.12.2.2.28.08.07.15.17.24.28.05.18.08.36.11.52.02.17,0,.34-.08.53-.08.16-.12.34-.12.54,0,.2-.04.41-.1.62-.06.19-.09.4-.1.62-.01.22-.02.43-.02.63,0,.1,0,.21-.01.32-.02.11-.02.2,0,.28.07.19.1.37.08.54-.01.17-.05.34-.1.51-.02.1-.02.19-.02.28,0,.09-.01.19-.03.31-.15.3-.28.61-.41.93-.12.32-.28.61-.48.88-.19.25-.38.49-.56.74-.19.25-.4.48-.63.69l-.1.62c-.13.05-.26.12-.39.18-.12.07-.22.12-.31.16-.22.27-.36.51-.43.74-.07.23-.16.43-.26.61-.11.08-.23.17-.34.25-.11.08-.24.16-.37.24-.14.08-.29.14-.46.17-.17.04-.34,0-.53-.1-.21-.08-.4-.1-.55-.05-.1,0-.2.02-.3.03-.1,0-.19.02-.27.03ZM82.5,121.09c-.03-.13-.04-.25-.04-.36,0-.11,0-.23,0-.36.03-.19.04-.36.04-.48-.02-.2-.05-.43-.1-.67-.05-.24-.11-.49-.17-.72,0-.1-.04-.21-.08-.33-.04-.12-.08-.23-.12-.34-.14-.42-.4-.7-.81-.84-.07-.04-.15-.08-.24-.13-.09-.05-.17-.11-.24-.17-.13-.12-.27-.22-.41-.29-.14-.07-.28-.13-.42-.18-.19-.08-.39-.17-.6-.26-.21-.09-.41-.17-.6-.23-.23-.16-.46-.18-.7-.07-.7.17-1.35.42-1.96.76-.6.34-1.16.85-1.66,1.52-.09.09-.17.19-.25.3-.08.11-.15.23-.22.34-.12.11-.22.22-.32.34-.09.12-.18.24-.24.36,0,.2.06.37.18.52.13.15.19.32.18.52-.02.1-.07.18-.15.26-.09.07-.15.16-.19.25.03.11.08.22.13.36.05.13.1.27.13.39.05.13.09.27.1.41.02.14.02.29.03.44.03.13.05.26.07.39.02.13.03.25.03.38l.45.48c.06.06.13.14.21.24.07.1.15.18.24.24.28.12.53.23.73.34.19.08.35.13.5.15.15.02.3.05.48.07-.02,0-.04,0-.04.03h.07s-.03,0-.03-.03c.06-.04.12-.06.2-.06.08,0,.14,0,.19.01.15.02.3.05.45.09.16.04.32.06.5.06.06-.04.12-.04.2.01.08.05.15.09.22.13.1.02.17,0,.23-.04.02-.1.02-.18.02-.26,0-.08.04-.13.12-.17.34-.12.67-.21.98-.26.14-.08.25-.15.35-.21.1-.06.19-.13.28-.22.1-.03.19-.08.27-.15.07-.06.16-.1.26-.11.23-.04.44-.11.62-.22.18-.11.35-.23.52-.35.03-.04.06-.08.07-.12.02-.03.04-.07.07-.12.36-.52.5-1.07.45-1.66Z"/>
        <path class="cls-2" d="M112.57,120.13c-.07.29-.12.58-.13.86-.02.28-.08.56-.17.82-.12.31-.22.62-.29.93-.07.31-.15.63-.22.94-.12.16-.23.32-.32.49-.09.17-.2.33-.31.46-.12.13-.24.26-.36.38-.12.12-.25.25-.4.41-.06.04-.09.12-.11.24-.27.26-.54.48-.84.68-.29.19-.61.34-.95.43-.22.27-.42.47-.62.62-.06.07-.16.11-.29.14-.34.1-.71.15-1.11.16-.51.05-.89.25-1.15.61l-.1.66c0,.1.08.18.21.22.13.05.24.14.31.27,0,.02.02.05.06.08.05.03.06.07.06.12.03.43.23.74.61.92.12.22.23.43.33.63.1.2.21.4.3.59.11.09.22.18.32.26.1.08.21.16.32.26.03.11.08.23.15.38.06.15.12.29.18.42.08.11.17.21.26.28.09.08.14.14.16.19.02.33-.02.53-.13.62-.35.3-.59.58-.73.86-.06.07-.12.11-.17.14-.06.03-.11.06-.17.11-.19.07-.38.1-.58.1-.2,0-.37.04-.51.15-.14.08-.28.11-.43.1-.15-.01-.29.02-.43.1-.22.12-.42.25-.61.41-.19.16-.41.28-.68.36-.09-.04-.21-.07-.36-.09s-.28-.04-.4-.06l-.65-.63c-.08-.11-.12-.18-.12-.21-.03-.13-.06-.25-.09-.37-.03-.12-.06-.23-.1-.33,0-.1-.06-.2-.14-.3-.08-.1-.14-.2-.18-.31l.05-.29c.03-.2-.04-.31-.21-.33-.07-.04-.13-.06-.18-.07-.05,0-.1-.02-.15-.02-.32-.33-.61-.71-.87-1.15-.21-.28-.42-.5-.65-.66-.2-.18-.38-.4-.54-.65-.16-.25-.32-.5-.48-.75-.1-.17-.2-.34-.29-.51-.1-.18-.21-.33-.34-.45-.22-.06-.44-.09-.66-.1-.22,0-.43.02-.61.09-.05,0-.12.04-.21.15-.05.17-.1.33-.15.48-.05.16-.1.32-.15.48.02.48-.04.96-.19,1.43-.11.26-.2.52-.25.79-.05.27-.11.53-.18.8-.02.1-.03.21-.05.33-.02.12-.06.23-.12.32-.08.21-.24.34-.47.38l-.15-.02c-.09-.04-.18-.07-.27-.1-.08-.03-.18-.06-.3-.1-.38.04-.76,0-1.14-.14-.38-.13-.76-.26-1.14-.37-.38-.11-.75-.23-1.11-.36-.05,0-.09-.02-.13-.04-.03-.02-.07-.04-.12-.07-.08-.11-.12-.21-.11-.28.03-.22.06-.45.07-.68.01-.24.01-.48,0-.73-.05-.46.03-.83.25-1.12,0-.22.02-.45.03-.67s.04-.43.1-.62c.06-.09.09-.21.08-.36s-.07-.21-.18-.18c-.03.02-.07.02-.11,0-.05-.02-.07-.04-.07-.07-.02-.05-.03-.11-.05-.18-.02-.06-.03-.11-.05-.14.02-.12.04-.26.06-.4.02-.15.03-.28.03-.41.02-.12.04-.24.06-.37.02-.12.01-.24-.02-.34-.04-.26-.03-.52,0-.79.04-.27.08-.52.12-.77,0-.1-.02-.18-.04-.25-.01-.06-.04-.14-.08-.22.08-.16.14-.32.21-.47.06-.15.04-.32-.05-.51.08-.19.12-.39.13-.6,0-.21.09-.42.25-.62.07-.11.1-.23.09-.36,0-.13,0-.28,0-.45.08-.19.17-.37.27-.54.1-.17.2-.38.28-.61,0-.13,0-.34-.01-.64-.03-.13-.05-.24-.06-.35,0-.1-.02-.2-.03-.3,0-.13.03-.24.11-.34.08-.1.1-.21.07-.34,0-.17.01-.28.03-.33.02-.05.09-.14.21-.27-.02-.05-.02-.1-.02-.13,0-.04,0-.07-.02-.1-.17-.33-.17-.7.02-1.12.07-.14.15-.28.23-.41.08-.14.15-.26.19-.38,0-.1-.01-.2,0-.3,0-.1,0-.2,0-.3l.39-.84c-.02-.18-.03-.35-.03-.53,0-.17,0-.35-.03-.53.03-.22.17-.44.4-.65.12-.11.23-.14.33-.1.11.04.25.06.42.07.18-.02.36-.06.56-.1.19-.04.4-.06.63-.05.22.01.45-.06.67-.2.21-.09.43-.16.63-.22.21-.05.41-.09.62-.11.38.13.62.2.74.21.11,0,.31-.06.61-.19l.66.1c.13,0,.25-.02.38-.03.13-.02.27-.03.42-.03.06-.04.15-.09.27-.15.12-.06.23-.1.34-.13.15,0,.31,0,.49-.02.18-.01.35-.01.53-.01.07.04.13.08.19.12s.12.1.18.16c.13.1.24.2.33.31.09.06.17.1.25.11.24.06.47.12.69.16.22.05.45.08.7.09.08-.01.17-.01.28,0,.11.02.21.03.31.05.12.02.25.05.4.08.14.04.27.07.39.12.15.02.25.09.32.2.07.11.14.17.22.18.33.15.64.25.93.29.29.05.59.08.88.1.11.07.23.14.36.22.12.08.24.16.36.22.1-.03.19-.06.26-.09.07-.03.14-.05.22-.06.2-.02.35.02.43.11.07.06.12.12.18.18.05.06.11.12.18.18.04.08.07.16.11.24.04.08.1.15.19.22l.51.08c.09.04.19.15.28.34.12.19.23.39.34.58.11.19.23.4.37.62.14.2.26.41.35.64.09.23.2.45.35.67.07.06.11.14.13.25.02.1.04.21.05.31-.05.29-.08.58-.12.86-.03.28-.02.57.04.85ZM95.27,112.78v-.04s-.07-.01-.07-.01l.07.05ZM106.88,121.3c-.04-.06-.06-.1-.06-.12.03-.22.03-.44-.01-.66-.04-.22-.15-.42-.32-.59-.09-.06-.15-.14-.19-.24-.04-.09-.08-.18-.15-.27-.14-.25-.3-.46-.5-.64-.02-.05-.06-.09-.13-.11-.07-.02-.13-.05-.17-.08-.13.05-.35.1-.66.12-.18-.15-.37-.25-.59-.28-.22-.03-.46-.05-.71-.04-.24-.04-.49-.08-.75-.14-.25-.05-.51-.06-.76-.03-.26-.07-.53-.11-.81-.13-.27-.02-.54-.03-.82-.05-.22-.03-.38-.05-.48-.04-.19.07-.36.09-.51.05-.16-.04-.32-.04-.5-.02-.11.08-.19.19-.24.34-.05.14-.1.27-.17.39.06.58-.05,1.14-.34,1.67.09.19.16.37.2.54.04.17,0,.34-.1.53,0,.02,0,.05,0,.08,0,.03.01.05,0,.08.03.15.03.3,0,.45s-.07.29-.14.43c-.05.02-.11.04-.18.07-.07.03-.13.06-.18.1.1.14.24.22.41.25.08-.04.17-.07.28-.09.1-.02.21-.06.32-.12.4.19.81.3,1.24.34.43.04.83.18,1.19.41l.26.04c.1.02.21.02.34.01.13,0,.24,0,.34.01.11-.06.25-.1.43-.12.56-.06,1.07-.23,1.54-.51.19-.1.37-.15.55-.16.18-.01.35-.01.53-.01.07.01.15.02.24.04.09.01.18.02.28,0,.1-.18.26-.33.46-.43.2-.11.38-.25.53-.42-.08-.14-.05-.25.07-.33.12-.08.21-.19.26-.33Z"/>
        <path class="cls-2" d="M133.46,137.18c-.04.07-.05.14-.05.2,0,.06-.02.1-.08.12-.35.3-.7.6-1.06.92-.36.32-.72.65-1.07.99l-.38.28c-.13,0-.26,0-.39-.02-.13-.02-.28-.03-.43-.03-.1,0-.21.02-.33.04-.12.02-.23.05-.33.08-.21-.11-.39-.22-.55-.33-.16-.11-.28-.26-.38-.45,0-.1-.07-.2-.18-.29-.32-.33-.65-.66-.97-.99-.32-.34-.68-.64-1.06-.9-.09-.06-.18-.13-.27-.19-.09-.06-.19-.14-.3-.23-.11-.07-.24-.15-.37-.25-.13-.1-.29-.2-.48-.3-.08-.11-.18-.23-.3-.37s-.23-.27-.33-.41c-.18-.28-.43-.53-.74-.75-.14-.07-.26-.17-.37-.3-.11-.13-.21-.25-.32-.37-.29-.22-.57-.4-.85-.55-.16-.27-.28-.51-.38-.7-.18-.15-.39-.21-.65-.18-.03.02-.06.05-.09.08s-.05.07-.06.12c-.16.53-.32,1.07-.5,1.63-.18.56-.35,1.11-.54,1.66.04.06.07.12.1.2.03.08.06.16.09.24.01.23-.02.45-.09.68-.07.23-.1.45-.09.68-.01.22-.04.44-.08.66-.05.22-.09.44-.12.66-.04.24-.17.35-.39.31-.26-.07-.52-.1-.77-.1-.25,0-.51,0-.79,0-.39-.04-.79-.08-1.2-.13-.4-.05-.79-.09-1.16-.12-.24-.04-.47-.11-.68-.22s-.41-.23-.62-.36c-.28-.14-.41-.34-.4-.59,0-.2.02-.4.04-.61.02-.21.02-.4,0-.58,0-.2.05-.38.12-.54.08-.16.14-.33.19-.5-.02-.2-.04-.39-.08-.57-.04-.18-.03-.38,0-.6.06-.09.09-.17.08-.25-.01-.08-.03-.15-.04-.23-.07-.21-.09-.43-.07-.65.02-.22.06-.43.11-.62.07-.26.11-.52.12-.77.01-.25-.01-.48-.08-.69.06-.22.12-.41.19-.59.07-.18.11-.35.14-.52.02-.15.07-.29.14-.45.07-.15.11-.31.11-.49,0-.17.01-.35.02-.52.01-.17.03-.34.06-.52.1-.63.19-1.25.27-1.85.08-.6.17-1.2.26-1.81.11-.41.12-.79.03-1.16.18-.17.32-.34.44-.51.11-.17.28-.31.5-.43.08-.06.02-.15-.19-.25-.02,0-.04-.01-.05-.03-.01-.01-.03-.02-.05-.03-.07-.19-.07-.37,0-.54s.1-.35.08-.53c0-.2.06-.36.17-.5.11-.13.17-.28.2-.46,0-.13,0-.24,0-.34,0-.1,0-.2,0-.3.04-.07.07-.16.1-.27.03-.11.06-.21.1-.3-.06-.58-.05-1.16.02-1.72.08-.56.16-1.13.25-1.69.02-.15.08-.29.18-.42.02-.1.05-.17.11-.23.06-.05.12-.1.17-.14.39-.09.78-.17,1.16-.25.39-.08.77-.07,1.16.01.19.05.4.06.63.02.29-.08.56-.09.83-.04.27.05.53.13.79.22.19.08.36.16.52.25.16.09.3.22.43.39.19.05.37.05.54,0,.17-.06.34-.08.51-.05.02.03.05.05.09.05.04,0,.05.03.04.08.15.35.19.7.13,1.07-.05.14-.06.3-.05.46.01.16.03.35.05.55-.07.14-.13.3-.19.48-.05.18-.12.36-.2.55-.07.27-.11.55-.13.84,0,.2-.03.41-.06.63-.03.22-.07.43-.1.62-.01.07-.03.14-.07.2-.03.06-.05.11-.06.16-.16.25-.27.46-.32.62-.02.15-.04.29-.07.42-.02.13-.03.28-.03.43,0,.02-.02.07-.06.14-.04.07-.05.13-.03.18.01.25,0,.51-.04.76s-.07.52-.09.79c-.03.17.03.3.16.4.15,0,.29-.04.43-.12.14-.08.29-.1.46-.08.3-.18.59-.32.85-.43.1-.03.2-.06.29-.07.09-.01.18-.02.29-.03.16-.05.28-.15.37-.3.08-.15.18-.26.3-.35.6-.31,1.14-.65,1.62-1.02.14-.1.3-.21.48-.32.18-.11.35-.2.51-.28.06-.04.11-.08.17-.11.05-.03.1-.05.12-.07.38-.37.81-.65,1.29-.85.48-.2.92-.42,1.3-.66.28,0,.54-.02.79-.04.25-.02.49-.03.72-.02.41.11.64.31.69.6.03.11.08.2.12.28.05.08.09.18.12.28.23.31.45.63.67.97l.67,1c.06.08.12.18.16.29.05.11.09.21.12.32.03.11.03.19-.02.26-.05.07-.1.12-.16.16-.17.12-.35.25-.53.39-.18.13-.39.22-.62.26-.05.02-.11.04-.16.07-.06.03-.11.05-.16.07-.14.08-.26.17-.36.26-.1.1-.16.23-.16.41-.09.09-.17.15-.25.19l-1,.63-.08.06c-.39.11-.76.26-1.1.45-.34.18-.7.35-1.07.49-.39.11-.76.27-1.1.47-.34.2-.65.45-.92.76-.07.11-.17.2-.3.25-.13.05-.24.15-.31.29-.02.12,0,.2.04.23.04.03.1.08.17.14.07.06.13.12.2.18.2.13.38.29.53.48.15.19.28.39.39.6.13.27.3.53.5.77.2.24.42.48.66.72.06.06.14.14.22.24.08.1.17.2.26.28.13.27.3.51.51.72.21.21.4.41.6.62.13.12.27.25.41.4.14.15.29.29.44.44.1.19.17.4.24.64.06.23.23.4.49.49.1.29.2.57.28.83.08.26.28.44.59.54Z"/>
        <path class="cls-2" d="M152.54,124c-.2.29-.43.53-.71.7-.28.17-.52.38-.73.62-.2.02-.41.07-.61.17-.2.09-.39.19-.55.29-.27.11-.49.07-.66-.1-.09-.06-.16-.13-.21-.2-.05-.07-.12-.14-.21-.2-.17-.2-.42-.3-.74-.3-.03.02-.06,0-.1-.05l.06-.37s-.05-.07-.07-.12c-.03-.05-.07-.09-.12-.09-.46-.27-.92-.36-1.38-.25-.15,0-.3.02-.46.04-.15.03-.31.05-.46.08-.12.13-.23.26-.34.4-.11.13-.22.25-.34.36,0,.2-.02.4-.04.59-.02.2-.03.4-.04.59.1.17.19.34.28.51.09.18.16.36.23.54.19.21.4.41.62.6.22.2.42.41.61.64.13.12.27.22.42.31.15.09.27.2.38.34.1.14.2.26.3.37.1.1.18.22.26.36.07.04.14.08.2.14.06.06.13.12.2.18.37.33.63.75.78,1.25.09.21.19.44.29.68.1.24.2.47.29.68.15.17.24.36.27.57.03.2.07.41.11.62.02.03.03.08.01.15,0,.3.04.59.11.88.07.29.14.57.22.86.02.33.02.65-.02.95-.04.31-.1.6-.2.89-.04.24-.11.48-.2.7-.1.22-.21.42-.34.6-.03.02-.04.04-.05.07,0,.02-.03.06-.09.1-.25.19-.47.4-.65.65-.18.25-.37.49-.58.73-.03.02-.04.05-.05.09s-.04.06-.09.08c-.27.13-.5.28-.69.45-.19.17-.4.34-.62.5-.11.08-.25.15-.41.2-.16.05-.31.11-.44.19l-.83.25c-.25-.01-.5-.02-.77,0-.26,0-.54.05-.83.13-.19.07-.39.11-.6.13-.22.02-.42.03-.63.05-.1,0-.2.02-.3.03-.1,0-.2.02-.3.03-.28-.29-.61-.47-1-.53-.27-.04-.49-.13-.67-.25-.27-.17-.53-.34-.78-.52-.25-.18-.46-.39-.65-.65-.13-.14-.26-.28-.39-.4-.13-.12-.25-.24-.36-.36-.08-.11-.19-.2-.32-.26-.13-.06-.25-.12-.36-.19-.15-.15-.23-.3-.23-.45.05-.19.16-.36.32-.51.16-.15.31-.31.43-.49.02-.15.09-.32.2-.53.27-.26.54-.52.84-.79.29-.27.58-.54.88-.82.11-.06.23-.12.37-.19.13-.07.28-.14.45-.21.47.2.91.4,1.33.62.42.21.85.42,1.29.61.1,0,.18-.03.23-.06.05-.03.1-.05.12-.07.08-.01.14-.03.19-.04.05-.02.09-.04.12-.06l.66.1s.07-.08.11-.11c.04-.03.08-.07.11-.11.14-.23.27-.45.4-.65.13-.2.23-.44.3-.7-.02-.2-.04-.42-.07-.65-.03-.23-.11-.47-.24-.71-.09-.09-.18-.19-.29-.31-.11-.12-.21-.23-.32-.35-.41-.11-.81-.29-1.21-.53-.4-.24-.81-.39-1.22-.45-.16-.08-.29-.18-.37-.3-.08-.13-.17-.25-.28-.36-.16-.08-.34-.14-.53-.2-.19-.05-.33-.18-.43-.37-.36-.28-.66-.49-.91-.63-.1-.17-.19-.33-.28-.49s-.18-.32-.28-.46c-.08-.14-.15-.3-.2-.5-.06-.2-.13-.39-.23-.58-.08-.14-.14-.29-.19-.46-.05-.17-.1-.35-.14-.53-.02-.35-.04-.73-.05-1.13.09-.26.18-.53.26-.8.08-.27.16-.56.23-.85l-.09-.39c.1-.03.19-.1.25-.19.06-.09.13-.18.19-.27.07-.14.15-.25.24-.34.09-.09.13-.22.14-.39.07-.46.26-.87.57-1.22.06-.09.12-.17.17-.24.05-.07.09-.14.13-.21.13-.05.25-.12.35-.19.1-.07.16-.12.19-.14.14-.1.21-.21.2-.32,0-.11,0-.22.05-.31.12-.13.25-.26.4-.39.14-.13.3-.26.48-.41.19-.1.39-.17.6-.23.21-.05.41-.15.61-.3.06-.07.13-.11.21-.14.08-.03.17-.04.27-.05.13-.05.28-.09.43-.12.15-.03.31-.06.47-.11.25-.01.51,0,.77,0,.26.02.51.03.76.04.02,0,.06,0,.09,0,.04,0,.08,0,.12.04.25.14.53.18.82.13.3-.05.59-.05.88.02.27.04.53.12.77.23.25.11.49.21.72.3.24.24.48.46.72.66.24.2.52.37.82.52.08.11.16.23.23.35.07.12.14.25.22.39.08.11.17.21.25.3.09.09.16.19.22.3.14.4.27.79.4,1.17.13.38.25.76.37,1.13Z"/>
      </g>
    </g>
  </g>
</svg>