<?xml version="1.0" encoding="UTF-8"?>
<svg id="_レイヤー_2" data-name="レイヤー 2" xmlns="http://www.w3.org/2000/svg" viewBox="0 0 196.44 197.42">
  <defs>
    <style>
      .cls-1 {
        fill: #f1e57f;
      }

      .cls-2 {
        fill: sienna;
      }
    </style>
  </defs>
  <g id="_編集箇所" data-name="編集箇所">
    <g>
      <path class="cls-2" d="M188.27,58.9c1.06,2.41-5.45,7.78-4.6,10.22s9.31,2.65,9.95,5.16c.66,2.54-6.65,6.78-6.21,9.33.44,2.58,8.74,4.14,8.97,6.72s-7.68,5.58-7.67,8.17c.01,2.61,7.94,5.52,7.73,8.11-.21,2.6-8.49,4.23-8.91,6.8s6.92,6.75,6.3,9.27c-.63,2.53-9.07,2.78-9.91,5.25-.83,2.47,5.73,7.79,4.69,10.18-1.03,2.39-9.4,1.25-10.63,3.55-1.23,2.3,4.38,8.62,2.96,10.81-1.41,2.19-9.48-.31-11.07,1.76s2.9,9.22,1.14,11.15c-1.75,1.92-9.29-1.88-11.21-.1-1.9,1.77,1.33,9.57-.73,11.18-2.04,1.6-8.84-3.4-11.04-1.96-2.16,1.42-.27,9.65-2.58,10.91s-8.16-4.82-10.56-3.76-1.89,9.49-4.33,10.34-7.3-6.08-9.8-5.43-3.42,9.05-5.98,9.48-6.18-7.2-8.77-6.99-4.87,8.36-7.47,8.36-4.89-8.13-7.48-8.35-6.18,7.43-8.75,7-3.48-8.83-6-9.47-7.32,6.32-9.78,5.47-1.98-9.28-4.37-10.32-8.25,5.03-10.55,3.8c-2.29-1.24-.43-9.47-2.62-10.9-2.18-1.42-8.96,3.62-11.03,2.02-2.05-1.59,1.13-9.41-.79-11.18-1.91-1.76-9.43,2.09-11.21.17s2.67-9.09,1.06-11.16-9.64.51-11.08-1.68,4.14-8.52,2.89-10.83c-1.23-2.27-9.59-1.07-10.66-3.47s5.45-7.78,4.6-10.22-9.31-2.65-9.95-5.16c-.66-2.54,6.65-6.78,6.21-9.33-.44-2.58-8.74-4.14-8.97-6.72s7.68-5.58,7.67-8.17c-.01-2.61-7.94-5.52-7.73-8.11.21-2.6,8.49-4.23,8.91-6.8s-6.92-6.75-6.3-9.27c.63-2.53,9.07-2.78,9.91-5.25.83-2.47-5.73-7.79-4.69-10.18,1.03-2.39,9.4-1.25,10.63-3.55,1.23-2.3-4.38-8.62-2.96-10.81,1.41-2.19,9.48.31,11.07-1.76s-2.9-9.22-1.14-11.15,9.29,1.88,11.21.1-1.33-9.57.73-11.18,8.84,3.4,11.04,1.96c2.16-1.42.27-9.65,2.58-10.91s8.16,4.82,10.56,3.76,1.89-9.49,4.33-10.34,7.3,6.08,9.8,5.43,3.42-9.05,5.98-9.48,6.18,7.2,8.77,6.99S95.3,0,97.9,0s4.89,8.13,7.48,8.35,6.18-7.43,8.75-7,3.48,8.83,6,9.47,7.32-6.32,9.78-5.47,1.98,9.28,4.37,10.32,8.25-5.03,10.55-3.8.43,9.47,2.62,10.9c2.18,1.42,8.96-3.62,11.03-2.02,2.05,1.59-1.13,9.41.79,11.18s9.43-2.09,11.21-.17-2.67,9.09-1.06,11.16c1.59,2.04,9.64-.51,11.08,1.68s-4.14,8.52-2.89,10.83,9.59,1.07,10.66,3.47Z"/>
      <g>
        <path class="cls-1" d="M65.03,62.16s0,.04,0,.07c.01.03.02.05,0,.07-.02.11-.03.22-.04.32-.01.1-.02.21-.04.32-.02.22-.07.42-.16.6-.06.17-.12.34-.18.5-.06.16-.11.32-.16.47-.11.15-.23.3-.36.43-.13.13-.26.26-.42.38-.08.05-.13.1-.16.16-.05.1-.12.19-.21.24-.06.05-.13.1-.19.15-.06.06-.12.13-.17.22-.13.1-.25.2-.37.3-.12.11-.25.19-.41.25-.04.01-.08.03-.11.04-.03.02-.08.04-.13.07-.07-.01-.14-.02-.21-.02-.08,0-.16-.02-.24-.04-.12.05-.25.1-.37.16-.12.06-.25.12-.39.18-.07-.01-.13-.03-.18-.04-.06-.02-.12-.02-.18-.02-.06-.01-.12-.02-.17-.03-.05-.01-.11,0-.17.06-.04.07-.07.15-.1.23-.02.08-.05.17-.07.27,0,.06,0,.12.02.18.02.06.03.11.04.15l.18.34c.03.1.03.18.02.25-.02.17.02.34.11.5.11.17.18.36.23.56.05.2.1.4.15.6-.02.16,0,.32.03.47.04.16.07.32.08.48.01.04.01.08,0,.11-.07.19-.19.3-.37.35-.16.04-.32.09-.48.13-.16.04-.33.05-.51.02-.05,0-.1,0-.16.02-.06.02-.11.03-.17.05-.13.05-.25.09-.38.11-.13.03-.27.03-.41,0-.06-.01-.14,0-.22.01-.08.02-.15.04-.23.06-.02-.02-.04-.04-.06-.04-.02,0-.03-.01-.03-.03-.07-.1-.14-.21-.2-.31-.06-.11-.11-.21-.15-.3-.02-.07-.05-.14-.1-.2-.05-.06-.09-.13-.12-.2-.03-.11-.04-.23-.02-.35.01-.12.01-.23,0-.33-.04-.1-.08-.19-.11-.28-.03-.09-.05-.18-.06-.27-.02-.09-.06-.17-.1-.25s-.09-.17-.15-.26c.02-.05.03-.12.05-.2.02-.08.02-.15.02-.21,0-.11-.03-.2-.1-.27s-.11-.18-.13-.33c.01-.06.02-.13.03-.2,0-.07.01-.14.02-.22-.08-.16-.17-.43-.29-.81-.12-.38-.22-.74-.33-1.1-.1-.36-.16-.59-.18-.71-.08-.19-.13-.38-.15-.57-.02-.19-.03-.38-.02-.58,0-.08,0-.14,0-.2,0-.06.02-.12.03-.18,0-.11,0-.26-.02-.44-.01-.19-.01-.29,0-.31,0-.24-.01-.41-.02-.51-.01-.1,0-.19.03-.28.03-.09.09-.25.18-.47.09-.22.16-.49.2-.79.02-.1.03-.18.02-.26.02-.04.04-.06.05-.08.01-.02.02-.04.03-.05l.07-.34c.06-.31.21-.55.47-.75.08-.05.16-.12.23-.21.08-.09.17-.19.28-.29.17-.09.35-.2.53-.33.18-.12.38-.25.59-.37.08-.05.17-.09.27-.12.1-.03.2-.06.29-.1.08,0,.15-.01.22-.03.07-.01.15-.03.24-.05.13-.02.26-.04.39-.06.12-.02.25,0,.39.03.06,0,.12,0,.19-.02.07,0,.13-.02.19-.02.1-.03.21-.06.32-.09.11-.03.23-.04.33-.04.05.02.16.04.33.07.17.03.26.05.28.04.06.01.11.03.13.06.04.02.07.05.11.08.04.04.09.06.14.08.24.09.46.2.65.34.2.14.4.29.59.45.11.11.21.18.31.22.05.03.11.07.16.11.05.04.1.08.16.13.02.09.05.18.07.27s.06.18.09.26c.02.06.04.12.08.18.04.07.08.13.11.2,0,.05.02.17.07.36.05.19.09.32.13.39.13.18.17.36.14.54,0,.09.03.18.11.25.03.05.06.16.1.32.03.16.07.27.1.32ZM62.02,62.09c-.08-.24-.18-.45-.31-.62-.13-.17-.3-.32-.5-.45-.17-.11-.32-.19-.47-.25-.15-.06-.31-.11-.49-.16-.27.03-.5.09-.68.21-.04.07-.14.14-.28.19-.15.05-.23.12-.26.18-.03.13-.08.28-.15.44-.07.16-.12.26-.14.28-.04.21-.03.43,0,.67s.1.43.19.59c.07.14.13.26.19.39.06.12.12.23.18.34.01.04.04.08.07.1.03,0,.07.06.11.15.04.1.09.15.14.17.05.08.12.12.19.12.08,0,.18.03.29.07.04-.01.09-.02.13-.02.04,0,.1-.01.15-.03.11-.03.22-.06.32-.08.1-.02.21-.03.31-.03.16.03.33-.02.51-.16.02-.04.06-.07.12-.11.06-.04.1-.08.11-.13.08-.04.12-.1.1-.18-.01-.08-.01-.14.01-.18.12-.28.19-.54.19-.8,0-.25-.02-.49-.06-.71Z"/>
        <path class="cls-1" d="M68.27,54.15c.07.09.11.19.13.3.01.11.02.22.02.33,0,.09,0,.18-.02.27-.02.09-.04.17-.05.25-.03.1-.07.2-.12.28-.05.09-.09.18-.13.26-.04.03-.07.06-.09.1-.02.04-.05.09-.08.13-.08.1-.22.21-.42.33-.2.12-.36.2-.49.23-.07.02-.13.02-.18,0-.09.02-.17.04-.26.06-.09.02-.17.03-.24.05-.05-.02-.1-.03-.16-.05-.06-.01-.1-.03-.14-.05-.08,0-.16,0-.24.02-.08.02-.15.04-.23.06-.07-.03-.15-.05-.24-.06-.09-.01-.17-.03-.25-.04l-.23-.35c-.02-.12-.04-.25-.06-.39-.02-.14-.07-.28-.15-.41-.05-.02-.06-.05-.03-.11.02-.11-.01-.21-.08-.3-.07-.09-.1-.19-.08-.3,0-.03,0-.08-.01-.13-.07-.07-.09-.16-.07-.25.02-.09.04-.17.05-.23-.03-.04-.05-.08-.06-.13-.01-.05-.02-.09-.03-.12.01-.02.02-.04.02-.06,0-.02.01-.05.04-.07.11-.06.19-.14.25-.24.06-.1.13-.18.22-.25.08-.11.17-.21.28-.3.11-.09.21-.18.31-.27.11-.03.21-.06.3-.08.09-.02.18-.03.27-.03.05,0,.1,0,.16-.02.06-.02.11-.03.17-.05.19-.08.37-.04.54.11.05.06.11.09.18.09.08,0,.15,0,.21.01.18.09.31.23.41.42.05.08.11.16.17.23.06.08.11.16.14.24.05.08.1.16.15.25.05.09.09.17.13.25ZM69.46,59.11c0,.09,0,.19.03.3.03.11.06.22.09.33.04.1.07.2.08.31.01.11.04.22.06.32l-.09.25c.09.05.15.12.19.2.04.08.07.17.1.27.03.1.05.2.08.31.03.11.05.22.07.34.01.1.01.22,0,.34-.01.13-.02.26-.01.39.04.14.08.31.12.51.04.2.1.38.16.57.09.27.15.55.18.84.03.29.02.57-.05.85.03.11.07.22.13.32.06.1.12.2.17.31,0,.01,0,.03,0,.06,0,.03,0,.05,0,.08-.05.12-.11.23-.19.33-.01,0-.03.01-.04.03l-.09.02c-.16.04-.32.1-.47.16-.16.07-.34.1-.56.11-.06-.01-.14-.03-.21-.06-.08-.03-.15-.04-.23-.05-.06.02-.13.03-.21.04-.08.01-.16.02-.23.03-.15-.1-.3-.2-.45-.32-.05-.02-.11-.02-.17-.02-.06,0-.12,0-.19-.02-.12-.04-.19-.15-.2-.31-.01-.16-.01-.31,0-.44,0-.2-.06-.37-.16-.53l-.17-.28c-.03-.11-.07-.22-.11-.32-.04-.1-.07-.2-.08-.3-.02-.15-.06-.28-.1-.41-.04-.13-.08-.26-.12-.4-.04-.2-.08-.4-.14-.6-.05-.19-.1-.38-.15-.57-.02-.07-.02-.12-.01-.13.04-.13.05-.25.02-.36-.03-.11-.06-.22-.09-.33-.05-.11-.07-.23-.08-.36-.01-.13-.04-.24-.1-.33-.03-.13-.07-.25-.1-.38-.03-.12-.06-.25-.08-.38,0-.08-.01-.15-.03-.23-.01-.08-.05-.17-.1-.26.11-.09.21-.16.3-.22.09-.05.17-.09.26-.11.06-.02.12-.03.18-.05.06-.02.12-.04.18-.07.14-.07.25-.13.34-.18.08,0,.14,0,.2.03.06.02.12.04.19.05.1-.03.19-.07.28-.14.1-.04.19-.06.27-.05.09,0,.17.06.24.17.02.01.03.02.04.03.01.01.03.02.04.03l.17.05c.1-.01.18-.05.24-.12.06-.07.12-.12.19-.15.09-.02.15,0,.18.07.07.09.14.23.21.43Z"/>
        <path class="cls-1" d="M79.03,54.07c-.04.13-.07.27-.1.41-.02.14-.02.28.03.44-.1.1-.17.22-.24.36-.06.14-.11.28-.15.43-.03.12-.06.23-.08.33-.03.11-.06.22-.1.34,0,.03-.03.04-.07.02-.04-.02-.08-.05-.1-.09-.02-.06-.05-.08-.11-.06-.04.01-.07.04-.09.09-.02.02-.05.05-.07.1-.02.04-.04.08-.06.12-.01.02-.03.04-.07.05-.03.02-.06.04-.09.06-.07-.04-.15-.08-.24-.11-.08-.03-.17-.07-.26-.1-.09,0-.19-.01-.28-.02-.09,0-.18,0-.25,0-.06-.01-.09-.02-.08-.03-.05-.02-.1-.04-.14-.08-.04-.04-.09-.03-.16.02-.03.05-.04.1-.02.13.02.03.03.08.03.14-.1.03-.17.05-.21.08-.02.02-.05.04-.07.07-.02.02-.06.05-.1.07-.05,0-.1,0-.16,0-.06,0-.13.01-.2.02-.12.05-.24.12-.34.22-.1.1-.21.19-.31.28-.08.04-.13.11-.15.22-.02.16-.07.32-.15.48-.08.16-.14.32-.19.49,0,.03-.02.08-.03.14-.02.06-.03.11-.05.16,0,.05,0,.09,0,.13,0,.04,0,.08.02.12.05.08.09.13.13.15-.02.05-.03.1-.05.15-.02.05-.03.1-.05.15.03.04.04.08.06.12.01.04.03.08.05.1.08.13.17.23.26.3.06.05.11.1.16.15.05.06.1.12.17.2.07.03.14.06.21.08s.14.06.21.1c.07.04.14.08.2.12.06.04.12.08.18.12.05-.03.1-.05.16-.06.05-.01.11-.04.18-.07.03,0,.07,0,.1,0,.04,0,.07,0,.1,0,.1-.01.2-.02.3-.03.1-.01.18-.05.26-.11.11-.06.22-.12.34-.19.12-.07.23-.13.32-.17.1-.01.21-.02.31-.01.1,0,.2,0,.31,0,.08-.1.17-.19.26-.27.09-.08.2-.14.33-.19.14,0,.25.06.34.16.08.06.14.12.2.2.06.08.12.15.19.23.06.09.12.18.19.25.07.07.15.14.23.21.06.05.12.1.19.16.07.06.13.11.17.16.1.22.14.42.12.61-.08.1-.16.2-.24.32-.08.11-.15.23-.23.34-.01.06-.03.13-.04.18-.02.06-.03.12-.04.18-.05.03-.11.06-.16.1-.05.04-.1.08-.15.14-.04.03-.08.05-.13.07-.05.02-.1.05-.15.1-.07.08-.16.17-.27.28-.12-.03-.24-.04-.37-.02-.08.1-.19.16-.31.2s-.25.08-.35.14c-.12.05-.25.06-.37.04-.12-.02-.24-.03-.36-.03l-.26.23-.49-.03c-.05.03-.11.05-.18.07-.06.02-.13.04-.2.08-.06-.01-.14-.02-.22-.03-.08,0-.16-.01-.23,0-.04.01-.09.02-.14.04-.05.01-.1.04-.15.06-.1-.03-.18-.07-.23-.1-.07-.03-.14-.06-.21-.09-.07-.03-.14-.05-.22-.05-.28-.06-.53-.17-.75-.33-.13-.09-.26-.17-.4-.25s-.29-.15-.46-.21c-.09-.05-.2-.13-.32-.24-.08-.18-.19-.34-.33-.47-.14-.14-.29-.27-.43-.4-.01-.1-.05-.19-.11-.25-.06-.06-.12-.13-.17-.21,0-.12-.02-.25-.07-.38-.04-.13-.08-.27-.1-.42,0-.08-.07-.15-.2-.22-.02-.06,0-.1.02-.13.03-.03.05-.07.05-.12.06-.06.08-.14.05-.24-.04-.02-.07-.05-.11-.1-.03-.04-.07-.08-.11-.1.01-.06.02-.14.03-.22,0-.08,0-.15,0-.2l-.1-.39c.03-.1.07-.18.12-.24-.03-.11-.09-.17-.17-.16-.08,0-.15-.01-.21-.06.01-.36.03-.58.04-.67.01-.09.06-.24.14-.46-.03-.16-.06-.32-.1-.48-.04-.16-.03-.34.04-.54.02-.02.05-.06.08-.11.03-.05.06-.11.09-.16,0-.08.02-.15.02-.22,0-.07,0-.14,0-.2.07-.09.13-.19.2-.27.07-.09.14-.18.22-.28.02-.04.05-.07.08-.09.03-.02.07-.05.13-.08.07-.03.12-.08.17-.14.05-.06.09-.12.14-.17.03,0,.07,0,.11,0,.04-.01.09-.02.13-.01.11-.06.19-.14.26-.23.07-.09.14-.2.22-.31.16-.09.32-.17.49-.26.17-.08.32-.18.46-.3.1-.03.2-.03.31-.01.1.02.2-.01.28-.1.02-.04.06-.05.11-.03.14-.04.29-.07.45-.1.15-.03.3-.05.45-.07.22-.03.38-.12.47-.29.01-.02.02-.04.03-.05.01-.02.02-.04.03-.05.03,0,.07.01.11.02.04,0,.07.01.09.02.44.22.9.29,1.37.21.07-.02.15-.02.23-.01.08,0,.15.02.22.03l.57.33c.17.08.26.21.26.39,0,.03.02.06.03.08.01.03.03.05.03.08Z"/>
        <path class="cls-1" d="M90.87,58.84c-.09.29-.25.5-.47.65-.14.1-.27.21-.39.34-.12.12-.24.26-.35.39-.01.06-.06.12-.14.15-.05,0-.1,0-.16,0-.06,0-.13,0-.2,0l-.38.03c-.12-.04-.23-.1-.32-.16-.09-.06-.19-.12-.28-.19-.19-.13-.32-.21-.39-.24-.07-.03-.22-.06-.44-.11-.11-.14-.22-.28-.32-.43-.1-.15-.15-.23-.14-.25.05-.04.04-.11-.04-.19-.08-.08-.13-.12-.16-.13-.1-.03-.16-.05-.17-.05-.09,0-.18.03-.28.05-.1.03-.2.05-.3.08-.07-.03-.14-.05-.2-.06-.07-.01-.14-.02-.22-.03-.1.04-.16.11-.18.2-.02.09-.04.18-.05.25,0,.05,0,.11.03.2.03.1.06.21.1.32.04.11.06.23.06.35,0,.11,0,.21.03.31.02.1.04.21.07.32,0,.06,0,.13,0,.2,0,.08,0,.15,0,.23-.03.12-.04.23-.03.35,0,.12-.01.23-.06.34-.32.18-.53.29-.61.32-.09.04-.24.08-.46.12-.03.02-.05.04-.07.07-.03.02-.06.05-.1.07-.11-.02-.23-.04-.36-.08-.13-.03-.26-.06-.39-.09-.12-.03-.19-.1-.21-.2-.08-.24-.18-.47-.29-.69-.11-.22-.2-.46-.25-.7-.09-.16-.15-.33-.2-.52-.04-.19-.1-.37-.18-.55-.03-.05-.05-.1-.06-.16-.01-.05-.03-.1-.04-.16,0-.12-.01-.26-.04-.4-.02-.02-.05-.06-.08-.1-.03-.04-.07-.08-.11-.1-.08-.13-.13-.26-.15-.37-.02-.12-.04-.23-.06-.34-.02-.11-.06-.22-.13-.35-.02-.07-.03-.13-.04-.19,0-.05,0-.11-.01-.17.03-.19-.03-.37-.16-.53-.06-.11-.13-.21-.2-.31-.07-.1-.15-.21-.22-.31-.02-.06-.03-.12-.05-.19-.02-.07-.03-.14-.04-.22-.04-.16-.08-.31-.11-.46-.03-.15-.08-.3-.13-.44l-.03-.13c0-.11,0-.22-.03-.33-.02-.11-.04-.22-.05-.32.01-.13,0-.25-.02-.38s-.05-.25-.06-.35c-.06-.24-.1-.48-.12-.7.01-.06.01-.12,0-.17-.01-.05-.03-.1-.04-.14-.02-.07-.05-.13-.08-.18-.04-.05-.06-.11-.08-.16-.02-.07-.03-.14-.02-.21,0-.07,0-.13-.02-.19l-.2-.73c-.02-.15-.05-.29-.09-.43-.04-.14-.07-.29-.1-.46-.02-.01-.04-.03-.06-.05-.02-.02-.05-.05-.09-.09-.05-.08-.04-.13.03-.15.26-.19.5-.39.73-.61.03,0,.05-.02.06-.03.01-.01.03-.02.04-.02.12-.06.24-.12.36-.18.12-.05.21-.13.3-.23.02-.05.08-.09.18-.12.16-.04.29-.11.38-.19.09-.06.18-.08.25-.08.08,0,.16,0,.23.02l.05.17c.02.07.04.11.06.12,0,.03.03.04.05.03.26.11.43.33.52.64.02.06.03.11.06.17.02.06.05.12.08.18l.05.17c.02.13.03.26.03.38,0,.12.01.24.03.36.07.14.13.28.19.42.06.14.08.3.06.45l.05.19c.06.09.09.19.1.29.01.1.03.21.06.33l.06.24c.08.13.13.27.15.42.02.15.03.29.03.43.03.07.06.13.09.2.02.06.05.13.09.2,0,.08.01.15.02.24,0,.08.01.16.02.24.03.1.06.2.09.29.03.09.07.19.12.3,0,.08.01.16.02.26.01.1.01.19,0,.29.01.04.05.07.11.08.01,0,.03-.01.04-.03.06-.02.09-.05.09-.09.08-.16.18-.32.31-.47.06-.06.11-.13.15-.2.04-.07.1-.14.17-.21.04-.03.09-.09.15-.2.09-.12.18-.23.27-.35.09-.12.2-.21.31-.29.09-.19.14-.35.17-.48.06-.05.12-.1.17-.15.05-.05.08-.09.11-.11.03-.05.06-.11.07-.16,0-.09.01-.19.02-.28,0-.09.02-.19.04-.29.08-.11.15-.22.22-.33.07-.11.14-.23.22-.36.08-.04.16-.05.24-.03.08.02.17.03.26.03.2.19.43.35.67.49.24.13.49.26.73.38.07,0,.15.05.23.17.08.12.11.22.09.32-.04.03-.08.07-.12.12-.04.06-.09.11-.15.16-.05.23-.1.46-.17.69-.07.23-.13.47-.19.72-.02.1-.04.19-.06.28-.02.09-.06.17-.12.25-.05.04-.08.09-.08.14,0,.05-.01.1-.02.17-.02.16-.05.3-.1.42-.05.12-.1.24-.18.37-.04.04-.07.09-.09.16-.03.07-.05.13-.07.18-.01.02-.01.04,0,.07.05.14.13.24.24.29.11.06.18.14.23.25.08,0,.16.03.23.05s.15.05.21.06c.17.14.36.27.56.39.2.12.39.24.58.36.18.1.35.22.51.36.16.13.3.28.42.45.04.05.08.1.1.16.02.06.03.12.01.18Z"/>
        <path class="cls-1" d="M104.1,48.38c.05.08.08.16.1.25s.02.17,0,.25c0,.11,0,.22.03.33.02.11.05.22.08.34.04.14.07.28.1.42.03.14.06.28.1.42.03.1.06.21.09.32.03.11.05.24.05.38,0,.24,0,.5,0,.76,0,.26,0,.53.03.8,0,.03,0,.07,0,.13,0,.05,0,.11-.01.18-.06.31-.1.64-.15,1-.04.09-.08.18-.12.28-.04.1-.09.2-.14.29-.05.06-.1.11-.15.16-.06.05-.11.09-.16.13-.03,0-.04.04-.04.1.04.02.07.05.1.09s.06.07.08.09c-.07.2-.2.41-.38.63-.05.03-.12.07-.19.11-.07.04-.15.08-.23.12-.12.12-.25.28-.4.48,0,.03-.02.08-.03.14-.02.06-.03.1-.05.14-.08.08-.18.13-.27.14-.1.01-.2.02-.32.04-.04.03-.07.05-.1.08-.03.03-.06.07-.1.11-.03.02-.05.06-.08.1-.03.05-.05.08-.08.1-.15.12-.32.18-.5.2-.18.02-.35.07-.51.16-.08-.02-.17-.04-.25-.05-.09,0-.17-.02-.25-.03,0-.03-.01-.06-.01-.09,0-.03,0-.07,0-.12-.06-.09-.14-.13-.24-.12-.11,0-.21,0-.31,0-.1,0-.2.02-.29.08-.1.03-.17-.03-.21-.17-.06-.12-.13-.17-.2-.15l-.09.02c-.09.07-.18.1-.29.09-.1-.01-.21-.04-.31-.09-.07-.04-.13-.11-.16-.21-.03-.1-.09-.19-.18-.27-.06-.06-.15-.1-.25-.13-.11-.02-.2-.06-.29-.09-.14-.19-.28-.37-.42-.54-.14-.17-.27-.34-.39-.51-.07-.07-.1-.14-.11-.21-.01-.07-.03-.15-.06-.25l-.09-.09-.07-.07c-.18-.26-.32-.53-.42-.81-.1-.28-.15-.58-.15-.9-.03-.04-.06-.08-.09-.11-.03-.04-.07-.07-.1-.09-.05-.06-.06-.14-.05-.22.02-.08.02-.15,0-.21-.08-.19-.12-.36-.11-.5,0-.08,0-.15-.04-.22-.03-.07-.05-.13-.05-.19,0-.18-.02-.36-.05-.53-.03-.17-.06-.33-.09-.49-.07-.32-.11-.64-.12-.96,0-.12.01-.23.05-.33.03-.1.07-.2.1-.3.02-.04.05-.07.09-.09.04-.03.08-.05.12-.08.08-.04.17-.08.26-.11.09-.04.2-.08.32-.13.08,0,.16-.01.26-.02.1-.01.2-.03.3-.06.1-.01.21-.03.31-.05.1-.02.21-.04.33-.05.03.04.05.07.07.1.02.03.04.05.07.07.03.1.05.2.07.29.02.1.04.19.07.29.03.04.05.07.09.1.03.03.06.07.09.13,0,.06,0,.13,0,.21,0,.08,0,.16-.02.23.1.22.19.45.26.7.07.25.15.49.24.73.07.15.13.3.19.44.05.15.12.29.21.44.01.1.05.2.1.29.06.09.11.19.17.28.07.09.13.18.18.27.05.09.1.2.16.3.13.21.3.39.49.54.11.06.19.1.24.12.03,0,.07,0,.1,0,.04,0,.07-.01.1,0,.1-.03.17-.08.21-.15.04-.07.1-.13.16-.16.14-.11.27-.21.4-.29.08,0,.15-.02.22-.04l.15-.04.29-.31c.04-.13.06-.28.05-.43,0-.15.02-.29.1-.42.04-.13.07-.26.1-.39.03-.13.07-.24.14-.34-.03-.21-.05-.4-.08-.57-.03-.18-.04-.36-.03-.54,0-.05,0-.09-.03-.14-.02-.05-.04-.09-.05-.14-.04-.08-.07-.16-.1-.24-.03-.08-.05-.13-.05-.16-.03-.16-.06-.31-.09-.43-.03-.13-.06-.25-.08-.37-.02-.12-.04-.24-.07-.36-.03-.12-.05-.23-.07-.34-.03-.24.03-.42.17-.55.05-.04.09-.08.13-.11s.08-.06.14-.09c.05-.03.11-.05.17-.07.06-.02.13-.04.21-.08.08,0,.16,0,.24,0,.09,0,.18.01.27.02.09,0,.17-.03.25-.07.07-.03.15-.08.23-.13.06,0,.11,0,.16,0,.05,0,.1.01.17.02.02.01.04.02.06.04.02.02.03.04.04.07.03.07.07.14.11.22.04.08.07.17.09.25.06.17.12.34.17.51.05.17.12.33.21.49Z"/>
        <path class="cls-1" d="M115.76,48.59s0,.04,0,.07c.01.03.02.05,0,.07-.02.11-.03.22-.04.32-.01.1-.02.21-.04.32-.02.22-.07.42-.16.6-.06.17-.12.34-.18.5-.06.16-.11.32-.16.47-.11.15-.23.3-.36.43-.13.13-.26.26-.42.38-.08.05-.13.1-.16.16-.05.1-.12.19-.21.24-.06.05-.13.1-.19.15-.06.06-.12.13-.17.22-.13.1-.25.2-.37.3-.12.11-.25.19-.41.25-.04.01-.08.03-.12.04-.03.02-.08.04-.13.07-.06-.01-.14-.02-.21-.02-.08,0-.16-.02-.24-.04-.12.05-.25.1-.37.16-.12.06-.25.12-.39.18-.06-.01-.13-.03-.18-.04-.06-.02-.12-.02-.18-.02-.06-.01-.12-.02-.17-.03-.05-.01-.1,0-.17.06-.04.07-.07.15-.1.23-.02.08-.05.17-.07.27,0,.06,0,.12.02.18.02.06.03.11.04.15l.18.34c.03.1.03.18.02.25-.02.17.02.34.11.5.11.17.18.36.23.56.05.2.1.4.15.6-.02.16,0,.32.03.47.04.16.07.32.08.48.01.04.01.08,0,.11-.07.19-.19.3-.37.35-.16.04-.32.09-.48.13-.16.04-.33.05-.51.02-.05,0-.1,0-.16.02-.06.02-.11.03-.17.05-.12.05-.25.09-.38.11-.13.03-.27.03-.41,0-.07-.01-.14,0-.22.01-.08.02-.15.04-.23.06-.02-.02-.04-.04-.06-.04-.02,0-.03-.01-.03-.03-.07-.1-.14-.21-.2-.31-.06-.11-.11-.21-.15-.3-.02-.07-.05-.14-.1-.2-.05-.06-.09-.13-.12-.2-.03-.11-.04-.23-.02-.35.01-.12.02-.23,0-.33-.04-.1-.08-.19-.11-.28-.03-.09-.05-.18-.06-.27-.02-.09-.06-.17-.1-.25-.04-.08-.09-.17-.15-.26.02-.05.03-.12.05-.2.02-.08.02-.15.02-.21,0-.11-.03-.2-.1-.27-.07-.07-.11-.18-.13-.33.01-.06.02-.13.03-.2,0-.07.01-.14.02-.22-.07-.16-.17-.43-.29-.81s-.22-.74-.33-1.1c-.1-.36-.16-.59-.18-.71-.08-.19-.13-.38-.15-.57-.02-.19-.03-.38-.02-.58,0-.08,0-.14,0-.2,0-.06.02-.12.03-.18,0-.11,0-.26-.02-.44-.01-.19-.01-.29,0-.31,0-.24-.01-.41-.02-.51-.01-.1,0-.19.03-.28.03-.09.09-.25.18-.47.09-.22.16-.49.2-.79.02-.1.03-.18.02-.26.02-.04.04-.06.05-.08.01-.02.02-.04.03-.05l.07-.34c.06-.31.21-.55.47-.75.08-.05.16-.12.23-.21.08-.09.17-.19.28-.29.17-.09.35-.2.53-.33.18-.12.38-.25.59-.37.08-.05.17-.09.27-.12.1-.03.2-.06.29-.1.08,0,.15-.01.22-.03.07-.01.15-.03.24-.05.13-.02.26-.04.39-.06.12-.02.25,0,.39.03.06,0,.12,0,.19-.02.07,0,.13-.02.19-.02.1-.03.21-.06.32-.09s.23-.04.33-.04c.05.02.16.04.33.07.17.03.26.05.28.04.06.01.11.03.13.06.04.02.07.05.11.08.04.04.09.06.14.08.24.09.46.2.65.34.2.14.4.29.59.45.11.11.21.18.31.22.05.03.11.07.16.11.05.04.1.08.16.13.02.09.05.18.07.27s.06.18.09.26c.02.06.04.12.08.18.04.07.08.13.11.2,0,.05.02.17.07.36.05.19.09.32.13.39.12.18.17.36.14.54,0,.09.03.18.11.25.03.05.06.16.1.32.03.16.07.27.1.32ZM112.76,48.53c-.08-.24-.18-.44-.31-.62-.13-.17-.3-.32-.5-.45-.17-.11-.32-.19-.47-.25-.15-.06-.31-.11-.49-.16-.27.03-.5.09-.68.21-.04.07-.14.14-.28.19-.15.05-.23.12-.26.18-.03.13-.08.28-.15.44-.07.16-.12.26-.14.28-.04.21-.03.43,0,.67.04.23.1.43.19.59.07.14.13.26.19.38.06.12.12.23.18.34.01.04.04.08.07.1.03,0,.07.06.11.15.04.1.09.15.14.17.05.08.12.12.19.12.08,0,.18.03.29.07.04-.01.09-.02.13-.02.04,0,.1-.01.15-.03.11-.03.22-.06.32-.08.1-.02.21-.03.31-.03.16.03.33-.02.51-.16.02-.04.06-.07.12-.11.06-.04.1-.08.11-.13.08-.04.12-.1.1-.18-.01-.08-.01-.14.01-.18.12-.28.19-.54.19-.8,0-.25-.02-.49-.06-.71Z"/>
        <path class="cls-1" d="M119.95,44.21c.04.16.09.31.14.47.05.16.07.32.07.49,0,.2,0,.4.02.59.02.19.03.39.04.59-.03.05-.06.12-.1.19-.03.07-.07.14-.09.21-.11.06-.21.11-.3.16-.09.05-.19.11-.27.18-.09.06-.2.1-.32.12-.12.03-.24.05-.36.08-.1.03-.2.06-.3.09-.1.03-.2.07-.32.1-.04.03-.08.04-.13.05-.04,0-.09.01-.13.02-.11,0-.19-.04-.26-.11-.05-.06-.1-.11-.16-.15-.06-.04-.13-.09-.23-.16-.04-.1-.08-.2-.12-.3-.04-.1-.07-.21-.09-.31-.02-.09-.06-.17-.11-.26-.05-.09-.07-.18-.05-.27-.09-.1-.13-.21-.11-.34.01-.13,0-.23-.06-.33-.07-.1-.11-.21-.11-.32,0-.11-.01-.21-.04-.31-.07-.21-.13-.42-.18-.63-.05-.21-.1-.41-.15-.61-.08-.29-.15-.58-.24-.88-.08-.3-.15-.61-.2-.93,0-.08,0-.15-.05-.22-.04-.07-.07-.14-.1-.23-.02-.07-.03-.15-.02-.22,0-.08,0-.14-.02-.2-.02-.07-.04-.13-.07-.18-.03-.05-.06-.1-.09-.15.02-.04.04-.08.06-.13.02-.05.03-.1.05-.15-.06-.05-.1-.1-.13-.15-.08-.06-.13-.13-.15-.23-.05-.19.01-.3.18-.35.02-.02.06-.03.1-.04.04,0,.08-.01.11-.02.06-.02.1-.03.12-.06-.01-.04-.02-.13-.02-.25.04-.03.07-.05.1-.07.02-.02.05-.04.08-.04l1.74-.46s.09,0,.14,0c.03,0,.07.02.1.04.03.05.06.1.1.15.03.04.06.1.08.17.03.18.08.34.16.5.07.16.12.32.13.5,0,.06.02.12.05.18s.06.11.09.15c.07.14.12.28.15.44.03.16.04.33.03.5.07.1.14.22.2.34.06.12.1.26.11.43,0,.03.02.07.04.12.02.05.04.09.07.13.09.17.17.35.22.53.05.18.11.36.18.54.02.06.03.13.04.21.01.08.03.17.04.28.05.06.11.14.18.23.07.09.12.19.15.3ZM121.9,49.78c-.02.08-.04.17-.06.26-.01.09-.04.18-.08.26l.05.45s0,.06,0,.08c0,.03-.02.05-.02.09-.11.21-.16.49-.15.82-.03.12-.08.21-.15.28-.07.07-.16.14-.27.2l-.47.31-.43.11c-.07.02-.15.04-.22.07-.08.03-.17.06-.28.11-.01,0-.04,0-.09,0-.05,0-.09,0-.12-.01-.04-.02-.08-.03-.13-.02-.05,0-.11,0-.17.01-.08-.06-.15-.12-.22-.19-.07-.07-.17-.12-.28-.15l-.05-.03c-.14-.16-.29-.31-.46-.44-.17-.13-.31-.3-.42-.52,0-.03.01-.08.01-.13,0-.05-.02-.09-.05-.11-.03-.13-.07-.22-.1-.27.01-.13.02-.26.03-.4,0-.14.02-.28.05-.43.05-.14.11-.27.17-.39.06-.12.12-.25.18-.37.28-.33.58-.66.91-.98.15-.02.24-.05.28-.07.04-.03.11-.11.21-.24.07-.02.13-.04.19-.07.05-.03.12-.02.19.04.03,0,.06.02.08.04.02.02.04.03.06.04h.02s.05,0,.05,0l.08.05c.08.07.16.09.25.07.09-.02.17,0,.25.07.09.07.19.12.27.17.09.05.18.09.27.15.04.05.08.09.1.11l.08.3s.09.1.14.15c.05.05.1.1.15.17.02.06.04.13.08.21.04.08.07.16.08.23Z"/>
      </g>
      <g>
        <path class="cls-1" d="M55.82,97.33c.1.16.13.34.1.53-.03.19,0,.38.11.57.03.1.03.21,0,.32.01.05.01.1,0,.14-.01.04-.02.08-.01.1.13.39.21.66.23.8.02.14.03.43,0,.86.05.09.1.21.15.34.05.13.11.27.17.41.02.18.02.42,0,.72-.09-.03-.17-.05-.24-.06-.07,0-.13-.02-.19-.03-.16,0-.22.07-.17.25.05.17.12.32.22.44.1.12.21.23.35.33,0,.21.02.43.04.67.02.23.04.48.06.74-.06.26-.14.52-.23.8-.09.28-.24.51-.45.7,0,.13.01.24,0,.34,0,.09-.01.21-.03.35-.18.23-.35.47-.53.72-.17.25-.31.49-.4.73-.1.13-.2.2-.31.2-.11,0-.21.03-.3.08-.14.17-.28.34-.4.51-.13.17-.26.34-.4.51-.15.15-.28.3-.39.46-.12.16-.24.33-.38.5l-.56.15c-.1.13-.19.24-.27.33-.08.09-.18.19-.28.29-.07.02-.13.04-.16.06-.03.02-.08.03-.14.02-.26.04-.43.09-.52.16-.09.06-.27.2-.53.4-.2.13-.41.27-.61.42-.2.15-.4.3-.6.46-.31-.05-.6-.04-.89.04-.29.08-.58.15-.88.23-.18-.06-.35-.11-.52-.14-.11-.02-.2-.04-.27-.05-.07,0-.16-.01-.26,0-.05.01-.12.03-.21.05-.09.02-.17.07-.26.15-.04.04-.1.09-.16.16-.06.07-.11.15-.14.24-.49.05-.99.11-1.51.18-.51.07-1.03.12-1.56.16-.21,0-.42,0-.62-.01-.2-.01-.41-.02-.62-.01-.14.06-.28.13-.43.19-.14.06-.29.15-.45.24-.38.16-.72.06-1-.29-.01-.05-.03-.1-.06-.14-.03-.05-.04-.08-.05-.11-.02-.29-.04-.56-.06-.82-.02-.26-.04-.51-.08-.74-.01-.05.02-.14.09-.26l-.04-.15c-.12-.05-.23-.1-.34-.15-.11-.05-.21-.1-.3-.16l-.93-3.34v-.04s.25-.07.25-.07c-.04-.04-.09-.08-.15-.1-.06-.02-.12-.04-.17-.05.03-.49.04-.78.04-.89,0-.16-.03-.28-.12-.37-.09-.08-.16-.17-.21-.26.02-.11.05-.22.07-.32.03-.1.04-.2.04-.31-.06-.12-.13-.22-.2-.31-.08-.09-.15-.17-.23-.26-.06-.12-.09-.25-.09-.4,0-.15-.01-.27-.04-.37.02-.14,0-.26-.06-.38-.06-.12-.11-.26-.16-.44-.15-.25-.34-.52-.57-.8.03-.17.06-.33.07-.5,0-.16.02-.32.03-.49l-.25-.49c0-.21,0-.43,0-.66,0-.23,0-.43-.02-.61-.2-.35-.34-.7-.42-1.06-.08-.36-.18-.73-.27-1.1-.05-.2-.05-.44,0-.72.04-.06.05-.13.05-.19,0-.07,0-.11.02-.15-.19-.21-.32-.38-.37-.5-.04-.15-.06-.31-.05-.49,0-.17-.07-.31-.23-.4-.15-.25-.24-.5-.28-.74-.04-.24-.07-.49-.08-.76.09-.16.16-.32.21-.48.05-.16.11-.33.16-.5.12-.06.24-.12.37-.2.13-.07.24-.11.35-.11.42-.03.82-.21,1.22-.53.1-.11.23-.17.37-.18.14-.01.3-.01.46,0,.45-.2.9-.4,1.36-.6.45-.2.89-.42,1.3-.67.11-.08.23-.13.36-.14.13,0,.28-.04.46-.08l.59-.48c.13,0,.26-.01.4,0,.13,0,.27.01.41.03.14-.06.28-.14.42-.23.14-.09.29-.17.45-.24.11.02.23.06.35.11.12.05.23.08.35.11.27-.1.51-.22.72-.35.22-.14.44-.25.69-.34.13.07.23.16.31.26.08.1.18.17.3.22.13.1.29.12.47.05.18-.06.29-.18.33-.35.02-.14.08-.21.2-.21.12,0,.27.08.44.24.15-.04.29-.09.44-.16.14-.06.3-.12.47-.17.14.04.27.08.37.12.1.04.22.1.34.17.13.07.25.14.37.2.12.06.26.11.4.15.17.03.3.12.39.26.14.12.3.23.47.33.17.1.34.2.5.29.26.17.6.27,1.03.28.06.01.12.02.19.03.07,0,.12.02.15.04.1.19.21.36.32.53.11.17.21.35.29.54.03.23.05.43.04.59.11.21.26.36.44.46.19.1.36.2.52.32.49.45.84,1.04,1.03,1.76.07.25.14.49.23.72.09.23.14.46.15.7.03.21.1.4.22.58.11.18.17.38.18.59ZM50.12,98.1c-.08-.11-.19-.22-.31-.34-.12-.11-.23-.24-.32-.37-.11-.13-.22-.27-.31-.42-.09-.15-.19-.3-.28-.46-.41.06-.79.02-1.12-.1-.34-.12-.67-.25-1-.37l-.56.15c-.3-.13-.59-.25-.85-.35-.27-.1-.55-.21-.84-.31-.44.06-.85.17-1.25.32-.4.15-.78.23-1.15.25-.2.13-.38.24-.53.32-.15.08-.29.17-.43.25-.12.14-.2.24-.24.3.02.39.1.77.22,1.14.12.37.25.73.37,1.1.14.12.2.26.17.41-.03.15,0,.29.05.41.04.07.08.14.12.21.03.07.08.17.14.28-.01.16,0,.33.03.49.03.17.06.35.09.56.11.4.17.78.19,1.15.11.1.2.21.28.3.08.1.16.2.24.31-.01.24-.03.5-.06.75-.02.26-.03.5-.03.71.03.12.07.25.12.37.05.12.07.25.08.38.05.3.06.62.02.95l.22.22c.25.33.58.39,1,.17.27-.07.49-.17.64-.29.16-.1.33-.15.5-.15.17,0,.34-.04.51-.12.19-.1.38-.23.6-.38.21-.15.41-.29.59-.42.12-.06.22-.11.32-.16.09-.05.19-.08.3-.08.23-.03.47-.1.71-.19.24-.09.48-.18.73-.27.04-.06.1-.13.19-.19.09-.06.16-.13.23-.2.33-.27.57-.65.74-1.12.08-.21.13-.43.16-.66.03-.23.07-.45.12-.65.09-.48.12-.93.11-1.37-.01-.44-.1-.87-.27-1.31-.05-.09-.08-.19-.1-.29-.01-.1-.02-.21-.02-.31,0-.11,0-.21,0-.32,0-.11-.03-.21-.08-.3Z"/>
        <path class="cls-1" d="M72.21,86.49c-.12.16-.27.27-.47.33-.2.05-.39.1-.58.15-.19.05-.33.13-.44.24l-.66.06c-.09.05-.17.09-.25.13-.07.03-.17.08-.28.14-.07.02-.22.03-.43.04-.31.03-.57.11-.77.25-.27.18-.6.31-.98.38-.24.01-.47.08-.68.2-.22.13-.42.24-.61.34-.11,0-.2,0-.29.02-.09.01-.16.01-.22,0-.14.06-.27.15-.39.26-.12.11-.24.24-.36.38-.05.12-.08.26-.11.41-.03.15-.07.31-.14.46.05.3.12.61.21.92.08.31.15.61.2.89.03.21,0,.38-.08.52-.08.14-.1.29-.06.44.13.18.29.25.5.23.16.01.33,0,.51-.04.18-.03.36-.06.54-.08.18-.13.36-.26.54-.38.18-.13.35-.25.5-.37.27-.07.51-.14.71-.19.2-.05.39-.12.59-.2.07-.02.15-.05.22-.08.07-.03.14-.07.21-.12.31-.24.64-.41.98-.5.35-.09.7-.16,1.06-.2.27,0,.48.15.63.43.01.05.03.1.06.16.03.06.07.12.11.19,0,.08,0,.18,0,.28,0,.11.02.22.05.35.13.39.23.79.3,1.2.07.41.17.82.31,1.23.07.17.1.35.08.54-.02.19-.04.36-.09.5l-.09.1c-.14.06-.27.09-.4.09s-.24,0-.37.04c-.15.04-.26.11-.34.21-.08.1-.17.19-.29.28-.17.07-.34.13-.53.18-.19.05-.38.09-.59.12-.11-.02-.22,0-.32.08-.1.08-.19.16-.28.23-.23.04-.46.06-.68.08-.22.02-.44,0-.67-.04-.15.04-.3.08-.45.12s-.31.1-.47.17c-.32.11-.65.2-1.01.27-.29.02-.51.16-.69.42-.04.04-.07.12-.09.24-.02.13,0,.22.04.29.15.17.26.37.34.59.07.22.14.43.19.63.04.07.09.12.12.17.04.04.08.09.11.13-.01.06-.03.11-.05.17-.02.06-.04.12-.05.17-.03.28.07.41.31.4.32,0,.64-.01.97-.02.33,0,.66-.03,1-.07.07-.04.15-.09.24-.14.09-.05.18-.09.25-.11.35-.09.69-.22,1.04-.38.34-.16.69-.28,1.04-.38.07-.02.16-.05.26-.09.1-.04.2-.06.3-.06.22.02.44.01.67-.02.23-.03.46-.08.68-.14.15-.04.29-.07.43-.1.14-.02.29-.04.44-.06.21,0,.34.07.38.22,0,.13,0,.27-.03.43-.03.15-.05.29-.07.4.02.18.08.31.18.39.1.08.18.17.23.26.04.26.07.5.1.73.02.23,0,.45-.08.66.04.15.11.25.2.31.09.05.17.13.22.22-.04.06-.06.14-.08.24-.01.1-.03.2-.06.31.1.19.2.38.3.6.1.21.1.44,0,.68-.07.04-.14.11-.21.2-.07.09-.16.13-.26.13-.26.02-.5.08-.73.19-.22.11-.44.21-.66.3-.17.07-.32.16-.44.28-.13.11-.26.22-.4.31-.24.12-.47.22-.72.31-.24.09-.49.2-.75.32l-.55.03c-.22.08-.47.19-.75.32l-1.07.05c-.12-.05-.23-.1-.34-.17-.11-.06-.23-.1-.37-.12-.03-.02-.08-.01-.14.02-.06.03-.08.06-.08.08.07.25-.03.45-.28.59-.14-.02-.28-.02-.44,0-.16.01-.3.03-.43.04-.13,0-.27.04-.41.09-.15.05-.28.1-.4.13-.3.08-.6.12-.91.12-.31,0-.64-.08-1-.25-.04-.07-.1-.13-.17-.19-.07-.06-.14-.13-.22-.22-.11-.02-.22-.06-.33-.11-.11-.05-.22-.09-.33-.11l-.47-.11c-.14-.12-.23-.25-.26-.39-.04-.14-.08-.26-.14-.38-.06-.12-.11-.24-.16-.38-.05-.13-.11-.27-.17-.41-.03-.31-.08-.62-.15-.92-.07-.3-.16-.61-.27-.93-.1-.27-.17-.55-.21-.84-.04-.3-.05-.59-.02-.89-.05-.09-.11-.17-.16-.24-.06-.06-.1-.15-.13-.25-.03-.12-.04-.25-.02-.39.02-.14-.02-.26-.1-.37-.01-.05,0-.09.03-.13.03-.03.05-.07.07-.1.03-.19-.02-.29-.15-.28-.27,0-.43-.1-.47-.27,0-.16-.02-.31-.08-.46-.06-.14-.12-.3-.17-.47-.03-.12-.05-.25-.06-.38,0-.13-.05-.25-.14-.36,0-.02-.02-.06-.05-.11-.03-.05-.03-.08-.01-.12.05-.31.03-.58-.08-.82-.1-.24-.23-.47-.37-.7.04-.25.04-.48.01-.7-.03-.22-.08-.44-.14-.66l-.27-1.01c0-.08,0-.16-.03-.25-.02-.09-.03-.16-.02-.21.05-.6-.11-1.17-.5-1.7-.04-.04-.07-.11-.1-.21,0-.16.03-.32.05-.47.02-.15.03-.31.02-.46,0-.21,0-.44,0-.68,0-.24-.01-.46-.04-.67l-.07-.26c-.06-.12-.1-.25-.12-.39-.02-.14-.07-.27-.12-.39-.06-.12-.1-.24-.12-.37-.02-.13-.04-.24-.07-.34-.03-.1-.05-.18-.08-.24-.03-.06-.07-.12-.11-.19,0-.19.07-.35.19-.49.12-.14.18-.29.16-.44.25-.28.51-.49.81-.64.29-.14.56-.33.79-.55.23-.22.5-.39.79-.49.29-.1.56-.24.81-.42.19,0,.37,0,.54.01.17,0,.36.01.54.01.1-.03.2-.06.31-.1.11-.04.21-.09.3-.14.18-.02.35-.03.51-.02.16.01.33-.02.49-.09.25-.15.51-.22.78-.21.12-.03.24-.06.34-.07.1-.01.21-.02.31-.02.3-.37.68-.55,1.13-.54.22.02.42,0,.62-.08.19-.08.4-.11.62-.08.21,0,.41-.04.59-.1.18-.06.36-.12.54-.16.21-.11.43-.17.67-.18.21,0,.44-.02.68-.06.24-.04.46-.08.66-.14.12-.03.32,0,.59.12.71,1.27,1.13,2.6,1.26,3.97Z"/>
        <path class="cls-1" d="M89.09,81.09c-.06.36-.19.68-.38.96-.19.28-.34.58-.44.9-.19.1-.35.24-.51.42-.15.17-.29.34-.4.51-.21.22-.43.28-.67.18-.11-.02-.21-.06-.29-.1-.08-.05-.17-.08-.29-.1-.25-.12-.52-.11-.83.02-.02.03-.06.03-.12,0l-.1-.37s-.07-.05-.12-.09c-.05-.04-.1-.05-.15-.04-.55-.07-1.02.05-1.43.34-.14.06-.28.14-.42.23-.14.09-.27.18-.41.27-.06.18-.11.35-.16.52-.05.17-.1.33-.17.48.08.19.15.39.22.58.07.2.14.39.22.58.16.12.32.24.48.37.15.13.31.27.45.42.27.11.55.22.84.31.29.1.58.21.85.35.18.06.35.1.53.12.18.02.35.07.5.16.16.09.3.16.44.22.14.06.27.13.4.23.08,0,.17.02.25.05.09.03.18.06.26.09.5.16.92.45,1.27.86.18.17.36.34.56.53.2.19.38.36.56.53.21.1.38.24.49.43.11.18.24.36.36.54.03.02.06.06.08.14.13.28.29.55.47.79.19.24.38.49.57.73.16.3.29.61.38.92.1.31.16.62.19.93.07.25.1.5.1.75,0,.25-.02.49-.07.72-.02.03-.02.06-.02.08,0,.03,0,.07-.04.13-.16.28-.28.58-.34.89-.06.31-.15.62-.25.94-.02.03-.02.07-.01.1.01.04,0,.08-.05.11-.2.24-.36.48-.46.72-.11.24-.24.49-.38.74-.07.13-.17.25-.3.36-.13.11-.24.24-.34.37l-.68.58c-.24.09-.49.2-.73.32-.25.12-.49.28-.73.47-.15.15-.32.27-.52.38-.2.11-.39.21-.57.31-.09.05-.19.1-.28.15-.09.05-.19.1-.28.15-.39-.16-.78-.19-1.18-.08-.27.07-.52.09-.75.04-.33-.04-.65-.1-.96-.16-.31-.06-.61-.18-.89-.34-.18-.08-.36-.16-.54-.22-.18-.06-.34-.12-.49-.19-.13-.07-.26-.11-.41-.11-.15,0-.29,0-.43-.03-.21-.08-.34-.19-.41-.33-.03-.21,0-.41.09-.62.09-.21.16-.43.2-.65-.04-.15-.05-.35-.04-.59.14-.36.3-.72.46-1.1.17-.38.33-.76.49-1.15.08-.1.17-.21.27-.33.1-.12.21-.25.33-.39.53,0,1.04,0,1.53.03.49.03.98.04,1.49.04.09-.05.16-.1.2-.15.04-.05.07-.09.09-.12.07-.04.12-.09.17-.12.04-.04.07-.07.09-.1l.67-.18c.01-.06.03-.11.06-.16.03-.05.05-.1.06-.16.03-.27.07-.54.11-.79.04-.25.04-.51-.01-.79-.1-.19-.22-.38-.34-.59-.12-.21-.3-.4-.53-.58-.12-.05-.25-.1-.41-.17-.15-.07-.3-.13-.45-.2-.44.06-.89.07-1.38,0-.48-.06-.93-.03-1.35.08-.19,0-.35-.05-.47-.13-.13-.09-.27-.16-.42-.23-.19,0-.38,0-.59.04-.21.03-.39-.03-.56-.17-.46-.12-.84-.19-1.14-.22-.16-.12-.32-.23-.47-.35-.15-.12-.31-.22-.46-.32-.13-.1-.27-.23-.4-.39-.14-.16-.29-.31-.46-.46-.13-.1-.26-.22-.38-.36-.12-.14-.24-.29-.36-.44-.17-.33-.34-.68-.52-1.06-.02-.29-.05-.58-.09-.87-.04-.3-.09-.6-.14-.9l-.25-.33c.09-.08.14-.17.16-.28.02-.11.05-.22.07-.34,0-.16.04-.3.09-.42.05-.12.04-.26-.04-.43-.13-.47-.12-.94.02-1.4.02-.11.04-.21.06-.3.02-.08.03-.17.03-.25.1-.11.19-.22.25-.33.06-.11.1-.18.12-.21.09-.16.11-.29.05-.39-.05-.1-.08-.21-.08-.32.06-.18.13-.35.22-.54.08-.18.18-.38.28-.59.14-.17.3-.33.47-.47.18-.14.33-.32.45-.54.03-.09.08-.16.14-.22.06-.06.14-.11.24-.16.1-.11.22-.21.36-.3.14-.09.27-.19.4-.31.23-.12.48-.22.73-.32.25-.09.5-.19.74-.28.02,0,.05-.02.09-.04.03-.02.08-.03.14-.02.3.03.58-.05.84-.22.26-.17.54-.29.85-.35.27-.07.55-.11.83-.1.28,0,.55,0,.81-.02.33.13.65.23.96.32.32.09.65.14,1,.15.13.07.25.15.36.24.12.09.24.18.37.28.13.07.25.13.37.18.12.05.23.11.33.19.3.32.59.63.87.94.28.31.56.62.82.92Z"/>
        <path class="cls-1" d="M104.14,75.43c.12.15.21.33.28.52.07.2.06.41,0,.64-.02.11-.02.21.02.29.04.08.07.19.1.31-.03.09-.07.17-.13.25-.06.08-.1.18-.12.29-.04.06-.06.14-.08.22-.02.08-.07.17-.16.24-.13,0-.28.04-.46.08-.17.05-.34.09-.48.13-.37.1-.68.29-.93.57-.07.13-.15.22-.24.28-.09.06-.18.13-.26.21-.11.19-.12.35-.03.49l.19.71c.08.22.17.43.27.63.09.2.16.43.2.68-.01.06,0,.12.05.21.05.08.09.14.13.18,0,.11,0,.2-.03.27-.02.07-.03.16-.03.27.05.09.1.18.15.26.05.08.1.17.15.26.03.12.04.21.03.27-.01.16-.01.32-.01.48,0,.16,0,.32-.01.48-.03.19,0,.36.09.49.09.14.12.29.08.46.14.52.25,1.04.33,1.55.08.51.18,1.02.29,1.52.17.65.46,1.27.86,1.89.16.2.35.27.57.21.04-.04.09-.09.14-.16.05-.07.11-.12.18-.17.07-.02.14-.01.21.02.26.17.52.26.79.27.42,0,.59.16.49.51-.03.19,0,.39.06.58.07.2.11.4.14.6.1.56.22,1.12.37,1.68.15.56.34,1.11.57,1.67.07.27.1.46.09.56-.01.1-.13.28-.35.55l-.11.03c-.21.03-.4.05-.6.08-.19.02-.38.05-.56.07-.45.2-.86.35-1.24.45-.17.07-.32.16-.47.26-.15.11-.32.17-.53.2-.21,0-.41.06-.6.16-.19.1-.38.18-.58.23-.11-.02-.22-.04-.31-.04-.09,0-.21-.01-.35-.03-.57.26-1.15.48-1.74.66-.59.18-1.19.37-1.81.56-.17-.14-.34-.26-.5-.37-.16-.1-.31-.22-.45-.34-.1-.16-.23-.28-.4-.37-.17-.09-.33-.16-.48-.23-.09-.24-.2-.46-.34-.67-.1-.19-.16-.38-.16-.6.04-.14.03-.27-.02-.39-.11-.21-.18-.44-.2-.68-.03-.25-.04-.49-.05-.72l-.12-.45c.19-.1.37-.2.56-.29.19-.09.39-.14.6-.14.09-.08.16-.16.22-.24.06-.08.13-.17.21-.27.14.02.27.03.41.05.14.02.29.03.45.04.21-.22.44-.49.7-.83,0-.16,0-.28-.02-.36-.07-.27-.15-.55-.22-.84-.08-.29-.14-.57-.19-.85l-.03-.11c-.17-.22-.27-.45-.3-.68-.04-.23-.1-.47-.19-.71l-.13-.48c-.1-.58-.24-1.15-.4-1.71-.16-.56-.33-1.12-.51-1.68l.13-.55c-.06-.12-.12-.23-.17-.35-.06-.12-.12-.23-.17-.35,0-.13,0-.25,0-.36.01-.11.01-.23,0-.36-.03-.1-.06-.17-.1-.21-.2-.26-.33-.52-.37-.78l-.15-.56c-.03-.1-.07-.17-.14-.22-.07-.05-.11-.12-.14-.22.01-.06,0-.17-.05-.35-.07-.14-.13-.28-.19-.43-.07-.14-.14-.28-.23-.42-.16-.09-.31-.1-.44-.02-.14.08-.27.12-.4.13-.14-.02-.28,0-.43.04-.15.04-.31.08-.48.13-.2-.05-.4-.04-.61.02-.21.07-.42.09-.64.07-.13-.1-.22-.23-.25-.41-.03-.18-.1-.29-.19-.35-.08-.09-.11-.22-.1-.39,0-.17-.03-.32-.11-.43.07-.15.06-.24-.03-.27-.09-.03-.11-.13-.08-.3.04-.14.04-.3,0-.46-.04-.16-.03-.3.04-.43.04-.06.03-.15,0-.26-.04-.11-.06-.22-.07-.32.04-.06.14-.12.31-.18.17-.06.26-.12.27-.17.07-.15.16-.27.28-.36.12-.09.25-.19.38-.3.05-.01.11-.04.18-.07.07-.03.16-.06.26-.09.2-.05.41-.11.63-.17.22-.06.43-.13.62-.21.19-.1.37-.2.56-.29.19-.09.39-.18.61-.26.21-.11.44-.16.68-.14.35.01.74-.11,1.18-.36.09-.05.17-.1.24-.14.07-.04.12-.09.17-.12.18-.02.34-.04.49-.05.14-.01.26-.03.36-.06.07-.02.15-.05.23-.1.08-.05.15-.08.2-.09.25-.07.48-.12.69-.17.21-.04.44-.07.68-.08.49-.05.92-.14,1.29-.26.12-.06.22-.09.31-.1.09-.01.15-.02.17-.03.18-.02.33,0,.44.06.11.06.2.11.26.15.5.29.7.68.59,1.16-.02.03,0,.12.03.27.04.04.07.09.1.15.03.06.07.13.12.23Z"/>
        <path class="cls-1" d="M130.05,81.84c0,.11,0,.27-.01.48,0,.22,0,.44,0,.68,0,.11,0,.2.02.29.01.09.03.17.05.25,0,.13.03.25.06.36s.05.21.07.28c-.09.37-.17.73-.25,1.08-.08.35-.11.71-.09,1.08,0,.42-.06.83-.19,1.23-.13.4-.25.79-.36,1.19-.07.13-.14.24-.19.35-.05.11-.1.22-.15.34-.25.17-.48.36-.69.56-.21.2-.39.43-.54.68-.02.03-.06.07-.11.11-.06.04-.1.08-.15.12-.25.17-.49.36-.73.55-.24.2-.48.39-.72.59l-1.05.12c-.17.07-.33.16-.49.27-.16.11-.3.21-.44.3-.18.02-.34-.03-.48-.15-.09-.03-.18-.07-.27-.11-.09-.04-.19-.02-.3.06-.14.06-.28.06-.4-.01-.13-.07-.26-.12-.4-.13-.07.04-.13.08-.19.11-.06.03-.15.07-.26.13h-.64c-.22.07-.43.16-.6.29-.14-.02-.28-.05-.42-.09-.14-.04-.3-.04-.48,0-.17.05-.35.06-.53.04-.18-.02-.36-.02-.54,0-.16.02-.31.03-.45.04-.14.01-.28.02-.41.03-.11-.02-.2-.07-.27-.13-.07-.06-.14-.12-.21-.18-.11-.02-.19-.03-.24-.02-.09-.05-.2-.09-.31-.1-.11-.01-.23-.01-.36,0-.19-.03-.37-.08-.52-.16-.15-.08-.31-.15-.46-.22-.23-.15-.43-.3-.62-.45-.19-.15-.4-.28-.65-.41l-.29-.32c-.16-.12-.3-.21-.42-.29-.11-.08-.28-.14-.51-.18l-.45.12s-.06-.01-.09-.05c-.04-.04-.05-.08-.03-.11,0-.11,0-.22-.01-.34,0-.12,0-.23-.01-.34-.03-.12-.09-.23-.18-.31-.09-.08-.17-.18-.26-.29-.16-.52-.38-1-.65-1.44-.27-.45-.54-.9-.82-1.36l-.29-1.08c.05-.09.1-.2.14-.32.04-.12.07-.22.1-.31-.06-.12-.11-.24-.16-.36-.05-.12-.07-.25-.08-.38-.04-.15-.09-.3-.16-.46-.07-.15-.14-.32-.21-.48,0-.02,0-.08,0-.18,0-.09-.01-.19-.04-.29,0-.08,0-.17,0-.26-.01-.09-.04-.18-.09-.27-.1-.19-.17-.37-.19-.57-.03-.19-.05-.4-.09-.63,0-.19,0-.37.01-.54,0-.17-.03-.35-.1-.51-.04-.15-.04-.25,0-.32.08-.18.12-.36.09-.54-.02-.18-.04-.35-.06-.5.06-.26.15-.52.24-.8.1-.28.24-.54.41-.77.05-.12.1-.24.14-.36.05-.12.1-.23.15-.32.33-.57.55-1.14.66-1.73.08-.1.16-.19.23-.26.07-.07.15-.16.23-.26,0-.08.04-.14.11-.19-.03-.52.2-.93.71-1.23.05-.01.12-.04.2-.07.08-.04.17-.08.26-.13.06-.07.14-.16.22-.28.09-.12.18-.21.26-.29.05-.12.13-.23.23-.32.11-.09.22-.18.33-.27.14-.06.26-.16.36-.28.1-.12.21-.22.32-.3.28-.13.55-.19.79-.17.54.04.99-.12,1.35-.48.15-.15.31-.25.5-.31.18-.06.32-.17.41-.33.3.03.58.04.85.05l.78-.05c.26-.02.53-.01.8,0,.27.02.53.04.77.05.27.03.55.07.82.1.27.03.53.09.76.16.11.02.21.03.3.02.09-.01.18,0,.27.03.14.02.26.03.37.04.11.01.21.03.3.06.1.08.2.16.28.24.09.08.2.16.32.23.06.04.14.06.22.08.08.02.17.04.26.07.2.05.38.13.52.24.15.11.25.26.3.46.03.1.09.17.2.23.11.05.19.14.25.25-.06.28-.09.54-.11.79-.01.35-.15.65-.4.9-.02.03-.03.07-.03.11,0,.04-.01.09-.02.15.12.26.15.51.08.74-.07.23-.17.47-.29.72.03.1.05.19.07.28.02.09-.02.16-.14.22-.03-.02-.09.02-.17.11-.08.09-.13.16-.14.22,0,.11-.05.19-.15.26-.1.07-.2.09-.28.06-.16-.12-.36-.14-.58-.08l-.05-.03s-.06-.04-.1-.07c-.04-.03-.07-.04-.09-.04-.16,0-.29,0-.39.03-.37.1-.74-.02-1.09-.35-.04-.04-.1-.09-.2-.15-.36-.04-.7-.08-1.04-.14-.33-.06-.68-.06-1.04-.02-.24.09-.48.16-.7.21-.23.05-.46.16-.71.33l-.36.61c-.15.12-.31.22-.46.3-.15.08-.3.17-.43.26-.1.13-.22.24-.35.31-.14.08-.27.2-.38.36-.06.07-.13.22-.2.45l.11.41c-.13.11-.26.19-.38.22-.02.11-.03.21-.02.3.01.09.03.19.06.28.09.35.13.68.11,1.01.02.18.05.37.07.58.03.21.04.41.05.63-.02.03-.01.08.02.14.03.06.05.11.06.16.08.11.11.18.1.21.02.18.04.37.07.56.02.19.09.37.18.53.1.16.18.32.25.49.07.17.15.35.22.54.08.09.13.18.17.27.04.1.09.2.15.32.14.12.29.23.45.32,0,.11.02.21.05.33.03.11.05.23.06.36.08.19.2.35.37.48.17.13.31.28.44.46.15.07.31.11.47.13.17.02.31.1.42.23.24.1.47.19.7.29s.45.21.67.34c.11,0,.21,0,.3,0,.09,0,.2.01.31.04.26-.12.52-.24.78-.37.26-.12.53-.26.81-.42.07-.02.15-.03.23-.04.08,0,.17-.01.28-.01.07-.02.15-.05.24-.08.08-.04.13-.08.14-.14.08-.1.14-.2.18-.31.04-.1.1-.21.18-.31.06-.07.12-.13.19-.19.06-.06.11-.12.15-.18.1-.21.18-.42.23-.62.05-.2.11-.4.16-.6-.04-.15-.1-.29-.18-.43-.08-.14-.16-.26-.24-.38-.11-.21-.31-.3-.59-.28-.21,0-.35.03-.42.07-.32.19-.65.32-.99.39-.34.06-.67.17-.98.3-.12-.05-.27-.07-.46-.08-.1-.08-.13-.15-.1-.21.03-.19.05-.37.06-.53,0-.16-.02-.33-.09-.49-.11-.4-.17-.79-.2-1.19-.03-.39-.05-.77-.07-1.14.08-.29.27-.47.57-.55.23-.12.47-.24.7-.37.23-.13.44-.28.63-.47.22-.08.44-.15.67-.2.23-.05.45-.05.68,0,.33-.06.65-.11.97-.16.32-.05.64-.12.95-.24.06.01.12.02.19.03.07,0,.12.03.16.08.05-.09.14-.21.27-.35.14.02.28.05.42.09.14.04.27.07.38.1.06.01.13,0,.21-.02.09-.02.17-.03.25-.03.23.05.45.12.68.22.23.1.43.15.62.15.28.16.43.36.45.58.02.22-.02.44-.12.65.04.15.07.3.1.45.03.15.07.3.14.44.05.09.12.21.19.35.08.14.13.35.15.64Z"/>
        <path class="cls-1" d="M151.63,62.82c-.03.3,0,.58.11.85.1.27.2.53.29.8l.05.19c0,.13,0,.28,0,.44-.01.16-.02.32-.03.49.19.4.34.81.45,1.22.11.41.22.81.32,1.21.05.2.1.39.14.58.04.19.09.37.16.54.05.17.1.34.18.51.07.17.15.35.22.54.02.26.05.55.09.87.05.32.05.65,0,.98.08.3.12.61.11.93,0,.32.07.62.22.9.04.26.09.51.14.76.05.25.1.52.15.8.03.23.08.46.12.69.05.23.13.45.24.66.06.22.09.48.09.78-.04.33,0,.61.14.84.1.48.2.97.3,1.48.1.51.12,1.02.07,1.54,0,.11.02.23.06.38.03.12.07.21.11.25l-.19.33c-.19.08-.38.15-.56.23-.18.07-.37.15-.56.23-.07.04-.14.11-.21.2-.07.09-.17.2-.29.34-.32.19-.65.37-.98.52-.33.16-.66.32-.99.48-.19,0-.35.01-.49.05-.14.04-.27.06-.4.07-.11,0-.22.01-.33.03-.12.02-.24.03-.37.04-.04.04-.1.08-.17.12-.07.05-.12.09-.17.12l-.46-.24c-.15-.17-.25-.35-.28-.52-.03-.18-.09-.35-.16-.52-.14-.12-.29-.19-.45-.2-.16,0-.32-.05-.47-.11-.23-.15-.42-.33-.58-.52-.16-.2-.36-.36-.61-.48-.21-.1-.4-.24-.57-.41-.16-.17-.35-.3-.57-.41-.2-.24-.4-.46-.62-.67-.22-.21-.42-.42-.61-.64-.18-.19-.37-.35-.57-.49-.18-.08-.36-.19-.54-.31-.18-.12-.36-.24-.55-.35-.07-.17-.17-.3-.31-.4-.13-.1-.27-.21-.41-.33-.29-.29-.61-.55-.97-.78-.35-.22-.69-.48-1-.77-.04.04-.09.06-.14.08s-.08.05-.09.1c-.09.26-.09.57,0,.92.02.07.05.15.1.21.04.07.05.15.02.23-.04.06-.09.13-.15.2-.06.07-.12.14-.18.21-.03.28,0,.55.1.81.1.27.16.54.18.83.04.26.1.52.17.79.07.27.14.53.21.78l-.19.77c0,.37.06.73.2,1.06.14.33.32.66.54.97-.03.19-.04.41-.03.65.02.18.04.37.07.56.02.19.08.39.15.58.16.49,0,.9-.47,1.24-.05.01-.12.05-.21.1-.26-.06-.53-.08-.81-.04-.28.04-.58.03-.88-.02-.28-.06-.55-.06-.8,0-.25.05-.49.11-.71.17-.14-.02-.29-.05-.45-.1-.16-.05-.31-.07-.44-.06-.14-.02-.27-.02-.4-.01-.13,0-.27,0-.4-.01-.04-.04-.07-.1-.11-.17-.03-.07-.06-.12-.1-.13-.14-.42-.25-.82-.34-1.21-.09-.39-.2-.77-.32-1.13-.07-.27-.14-.55-.2-.82-.06-.28-.13-.55-.2-.82l-.1-.37c-.06-.12-.14-.23-.25-.35-.11-.12-.17-.25-.19-.41-.02-.16-.04-.31-.08-.46s-.08-.29-.11-.41c0-.16-.02-.31-.1-.45-.08-.14-.13-.27-.17-.4-.02-.26-.02-.53-.01-.8,0-.27.05-.52.12-.75l-1.04-3.88c-.03-.1-.06-.17-.1-.21-.19-.21-.3-.44-.34-.67,0-.13-.02-.27-.05-.41-.02-.14-.04-.28-.05-.41-.1-.16-.19-.32-.29-.48-.1-.16-.19-.32-.29-.48,0-.16-.04-.32-.15-.48-.11-.16-.17-.33-.2-.51,0-.16.06-.32.16-.46.09-.15.13-.31.11-.49-.08-.19-.22-.36-.42-.51-.2-.15-.33-.34-.4-.59.07-.23.16-.38.28-.44.26-.12.49-.27.7-.45.21-.17.4-.37.58-.58.02-.03.11-.09.27-.19.11,0,.22,0,.34-.01.12,0,.26-.01.41-.03.18-.13.37-.23.57-.31.2-.08.43-.16.68-.22.2-.05.39-.12.57-.19.18-.07.39-.16.63-.25.13,0,.27-.02.41-.03.14-.01.29-.02.45-.04.22.05.44.12.63.21.2.09.36.23.49.41.24.31.51.58.82.82.3.24.56.5.77.79.15.07.3.12.46.16.16.04.29.11.4.21.25.15.52.26.81.34.29.08.57.15.85.21.3.24.59.48.85.73.27.25.56.44.89.56.15.17.29.35.42.53.13.18.25.33.36.46.14.12.28.17.42.15.14-.02.26-.04.37-.04.06.01.1.02.15.02.04,0,.08.01.11.03.24.12.46.27.64.45.18.18.37.38.56.59.14.04.28.09.4.15.12.06.26.11.4.15.06.01.11,0,.17-.03.06-.03.1-.05.13-.05.08-.21.14-.4.18-.59.04-.18.03-.37-.05-.57-.04-.07-.06-.14-.06-.22,0-.08,0-.17-.03-.27-.03-.31-.05-.63-.05-.94,0-.32-.04-.64-.1-.97-.04-.23-.07-.47-.11-.71-.04-.24-.11-.46-.21-.64-.08-.4-.18-.78-.3-1.14-.12-.35-.24-.71-.37-1.08-.17-.54-.3-1.08-.39-1.61-.09-.53-.13-1.1-.13-1.68,0-.02,0-.04,0-.04.01,0,.02-.02,0-.04.07-.15.15-.26.25-.33s.19-.15.27-.25c.1-.11.22-.18.34-.21.12-.03.25-.04.39-.03.18.08.38.17.58.24.05-.01.1-.01.14,0,.04.02.09.02.14,0l1.23-.33c.18-.02.36-.04.55-.05.18,0,.38.03.59.1.06.01.1,0,.14-.02.03-.02.07-.02.1,0,.11-.08.21-.17.31-.26.1-.09.2-.17.32-.23.06.01.11.03.16.06.05.03.11.07.18.13.14.12.25.27.33.43.08.16.11.34.08.54Z"/>
        <path class="cls-1" d="M74.37,120.55c-.08.1-.08.29,0,.58.08.29.09.5.05.64-.02.11-.08.23-.17.34-.09.12-.15.25-.19.39.04.04.08.1.12.17.04.07.09.12.12.17-.07.15-.13.3-.2.45-.07.15-.14.32-.23.5-.07.02-.18.07-.32.16-.09.05-.12.14-.09.26.03.1.07.2.14.3.07.1.12.22.15.34,0,.4,0,.8,0,1.2,0,.4-.07.79-.21,1.17.08.4.07.81-.03,1.23-.1.41-.18.84-.22,1.28-.03.17-.05.33-.05.49,0,.16,0,.33,0,.52-.07.13-.13.25-.18.37-.05.12-.12.25-.22.38-.04.14-.07.3-.08.46-.01.16-.02.32-.03.49-.07.15-.11.31-.13.47-.02.17-.07.32-.13.47-.12.46-.17.92-.17,1.38,0,.46.06.91.18,1.33-.03.19-.05.37-.08.52-.03.15-.08.31-.17.47-.05.2-.09.4-.1.61-.01.2-.06.41-.14.61-.12.43-.19.72-.21.85-.02.14,0,.27.04.39.05.12.06.4.04.83-.07.15-.19.32-.38.5s-.37.32-.53.42c-.11-.02-.28,0-.5.07-.22.07-.38.11-.49.11-.13,0-.27.03-.42.07-.15.04-.29.08-.41.11-.17.05-.35.09-.54.14-.19.05-.37.09-.55.11-.16,0-.29-.05-.4-.13-.17-.22-.31-.43-.43-.62-.12-.19-.17-.41-.16-.66,0-.11-.06-.18-.16-.24-.11-.05-.19-.08-.24-.09-.11-.13-.22-.27-.33-.41-.11-.14-.24-.28-.4-.39-.22-.21-.43-.4-.64-.59-.21-.18-.41-.38-.6-.6-.05-.09-.14-.16-.27-.21-.13-.04-.21-.12-.24-.22-.05-.2-.13-.36-.23-.5-.1-.13-.21-.28-.33-.43-.09-.14-.19-.28-.29-.42-.11-.14-.2-.29-.29-.42-.17-.25-.35-.45-.52-.62-.34-.28-.69-.56-1.04-.84-.35-.28-.71-.54-1.07-.79-.24-.2-.47-.27-.7-.21-.1.03-.14.09-.11.19.05.17.1.33.15.48.05.15.1.29.14.44.12.45.09.83-.09,1.14-.13.22-.19.44-.18.67,0,.22.01.44.02.65-.01.24-.05.48-.11.71-.06.23-.09.45-.08.66-.11.19-.21.36-.3.52-.09.16-.15.33-.18.53-.01.24-.07.47-.18.69-.1.21-.15.45-.13.71.03.23,0,.45-.12.67-.12.22-.15.45-.11.71-.01.16-.04.32-.09.48-.05.16-.08.32-.09.48-.08.18-.13.41-.14.68-.35.28-.65.48-.9.6s-.61.3-1.08.53c-.19,0-.4-.01-.63-.03-.23-.02-.48-.02-.74,0-.07.04-.14.09-.2.13-.07.05-.15.09-.24.14-.04.06-.08.12-.14.16-.06.04-.1.08-.15.12-.18.02-.35.03-.51.04-.16,0-.32.05-.48.15-.18-.19-.37-.37-.57-.55-.19-.17-.35-.38-.46-.61-.1-.27-.25-.47-.45-.62-.2-.15-.36-.34-.47-.57-.11-.1-.22-.18-.32-.23-.11-.05-.21-.1-.3-.16-.17-.22-.31-.46-.43-.72-.12-.26-.22-.53-.29-.8-.42-.29-.69-.64-.8-1.06-.37-.3-.61-.5-.7-.59-.09-.1-.21-.3-.34-.61-.33-.26-.68-.52-1.03-.8-.35-.28-.71-.54-1.07-.79-.21-.37-.4-.73-.59-1.08-.19-.35-.38-.7-.58-1.04-.26-.46-.53-.9-.83-1.31-.3-.41-.57-.84-.82-1.28-.11-.21-.23-.4-.35-.56-.12-.17-.24-.34-.34-.53-.03-.1-.07-.19-.13-.26-.06-.08-.12-.13-.18-.17-.13-.1-.23-.21-.29-.34-.06-.13-.12-.25-.18-.37-.07-.17-.15-.31-.24-.44-.09-.12-.17-.25-.26-.39.06-.47.21-.91.45-1.32.1-.11.21-.18.32-.23.11-.04.21-.1.29-.18.35-.2.59-.38.73-.54.14-.16.37-.37.67-.64.5-.51,1.06-.92,1.66-1.24.13,0,.23.02.3.08.07.06.13.14.18.23.14.23.29.46.45.7.16.24.35.45.59.62.22.31.47.62.74.92.28.3.54.59.77.87.03.02.12.12.28.3.16.18.32.37.49.55.17.18.26.27.29.26.43.21.74.37.95.5.21.13.4.29.58.46.18.18.4.46.66.84.2.24.39.48.59.72.2.24.39.5.56.77.07.17.13.34.18.51.05.17.11.36.19.55.11.1.21.22.31.36.1.13.2.27.29.4.11.02.21.02.28,0,0,.03.03.03.06,0,.03-.02.05-.05.04-.07.1-.32.19-.62.26-.91.07-.28.09-.57.07-.86-.03-.21-.02-.38.02-.52.04-.14.05-.29.04-.45-.06-.12-.11-.25-.15-.4-.04-.15-.09-.28-.15-.4.05-.22.09-.42.14-.6.05-.17.09-.34.12-.51,0-.16.01-.33,0-.5,0-.17.01-.33.05-.47.05-.31.11-.59.17-.86.06-.27.13-.56.21-.87,0-.13-.05-.25-.14-.36-.08-.11-.15-.21-.2-.31.01-.06.01-.12.01-.18,0-.06.01-.12.06-.16.28-.24.44-.54.47-.92.08-.5.14-.91.17-1.22.04-.32.14-.71.3-1.18.03-.09.11-.28.25-.57.14-.29.21-.49.24-.6,0-.08.06-.16.17-.25.11,0,.19,0,.27.03.07.02.16.04.28.07.1-.03.18-.06.25-.11.13-.22.3-.36.53-.42.19-.08.39-.15.6-.22.21-.07.41-.1.59-.1.21,0,.37.05.48.15.11.1.24.11.4.01.23.18.41.38.52.62.12.24.26.44.44.6.13.1.28.14.45.12.17-.02.29,0,.36.06.17.14.28.29.34.45.06.16.11.3.17.41.08.11.16.22.23.34.07.11.12.26.14.44-.02.03,0,.08.06.14.06.06.1.12.14.16.07.06.15.11.24.16.09.04.16.08.19.13l.43.56s.07.04.12.07c.05.03.08.07.09.12.05.09.1.19.14.3.04.11.08.22.11.35.14.52.35.95.62,1.27.21.29.37.49.48.61.11.12.38.28.81.48.07.06.14.14.2.23.06.09.13.18.21.26.04.04.13.16.27.35.14.19.29.36.43.5.15.15.24.21.29.2.13-.11.22-.34.26-.67.04-.33.09-.67.12-1.03.04-.36.09-.6.17-.72,0-.29,0-.59.02-.88.01-.3,0-.6-.06-.9-.06-.3-.08-.61-.07-.92.01-.31,0-.6-.06-.88,0-.08.08-.27.23-.56.15-.29.23-.45.25-.49.09-.56.09-.98,0-1.26-.09-.28-.1-.69-.02-1.21.06-.26.14-.5.24-.74.1-.24.17-.47.21-.7.18-.21.38-.32.59-.34.21-.02.39-.07.55-.17.32,0,.58-.03.78-.09.2-.05.43-.04.69.05.14.02.3.04.48.07s.34.06.48.07c.14.12.3.22.48.29.18.07.34.17.48.29.35.12.62.22.82.3.19.08.46.24.78.47Z"/>
        <path class="cls-1" d="M98.09,131.34s-.06-.02-.08-.02l.05.03c-.09.08-.12.21-.12.39,0,.18-.03.33-.11.43,0,.08-.06.22-.17.41-.11.19-.2.28-.29.28-.37.02-.78.13-1.23.33-.05.09-.11.19-.16.28-.05.09-.13.21-.23.34-.02,0-.05.02-.07.04-.02.02-.06.04-.11.05-.07.05-.18.09-.33.13-.8.19-1.54.55-2.23,1.07-.16.1-.34.18-.53.24-.2.07-.4.09-.62.07-.17-.03-.32-.04-.46-.02-.14.02-.28.07-.42.13-.32.09-.65.12-.97.1-.12.06-.24.12-.37.18-.13.06-.25.13-.36.22-.11.08-.22.18-.32.3-.1.12-.23.19-.39.2-.04-.04-.09-.09-.16-.14-.07-.05-.14-.12-.21-.2-.06-.01-.13-.03-.21-.04-.08-.02-.16-.03-.21-.04-.34.04-.66,0-.98-.1-.44-.15-.85-.24-1.23-.27-.19,0-.35-.06-.5-.17-.15-.11-.3-.19-.45-.26-.17-.22-.32-.43-.45-.64-.13-.2-.25-.43-.34-.67-.09-.03-.16-.07-.23-.12-.07-.05-.13-.09-.19-.13-.18-.06-.27-.13-.29-.2-.08-.22-.21-.37-.36-.46-.16-.09-.32-.23-.47-.43-.01-.05-.04-.12-.08-.22-.04-.1-.08-.19-.14-.28-.01-.05-.03-.12-.05-.2-.02-.09-.05-.15-.09-.2-.15-.17-.3-.34-.45-.5-.15-.16-.28-.32-.41-.47-.03-.12-.06-.32-.07-.58-.02-.55-.16-1.06-.45-1.52-.12-.15-.22-.31-.29-.48-.07-.17-.16-.33-.25-.49.01-.06.02-.13.04-.23.01-.1.04-.18.08-.24l-.47-.71c-.08-.11-.18-.21-.3-.3-.12-.09-.23-.17-.33-.25-.08-.19-.08-.39-.02-.59.07-.2.09-.4.07-.58-.02-.07-.05-.15-.08-.22-.03-.07-.06-.14-.08-.22.13-.33.18-.65.16-.96-.02-.31-.06-.64-.12-.97.15-.15.27-.3.36-.45.09-.16.13-.34.13-.55,0-.08,0-.17-.01-.28-.01-.1-.02-.21-.02-.31.07-.23.15-.47.23-.72.08-.25.16-.47.24-.68.02-.14.02-.29.02-.44,0-.16.03-.3.11-.43.1-.11.17-.23.2-.37.03-.14.05-.28.07-.42.17-.07.31-.15.42-.23.11-.08.21-.15.31-.2.1-.11.15-.2.13-.27-.02-.37.07-.66.26-.89.19-.22.43-.41.71-.57.09-.05.17-.09.25-.13.07-.03.17-.08.28-.14.04-.06.08-.15.13-.25.05-.11.1-.22.15-.34.14-.09.27-.18.39-.26.12-.09.23-.17.31-.24l.26-.07c.22.02.44.04.67.04.23,0,.48.01.74.02.19-.08.39-.18.58-.29.19-.12.4-.18.61-.18.02,0,.05,0,.08,0,.03,0,.05,0,.07-.04.17-.05.34-.12.5-.21.16-.1.33-.15.51-.18.15-.04.3-.09.46-.16.15-.07.3-.16.43-.27.12-.06.23-.11.34-.15.11-.04.23-.06.37-.04.09.05.19.1.28.15.09.04.2.1.33.17.21-.03.43-.04.69-.04.25,0,.51,0,.78.01.13,0,.27.02.4.09.14.07.3.11.49.11.16.01.33,0,.49-.03.16-.03.33-.07.51-.12.5.29,1.05.44,1.64.44.06.01.11.02.17.03.06.01.11.02.17.03.25.12.49.25.72.39.24.14.46.27.68.4.23.15.38.34.47.55.25.12.4.22.46.3.06.08.14.31.25.71.17.03.33.08.47.13.15.05.26.16.33.33.08.09.15.17.22.24.07.07.13.16.19.25.1.08.2.14.31.18.1.04.22.09.34.17.12.15.23.31.32.45.09.15.14.33.14.54,0,.19.03.38.11.57.08.19.13.4.17.63.03.21.08.42.17.63.08.22.17.42.24.61.05.09.09.2.12.31.03.11.07.2.11.27.15.15.25.31.31.48.06.17.1.35.12.53.03.1.06.19.09.27.04.08.07.19.1.31-.01.35-.01.7,0,1.06.02.36-.01.7-.08,1.04-.08.31-.15.63-.23.94-.08.31-.18.62-.31.92l.17.63c-.1.11-.2.22-.29.34-.09.12-.16.21-.22.28-.09.34-.13.64-.1.89.03.25.03.48,0,.7-.07.13-.15.25-.22.38-.07.13-.16.26-.26.39-.1.13-.22.25-.36.36-.14.11-.33.15-.55.13-.24.01-.42.07-.55.19-.09.05-.19.1-.28.15-.09.05-.17.1-.24.14ZM95.24,123.08c-.08-.11-.15-.22-.19-.33-.04-.11-.09-.22-.15-.34-.05-.2-.11-.36-.17-.47-.1-.18-.23-.38-.38-.6-.15-.21-.3-.42-.46-.61-.05-.09-.12-.19-.21-.28-.09-.1-.18-.19-.25-.27-.31-.34-.68-.5-1.12-.46-.08,0-.18-.01-.29-.02-.11-.01-.21-.03-.3-.06-.18-.06-.34-.09-.51-.1-.16,0-.32,0-.48,0-.21,0-.44,0-.68,0-.24,0-.46.01-.67.04-.28-.06-.51.02-.7.23-.6.45-1.11.97-1.54,1.55-.43.58-.75,1.3-.94,2.15-.05.12-.09.25-.12.39-.03.14-.05.28-.07.42-.07.15-.12.3-.16.46-.04.16-.07.3-.08.44.08.19.21.33.39.41.18.08.31.22.39.41.03.1.01.2-.04.31-.05.11-.08.21-.07.32.08.09.17.18.28.29.11.1.2.21.29.32.11.11.2.22.27.35.07.13.14.26.21.4.08.11.16.22.23.34.07.11.13.23.19.35l.63.27c.09.03.19.08.3.14.11.06.22.11.33.13.32,0,.6,0,.84.01.21,0,.39-.03.54-.06.15-.04.31-.08.48-.13-.03,0-.03.02-.03.05l.07-.02s-.04,0-.05-.03c.04-.06.09-.11.16-.14.07-.03.13-.06.18-.07.15-.04.31-.07.47-.11.16-.03.33-.08.5-.15.04-.06.1-.09.2-.07.1.01.19.02.27.03.1-.03.17-.07.2-.13-.03-.1-.06-.18-.09-.26-.03-.07-.02-.14.04-.21.28-.26.55-.48.82-.66.1-.13.18-.25.25-.35.07-.1.12-.21.17-.33.09-.08.15-.16.19-.25.04-.09.11-.16.2-.21.2-.13.37-.29.49-.47.12-.18.24-.36.35-.55.01-.06.02-.1.02-.15,0-.04,0-.09.02-.15.12-.64.03-1.23-.27-1.76Z"/>
        <path class="cls-1" d="M123.47,109.5c.05.3.13.6.23.88.1.28.16.56.19.85.01.34.05.68.11,1.01.06.33.12.66.18.99-.05.2-.09.4-.1.6-.01.2-.05.39-.11.57-.06.18-.12.35-.18.51-.06.16-.13.35-.21.56-.04.06-.04.16,0,.28-.14.36-.31.69-.51,1-.2.31-.44.58-.72.81-.09.34-.21.63-.33.85-.03.09-.1.17-.21.26-.28.24-.61.44-.99.62-.46.26-.74.61-.83,1.06l.18.67c.05.09.15.13.29.12.14-.01.28.03.41.13,0,.03.04.04.09.05.06.01.09.04.1.09.21.4.53.6.96.62.2.16.4.31.58.46.19.15.36.3.54.44.14.04.28.08.41.11.13.03.26.07.41.11.08.09.18.19.3.3.12.11.24.22.35.33.13.07.25.13.36.16.12.04.19.08.23.12.16.3.2.52.13.64-.21.43-.32.8-.34,1.13-.03.09-.06.16-.1.21-.04.05-.08.11-.11.17-.15.15-.32.26-.51.34-.19.08-.33.2-.42.35-.1.13-.22.22-.37.28-.15.05-.27.14-.36.28-.16.2-.29.42-.41.65-.11.23-.28.44-.49.63-.11,0-.23.02-.38.06-.15.04-.29.08-.41.11l-.88-.32c-.13-.07-.19-.12-.2-.15-.08-.11-.16-.22-.24-.31-.08-.1-.16-.19-.23-.28-.05-.09-.14-.17-.26-.23-.12-.06-.22-.13-.3-.22l-.08-.3c-.05-.2-.17-.27-.34-.23-.08,0-.15,0-.2.01-.05.01-.1.03-.15.04-.45-.17-.88-.42-1.31-.73-.31-.18-.61-.3-.89-.36-.26-.09-.52-.22-.78-.39-.26-.17-.52-.34-.78-.51-.16-.12-.33-.24-.5-.37-.17-.13-.34-.22-.51-.28-.23.04-.45.1-.67.18-.22.08-.4.2-.55.35-.05.01-.1.09-.14.24.02.18.04.36.06.52.02.17.04.34.06.52.23.45.37.93.43,1.44,0,.29.03.58.09.85.06.28.11.56.16.83.03.1.06.21.09.34.03.12.04.24.02.36,0,.24-.09.42-.29.56l-.15.04c-.11,0-.2,0-.29.02-.09.01-.2.02-.33.03-.35.2-.73.31-1.14.35-.42.03-.83.08-1.24.13-.41.06-.81.1-1.2.12-.05.01-.09.02-.14.02-.04,0-.09,0-.15-.02-.13-.07-.2-.15-.22-.22-.06-.22-.13-.45-.22-.68-.09-.23-.19-.46-.31-.7-.24-.41-.32-.81-.23-1.17-.08-.22-.17-.43-.25-.65-.08-.22-.14-.43-.17-.63.02-.11,0-.24-.08-.38-.08-.14-.16-.17-.24-.09-.02.03-.05.05-.11.05-.05,0-.08-.01-.09-.04-.04-.04-.08-.09-.12-.15-.04-.06-.08-.09-.11-.11-.03-.12-.07-.26-.11-.41-.04-.15-.09-.28-.15-.4-.03-.12-.07-.25-.1-.37-.03-.12-.09-.23-.16-.32-.14-.23-.25-.48-.32-.75-.07-.27-.14-.53-.21-.78-.05-.09-.1-.17-.14-.22-.04-.06-.1-.11-.17-.18,0-.19,0-.37,0-.54,0-.17-.09-.33-.26-.47,0-.21-.05-.42-.13-.62-.08-.2-.09-.44-.02-.69.02-.14,0-.26-.06-.38-.06-.12-.12-.26-.19-.43,0-.21,0-.42.03-.63.02-.21.03-.44.01-.7-.06-.12-.15-.32-.28-.6-.08-.11-.15-.21-.2-.31-.05-.09-.1-.19-.15-.28-.06-.12-.07-.24-.04-.37.03-.13,0-.25-.08-.36-.07-.17-.11-.28-.11-.33,0-.05.03-.17.09-.34-.04-.04-.06-.08-.07-.12-.01-.04-.03-.06-.06-.08-.3-.24-.45-.6-.45-1.08,0-.16.03-.33.05-.49.02-.17.03-.31.02-.44-.05-.09-.1-.19-.14-.28-.04-.1-.08-.19-.14-.28l.02-.96c-.1-.16-.18-.32-.25-.49-.07-.17-.16-.33-.25-.49-.06-.22-.02-.49.11-.79.07-.15.16-.23.28-.23.12,0,.26-.04.43-.11.16-.1.32-.21.49-.33.17-.12.36-.23.57-.31.22-.08.4-.24.55-.47.17-.18.34-.34.51-.48.18-.14.36-.26.54-.36.42-.03.68-.07.79-.11.11-.04.28-.19.5-.43l.67-.18c.12-.06.23-.12.35-.19.11-.07.24-.14.39-.2.04-.06.1-.15.19-.25.09-.1.18-.19.27-.27.14-.06.3-.14.46-.22.16-.08.33-.16.5-.23.08,0,.16.02.23.04.07.02.15.05.24.08.17.03.32.09.44.16.11.02.21.02.28,0,.25-.04.5-.09.72-.13.23-.05.46-.12.7-.21.07-.04.16-.08.27-.11.11-.03.22-.06.32-.08.12-.03.26-.06.41-.09.15-.03.29-.04.42-.05.15-.04.28-.02.39.05.11.08.21.1.28.08.37,0,.71-.03,1.01-.11.3-.08.59-.17.88-.28.14.02.28.04.44.06.15.03.3.05.44.06.09-.08.15-.14.21-.19.05-.05.11-.1.18-.15.19-.1.34-.13.46-.08.09.03.17.06.24.09.08.03.16.06.24.09.07.06.14.12.21.18.07.06.16.1.27.13l.52-.14c.11,0,.24.07.42.21.2.13.38.27.57.41.18.14.39.28.62.43.22.13.42.28.6.46.18.18.38.34.61.49.09.03.16.09.23.18.06.09.12.18.17.27.08.3.16.59.25.87.09.28.22.55.39.79ZM103.91,109.78v-.04s-.08.02-.08.02l.08.02ZM118.54,113.01c-.06-.04-.1-.07-.1-.09-.06-.22-.16-.43-.29-.62-.13-.19-.32-.33-.55-.43-.11-.02-.21-.07-.28-.15-.07-.07-.16-.14-.25-.19-.23-.18-.48-.31-.75-.4-.04-.04-.1-.06-.17-.05-.08,0-.15,0-.2,0-.1.11-.3.24-.57.39-.23-.07-.46-.08-.68-.02-.22.06-.45.15-.69.26-.25.07-.5.13-.77.19-.26.06-.51.16-.74.3-.28.05-.55.12-.82.22-.27.1-.53.2-.8.29-.22.06-.38.12-.47.17-.15.15-.3.23-.47.26-.17.03-.33.09-.49.19-.07.13-.1.27-.09.42.02.16.01.3,0,.44.3.53.43,1.11.38,1.73.17.14.31.28.41.43.11.15.15.33.13.55,0,.02.02.05.04.07.02.02.03.04.04.07.09.14.15.28.19.43.04.15.05.3.04.47-.04.04-.09.08-.14.14-.05.05-.1.11-.13.18.16.09.32.11.5.07.06-.07.14-.14.23-.2.09-.06.17-.15.25-.25.46.01.9-.05,1.33-.19.43-.14.86-.18,1.31-.11l.26-.07c.1-.03.21-.07.33-.13.12-.06.23-.1.33-.13.08-.1.2-.2.36-.3.51-.3.92-.67,1.25-1.13.14-.17.29-.3.46-.38.16-.08.33-.16.5-.23.07-.02.16-.04.24-.06.09-.02.18-.06.27-.11.02-.22.11-.42.26-.61.15-.19.26-.4.33-.63-.13-.1-.16-.21-.07-.34.09-.13.12-.27.11-.43Z"/>
        <path class="cls-1" d="M150.54,116.96c0,.08,0,.15.04.21.03.06.02.11-.02.15-.21.43-.41.87-.62,1.32-.21.46-.41.92-.6,1.4l-.25.42c-.12.06-.24.11-.38.14-.14.04-.28.09-.42.15-.09.05-.19.11-.29.18-.1.07-.2.14-.28.22-.24-.01-.46-.04-.66-.08-.2-.04-.38-.13-.55-.27-.05-.09-.15-.16-.29-.2-.45-.17-.89-.35-1.34-.54-.45-.19-.91-.32-1.39-.41-.11-.02-.23-.05-.34-.07-.11-.02-.24-.06-.39-.1-.14-.02-.29-.04-.46-.08-.17-.03-.36-.06-.58-.08-.13-.07-.27-.15-.44-.22-.17-.08-.33-.16-.49-.25-.29-.19-.63-.32-1.03-.4-.16,0-.32-.05-.47-.13-.15-.08-.31-.15-.46-.22-.37-.09-.72-.14-1.04-.16-.27-.19-.48-.36-.65-.5-.23-.07-.46-.04-.69.1-.02.03-.03.07-.05.11-.02.04-.02.09,0,.14.07.57.14,1.15.21,1.76.07.61.13,1.21.18,1.81.06.04.12.09.18.15.06.06.12.13.19.19.11.21.18.44.2.68.03.25.09.47.2.68.08.22.15.44.2.67.05.23.1.45.16.68.07.25-.01.4-.24.46-.28.05-.54.12-.78.23-.24.1-.49.22-.75.34-.39.13-.79.26-1.2.38-.41.12-.79.24-1.16.37-.25.07-.49.09-.74.08-.24-.01-.49-.04-.74-.08-.32-.02-.53-.15-.62-.39-.08-.19-.15-.39-.22-.6-.07-.21-.15-.39-.25-.55-.08-.19-.12-.38-.11-.57,0-.19,0-.37-.03-.55-.1-.19-.21-.36-.32-.51-.11-.16-.19-.35-.25-.57.02-.11.01-.2-.03-.27-.04-.07-.09-.14-.13-.2-.15-.17-.27-.37-.34-.59-.07-.22-.12-.43-.15-.64-.05-.28-.12-.54-.21-.78-.09-.24-.21-.45-.37-.62-.04-.23-.06-.44-.07-.64-.01-.2-.04-.38-.09-.56-.04-.15-.06-.31-.05-.49,0-.17-.03-.34-.1-.51-.07-.17-.14-.34-.2-.51-.06-.17-.11-.34-.16-.52-.17-.65-.35-1.27-.52-1.88-.18-.61-.35-1.22-.51-1.84-.06-.44-.22-.81-.46-1.12.1-.24.16-.46.2-.67.04-.21.13-.42.29-.62.05-.09-.04-.15-.28-.16-.03,0-.05,0-.06,0-.02,0-.04-.01-.06,0-.15-.15-.22-.32-.22-.52,0-.2-.05-.38-.14-.54-.08-.19-.09-.37-.05-.55.05-.17.05-.35,0-.52-.06-.12-.11-.22-.15-.32-.04-.1-.08-.19-.14-.28,0-.08,0-.18-.02-.29-.02-.11-.03-.23-.03-.33-.3-.53-.54-1.08-.7-1.65-.17-.57-.32-1.14-.48-1.71-.04-.15-.04-.31,0-.48-.03-.1-.02-.19,0-.26.03-.07.07-.14.1-.21.33-.25.67-.49,1-.73.34-.24.71-.39,1.11-.48.21-.03.41-.11.61-.24.24-.2.5-.33.77-.39.28-.06.56-.1.84-.13.21,0,.41,0,.6.02.19.02.38.08.57.19.21-.03.38-.11.52-.24.14-.13.29-.22.47-.26.03.02.07.02.1.01.04-.01.06.01.08.06.28.27.48.59.58.96.01.16.06.31.14.46.08.15.17.32.27.51-.01.16,0,.34.02.53.02.19.04.4.04.61.05.28.12.57.23.86.08.19.15.4.21.62.06.22.12.44.17.63.02.07.03.15.02.21,0,.07,0,.13,0,.18-.05.31-.07.55-.04.73.04.15.08.29.11.43.04.14.09.28.15.42,0,.02,0,.08,0,.16,0,.08.01.14.05.19.12.24.21.48.28.74.07.26.15.52.25.79.05.17.15.28.32.31.14-.06.26-.16.36-.3.1-.13.23-.22.41-.27.21-.3.42-.55.63-.77.09-.08.17-.14.25-.19.08-.05.17-.1.26-.15.13-.11.2-.26.22-.44.02-.18.06-.33.14-.46.44-.54.81-1.1,1.11-1.66.09-.16.2-.33.32-.51.12-.18.25-.34.37-.48.04-.06.07-.12.11-.17.04-.05.07-.09.09-.12.21-.51.5-.96.88-1.35.37-.39.69-.78.96-1.18.26-.12.51-.25.74-.38.23-.13.46-.23.67-.32.44-.06.74.03.91.28.08.09.16.16.24.22.08.06.16.13.24.22.35.2.7.41,1.05.64.35.23.71.45,1.06.68.09.05.19.12.27.21.09.08.17.17.25.25.08.09.11.17.09.26-.02.08-.04.16-.08.22-.11.19-.22.39-.34.59-.12.21-.28.37-.48.51-.04.04-.08.08-.12.13-.04.05-.08.1-.12.13-.1.13-.18.27-.23.4-.06.13-.05.29.02.45-.05.12-.1.21-.16.28l-.69,1.02-.05.09c-.33.27-.61.57-.86.89-.25.32-.52.62-.81.92-.33.27-.61.58-.86.91-.24.33-.43.7-.56,1.11-.02.14-.08.26-.18.37-.1.11-.16.24-.17.41.03.12.08.19.13.2.06.01.13.03.22.06.09.03.18.06.26.09.25.04.48.12.7.23.22.12.43.25.63.41.24.2.51.38.8.53.29.15.6.28.93.41.09.03.19.07.32.14.12.06.24.11.36.16.24.2.5.36.78.47.28.11.56.22.83.34.18.06.36.13.56.21.19.08.4.16.6.24.17.14.34.31.49.51.16.2.38.28.67.26.22.23.43.46.62.67.19.22.45.3.79.27Z"/>
        <path class="cls-1" d="M163.16,96.38c-.06.36-.19.68-.38.96-.19.28-.34.58-.44.9-.19.1-.35.24-.51.42-.15.17-.29.34-.4.51-.21.22-.43.28-.67.18-.11-.02-.21-.06-.29-.1-.08-.05-.17-.08-.29-.1-.25-.12-.52-.11-.83.02-.02.03-.06.03-.12,0l-.1-.37s-.07-.05-.12-.09c-.05-.04-.1-.05-.15-.04-.55-.07-1.02.05-1.43.34-.14.06-.28.14-.42.23-.14.09-.27.18-.41.27-.06.18-.11.35-.16.52-.05.17-.1.33-.17.48.08.19.15.39.22.58.07.2.14.39.22.58.16.12.32.24.48.37.16.13.31.27.45.42.27.11.55.22.84.31.29.1.58.21.85.35.18.06.35.1.53.12.18.02.35.07.5.17.16.09.3.17.44.22.14.06.27.13.4.23.08,0,.17.02.25.05.09.03.18.06.26.09.5.16.92.45,1.27.86.18.17.36.34.56.53.2.19.38.36.56.53.21.1.38.25.49.43.11.18.24.36.36.54.03.02.06.06.08.14.13.28.29.55.47.79.18.24.38.49.57.73.16.3.29.61.38.92.1.31.16.62.19.93.07.25.1.5.1.75,0,.25-.02.49-.07.72-.02.03-.02.06-.02.08,0,.03,0,.07-.04.13-.16.28-.28.58-.34.89-.06.31-.15.62-.25.94-.02.03-.02.07-.01.1.01.04,0,.08-.05.11-.2.24-.36.48-.47.72-.11.24-.24.49-.38.74-.07.13-.17.25-.3.36s-.24.24-.34.37l-.68.58c-.24.09-.49.2-.73.32-.25.12-.49.28-.73.47-.15.15-.32.27-.52.38-.2.11-.39.21-.57.31-.09.05-.19.1-.28.15-.09.05-.19.1-.28.15-.39-.16-.78-.19-1.18-.08-.27.07-.52.09-.75.04-.33-.04-.65-.1-.96-.16-.31-.06-.61-.18-.89-.34-.18-.08-.36-.16-.54-.22-.18-.06-.34-.12-.49-.19-.13-.07-.26-.11-.41-.11-.15,0-.29,0-.43-.03-.21-.08-.34-.19-.41-.33-.03-.21,0-.41.09-.62.09-.21.16-.43.2-.65-.04-.15-.05-.35-.04-.59.14-.36.3-.72.46-1.1.17-.38.33-.76.49-1.15.08-.1.17-.21.27-.33.1-.12.21-.25.33-.39.53,0,1.04,0,1.53.03.49.03.98.04,1.49.04.09-.05.16-.1.2-.15.04-.05.07-.09.09-.12.07-.04.12-.09.17-.12.04-.04.07-.07.09-.1l.67-.18c.01-.06.03-.11.06-.16s.05-.1.06-.16c.03-.27.07-.54.11-.79.04-.25.04-.51-.01-.79-.1-.19-.22-.38-.34-.59-.12-.21-.3-.4-.53-.58-.12-.05-.25-.1-.4-.17-.15-.07-.3-.13-.45-.2-.44.06-.89.07-1.38,0-.48-.06-.93-.03-1.36.08-.19,0-.35-.05-.47-.13-.13-.08-.27-.16-.42-.23-.19,0-.38,0-.59.04-.21.03-.39-.03-.56-.17-.46-.12-.84-.19-1.14-.22-.16-.12-.32-.23-.47-.35-.15-.12-.31-.22-.46-.32-.13-.1-.27-.23-.4-.39-.14-.16-.29-.31-.46-.46-.13-.1-.26-.22-.38-.36-.12-.14-.24-.29-.36-.44-.17-.33-.34-.68-.52-1.06-.02-.29-.05-.58-.09-.87-.04-.3-.09-.6-.14-.9l-.25-.33c.09-.08.14-.17.16-.28.02-.11.05-.23.07-.34,0-.16.04-.3.09-.42.05-.12.04-.26-.04-.43-.13-.47-.12-.94.02-1.4.02-.11.04-.21.06-.3.02-.08.03-.17.03-.25.1-.11.19-.22.25-.33.06-.11.1-.18.12-.21.09-.16.11-.29.05-.39-.05-.11-.08-.21-.08-.32.06-.18.13-.35.22-.54.08-.18.18-.38.28-.59.14-.17.3-.33.47-.47.18-.14.33-.32.45-.54.03-.09.08-.16.14-.22.06-.06.14-.11.24-.16.1-.11.22-.21.36-.3.14-.09.27-.19.4-.31.23-.12.48-.22.73-.32.25-.09.5-.19.74-.28.02,0,.05-.02.09-.04.03-.02.08-.03.14-.02.3.03.58-.05.84-.22.26-.18.54-.29.85-.35.27-.07.55-.11.83-.1.28,0,.55,0,.81-.02.33.13.65.23.96.32.32.09.65.14,1,.15.13.07.25.15.36.24.12.09.24.18.37.28.13.07.25.13.37.18s.23.11.33.19c.3.32.59.63.87.94.28.31.56.62.82.92Z"/>
      </g>
    </g>
  </g>
</svg>