<?xml version="1.0" encoding="UTF-8"?>
<svg id="_レイヤー_2" data-name="レイヤー 2" xmlns="http://www.w3.org/2000/svg" viewBox="0 0 100.92 45.19">
  <defs>
    <style>
      .cls-1 {
        fill: #4d4d4d;
      }
    </style>
  </defs>
  <g id="_編集箇所" data-name="編集箇所">
    <g>
      <path class="cls-1" d="M17.93,8.6c-1.63-.02-3.26-.04-4.86-.04-2.77,0-5.46.04-7.85.07-.68,0-.97.4-.97.92,0,.31.02.73.02,1.19,0,2.18-.24,5.7-2.07,8.01-.31.4-.7.55-1.06.55-.59,0-1.14-.46-1.14-1.03,0-.22.11-.48.33-.73,1.61-1.72,1.89-4.36,1.89-6.4,0-.81-.04-1.52-.07-2.05v-.09c0-1.03.81-2.13,2.31-2.16.84,0,1.74-.02,2.64-.02-.31-.55-.7-.99-1.1-1.43-.13-.13-.18-.29-.18-.42,0-.44.57-.84,1.12-.84.18,0,.35.04.51.15.24.15,1.72,1.69,1.72,2.44v.09h1.89c.44-.66.84-1.5,1.08-2.13.18-.42.51-.59.88-.59.59,0,1.23.46,1.23,1.03,0,.42-.73,1.36-.97,1.69,1.56,0,3.12.02,4.64.02.59,0,.9.44.9.88s-.31.88-.88.88h-.02ZM3.21,3.94c-.59,0-.9-.46-.9-.92s.31-.9.9-.9h5.7v-1.1c0-.68.57-1.01,1.12-1.01s1.14.35,1.14,1.01v.02l-.02,1.08h5.57c.59,0,.88.46.88.92s-.29.9-.88.9H3.21ZM4.97,19.12c-.59,0-.9-.44-.9-.86,0-.44.31-.88.9-.88l5.32.02v-1.67h-3.04c-.57,0-.86-.4-.86-.79s.29-.79.86-.79h3.04v-1.54h-2.73c-1.28,1.83-1.56,2.05-2.05,2.05-.53,0-1.06-.4-1.06-.86,0-.18.07-.35.24-.53,1.06-1.12,1.83-2.24,2.46-3.7.15-.35.46-.48.77-.48.51,0,1.06.37,1.06.86,0,.11-.02.24-.09.35-.11.22-.24.44-.35.66h1.74v-1.23c0-.64.48-.97.97-.97s1.01.33,1.01.97v1.23l4.25-.02c.57,0,.86.42.86.84,0,.44-.29.86-.86.86l-4.25-.02v1.54h3.48c.53,0,.79.4.79.79s-.26.79-.79.79h-3.48v1.67l5.52-.02c.57,0,.86.44.86.86,0,.44-.29.88-.86.88H4.97Z"/>
      <path class="cls-1" d="M26.82,18.83l.22-10.17c-1.06,1.36-1.72,2.16-2.49,2.16-.57,0-1.03-.44-1.03-.97,0-.24.11-.53.37-.77,2.09-2,4-4.91,5.02-7.97.18-.48.55-.7.95-.7.59,0,1.23.46,1.23,1.08,0,.53-1.08,2.6-1.89,3.98l-.26,13.36c0,.68-.55,1.01-1.08,1.01s-1.03-.33-1.03-.99v-.02ZM37.31,18.94c0,.57-.53.86-1.06.86s-1.06-.29-1.06-.86v-.02l.11-9.2c-1.01,2.16-2.27,4.07-4.16,5.87-.26.24-.57.35-.84.35-.57,0-1.08-.44-1.08-.97,0-.26.13-.55.42-.79,2.13-1.8,3.72-3.98,5.02-6.82l-3.76.07h-.02c-.66,0-.99-.46-.99-.95s.35-.97,1.01-.97h4.29V1.36c0-.64.53-.95,1.03-.95.55,0,1.08.33,1.08.95v4.16h4.91c.64,0,.97.48.97.97s-.31.95-.95.95h-.02l-4.38-.07c1.5,2.71,3.39,4.66,5.41,6.23.33.26.46.57.46.9,0,.57-.46,1.12-1.1,1.12-.29,0-.62-.11-.92-.37-1.65-1.41-3.21-3.43-4.49-5.7l.11,9.37v.02Z"/>
      <path class="cls-1" d="M52.69,12.21c-1.3,0-2.33-1.03-2.33-2.33s1.03-2.33,2.33-2.33,2.33,1.03,2.33,2.33-1.03,2.33-2.33,2.33Z"/>
      <path class="cls-1" d="M71.41,4.38c1.34.55,3.72,2.02,3.72,3.17,0,.59-.46,1.08-1.01,1.08-.29,0-.62-.15-.88-.51-.29-.37-.59-.7-.95-1.01-5.57.95-11.16,1.23-11.79,1.23-.73,0-1.1-.51-1.1-1.01,0-.46.31-.9.95-.9.9,0,1.85-.02,2.77-.07.24-.48.53-1.32.75-1.98l-4.64.02c-.66,0-1.01-.48-1.01-.97s.35-.97,1.01-.97l6.89.04v-1.34c0-.68.57-1.03,1.14-1.03s1.14.35,1.14,1.03v1.34l7-.04c.68,0,1.01.48,1.01.97s-.33.97-1.01.97l-3.98-.02ZM73.17,16.74v.04c0,1.3-.75,2.95-3.63,2.95-1.5,0-2.33-.18-2.33-1.17,0-.48.29-.97.86-.97.04,0,.11,0,.18.02.46.09.92.15,1.34.15.84,0,1.45-.29,1.5-1.34,0-.18.02-.37.02-.59h-7.55v3.08c0,.64-.55.99-1.08.99s-.99-.31-.99-.97c0-.22.11-7.9.13-8.27.04-.86.68-1.85,2.44-1.89,1.03-.02,2.33-.04,3.61-.04,1.06,0,2.09.02,2.99.04,1.76.07,2.38.88,2.42,1.87.04,1.01.02,2.93.04,3.81l.04,2.29ZM71.13,13.09h-7.55c0,.4-.02.81-.02,1.23h7.57v-1.23ZM71.08,11.24c-.02-.86-.37-.88-3.56-.88-3.59,0-3.85,0-3.89.88v.33h7.48l-.02-.33ZM66.2,4.36c-.15.44-.55,1.25-.88,1.89,1.76-.11,3.48-.26,5.13-.44-.09-.04-.15-.09-.22-.13-.31-.15-.44-.4-.44-.62,0-.26.15-.55.42-.7h-4Z"/>
      <path class="cls-1" d="M84.02,18.83l.22-10.17c-1.06,1.36-1.72,2.16-2.49,2.16-.57,0-1.03-.44-1.03-.97,0-.24.11-.53.37-.77,2.09-2,4-4.91,5.02-7.97.18-.48.55-.7.95-.7.59,0,1.23.46,1.23,1.08,0,.53-1.08,2.6-1.89,3.98l-.26,13.36c0,.68-.55,1.01-1.08,1.01s-1.03-.33-1.03-.99v-.02ZM94.51,18.94c0,.57-.53.86-1.06.86s-1.06-.29-1.06-.86v-.02l.11-9.2c-1.01,2.16-2.27,4.07-4.16,5.87-.26.24-.57.35-.84.35-.57,0-1.08-.44-1.08-.97,0-.26.13-.55.42-.79,2.13-1.8,3.72-3.98,5.02-6.82l-3.76.07h-.02c-.66,0-.99-.46-.99-.95s.35-.97,1.01-.97h4.29V1.36c0-.64.53-.95,1.03-.95.55,0,1.08.33,1.08.95v4.16h4.91c.64,0,.97.48.97.97s-.31.95-.95.95h-.02l-4.38-.07c1.5,2.71,3.39,4.66,5.41,6.23.33.26.46.57.46.9,0,.57-.46,1.12-1.1,1.12-.29,0-.62-.11-.92-.37-1.65-1.41-3.21-3.43-4.49-5.7l.11,9.37v.02Z"/>
      <path class="cls-1" d="M35.73,40.3c-3.28,1.25-5.96,1.89-6.12,1.89-.55,0-.9-.55-.9-1.06,0-.42.22-.79.68-.9.46-.09.95-.2,1.41-.31v-11.51h-.88c-.62,0-.95-.44-.95-.88s.33-.88.95-.88h8.91c.64,0,.95.44.95.88s-.31.88-.95.88h-1.08v14.5c.07-.09.15-.15.26-.22,1.54-.9,2.79-2,3.78-3.23-1.76-2.88-2.38-5.81-2.38-6.47,0-.62.55-.97,1.06-.97.4,0,.77.2.86.66.33,1.83.84,3.5,1.65,4.97,1.47-2.66,1.83-5.35,1.83-5.79s-.07-.44-2.6-.44c-1.03,0-2.16,0-3.1.04h-.04c-.64,0-.97-.46-.97-.95s.35-.99,1.01-.99c.79-.02,1.69-.02,2.57-.02,1.21,0,2.38,0,3.17.02,1.43.02,2.13.66,2.13,1.94,0,.95-.55,4.62-2.75,8.05.97,1.14,2.2,2.11,3.7,2.82.46.22.64.57.64.95,0,.62-.48,1.21-1.19,1.21-.51,0-2.42-.9-4.38-3.3-1.54,1.83-3.59,3.43-4.31,3.43-.4,0-.75-.22-.95-.51-.02.64-.53.95-1.01.95s-1.01-.33-1.01-1.01v-3.76ZM35.75,28.42h-2.95v2.4h2.93l.02-2.4ZM35.73,32.49h-2.93v2.24h2.93v-2.24ZM35.73,36.41h-2.93v2.97c1.01-.31,1.98-.64,2.93-.97v-2Z"/>
      <path class="cls-1" d="M55.29,36.3c-1.5,1.21-1.83,1.36-2.16,1.36-.62,0-1.06-.55-1.06-1.1,0-.33.15-.66.53-.88,1.89-1.1,3.78-3.04,5.13-5.28.22-.35.53-.51.81-.51.59,0,1.17.53,1.17,1.12,0,.2-.07.4-.2.59-.68.97-1.39,1.85-2.13,2.66l-.24,9.92c-.02.66-.55.99-1.1.99-.51,0-1.01-.31-1.01-.95v-.04l.26-7.9ZM53.39,32.43c-.51,0-1.1-.33-1.1-.99,0-.35.22-.73.73-1.03,1.72-.99,3.15-2.49,4.22-4.27.24-.4.57-.55.88-.55.57,0,1.1.48,1.1,1.08,0,.2-.07.44-.22.66-1.78,2.57-4.51,5.1-5.61,5.1ZM68.58,39.18v1.72l.04,1.72v.04c0,1.12-.95,2.42-3.37,2.42-.92,0-2.13-.02-2.13-1.12,0-.51.35-1.01.97-1.01.07,0,.13,0,.22.02.4.09.81.15,1.17.15.7,0,1.21-.24,1.21-1.08v-.04l-.04-2.82h-7.39c-.57,0-.88-.42-.88-.84s.31-.84.88-.84h7.39l-.02-.79c0-.22.09-.4.2-.53h-6.91c-.57,0-.88-.42-.88-.84s.31-.84.88-.84h10.54c.57,0,.84.42.84.84s-.26.84-.84.84h-2.07c.11.13.18.29.18.51v.81h2.53c.57,0,.84.42.84.84s-.26.84-.84.84h-2.51ZM67.7,33.42c-.73.04-1.65.07-2.57.07-2.88,0-4.55-.02-4.64-1.89-.02-.37-.02-.81-.02-1.28,0-.73.02-1.5.04-2.13.04-.97.77-1.89,2.16-1.94.75-.02,1.63-.04,2.53-.04s1.76.02,2.46.04c1.1.04,2.05.88,2.11,1.78.04.62.07,1.36.07,2.07,0,.51,0,1.01-.02,1.45-.04,1.14-.86,1.8-2.11,1.87ZM62.72,42.33c-.55-.64-1.21-.97-1.83-1.28-.29-.15-.42-.35-.42-.57,0-.44.48-.92,1.03-.92.64,0,2.86.99,2.86,1.96,0,.57-.53,1.1-1.06,1.1-.22,0-.42-.09-.59-.29ZM67.85,29.06c0-.13-.02-.26-.02-.4-.04-.84-.13-.86-2.66-.86-.75,0-1.52.02-2.02.04-.64.02-.77.42-.79.84,0,.11-.02.24-.02.37h5.52ZM62.33,30.55c0,1.34.02,1.36,2.68,1.36,2.49,0,2.79-.02,2.84-.77,0-.18.02-.4.02-.59h-5.54Z"/>
    </g>
  </g>
</svg>