<?xml version="1.0" encoding="UTF-8"?>
<svg id="_レイヤー_2" data-name="レイヤー 2" xmlns="http://www.w3.org/2000/svg" viewBox="0 0 91.88 52.7">
  <defs>
    <style>
      .cls-1 {
        fill: #333;
      }
    </style>
  </defs>
  <g id="_編集箇所" data-name="編集箇所">
    <g>
      <path class="cls-1" d="M28.38,12.93h2.29l-.27-2.78,1.3.08c2.02.14,2.11.22,2.11,1.51,0,.65.05.97.13.97s.24-.08.46-.27c.43-.35,1.97-.51,2.27-.43s.54.54.11.76c-.19.11-.7.22-1.51.35l-1.43.22v1.84h.73c.46.03.78-.08.92-.3.3-.43.46-.46,1.19-.35.35.05.62.11.76.14.3.08.32.08.32.43,0,.19-.16.35-.49.49-.32.14-.89.22-1.73.27l-1.51.14v2.94h1c.46,0,.76-.03.86-.08.08-.05.16-.19.24-.4.08-.22.19-.35.32-.38.3-.08,1.92-.03,2.27.05.35.08.54.49-.11.92-.32.22-1.08.38-2.24.46-2.35.19-7.04.35-7.88.35h-2.48s-.05-.11-.03-.19c.08-.19.86-.3,2.38-.32h1.21c.32.03.97-.16,1.05-.24.08-.08.22-.51.22-.81l-.05-.86c-.08-.94-.08-1-.65-1.13-.3-.08-.78-.11-1.48-.11s-1.16-.03-1.35-.05c-.19-.03-.35-.05-.46-.05s-.19-.03-.24-.08c-.03-.03-.05-.08-.05-.11.05-.14.76-.24,2.08-.3l2.02-.05v-1.84h-1.35c-1.27,0-1.43.03-2.05.54-.62.51-.92.78-1.27.92s-.62.22-1.13.22c-.24,0-.46.05-.59.19-.13.13-.4.49-.81,1.05-.78,1.16-1.51,1.67-2.59,1.89-.54.11-.97.14-1.32.11-.35-.03-.51-.11-.51-.22,0-.08.19-.19.54-.38.73-.35.92-.67,1.38-1.62l.57-1.24-.22-4.75c-.03-.3-.05-.49-.08-.57-.03-.3.03-.49.14-.51.11-.03.51-.08,1.19-.16.67-.08,2.62-.11,5.83-.11s5.21-.03,6.05-.11c.84-.08,1.32-.27,1.46-.59.13-.32.46-.51.92-.54l1-.08c.4-.03.76.38.62.89-.08.24-.35.43-.81.54-.94.22-4.29.62-7.83.49-1.75-.08-3.19-.08-4.26,0l-1.65.16.11.49c.08.4.16,1.24.24,2.54.08,1.3.14,1.94.19,1.94s.3-.16.73-.49c.78-.59,1.19-1.38,1.21-2.38v-.57c-.03-.19.22-.41.51-.43l1.54-.24v2.27ZM38.31,2.76c.13.3-.11.62-.73.92l-.76.24c-.86.22-14.41.62-14.6.49-.13-.14,0-.24.38-.32.84-.22,3.32-.38,7.42-.46l4.7-.16c.46-.05.73-.19.81-.41.3-.57,2.54-1.05,2.78-.3ZM25.57,5.05h1c1.27,0,1.19-.14,1.97,1.48.4.81.57,1.24.51,1.32-.13.08-1.97.14-2.32,0-.19-.08-.38-.27-.62-.57-.35-.4-.54-.89-.54-1.43v-.81ZM31.86,1.17c0,.43-.03.73-.11.86s-.19.24-.38.32c-1.62.76-3.35.3-3.35-1S29.19.03,30.35,0c.57-.03.97.05,1.19.24s.32.49.32.92ZM33.61,4.67c1.16,0,1.92.51,1.62,1.51-.19.65-1.54,1.3-2.83,1.3s-1.4.03-.62-1.4c.41-.73.65-1.13.78-1.24.13-.11.49-.16,1.05-.16Z"/>
      <path class="cls-1" d="M52.65,14.18c1.35-1.48,1.78-2.83,2.1-4.32,0-.46.14-1.21.43-1.35.76-.16,1.51,0,2.24,0,.16,0,.3.59.3.76-.13,1.62-.73,3.27-1.65,4.62-.73,1.05-1.65,1.94-3.43,1.51,0,1.19,0,2.24.16,3.27,0,.62-.32,1.05-1.05,1.21q-2.4.89-2.7-1.94c-.13-1.94-.3-3.89-.46-5.99,0-.43-.13-.89-.13-1.35-1.19,0-2.4.16-3.43.3-.16-.14-.16-.3-.16-.3.16-.3.3-.59.59-.73,2.54-1.94,4.18-4.35,4.78-7.48.16-.46.3-.76.76-.76h.59c2.1,0,2.54.3,1.94,2.4-.14.59-.3,1.19-.73,1.78-.76,1.05-.76,2.24-.62,3.46.3,1.48.3,3.13.46,4.91ZM61.91,6.56c1.05.14,2.11.3,2.56-.76.13-.14.43-.3.59-.3.59,0,1.19-.14,1.78,0,.46,0,1.05.46,1.05.59-.16.46-.46,1.05-.76,1.21-.73.14-1.78.3-2.67.3h-2.27c0,2.67-.3,9.42-.13,10.45,0,1.65-1.19,1.65-2.24,1.94-1.51.59-1.65.46-1.65-1.03q0-2.27-.16-3.46v-7.77c-1.78-.3-3.59.59-5.53-.14,1.94-1.05,3.75-.46,5.53-1.05,0-1.35,0-2.83-.13-4.35,0-.73.13-.89.89-.89,3,.3,2.83.3,3,3,0,.73.13,1.48.13,2.24ZM62.2,8.8c.92-.16,1.51-.3,2.27-.3.3,0,.59.14.73.43,1.21,1.94,2.54,4.05,4.35,5.53v.16c-1.65,1.35-2.7,1.35-3.89-.3-1.05-1.35-1.94-2.83-2.83-4.35-.3-.3-.46-.73-.62-1.19Z"/>
      <path class="cls-1" d="M75.19,11.34c.46-.14,1.05-.08,1.48.22.43.3.7.73.73,1.51.03.78-.35,1.19-1.3,1-.94-.19-1.81-1.19-1.73-1.7.03-.24.05-.43.08-.54.08-.22.27-.35.73-.49Z"/>
      <path class="cls-1" d="M.3,41.2c1.27-1.46,2.32-2.67,3.46-4.02-1.4-.11-2.59-.22-3.75-.3v-.32c.32-.03.62-.11.94-.11,3.78.03,7.56.08,11.34.11.54.03,1.03.08,1.35-.57.24-.49,2.19-.38,2.4.14.11.19-.14.73-.38.84-.3.19-.73.16-1.11.16-2.81-.03-5.61-.05-8.42-.05h-1.89c.7.35,1.21.59,1.86.94-.62.78-1.19,1.48-1.84,2.35h5.75c-.03-.19-.03-.24-.03-.3-.05-.51-.94-.94-.3-1.46.62-.51,1.94-.14,2.46.51.73.92,1.46,1.84,2.21,2.75-1.24.76-2.02.7-2.92-.24-.49-.49-.94-.65-1.57-.59-1.57.11-3.13.14-4.7.27-.94.08-1.89-.14-2.86.38-.4.24-1.21-.27-2.02-.49ZM.32,51.27c1.48-.62,1.62-1.97,1.7-3.32s.05-2.7.05-4.02c0-.65.27-.92.92-.92,2.38-.05,4.75-.16,7.13-.16.81,0,1.65.16,2.46.35.24.05.57.46.57.7.11,2.21.13,4.43.13,6.64,0,.73-1.73,1.7-2.38,1.38-.16-.08-.24-.32-.27-.51-.11-.86-.16-1.7-.24-2.51-1.73,0-3.46-.03-5.18.03-.19,0-.43.4-.54.65-.67,1.51-1.7,2.48-3.46,2.56-.65.03-.97-.14-.89-.86ZM10.26,46.79c-1.75-.08-3.43-.16-5.16-.24l-.08,1.67h5.32l-.08-1.43ZM10.15,43.49h-5.07v2.4c1.75.13,3.46.24,5.24.38l-.16-2.78ZM7.34,35.45c-1.35,0-2.08-.57-2.08-1.51,0-.76.38-1.13,1.16-1.11,1.3,0,2.19.78,2.13,1.94-.05.86-.78.59-1.21.67Z"/>
      <path class="cls-1" d="M27.94,46.25c1.35-1.48,1.78-2.83,2.11-4.32,0-.46.14-1.21.43-1.35.76-.16,1.51,0,2.24,0,.16,0,.3.59.3.76-.13,1.62-.73,3.27-1.65,4.62-.73,1.05-1.65,1.94-3.43,1.51,0,1.19,0,2.24.16,3.27,0,.62-.32,1.05-1.05,1.21q-2.4.89-2.7-1.94c-.13-1.94-.3-3.89-.46-5.99,0-.43-.13-.89-.13-1.35-1.19,0-2.4.16-3.43.3-.16-.14-.16-.3-.16-.3.16-.3.3-.59.59-.73,2.54-1.94,4.18-4.35,4.78-7.48.16-.46.3-.76.76-.76h.59c2.1,0,2.54.3,1.94,2.4-.14.59-.3,1.19-.73,1.78-.76,1.05-.76,2.24-.62,3.46.3,1.48.3,3.13.46,4.91ZM37.2,38.64c1.05.14,2.11.3,2.56-.76.13-.13.43-.3.59-.3.59,0,1.19-.13,1.78,0,.46,0,1.05.46,1.05.59-.16.46-.46,1.05-.76,1.21-.73.14-1.78.3-2.67.3h-2.27c0,2.67-.3,9.42-.13,10.45,0,1.65-1.19,1.65-2.24,1.94-1.51.59-1.65.46-1.65-1.03q0-2.27-.16-3.46v-7.77c-1.78-.3-3.59.59-5.53-.14,1.94-1.05,3.75-.46,5.53-1.05,0-1.35,0-2.83-.13-4.35,0-.73.13-.89.89-.89,3,.3,2.83.3,3,3,0,.73.13,1.48.13,2.24ZM37.5,40.88c.92-.16,1.51-.3,2.27-.3.3,0,.59.14.73.43,1.21,1.94,2.54,4.05,4.35,5.53v.16c-1.65,1.35-2.7,1.35-3.89-.3-1.05-1.35-1.94-2.83-2.83-4.35-.3-.3-.46-.73-.62-1.19Z"/>
      <path class="cls-1" d="M59.42,33.91c-.05,0-.22-.05-.49-.11-.24-.05-.35,0-.32.16.03.19-.32.32-1.03.35l-1.11.08v5.32c0,3-.03,5.56-.05,7.67-.03,2.08-.08,3.29-.19,3.62-.11.65-.89,1.24-1.73.97-.86-.3-.92-.4-.94-1.21l-.35-4.37-1.03.32c-1.81.51-5.13.7-6.26.27-1.08-.46-1.05-.97,0-.81,1.11.19,2.43-.08,2.56-.19.03-.05,0-.24-.13-.62-.11-.4-.24-1.78-.27-4.13-.03-2.4-.05-3.91-.11-4.56-.03-.65-.05-1.19-.11-1.54-.03-.38-.11-.67-.14-.81-.03-.14-.19-.19-.32-.19-.19,0-.49-.16-.86-.49l-.62-.46,5.29-.08h4.05l.7-.73c.43-.43.73-.67.86-.67.27,0,1.65.92,2.24,1.65.32.4.41.57.35.57ZM53.24,43.74c0-1.11.08-1.19-1.08-1.38-1.19-.14-1.3-.22-1.3,1.59,0,.94.03,1.4.11,1.43l2.27-.51v-1.13ZM53.24,37.99v-3.59h-2.35v1.65c-.03,1.81.08,1.94,1.7,1.94h.65ZM50.89,38.5v2.83l2.27-.11.05-1.19c.03-.73,0-1.11-.11-1.11l-2.21-.43ZM59.78,34.86c.32,0,.84.05,1.48.08,1.27.11,4.37.38,5.1.54.73.16,1.35.73,1.38,1.13,0,.43-.3,2.48-.81,4.29-.57,1.78-1.13,3.56-1.62,4.62l-.59,1.24.65,1.03c.51.86,1.05,1.59,1.59,2.19.49.59.86.89,1.08.92.4.05,1.19.27,1.62.51.24.16.35.27.35.43,0,.14-.11.19-.35.22-.43.05-1.3-.14-2.13-.49-.81-.38-1.62-1.19-2.54-2-.43-.46-.78-.86-1.05-1.24l-.35-.59-2.11,1.92c-.32.24-.76.43-.97.43h-.51c-.54-.14-1-.32-1.3-.65-.11-.16-.22-.3-.19-.46-.03-.14.16-.22.54-.32.73-.19.94-.38,1.3-.84l1.51-2.43-.73-1.27c-.4-.65-.73-1.62-1.11-2.56-.3-.92-.57-1.84-.57-2.21,0-.16.03-.27.16-.3.16-.03,1,.24,1.35.78.19.27.49.92.86,2.02.35,1.05.62,1.59.7,1.59.03-.08.11-.13.16-.24.86-2.65,1.38-4.53,1.46-5.64l.19-1.21-3.05-.4c-.86-.11-2.02-.7-2.02-.97,0-.05.16-.11.51-.11Z"/>
      <path class="cls-1" d="M79.92,38.23c0,3.43-4.32,6.72-7.75,5.8,1.03-.43,1.94-1.46,2.38-1.94,1.48-.43,1.94-1.46,2.4-2.38.46-1.03,1.03-1.48,2.38-1.48h.59ZM73.2,38.23c.46-.46.92-.46,1.35-.89,1.05-.49,1.94-1.51,1.94-2.86,0,0,0-.59.46-.59.46-.43,1.48-.43,1.94-.43l.43.43c-.43,2.4-3.73,5.37-6.13,4.35ZM77.41,44.49c0,1.94,0,4.32-.46,6.26,0,.49,0,.92-.92.92-.43,0-1.03.46-1.48.46,0,0-.43-.46-.43-.89,0-1.94.43-4.35.43-6.29l.46-.46h2.4ZM84.7,52.7c1.38-1.94.92-3.4.92-5.34-1.92-.46-4.35,0-6.29-.92v-.46c1.94.46,3.89.46,6.29.92v-3.29c-1.48,0-2.83,0-4.35-.59v-.43h1.51c1.92,0,3.29.43,4.78.43h.92c.57-.92,1.46-.43,2.38-.43l.59.43q0,.59-.59.59c-.43,0-1.35.43-1.81.43v1.94h2.4s.43,0,.43.46c0,0,0,.46-.43.46-.59.46-1.51.46-1.94.46,0,1.03-.46,1.46-.46,2.38-.57,1.94-.57,2.4-2.51,2.4-.46,0-1.38.57-1.84.57ZM81.75,48.38c1.03-.59,1.94,0,1.94.92,0,.43-.49.92-.92.92q-.49.54-1.03.54c-.92,0-1.4-.54-1.4-1.46s0-.92.92-.92h.49ZM81.27,33.88c3.43,0,6.29.59,9.58.59.59,0,.59.43.59.92,0,1.46,0,2.83-.59,4.32,0,.92-.43,1.35-1.35,1.35-2.4,0-5.37-.43-7.75-.43-.49,0-.49-.49-.49-.49v-6.26ZM83.7,37.34h4.78v-1.94l-.46-.49h-4.32v2.43ZM83.7,37.77q.43,2.38,2.38,2.38h.46q1.48,0,1.94-1.46v-.46c-1.38-.46-2.86-.46-4.78-.46Z"/>
    </g>
  </g>
</svg>